<?xml version="1.0" encoding="utf-8" standalone="no"?>
<!DOCTYPE svg PUBLIC "-//W3C//DTD SVG 1.1//EN"
  "http://www.w3.org/Graphics/SVG/1.1/DTD/svg11.dtd">
<svg xmlns:xlink="http://www.w3.org/1999/xlink" width="572.4pt" height="179.793977pt" viewBox="0 0 572.4 179.793977" xmlns="http://www.w3.org/2000/svg" version="1.1">
 <metadata>
  <rdf:RDF xmlns:dc="http://purl.org/dc/elements/1.1/" xmlns:cc="http://creativecommons.org/ns#" xmlns:rdf="http://www.w3.org/1999/02/22-rdf-syntax-ns#">
   <cc:Work>
    <dc:type rdf:resource="http://purl.org/dc/dcmitype/StillImage"/>
    <dc:date>2025-07-16T16:42:29.781519</dc:date>
    <dc:format>image/svg+xml</dc:format>
    <dc:creator>
     <cc:Agent>
      <dc:title>Matplotlib v3.10.1, https://matplotlib.org/</dc:title>
     </cc:Agent>
    </dc:creator>
   </cc:Work>
  </rdf:RDF>
 </metadata>
 <defs>
  <style type="text/css">*{stroke-linejoin: round; stroke-linecap: butt}</style>
 </defs>
 <g id="figure_1">
  <g id="patch_1">
   <path d="M 0 179.793977 
L 572.4 179.793977 
L 572.4 0 
L 0 0 
z
" style="fill: #ffffff"/>
  </g>
  <g id="axes_1">
   <g id="patch_2">
    <path d="M 85.654923 42.32667 
C 80.170551 39.24001 74.098227 37.340088 67.832602 36.750387 
C 61.566977 36.160685 55.246795 36.89426 49.282819 38.903437 
C 43.318842 40.912613 37.843135 44.1529 33.211575 48.413705 
C 28.580015 52.674509 24.895161 57.861481 22.3965 63.637509 
C 19.897839 69.413537 18.6407 75.650718 18.706788 81.943685 
C 18.772875 88.236653 20.160725 94.446057 22.780139 100.168336 
C 25.399553 105.890615 29.192527 110.999056 33.912548 115.161652 
C 38.632569 119.324248 44.175118 122.448824 50.179975 124.332306 
C 49.247137 117.269238 50.144388 110.083544 52.785383 103.466726 
C 55.426377 96.849909 59.72359 91.021254 65.263488 86.541672 
C 64.346718 78.017364 65.759109 69.401907 69.349641 61.616513 
C 72.940173 53.831118 78.576143 47.163526 85.654923 42.32667 
" clip-path="url(#pbdf5b7dff8)" style="fill: #221331; opacity: 0.8; stroke: #221331; stroke-linejoin: miter"/>
   </g>
   <g id="patch_3">
    <path d="M 85.654923 42.32667 
C 92.525757 46.193647 98.258898 51.802284 102.275774 58.586573 
C 106.292649 65.370862 108.45343 73.094641 108.540056 80.978445 
C 116.682629 84.656442 123.42743 90.861902 127.769746 98.670452 
C 132.112061 106.479002 133.825014 115.482661 132.653439 124.340232 
C 138.568081 121.546158 143.840961 117.557995 148.139535 112.627265 
C 152.438109 107.696534 155.670072 101.929117 157.631595 95.688742 
C 159.593118 89.448368 160.24208 82.869041 159.537554 76.365697 
C 158.833027 69.862353 156.79014 63.574642 153.537731 57.899109 
C 150.285322 52.223575 145.893232 47.282094 140.638454 43.386307 
C 135.383677 39.49052 129.379052 36.724083 123.00327 35.261467 
C 116.627488 33.798851 110.01746 33.671464 103.590058 34.887338 
C 97.162657 36.103212 91.055901 38.63624 85.654923 42.32667 
" clip-path="url(#pbdf5b7dff8)" style="fill: #921c5b; opacity: 0.8; stroke: #921c5b; stroke-linejoin: miter"/>
   </g>
   <g id="patch_4">
    <path d="M 85.654923 42.32667 
C 78.576143 47.163526 72.940173 53.831118 69.349641 61.616513 
C 65.759109 69.401907 64.346718 78.017364 65.263488 86.541672 
C 71.253633 81.698018 78.473208 78.612324 86.113765 77.630126 
C 93.754322 76.647928 101.519605 77.80731 108.540056 80.978445 
C 108.45343 73.094641 106.292649 65.370862 102.275774 58.586573 
C 98.258898 51.802284 92.525757 46.193647 85.654923 42.32667 
" clip-path="url(#pbdf5b7dff8)" style="fill: #b25900; opacity: 0.4"/>
   </g>
   <g id="patch_5">
    <path d="M 50.179975 124.332306 
C 51.500462 134.330499 56.413091 143.515071 63.996461 150.163384 
C 71.579831 156.811696 81.328217 160.480382 91.413233 160.481351 
C 101.49825 160.48232 111.247341 156.815508 118.831988 150.168653 
C 126.416636 143.521799 131.331031 134.338171 132.653439 124.340232 
C 125.175914 127.872612 116.902683 129.387814 108.658617 128.734768 
C 100.414551 128.081722 92.483054 125.282877 85.654923 120.617288 
C 80.309033 123.62601 74.403043 125.50799 68.302 126.146906 
C 62.200957 126.785821 56.033207 126.16823 50.179975 124.332306 
" clip-path="url(#pbdf5b7dff8)" style="fill: #ed503e; opacity: 0.8; stroke: #ed503e; stroke-linejoin: miter"/>
   </g>
   <g id="patch_6">
    <path d="M 50.179975 124.332306 
C 56.033207 126.16823 62.200957 126.785821 68.302 126.146906 
C 74.403043 125.50799 80.309033 123.62601 85.654923 120.617288 
C 79.994603 116.749652 75.239929 111.699935 71.719654 105.817292 
C 68.199379 99.934649 65.996553 93.357861 65.263488 86.541672 
C 59.72359 91.021254 55.426377 96.849909 52.785383 103.466726 
C 50.144388 110.083544 49.247137 117.269238 50.179975 124.332306 
" clip-path="url(#pbdf5b7dff8)" style="fill: #b200b2; opacity: 0.4"/>
   </g>
   <g id="patch_7">
    <path d="M 108.540056 80.978445 
C 108.62852 89.029601 106.550659 96.958371 102.524886 103.931326 
C 98.499113 110.90428 92.671606 116.668226 85.654923 120.617288 
C 92.483054 125.282877 100.414551 128.081722 108.658617 128.734768 
C 116.902683 129.387814 125.175914 127.872612 132.653439 124.340232 
C 133.825014 115.482661 132.112061 106.479002 127.769746 98.670452 
C 123.42743 90.861902 116.682629 84.656442 108.540056 80.978445 
" clip-path="url(#pbdf5b7dff8)" style="fill: #0059b2; opacity: 0.4"/>
   </g>
   <g id="patch_8">
    <path d="M 65.263488 86.541672 
C 65.996553 93.357861 68.199379 99.934649 71.719654 105.817292 
C 75.239929 111.699935 79.994603 116.749652 85.654923 120.617288 
C 92.671606 116.668226 98.499113 110.90428 102.524886 103.931326 
C 106.550659 96.958371 108.62852 89.029601 108.540056 80.978445 
C 101.519605 77.80731 93.754322 76.647928 86.113765 77.630126 
C 78.473208 78.612324 71.253633 81.698018 65.263488 86.541672 
" clip-path="url(#pbdf5b7dff8)" style="fill: #663366; opacity: 0.4"/>
   </g>
   <g id="text_1">
    <!-- 218 -->
    <g transform="translate(27.841243 73.465681) scale(0.1 -0.1)">
     <defs>
      <path id="DejaVuSans-32" d="M 1228 531 
L 3431 531 
L 3431 0 
L 469 0 
L 469 531 
Q 828 903 1448 1529 
Q 2069 2156 2228 2338 
Q 2531 2678 2651 2914 
Q 2772 3150 2772 3378 
Q 2772 3750 2511 3984 
Q 2250 4219 1831 4219 
Q 1534 4219 1204 4116 
Q 875 4013 500 3803 
L 500 4441 
Q 881 4594 1212 4672 
Q 1544 4750 1819 4750 
Q 2544 4750 2975 4387 
Q 3406 4025 3406 3419 
Q 3406 3131 3298 2873 
Q 3191 2616 2906 2266 
Q 2828 2175 2409 1742 
Q 1991 1309 1228 531 
z
" transform="scale(0.015625)"/>
      <path id="DejaVuSans-31" d="M 794 531 
L 1825 531 
L 1825 4091 
L 703 3866 
L 703 4441 
L 1819 4666 
L 2450 4666 
L 2450 531 
L 3481 531 
L 3481 0 
L 794 0 
L 794 531 
z
" transform="scale(0.015625)"/>
      <path id="DejaVuSans-38" d="M 2034 2216 
Q 1584 2216 1326 1975 
Q 1069 1734 1069 1313 
Q 1069 891 1326 650 
Q 1584 409 2034 409 
Q 2484 409 2743 651 
Q 3003 894 3003 1313 
Q 3003 1734 2745 1975 
Q 2488 2216 2034 2216 
z
M 1403 2484 
Q 997 2584 770 2862 
Q 544 3141 544 3541 
Q 544 4100 942 4425 
Q 1341 4750 2034 4750 
Q 2731 4750 3128 4425 
Q 3525 4100 3525 3541 
Q 3525 3141 3298 2862 
Q 3072 2584 2669 2484 
Q 3125 2378 3379 2068 
Q 3634 1759 3634 1313 
Q 3634 634 3220 271 
Q 2806 -91 2034 -91 
Q 1263 -91 848 271 
Q 434 634 434 1313 
Q 434 1759 690 2068 
Q 947 2378 1403 2484 
z
M 1172 3481 
Q 1172 3119 1398 2916 
Q 1625 2713 2034 2713 
Q 2441 2713 2670 2916 
Q 2900 3119 2900 3481 
Q 2900 3844 2670 4047 
Q 2441 4250 2034 4250 
Q 1625 4250 1398 4047 
Q 1172 3844 1172 3481 
z
" transform="scale(0.015625)"/>
     </defs>
     <use xlink:href="#DejaVuSans-32"/>
     <use xlink:href="#DejaVuSans-31" transform="translate(63.623047 0)"/>
     <use xlink:href="#DejaVuSans-38" transform="translate(127.246094 0)"/>
    </g>
   </g>
   <g id="text_2">
    <!-- 233 -->
    <g transform="translate(128.595853 70.050119) scale(0.1 -0.1)">
     <defs>
      <path id="DejaVuSans-33" d="M 2597 2516 
Q 3050 2419 3304 2112 
Q 3559 1806 3559 1356 
Q 3559 666 3084 287 
Q 2609 -91 1734 -91 
Q 1441 -91 1130 -33 
Q 819 25 488 141 
L 488 750 
Q 750 597 1062 519 
Q 1375 441 1716 441 
Q 2309 441 2620 675 
Q 2931 909 2931 1356 
Q 2931 1769 2642 2001 
Q 2353 2234 1838 2234 
L 1294 2234 
L 1294 2753 
L 1863 2753 
Q 2328 2753 2575 2939 
Q 2822 3125 2822 3475 
Q 2822 3834 2567 4026 
Q 2313 4219 1838 4219 
Q 1578 4219 1281 4162 
Q 984 4106 628 3988 
L 628 4550 
Q 988 4650 1302 4700 
Q 1616 4750 1894 4750 
Q 2613 4750 3031 4423 
Q 3450 4097 3450 3541 
Q 3450 3153 3228 2886 
Q 3006 2619 2597 2516 
z
" transform="scale(0.015625)"/>
     </defs>
     <use xlink:href="#DejaVuSans-32"/>
     <use xlink:href="#DejaVuSans-33" transform="translate(63.623047 0)"/>
     <use xlink:href="#DejaVuSans-33" transform="translate(127.246094 0)"/>
    </g>
   </g>
   <g id="text_3">
    <!-- 67 -->
    <g transform="translate(79.393462 68.8682) scale(0.1 -0.1)">
     <defs>
      <path id="DejaVuSans-36" d="M 2113 2584 
Q 1688 2584 1439 2293 
Q 1191 2003 1191 1497 
Q 1191 994 1439 701 
Q 1688 409 2113 409 
Q 2538 409 2786 701 
Q 3034 994 3034 1497 
Q 3034 2003 2786 2293 
Q 2538 2584 2113 2584 
z
M 3366 4563 
L 3366 3988 
Q 3128 4100 2886 4159 
Q 2644 4219 2406 4219 
Q 1781 4219 1451 3797 
Q 1122 3375 1075 2522 
Q 1259 2794 1537 2939 
Q 1816 3084 2150 3084 
Q 2853 3084 3261 2657 
Q 3669 2231 3669 1497 
Q 3669 778 3244 343 
Q 2819 -91 2113 -91 
Q 1303 -91 875 529 
Q 447 1150 447 2328 
Q 447 3434 972 4092 
Q 1497 4750 2381 4750 
Q 2619 4750 2861 4703 
Q 3103 4656 3366 4563 
z
" transform="scale(0.015625)"/>
      <path id="DejaVuSans-37" d="M 525 4666 
L 3525 4666 
L 3525 4397 
L 1831 0 
L 1172 0 
L 2766 4134 
L 525 4134 
L 525 4666 
z
" transform="scale(0.015625)"/>
     </defs>
     <use xlink:href="#DejaVuSans-36"/>
     <use xlink:href="#DejaVuSans-37" transform="translate(63.623047 0)"/>
    </g>
   </g>
   <g id="text_4">
    <!-- 149 -->
    <g transform="translate(81.674433 150.344744) scale(0.1 -0.1)">
     <defs>
      <path id="DejaVuSans-34" d="M 2419 4116 
L 825 1625 
L 2419 1625 
L 2419 4116 
z
M 2253 4666 
L 3047 4666 
L 3047 1625 
L 3713 1625 
L 3713 1100 
L 3047 1100 
L 3047 0 
L 2419 0 
L 2419 1100 
L 313 1100 
L 313 1709 
L 2253 4666 
z
" transform="scale(0.015625)"/>
      <path id="DejaVuSans-39" d="M 703 97 
L 703 672 
Q 941 559 1184 500 
Q 1428 441 1663 441 
Q 2288 441 2617 861 
Q 2947 1281 2994 2138 
Q 2813 1869 2534 1725 
Q 2256 1581 1919 1581 
Q 1219 1581 811 2004 
Q 403 2428 403 3163 
Q 403 3881 828 4315 
Q 1253 4750 1959 4750 
Q 2769 4750 3195 4129 
Q 3622 3509 3622 2328 
Q 3622 1225 3098 567 
Q 2575 -91 1691 -91 
Q 1453 -91 1209 -44 
Q 966 3 703 97 
z
M 1959 2075 
Q 2384 2075 2632 2365 
Q 2881 2656 2881 3163 
Q 2881 3666 2632 3958 
Q 2384 4250 1959 4250 
Q 1534 4250 1286 3958 
Q 1038 3666 1038 3163 
Q 1038 2656 1286 2365 
Q 1534 2075 1959 2075 
z
" transform="scale(0.015625)"/>
     </defs>
     <use xlink:href="#DejaVuSans-31"/>
     <use xlink:href="#DejaVuSans-34" transform="translate(63.623047 0)"/>
     <use xlink:href="#DejaVuSans-39" transform="translate(127.246094 0)"/>
    </g>
   </g>
   <g id="text_5">
    <!-- 43 -->
    <g transform="translate(57.164511 113.829399) scale(0.1 -0.1)">
     <use xlink:href="#DejaVuSans-34"/>
     <use xlink:href="#DejaVuSans-33" transform="translate(63.623047 0)"/>
    </g>
   </g>
   <g id="text_6">
    <!-- 76 -->
    <g transform="translate(107.569751 112.325549) scale(0.1 -0.1)">
     <use xlink:href="#DejaVuSans-37"/>
     <use xlink:href="#DejaVuSans-36" transform="translate(63.623047 0)"/>
    </g>
   </g>
   <g id="text_7">
    <!-- 93 -->
    <g transform="translate(81.432233 97.666326) scale(0.1 -0.1)">
     <use xlink:href="#DejaVuSans-39"/>
     <use xlink:href="#DejaVuSans-33" transform="translate(63.623047 0)"/>
    </g>
   </g>
   <g id="text_8">
    <!-- E. coli -->
    <g transform="translate(17.285175 36.552751) scale(0.08 -0.08)">
     <defs>
      <path id="DejaVuSans-45" d="M 628 4666 
L 3578 4666 
L 3578 4134 
L 1259 4134 
L 1259 2753 
L 3481 2753 
L 3481 2222 
L 1259 2222 
L 1259 531 
L 3634 531 
L 3634 0 
L 628 0 
L 628 4666 
z
" transform="scale(0.015625)"/>
      <path id="DejaVuSans-2e" d="M 684 794 
L 1344 794 
L 1344 0 
L 684 0 
L 684 794 
z
" transform="scale(0.015625)"/>
      <path id="DejaVuSans-20" transform="scale(0.015625)"/>
      <path id="DejaVuSans-63" d="M 3122 3366 
L 3122 2828 
Q 2878 2963 2633 3030 
Q 2388 3097 2138 3097 
Q 1578 3097 1268 2742 
Q 959 2388 959 1747 
Q 959 1106 1268 751 
Q 1578 397 2138 397 
Q 2388 397 2633 464 
Q 2878 531 3122 666 
L 3122 134 
Q 2881 22 2623 -34 
Q 2366 -91 2075 -91 
Q 1284 -91 818 406 
Q 353 903 353 1747 
Q 353 2603 823 3093 
Q 1294 3584 2113 3584 
Q 2378 3584 2631 3529 
Q 2884 3475 3122 3366 
z
" transform="scale(0.015625)"/>
      <path id="DejaVuSans-6f" d="M 1959 3097 
Q 1497 3097 1228 2736 
Q 959 2375 959 1747 
Q 959 1119 1226 758 
Q 1494 397 1959 397 
Q 2419 397 2687 759 
Q 2956 1122 2956 1747 
Q 2956 2369 2687 2733 
Q 2419 3097 1959 3097 
z
M 1959 3584 
Q 2709 3584 3137 3096 
Q 3566 2609 3566 1747 
Q 3566 888 3137 398 
Q 2709 -91 1959 -91 
Q 1206 -91 779 398 
Q 353 888 353 1747 
Q 353 2609 779 3096 
Q 1206 3584 1959 3584 
z
" transform="scale(0.015625)"/>
      <path id="DejaVuSans-6c" d="M 603 4863 
L 1178 4863 
L 1178 0 
L 603 0 
L 603 4863 
z
" transform="scale(0.015625)"/>
      <path id="DejaVuSans-69" d="M 603 3500 
L 1178 3500 
L 1178 0 
L 603 0 
L 603 3500 
z
M 603 4863 
L 1178 4863 
L 1178 4134 
L 603 4134 
L 603 4863 
z
" transform="scale(0.015625)"/>
     </defs>
     <use xlink:href="#DejaVuSans-45"/>
     <use xlink:href="#DejaVuSans-2e" transform="translate(63.183594 0)"/>
     <use xlink:href="#DejaVuSans-20" transform="translate(94.970703 0)"/>
     <use xlink:href="#DejaVuSans-63" transform="translate(126.757812 0)"/>
     <use xlink:href="#DejaVuSans-6f" transform="translate(181.738281 0)"/>
     <use xlink:href="#DejaVuSans-6c" transform="translate(242.919922 0)"/>
     <use xlink:href="#DejaVuSans-69" transform="translate(270.703125 0)"/>
    </g>
   </g>
   <g id="text_9">
    <!-- B. theta -->
    <g transform="translate(136.107916 34.061138) scale(0.08 -0.08)">
     <defs>
      <path id="DejaVuSans-42" d="M 1259 2228 
L 1259 519 
L 2272 519 
Q 2781 519 3026 730 
Q 3272 941 3272 1375 
Q 3272 1813 3026 2020 
Q 2781 2228 2272 2228 
L 1259 2228 
z
M 1259 4147 
L 1259 2741 
L 2194 2741 
Q 2656 2741 2882 2914 
Q 3109 3088 3109 3444 
Q 3109 3797 2882 3972 
Q 2656 4147 2194 4147 
L 1259 4147 
z
M 628 4666 
L 2241 4666 
Q 2963 4666 3353 4366 
Q 3744 4066 3744 3513 
Q 3744 3084 3544 2831 
Q 3344 2578 2956 2516 
Q 3422 2416 3680 2098 
Q 3938 1781 3938 1306 
Q 3938 681 3513 340 
Q 3088 0 2303 0 
L 628 0 
L 628 4666 
z
" transform="scale(0.015625)"/>
      <path id="DejaVuSans-74" d="M 1172 4494 
L 1172 3500 
L 2356 3500 
L 2356 3053 
L 1172 3053 
L 1172 1153 
Q 1172 725 1289 603 
Q 1406 481 1766 481 
L 2356 481 
L 2356 0 
L 1766 0 
Q 1100 0 847 248 
Q 594 497 594 1153 
L 594 3053 
L 172 3053 
L 172 3500 
L 594 3500 
L 594 4494 
L 1172 4494 
z
" transform="scale(0.015625)"/>
      <path id="DejaVuSans-68" d="M 3513 2113 
L 3513 0 
L 2938 0 
L 2938 2094 
Q 2938 2591 2744 2837 
Q 2550 3084 2163 3084 
Q 1697 3084 1428 2787 
Q 1159 2491 1159 1978 
L 1159 0 
L 581 0 
L 581 4863 
L 1159 4863 
L 1159 2956 
Q 1366 3272 1645 3428 
Q 1925 3584 2291 3584 
Q 2894 3584 3203 3211 
Q 3513 2838 3513 2113 
z
" transform="scale(0.015625)"/>
      <path id="DejaVuSans-65" d="M 3597 1894 
L 3597 1613 
L 953 1613 
Q 991 1019 1311 708 
Q 1631 397 2203 397 
Q 2534 397 2845 478 
Q 3156 559 3463 722 
L 3463 178 
Q 3153 47 2828 -22 
Q 2503 -91 2169 -91 
Q 1331 -91 842 396 
Q 353 884 353 1716 
Q 353 2575 817 3079 
Q 1281 3584 2069 3584 
Q 2775 3584 3186 3129 
Q 3597 2675 3597 1894 
z
M 3022 2063 
Q 3016 2534 2758 2815 
Q 2500 3097 2075 3097 
Q 1594 3097 1305 2825 
Q 1016 2553 972 2059 
L 3022 2063 
z
" transform="scale(0.015625)"/>
      <path id="DejaVuSans-61" d="M 2194 1759 
Q 1497 1759 1228 1600 
Q 959 1441 959 1056 
Q 959 750 1161 570 
Q 1363 391 1709 391 
Q 2188 391 2477 730 
Q 2766 1069 2766 1631 
L 2766 1759 
L 2194 1759 
z
M 3341 1997 
L 3341 0 
L 2766 0 
L 2766 531 
Q 2569 213 2275 61 
Q 1981 -91 1556 -91 
Q 1019 -91 701 211 
Q 384 513 384 1019 
Q 384 1609 779 1909 
Q 1175 2209 1959 2209 
L 2766 2209 
L 2766 2266 
Q 2766 2663 2505 2880 
Q 2244 3097 1772 3097 
Q 1472 3097 1187 3025 
Q 903 2953 641 2809 
L 641 3341 
Q 956 3463 1253 3523 
Q 1550 3584 1831 3584 
Q 2591 3584 2966 3190 
Q 3341 2797 3341 1997 
z
" transform="scale(0.015625)"/>
     </defs>
     <use xlink:href="#DejaVuSans-42"/>
     <use xlink:href="#DejaVuSans-2e" transform="translate(68.603516 0)"/>
     <use xlink:href="#DejaVuSans-20" transform="translate(100.390625 0)"/>
     <use xlink:href="#DejaVuSans-74" transform="translate(132.177734 0)"/>
     <use xlink:href="#DejaVuSans-68" transform="translate(171.386719 0)"/>
     <use xlink:href="#DejaVuSans-65" transform="translate(234.765625 0)"/>
     <use xlink:href="#DejaVuSans-74" transform="translate(296.289062 0)"/>
     <use xlink:href="#DejaVuSans-61" transform="translate(335.498047 0)"/>
    </g>
   </g>
   <g id="text_10">
    <!-- B. longum -->
    <g transform="translate(71.065981 170.719637) scale(0.08 -0.08)">
     <defs>
      <path id="DejaVuSans-6e" d="M 3513 2113 
L 3513 0 
L 2938 0 
L 2938 2094 
Q 2938 2591 2744 2837 
Q 2550 3084 2163 3084 
Q 1697 3084 1428 2787 
Q 1159 2491 1159 1978 
L 1159 0 
L 581 0 
L 581 3500 
L 1159 3500 
L 1159 2956 
Q 1366 3272 1645 3428 
Q 1925 3584 2291 3584 
Q 2894 3584 3203 3211 
Q 3513 2838 3513 2113 
z
" transform="scale(0.015625)"/>
      <path id="DejaVuSans-67" d="M 2906 1791 
Q 2906 2416 2648 2759 
Q 2391 3103 1925 3103 
Q 1463 3103 1205 2759 
Q 947 2416 947 1791 
Q 947 1169 1205 825 
Q 1463 481 1925 481 
Q 2391 481 2648 825 
Q 2906 1169 2906 1791 
z
M 3481 434 
Q 3481 -459 3084 -895 
Q 2688 -1331 1869 -1331 
Q 1566 -1331 1297 -1286 
Q 1028 -1241 775 -1147 
L 775 -588 
Q 1028 -725 1275 -790 
Q 1522 -856 1778 -856 
Q 2344 -856 2625 -561 
Q 2906 -266 2906 331 
L 2906 616 
Q 2728 306 2450 153 
Q 2172 0 1784 0 
Q 1141 0 747 490 
Q 353 981 353 1791 
Q 353 2603 747 3093 
Q 1141 3584 1784 3584 
Q 2172 3584 2450 3431 
Q 2728 3278 2906 2969 
L 2906 3500 
L 3481 3500 
L 3481 434 
z
" transform="scale(0.015625)"/>
      <path id="DejaVuSans-75" d="M 544 1381 
L 544 3500 
L 1119 3500 
L 1119 1403 
Q 1119 906 1312 657 
Q 1506 409 1894 409 
Q 2359 409 2629 706 
Q 2900 1003 2900 1516 
L 2900 3500 
L 3475 3500 
L 3475 0 
L 2900 0 
L 2900 538 
Q 2691 219 2414 64 
Q 2138 -91 1772 -91 
Q 1169 -91 856 284 
Q 544 659 544 1381 
z
M 1991 3584 
L 1991 3584 
z
" transform="scale(0.015625)"/>
      <path id="DejaVuSans-6d" d="M 3328 2828 
Q 3544 3216 3844 3400 
Q 4144 3584 4550 3584 
Q 5097 3584 5394 3201 
Q 5691 2819 5691 2113 
L 5691 0 
L 5113 0 
L 5113 2094 
Q 5113 2597 4934 2840 
Q 4756 3084 4391 3084 
Q 3944 3084 3684 2787 
Q 3425 2491 3425 1978 
L 3425 0 
L 2847 0 
L 2847 2094 
Q 2847 2600 2669 2842 
Q 2491 3084 2119 3084 
Q 1678 3084 1418 2786 
Q 1159 2488 1159 1978 
L 1159 0 
L 581 0 
L 581 3500 
L 1159 3500 
L 1159 2956 
Q 1356 3278 1631 3431 
Q 1906 3584 2284 3584 
Q 2666 3584 2933 3390 
Q 3200 3197 3328 2828 
z
" transform="scale(0.015625)"/>
     </defs>
     <use xlink:href="#DejaVuSans-42"/>
     <use xlink:href="#DejaVuSans-2e" transform="translate(68.603516 0)"/>
     <use xlink:href="#DejaVuSans-20" transform="translate(100.390625 0)"/>
     <use xlink:href="#DejaVuSans-6c" transform="translate(132.177734 0)"/>
     <use xlink:href="#DejaVuSans-6f" transform="translate(159.960938 0)"/>
     <use xlink:href="#DejaVuSans-6e" transform="translate(221.142578 0)"/>
     <use xlink:href="#DejaVuSans-67" transform="translate(284.521484 0)"/>
     <use xlink:href="#DejaVuSans-75" transform="translate(347.998047 0)"/>
     <use xlink:href="#DejaVuSans-6d" transform="translate(411.376953 0)"/>
    </g>
   </g>
   <g id="text_11">
    <!-- Fructose -->
    <g transform="translate(63.833824 16.556827) scale(0.12 -0.12)">
     <defs>
      <path id="DejaVuSans-46" d="M 628 4666 
L 3309 4666 
L 3309 4134 
L 1259 4134 
L 1259 2759 
L 3109 2759 
L 3109 2228 
L 1259 2228 
L 1259 0 
L 628 0 
L 628 4666 
z
" transform="scale(0.015625)"/>
      <path id="DejaVuSans-72" d="M 2631 2963 
Q 2534 3019 2420 3045 
Q 2306 3072 2169 3072 
Q 1681 3072 1420 2755 
Q 1159 2438 1159 1844 
L 1159 0 
L 581 0 
L 581 3500 
L 1159 3500 
L 1159 2956 
Q 1341 3275 1631 3429 
Q 1922 3584 2338 3584 
Q 2397 3584 2469 3576 
Q 2541 3569 2628 3553 
L 2631 2963 
z
" transform="scale(0.015625)"/>
      <path id="DejaVuSans-73" d="M 2834 3397 
L 2834 2853 
Q 2591 2978 2328 3040 
Q 2066 3103 1784 3103 
Q 1356 3103 1142 2972 
Q 928 2841 928 2578 
Q 928 2378 1081 2264 
Q 1234 2150 1697 2047 
L 1894 2003 
Q 2506 1872 2764 1633 
Q 3022 1394 3022 966 
Q 3022 478 2636 193 
Q 2250 -91 1575 -91 
Q 1294 -91 989 -36 
Q 684 19 347 128 
L 347 722 
Q 666 556 975 473 
Q 1284 391 1588 391 
Q 1994 391 2212 530 
Q 2431 669 2431 922 
Q 2431 1156 2273 1281 
Q 2116 1406 1581 1522 
L 1381 1569 
Q 847 1681 609 1914 
Q 372 2147 372 2553 
Q 372 3047 722 3315 
Q 1072 3584 1716 3584 
Q 2034 3584 2315 3537 
Q 2597 3491 2834 3397 
z
" transform="scale(0.015625)"/>
     </defs>
     <use xlink:href="#DejaVuSans-46"/>
     <use xlink:href="#DejaVuSans-72" transform="translate(50.269531 0)"/>
     <use xlink:href="#DejaVuSans-75" transform="translate(91.382812 0)"/>
     <use xlink:href="#DejaVuSans-63" transform="translate(154.761719 0)"/>
     <use xlink:href="#DejaVuSans-74" transform="translate(209.742188 0)"/>
     <use xlink:href="#DejaVuSans-6f" transform="translate(248.951172 0)"/>
     <use xlink:href="#DejaVuSans-73" transform="translate(310.132812 0)"/>
     <use xlink:href="#DejaVuSans-65" transform="translate(362.232422 0)"/>
    </g>
   </g>
  </g>
  <g id="axes_2">
   <g id="patch_9">
    <path d="M 282.521505 41.84015 
C 276.937337 38.850809 270.788941 37.062775 264.472552 36.591278 
C 258.156162 36.11978 251.810444 36.97517 245.844347 39.102322 
C 239.87825 41.229474 234.42275 44.58169 229.829426 48.942936 
C 225.236103 53.304182 221.605795 58.578714 219.172457 64.426616 
C 216.739119 70.274518 215.556171 76.567408 215.699849 82.899741 
C 215.843527 89.232074 217.310676 95.464835 220.006745 101.196353 
C 222.702815 106.92787 226.568618 112.03232 231.355022 116.180744 
C 236.141426 120.329168 241.743354 123.430496 247.79979 125.284862 
C 246.709435 118.375343 247.37085 111.301397 249.723191 104.713771 
C 252.075532 98.126145 256.044385 92.233234 261.264644 87.577141 
C 260.203004 78.731665 261.63019 69.762975 265.385024 61.683944 
C 269.139859 53.604913 275.075463 46.73157 282.521505 41.84015 
" clip-path="url(#p90d0fac1e2)" style="fill: #221331; opacity: 0.8; stroke: #221331; stroke-linejoin: miter"/>
   </g>
   <g id="patch_10">
    <path d="M 282.521505 41.84015 
C 289.600338 45.629621 295.548903 51.229866 299.758104 58.067453 
C 303.967304 64.905041 306.288398 72.738347 306.483719 80.765291 
C 314.667139 84.511483 321.425724 90.802508 325.747974 98.696839 
C 330.070224 106.591171 331.729191 115.674303 330.476592 124.58684 
C 336.2874 121.640563 341.436393 117.539365 345.607759 112.534792 
C 349.779124 107.53022 352.885798 101.726727 354.737233 95.48027 
C 356.588668 89.233813 357.146222 82.674766 356.375697 76.205429 
C 355.605171 69.736091 353.522649 63.491489 350.255861 57.854634 
C 346.989073 52.217779 342.606204 47.306322 337.376075 43.421507 
C 332.145946 39.536692 326.177719 36.759602 319.837456 35.260569 
C 313.497193 33.761536 306.917225 33.571847 300.501135 34.703138 
C 294.085044 35.834429 287.966746 38.263087 282.521505 41.84015 
" clip-path="url(#p90d0fac1e2)" style="fill: #921c5b; opacity: 0.8; stroke: #921c5b; stroke-linejoin: miter"/>
   </g>
   <g id="patch_11">
    <path d="M 282.521505 41.84015 
C 275.075463 46.73157 269.139859 53.604913 265.385024 61.683944 
C 261.63019 69.762975 260.203004 78.731665 261.264644 87.577141 
C 267.324623 82.172078 274.830369 78.648352 282.859997 77.43876 
C 290.889626 76.229168 299.100358 77.385347 306.483719 80.765291 
C 306.288398 72.738347 303.967304 64.905041 299.758104 58.067453 
C 295.548903 51.229866 289.600338 45.629621 282.521505 41.84015 
" clip-path="url(#p90d0fac1e2)" style="fill: #b25900; opacity: 0.4"/>
   </g>
   <g id="patch_12">
    <path d="M 247.79979 125.284862 
C 249.36077 135.176704 254.425929 144.185525 262.066381 150.659218 
C 269.706832 157.132911 279.425111 160.649979 289.439004 160.565434 
C 299.452897 160.480889 309.110406 156.800236 316.640464 150.198461 
C 324.170522 143.596687 329.082852 134.503628 330.476592 124.58684 
C 322.954974 128.400556 314.557831 130.160858 306.137824 129.689003 
C 297.717817 129.217147 289.569926 126.529665 282.521505 121.899447 
C 277.243131 124.725089 271.457619 126.479004 265.498767 127.060001 
C 259.539915 127.640997 253.524569 127.037681 247.79979 125.284862 
" clip-path="url(#p90d0fac1e2)" style="fill: #ed503e; opacity: 0.8; stroke: #ed503e; stroke-linejoin: miter"/>
   </g>
   <g id="patch_13">
    <path d="M 247.79979 125.284862 
C 253.524569 127.037681 259.539915 127.640997 265.498767 127.060001 
C 271.457619 126.479004 277.243131 124.725089 282.521505 121.899447 
C 276.693573 118.070989 271.771417 113.015579 268.099965 107.087483 
C 264.428514 101.159388 262.095578 94.500393 261.264644 87.577141 
C 256.044385 92.233234 252.075532 98.126145 249.723191 104.713771 
C 247.37085 111.301397 246.709435 118.375343 247.79979 125.284862 
" clip-path="url(#p90d0fac1e2)" style="fill: #b200b2; opacity: 0.4"/>
   </g>
   <g id="patch_14">
    <path d="M 306.483719 80.765291 
C 306.688158 89.166957 304.555977 97.462684 300.325677 104.724526 
C 296.095377 111.986368 289.930799 117.933072 282.521505 121.899447 
C 289.569926 126.529665 297.717817 129.217147 306.137824 129.689003 
C 314.557831 130.160858 322.954974 128.400556 330.476592 124.58684 
C 331.729191 115.674303 330.070224 106.591171 325.747974 98.696839 
C 321.425724 90.802508 314.667139 84.511483 306.483719 80.765291 
" clip-path="url(#p90d0fac1e2)" style="fill: #0059b2; opacity: 0.4"/>
   </g>
   <g id="patch_15">
    <path d="M 261.264644 87.577141 
C 262.095578 94.500393 264.428514 101.159388 268.099965 107.087483 
C 271.771417 113.015579 276.693573 118.070989 282.521505 121.899447 
C 289.930799 117.933072 296.095377 111.986368 300.325677 104.724526 
C 304.555977 97.462684 306.688158 89.166957 306.483719 80.765291 
C 299.100358 77.385347 290.889626 76.229168 282.859997 77.43876 
C 274.830369 78.648352 267.324623 82.172078 261.264644 87.577141 
" clip-path="url(#p90d0fac1e2)" style="fill: #663366; opacity: 0.4"/>
   </g>
   <g id="text_12">
    <!-- 219 -->
    <g transform="translate(224.649013 74.019981) scale(0.1 -0.1)">
     <use xlink:href="#DejaVuSans-32"/>
     <use xlink:href="#DejaVuSans-31" transform="translate(63.623047 0)"/>
     <use xlink:href="#DejaVuSans-39" transform="translate(127.246094 0)"/>
    </g>
   </g>
   <g id="text_13">
    <!-- 230 -->
    <g transform="translate(325.564299 70.015038) scale(0.1 -0.1)">
     <defs>
      <path id="DejaVuSans-30" d="M 2034 4250 
Q 1547 4250 1301 3770 
Q 1056 3291 1056 2328 
Q 1056 1369 1301 889 
Q 1547 409 2034 409 
Q 2525 409 2770 889 
Q 3016 1369 3016 2328 
Q 3016 3291 2770 3770 
Q 2525 4250 2034 4250 
z
M 2034 4750 
Q 2819 4750 3233 4129 
Q 3647 3509 3647 2328 
Q 3647 1150 3233 529 
Q 2819 -91 2034 -91 
Q 1250 -91 836 529 
Q 422 1150 422 2328 
Q 422 3509 836 4129 
Q 1250 4750 2034 4750 
z
" transform="scale(0.015625)"/>
     </defs>
     <use xlink:href="#DejaVuSans-32"/>
     <use xlink:href="#DejaVuSans-33" transform="translate(63.623047 0)"/>
     <use xlink:href="#DejaVuSans-30" transform="translate(127.246094 0)"/>
    </g>
   </g>
   <g id="text_14">
    <!-- 67 -->
    <g transform="translate(276.029861 68.785516) scale(0.1 -0.1)">
     <use xlink:href="#DejaVuSans-36"/>
     <use xlink:href="#DejaVuSans-37" transform="translate(63.623047 0)"/>
    </g>
   </g>
   <g id="text_15">
    <!-- 147 -->
    <g transform="translate(279.609621 150.760481) scale(0.1 -0.1)">
     <use xlink:href="#DejaVuSans-31"/>
     <use xlink:href="#DejaVuSans-34" transform="translate(63.623047 0)"/>
     <use xlink:href="#DejaVuSans-37" transform="translate(127.246094 0)"/>
    </g>
   </g>
   <g id="text_16">
    <!-- 37 -->
    <g transform="translate(254.058232 114.881067) scale(0.1 -0.1)">
     <use xlink:href="#DejaVuSans-33"/>
     <use xlink:href="#DejaVuSans-37" transform="translate(63.623047 0)"/>
    </g>
   </g>
   <g id="text_17">
    <!-- 74 -->
    <g transform="translate(305.221436 112.870016) scale(0.1 -0.1)">
     <use xlink:href="#DejaVuSans-37"/>
     <use xlink:href="#DejaVuSans-34" transform="translate(63.623047 0)"/>
    </g>
   </g>
   <g id="text_18">
    <!-- 103 -->
    <g transform="translate(275.370408 98.053234) scale(0.1 -0.1)">
     <use xlink:href="#DejaVuSans-31"/>
     <use xlink:href="#DejaVuSans-30" transform="translate(63.623047 0)"/>
     <use xlink:href="#DejaVuSans-33" transform="translate(127.246094 0)"/>
    </g>
   </g>
   <g id="text_19">
    <!-- E. coli -->
    <g transform="translate(214.511663 36.465304) scale(0.08 -0.08)">
     <use xlink:href="#DejaVuSans-45"/>
     <use xlink:href="#DejaVuSans-2e" transform="translate(63.183594 0)"/>
     <use xlink:href="#DejaVuSans-20" transform="translate(94.970703 0)"/>
     <use xlink:href="#DejaVuSans-63" transform="translate(126.757812 0)"/>
     <use xlink:href="#DejaVuSans-6f" transform="translate(181.738281 0)"/>
     <use xlink:href="#DejaVuSans-6c" transform="translate(242.919922 0)"/>
     <use xlink:href="#DejaVuSans-69" transform="translate(270.703125 0)"/>
    </g>
   </g>
   <g id="text_20">
    <!-- B. theta -->
    <g transform="translate(332.764718 33.975566) scale(0.08 -0.08)">
     <use xlink:href="#DejaVuSans-42"/>
     <use xlink:href="#DejaVuSans-2e" transform="translate(68.603516 0)"/>
     <use xlink:href="#DejaVuSans-20" transform="translate(100.390625 0)"/>
     <use xlink:href="#DejaVuSans-74" transform="translate(132.177734 0)"/>
     <use xlink:href="#DejaVuSans-68" transform="translate(171.386719 0)"/>
     <use xlink:href="#DejaVuSans-65" transform="translate(234.765625 0)"/>
     <use xlink:href="#DejaVuSans-74" transform="translate(296.289062 0)"/>
     <use xlink:href="#DejaVuSans-61" transform="translate(335.498047 0)"/>
    </g>
   </g>
   <g id="text_21">
    <!-- B. longum -->
    <g transform="translate(268.734881 170.825398) scale(0.08 -0.08)">
     <use xlink:href="#DejaVuSans-42"/>
     <use xlink:href="#DejaVuSans-2e" transform="translate(68.603516 0)"/>
     <use xlink:href="#DejaVuSans-20" transform="translate(100.390625 0)"/>
     <use xlink:href="#DejaVuSans-6c" transform="translate(132.177734 0)"/>
     <use xlink:href="#DejaVuSans-6f" transform="translate(159.960938 0)"/>
     <use xlink:href="#DejaVuSans-6e" transform="translate(221.142578 0)"/>
     <use xlink:href="#DejaVuSans-67" transform="translate(284.521484 0)"/>
     <use xlink:href="#DejaVuSans-75" transform="translate(347.998047 0)"/>
     <use xlink:href="#DejaVuSans-6d" transform="translate(411.376953 0)"/>
    </g>
   </g>
   <g id="text_22">
    <!-- Galactose -->
    <g transform="translate(256.390312 16.428577) scale(0.12 -0.12)">
     <defs>
      <path id="DejaVuSans-47" d="M 3809 666 
L 3809 1919 
L 2778 1919 
L 2778 2438 
L 4434 2438 
L 4434 434 
Q 4069 175 3628 42 
Q 3188 -91 2688 -91 
Q 1594 -91 976 548 
Q 359 1188 359 2328 
Q 359 3472 976 4111 
Q 1594 4750 2688 4750 
Q 3144 4750 3555 4637 
Q 3966 4525 4313 4306 
L 4313 3634 
Q 3963 3931 3569 4081 
Q 3175 4231 2741 4231 
Q 1884 4231 1454 3753 
Q 1025 3275 1025 2328 
Q 1025 1384 1454 906 
Q 1884 428 2741 428 
Q 3075 428 3337 486 
Q 3600 544 3809 666 
z
" transform="scale(0.015625)"/>
     </defs>
     <use xlink:href="#DejaVuSans-47"/>
     <use xlink:href="#DejaVuSans-61" transform="translate(77.490234 0)"/>
     <use xlink:href="#DejaVuSans-6c" transform="translate(138.769531 0)"/>
     <use xlink:href="#DejaVuSans-61" transform="translate(166.552734 0)"/>
     <use xlink:href="#DejaVuSans-63" transform="translate(227.832031 0)"/>
     <use xlink:href="#DejaVuSans-74" transform="translate(282.8125 0)"/>
     <use xlink:href="#DejaVuSans-6f" transform="translate(322.021484 0)"/>
     <use xlink:href="#DejaVuSans-73" transform="translate(383.203125 0)"/>
     <use xlink:href="#DejaVuSans-65" transform="translate(435.302734 0)"/>
    </g>
   </g>
  </g>
  <g id="axes_3">
   <g id="patch_16">
    <path d="M 479.646859 41.85981 
C 474.096941 38.80362 467.966074 36.947905 461.652905 36.413331 
C 455.339735 35.878756 448.984127 36.677164 442.999342 38.75664 
C 437.014556 40.836116 431.533182 44.150591 426.911634 48.484547 
C 422.290086 52.818504 418.630753 58.075925 416.171574 63.914959 
C 413.712395 69.753993 412.507852 76.045279 412.636269 82.37974 
C 412.764686 88.714201 414.223216 94.951499 416.917024 100.686068 
C 419.610831 106.420637 423.480234 111.525431 428.273635 115.668521 
C 433.067035 119.811611 438.678237 122.901209 444.742384 124.736421 
C 443.77676 117.826998 444.559623 110.784474 447.019058 104.255788 
C 449.478493 97.727103 453.536812 91.918483 458.82121 87.363519 
C 457.725766 78.593955 459.093954 69.690187 462.771821 61.654108 
C 466.449687 53.618029 472.293905 46.762803 479.646859 41.85981 
" clip-path="url(#p1d1a885f1d)" style="fill: #221331; opacity: 0.8; stroke: #221331; stroke-linejoin: miter"/>
   </g>
   <g id="patch_17">
    <path d="M 479.646859 41.85981 
C 486.644514 45.71323 492.49743 51.35333 496.607272 58.20353 
C 500.717114 65.053729 502.938892 72.872365 503.045478 80.860147 
C 511.189326 84.490945 517.958487 90.638798 522.354151 98.396574 
C 526.749815 106.154351 528.544603 115.120753 527.473687 123.972764 
C 533.273075 121.050664 538.413611 116.972455 542.578197 111.989706 
C 546.742783 107.006958 549.84399 101.224275 551.690515 94.998369 
C 553.537041 88.772464 554.09012 82.234039 553.315637 75.786424 
C 552.541153 69.338809 550.455365 63.117363 547.186937 57.505863 
C 543.918509 51.894362 539.536057 47.010612 534.309917 43.155872 
C 529.083777 39.301132 523.123664 36.556327 516.797234 35.090773 
C 510.470805 33.625219 503.910873 33.469682 497.522095 34.633759 
C 491.133316 35.797835 485.049815 38.257086 479.646859 41.85981 
" clip-path="url(#p1d1a885f1d)" style="fill: #921c5b; opacity: 0.8; stroke: #921c5b; stroke-linejoin: miter"/>
   </g>
   <g id="patch_18">
    <path d="M 479.646859 41.85981 
C 472.293905 46.762803 466.449687 53.618029 462.771821 61.654108 
C 459.093954 69.690187 457.725766 78.593955 458.82121 87.363519 
C 464.815813 82.196386 472.158821 78.840243 479.98881 77.688809 
C 487.818799 76.537375 495.817122 77.637507 503.045478 80.860147 
C 502.938892 72.872365 500.717114 65.053729 496.607272 58.20353 
C 492.49743 51.35333 486.644514 45.71323 479.646859 41.85981 
" clip-path="url(#p1d1a885f1d)" style="fill: #b25900; opacity: 0.4"/>
   </g>
   <g id="patch_19">
    <path d="M 444.742384 124.736421 
C 446.144114 134.766348 451.151313 143.95055 458.822596 150.562337 
C 466.493878 157.174123 476.31635 160.771437 486.443321 160.677959 
C 496.570293 160.584481 506.324686 156.806462 513.87261 150.054194 
C 521.420535 143.301926 526.257345 134.026858 527.473687 123.972764 
C 519.957268 127.760015 511.56914 129.48681 503.167992 128.97638 
C 494.766844 128.465949 486.649476 125.736325 479.646859 121.066938 
C 474.367305 123.974246 468.559302 125.796691 462.56522 126.426845 
C 456.571137 127.056999 450.511116 126.48223 444.742384 124.736421 
" clip-path="url(#p1d1a885f1d)" style="fill: #ed503e; opacity: 0.8; stroke: #ed503e; stroke-linejoin: miter"/>
   </g>
   <g id="patch_20">
    <path d="M 444.742384 124.736421 
C 450.511116 126.48223 456.571137 127.056999 462.56522 126.426845 
C 468.559302 125.796691 474.367305 123.974246 479.646859 121.066938 
C 473.959076 117.274291 469.154515 112.300473 465.560983 106.484841 
C 461.967451 100.669209 459.668577 94.147104 458.82121 87.363519 
C 453.536812 91.918483 449.478493 97.727103 447.019058 104.255788 
C 444.559623 110.784474 443.77676 117.826998 444.742384 124.736421 
" clip-path="url(#p1d1a885f1d)" style="fill: #b200b2; opacity: 0.4"/>
   </g>
   <g id="patch_21">
    <path d="M 503.045478 80.860147 
C 503.154793 89.052534 501.035162 97.122596 496.914163 104.203876 
C 492.793164 111.285155 486.823757 117.114813 479.646859 121.066938 
C 486.649476 125.736325 494.766844 128.465949 503.167992 128.97638 
C 511.56914 129.48681 519.957268 127.760015 527.473687 123.972764 
C 528.544603 115.120753 526.749815 106.154351 522.354151 98.396574 
C 517.958487 90.638798 511.189326 84.490945 503.045478 80.860147 
" clip-path="url(#p1d1a885f1d)" style="fill: #0059b2; opacity: 0.4"/>
   </g>
   <g id="patch_22">
    <path d="M 458.82121 87.363519 
C 459.668577 94.147104 461.967451 100.669209 465.560983 106.484841 
C 469.154515 112.300473 473.959076 117.274291 479.646859 121.066938 
C 486.823757 117.114813 492.793164 111.285155 496.914163 104.203876 
C 501.035162 97.122596 503.154793 89.052534 503.045478 80.860147 
C 495.817122 77.637507 487.818799 76.537375 479.98881 77.688809 
C 472.158821 78.840243 464.815813 82.196386 458.82121 87.363519 
" clip-path="url(#p1d1a885f1d)" style="fill: #663366; opacity: 0.4"/>
   </g>
   <g id="text_23">
    <!-- 221 -->
    <g transform="translate(421.725697 73.596173) scale(0.1 -0.1)">
     <use xlink:href="#DejaVuSans-32"/>
     <use xlink:href="#DejaVuSans-32" transform="translate(63.623047 0)"/>
     <use xlink:href="#DejaVuSans-31" transform="translate(127.246094 0)"/>
    </g>
   </g>
   <g id="text_24">
    <!-- 231 -->
    <g transform="translate(522.452568 69.701963) scale(0.1 -0.1)">
     <use xlink:href="#DejaVuSans-32"/>
     <use xlink:href="#DejaVuSans-33" transform="translate(63.623047 0)"/>
     <use xlink:href="#DejaVuSans-31" transform="translate(127.246094 0)"/>
    </g>
   </g>
   <g id="text_25">
    <!-- 67 -->
    <g transform="translate(473.158111 68.816646) scale(0.1 -0.1)">
     <use xlink:href="#DejaVuSans-36"/>
     <use xlink:href="#DejaVuSans-37" transform="translate(63.623047 0)"/>
    </g>
   </g>
   <g id="text_26">
    <!-- 151 -->
    <g transform="translate(476.604999 150.6066) scale(0.1 -0.1)">
     <defs>
      <path id="DejaVuSans-35" d="M 691 4666 
L 3169 4666 
L 3169 4134 
L 1269 4134 
L 1269 2991 
Q 1406 3038 1543 3061 
Q 1681 3084 1819 3084 
Q 2600 3084 3056 2656 
Q 3513 2228 3513 1497 
Q 3513 744 3044 326 
Q 2575 -91 1722 -91 
Q 1428 -91 1123 -41 
Q 819 9 494 109 
L 494 744 
Q 775 591 1075 516 
Q 1375 441 1709 441 
Q 2250 441 2565 725 
Q 2881 1009 2881 1497 
Q 2881 1984 2565 2268 
Q 2250 2553 1709 2553 
Q 1456 2553 1204 2497 
Q 953 2441 691 2322 
L 691 4666 
z
" transform="scale(0.015625)"/>
     </defs>
     <use xlink:href="#DejaVuSans-31"/>
     <use xlink:href="#DejaVuSans-35" transform="translate(63.623047 0)"/>
     <use xlink:href="#DejaVuSans-31" transform="translate(127.246094 0)"/>
    </g>
   </g>
   <g id="text_27">
    <!-- 38 -->
    <g transform="translate(451.324124 114.396319) scale(0.1 -0.1)">
     <use xlink:href="#DejaVuSans-33"/>
     <use xlink:href="#DejaVuSans-38" transform="translate(63.623047 0)"/>
    </g>
   </g>
   <g id="text_28">
    <!-- 74 -->
    <g transform="translate(501.983045 112.464504) scale(0.1 -0.1)">
     <use xlink:href="#DejaVuSans-37"/>
     <use xlink:href="#DejaVuSans-34" transform="translate(63.623047 0)"/>
    </g>
   </g>
   <g id="text_29">
    <!-- 98 -->
    <g transform="translate(475.550532 97.834639) scale(0.1 -0.1)">
     <use xlink:href="#DejaVuSans-39"/>
     <use xlink:href="#DejaVuSans-38" transform="translate(63.623047 0)"/>
    </g>
   </g>
   <g id="text_30">
    <!-- E. coli -->
    <g transform="translate(411.353861 36.252114) scale(0.08 -0.08)">
     <use xlink:href="#DejaVuSans-45"/>
     <use xlink:href="#DejaVuSans-2e" transform="translate(63.183594 0)"/>
     <use xlink:href="#DejaVuSans-20" transform="translate(94.970703 0)"/>
     <use xlink:href="#DejaVuSans-63" transform="translate(126.757812 0)"/>
     <use xlink:href="#DejaVuSans-6f" transform="translate(181.738281 0)"/>
     <use xlink:href="#DejaVuSans-6c" transform="translate(242.919922 0)"/>
     <use xlink:href="#DejaVuSans-69" transform="translate(270.703125 0)"/>
    </g>
   </g>
   <g id="text_31">
    <!-- B. theta -->
    <g transform="translate(529.855061 33.862753) scale(0.08 -0.08)">
     <use xlink:href="#DejaVuSans-42"/>
     <use xlink:href="#DejaVuSans-2e" transform="translate(68.603516 0)"/>
     <use xlink:href="#DejaVuSans-20" transform="translate(100.390625 0)"/>
     <use xlink:href="#DejaVuSans-74" transform="translate(132.177734 0)"/>
     <use xlink:href="#DejaVuSans-68" transform="translate(171.386719 0)"/>
     <use xlink:href="#DejaVuSans-65" transform="translate(234.765625 0)"/>
     <use xlink:href="#DejaVuSans-74" transform="translate(296.289062 0)"/>
     <use xlink:href="#DejaVuSans-61" transform="translate(335.498047 0)"/>
    </g>
   </g>
   <g id="text_32">
    <!-- B. longum -->
    <g transform="translate(465.707012 170.930227) scale(0.08 -0.08)">
     <use xlink:href="#DejaVuSans-42"/>
     <use xlink:href="#DejaVuSans-2e" transform="translate(68.603516 0)"/>
     <use xlink:href="#DejaVuSans-20" transform="translate(100.390625 0)"/>
     <use xlink:href="#DejaVuSans-6c" transform="translate(132.177734 0)"/>
     <use xlink:href="#DejaVuSans-6f" transform="translate(159.960938 0)"/>
     <use xlink:href="#DejaVuSans-6e" transform="translate(221.142578 0)"/>
     <use xlink:href="#DejaVuSans-67" transform="translate(284.521484 0)"/>
     <use xlink:href="#DejaVuSans-75" transform="translate(347.998047 0)"/>
     <use xlink:href="#DejaVuSans-6d" transform="translate(411.376953 0)"/>
    </g>
   </g>
   <g id="text_33">
    <!-- Glucose -->
    <g transform="translate(459.234926 16.318125) scale(0.12 -0.12)">
     <use xlink:href="#DejaVuSans-47"/>
     <use xlink:href="#DejaVuSans-6c" transform="translate(77.490234 0)"/>
     <use xlink:href="#DejaVuSans-75" transform="translate(105.273438 0)"/>
     <use xlink:href="#DejaVuSans-63" transform="translate(168.652344 0)"/>
     <use xlink:href="#DejaVuSans-6f" transform="translate(223.632812 0)"/>
     <use xlink:href="#DejaVuSans-73" transform="translate(284.814453 0)"/>
     <use xlink:href="#DejaVuSans-65" transform="translate(336.914062 0)"/>
    </g>
   </g>
  </g>
 </g>
 <defs>
  <clipPath id="pbdf5b7dff8">
   <rect x="7.2" y="22.556827" width="164.117647" height="149.428835"/>
  </clipPath>
  <clipPath id="p90d0fac1e2">
   <rect x="204.141176" y="22.428577" width="164.117647" height="149.685336"/>
  </clipPath>
  <clipPath id="p1d1a885f1d">
   <rect x="401.082353" y="22.318125" width="164.117647" height="149.90624"/>
  </clipPath>
 </defs>
</svg>
