<?xml version="1.0" encoding="utf-8" standalone="no"?>
<!DOCTYPE svg PUBLIC "-//W3C//DTD SVG 1.1//EN"
  "http://www.w3.org/Graphics/SVG/1.1/DTD/svg11.dtd">
<svg xmlns:xlink="http://www.w3.org/1999/xlink" width="572.4pt" height="180.431945pt" viewBox="0 0 572.4 180.431945" xmlns="http://www.w3.org/2000/svg" version="1.1">
 <metadata>
  <rdf:RDF xmlns:dc="http://purl.org/dc/elements/1.1/" xmlns:cc="http://creativecommons.org/ns#" xmlns:rdf="http://www.w3.org/1999/02/22-rdf-syntax-ns#">
   <cc:Work>
    <dc:type rdf:resource="http://purl.org/dc/dcmitype/StillImage"/>
    <dc:date>2025-07-16T16:42:29.994476</dc:date>
    <dc:format>image/svg+xml</dc:format>
    <dc:creator>
     <cc:Agent>
      <dc:title>Matplotlib v3.10.1, https://matplotlib.org/</dc:title>
     </cc:Agent>
    </dc:creator>
   </cc:Work>
  </rdf:RDF>
 </metadata>
 <defs>
  <style type="text/css">*{stroke-linejoin: round; stroke-linecap: butt}</style>
 </defs>
 <g id="figure_1">
  <g id="patch_1">
   <path d="M 0 180.431945 
L 572.4 180.431945 
L 572.4 0 
L 0 0 
z
" style="fill: #ffffff"/>
  </g>
  <g id="axes_1">
   <g id="patch_2">
    <path d="M 85.396827 41.701949 
C 79.827666 38.782832 73.713318 37.049766 67.440716 36.612424 
C 61.168114 36.175083 54.872426 37.04289 48.952062 39.160928 
C 43.031697 41.278967 37.614233 44.601595 33.042503 48.918549 
C 28.470773 53.235502 24.843291 58.453754 22.389617 64.243079 
C 19.935942 70.032404 18.708948 76.268048 18.786283 82.555402 
C 18.863617 88.842756 20.243613 95.046335 22.838941 100.773557 
C 25.434269 106.50078 29.189002 111.628231 33.86553 115.83143 
C 38.542059 120.03463 44.039608 123.223004 50.010277 125.194783 
C 49.01886 118.274332 49.768654 111.214661 52.191574 104.65684 
C 54.614493 98.09902 58.634908 92.247746 63.887735 87.634357 
C 62.83707 78.735275 64.294386 69.717191 68.094544 61.601998 
C 71.894702 53.486806 77.888529 46.593065 85.396827 41.701949 
" clip-path="url(#p303865e4dd)" style="fill: #221331; opacity: 0.8; stroke: #221331; stroke-linejoin: miter"/>
   </g>
   <g id="patch_3">
    <path d="M 85.396827 41.701949 
C 92.641494 45.499295 98.729703 51.181112 103.017693 58.14661 
C 107.305683 65.112108 109.636797 73.106809 109.764544 81.285361 
C 117.805883 85.126621 124.421752 91.426363 128.651824 99.270144 
C 132.881896 107.113926 134.511092 116.102929 133.302926 124.932355 
C 139.140418 121.987877 144.316576 117.883627 148.514258 112.87107 
C 152.711941 107.858513 155.84363 102.042156 157.717449 95.778366 
C 159.591268 89.514576 160.168149 82.933946 159.412747 76.439669 
C 158.657346 69.945392 156.58541 63.672868 153.323887 58.006411 
C 150.062365 52.339954 145.679255 47.397704 140.443109 43.482472 
C 135.206963 39.56724 129.22695 36.760655 122.869462 35.234673 
C 116.511975 33.708692 109.909561 33.495131 103.466747 34.607075 
C 97.023933 35.719018 90.875047 38.133283 85.396827 41.701949 
" clip-path="url(#p303865e4dd)" style="fill: #921c5b; opacity: 0.8; stroke: #921c5b; stroke-linejoin: miter"/>
   </g>
   <g id="patch_4">
    <path d="M 85.396827 41.701949 
C 77.888529 46.593065 71.894702 53.486806 68.094544 61.601998 
C 64.294386 69.717191 62.83707 78.735275 63.887735 87.634357 
C 70.072907 82.20212 77.719099 78.703757 85.873366 77.57527 
C 94.027633 76.446782 102.336538 77.737082 109.764544 81.285361 
C 109.636797 73.106809 107.305683 65.112108 103.017693 58.14661 
C 98.729703 51.181112 92.641494 45.499295 85.396827 41.701949 
" clip-path="url(#p303865e4dd)" style="fill: #b25900; opacity: 0.4"/>
   </g>
   <g id="patch_5">
    <path d="M 50.010277 125.194783 
C 51.448252 135.232369 56.469293 144.418849 64.141407 151.04905 
C 71.813521 157.679251 81.630706 161.31589 91.77072 161.283942 
C 101.910734 161.251994 111.704809 157.553566 119.334991 150.875153 
C 126.965174 144.196739 131.928229 134.978802 133.302926 124.932355 
C 125.785854 128.724026 117.403213 130.475972 108.99678 130.012263 
C 100.590347 129.548555 92.451256 126.885251 85.396827 122.289798 
C 79.994563 125.121435 74.077597 126.837935 67.99865 127.336973 
C 61.919703 127.836012 55.802017 127.107472 50.010277 125.194783 
" clip-path="url(#p303865e4dd)" style="fill: #ed503e; opacity: 0.8; stroke: #ed503e; stroke-linejoin: miter"/>
   </g>
   <g id="patch_6">
    <path d="M 50.010277 125.194783 
C 55.802017 127.107472 61.919703 127.836012 67.99865 127.336973 
C 74.077597 126.837935 79.994563 125.121435 85.396827 122.289798 
C 79.4912 118.442707 74.502913 113.343915 70.786123 107.355424 
C 67.069333 101.366933 64.714132 94.633901 63.887735 87.634357 
C 58.634908 92.247746 54.614493 98.09902 52.191574 104.65684 
C 49.768654 111.214661 49.01886 118.274332 50.010277 125.194783 
" clip-path="url(#p303865e4dd)" style="fill: #b200b2; opacity: 0.4"/>
   </g>
   <g id="patch_7">
    <path d="M 109.764544 81.285361 
C 109.896058 89.705061 107.687334 97.998225 103.385442 105.237174 
C 99.083551 112.476122 92.855107 118.380486 85.396827 122.289798 
C 92.451256 126.885251 100.590347 129.548555 108.99678 130.012263 
C 117.403213 130.475972 125.785854 128.724026 133.302926 124.932355 
C 134.511092 116.102929 132.881896 107.113926 128.651824 99.270144 
C 124.421752 91.426363 117.805883 85.126621 109.764544 81.285361 
" clip-path="url(#p303865e4dd)" style="fill: #0059b2; opacity: 0.4"/>
   </g>
   <g id="patch_8">
    <path d="M 63.887735 87.634357 
C 64.714132 94.633901 67.069333 101.366933 70.786123 107.355424 
C 74.502913 113.343915 79.4912 118.442707 85.396827 122.289798 
C 92.855107 118.380486 99.083551 112.476122 103.385442 105.237174 
C 107.687334 97.998225 109.896058 89.705061 109.764544 81.285361 
C 102.336538 77.737082 94.027633 76.446782 85.873366 77.57527 
C 77.719099 78.703757 70.072907 82.20212 63.887735 87.634357 
" clip-path="url(#p303865e4dd)" style="fill: #663366; opacity: 0.4"/>
   </g>
   <g id="text_1">
    <!-- 216 -->
    <g transform="translate(27.701603 73.875181) scale(0.1 -0.1)">
     <defs>
      <path id="DejaVuSans-32" d="M 1228 531 
L 3431 531 
L 3431 0 
L 469 0 
L 469 531 
Q 828 903 1448 1529 
Q 2069 2156 2228 2338 
Q 2531 2678 2651 2914 
Q 2772 3150 2772 3378 
Q 2772 3750 2511 3984 
Q 2250 4219 1831 4219 
Q 1534 4219 1204 4116 
Q 875 4013 500 3803 
L 500 4441 
Q 881 4594 1212 4672 
Q 1544 4750 1819 4750 
Q 2544 4750 2975 4387 
Q 3406 4025 3406 3419 
Q 3406 3131 3298 2873 
Q 3191 2616 2906 2266 
Q 2828 2175 2409 1742 
Q 1991 1309 1228 531 
z
" transform="scale(0.015625)"/>
      <path id="DejaVuSans-31" d="M 794 531 
L 1825 531 
L 1825 4091 
L 703 3866 
L 703 4441 
L 1819 4666 
L 2450 4666 
L 2450 531 
L 3481 531 
L 3481 0 
L 794 0 
L 794 531 
z
" transform="scale(0.015625)"/>
      <path id="DejaVuSans-36" d="M 2113 2584 
Q 1688 2584 1439 2293 
Q 1191 2003 1191 1497 
Q 1191 994 1439 701 
Q 1688 409 2113 409 
Q 2538 409 2786 701 
Q 3034 994 3034 1497 
Q 3034 2003 2786 2293 
Q 2538 2584 2113 2584 
z
M 3366 4563 
L 3366 3988 
Q 3128 4100 2886 4159 
Q 2644 4219 2406 4219 
Q 1781 4219 1451 3797 
Q 1122 3375 1075 2522 
Q 1259 2794 1537 2939 
Q 1816 3084 2150 3084 
Q 2853 3084 3261 2657 
Q 3669 2231 3669 1497 
Q 3669 778 3244 343 
Q 2819 -91 2113 -91 
Q 1303 -91 875 529 
Q 447 1150 447 2328 
Q 447 3434 972 4092 
Q 1497 4750 2381 4750 
Q 2619 4750 2861 4703 
Q 3103 4656 3366 4563 
z
" transform="scale(0.015625)"/>
     </defs>
     <use xlink:href="#DejaVuSans-32"/>
     <use xlink:href="#DejaVuSans-31" transform="translate(63.623047 0)"/>
     <use xlink:href="#DejaVuSans-36" transform="translate(127.246094 0)"/>
    </g>
   </g>
   <g id="text_2">
    <!-- 231 -->
    <g transform="translate(128.550447 70.109876) scale(0.1 -0.1)">
     <defs>
      <path id="DejaVuSans-33" d="M 2597 2516 
Q 3050 2419 3304 2112 
Q 3559 1806 3559 1356 
Q 3559 666 3084 287 
Q 2609 -91 1734 -91 
Q 1441 -91 1130 -33 
Q 819 25 488 141 
L 488 750 
Q 750 597 1062 519 
Q 1375 441 1716 441 
Q 2309 441 2620 675 
Q 2931 909 2931 1356 
Q 2931 1769 2642 2001 
Q 2353 2234 1838 2234 
L 1294 2234 
L 1294 2753 
L 1863 2753 
Q 2328 2753 2575 2939 
Q 2822 3125 2822 3475 
Q 2822 3834 2567 4026 
Q 2313 4219 1838 4219 
Q 1578 4219 1281 4162 
Q 984 4106 628 3988 
L 628 4550 
Q 988 4650 1302 4700 
Q 1616 4750 1894 4750 
Q 2613 4750 3031 4423 
Q 3450 4097 3450 3541 
Q 3450 3153 3228 2886 
Q 3006 2619 2597 2516 
z
" transform="scale(0.015625)"/>
     </defs>
     <use xlink:href="#DejaVuSans-32"/>
     <use xlink:href="#DejaVuSans-33" transform="translate(63.623047 0)"/>
     <use xlink:href="#DejaVuSans-31" transform="translate(127.246094 0)"/>
    </g>
   </g>
   <g id="text_3">
    <!-- 68 -->
    <g transform="translate(79.103139 68.816882) scale(0.1 -0.1)">
     <defs>
      <path id="DejaVuSans-38" d="M 2034 2216 
Q 1584 2216 1326 1975 
Q 1069 1734 1069 1313 
Q 1069 891 1326 650 
Q 1584 409 2034 409 
Q 2484 409 2743 651 
Q 3003 894 3003 1313 
Q 3003 1734 2745 1975 
Q 2488 2216 2034 2216 
z
M 1403 2484 
Q 997 2584 770 2862 
Q 544 3141 544 3541 
Q 544 4100 942 4425 
Q 1341 4750 2034 4750 
Q 2731 4750 3128 4425 
Q 3525 4100 3525 3541 
Q 3525 3141 3298 2862 
Q 3072 2584 2669 2484 
Q 3125 2378 3379 2068 
Q 3634 1759 3634 1313 
Q 3634 634 3220 271 
Q 2806 -91 2034 -91 
Q 1263 -91 848 271 
Q 434 634 434 1313 
Q 434 1759 690 2068 
Q 947 2378 1403 2484 
z
M 1172 3481 
Q 1172 3119 1398 2916 
Q 1625 2713 2034 2713 
Q 2441 2713 2670 2916 
Q 2900 3119 2900 3481 
Q 2900 3844 2670 4047 
Q 2441 4250 2034 4250 
Q 1625 4250 1398 4047 
Q 1172 3844 1172 3481 
z
" transform="scale(0.015625)"/>
     </defs>
     <use xlink:href="#DejaVuSans-36"/>
     <use xlink:href="#DejaVuSans-38" transform="translate(63.623047 0)"/>
    </g>
   </g>
   <g id="text_4">
    <!-- 150 -->
    <g transform="translate(82.000638 151.328505) scale(0.1 -0.1)">
     <defs>
      <path id="DejaVuSans-35" d="M 691 4666 
L 3169 4666 
L 3169 4134 
L 1269 4134 
L 1269 2991 
Q 1406 3038 1543 3061 
Q 1681 3084 1819 3084 
Q 2600 3084 3056 2656 
Q 3513 2228 3513 1497 
Q 3513 744 3044 326 
Q 2575 -91 1722 -91 
Q 1428 -91 1123 -41 
Q 819 9 494 109 
L 494 744 
Q 775 591 1075 516 
Q 1375 441 1709 441 
Q 2250 441 2565 725 
Q 2881 1009 2881 1497 
Q 2881 1984 2565 2268 
Q 2250 2553 1709 2553 
Q 1456 2553 1204 2497 
Q 953 2441 691 2322 
L 691 4666 
z
" transform="scale(0.015625)"/>
      <path id="DejaVuSans-30" d="M 2034 4250 
Q 1547 4250 1301 3770 
Q 1056 3291 1056 2328 
Q 1056 1369 1301 889 
Q 1547 409 2034 409 
Q 2525 409 2770 889 
Q 3016 1369 3016 2328 
Q 3016 3291 2770 3770 
Q 2525 4250 2034 4250 
z
M 2034 4750 
Q 2819 4750 3233 4129 
Q 3647 3509 3647 2328 
Q 3647 1150 3233 529 
Q 2819 -91 2034 -91 
Q 1250 -91 836 529 
Q 422 1150 422 2328 
Q 422 3509 836 4129 
Q 1250 4750 2034 4750 
z
" transform="scale(0.015625)"/>
     </defs>
     <use xlink:href="#DejaVuSans-31"/>
     <use xlink:href="#DejaVuSans-35" transform="translate(63.623047 0)"/>
     <use xlink:href="#DejaVuSans-30" transform="translate(127.246094 0)"/>
    </g>
   </g>
   <g id="text_5">
    <!-- 37 -->
    <g transform="translate(56.675382 115.111759) scale(0.1 -0.1)">
     <defs>
      <path id="DejaVuSans-37" d="M 525 4666 
L 3525 4666 
L 3525 4397 
L 1831 0 
L 1172 0 
L 2766 4134 
L 525 4134 
L 525 4666 
z
" transform="scale(0.015625)"/>
     </defs>
     <use xlink:href="#DejaVuSans-33"/>
     <use xlink:href="#DejaVuSans-37" transform="translate(63.623047 0)"/>
    </g>
   </g>
   <g id="text_6">
    <!-- 72 -->
    <g transform="translate(108.088458 113.37986) scale(0.1 -0.1)">
     <use xlink:href="#DejaVuSans-37"/>
     <use xlink:href="#DejaVuSans-32" transform="translate(63.623047 0)"/>
    </g>
   </g>
   <g id="text_7">
    <!-- 105 -->
    <g transform="translate(78.272481 98.330715) scale(0.1 -0.1)">
     <use xlink:href="#DejaVuSans-31"/>
     <use xlink:href="#DejaVuSans-30" transform="translate(63.623047 0)"/>
     <use xlink:href="#DejaVuSans-35" transform="translate(127.246094 0)"/>
    </g>
   </g>
   <g id="text_8">
    <!-- E. coli -->
    <g transform="translate(17.650904 36.502248) scale(0.08 -0.08)">
     <defs>
      <path id="DejaVuSans-45" d="M 628 4666 
L 3578 4666 
L 3578 4134 
L 1259 4134 
L 1259 2753 
L 3481 2753 
L 3481 2222 
L 1259 2222 
L 1259 531 
L 3634 531 
L 3634 0 
L 628 0 
L 628 4666 
z
" transform="scale(0.015625)"/>
      <path id="DejaVuSans-2e" d="M 684 794 
L 1344 794 
L 1344 0 
L 684 0 
L 684 794 
z
" transform="scale(0.015625)"/>
      <path id="DejaVuSans-20" transform="scale(0.015625)"/>
      <path id="DejaVuSans-63" d="M 3122 3366 
L 3122 2828 
Q 2878 2963 2633 3030 
Q 2388 3097 2138 3097 
Q 1578 3097 1268 2742 
Q 959 2388 959 1747 
Q 959 1106 1268 751 
Q 1578 397 2138 397 
Q 2388 397 2633 464 
Q 2878 531 3122 666 
L 3122 134 
Q 2881 22 2623 -34 
Q 2366 -91 2075 -91 
Q 1284 -91 818 406 
Q 353 903 353 1747 
Q 353 2603 823 3093 
Q 1294 3584 2113 3584 
Q 2378 3584 2631 3529 
Q 2884 3475 3122 3366 
z
" transform="scale(0.015625)"/>
      <path id="DejaVuSans-6f" d="M 1959 3097 
Q 1497 3097 1228 2736 
Q 959 2375 959 1747 
Q 959 1119 1226 758 
Q 1494 397 1959 397 
Q 2419 397 2687 759 
Q 2956 1122 2956 1747 
Q 2956 2369 2687 2733 
Q 2419 3097 1959 3097 
z
M 1959 3584 
Q 2709 3584 3137 3096 
Q 3566 2609 3566 1747 
Q 3566 888 3137 398 
Q 2709 -91 1959 -91 
Q 1206 -91 779 398 
Q 353 888 353 1747 
Q 353 2609 779 3096 
Q 1206 3584 1959 3584 
z
" transform="scale(0.015625)"/>
      <path id="DejaVuSans-6c" d="M 603 4863 
L 1178 4863 
L 1178 0 
L 603 0 
L 603 4863 
z
" transform="scale(0.015625)"/>
      <path id="DejaVuSans-69" d="M 603 3500 
L 1178 3500 
L 1178 0 
L 603 0 
L 603 3500 
z
M 603 4863 
L 1178 4863 
L 1178 4134 
L 603 4134 
L 603 4863 
z
" transform="scale(0.015625)"/>
     </defs>
     <use xlink:href="#DejaVuSans-45"/>
     <use xlink:href="#DejaVuSans-2e" transform="translate(63.183594 0)"/>
     <use xlink:href="#DejaVuSans-20" transform="translate(94.970703 0)"/>
     <use xlink:href="#DejaVuSans-63" transform="translate(126.757812 0)"/>
     <use xlink:href="#DejaVuSans-6f" transform="translate(181.738281 0)"/>
     <use xlink:href="#DejaVuSans-6c" transform="translate(242.919922 0)"/>
     <use xlink:href="#DejaVuSans-69" transform="translate(270.703125 0)"/>
    </g>
   </g>
   <g id="text_9">
    <!-- B. theta -->
    <g transform="translate(135.690113 33.906488) scale(0.08 -0.08)">
     <defs>
      <path id="DejaVuSans-42" d="M 1259 2228 
L 1259 519 
L 2272 519 
Q 2781 519 3026 730 
Q 3272 941 3272 1375 
Q 3272 1813 3026 2020 
Q 2781 2228 2272 2228 
L 1259 2228 
z
M 1259 4147 
L 1259 2741 
L 2194 2741 
Q 2656 2741 2882 2914 
Q 3109 3088 3109 3444 
Q 3109 3797 2882 3972 
Q 2656 4147 2194 4147 
L 1259 4147 
z
M 628 4666 
L 2241 4666 
Q 2963 4666 3353 4366 
Q 3744 4066 3744 3513 
Q 3744 3084 3544 2831 
Q 3344 2578 2956 2516 
Q 3422 2416 3680 2098 
Q 3938 1781 3938 1306 
Q 3938 681 3513 340 
Q 3088 0 2303 0 
L 628 0 
L 628 4666 
z
" transform="scale(0.015625)"/>
      <path id="DejaVuSans-74" d="M 1172 4494 
L 1172 3500 
L 2356 3500 
L 2356 3053 
L 1172 3053 
L 1172 1153 
Q 1172 725 1289 603 
Q 1406 481 1766 481 
L 2356 481 
L 2356 0 
L 1766 0 
Q 1100 0 847 248 
Q 594 497 594 1153 
L 594 3053 
L 172 3053 
L 172 3500 
L 594 3500 
L 594 4494 
L 1172 4494 
z
" transform="scale(0.015625)"/>
      <path id="DejaVuSans-68" d="M 3513 2113 
L 3513 0 
L 2938 0 
L 2938 2094 
Q 2938 2591 2744 2837 
Q 2550 3084 2163 3084 
Q 1697 3084 1428 2787 
Q 1159 2491 1159 1978 
L 1159 0 
L 581 0 
L 581 4863 
L 1159 4863 
L 1159 2956 
Q 1366 3272 1645 3428 
Q 1925 3584 2291 3584 
Q 2894 3584 3203 3211 
Q 3513 2838 3513 2113 
z
" transform="scale(0.015625)"/>
      <path id="DejaVuSans-65" d="M 3597 1894 
L 3597 1613 
L 953 1613 
Q 991 1019 1311 708 
Q 1631 397 2203 397 
Q 2534 397 2845 478 
Q 3156 559 3463 722 
L 3463 178 
Q 3153 47 2828 -22 
Q 2503 -91 2169 -91 
Q 1331 -91 842 396 
Q 353 884 353 1716 
Q 353 2575 817 3079 
Q 1281 3584 2069 3584 
Q 2775 3584 3186 3129 
Q 3597 2675 3597 1894 
z
M 3022 2063 
Q 3016 2534 2758 2815 
Q 2500 3097 2075 3097 
Q 1594 3097 1305 2825 
Q 1016 2553 972 2059 
L 3022 2063 
z
" transform="scale(0.015625)"/>
      <path id="DejaVuSans-61" d="M 2194 1759 
Q 1497 1759 1228 1600 
Q 959 1441 959 1056 
Q 959 750 1161 570 
Q 1363 391 1709 391 
Q 2188 391 2477 730 
Q 2766 1069 2766 1631 
L 2766 1759 
L 2194 1759 
z
M 3341 1997 
L 3341 0 
L 2766 0 
L 2766 531 
Q 2569 213 2275 61 
Q 1981 -91 1556 -91 
Q 1019 -91 701 211 
Q 384 513 384 1019 
Q 384 1609 779 1909 
Q 1175 2209 1959 2209 
L 2766 2209 
L 2766 2266 
Q 2766 2663 2505 2880 
Q 2244 3097 1772 3097 
Q 1472 3097 1187 3025 
Q 903 2953 641 2809 
L 641 3341 
Q 956 3463 1253 3523 
Q 1550 3584 1831 3584 
Q 2591 3584 2966 3190 
Q 3341 2797 3341 1997 
z
" transform="scale(0.015625)"/>
     </defs>
     <use xlink:href="#DejaVuSans-42"/>
     <use xlink:href="#DejaVuSans-2e" transform="translate(68.603516 0)"/>
     <use xlink:href="#DejaVuSans-20" transform="translate(100.390625 0)"/>
     <use xlink:href="#DejaVuSans-74" transform="translate(132.177734 0)"/>
     <use xlink:href="#DejaVuSans-68" transform="translate(171.386719 0)"/>
     <use xlink:href="#DejaVuSans-65" transform="translate(234.765625 0)"/>
     <use xlink:href="#DejaVuSans-74" transform="translate(296.289062 0)"/>
     <use xlink:href="#DejaVuSans-61" transform="translate(335.498047 0)"/>
    </g>
   </g>
   <g id="text_10">
    <!-- B. longum -->
    <g transform="translate(71.286975 171.568195) scale(0.08 -0.08)">
     <defs>
      <path id="DejaVuSans-6e" d="M 3513 2113 
L 3513 0 
L 2938 0 
L 2938 2094 
Q 2938 2591 2744 2837 
Q 2550 3084 2163 3084 
Q 1697 3084 1428 2787 
Q 1159 2491 1159 1978 
L 1159 0 
L 581 0 
L 581 3500 
L 1159 3500 
L 1159 2956 
Q 1366 3272 1645 3428 
Q 1925 3584 2291 3584 
Q 2894 3584 3203 3211 
Q 3513 2838 3513 2113 
z
" transform="scale(0.015625)"/>
      <path id="DejaVuSans-67" d="M 2906 1791 
Q 2906 2416 2648 2759 
Q 2391 3103 1925 3103 
Q 1463 3103 1205 2759 
Q 947 2416 947 1791 
Q 947 1169 1205 825 
Q 1463 481 1925 481 
Q 2391 481 2648 825 
Q 2906 1169 2906 1791 
z
M 3481 434 
Q 3481 -459 3084 -895 
Q 2688 -1331 1869 -1331 
Q 1566 -1331 1297 -1286 
Q 1028 -1241 775 -1147 
L 775 -588 
Q 1028 -725 1275 -790 
Q 1522 -856 1778 -856 
Q 2344 -856 2625 -561 
Q 2906 -266 2906 331 
L 2906 616 
Q 2728 306 2450 153 
Q 2172 0 1784 0 
Q 1141 0 747 490 
Q 353 981 353 1791 
Q 353 2603 747 3093 
Q 1141 3584 1784 3584 
Q 2172 3584 2450 3431 
Q 2728 3278 2906 2969 
L 2906 3500 
L 3481 3500 
L 3481 434 
z
" transform="scale(0.015625)"/>
      <path id="DejaVuSans-75" d="M 544 1381 
L 544 3500 
L 1119 3500 
L 1119 1403 
Q 1119 906 1312 657 
Q 1506 409 1894 409 
Q 2359 409 2629 706 
Q 2900 1003 2900 1516 
L 2900 3500 
L 3475 3500 
L 3475 0 
L 2900 0 
L 2900 538 
Q 2691 219 2414 64 
Q 2138 -91 1772 -91 
Q 1169 -91 856 284 
Q 544 659 544 1381 
z
M 1991 3584 
L 1991 3584 
z
" transform="scale(0.015625)"/>
      <path id="DejaVuSans-6d" d="M 3328 2828 
Q 3544 3216 3844 3400 
Q 4144 3584 4550 3584 
Q 5097 3584 5394 3201 
Q 5691 2819 5691 2113 
L 5691 0 
L 5113 0 
L 5113 2094 
Q 5113 2597 4934 2840 
Q 4756 3084 4391 3084 
Q 3944 3084 3684 2787 
Q 3425 2491 3425 1978 
L 3425 0 
L 2847 0 
L 2847 2094 
Q 2847 2600 2669 2842 
Q 2491 3084 2119 3084 
Q 1678 3084 1418 2786 
Q 1159 2488 1159 1978 
L 1159 0 
L 581 0 
L 581 3500 
L 1159 3500 
L 1159 2956 
Q 1356 3278 1631 3431 
Q 1906 3584 2284 3584 
Q 2666 3584 2933 3390 
Q 3200 3197 3328 2828 
z
" transform="scale(0.015625)"/>
     </defs>
     <use xlink:href="#DejaVuSans-42"/>
     <use xlink:href="#DejaVuSans-2e" transform="translate(68.603516 0)"/>
     <use xlink:href="#DejaVuSans-20" transform="translate(100.390625 0)"/>
     <use xlink:href="#DejaVuSans-6c" transform="translate(132.177734 0)"/>
     <use xlink:href="#DejaVuSans-6f" transform="translate(159.960938 0)"/>
     <use xlink:href="#DejaVuSans-6e" transform="translate(221.142578 0)"/>
     <use xlink:href="#DejaVuSans-67" transform="translate(284.521484 0)"/>
     <use xlink:href="#DejaVuSans-75" transform="translate(347.998047 0)"/>
     <use xlink:href="#DejaVuSans-6d" transform="translate(411.376953 0)"/>
    </g>
   </g>
   <g id="text_11">
    <!-- Lactose -->
    <g transform="translate(66.098824 16.323647) scale(0.12 -0.12)">
     <defs>
      <path id="DejaVuSans-4c" d="M 628 4666 
L 1259 4666 
L 1259 531 
L 3531 531 
L 3531 0 
L 628 0 
L 628 4666 
z
" transform="scale(0.015625)"/>
      <path id="DejaVuSans-73" d="M 2834 3397 
L 2834 2853 
Q 2591 2978 2328 3040 
Q 2066 3103 1784 3103 
Q 1356 3103 1142 2972 
Q 928 2841 928 2578 
Q 928 2378 1081 2264 
Q 1234 2150 1697 2047 
L 1894 2003 
Q 2506 1872 2764 1633 
Q 3022 1394 3022 966 
Q 3022 478 2636 193 
Q 2250 -91 1575 -91 
Q 1294 -91 989 -36 
Q 684 19 347 128 
L 347 722 
Q 666 556 975 473 
Q 1284 391 1588 391 
Q 1994 391 2212 530 
Q 2431 669 2431 922 
Q 2431 1156 2273 1281 
Q 2116 1406 1581 1522 
L 1381 1569 
Q 847 1681 609 1914 
Q 372 2147 372 2553 
Q 372 3047 722 3315 
Q 1072 3584 1716 3584 
Q 2034 3584 2315 3537 
Q 2597 3491 2834 3397 
z
" transform="scale(0.015625)"/>
     </defs>
     <use xlink:href="#DejaVuSans-4c"/>
     <use xlink:href="#DejaVuSans-61" transform="translate(55.712891 0)"/>
     <use xlink:href="#DejaVuSans-63" transform="translate(116.992188 0)"/>
     <use xlink:href="#DejaVuSans-74" transform="translate(171.972656 0)"/>
     <use xlink:href="#DejaVuSans-6f" transform="translate(211.181641 0)"/>
     <use xlink:href="#DejaVuSans-73" transform="translate(272.363281 0)"/>
     <use xlink:href="#DejaVuSans-65" transform="translate(324.462891 0)"/>
    </g>
   </g>
  </g>
  <g id="axes_2">
   <g id="patch_9">
    <path d="M 282.385946 42.493329 
C 276.88113 39.473145 270.805245 37.636851 264.549125 37.102566 
C 258.293005 36.568281 251.993732 37.347712 246.05651 39.390723 
C 240.119288 41.433734 234.674211 44.695559 230.071538 48.966378 
C 225.468865 53.237198 221.809447 58.423431 219.328679 64.191472 
C 216.84791 69.959512 215.600149 76.182972 215.665659 82.461523 
C 215.731168 88.740075 217.108512 94.936144 219.709093 100.651167 
C 222.309673 106.366189 226.076507 111.474939 230.76729 115.648792 
C 235.458074 119.822645 240.970024 122.970146 246.948582 124.88883 
C 246.001909 117.882125 246.859645 110.748374 249.440246 104.165776 
C 252.020847 97.583178 256.239859 91.76716 261.696182 87.270647 
C 260.733362 78.630576 262.152321 69.889527 265.798811 61.997699 
C 269.445301 54.10587 275.182224 47.359976 282.385946 42.493329 
" clip-path="url(#p885d3c6e38)" style="fill: #221331; opacity: 0.8; stroke: #221331; stroke-linejoin: miter"/>
   </g>
   <g id="patch_10">
    <path d="M 282.385946 42.493329 
C 289.425286 46.355421 295.305843 52.030022 299.416337 58.927261 
C 303.52683 65.824501 305.71972 73.696812 305.767056 81.725873 
C 313.81316 85.503457 320.438148 91.765731 324.66231 99.586625 
C 328.886472 107.407519 330.490787 116.381522 329.238007 125.181548 
C 335.195552 122.399598 340.51356 118.414847 344.856808 113.478473 
C 349.200056 108.5421 352.475326 102.760053 354.476159 96.496807 
C 356.476993 90.233561 357.160447 83.623543 356.483439 77.083417 
C 355.806431 70.543291 353.783492 64.213428 350.542139 58.492832 
C 347.300786 52.772236 342.910588 47.783689 337.648281 43.841644 
C 332.385975 39.899599 326.364505 37.088665 319.963437 35.58603 
C 313.562369 34.083394 306.919088 33.921309 300.452356 35.10999 
C 293.985624 36.298671 287.834236 38.812606 282.385946 42.493329 
" clip-path="url(#p885d3c6e38)" style="fill: #921c5b; opacity: 0.8; stroke: #921c5b; stroke-linejoin: miter"/>
   </g>
   <g id="patch_11">
    <path d="M 282.385946 42.493329 
C 275.182224 47.359976 269.445301 54.10587 265.798811 61.997699 
C 262.152321 69.889527 260.733362 78.630576 261.696182 87.270647 
C 267.763547 82.27058 275.127583 79.094351 282.928247 78.112911 
C 290.728911 77.131471 298.650223 78.384575 305.767056 81.725873 
C 305.71972 73.696812 303.52683 65.824501 299.416337 58.927261 
C 295.305843 52.030022 289.425286 46.355421 282.385946 42.493329 
" clip-path="url(#p885d3c6e38)" style="fill: #b25900; opacity: 0.4"/>
   </g>
   <g id="patch_12">
    <path d="M 246.948582 124.88883 
C 248.290905 134.823895 253.185583 143.944781 260.722499 150.555549 
C 268.259415 157.166317 277.940566 160.830159 287.965839 160.86582 
C 297.991111 160.901482 307.698082 157.306607 315.281839 150.749626 
C 322.865595 144.192645 327.825038 135.106813 329.238007 125.181548 
C 321.775572 128.666225 313.535851 130.158084 305.32535 129.511101 
C 297.114849 128.864118 289.210487 126.100115 282.385946 121.489632 
C 277.019941 124.433658 271.109852 126.253546 265.017254 126.837956 
C 258.924656 127.422366 252.776382 126.759131 246.948582 124.88883 
" clip-path="url(#p885d3c6e38)" style="fill: #ed503e; opacity: 0.8; stroke: #ed503e; stroke-linejoin: miter"/>
   </g>
   <g id="patch_13">
    <path d="M 246.948582 124.88883 
C 252.776382 126.759131 258.924656 127.422366 265.017254 126.837956 
C 271.109852 126.253546 277.019941 124.433658 282.385946 121.489632 
C 276.665045 117.624741 271.851538 112.562671 268.279341 106.654583 
C 264.707145 100.746495 262.460815 94.132238 261.696182 87.270647 
C 256.239859 91.76716 252.020847 97.583178 249.440246 104.165776 
C 246.859645 110.748374 246.001909 117.882125 246.948582 124.88883 
" clip-path="url(#p885d3c6e38)" style="fill: #b200b2; opacity: 0.4"/>
   </g>
   <g id="patch_14">
    <path d="M 305.767056 81.725873 
C 305.814924 89.845033 303.667068 97.828116 299.55164 104.827137 
C 295.436212 111.826159 289.504278 117.584202 282.385946 121.489632 
C 289.210487 126.100115 297.114849 128.864118 305.32535 129.511101 
C 313.535851 130.158084 321.775572 128.666225 329.238007 125.181548 
C 330.490787 116.381522 328.886472 107.407519 324.66231 99.586625 
C 320.438148 91.765731 313.81316 85.503457 305.767056 81.725873 
" clip-path="url(#p885d3c6e38)" style="fill: #0059b2; opacity: 0.4"/>
   </g>
   <g id="patch_15">
    <path d="M 261.696182 87.270647 
C 262.460815 94.132238 264.707145 100.746495 268.279341 106.654583 
C 271.851538 112.562671 276.665045 117.624741 282.385946 121.489632 
C 289.504278 117.584202 295.436212 111.826159 299.55164 104.827137 
C 303.667068 97.828116 305.814924 89.845033 305.767056 81.725873 
C 298.650223 78.384575 290.728911 77.131471 282.928247 78.112911 
C 275.127583 79.094351 267.763547 82.27058 261.696182 87.270647 
" clip-path="url(#p885d3c6e38)" style="fill: #663366; opacity: 0.4"/>
   </g>
   <g id="text_12">
    <!-- 220 -->
    <g transform="translate(224.70877 73.981567) scale(0.1 -0.1)">
     <use xlink:href="#DejaVuSans-32"/>
     <use xlink:href="#DejaVuSans-32" transform="translate(63.623047 0)"/>
     <use xlink:href="#DejaVuSans-30" transform="translate(127.246094 0)"/>
    </g>
   </g>
   <g id="text_13">
    <!-- 238 -->
    <g transform="translate(325.505918 70.619177) scale(0.1 -0.1)">
     <use xlink:href="#DejaVuSans-32"/>
     <use xlink:href="#DejaVuSans-33" transform="translate(63.623047 0)"/>
     <use xlink:href="#DejaVuSans-38" transform="translate(127.246094 0)"/>
    </g>
   </g>
   <g id="text_14">
    <!-- 68 -->
    <g transform="translate(276.229652 69.30644) scale(0.1 -0.1)">
     <use xlink:href="#DejaVuSans-36"/>
     <use xlink:href="#DejaVuSans-38" transform="translate(63.623047 0)"/>
    </g>
   </g>
   <g id="text_15">
    <!-- 150 -->
    <g transform="translate(278.264041 150.890768) scale(0.1 -0.1)">
     <use xlink:href="#DejaVuSans-31"/>
     <use xlink:href="#DejaVuSans-35" transform="translate(63.623047 0)"/>
     <use xlink:href="#DejaVuSans-30" transform="translate(127.246094 0)"/>
    </g>
   </g>
   <g id="text_16">
    <!-- 41 -->
    <g transform="translate(253.829048 114.56185) scale(0.1 -0.1)">
     <defs>
      <path id="DejaVuSans-34" d="M 2419 4116 
L 825 1625 
L 2419 1625 
L 2419 4116 
z
M 2253 4666 
L 3047 4666 
L 3047 1625 
L 3713 1625 
L 3713 1100 
L 3047 1100 
L 3047 0 
L 2419 0 
L 2419 1100 
L 313 1100 
L 313 1709 
L 2253 4666 
z
" transform="scale(0.015625)"/>
     </defs>
     <use xlink:href="#DejaVuSans-34"/>
     <use xlink:href="#DejaVuSans-31" transform="translate(63.623047 0)"/>
    </g>
   </g>
   <g id="text_17">
    <!-- 74 -->
    <g transform="translate(304.412393 113.143197) scale(0.1 -0.1)">
     <use xlink:href="#DejaVuSans-37"/>
     <use xlink:href="#DejaVuSans-34" transform="translate(63.623047 0)"/>
    </g>
   </g>
   <g id="text_18">
    <!-- 98 -->
    <g transform="translate(278.256052 98.28078) scale(0.1 -0.1)">
     <defs>
      <path id="DejaVuSans-39" d="M 703 97 
L 703 672 
Q 941 559 1184 500 
Q 1428 441 1663 441 
Q 2288 441 2617 861 
Q 2947 1281 2994 2138 
Q 2813 1869 2534 1725 
Q 2256 1581 1919 1581 
Q 1219 1581 811 2004 
Q 403 2428 403 3163 
Q 403 3881 828 4315 
Q 1253 4750 1959 4750 
Q 2769 4750 3195 4129 
Q 3622 3509 3622 2328 
Q 3622 1225 3098 567 
Q 2575 -91 1691 -91 
Q 1453 -91 1209 -44 
Q 966 3 703 97 
z
M 1959 2075 
Q 2384 2075 2632 2365 
Q 2881 2656 2881 3163 
Q 2881 3666 2632 3958 
Q 2384 4250 1959 4250 
Q 1534 4250 1286 3958 
Q 1038 3666 1038 3163 
Q 1038 2656 1286 2365 
Q 1534 2075 1959 2075 
z
" transform="scale(0.015625)"/>
     </defs>
     <use xlink:href="#DejaVuSans-39"/>
     <use xlink:href="#DejaVuSans-38" transform="translate(63.623047 0)"/>
    </g>
   </g>
   <g id="text_19">
    <!-- E. coli -->
    <g transform="translate(214.310615 36.939164) scale(0.08 -0.08)">
     <use xlink:href="#DejaVuSans-45"/>
     <use xlink:href="#DejaVuSans-2e" transform="translate(63.183594 0)"/>
     <use xlink:href="#DejaVuSans-20" transform="translate(94.970703 0)"/>
     <use xlink:href="#DejaVuSans-63" transform="translate(126.757812 0)"/>
     <use xlink:href="#DejaVuSans-6f" transform="translate(181.738281 0)"/>
     <use xlink:href="#DejaVuSans-6c" transform="translate(242.919922 0)"/>
     <use xlink:href="#DejaVuSans-69" transform="translate(270.703125 0)"/>
    </g>
   </g>
   <g id="text_20">
    <!-- B. theta -->
    <g transform="translate(332.903331 34.324556) scale(0.08 -0.08)">
     <use xlink:href="#DejaVuSans-42"/>
     <use xlink:href="#DejaVuSans-2e" transform="translate(68.603516 0)"/>
     <use xlink:href="#DejaVuSans-20" transform="translate(100.390625 0)"/>
     <use xlink:href="#DejaVuSans-74" transform="translate(132.177734 0)"/>
     <use xlink:href="#DejaVuSans-68" transform="translate(171.386719 0)"/>
     <use xlink:href="#DejaVuSans-65" transform="translate(234.765625 0)"/>
     <use xlink:href="#DejaVuSans-74" transform="translate(296.289062 0)"/>
     <use xlink:href="#DejaVuSans-61" transform="translate(335.498047 0)"/>
    </g>
   </g>
   <g id="text_21">
    <!-- B. longum -->
    <g transform="translate(267.76235 171.098738) scale(0.08 -0.08)">
     <use xlink:href="#DejaVuSans-42"/>
     <use xlink:href="#DejaVuSans-2e" transform="translate(68.603516 0)"/>
     <use xlink:href="#DejaVuSans-20" transform="translate(100.390625 0)"/>
     <use xlink:href="#DejaVuSans-6c" transform="translate(132.177734 0)"/>
     <use xlink:href="#DejaVuSans-6f" transform="translate(159.960938 0)"/>
     <use xlink:href="#DejaVuSans-6e" transform="translate(221.142578 0)"/>
     <use xlink:href="#DejaVuSans-67" transform="translate(284.521484 0)"/>
     <use xlink:href="#DejaVuSans-75" transform="translate(347.998047 0)"/>
     <use xlink:href="#DejaVuSans-6d" transform="translate(411.376953 0)"/>
    </g>
   </g>
   <g id="text_22">
    <!-- Maltose -->
    <g transform="translate(262.838437 16.802526) scale(0.12 -0.12)">
     <defs>
      <path id="DejaVuSans-4d" d="M 628 4666 
L 1569 4666 
L 2759 1491 
L 3956 4666 
L 4897 4666 
L 4897 0 
L 4281 0 
L 4281 4097 
L 3078 897 
L 2444 897 
L 1241 4097 
L 1241 0 
L 628 0 
L 628 4666 
z
" transform="scale(0.015625)"/>
     </defs>
     <use xlink:href="#DejaVuSans-4d"/>
     <use xlink:href="#DejaVuSans-61" transform="translate(86.279297 0)"/>
     <use xlink:href="#DejaVuSans-6c" transform="translate(147.558594 0)"/>
     <use xlink:href="#DejaVuSans-74" transform="translate(175.341797 0)"/>
     <use xlink:href="#DejaVuSans-6f" transform="translate(214.550781 0)"/>
     <use xlink:href="#DejaVuSans-73" transform="translate(275.732422 0)"/>
     <use xlink:href="#DejaVuSans-65" transform="translate(327.832031 0)"/>
    </g>
   </g>
  </g>
  <g id="axes_3">
   <g id="patch_16">
    <path d="M 478.729014 42.113682 
C 473.233804 39.204555 467.195042 37.465146 460.994321 37.005368 
C 454.793599 36.545591 448.564337 37.375338 442.700164 39.442177 
C 436.835992 41.509016 431.463087 44.768476 426.920966 49.01459 
C 422.378845 53.260704 418.76524 58.402109 416.308496 64.113918 
C 413.851752 69.825726 412.604731 75.985038 412.646232 82.202644 
C 412.687733 88.42025 414.016864 94.562367 416.549635 100.240872 
C 419.082407 105.919376 422.764322 111.012085 427.362719 115.197188 
C 431.961117 119.382291 437.377053 122.569739 443.268293 124.558113 
C 442.436523 117.656249 443.341773 110.6547 445.90157 104.191341 
C 448.461368 97.727982 452.595543 92.005241 457.927452 87.544488 
C 456.892007 78.793 458.285295 69.923062 461.954032 61.910507 
C 465.622768 53.897952 471.427292 47.047801 478.729014 42.113682 
" clip-path="url(#p318c87127d)" style="fill: #221331; opacity: 0.8; stroke: #221331; stroke-linejoin: miter"/>
   </g>
   <g id="patch_17">
    <path d="M 478.729014 42.113682 
C 485.957648 45.940471 492.008588 51.66579 496.228979 58.671914 
C 500.44937 65.678038 502.681764 73.703595 502.685301 81.882682 
C 510.695082 85.702682 517.281934 91.978929 521.484081 99.794999 
C 525.686228 107.611068 527.288679 116.567075 526.057453 125.355309 
C 532.046311 122.537997 537.388569 118.512762 541.748027 113.532923 
C 546.107484 108.553084 549.390729 102.725344 551.391139 96.41646 
C 553.391549 90.107575 554.06626 83.452726 553.372811 76.870721 
C 552.679363 70.288716 550.632613 63.920587 547.36137 58.167099 
C 544.090126 52.41361 539.664482 47.398042 534.362955 43.436038 
C 529.061428 39.474034 522.997615 36.650488 516.553127 35.143093 
C 510.108639 33.635699 503.421563 33.476754 496.912735 34.676263 
C 490.403907 35.875772 484.212792 38.408032 478.729014 42.113682 
" clip-path="url(#p318c87127d)" style="fill: #921c5b; opacity: 0.8; stroke: #921c5b; stroke-linejoin: miter"/>
   </g>
   <g id="patch_18">
    <path d="M 478.729014 42.113682 
C 471.427292 47.047801 465.622768 53.897952 461.954032 61.910507 
C 458.285295 69.923062 456.892007 78.793 457.927452 87.544488 
C 464.061048 82.41303 471.54187 79.150498 479.475697 78.14688 
C 487.409525 77.143262 495.467114 78.440206 502.685301 81.882682 
C 502.681764 73.703595 500.44937 65.678038 496.228979 58.671914 
C 492.008588 51.66579 485.957648 45.940471 478.729014 42.113682 
" clip-path="url(#p318c87127d)" style="fill: #b25900; opacity: 0.4"/>
   </g>
   <g id="patch_19">
    <path d="M 443.268293 124.558113 
C 444.480913 134.620186 449.317184 143.904275 456.867781 150.664767 
C 464.418378 157.425259 474.178432 161.210116 484.312841 161.307702 
C 494.44725 161.405289 504.278379 157.80908 511.95776 151.195241 
C 519.637141 144.581402 524.651296 135.392166 526.057453 125.355309 
C 518.527781 128.89746 510.205138 130.422389 501.908746 129.779991 
C 493.612354 129.137594 485.62366 126.349663 478.729014 121.690624 
C 473.323251 124.552397 467.390552 126.282719 461.293916 126.775717 
C 455.19728 127.268714 449.06364 126.514123 443.268293 124.558113 
" clip-path="url(#p318c87127d)" style="fill: #ed503e; opacity: 0.8; stroke: #ed503e; stroke-linejoin: miter"/>
   </g>
   <g id="patch_20">
    <path d="M 443.268293 124.558113 
C 449.06364 126.514123 455.19728 127.268714 461.293916 126.775717 
C 467.390552 126.282719 473.323251 124.552397 478.729014 121.690624 
C 473.01241 117.827643 468.194897 112.777649 464.605423 106.885463 
C 461.015948 100.993276 458.738113 94.396131 457.927452 87.544488 
C 452.595543 92.005241 448.461368 97.727982 445.90157 104.191341 
C 443.341773 110.6547 442.436523 117.656249 443.268293 124.558113 
" clip-path="url(#p318c87127d)" style="fill: #b200b2; opacity: 0.4"/>
   </g>
   <g id="patch_21">
    <path d="M 502.685301 81.882682 
C 502.688842 90.068376 500.45979 98.1021 496.239022 105.11571 
C 492.018255 112.129321 485.963488 117.860742 478.729014 121.690624 
C 485.62366 126.349663 493.612354 129.137594 501.908746 129.779991 
C 510.205138 130.422389 518.527781 128.89746 526.057453 125.355309 
C 527.288679 116.567075 525.686228 107.611068 521.484081 99.794999 
C 517.281934 91.978929 510.695082 85.702682 502.685301 81.882682 
" clip-path="url(#p318c87127d)" style="fill: #0059b2; opacity: 0.4"/>
   </g>
   <g id="patch_22">
    <path d="M 457.927452 87.544488 
C 458.738113 94.396131 461.015948 100.993276 464.605423 106.885463 
C 468.194897 112.777649 473.01241 117.827643 478.729014 121.690624 
C 485.963488 117.860742 492.018255 112.129321 496.239022 105.11571 
C 500.45979 98.1021 502.688842 90.068376 502.685301 81.882682 
C 495.467114 78.440206 487.409525 77.143262 479.475697 78.14688 
C 471.54187 79.150498 464.061048 82.41303 457.927452 87.544488 
" clip-path="url(#p318c87127d)" style="fill: #663366; opacity: 0.4"/>
   </g>
   <g id="text_23">
    <!-- 215 -->
    <g transform="translate(421.486027 73.815579) scale(0.1 -0.1)">
     <use xlink:href="#DejaVuSans-32"/>
     <use xlink:href="#DejaVuSans-31" transform="translate(63.623047 0)"/>
     <use xlink:href="#DejaVuSans-35" transform="translate(127.246094 0)"/>
    </g>
   </g>
   <g id="text_24">
    <!-- 239 -->
    <g transform="translate(522.203576 70.352353) scale(0.1 -0.1)">
     <use xlink:href="#DejaVuSans-32"/>
     <use xlink:href="#DejaVuSans-33" transform="translate(63.623047 0)"/>
     <use xlink:href="#DejaVuSans-39" transform="translate(127.246094 0)"/>
    </g>
   </g>
   <g id="text_25">
    <!-- 68 -->
    <g transform="translate(472.805266 69.197071) scale(0.1 -0.1)">
     <use xlink:href="#DejaVuSans-36"/>
     <use xlink:href="#DejaVuSans-38" transform="translate(63.623047 0)"/>
    </g>
   </g>
   <g id="text_26">
    <!-- 152 -->
    <g transform="translate(474.661933 151.241) scale(0.1 -0.1)">
     <use xlink:href="#DejaVuSans-31"/>
     <use xlink:href="#DejaVuSans-35" transform="translate(63.623047 0)"/>
     <use xlink:href="#DejaVuSans-32" transform="translate(127.246094 0)"/>
    </g>
   </g>
   <g id="text_27">
    <!-- 38 -->
    <g transform="translate(450.257459 114.702805) scale(0.1 -0.1)">
     <use xlink:href="#DejaVuSans-33"/>
     <use xlink:href="#DejaVuSans-38" transform="translate(63.623047 0)"/>
    </g>
   </g>
   <g id="text_28">
    <!-- 72 -->
    <g transform="translate(501.048115 113.423405) scale(0.1 -0.1)">
     <use xlink:href="#DejaVuSans-37"/>
     <use xlink:href="#DejaVuSans-32" transform="translate(63.623047 0)"/>
    </g>
   </g>
   <g id="text_29">
    <!-- 100 -->
    <g transform="translate(471.684789 98.386582) scale(0.1 -0.1)">
     <use xlink:href="#DejaVuSans-31"/>
     <use xlink:href="#DejaVuSans-30" transform="translate(63.623047 0)"/>
     <use xlink:href="#DejaVuSans-30" transform="translate(127.246094 0)"/>
    </g>
   </g>
   <g id="text_30">
    <!-- E. coli -->
    <g transform="translate(411.276498 36.882114) scale(0.08 -0.08)">
     <use xlink:href="#DejaVuSans-45"/>
     <use xlink:href="#DejaVuSans-2e" transform="translate(63.183594 0)"/>
     <use xlink:href="#DejaVuSans-20" transform="translate(94.970703 0)"/>
     <use xlink:href="#DejaVuSans-63" transform="translate(126.757812 0)"/>
     <use xlink:href="#DejaVuSans-6f" transform="translate(181.738281 0)"/>
     <use xlink:href="#DejaVuSans-6c" transform="translate(242.919922 0)"/>
     <use xlink:href="#DejaVuSans-69" transform="translate(270.703125 0)"/>
    </g>
   </g>
   <g id="text_31">
    <!-- B. theta -->
    <g transform="translate(529.626548 33.881001) scale(0.08 -0.08)">
     <use xlink:href="#DejaVuSans-42"/>
     <use xlink:href="#DejaVuSans-2e" transform="translate(68.603516 0)"/>
     <use xlink:href="#DejaVuSans-20" transform="translate(100.390625 0)"/>
     <use xlink:href="#DejaVuSans-74" transform="translate(132.177734 0)"/>
     <use xlink:href="#DejaVuSans-68" transform="translate(171.386719 0)"/>
     <use xlink:href="#DejaVuSans-65" transform="translate(234.765625 0)"/>
     <use xlink:href="#DejaVuSans-74" transform="translate(296.289062 0)"/>
     <use xlink:href="#DejaVuSans-61" transform="translate(335.498047 0)"/>
    </g>
   </g>
   <g id="text_32">
    <!-- B. longum -->
    <g transform="translate(464.363558 171.563028) scale(0.08 -0.08)">
     <use xlink:href="#DejaVuSans-42"/>
     <use xlink:href="#DejaVuSans-2e" transform="translate(68.603516 0)"/>
     <use xlink:href="#DejaVuSans-20" transform="translate(100.390625 0)"/>
     <use xlink:href="#DejaVuSans-6c" transform="translate(132.177734 0)"/>
     <use xlink:href="#DejaVuSans-6f" transform="translate(159.960938 0)"/>
     <use xlink:href="#DejaVuSans-6e" transform="translate(221.142578 0)"/>
     <use xlink:href="#DejaVuSans-67" transform="translate(284.521484 0)"/>
     <use xlink:href="#DejaVuSans-75" transform="translate(347.998047 0)"/>
     <use xlink:href="#DejaVuSans-6d" transform="translate(411.376953 0)"/>
    </g>
   </g>
   <g id="text_33">
    <!-- Sucrose -->
    <g transform="translate(459.410239 16.318125) scale(0.12 -0.12)">
     <defs>
      <path id="DejaVuSans-53" d="M 3425 4513 
L 3425 3897 
Q 3066 4069 2747 4153 
Q 2428 4238 2131 4238 
Q 1616 4238 1336 4038 
Q 1056 3838 1056 3469 
Q 1056 3159 1242 3001 
Q 1428 2844 1947 2747 
L 2328 2669 
Q 3034 2534 3370 2195 
Q 3706 1856 3706 1288 
Q 3706 609 3251 259 
Q 2797 -91 1919 -91 
Q 1588 -91 1214 -16 
Q 841 59 441 206 
L 441 856 
Q 825 641 1194 531 
Q 1563 422 1919 422 
Q 2459 422 2753 634 
Q 3047 847 3047 1241 
Q 3047 1584 2836 1778 
Q 2625 1972 2144 2069 
L 1759 2144 
Q 1053 2284 737 2584 
Q 422 2884 422 3419 
Q 422 4038 858 4394 
Q 1294 4750 2059 4750 
Q 2388 4750 2728 4690 
Q 3069 4631 3425 4513 
z
" transform="scale(0.015625)"/>
      <path id="DejaVuSans-72" d="M 2631 2963 
Q 2534 3019 2420 3045 
Q 2306 3072 2169 3072 
Q 1681 3072 1420 2755 
Q 1159 2438 1159 1844 
L 1159 0 
L 581 0 
L 581 3500 
L 1159 3500 
L 1159 2956 
Q 1341 3275 1631 3429 
Q 1922 3584 2338 3584 
Q 2397 3584 2469 3576 
Q 2541 3569 2628 3553 
L 2631 2963 
z
" transform="scale(0.015625)"/>
     </defs>
     <use xlink:href="#DejaVuSans-53"/>
     <use xlink:href="#DejaVuSans-75" transform="translate(63.476562 0)"/>
     <use xlink:href="#DejaVuSans-63" transform="translate(126.855469 0)"/>
     <use xlink:href="#DejaVuSans-72" transform="translate(181.835938 0)"/>
     <use xlink:href="#DejaVuSans-6f" transform="translate(220.699219 0)"/>
     <use xlink:href="#DejaVuSans-73" transform="translate(281.880859 0)"/>
     <use xlink:href="#DejaVuSans-65" transform="translate(333.980469 0)"/>
    </g>
   </g>
  </g>
 </g>
 <defs>
  <clipPath id="p303865e4dd">
   <rect x="7.2" y="22.323647" width="164.117647" height="150.543346"/>
  </clipPath>
  <clipPath id="p885d3c6e38">
   <rect x="204.141176" y="22.802526" width="164.117647" height="149.585588"/>
  </clipPath>
  <clipPath id="p318c87127d">
   <rect x="401.082353" y="22.318125" width="164.117647" height="150.554389"/>
  </clipPath>
 </defs>
</svg>
