<?xml version="1.0" encoding="utf-8" standalone="no"?>
<!DOCTYPE svg PUBLIC "-//W3C//DTD SVG 1.1//EN"
  "http://www.w3.org/Graphics/SVG/1.1/DTD/svg11.dtd">
<svg xmlns:xlink="http://www.w3.org/1999/xlink" width="351.8525pt" height="280.074531pt" viewBox="0 0 351.8525 280.074531" xmlns="http://www.w3.org/2000/svg" version="1.1">
 <metadata>
  <rdf:RDF xmlns:dc="http://purl.org/dc/elements/1.1/" xmlns:cc="http://creativecommons.org/ns#" xmlns:rdf="http://www.w3.org/1999/02/22-rdf-syntax-ns#">
   <cc:Work>
    <dc:type rdf:resource="http://purl.org/dc/dcmitype/StillImage"/>
    <dc:date>2025-08-01T10:06:19.060935</dc:date>
    <dc:format>image/svg+xml</dc:format>
    <dc:creator>
     <cc:Agent>
      <dc:title>Matplotlib v3.10.1, https://matplotlib.org/</dc:title>
     </cc:Agent>
    </dc:creator>
   </cc:Work>
  </rdf:RDF>
 </metadata>
 <defs>
  <style type="text/css">*{stroke-linejoin: round; stroke-linecap: butt}</style>
 </defs>
 <g id="figure_1">
  <g id="patch_1">
   <path d="M 0 280.074531 
L 351.8525 280.074531 
L 351.8525 0 
L 0 0 
z
" style="fill: #ffffff"/>
  </g>
  <g id="axes_1">
   <g id="patch_2">
    <path d="M 43.78125 242.518281 
L 308.07125 242.518281 
L 308.07125 21.558281 
L 43.78125 21.558281 
z
" style="fill: #ffffff"/>
   </g>
   <g id="patch_3">
    <path d="M 43.78125 242.518281 
L 186.938333 242.518281 
L 186.938333 21.558281 
L 43.78125 21.558281 
z
" clip-path="url(#pccb437a0e2)" style="fill: #808080; opacity: 0.1; stroke: #808080; stroke-linejoin: miter"/>
   </g>
   <g id="patch_4">
    <path d="M 186.938333 242.518281 
L 241.99875 242.518281 
L 241.99875 21.558281 
L 186.938333 21.558281 
z
" clip-path="url(#pccb437a0e2)" style="fill: #8b0000; opacity: 0.1; stroke: #8b0000; stroke-linejoin: miter"/>
   </g>
   <g id="FillBetweenPolyCollection_1">
    <defs>
     <path id="m595b5a3aa2" d="M 43.78125 -220.515461 
L 43.78125 -206.006947 
L 44.665163 -205.953683 
L 45.549076 -205.90042 
L 46.432989 -205.847156 
L 47.316902 -205.793893 
L 48.200815 -205.740629 
L 49.084728 -205.687366 
L 49.968641 -205.634102 
L 50.852554 -205.580839 
L 51.736467 -205.527575 
L 52.62038 -205.474312 
L 53.504293 -205.421048 
L 54.388207 -205.367784 
L 55.27212 -205.314521 
L 56.156033 -205.261257 
L 57.039946 -205.207994 
L 57.923859 -205.15473 
L 58.807772 -205.101467 
L 59.691685 -205.048203 
L 60.575598 -204.99494 
L 61.459511 -204.941676 
L 62.343424 -204.888413 
L 63.227337 -204.835149 
L 64.11125 -204.781886 
L 64.995163 -204.728622 
L 65.879076 -204.696139 
L 66.762989 -204.892234 
L 67.646902 -205.08833 
L 68.530815 -205.284426 
L 69.414728 -205.480521 
L 70.298641 -205.676617 
L 71.182554 -205.872713 
L 72.066467 -206.068808 
L 72.95038 -206.264904 
L 73.834293 -206.461 
L 74.718207 -206.657095 
L 75.60212 -206.853191 
L 76.486033 -207.049287 
L 77.369946 -207.245382 
L 78.253859 -207.441478 
L 79.137772 -207.637574 
L 80.021685 -207.833669 
L 80.905598 -208.029765 
L 81.789511 -208.22586 
L 82.673424 -208.421956 
L 83.557337 -208.618052 
L 84.44125 -208.814147 
L 85.325163 -209.010243 
L 86.209076 -209.206339 
L 87.092989 -209.402434 
L 87.976902 -209.511596 
L 88.860815 -209.186086 
L 89.744728 -208.860575 
L 90.628641 -208.535065 
L 91.512554 -208.209555 
L 92.396467 -207.884044 
L 93.28038 -207.558534 
L 94.164293 -207.233024 
L 95.048207 -206.907513 
L 95.93212 -206.582003 
L 96.816033 -206.256493 
L 97.699946 -205.930982 
L 98.583859 -205.605472 
L 99.467772 -205.279962 
L 100.351685 -204.954451 
L 101.235598 -204.628941 
L 102.119511 -204.303431 
L 103.003424 -203.977921 
L 103.887337 -203.65241 
L 104.77125 -203.3269 
L 105.655163 -203.00139 
L 106.539076 -202.675879 
L 107.422989 -202.350369 
L 108.306902 -202.024859 
L 109.190815 -201.699348 
L 110.074728 -201.443577 
L 110.958641 -201.397024 
L 111.842554 -201.35047 
L 112.726467 -201.303917 
L 113.61038 -201.257364 
L 114.494293 -201.21081 
L 115.378207 -201.164257 
L 116.26212 -201.117703 
L 117.146033 -201.07115 
L 118.029946 -201.024597 
L 118.913859 -200.978043 
L 119.797772 -200.93149 
L 120.681685 -200.884936 
L 121.565598 -200.838383 
L 122.449511 -200.791829 
L 123.333424 -200.745276 
L 124.217337 -200.698723 
L 125.10125 -200.652169 
L 125.985163 -200.605616 
L 126.869076 -200.559062 
L 127.752989 -200.512509 
L 128.636902 -200.465955 
L 129.520815 -200.419402 
L 130.404728 -200.372849 
L 131.288641 -200.326295 
L 132.172554 -200.150757 
L 133.056467 -199.71725 
L 133.94038 -199.283742 
L 134.824293 -198.850235 
L 135.708207 -198.416728 
L 136.59212 -197.98322 
L 137.476033 -197.549713 
L 138.359946 -197.116206 
L 139.243859 -196.682698 
L 140.127772 -196.249191 
L 141.011685 -195.815683 
L 141.895598 -195.382176 
L 142.779511 -194.948669 
L 143.663424 -194.515161 
L 144.547337 -194.081654 
L 145.43125 -193.648147 
L 146.315163 -193.214639 
L 147.199076 -192.781132 
L 148.082989 -192.347624 
L 148.966902 -191.914117 
L 149.850815 -191.48061 
L 150.734728 -191.047102 
L 151.618641 -190.613595 
L 152.502554 -190.180088 
L 153.386467 -189.74658 
L 154.27038 -189.156411 
L 155.154293 -188.346915 
L 156.038207 -187.537419 
L 156.92212 -186.727922 
L 157.806033 -185.918426 
L 158.689946 -185.10893 
L 159.573859 -184.299434 
L 160.457772 -183.489938 
L 161.341685 -182.680442 
L 162.225598 -181.870946 
L 163.109511 -181.06145 
L 163.993424 -180.251953 
L 164.877337 -179.442457 
L 165.76125 -178.632961 
L 166.645163 -177.823465 
L 167.529076 -177.013969 
L 168.412989 -176.204473 
L 169.296902 -175.394977 
L 170.180815 -174.585481 
L 171.064728 -173.775985 
L 171.948641 -172.966488 
L 172.832554 -172.156992 
L 173.716467 -171.347496 
L 174.60038 -170.538 
L 175.484293 -169.728504 
L 176.368207 -169.017958 
L 177.25212 -168.406362 
L 178.136033 -167.794765 
L 179.019946 -167.183169 
L 179.903859 -166.571573 
L 180.787772 -165.959977 
L 181.671685 -165.34838 
L 182.555598 -164.736784 
L 183.439511 -164.125188 
L 184.323424 -163.513592 
L 185.207337 -162.901995 
L 186.09125 -162.290399 
L 186.975163 -161.567778 
L 187.859076 -158.291577 
L 188.742989 -155.015377 
L 189.626902 -151.739176 
L 190.510815 -148.462975 
L 191.394728 -145.186775 
L 192.278641 -141.910574 
L 193.162554 -138.634374 
L 194.046467 -135.358173 
L 194.93038 -132.081973 
L 195.814293 -128.805772 
L 196.698207 -125.529572 
L 197.58212 -122.253371 
L 198.466033 -120.017386 
L 199.349946 -118.524411 
L 200.233859 -117.031437 
L 201.117772 -115.538462 
L 202.001685 -114.045488 
L 202.885598 -112.552513 
L 203.769511 -111.059539 
L 204.653424 -109.566564 
L 205.537337 -108.07359 
L 206.42125 -106.580615 
L 207.305163 -105.087641 
L 208.189076 -103.594666 
L 209.072989 -102.078444 
L 209.956902 -100.399485 
L 210.840815 -98.720527 
L 211.724728 -97.041569 
L 212.608641 -95.36261 
L 213.492554 -93.683652 
L 214.376467 -92.004693 
L 215.26038 -90.325735 
L 216.144293 -88.646777 
L 217.028207 -86.967818 
L 217.91212 -85.28886 
L 218.796033 -83.609901 
L 219.679946 -81.930943 
L 220.563859 -80.251985 
L 221.447772 -78.573026 
L 222.331685 -76.894068 
L 223.215598 -75.215109 
L 224.099511 -73.536151 
L 224.983424 -71.857192 
L 225.867337 -70.178234 
L 226.75125 -68.499276 
L 227.635163 -66.820317 
L 228.519076 -65.141359 
L 229.402989 -63.4624 
L 230.286902 -61.783442 
L 231.170815 -60.071357 
L 232.054728 -58.233389 
L 232.938641 -56.395421 
L 233.822554 -54.557453 
L 234.706467 -52.719485 
L 235.59038 -50.881517 
L 236.474293 -49.043549 
L 237.358207 -47.205581 
L 238.24212 -45.367614 
L 239.126033 -43.529646 
L 240.009946 -41.691678 
L 240.893859 -39.85371 
L 241.777772 -38.015742 
L 242.661685 -37.55625 
L 243.545598 -37.55625 
L 244.429511 -37.55625 
L 245.313424 -37.55625 
L 246.197337 -37.55625 
L 247.08125 -37.55625 
L 247.965163 -37.55625 
L 248.849076 -37.55625 
L 249.732989 -37.55625 
L 250.616902 -37.55625 
L 251.500815 -37.55625 
L 252.384728 -37.55625 
L 253.268641 -37.55625 
L 254.152554 -37.55625 
L 255.036467 -37.55625 
L 255.92038 -37.55625 
L 256.804293 -37.55625 
L 257.688207 -37.55625 
L 258.57212 -37.55625 
L 259.456033 -37.55625 
L 260.339946 -37.55625 
L 261.223859 -37.55625 
L 262.107772 -37.55625 
L 262.991685 -37.55625 
L 263.875598 -37.55625 
L 264.759511 -37.55625 
L 265.643424 -37.55625 
L 266.527337 -37.55625 
L 267.41125 -37.55625 
L 268.295163 -37.55625 
L 269.179076 -37.55625 
L 270.062989 -37.55625 
L 270.946902 -37.55625 
L 271.830815 -37.55625 
L 272.714728 -37.55625 
L 273.598641 -37.55625 
L 274.482554 -37.55625 
L 275.366467 -37.55625 
L 276.25038 -37.55625 
L 277.134293 -37.55625 
L 278.018207 -37.55625 
L 278.90212 -37.55625 
L 279.786033 -37.55625 
L 280.669946 -37.55625 
L 281.553859 -37.55625 
L 282.437772 -37.55625 
L 283.321685 -37.55625 
L 284.205598 -37.55625 
L 285.089511 -37.55625 
L 285.973424 -37.55625 
L 286.857337 -37.55625 
L 287.74125 -37.55625 
L 288.625163 -37.55625 
L 289.509076 -37.55625 
L 290.392989 -37.55625 
L 291.276902 -37.55625 
L 292.160815 -37.55625 
L 293.044728 -37.55625 
L 293.928641 -37.55625 
L 294.812554 -37.55625 
L 295.696467 -37.55625 
L 296.58038 -37.55625 
L 297.464293 -37.55625 
L 298.348207 -37.55625 
L 299.23212 -37.55625 
L 300.116033 -37.55625 
L 300.999946 -37.55625 
L 301.883859 -37.55625 
L 302.767772 -37.55625 
L 303.651685 -37.55625 
L 304.535598 -37.55625 
L 305.419511 -37.55625 
L 306.303424 -37.55625 
L 307.187337 -37.55625 
L 308.07125 -37.55625 
L 308.07125 -37.55625 
L 308.07125 -37.55625 
L 307.187337 -37.55625 
L 306.303424 -37.55625 
L 305.419511 -37.55625 
L 304.535598 -37.55625 
L 303.651685 -37.55625 
L 302.767772 -37.55625 
L 301.883859 -37.55625 
L 300.999946 -37.55625 
L 300.116033 -37.55625 
L 299.23212 -37.55625 
L 298.348207 -37.55625 
L 297.464293 -37.55625 
L 296.58038 -37.55625 
L 295.696467 -37.55625 
L 294.812554 -37.55625 
L 293.928641 -37.55625 
L 293.044728 -37.55625 
L 292.160815 -37.55625 
L 291.276902 -37.55625 
L 290.392989 -37.55625 
L 289.509076 -37.55625 
L 288.625163 -37.55625 
L 287.74125 -37.55625 
L 286.857337 -37.55625 
L 285.973424 -37.55625 
L 285.089511 -37.55625 
L 284.205598 -37.55625 
L 283.321685 -37.55625 
L 282.437772 -37.55625 
L 281.553859 -37.55625 
L 280.669946 -37.55625 
L 279.786033 -37.55625 
L 278.90212 -37.55625 
L 278.018207 -37.55625 
L 277.134293 -37.55625 
L 276.25038 -37.55625 
L 275.366467 -37.55625 
L 274.482554 -37.55625 
L 273.598641 -37.55625 
L 272.714728 -37.55625 
L 271.830815 -37.55625 
L 270.946902 -37.55625 
L 270.062989 -37.55625 
L 269.179076 -37.55625 
L 268.295163 -37.55625 
L 267.41125 -37.55625 
L 266.527337 -37.55625 
L 265.643424 -37.55625 
L 264.759511 -37.55625 
L 263.875598 -37.55625 
L 262.991685 -37.55625 
L 262.107772 -37.55625 
L 261.223859 -37.55625 
L 260.339946 -37.55625 
L 259.456033 -37.55625 
L 258.57212 -37.55625 
L 257.688207 -37.55625 
L 256.804293 -37.55625 
L 255.92038 -37.55625 
L 255.036467 -37.55625 
L 254.152554 -37.55625 
L 253.268641 -37.55625 
L 252.384728 -37.55625 
L 251.500815 -37.55625 
L 250.616902 -37.55625 
L 249.732989 -37.55625 
L 248.849076 -37.55625 
L 247.965163 -37.55625 
L 247.08125 -37.55625 
L 246.197337 -37.55625 
L 245.313424 -37.55625 
L 244.429511 -37.55625 
L 243.545598 -37.55625 
L 242.661685 -37.55625 
L 241.777772 -38.048569 
L 240.893859 -40.017843 
L 240.009946 -41.987117 
L 239.126033 -43.956391 
L 238.24212 -45.925665 
L 237.358207 -47.894939 
L 236.474293 -49.864213 
L 235.59038 -51.833487 
L 234.706467 -53.802762 
L 233.822554 -55.772036 
L 232.938641 -57.74131 
L 232.054728 -59.710584 
L 231.170815 -61.679858 
L 230.286902 -63.581212 
L 229.402989 -65.464692 
L 228.519076 -67.348172 
L 227.635163 -69.231651 
L 226.75125 -71.115131 
L 225.867337 -72.998611 
L 224.983424 -74.882091 
L 224.099511 -76.765571 
L 223.215598 -78.649051 
L 222.331685 -80.532531 
L 221.447772 -82.416011 
L 220.563859 -84.29949 
L 219.679946 -86.18297 
L 218.796033 -88.06645 
L 217.91212 -89.94993 
L 217.028207 -91.83341 
L 216.144293 -93.71689 
L 215.26038 -95.60037 
L 214.376467 -97.483849 
L 213.492554 -99.367329 
L 212.608641 -101.250809 
L 211.724728 -103.134289 
L 210.840815 -105.017769 
L 209.956902 -106.901249 
L 209.072989 -108.784729 
L 208.189076 -110.177952 
L 207.305163 -111.501139 
L 206.42125 -112.824325 
L 205.537337 -114.147512 
L 204.653424 -115.470699 
L 203.769511 -116.793886 
L 202.885598 -118.117072 
L 202.001685 -119.440259 
L 201.117772 -120.763446 
L 200.233859 -122.086632 
L 199.349946 -123.409819 
L 198.466033 -124.733006 
L 197.58212 -127.092941 
L 196.698207 -130.904325 
L 195.814293 -134.715708 
L 194.93038 -138.527091 
L 194.046467 -142.338475 
L 193.162554 -146.149858 
L 192.278641 -149.961241 
L 191.394728 -153.772625 
L 190.510815 -157.584008 
L 189.626902 -161.395391 
L 188.742989 -165.206775 
L 187.859076 -169.018158 
L 186.975163 -172.829542 
L 186.09125 -173.509598 
L 185.207337 -174.053509 
L 184.323424 -174.59742 
L 183.439511 -175.141331 
L 182.555598 -175.685243 
L 181.671685 -176.229154 
L 180.787772 -176.773065 
L 179.903859 -177.316977 
L 179.019946 -177.860888 
L 178.136033 -178.404799 
L 177.25212 -178.948711 
L 176.368207 -179.492622 
L 175.484293 -180.109779 
L 174.60038 -180.800183 
L 173.716467 -181.490586 
L 172.832554 -182.18099 
L 171.948641 -182.871393 
L 171.064728 -183.561797 
L 170.180815 -184.252201 
L 169.296902 -184.942604 
L 168.412989 -185.633008 
L 167.529076 -186.323411 
L 166.645163 -187.013815 
L 165.76125 -187.704218 
L 164.877337 -188.394622 
L 163.993424 -189.085025 
L 163.109511 -189.775429 
L 162.225598 -190.465833 
L 161.341685 -191.156236 
L 160.457772 -191.84664 
L 159.573859 -192.537043 
L 158.689946 -193.227447 
L 157.806033 -193.91785 
L 156.92212 -194.608254 
L 156.038207 -195.298657 
L 155.154293 -195.989061 
L 154.27038 -196.679464 
L 153.386467 -197.155432 
L 152.502554 -197.478231 
L 151.618641 -197.80103 
L 150.734728 -198.12383 
L 149.850815 -198.446629 
L 148.966902 -198.769428 
L 148.082989 -199.092227 
L 147.199076 -199.415026 
L 146.315163 -199.737825 
L 145.43125 -200.060625 
L 144.547337 -200.383424 
L 143.663424 -200.706223 
L 142.779511 -201.029022 
L 141.895598 -201.351821 
L 141.011685 -201.67462 
L 140.127772 -201.99742 
L 139.243859 -202.320219 
L 138.359946 -202.643018 
L 137.476033 -202.965817 
L 136.59212 -203.288616 
L 135.708207 -203.611415 
L 134.824293 -203.934215 
L 133.94038 -204.257014 
L 133.056467 -204.579813 
L 132.172554 -204.902612 
L 131.288641 -205.186734 
L 130.404728 -205.451518 
L 129.520815 -205.716302 
L 128.636902 -205.981086 
L 127.752989 -206.24587 
L 126.869076 -206.510653 
L 125.985163 -206.775437 
L 125.10125 -207.040221 
L 124.217337 -207.305005 
L 123.333424 -207.569789 
L 122.449511 -207.834572 
L 121.565598 -208.099356 
L 120.681685 -208.36414 
L 119.797772 -208.628924 
L 118.913859 -208.893708 
L 118.029946 -209.158492 
L 117.146033 -209.423275 
L 116.26212 -209.688059 
L 115.378207 -209.952843 
L 114.494293 -210.217627 
L 113.61038 -210.482411 
L 112.726467 -210.747194 
L 111.842554 -211.011978 
L 110.958641 -211.276762 
L 110.074728 -211.541546 
L 109.190815 -211.75497 
L 108.306902 -211.951275 
L 107.422989 -212.147579 
L 106.539076 -212.343884 
L 105.655163 -212.540188 
L 104.77125 -212.736493 
L 103.887337 -212.932797 
L 103.003424 -213.129102 
L 102.119511 -213.325406 
L 101.235598 -213.521711 
L 100.351685 -213.718015 
L 99.467772 -213.914319 
L 98.583859 -214.110624 
L 97.699946 -214.306928 
L 96.816033 -214.503233 
L 95.93212 -214.699537 
L 95.048207 -214.895842 
L 94.164293 -215.092146 
L 93.28038 -215.288451 
L 92.396467 -215.484755 
L 91.512554 -215.68106 
L 90.628641 -215.877364 
L 89.744728 -216.073669 
L 88.860815 -216.269973 
L 87.976902 -216.466278 
L 87.092989 -216.3401 
L 86.209076 -216.149425 
L 85.325163 -215.958751 
L 84.44125 -215.768076 
L 83.557337 -215.577402 
L 82.673424 -215.386727 
L 81.789511 -215.196053 
L 80.905598 -215.005378 
L 80.021685 -214.814704 
L 79.137772 -214.624029 
L 78.253859 -214.433355 
L 77.369946 -214.24268 
L 76.486033 -214.052006 
L 75.60212 -213.861332 
L 74.718207 -213.670657 
L 73.834293 -213.479983 
L 72.95038 -213.289308 
L 72.066467 -213.098634 
L 71.182554 -212.907959 
L 70.298641 -212.717285 
L 69.414728 -212.52661 
L 68.530815 -212.335936 
L 67.646902 -212.145261 
L 66.762989 -211.954587 
L 65.879076 -211.763912 
L 64.995163 -212.070571 
L 64.11125 -212.422441 
L 63.227337 -212.774312 
L 62.343424 -213.126182 
L 61.459511 -213.478052 
L 60.575598 -213.829923 
L 59.691685 -214.181793 
L 58.807772 -214.533664 
L 57.923859 -214.885534 
L 57.039946 -215.237405 
L 56.156033 -215.589275 
L 55.27212 -215.941145 
L 54.388207 -216.293016 
L 53.504293 -216.644886 
L 52.62038 -216.996757 
L 51.736467 -217.348627 
L 50.852554 -217.700498 
L 49.968641 -218.052368 
L 49.084728 -218.404238 
L 48.200815 -218.756109 
L 47.316902 -219.107979 
L 46.432989 -219.45985 
L 45.549076 -219.81172 
L 44.665163 -220.16359 
L 43.78125 -220.515461 
z
" style="stroke: #d92847; stroke-opacity: 0.3"/>
    </defs>
    <g clip-path="url(#pccb437a0e2)">
     <use xlink:href="#m595b5a3aa2" x="0" y="280.074531" style="fill: #d92847; fill-opacity: 0.3; stroke: #d92847; stroke-opacity: 0.3"/>
    </g>
   </g>
   <g id="matplotlib.axis_1">
    <g id="xtick_1">
     <g id="line2d_1">
      <defs>
       <path id="mf129079dbd" d="M 0 0 
L 0 3.5 
" style="stroke: #000000; stroke-width: 0.8"/>
      </defs>
      <g>
       <use xlink:href="#mf129079dbd" x="43.78125" y="242.518281" style="stroke: #000000; stroke-width: 0.8"/>
      </g>
     </g>
     <g id="text_1">
      <!-- 0 -->
      <g transform="translate(40.6 257.116719) scale(0.1 -0.1)">
       <defs>
        <path id="DejaVuSans-30" d="M 2034 4250 
Q 1547 4250 1301 3770 
Q 1056 3291 1056 2328 
Q 1056 1369 1301 889 
Q 1547 409 2034 409 
Q 2525 409 2770 889 
Q 3016 1369 3016 2328 
Q 3016 3291 2770 3770 
Q 2525 4250 2034 4250 
z
M 2034 4750 
Q 2819 4750 3233 4129 
Q 3647 3509 3647 2328 
Q 3647 1150 3233 529 
Q 2819 -91 2034 -91 
Q 1250 -91 836 529 
Q 422 1150 422 2328 
Q 422 3509 836 4129 
Q 1250 4750 2034 4750 
z
" transform="scale(0.015625)"/>
       </defs>
       <use xlink:href="#DejaVuSans-30"/>
      </g>
     </g>
    </g>
    <g id="xtick_2">
     <g id="line2d_2">
      <g>
       <use xlink:href="#mf129079dbd" x="87.829583" y="242.518281" style="stroke: #000000; stroke-width: 0.8"/>
      </g>
     </g>
     <g id="text_2">
      <!-- 2 -->
      <g transform="translate(84.648333 257.116719) scale(0.1 -0.1)">
       <defs>
        <path id="DejaVuSans-32" d="M 1228 531 
L 3431 531 
L 3431 0 
L 469 0 
L 469 531 
Q 828 903 1448 1529 
Q 2069 2156 2228 2338 
Q 2531 2678 2651 2914 
Q 2772 3150 2772 3378 
Q 2772 3750 2511 3984 
Q 2250 4219 1831 4219 
Q 1534 4219 1204 4116 
Q 875 4013 500 3803 
L 500 4441 
Q 881 4594 1212 4672 
Q 1544 4750 1819 4750 
Q 2544 4750 2975 4387 
Q 3406 4025 3406 3419 
Q 3406 3131 3298 2873 
Q 3191 2616 2906 2266 
Q 2828 2175 2409 1742 
Q 1991 1309 1228 531 
z
" transform="scale(0.015625)"/>
       </defs>
       <use xlink:href="#DejaVuSans-32"/>
      </g>
     </g>
    </g>
    <g id="xtick_3">
     <g id="line2d_3">
      <g>
       <use xlink:href="#mf129079dbd" x="131.877917" y="242.518281" style="stroke: #000000; stroke-width: 0.8"/>
      </g>
     </g>
     <g id="text_3">
      <!-- 4 -->
      <g transform="translate(128.696667 257.116719) scale(0.1 -0.1)">
       <defs>
        <path id="DejaVuSans-34" d="M 2419 4116 
L 825 1625 
L 2419 1625 
L 2419 4116 
z
M 2253 4666 
L 3047 4666 
L 3047 1625 
L 3713 1625 
L 3713 1100 
L 3047 1100 
L 3047 0 
L 2419 0 
L 2419 1100 
L 313 1100 
L 313 1709 
L 2253 4666 
z
" transform="scale(0.015625)"/>
       </defs>
       <use xlink:href="#DejaVuSans-34"/>
      </g>
     </g>
    </g>
    <g id="xtick_4">
     <g id="line2d_4">
      <g>
       <use xlink:href="#mf129079dbd" x="175.92625" y="242.518281" style="stroke: #000000; stroke-width: 0.8"/>
      </g>
     </g>
     <g id="text_4">
      <!-- 6 -->
      <g transform="translate(172.745 257.116719) scale(0.1 -0.1)">
       <defs>
        <path id="DejaVuSans-36" d="M 2113 2584 
Q 1688 2584 1439 2293 
Q 1191 2003 1191 1497 
Q 1191 994 1439 701 
Q 1688 409 2113 409 
Q 2538 409 2786 701 
Q 3034 994 3034 1497 
Q 3034 2003 2786 2293 
Q 2538 2584 2113 2584 
z
M 3366 4563 
L 3366 3988 
Q 3128 4100 2886 4159 
Q 2644 4219 2406 4219 
Q 1781 4219 1451 3797 
Q 1122 3375 1075 2522 
Q 1259 2794 1537 2939 
Q 1816 3084 2150 3084 
Q 2853 3084 3261 2657 
Q 3669 2231 3669 1497 
Q 3669 778 3244 343 
Q 2819 -91 2113 -91 
Q 1303 -91 875 529 
Q 447 1150 447 2328 
Q 447 3434 972 4092 
Q 1497 4750 2381 4750 
Q 2619 4750 2861 4703 
Q 3103 4656 3366 4563 
z
" transform="scale(0.015625)"/>
       </defs>
       <use xlink:href="#DejaVuSans-36"/>
      </g>
     </g>
    </g>
    <g id="xtick_5">
     <g id="line2d_5">
      <g>
       <use xlink:href="#mf129079dbd" x="219.974583" y="242.518281" style="stroke: #000000; stroke-width: 0.8"/>
      </g>
     </g>
     <g id="text_5">
      <!-- 8 -->
      <g transform="translate(216.793333 257.116719) scale(0.1 -0.1)">
       <defs>
        <path id="DejaVuSans-38" d="M 2034 2216 
Q 1584 2216 1326 1975 
Q 1069 1734 1069 1313 
Q 1069 891 1326 650 
Q 1584 409 2034 409 
Q 2484 409 2743 651 
Q 3003 894 3003 1313 
Q 3003 1734 2745 1975 
Q 2488 2216 2034 2216 
z
M 1403 2484 
Q 997 2584 770 2862 
Q 544 3141 544 3541 
Q 544 4100 942 4425 
Q 1341 4750 2034 4750 
Q 2731 4750 3128 4425 
Q 3525 4100 3525 3541 
Q 3525 3141 3298 2862 
Q 3072 2584 2669 2484 
Q 3125 2378 3379 2068 
Q 3634 1759 3634 1313 
Q 3634 634 3220 271 
Q 2806 -91 2034 -91 
Q 1263 -91 848 271 
Q 434 634 434 1313 
Q 434 1759 690 2068 
Q 947 2378 1403 2484 
z
M 1172 3481 
Q 1172 3119 1398 2916 
Q 1625 2713 2034 2713 
Q 2441 2713 2670 2916 
Q 2900 3119 2900 3481 
Q 2900 3844 2670 4047 
Q 2441 4250 2034 4250 
Q 1625 4250 1398 4047 
Q 1172 3844 1172 3481 
z
" transform="scale(0.015625)"/>
       </defs>
       <use xlink:href="#DejaVuSans-38"/>
      </g>
     </g>
    </g>
    <g id="xtick_6">
     <g id="line2d_6">
      <g>
       <use xlink:href="#mf129079dbd" x="264.022917" y="242.518281" style="stroke: #000000; stroke-width: 0.8"/>
      </g>
     </g>
     <g id="text_6">
      <!-- 10 -->
      <g transform="translate(257.660417 257.116719) scale(0.1 -0.1)">
       <defs>
        <path id="DejaVuSans-31" d="M 794 531 
L 1825 531 
L 1825 4091 
L 703 3866 
L 703 4441 
L 1819 4666 
L 2450 4666 
L 2450 531 
L 3481 531 
L 3481 0 
L 794 0 
L 794 531 
z
" transform="scale(0.015625)"/>
       </defs>
       <use xlink:href="#DejaVuSans-31"/>
       <use xlink:href="#DejaVuSans-30" transform="translate(63.623047 0)"/>
      </g>
     </g>
    </g>
    <g id="xtick_7">
     <g id="line2d_7">
      <g>
       <use xlink:href="#mf129079dbd" x="308.07125" y="242.518281" style="stroke: #000000; stroke-width: 0.8"/>
      </g>
     </g>
     <g id="text_7">
      <!-- 12 -->
      <g transform="translate(301.70875 257.116719) scale(0.1 -0.1)">
       <use xlink:href="#DejaVuSans-31"/>
       <use xlink:href="#DejaVuSans-32" transform="translate(63.623047 0)"/>
      </g>
     </g>
    </g>
    <g id="text_8">
     <!-- Time [h] -->
     <g transform="translate(155.033281 270.794844) scale(0.1 -0.1)">
      <defs>
       <path id="DejaVuSans-54" d="M -19 4666 
L 3928 4666 
L 3928 4134 
L 2272 4134 
L 2272 0 
L 1638 0 
L 1638 4134 
L -19 4134 
L -19 4666 
z
" transform="scale(0.015625)"/>
       <path id="DejaVuSans-69" d="M 603 3500 
L 1178 3500 
L 1178 0 
L 603 0 
L 603 3500 
z
M 603 4863 
L 1178 4863 
L 1178 4134 
L 603 4134 
L 603 4863 
z
" transform="scale(0.015625)"/>
       <path id="DejaVuSans-6d" d="M 3328 2828 
Q 3544 3216 3844 3400 
Q 4144 3584 4550 3584 
Q 5097 3584 5394 3201 
Q 5691 2819 5691 2113 
L 5691 0 
L 5113 0 
L 5113 2094 
Q 5113 2597 4934 2840 
Q 4756 3084 4391 3084 
Q 3944 3084 3684 2787 
Q 3425 2491 3425 1978 
L 3425 0 
L 2847 0 
L 2847 2094 
Q 2847 2600 2669 2842 
Q 2491 3084 2119 3084 
Q 1678 3084 1418 2786 
Q 1159 2488 1159 1978 
L 1159 0 
L 581 0 
L 581 3500 
L 1159 3500 
L 1159 2956 
Q 1356 3278 1631 3431 
Q 1906 3584 2284 3584 
Q 2666 3584 2933 3390 
Q 3200 3197 3328 2828 
z
" transform="scale(0.015625)"/>
       <path id="DejaVuSans-65" d="M 3597 1894 
L 3597 1613 
L 953 1613 
Q 991 1019 1311 708 
Q 1631 397 2203 397 
Q 2534 397 2845 478 
Q 3156 559 3463 722 
L 3463 178 
Q 3153 47 2828 -22 
Q 2503 -91 2169 -91 
Q 1331 -91 842 396 
Q 353 884 353 1716 
Q 353 2575 817 3079 
Q 1281 3584 2069 3584 
Q 2775 3584 3186 3129 
Q 3597 2675 3597 1894 
z
M 3022 2063 
Q 3016 2534 2758 2815 
Q 2500 3097 2075 3097 
Q 1594 3097 1305 2825 
Q 1016 2553 972 2059 
L 3022 2063 
z
" transform="scale(0.015625)"/>
       <path id="DejaVuSans-20" transform="scale(0.015625)"/>
       <path id="DejaVuSans-5b" d="M 550 4863 
L 1875 4863 
L 1875 4416 
L 1125 4416 
L 1125 -397 
L 1875 -397 
L 1875 -844 
L 550 -844 
L 550 4863 
z
" transform="scale(0.015625)"/>
       <path id="DejaVuSans-68" d="M 3513 2113 
L 3513 0 
L 2938 0 
L 2938 2094 
Q 2938 2591 2744 2837 
Q 2550 3084 2163 3084 
Q 1697 3084 1428 2787 
Q 1159 2491 1159 1978 
L 1159 0 
L 581 0 
L 581 4863 
L 1159 4863 
L 1159 2956 
Q 1366 3272 1645 3428 
Q 1925 3584 2291 3584 
Q 2894 3584 3203 3211 
Q 3513 2838 3513 2113 
z
" transform="scale(0.015625)"/>
       <path id="DejaVuSans-5d" d="M 1947 4863 
L 1947 -844 
L 622 -844 
L 622 -397 
L 1369 -397 
L 1369 4416 
L 622 4416 
L 622 4863 
L 1947 4863 
z
" transform="scale(0.015625)"/>
      </defs>
      <use xlink:href="#DejaVuSans-54"/>
      <use xlink:href="#DejaVuSans-69" transform="translate(57.958984 0)"/>
      <use xlink:href="#DejaVuSans-6d" transform="translate(85.742188 0)"/>
      <use xlink:href="#DejaVuSans-65" transform="translate(183.154297 0)"/>
      <use xlink:href="#DejaVuSans-20" transform="translate(244.677734 0)"/>
      <use xlink:href="#DejaVuSans-5b" transform="translate(276.464844 0)"/>
      <use xlink:href="#DejaVuSans-68" transform="translate(315.478516 0)"/>
      <use xlink:href="#DejaVuSans-5d" transform="translate(378.857422 0)"/>
     </g>
    </g>
   </g>
   <g id="matplotlib.axis_2">
    <g id="ytick_1">
     <g id="line2d_8">
      <defs>
       <path id="mb2d1368c71" d="M 0 0 
L -3.5 0 
" style="stroke: #000000; stroke-width: 0.8"/>
      </defs>
      <g>
       <use xlink:href="#mb2d1368c71" x="43.78125" y="242.518281" style="stroke: #000000; stroke-width: 0.8"/>
      </g>
     </g>
     <g id="text_9">
      <!-- 0.0 -->
      <g transform="translate(20.878125 246.3175) scale(0.1 -0.1)">
       <defs>
        <path id="DejaVuSans-2e" d="M 684 794 
L 1344 794 
L 1344 0 
L 684 0 
L 684 794 
z
" transform="scale(0.015625)"/>
       </defs>
       <use xlink:href="#DejaVuSans-30"/>
       <use xlink:href="#DejaVuSans-2e" transform="translate(63.623047 0)"/>
       <use xlink:href="#DejaVuSans-30" transform="translate(95.410156 0)"/>
      </g>
     </g>
    </g>
    <g id="ytick_2">
     <g id="line2d_9">
      <g>
       <use xlink:href="#mb2d1368c71" x="43.78125" y="198.326281" style="stroke: #000000; stroke-width: 0.8"/>
      </g>
     </g>
     <g id="text_10">
      <!-- 0.5 -->
      <g transform="translate(20.878125 202.1255) scale(0.1 -0.1)">
       <defs>
        <path id="DejaVuSans-35" d="M 691 4666 
L 3169 4666 
L 3169 4134 
L 1269 4134 
L 1269 2991 
Q 1406 3038 1543 3061 
Q 1681 3084 1819 3084 
Q 2600 3084 3056 2656 
Q 3513 2228 3513 1497 
Q 3513 744 3044 326 
Q 2575 -91 1722 -91 
Q 1428 -91 1123 -41 
Q 819 9 494 109 
L 494 744 
Q 775 591 1075 516 
Q 1375 441 1709 441 
Q 2250 441 2565 725 
Q 2881 1009 2881 1497 
Q 2881 1984 2565 2268 
Q 2250 2553 1709 2553 
Q 1456 2553 1204 2497 
Q 953 2441 691 2322 
L 691 4666 
z
" transform="scale(0.015625)"/>
       </defs>
       <use xlink:href="#DejaVuSans-30"/>
       <use xlink:href="#DejaVuSans-2e" transform="translate(63.623047 0)"/>
       <use xlink:href="#DejaVuSans-35" transform="translate(95.410156 0)"/>
      </g>
     </g>
    </g>
    <g id="ytick_3">
     <g id="line2d_10">
      <g>
       <use xlink:href="#mb2d1368c71" x="43.78125" y="154.134281" style="stroke: #000000; stroke-width: 0.8"/>
      </g>
     </g>
     <g id="text_11">
      <!-- 1.0 -->
      <g transform="translate(20.878125 157.9335) scale(0.1 -0.1)">
       <use xlink:href="#DejaVuSans-31"/>
       <use xlink:href="#DejaVuSans-2e" transform="translate(63.623047 0)"/>
       <use xlink:href="#DejaVuSans-30" transform="translate(95.410156 0)"/>
      </g>
     </g>
    </g>
    <g id="ytick_4">
     <g id="line2d_11">
      <g>
       <use xlink:href="#mb2d1368c71" x="43.78125" y="109.942281" style="stroke: #000000; stroke-width: 0.8"/>
      </g>
     </g>
     <g id="text_12">
      <!-- 1.5 -->
      <g transform="translate(20.878125 113.7415) scale(0.1 -0.1)">
       <use xlink:href="#DejaVuSans-31"/>
       <use xlink:href="#DejaVuSans-2e" transform="translate(63.623047 0)"/>
       <use xlink:href="#DejaVuSans-35" transform="translate(95.410156 0)"/>
      </g>
     </g>
    </g>
    <g id="ytick_5">
     <g id="line2d_12">
      <g>
       <use xlink:href="#mb2d1368c71" x="43.78125" y="65.750281" style="stroke: #000000; stroke-width: 0.8"/>
      </g>
     </g>
     <g id="text_13">
      <!-- 2.0 -->
      <g transform="translate(20.878125 69.5495) scale(0.1 -0.1)">
       <use xlink:href="#DejaVuSans-32"/>
       <use xlink:href="#DejaVuSans-2e" transform="translate(63.623047 0)"/>
       <use xlink:href="#DejaVuSans-30" transform="translate(95.410156 0)"/>
      </g>
     </g>
    </g>
    <g id="ytick_6">
     <g id="line2d_13">
      <g>
       <use xlink:href="#mb2d1368c71" x="43.78125" y="21.558281" style="stroke: #000000; stroke-width: 0.8"/>
      </g>
     </g>
     <g id="text_14">
      <!-- 2.5 -->
      <g transform="translate(20.878125 25.3575) scale(0.1 -0.1)">
       <use xlink:href="#DejaVuSans-32"/>
       <use xlink:href="#DejaVuSans-2e" transform="translate(63.623047 0)"/>
       <use xlink:href="#DejaVuSans-35" transform="translate(95.410156 0)"/>
      </g>
     </g>
    </g>
    <g id="text_15">
     <!-- Glucose [g/L] -->
     <g transform="translate(14.798438 165.095313) rotate(-90) scale(0.1 -0.1)">
      <defs>
       <path id="DejaVuSans-47" d="M 3809 666 
L 3809 1919 
L 2778 1919 
L 2778 2438 
L 4434 2438 
L 4434 434 
Q 4069 175 3628 42 
Q 3188 -91 2688 -91 
Q 1594 -91 976 548 
Q 359 1188 359 2328 
Q 359 3472 976 4111 
Q 1594 4750 2688 4750 
Q 3144 4750 3555 4637 
Q 3966 4525 4313 4306 
L 4313 3634 
Q 3963 3931 3569 4081 
Q 3175 4231 2741 4231 
Q 1884 4231 1454 3753 
Q 1025 3275 1025 2328 
Q 1025 1384 1454 906 
Q 1884 428 2741 428 
Q 3075 428 3337 486 
Q 3600 544 3809 666 
z
" transform="scale(0.015625)"/>
       <path id="DejaVuSans-6c" d="M 603 4863 
L 1178 4863 
L 1178 0 
L 603 0 
L 603 4863 
z
" transform="scale(0.015625)"/>
       <path id="DejaVuSans-75" d="M 544 1381 
L 544 3500 
L 1119 3500 
L 1119 1403 
Q 1119 906 1312 657 
Q 1506 409 1894 409 
Q 2359 409 2629 706 
Q 2900 1003 2900 1516 
L 2900 3500 
L 3475 3500 
L 3475 0 
L 2900 0 
L 2900 538 
Q 2691 219 2414 64 
Q 2138 -91 1772 -91 
Q 1169 -91 856 284 
Q 544 659 544 1381 
z
M 1991 3584 
L 1991 3584 
z
" transform="scale(0.015625)"/>
       <path id="DejaVuSans-63" d="M 3122 3366 
L 3122 2828 
Q 2878 2963 2633 3030 
Q 2388 3097 2138 3097 
Q 1578 3097 1268 2742 
Q 959 2388 959 1747 
Q 959 1106 1268 751 
Q 1578 397 2138 397 
Q 2388 397 2633 464 
Q 2878 531 3122 666 
L 3122 134 
Q 2881 22 2623 -34 
Q 2366 -91 2075 -91 
Q 1284 -91 818 406 
Q 353 903 353 1747 
Q 353 2603 823 3093 
Q 1294 3584 2113 3584 
Q 2378 3584 2631 3529 
Q 2884 3475 3122 3366 
z
" transform="scale(0.015625)"/>
       <path id="DejaVuSans-6f" d="M 1959 3097 
Q 1497 3097 1228 2736 
Q 959 2375 959 1747 
Q 959 1119 1226 758 
Q 1494 397 1959 397 
Q 2419 397 2687 759 
Q 2956 1122 2956 1747 
Q 2956 2369 2687 2733 
Q 2419 3097 1959 3097 
z
M 1959 3584 
Q 2709 3584 3137 3096 
Q 3566 2609 3566 1747 
Q 3566 888 3137 398 
Q 2709 -91 1959 -91 
Q 1206 -91 779 398 
Q 353 888 353 1747 
Q 353 2609 779 3096 
Q 1206 3584 1959 3584 
z
" transform="scale(0.015625)"/>
       <path id="DejaVuSans-73" d="M 2834 3397 
L 2834 2853 
Q 2591 2978 2328 3040 
Q 2066 3103 1784 3103 
Q 1356 3103 1142 2972 
Q 928 2841 928 2578 
Q 928 2378 1081 2264 
Q 1234 2150 1697 2047 
L 1894 2003 
Q 2506 1872 2764 1633 
Q 3022 1394 3022 966 
Q 3022 478 2636 193 
Q 2250 -91 1575 -91 
Q 1294 -91 989 -36 
Q 684 19 347 128 
L 347 722 
Q 666 556 975 473 
Q 1284 391 1588 391 
Q 1994 391 2212 530 
Q 2431 669 2431 922 
Q 2431 1156 2273 1281 
Q 2116 1406 1581 1522 
L 1381 1569 
Q 847 1681 609 1914 
Q 372 2147 372 2553 
Q 372 3047 722 3315 
Q 1072 3584 1716 3584 
Q 2034 3584 2315 3537 
Q 2597 3491 2834 3397 
z
" transform="scale(0.015625)"/>
       <path id="DejaVuSans-67" d="M 2906 1791 
Q 2906 2416 2648 2759 
Q 2391 3103 1925 3103 
Q 1463 3103 1205 2759 
Q 947 2416 947 1791 
Q 947 1169 1205 825 
Q 1463 481 1925 481 
Q 2391 481 2648 825 
Q 2906 1169 2906 1791 
z
M 3481 434 
Q 3481 -459 3084 -895 
Q 2688 -1331 1869 -1331 
Q 1566 -1331 1297 -1286 
Q 1028 -1241 775 -1147 
L 775 -588 
Q 1028 -725 1275 -790 
Q 1522 -856 1778 -856 
Q 2344 -856 2625 -561 
Q 2906 -266 2906 331 
L 2906 616 
Q 2728 306 2450 153 
Q 2172 0 1784 0 
Q 1141 0 747 490 
Q 353 981 353 1791 
Q 353 2603 747 3093 
Q 1141 3584 1784 3584 
Q 2172 3584 2450 3431 
Q 2728 3278 2906 2969 
L 2906 3500 
L 3481 3500 
L 3481 434 
z
" transform="scale(0.015625)"/>
       <path id="DejaVuSans-2f" d="M 1625 4666 
L 2156 4666 
L 531 -594 
L 0 -594 
L 1625 4666 
z
" transform="scale(0.015625)"/>
       <path id="DejaVuSans-4c" d="M 628 4666 
L 1259 4666 
L 1259 531 
L 3531 531 
L 3531 0 
L 628 0 
L 628 4666 
z
" transform="scale(0.015625)"/>
      </defs>
      <use xlink:href="#DejaVuSans-47"/>
      <use xlink:href="#DejaVuSans-6c" transform="translate(77.490234 0)"/>
      <use xlink:href="#DejaVuSans-75" transform="translate(105.273438 0)"/>
      <use xlink:href="#DejaVuSans-63" transform="translate(168.652344 0)"/>
      <use xlink:href="#DejaVuSans-6f" transform="translate(223.632812 0)"/>
      <use xlink:href="#DejaVuSans-73" transform="translate(284.814453 0)"/>
      <use xlink:href="#DejaVuSans-65" transform="translate(336.914062 0)"/>
      <use xlink:href="#DejaVuSans-20" transform="translate(398.4375 0)"/>
      <use xlink:href="#DejaVuSans-5b" transform="translate(430.224609 0)"/>
      <use xlink:href="#DejaVuSans-67" transform="translate(469.238281 0)"/>
      <use xlink:href="#DejaVuSans-2f" transform="translate(532.714844 0)"/>
      <use xlink:href="#DejaVuSans-4c" transform="translate(566.40625 0)"/>
      <use xlink:href="#DejaVuSans-5d" transform="translate(622.119141 0)"/>
     </g>
    </g>
   </g>
   <g id="LineCollection_1">
    <path d="M 43.78125 74.067584 
L 43.78125 59.55907 
" clip-path="url(#pccb437a0e2)" style="fill: none; stroke: #d92847; stroke-width: 1.5"/>
    <path d="M 65.805417 75.394734 
L 65.805417 68.326508 
" clip-path="url(#pccb437a0e2)" style="fill: none; stroke: #d92847; stroke-width: 1.5"/>
    <path d="M 87.829583 70.508684 
L 87.829583 63.575536 
" clip-path="url(#pccb437a0e2)" style="fill: none; stroke: #d92847; stroke-width: 1.5"/>
    <path d="M 109.85375 78.619316 
L 109.85375 68.466789 
" clip-path="url(#pccb437a0e2)" style="fill: none; stroke: #d92847; stroke-width: 1.5"/>
    <path d="M 131.877917 79.779272 
L 131.877917 75.06432 
" clip-path="url(#pccb437a0e2)" style="fill: none; stroke: #d92847; stroke-width: 1.5"/>
    <path d="M 153.902083 90.58083 
L 153.902083 83.107399 
" clip-path="url(#pccb437a0e2)" style="fill: none; stroke: #d92847; stroke-width: 1.5"/>
    <path d="M 175.92625 110.750775 
L 175.92625 100.309954 
" clip-path="url(#pccb437a0e2)" style="fill: none; stroke: #d92847; stroke-width: 1.5"/>
    <path d="M 186.938333 118.370245 
L 186.938333 107.086182 
" clip-path="url(#pccb437a0e2)" style="fill: none; stroke: #d92847; stroke-width: 1.5"/>
    <path d="M 197.950417 159.186244 
L 197.950417 154.569666 
" clip-path="url(#pccb437a0e2)" style="fill: none; stroke: #d92847; stroke-width: 1.5"/>
    <path d="M 208.9625 177.786218 
L 208.9625 171.054368 
" clip-path="url(#pccb437a0e2)" style="fill: none; stroke: #d92847; stroke-width: 1.5"/>
    <path d="M 230.986667 219.620265 
L 230.986667 217.984408 
" clip-path="url(#pccb437a0e2)" style="fill: none; stroke: #d92847; stroke-width: 1.5"/>
    <path d="M 241.99875 242.518281 
L 241.99875 242.518281 
" clip-path="url(#pccb437a0e2)" style="fill: none; stroke: #d92847; stroke-width: 1.5"/>
    <path d="M 253.010833 242.518281 
L 253.010833 242.518281 
" clip-path="url(#pccb437a0e2)" style="fill: none; stroke: #d92847; stroke-width: 1.5"/>
    <path d="M 264.022917 242.518281 
L 264.022917 242.518281 
" clip-path="url(#pccb437a0e2)" style="fill: none; stroke: #d92847; stroke-width: 1.5"/>
    <path d="M 275.035 242.518281 
L 275.035 242.518281 
" clip-path="url(#pccb437a0e2)" style="fill: none; stroke: #d92847; stroke-width: 1.5"/>
    <path d="M 297.059167 242.518281 
L 297.059167 242.518281 
" clip-path="url(#pccb437a0e2)" style="fill: none; stroke: #d92847; stroke-width: 1.5"/>
    <path d="M 308.07125 242.518281 
L 308.07125 242.518281 
" clip-path="url(#pccb437a0e2)" style="fill: none; stroke: #d92847; stroke-width: 1.5"/>
    <path clip-path="url(#pccb437a0e2)" style="fill: none; stroke: #d92847; stroke-width: 1.5"/>
    <path clip-path="url(#pccb437a0e2)" style="fill: none; stroke: #d92847; stroke-width: 1.5"/>
    <path clip-path="url(#pccb437a0e2)" style="fill: none; stroke: #d92847; stroke-width: 1.5"/>
    <path clip-path="url(#pccb437a0e2)" style="fill: none; stroke: #d92847; stroke-width: 1.5"/>
    <path clip-path="url(#pccb437a0e2)" style="fill: none; stroke: #d92847; stroke-width: 1.5"/>
    <path clip-path="url(#pccb437a0e2)" style="fill: none; stroke: #d92847; stroke-width: 1.5"/>
    <path clip-path="url(#pccb437a0e2)" style="fill: none; stroke: #d92847; stroke-width: 1.5"/>
    <path clip-path="url(#pccb437a0e2)" style="fill: none; stroke: #d92847; stroke-width: 1.5"/>
   </g>
   <g id="line2d_14">
    <defs>
     <path id="m9d445b84b2" d="M 3 0 
L -3 -0 
" style="stroke: #d92847"/>
    </defs>
    <g clip-path="url(#pccb437a0e2)">
     <use xlink:href="#m9d445b84b2" x="43.78125" y="74.067584" style="fill: #d92847; stroke: #d92847"/>
     <use xlink:href="#m9d445b84b2" x="65.805417" y="75.394734" style="fill: #d92847; stroke: #d92847"/>
     <use xlink:href="#m9d445b84b2" x="87.829583" y="70.508684" style="fill: #d92847; stroke: #d92847"/>
     <use xlink:href="#m9d445b84b2" x="109.85375" y="78.619316" style="fill: #d92847; stroke: #d92847"/>
     <use xlink:href="#m9d445b84b2" x="131.877917" y="79.779272" style="fill: #d92847; stroke: #d92847"/>
     <use xlink:href="#m9d445b84b2" x="153.902083" y="90.58083" style="fill: #d92847; stroke: #d92847"/>
     <use xlink:href="#m9d445b84b2" x="175.92625" y="110.750775" style="fill: #d92847; stroke: #d92847"/>
     <use xlink:href="#m9d445b84b2" x="186.938333" y="118.370245" style="fill: #d92847; stroke: #d92847"/>
     <use xlink:href="#m9d445b84b2" x="197.950417" y="159.186244" style="fill: #d92847; stroke: #d92847"/>
     <use xlink:href="#m9d445b84b2" x="208.9625" y="177.786218" style="fill: #d92847; stroke: #d92847"/>
     <use xlink:href="#m9d445b84b2" x="230.986667" y="219.620265" style="fill: #d92847; stroke: #d92847"/>
     <use xlink:href="#m9d445b84b2" x="241.99875" y="242.518281" style="fill: #d92847; stroke: #d92847"/>
     <use xlink:href="#m9d445b84b2" x="253.010833" y="242.518281" style="fill: #d92847; stroke: #d92847"/>
     <use xlink:href="#m9d445b84b2" x="264.022917" y="242.518281" style="fill: #d92847; stroke: #d92847"/>
     <use xlink:href="#m9d445b84b2" x="275.035" y="242.518281" style="fill: #d92847; stroke: #d92847"/>
     <use xlink:href="#m9d445b84b2" x="297.059167" y="242.518281" style="fill: #d92847; stroke: #d92847"/>
     <use xlink:href="#m9d445b84b2" x="308.07125" y="242.518281" style="fill: #d92847; stroke: #d92847"/>
    </g>
   </g>
   <g id="line2d_15">
    <g clip-path="url(#pccb437a0e2)">
     <use xlink:href="#m9d445b84b2" x="43.78125" y="59.55907" style="fill: #d92847; stroke: #d92847"/>
     <use xlink:href="#m9d445b84b2" x="65.805417" y="68.326508" style="fill: #d92847; stroke: #d92847"/>
     <use xlink:href="#m9d445b84b2" x="87.829583" y="63.575536" style="fill: #d92847; stroke: #d92847"/>
     <use xlink:href="#m9d445b84b2" x="109.85375" y="68.466789" style="fill: #d92847; stroke: #d92847"/>
     <use xlink:href="#m9d445b84b2" x="131.877917" y="75.06432" style="fill: #d92847; stroke: #d92847"/>
     <use xlink:href="#m9d445b84b2" x="153.902083" y="83.107399" style="fill: #d92847; stroke: #d92847"/>
     <use xlink:href="#m9d445b84b2" x="175.92625" y="100.309954" style="fill: #d92847; stroke: #d92847"/>
     <use xlink:href="#m9d445b84b2" x="186.938333" y="107.086182" style="fill: #d92847; stroke: #d92847"/>
     <use xlink:href="#m9d445b84b2" x="197.950417" y="154.569666" style="fill: #d92847; stroke: #d92847"/>
     <use xlink:href="#m9d445b84b2" x="208.9625" y="171.054368" style="fill: #d92847; stroke: #d92847"/>
     <use xlink:href="#m9d445b84b2" x="230.986667" y="217.984408" style="fill: #d92847; stroke: #d92847"/>
     <use xlink:href="#m9d445b84b2" x="241.99875" y="242.518281" style="fill: #d92847; stroke: #d92847"/>
     <use xlink:href="#m9d445b84b2" x="253.010833" y="242.518281" style="fill: #d92847; stroke: #d92847"/>
     <use xlink:href="#m9d445b84b2" x="264.022917" y="242.518281" style="fill: #d92847; stroke: #d92847"/>
     <use xlink:href="#m9d445b84b2" x="275.035" y="242.518281" style="fill: #d92847; stroke: #d92847"/>
     <use xlink:href="#m9d445b84b2" x="297.059167" y="242.518281" style="fill: #d92847; stroke: #d92847"/>
     <use xlink:href="#m9d445b84b2" x="308.07125" y="242.518281" style="fill: #d92847; stroke: #d92847"/>
    </g>
   </g>
   <g id="line2d_16">
    <path d="M 43.78125 66.813327 
L 65.879076 71.844506 
L 87.976902 67.085595 
L 110.074728 73.58197 
L 132.172554 77.547847 
L 153.386467 86.623525 
L 154.27038 87.156594 
L 176.368207 105.819241 
L 186.975163 112.875872 
L 197.58212 155.401375 
L 198.466033 157.699335 
L 209.072989 174.642945 
L 232.054728 221.102545 
L 241.777772 242.042376 
L 242.661685 242.518281 
L 308.07125 242.518281 
L 308.07125 242.518281 
" clip-path="url(#pccb437a0e2)" style="fill: none; stroke: #d92847; stroke-width: 1.5; stroke-linecap: square"/>
   </g>
   <g id="line2d_17">
    <defs>
     <path id="mc71b9c1a4a" d="M 0 3 
C 0.795609 3 1.55874 2.683901 2.12132 2.12132 
C 2.683901 1.55874 3 0.795609 3 0 
C 3 -0.795609 2.683901 -1.55874 2.12132 -2.12132 
C 1.55874 -2.683901 0.795609 -3 0 -3 
C -0.795609 -3 -1.55874 -2.683901 -2.12132 -2.12132 
C -2.683901 -1.55874 -3 -0.795609 -3 0 
C -3 0.795609 -2.683901 1.55874 -2.12132 2.12132 
C -1.55874 2.683901 -0.795609 3 0 3 
z
" style="stroke: #d92847"/>
    </defs>
    <g clip-path="url(#pccb437a0e2)">
     <use xlink:href="#mc71b9c1a4a" x="43.78125" y="66.813327" style="fill: #d92847; stroke: #d92847"/>
     <use xlink:href="#mc71b9c1a4a" x="65.805417" y="71.860621" style="fill: #d92847; stroke: #d92847"/>
     <use xlink:href="#mc71b9c1a4a" x="87.829583" y="67.04211" style="fill: #d92847; stroke: #d92847"/>
     <use xlink:href="#mc71b9c1a4a" x="109.85375" y="73.543052" style="fill: #d92847; stroke: #d92847"/>
     <use xlink:href="#mc71b9c1a4a" x="131.877917" y="77.421796" style="fill: #d92847; stroke: #d92847"/>
     <use xlink:href="#mc71b9c1a4a" x="153.902083" y="86.844115" style="fill: #d92847; stroke: #d92847"/>
     <use xlink:href="#mc71b9c1a4a" x="175.92625" y="105.530365" style="fill: #d92847; stroke: #d92847"/>
     <use xlink:href="#mc71b9c1a4a" x="186.938333" y="112.728214" style="fill: #d92847; stroke: #d92847"/>
     <use xlink:href="#mc71b9c1a4a" x="197.950417" y="156.877955" style="fill: #d92847; stroke: #d92847"/>
     <use xlink:href="#mc71b9c1a4a" x="208.9625" y="174.420293" style="fill: #d92847; stroke: #d92847"/>
     <use xlink:href="#mc71b9c1a4a" x="230.986667" y="218.802336" style="fill: #d92847; stroke: #d92847"/>
     <use xlink:href="#mc71b9c1a4a" x="241.99875" y="242.518281" style="fill: #d92847; stroke: #d92847"/>
     <use xlink:href="#mc71b9c1a4a" x="253.010833" y="242.518281" style="fill: #d92847; stroke: #d92847"/>
     <use xlink:href="#mc71b9c1a4a" x="264.022917" y="242.518281" style="fill: #d92847; stroke: #d92847"/>
     <use xlink:href="#mc71b9c1a4a" x="275.035" y="242.518281" style="fill: #d92847; stroke: #d92847"/>
     <use xlink:href="#mc71b9c1a4a" x="297.059167" y="242.518281" style="fill: #d92847; stroke: #d92847"/>
     <use xlink:href="#mc71b9c1a4a" x="308.07125" y="242.518281" style="fill: #d92847; stroke: #d92847"/>
    </g>
   </g>
   <g id="patch_5">
    <path d="M 43.78125 242.518281 
L 43.78125 21.558281 
" style="fill: none; stroke: #000000; stroke-width: 0.8; stroke-linejoin: miter; stroke-linecap: square"/>
   </g>
   <g id="patch_6">
    <path d="M 308.07125 242.518281 
L 308.07125 21.558281 
" style="fill: none; stroke: #000000; stroke-width: 0.8; stroke-linejoin: miter; stroke-linecap: square"/>
   </g>
   <g id="patch_7">
    <path d="M 43.78125 242.518281 
L 308.07125 242.518281 
" style="fill: none; stroke: #000000; stroke-width: 0.8; stroke-linejoin: miter; stroke-linecap: square"/>
   </g>
   <g id="patch_8">
    <path d="M 43.78125 21.558281 
L 308.07125 21.558281 
" style="fill: none; stroke: #000000; stroke-width: 0.8; stroke-linejoin: miter; stroke-linecap: square"/>
   </g>
   <g id="text_16">
    <!-- Empirical Data -->
    <g transform="translate(135.482344 15.558281) scale(0.11 -0.11)">
     <defs>
      <path id="DejaVuSans-45" d="M 628 4666 
L 3578 4666 
L 3578 4134 
L 1259 4134 
L 1259 2753 
L 3481 2753 
L 3481 2222 
L 1259 2222 
L 1259 531 
L 3634 531 
L 3634 0 
L 628 0 
L 628 4666 
z
" transform="scale(0.015625)"/>
      <path id="DejaVuSans-70" d="M 1159 525 
L 1159 -1331 
L 581 -1331 
L 581 3500 
L 1159 3500 
L 1159 2969 
Q 1341 3281 1617 3432 
Q 1894 3584 2278 3584 
Q 2916 3584 3314 3078 
Q 3713 2572 3713 1747 
Q 3713 922 3314 415 
Q 2916 -91 2278 -91 
Q 1894 -91 1617 61 
Q 1341 213 1159 525 
z
M 3116 1747 
Q 3116 2381 2855 2742 
Q 2594 3103 2138 3103 
Q 1681 3103 1420 2742 
Q 1159 2381 1159 1747 
Q 1159 1113 1420 752 
Q 1681 391 2138 391 
Q 2594 391 2855 752 
Q 3116 1113 3116 1747 
z
" transform="scale(0.015625)"/>
      <path id="DejaVuSans-72" d="M 2631 2963 
Q 2534 3019 2420 3045 
Q 2306 3072 2169 3072 
Q 1681 3072 1420 2755 
Q 1159 2438 1159 1844 
L 1159 0 
L 581 0 
L 581 3500 
L 1159 3500 
L 1159 2956 
Q 1341 3275 1631 3429 
Q 1922 3584 2338 3584 
Q 2397 3584 2469 3576 
Q 2541 3569 2628 3553 
L 2631 2963 
z
" transform="scale(0.015625)"/>
      <path id="DejaVuSans-61" d="M 2194 1759 
Q 1497 1759 1228 1600 
Q 959 1441 959 1056 
Q 959 750 1161 570 
Q 1363 391 1709 391 
Q 2188 391 2477 730 
Q 2766 1069 2766 1631 
L 2766 1759 
L 2194 1759 
z
M 3341 1997 
L 3341 0 
L 2766 0 
L 2766 531 
Q 2569 213 2275 61 
Q 1981 -91 1556 -91 
Q 1019 -91 701 211 
Q 384 513 384 1019 
Q 384 1609 779 1909 
Q 1175 2209 1959 2209 
L 2766 2209 
L 2766 2266 
Q 2766 2663 2505 2880 
Q 2244 3097 1772 3097 
Q 1472 3097 1187 3025 
Q 903 2953 641 2809 
L 641 3341 
Q 956 3463 1253 3523 
Q 1550 3584 1831 3584 
Q 2591 3584 2966 3190 
Q 3341 2797 3341 1997 
z
" transform="scale(0.015625)"/>
      <path id="DejaVuSans-44" d="M 1259 4147 
L 1259 519 
L 2022 519 
Q 2988 519 3436 956 
Q 3884 1394 3884 2338 
Q 3884 3275 3436 3711 
Q 2988 4147 2022 4147 
L 1259 4147 
z
M 628 4666 
L 1925 4666 
Q 3281 4666 3915 4102 
Q 4550 3538 4550 2338 
Q 4550 1131 3912 565 
Q 3275 0 1925 0 
L 628 0 
L 628 4666 
z
" transform="scale(0.015625)"/>
      <path id="DejaVuSans-74" d="M 1172 4494 
L 1172 3500 
L 2356 3500 
L 2356 3053 
L 1172 3053 
L 1172 1153 
Q 1172 725 1289 603 
Q 1406 481 1766 481 
L 2356 481 
L 2356 0 
L 1766 0 
Q 1100 0 847 248 
Q 594 497 594 1153 
L 594 3053 
L 172 3053 
L 172 3500 
L 594 3500 
L 594 4494 
L 1172 4494 
z
" transform="scale(0.015625)"/>
     </defs>
     <use xlink:href="#DejaVuSans-45"/>
     <use xlink:href="#DejaVuSans-6d" transform="translate(63.183594 0)"/>
     <use xlink:href="#DejaVuSans-70" transform="translate(160.595703 0)"/>
     <use xlink:href="#DejaVuSans-69" transform="translate(224.072266 0)"/>
     <use xlink:href="#DejaVuSans-72" transform="translate(251.855469 0)"/>
     <use xlink:href="#DejaVuSans-69" transform="translate(292.96875 0)"/>
     <use xlink:href="#DejaVuSans-63" transform="translate(320.751953 0)"/>
     <use xlink:href="#DejaVuSans-61" transform="translate(375.732422 0)"/>
     <use xlink:href="#DejaVuSans-6c" transform="translate(437.011719 0)"/>
     <use xlink:href="#DejaVuSans-20" transform="translate(464.794922 0)"/>
     <use xlink:href="#DejaVuSans-44" transform="translate(496.582031 0)"/>
     <use xlink:href="#DejaVuSans-61" transform="translate(573.583984 0)"/>
     <use xlink:href="#DejaVuSans-74" transform="translate(634.863281 0)"/>
     <use xlink:href="#DejaVuSans-61" transform="translate(674.072266 0)"/>
    </g>
   </g>
  </g>
  <g id="axes_2">
   <g id="FillBetweenPolyCollection_2">
    <defs>
     <path id="m3be8ba4edd" d="M 43.78125 -39.354089 
L 43.78125 -39.313408 
L 44.665163 -39.314893 
L 45.549076 -39.316378 
L 46.432989 -39.317864 
L 47.316902 -39.319349 
L 48.200815 -39.320835 
L 49.084728 -39.32232 
L 49.968641 -39.323805 
L 50.852554 -39.325291 
L 51.736467 -39.326776 
L 52.62038 -39.328262 
L 53.504293 -39.329747 
L 54.388207 -39.331232 
L 55.27212 -39.359269 
L 56.156033 -39.409771 
L 57.039946 -39.460274 
L 57.923859 -39.510777 
L 58.807772 -39.561279 
L 59.691685 -39.611782 
L 60.575598 -39.662285 
L 61.459511 -39.712787 
L 62.343424 -39.76329 
L 63.227337 -39.813793 
L 64.11125 -39.864295 
L 64.995163 -39.914798 
L 65.879076 -39.963556 
L 66.762989 -39.99312 
L 67.646902 -40.022684 
L 68.530815 -40.052248 
L 69.414728 -40.081812 
L 70.298641 -40.111376 
L 71.182554 -40.140941 
L 72.066467 -40.170505 
L 72.95038 -40.200069 
L 73.834293 -40.229633 
L 74.718207 -40.259197 
L 75.60212 -40.288761 
L 76.486033 -40.318325 
L 77.369946 -40.362615 
L 78.253859 -40.41574 
L 79.137772 -40.468866 
L 80.021685 -40.521991 
L 80.905598 -40.575116 
L 81.789511 -40.628241 
L 82.673424 -40.681367 
L 83.557337 -40.734492 
L 84.44125 -40.787617 
L 85.325163 -40.840742 
L 86.209076 -40.893868 
L 87.092989 -40.946993 
L 87.976902 -41.000282 
L 88.860815 -41.054392 
L 89.744728 -41.108502 
L 90.628641 -41.162612 
L 91.512554 -41.216722 
L 92.396467 -41.270832 
L 93.28038 -41.324942 
L 94.164293 -41.379052 
L 95.048207 -41.433162 
L 95.93212 -41.487272 
L 96.816033 -41.541382 
L 97.699946 -41.595492 
L 98.583859 -41.649602 
L 99.467772 -41.743595 
L 100.351685 -41.854011 
L 101.235598 -41.964427 
L 102.119511 -42.074842 
L 103.003424 -42.185258 
L 103.887337 -42.295674 
L 104.77125 -42.406089 
L 105.655163 -42.516505 
L 106.539076 -42.626921 
L 107.422989 -42.737336 
L 108.306902 -42.847752 
L 109.190815 -42.958167 
L 110.074728 -43.060945 
L 110.958641 -43.140807 
L 111.842554 -43.22067 
L 112.726467 -43.300532 
L 113.61038 -43.380395 
L 114.494293 -43.460257 
L 115.378207 -43.54012 
L 116.26212 -43.619982 
L 117.146033 -43.699845 
L 118.029946 -43.779707 
L 118.913859 -43.85957 
L 119.797772 -43.939432 
L 120.681685 -44.019295 
L 121.565598 -44.150212 
L 122.449511 -44.294565 
L 123.333424 -44.438918 
L 124.217337 -44.583271 
L 125.10125 -44.727624 
L 125.985163 -44.871977 
L 126.869076 -45.01633 
L 127.752989 -45.160682 
L 128.636902 -45.305035 
L 129.520815 -45.449388 
L 130.404728 -45.593741 
L 131.288641 -45.738094 
L 132.172554 -45.899917 
L 133.056467 -46.09668 
L 133.94038 -46.293443 
L 134.824293 -46.490205 
L 135.708207 -46.686968 
L 136.59212 -46.883731 
L 137.476033 -47.080494 
L 138.359946 -47.277257 
L 139.243859 -47.474019 
L 140.127772 -47.670782 
L 141.011685 -47.867545 
L 141.895598 -48.064308 
L 142.779511 -48.261071 
L 143.663424 -48.560911 
L 144.547337 -48.875477 
L 145.43125 -49.190042 
L 146.315163 -49.504608 
L 147.199076 -49.819173 
L 148.082989 -50.133739 
L 148.966902 -50.448305 
L 149.850815 -50.76287 
L 150.734728 -51.077436 
L 151.618641 -51.392001 
L 152.502554 -51.706567 
L 153.386467 -52.021132 
L 154.27038 -52.306223 
L 155.154293 -52.550047 
L 156.038207 -52.793872 
L 156.92212 -53.037697 
L 157.806033 -53.281521 
L 158.689946 -53.525346 
L 159.573859 -53.76917 
L 160.457772 -54.012995 
L 161.341685 -54.25682 
L 162.225598 -54.500644 
L 163.109511 -54.744469 
L 163.993424 -54.988294 
L 164.877337 -55.232118 
L 165.76125 -55.755334 
L 166.645163 -56.290696 
L 167.529076 -56.826059 
L 168.412989 -57.361422 
L 169.296902 -57.896784 
L 170.180815 -58.432147 
L 171.064728 -58.96751 
L 171.948641 -59.502873 
L 172.832554 -60.038235 
L 173.716467 -60.573598 
L 174.60038 -61.108961 
L 175.484293 -61.644324 
L 176.368207 -62.267244 
L 177.25212 -62.977721 
L 178.136033 -63.688198 
L 179.019946 -64.398675 
L 179.903859 -65.109153 
L 180.787772 -65.81963 
L 181.671685 -66.530107 
L 182.555598 -67.240585 
L 183.439511 -67.951062 
L 184.323424 -68.661539 
L 185.207337 -69.372017 
L 186.09125 -70.082494 
L 186.975163 -70.820239 
L 187.859076 -72.185142 
L 188.742989 -73.550044 
L 189.626902 -74.914947 
L 190.510815 -76.27985 
L 191.394728 -77.644752 
L 192.278641 -79.009655 
L 193.162554 -80.374558 
L 194.046467 -81.73946 
L 194.93038 -83.104363 
L 195.814293 -84.469266 
L 196.698207 -85.834168 
L 197.58212 -87.199071 
L 198.466033 -88.418206 
L 199.349946 -89.533222 
L 200.233859 -90.648237 
L 201.117772 -91.763253 
L 202.001685 -92.878268 
L 202.885598 -93.993284 
L 203.769511 -95.108299 
L 204.653424 -96.223314 
L 205.537337 -97.33833 
L 206.42125 -98.453345 
L 207.305163 -99.568361 
L 208.189076 -100.683376 
L 209.072989 -101.824059 
L 209.956902 -103.14441 
L 210.840815 -104.464762 
L 211.724728 -105.785114 
L 212.608641 -107.105465 
L 213.492554 -108.425817 
L 214.376467 -109.746168 
L 215.26038 -111.06652 
L 216.144293 -112.386872 
L 217.028207 -113.707223 
L 217.91212 -115.027575 
L 218.796033 -116.347926 
L 219.679946 -117.668278 
L 220.563859 -119.19934 
L 221.447772 -120.835757 
L 222.331685 -122.472174 
L 223.215598 -124.108591 
L 224.099511 -125.745008 
L 224.983424 -127.381425 
L 225.867337 -129.017842 
L 226.75125 -130.65426 
L 227.635163 -132.290677 
L 228.519076 -133.927094 
L 229.402989 -135.563511 
L 230.286902 -137.199928 
L 231.170815 -139.087596 
L 232.054728 -141.930019 
L 232.938641 -144.772441 
L 233.822554 -147.614863 
L 234.706467 -150.457286 
L 235.59038 -153.299708 
L 236.474293 -156.14213 
L 237.358207 -158.984553 
L 238.24212 -161.826975 
L 239.126033 -164.669398 
L 240.009946 -167.51182 
L 240.893859 -170.354242 
L 241.777772 -173.196665 
L 242.661685 -175.617639 
L 243.545598 -177.898131 
L 244.429511 -180.178622 
L 245.313424 -182.459114 
L 246.197337 -184.739606 
L 247.08125 -187.020097 
L 247.965163 -189.300589 
L 248.849076 -191.581081 
L 249.732989 -193.861572 
L 250.616902 -196.142064 
L 251.500815 -198.422556 
L 252.384728 -200.703048 
L 253.268641 -202.723986 
L 254.152554 -204.114582 
L 255.036467 -205.505178 
L 255.92038 -206.895774 
L 256.804293 -208.286371 
L 257.688207 -209.676967 
L 258.57212 -211.067563 
L 259.456033 -212.458159 
L 260.339946 -213.848755 
L 261.223859 -215.239351 
L 262.107772 -216.629947 
L 262.991685 -218.020543 
L 263.875598 -219.411139 
L 264.759511 -220.095795 
L 265.643424 -220.639264 
L 266.527337 -221.182732 
L 267.41125 -221.726201 
L 268.295163 -222.269669 
L 269.179076 -222.813138 
L 270.062989 -223.356606 
L 270.946902 -223.900075 
L 271.830815 -224.443544 
L 272.714728 -224.987012 
L 273.598641 -225.530481 
L 274.482554 -226.073949 
L 275.366467 -226.50272 
L 276.25038 -226.740327 
L 277.134293 -226.977935 
L 278.018207 -227.215543 
L 278.90212 -227.453151 
L 279.786033 -227.690758 
L 280.669946 -227.928366 
L 281.553859 -228.165974 
L 282.437772 -228.403581 
L 283.321685 -228.641189 
L 284.205598 -228.878797 
L 285.089511 -229.116404 
L 285.973424 -229.354012 
L 286.857337 -229.116205 
L 287.74125 -228.835178 
L 288.625163 -228.554151 
L 289.509076 -228.273124 
L 290.392989 -227.992097 
L 291.276902 -227.711069 
L 292.160815 -227.430042 
L 293.044728 -227.149015 
L 293.928641 -226.867988 
L 294.812554 -226.586961 
L 295.696467 -226.305934 
L 296.58038 -226.024907 
L 297.464293 -225.80491 
L 298.348207 -225.65704 
L 299.23212 -225.50917 
L 300.116033 -225.3613 
L 300.999946 -225.213429 
L 301.883859 -225.065559 
L 302.767772 -224.917689 
L 303.651685 -224.769819 
L 304.535598 -224.621949 
L 305.419511 -224.474078 
L 306.303424 -224.326208 
L 307.187337 -224.178338 
L 308.07125 -224.030468 
L 308.07125 -229.503918 
L 308.07125 -229.503918 
L 307.187337 -229.847693 
L 306.303424 -230.191469 
L 305.419511 -230.535245 
L 304.535598 -230.879021 
L 303.651685 -231.222797 
L 302.767772 -231.566573 
L 301.883859 -231.910349 
L 300.999946 -232.254124 
L 300.116033 -232.5979 
L 299.23212 -232.941676 
L 298.348207 -233.285452 
L 297.464293 -233.629228 
L 296.58038 -233.830656 
L 295.696467 -233.911635 
L 294.812554 -233.992614 
L 293.928641 -234.073594 
L 293.044728 -234.154573 
L 292.160815 -234.235552 
L 291.276902 -234.316532 
L 290.392989 -234.397511 
L 289.509076 -234.478491 
L 288.625163 -234.55947 
L 287.74125 -234.640449 
L 286.857337 -234.721429 
L 285.973424 -234.776923 
L 285.089511 -234.552076 
L 284.205598 -234.32723 
L 283.321685 -234.102383 
L 282.437772 -233.877537 
L 281.553859 -233.65269 
L 280.669946 -233.427844 
L 279.786033 -233.202997 
L 278.90212 -232.978151 
L 278.018207 -232.753304 
L 277.134293 -232.528458 
L 276.25038 -232.303612 
L 275.366467 -232.078765 
L 274.482554 -231.714757 
L 273.598641 -231.267252 
L 272.714728 -230.819748 
L 271.830815 -230.372243 
L 270.946902 -229.924738 
L 270.062989 -229.477234 
L 269.179076 -229.029729 
L 268.295163 -228.582224 
L 267.41125 -228.134719 
L 266.527337 -227.687215 
L 265.643424 -227.23971 
L 264.759511 -226.792205 
L 263.875598 -226.149371 
L 262.991685 -224.529887 
L 262.107772 -222.910403 
L 261.223859 -221.290919 
L 260.339946 -219.671435 
L 259.456033 -218.051951 
L 258.57212 -216.432467 
L 257.688207 -214.812983 
L 256.804293 -213.193499 
L 255.92038 -211.574015 
L 255.036467 -209.954531 
L 254.152554 -208.335047 
L 253.268641 -206.715563 
L 252.384728 -204.444696 
L 251.500815 -201.905612 
L 250.616902 -199.366528 
L 249.732989 -196.827443 
L 248.849076 -194.288359 
L 247.965163 -191.749275 
L 247.08125 -189.210191 
L 246.197337 -186.671107 
L 245.313424 -184.132023 
L 244.429511 -181.592938 
L 243.545598 -179.053854 
L 242.661685 -176.51477 
L 241.777772 -174.066946 
L 240.893859 -171.8929 
L 240.009946 -169.718854 
L 239.126033 -167.544809 
L 238.24212 -165.370763 
L 237.358207 -163.196718 
L 236.474293 -161.022672 
L 235.59038 -158.848626 
L 234.706467 -156.674581 
L 233.822554 -154.500535 
L 232.938641 -152.32649 
L 232.054728 -150.152444 
L 231.170815 -147.978398 
L 230.286902 -146.269522 
L 229.402989 -144.683059 
L 228.519076 -143.096596 
L 227.635163 -141.510133 
L 226.75125 -139.92367 
L 225.867337 -138.337207 
L 224.983424 -136.750744 
L 224.099511 -135.164281 
L 223.215598 -133.577818 
L 222.331685 -131.991355 
L 221.447772 -130.404892 
L 220.563859 -128.818428 
L 219.679946 -127.253552 
L 218.796033 -125.73185 
L 217.91212 -124.210147 
L 217.028207 -122.688445 
L 216.144293 -121.166742 
L 215.26038 -119.645039 
L 214.376467 -118.123337 
L 213.492554 -116.601634 
L 212.608641 -115.079932 
L 211.724728 -113.558229 
L 210.840815 -112.036527 
L 209.956902 -110.514824 
L 209.072989 -108.993122 
L 208.189076 -107.389137 
L 207.305163 -105.773397 
L 206.42125 -104.157657 
L 205.537337 -102.541917 
L 204.653424 -100.926177 
L 203.769511 -99.310438 
L 202.885598 -97.694698 
L 202.001685 -96.078958 
L 201.117772 -94.463218 
L 200.233859 -92.847479 
L 199.349946 -91.231739 
L 198.466033 -89.615999 
L 197.58212 -88.093203 
L 196.698207 -86.700529 
L 195.814293 -85.307855 
L 194.93038 -83.915181 
L 194.046467 -82.522507 
L 193.162554 -81.129833 
L 192.278641 -79.737159 
L 191.394728 -78.344485 
L 190.510815 -76.951811 
L 189.626902 -75.559137 
L 188.742989 -74.166463 
L 187.859076 -72.773789 
L 186.975163 -71.381115 
L 186.09125 -70.614386 
L 185.207337 -69.874871 
L 184.323424 -69.135357 
L 183.439511 -68.395843 
L 182.555598 -67.656329 
L 181.671685 -66.916815 
L 180.787772 -66.1773 
L 179.903859 -65.437786 
L 179.019946 -64.698272 
L 178.136033 -63.958758 
L 177.25212 -63.219244 
L 176.368207 -62.479729 
L 175.484293 -61.860174 
L 174.60038 -61.360577 
L 173.716467 -60.86098 
L 172.832554 -60.361383 
L 171.948641 -59.861785 
L 171.064728 -59.362188 
L 170.180815 -58.862591 
L 169.296902 -58.362994 
L 168.412989 -57.863397 
L 167.529076 -57.3638 
L 166.645163 -56.864203 
L 165.76125 -56.364606 
L 164.877337 -55.874273 
L 163.993424 -55.59703 
L 163.109511 -55.319787 
L 162.225598 -55.042544 
L 161.341685 -54.765301 
L 160.457772 -54.488057 
L 159.573859 -54.210814 
L 158.689946 -53.933571 
L 157.806033 -53.656328 
L 156.92212 -53.379084 
L 156.038207 -53.101841 
L 155.154293 -52.824598 
L 154.27038 -52.547355 
L 153.386467 -52.250446 
L 152.502554 -51.93949 
L 151.618641 -51.628535 
L 150.734728 -51.317579 
L 149.850815 -51.006623 
L 148.966902 -50.695667 
L 148.082989 -50.384712 
L 147.199076 -50.073756 
L 146.315163 -49.7628 
L 145.43125 -49.451844 
L 144.547337 -49.140889 
L 143.663424 -48.829933 
L 142.779511 -48.53175 
L 141.895598 -48.32298 
L 141.011685 -48.114209 
L 140.127772 -47.905439 
L 139.243859 -47.696668 
L 138.359946 -47.487898 
L 137.476033 -47.279127 
L 136.59212 -47.070357 
L 135.708207 -46.861586 
L 134.824293 -46.652816 
L 133.94038 -46.444045 
L 133.056467 -46.235275 
L 132.172554 -46.026504 
L 131.288641 -45.866314 
L 130.404728 -45.730413 
L 129.520815 -45.594512 
L 128.636902 -45.458611 
L 127.752989 -45.32271 
L 126.869076 -45.186809 
L 125.985163 -45.050908 
L 125.10125 -44.915007 
L 124.217337 -44.779106 
L 123.333424 -44.643206 
L 122.449511 -44.507305 
L 121.565598 -44.371404 
L 120.681685 -44.248044 
L 119.797772 -44.172338 
L 118.913859 -44.096633 
L 118.029946 -44.020927 
L 117.146033 -43.945221 
L 116.26212 -43.869516 
L 115.378207 -43.79381 
L 114.494293 -43.718105 
L 113.61038 -43.642399 
L 112.726467 -43.566694 
L 111.842554 -43.490988 
L 110.958641 -43.415283 
L 110.074728 -43.339577 
L 109.190815 -43.227412 
L 108.306902 -43.103095 
L 107.422989 -42.978777 
L 106.539076 -42.854459 
L 105.655163 -42.730142 
L 104.77125 -42.605824 
L 103.887337 -42.481506 
L 103.003424 -42.357188 
L 102.119511 -42.232871 
L 101.235598 -42.108553 
L 100.351685 -41.984235 
L 99.467772 -41.859917 
L 98.583859 -41.755679 
L 97.699946 -41.700203 
L 96.816033 -41.644728 
L 95.93212 -41.589252 
L 95.048207 -41.533776 
L 94.164293 -41.478301 
L 93.28038 -41.422825 
L 92.396467 -41.36735 
L 91.512554 -41.311874 
L 90.628641 -41.256399 
L 89.744728 -41.200923 
L 88.860815 -41.145448 
L 87.976902 -41.089972 
L 87.092989 -41.037551 
L 86.209076 -40.985741 
L 85.325163 -40.933931 
L 84.44125 -40.882121 
L 83.557337 -40.830311 
L 82.673424 -40.778501 
L 81.789511 -40.726691 
L 80.905598 -40.674881 
L 80.021685 -40.623072 
L 79.137772 -40.571262 
L 78.253859 -40.519452 
L 77.369946 -40.467642 
L 76.486033 -40.425131 
L 75.60212 -40.39812 
L 74.718207 -40.371109 
L 73.834293 -40.344098 
L 72.95038 -40.317087 
L 72.066467 -40.290076 
L 71.182554 -40.263065 
L 70.298641 -40.236054 
L 69.414728 -40.209043 
L 68.530815 -40.182032 
L 67.646902 -40.155021 
L 66.762989 -40.12801 
L 65.879076 -40.100999 
L 64.995163 -40.044118 
L 64.11125 -39.984522 
L 63.227337 -39.924925 
L 62.343424 -39.865328 
L 61.459511 -39.805731 
L 60.575598 -39.746135 
L 59.691685 -39.686538 
L 58.807772 -39.626941 
L 57.923859 -39.567345 
L 57.039946 -39.507748 
L 56.156033 -39.448151 
L 55.27212 -39.388554 
L 54.388207 -39.356192 
L 53.504293 -39.356017 
L 52.62038 -39.355842 
L 51.736467 -39.355667 
L 50.852554 -39.355491 
L 49.968641 -39.355316 
L 49.084728 -39.355141 
L 48.200815 -39.354965 
L 47.316902 -39.35479 
L 46.432989 -39.354615 
L 45.549076 -39.354439 
L 44.665163 -39.354264 
L 43.78125 -39.354089 
z
" style="stroke: #000000; stroke-opacity: 0.3"/>
    </defs>
    <g clip-path="url(#pccb437a0e2)">
     <use xlink:href="#m3be8ba4edd" x="0" y="280.074531" style="fill-opacity: 0.3; stroke: #000000; stroke-opacity: 0.3"/>
    </g>
   </g>
   <g id="matplotlib.axis_3">
    <g id="ytick_7">
     <g id="line2d_18">
      <defs>
       <path id="mdb32f6b3e0" d="M 0 0 
L 3.5 0 
" style="stroke: #000000; stroke-width: 0.8"/>
      </defs>
      <g>
       <use xlink:href="#mdb32f6b3e0" x="308.07125" y="242.518281" style="stroke: #000000; stroke-width: 0.8"/>
      </g>
     </g>
     <g id="text_17">
      <!-- 0.0 -->
      <g transform="translate(315.07125 246.3175) scale(0.1 -0.1)">
       <use xlink:href="#DejaVuSans-30"/>
       <use xlink:href="#DejaVuSans-2e" transform="translate(63.623047 0)"/>
       <use xlink:href="#DejaVuSans-30" transform="translate(95.410156 0)"/>
      </g>
     </g>
    </g>
    <g id="ytick_8">
     <g id="line2d_19">
      <g>
       <use xlink:href="#mdb32f6b3e0" x="308.07125" y="198.326281" style="stroke: #000000; stroke-width: 0.8"/>
      </g>
     </g>
     <g id="text_18">
      <!-- 0.2 -->
      <g transform="translate(315.07125 202.1255) scale(0.1 -0.1)">
       <use xlink:href="#DejaVuSans-30"/>
       <use xlink:href="#DejaVuSans-2e" transform="translate(63.623047 0)"/>
       <use xlink:href="#DejaVuSans-32" transform="translate(95.410156 0)"/>
      </g>
     </g>
    </g>
    <g id="ytick_9">
     <g id="line2d_20">
      <g>
       <use xlink:href="#mdb32f6b3e0" x="308.07125" y="154.134281" style="stroke: #000000; stroke-width: 0.8"/>
      </g>
     </g>
     <g id="text_19">
      <!-- 0.4 -->
      <g transform="translate(315.07125 157.9335) scale(0.1 -0.1)">
       <use xlink:href="#DejaVuSans-30"/>
       <use xlink:href="#DejaVuSans-2e" transform="translate(63.623047 0)"/>
       <use xlink:href="#DejaVuSans-34" transform="translate(95.410156 0)"/>
      </g>
     </g>
    </g>
    <g id="ytick_10">
     <g id="line2d_21">
      <g>
       <use xlink:href="#mdb32f6b3e0" x="308.07125" y="109.942281" style="stroke: #000000; stroke-width: 0.8"/>
      </g>
     </g>
     <g id="text_20">
      <!-- 0.6 -->
      <g transform="translate(315.07125 113.7415) scale(0.1 -0.1)">
       <use xlink:href="#DejaVuSans-30"/>
       <use xlink:href="#DejaVuSans-2e" transform="translate(63.623047 0)"/>
       <use xlink:href="#DejaVuSans-36" transform="translate(95.410156 0)"/>
      </g>
     </g>
    </g>
    <g id="ytick_11">
     <g id="line2d_22">
      <g>
       <use xlink:href="#mdb32f6b3e0" x="308.07125" y="65.750281" style="stroke: #000000; stroke-width: 0.8"/>
      </g>
     </g>
     <g id="text_21">
      <!-- 0.8 -->
      <g transform="translate(315.07125 69.5495) scale(0.1 -0.1)">
       <use xlink:href="#DejaVuSans-30"/>
       <use xlink:href="#DejaVuSans-2e" transform="translate(63.623047 0)"/>
       <use xlink:href="#DejaVuSans-38" transform="translate(95.410156 0)"/>
      </g>
     </g>
    </g>
    <g id="ytick_12">
     <g id="line2d_23">
      <g>
       <use xlink:href="#mdb32f6b3e0" x="308.07125" y="21.558281" style="stroke: #000000; stroke-width: 0.8"/>
      </g>
     </g>
     <g id="text_22">
      <!-- 1.0 -->
      <g transform="translate(315.07125 25.3575) scale(0.1 -0.1)">
       <use xlink:href="#DejaVuSans-31"/>
       <use xlink:href="#DejaVuSans-2e" transform="translate(63.623047 0)"/>
       <use xlink:href="#DejaVuSans-30" transform="translate(95.410156 0)"/>
      </g>
     </g>
    </g>
    <g id="text_23">
     <!-- Biomass [gCDW/L] -->
     <g transform="translate(342.572812 178.48125) rotate(-90) scale(0.1 -0.1)">
      <defs>
       <path id="DejaVuSans-42" d="M 1259 2228 
L 1259 519 
L 2272 519 
Q 2781 519 3026 730 
Q 3272 941 3272 1375 
Q 3272 1813 3026 2020 
Q 2781 2228 2272 2228 
L 1259 2228 
z
M 1259 4147 
L 1259 2741 
L 2194 2741 
Q 2656 2741 2882 2914 
Q 3109 3088 3109 3444 
Q 3109 3797 2882 3972 
Q 2656 4147 2194 4147 
L 1259 4147 
z
M 628 4666 
L 2241 4666 
Q 2963 4666 3353 4366 
Q 3744 4066 3744 3513 
Q 3744 3084 3544 2831 
Q 3344 2578 2956 2516 
Q 3422 2416 3680 2098 
Q 3938 1781 3938 1306 
Q 3938 681 3513 340 
Q 3088 0 2303 0 
L 628 0 
L 628 4666 
z
" transform="scale(0.015625)"/>
       <path id="DejaVuSans-43" d="M 4122 4306 
L 4122 3641 
Q 3803 3938 3442 4084 
Q 3081 4231 2675 4231 
Q 1875 4231 1450 3742 
Q 1025 3253 1025 2328 
Q 1025 1406 1450 917 
Q 1875 428 2675 428 
Q 3081 428 3442 575 
Q 3803 722 4122 1019 
L 4122 359 
Q 3791 134 3420 21 
Q 3050 -91 2638 -91 
Q 1578 -91 968 557 
Q 359 1206 359 2328 
Q 359 3453 968 4101 
Q 1578 4750 2638 4750 
Q 3056 4750 3426 4639 
Q 3797 4528 4122 4306 
z
" transform="scale(0.015625)"/>
       <path id="DejaVuSans-57" d="M 213 4666 
L 850 4666 
L 1831 722 
L 2809 4666 
L 3519 4666 
L 4500 722 
L 5478 4666 
L 6119 4666 
L 4947 0 
L 4153 0 
L 3169 4050 
L 2175 0 
L 1381 0 
L 213 4666 
z
" transform="scale(0.015625)"/>
      </defs>
      <use xlink:href="#DejaVuSans-42"/>
      <use xlink:href="#DejaVuSans-69" transform="translate(68.603516 0)"/>
      <use xlink:href="#DejaVuSans-6f" transform="translate(96.386719 0)"/>
      <use xlink:href="#DejaVuSans-6d" transform="translate(157.568359 0)"/>
      <use xlink:href="#DejaVuSans-61" transform="translate(254.980469 0)"/>
      <use xlink:href="#DejaVuSans-73" transform="translate(316.259766 0)"/>
      <use xlink:href="#DejaVuSans-73" transform="translate(368.359375 0)"/>
      <use xlink:href="#DejaVuSans-20" transform="translate(420.458984 0)"/>
      <use xlink:href="#DejaVuSans-5b" transform="translate(452.246094 0)"/>
      <use xlink:href="#DejaVuSans-67" transform="translate(491.259766 0)"/>
      <use xlink:href="#DejaVuSans-43" transform="translate(554.736328 0)"/>
      <use xlink:href="#DejaVuSans-44" transform="translate(624.560547 0)"/>
      <use xlink:href="#DejaVuSans-57" transform="translate(701.5625 0)"/>
      <use xlink:href="#DejaVuSans-2f" transform="translate(800.439453 0)"/>
      <use xlink:href="#DejaVuSans-4c" transform="translate(834.130859 0)"/>
      <use xlink:href="#DejaVuSans-5d" transform="translate(889.84375 0)"/>
     </g>
    </g>
   </g>
   <g id="LineCollection_2">
    <path d="M 43.78125 240.761124 
L 43.78125 240.720443 
" clip-path="url(#pccb437a0e2)" style="fill: none; stroke: #000000; stroke-width: 1.5"/>
    <path d="M 54.793333 240.742618 
L 54.793333 240.718258 
" clip-path="url(#pccb437a0e2)" style="fill: none; stroke: #000000; stroke-width: 1.5"/>
    <path d="M 65.805417 240.113439 
L 65.805417 239.975783 
" clip-path="url(#pccb437a0e2)" style="fill: none; stroke: #000000; stroke-width: 1.5"/>
    <path d="M 76.8175 239.745119 
L 76.8175 239.639271 
" clip-path="url(#pccb437a0e2)" style="fill: none; stroke: #000000; stroke-width: 1.5"/>
    <path d="M 87.829583 239.083267 
L 87.829583 238.993805 
" clip-path="url(#pccb437a0e2)" style="fill: none; stroke: #000000; stroke-width: 1.5"/>
    <path d="M 98.841667 238.409147 
L 98.841667 238.302672 
" clip-path="url(#pccb437a0e2)" style="fill: none; stroke: #000000; stroke-width: 1.5"/>
    <path d="M 109.85375 237.033552 
L 109.85375 236.753881 
" clip-path="url(#pccb437a0e2)" style="fill: none; stroke: #000000; stroke-width: 1.5"/>
    <path d="M 120.865833 236.038598 
L 120.865833 235.810716 
" clip-path="url(#pccb437a0e2)" style="fill: none; stroke: #000000; stroke-width: 1.5"/>
    <path d="M 131.877917 234.240202 
L 131.877917 234.117617 
" clip-path="url(#pccb437a0e2)" style="fill: none; stroke: #000000; stroke-width: 1.5"/>
    <path d="M 142.89 231.788865 
L 142.89 231.516685 
" clip-path="url(#pccb437a0e2)" style="fill: none; stroke: #000000; stroke-width: 1.5"/>
    <path d="M 153.902083 227.869902 
L 153.902083 227.642694 
" clip-path="url(#pccb437a0e2)" style="fill: none; stroke: #000000; stroke-width: 1.5"/>
    <path d="M 164.914167 224.832254 
L 164.914167 224.188706 
" clip-path="url(#pccb437a0e2)" style="fill: none; stroke: #000000; stroke-width: 1.5"/>
    <path d="M 175.92625 218.162526 
L 175.92625 217.964559 
" clip-path="url(#pccb437a0e2)" style="fill: none; stroke: #000000; stroke-width: 1.5"/>
    <path d="M 186.938333 209.311163 
L 186.938333 208.751444 
" clip-path="url(#pccb437a0e2)" style="fill: none; stroke: #000000; stroke-width: 1.5"/>
    <path d="M 197.950417 192.306751 
L 197.950417 191.401047 
" clip-path="url(#pccb437a0e2)" style="fill: none; stroke: #000000; stroke-width: 1.5"/>
    <path d="M 208.9625 178.415516 
L 208.9625 171.271622 
" clip-path="url(#pccb437a0e2)" style="fill: none; stroke: #000000; stroke-width: 1.5"/>
    <path d="M 219.974583 161.966136 
L 219.974583 152.313745 
" clip-path="url(#pccb437a0e2)" style="fill: none; stroke: #000000; stroke-width: 1.5"/>
    <path d="M 230.986667 141.579106 
L 230.986667 132.549059 
" clip-path="url(#pccb437a0e2)" style="fill: none; stroke: #000000; stroke-width: 1.5"/>
    <path d="M 241.99875 106.167261 
L 241.99875 105.464074 
" clip-path="url(#pccb437a0e2)" style="fill: none; stroke: #000000; stroke-width: 1.5"/>
    <path d="M 253.010833 77.756135 
L 253.010833 73.831317 
" clip-path="url(#pccb437a0e2)" style="fill: none; stroke: #000000; stroke-width: 1.5"/>
    <path d="M 264.022917 60.431626 
L 264.022917 53.655247 
" clip-path="url(#pccb437a0e2)" style="fill: none; stroke: #000000; stroke-width: 1.5"/>
    <path d="M 275.035 53.660914 
L 275.035 48.080084 
" clip-path="url(#pccb437a0e2)" style="fill: none; stroke: #000000; stroke-width: 1.5"/>
    <path d="M 286.047083 50.700718 
L 286.047083 45.278871 
" clip-path="url(#pccb437a0e2)" style="fill: none; stroke: #000000; stroke-width: 1.5"/>
    <path d="M 297.059167 54.201847 
L 297.059167 46.28774 
" clip-path="url(#pccb437a0e2)" style="fill: none; stroke: #000000; stroke-width: 1.5"/>
    <path d="M 308.07125 56.044064 
L 308.07125 50.570614 
" clip-path="url(#pccb437a0e2)" style="fill: none; stroke: #000000; stroke-width: 1.5"/>
   </g>
   <g id="line2d_24">
    <defs>
     <path id="m96ef9ed313" d="M 3 0 
L -3 -0 
" style="stroke: #000000"/>
    </defs>
    <g clip-path="url(#pccb437a0e2)">
     <use xlink:href="#m96ef9ed313" x="43.78125" y="240.761124" style="stroke: #000000"/>
     <use xlink:href="#m96ef9ed313" x="54.793333" y="240.742618" style="stroke: #000000"/>
     <use xlink:href="#m96ef9ed313" x="65.805417" y="240.113439" style="stroke: #000000"/>
     <use xlink:href="#m96ef9ed313" x="76.8175" y="239.745119" style="stroke: #000000"/>
     <use xlink:href="#m96ef9ed313" x="87.829583" y="239.083267" style="stroke: #000000"/>
     <use xlink:href="#m96ef9ed313" x="98.841667" y="238.409147" style="stroke: #000000"/>
     <use xlink:href="#m96ef9ed313" x="109.85375" y="237.033552" style="stroke: #000000"/>
     <use xlink:href="#m96ef9ed313" x="120.865833" y="236.038598" style="stroke: #000000"/>
     <use xlink:href="#m96ef9ed313" x="131.877917" y="234.240202" style="stroke: #000000"/>
     <use xlink:href="#m96ef9ed313" x="142.89" y="231.788865" style="stroke: #000000"/>
     <use xlink:href="#m96ef9ed313" x="153.902083" y="227.869902" style="stroke: #000000"/>
     <use xlink:href="#m96ef9ed313" x="164.914167" y="224.832254" style="stroke: #000000"/>
     <use xlink:href="#m96ef9ed313" x="175.92625" y="218.162526" style="stroke: #000000"/>
     <use xlink:href="#m96ef9ed313" x="186.938333" y="209.311163" style="stroke: #000000"/>
     <use xlink:href="#m96ef9ed313" x="197.950417" y="192.306751" style="stroke: #000000"/>
     <use xlink:href="#m96ef9ed313" x="208.9625" y="178.415516" style="stroke: #000000"/>
     <use xlink:href="#m96ef9ed313" x="219.974583" y="161.966136" style="stroke: #000000"/>
     <use xlink:href="#m96ef9ed313" x="230.986667" y="141.579106" style="stroke: #000000"/>
     <use xlink:href="#m96ef9ed313" x="241.99875" y="106.167261" style="stroke: #000000"/>
     <use xlink:href="#m96ef9ed313" x="253.010833" y="77.756135" style="stroke: #000000"/>
     <use xlink:href="#m96ef9ed313" x="264.022917" y="60.431626" style="stroke: #000000"/>
     <use xlink:href="#m96ef9ed313" x="275.035" y="53.660914" style="stroke: #000000"/>
     <use xlink:href="#m96ef9ed313" x="286.047083" y="50.700718" style="stroke: #000000"/>
     <use xlink:href="#m96ef9ed313" x="297.059167" y="54.201847" style="stroke: #000000"/>
     <use xlink:href="#m96ef9ed313" x="308.07125" y="56.044064" style="stroke: #000000"/>
    </g>
   </g>
   <g id="line2d_25">
    <g clip-path="url(#pccb437a0e2)">
     <use xlink:href="#m96ef9ed313" x="43.78125" y="240.720443" style="stroke: #000000"/>
     <use xlink:href="#m96ef9ed313" x="54.793333" y="240.718258" style="stroke: #000000"/>
     <use xlink:href="#m96ef9ed313" x="65.805417" y="239.975783" style="stroke: #000000"/>
     <use xlink:href="#m96ef9ed313" x="76.8175" y="239.639271" style="stroke: #000000"/>
     <use xlink:href="#m96ef9ed313" x="87.829583" y="238.993805" style="stroke: #000000"/>
     <use xlink:href="#m96ef9ed313" x="98.841667" y="238.302672" style="stroke: #000000"/>
     <use xlink:href="#m96ef9ed313" x="109.85375" y="236.753881" style="stroke: #000000"/>
     <use xlink:href="#m96ef9ed313" x="120.865833" y="235.810716" style="stroke: #000000"/>
     <use xlink:href="#m96ef9ed313" x="131.877917" y="234.117617" style="stroke: #000000"/>
     <use xlink:href="#m96ef9ed313" x="142.89" y="231.516685" style="stroke: #000000"/>
     <use xlink:href="#m96ef9ed313" x="153.902083" y="227.642694" style="stroke: #000000"/>
     <use xlink:href="#m96ef9ed313" x="164.914167" y="224.188706" style="stroke: #000000"/>
     <use xlink:href="#m96ef9ed313" x="175.92625" y="217.964559" style="stroke: #000000"/>
     <use xlink:href="#m96ef9ed313" x="186.938333" y="208.751444" style="stroke: #000000"/>
     <use xlink:href="#m96ef9ed313" x="197.950417" y="191.401047" style="stroke: #000000"/>
     <use xlink:href="#m96ef9ed313" x="208.9625" y="171.271622" style="stroke: #000000"/>
     <use xlink:href="#m96ef9ed313" x="219.974583" y="152.313745" style="stroke: #000000"/>
     <use xlink:href="#m96ef9ed313" x="230.986667" y="132.549059" style="stroke: #000000"/>
     <use xlink:href="#m96ef9ed313" x="241.99875" y="105.464074" style="stroke: #000000"/>
     <use xlink:href="#m96ef9ed313" x="253.010833" y="73.831317" style="stroke: #000000"/>
     <use xlink:href="#m96ef9ed313" x="264.022917" y="53.655247" style="stroke: #000000"/>
     <use xlink:href="#m96ef9ed313" x="275.035" y="48.080084" style="stroke: #000000"/>
     <use xlink:href="#m96ef9ed313" x="286.047083" y="45.278871" style="stroke: #000000"/>
     <use xlink:href="#m96ef9ed313" x="297.059167" y="46.28774" style="stroke: #000000"/>
     <use xlink:href="#m96ef9ed313" x="308.07125" y="50.570614" style="stroke: #000000"/>
    </g>
   </g>
   <g id="line2d_26">
    <path d="M 43.78125 240.740783 
L 56.156033 240.64557 
L 69.414728 239.929103 
L 80.021685 239.502 
L 99.467772 238.272775 
L 111.842554 236.718702 
L 121.565598 235.813723 
L 133.056467 233.908554 
L 143.663424 231.379109 
L 155.154293 227.387209 
L 164.877337 224.521335 
L 175.484293 218.322283 
L 177.25212 216.976049 
L 186.975163 208.973854 
L 216.144293 163.297724 
L 220.563859 156.065647 
L 231.170815 136.541534 
L 244.429511 99.188751 
L 253.268641 75.354756 
L 263.875598 57.294276 
L 264.759511 56.630531 
L 275.366467 50.783789 
L 285.973424 48.009064 
L 289.509076 48.698724 
L 298.348207 50.603285 
L 308.07125 53.307339 
L 308.07125 53.307339 
" clip-path="url(#pccb437a0e2)" style="fill: none; stroke: #000000; stroke-width: 1.5; stroke-linecap: square"/>
   </g>
   <g id="line2d_27">
    <defs>
     <path id="m3791d6d51c" d="M 0 3 
C 0.795609 3 1.55874 2.683901 2.12132 2.12132 
C 2.683901 1.55874 3 0.795609 3 0 
C 3 -0.795609 2.683901 -1.55874 2.12132 -2.12132 
C 1.55874 -2.683901 0.795609 -3 0 -3 
C -0.795609 -3 -1.55874 -2.683901 -2.12132 -2.12132 
C -2.683901 -1.55874 -3 -0.795609 -3 0 
C -3 0.795609 -2.683901 1.55874 -2.12132 2.12132 
C -1.55874 2.683901 -0.795609 3 0 3 
z
" style="stroke: #000000"/>
    </defs>
    <g clip-path="url(#pccb437a0e2)">
     <use xlink:href="#m3791d6d51c" x="43.78125" y="240.740783" style="stroke: #000000"/>
     <use xlink:href="#m3791d6d51c" x="54.793333" y="240.730438" style="stroke: #000000"/>
     <use xlink:href="#m3791d6d51c" x="65.805417" y="240.044611" style="stroke: #000000"/>
     <use xlink:href="#m3791d6d51c" x="76.8175" y="239.692195" style="stroke: #000000"/>
     <use xlink:href="#m3791d6d51c" x="87.829583" y="239.038536" style="stroke: #000000"/>
     <use xlink:href="#m3791d6d51c" x="98.841667" y="238.35591" style="stroke: #000000"/>
     <use xlink:href="#m3791d6d51c" x="109.85375" y="236.893716" style="stroke: #000000"/>
     <use xlink:href="#m3791d6d51c" x="120.865833" y="235.924657" style="stroke: #000000"/>
     <use xlink:href="#m3791d6d51c" x="131.877917" y="234.178909" style="stroke: #000000"/>
     <use xlink:href="#m3791d6d51c" x="142.89" y="231.652775" style="stroke: #000000"/>
     <use xlink:href="#m3791d6d51c" x="153.902083" y="227.756298" style="stroke: #000000"/>
     <use xlink:href="#m3791d6d51c" x="164.914167" y="224.51048" style="stroke: #000000"/>
     <use xlink:href="#m3791d6d51c" x="175.92625" y="218.063543" style="stroke: #000000"/>
     <use xlink:href="#m3791d6d51c" x="186.938333" y="209.031304" style="stroke: #000000"/>
     <use xlink:href="#m3791d6d51c" x="197.950417" y="191.853899" style="stroke: #000000"/>
     <use xlink:href="#m3791d6d51c" x="208.9625" y="174.843569" style="stroke: #000000"/>
     <use xlink:href="#m3791d6d51c" x="219.974583" y="157.13994" style="stroke: #000000"/>
     <use xlink:href="#m3791d6d51c" x="230.986667" y="137.064083" style="stroke: #000000"/>
     <use xlink:href="#m3791d6d51c" x="241.99875" y="105.815668" style="stroke: #000000"/>
     <use xlink:href="#m3791d6d51c" x="253.010833" y="75.793726" style="stroke: #000000"/>
     <use xlink:href="#m3791d6d51c" x="264.022917" y="57.043436" style="stroke: #000000"/>
     <use xlink:href="#m3791d6d51c" x="275.035" y="50.870499" style="stroke: #000000"/>
     <use xlink:href="#m3791d6d51c" x="286.047083" y="47.989795" style="stroke: #000000"/>
     <use xlink:href="#m3791d6d51c" x="297.059167" y="50.244793" style="stroke: #000000"/>
     <use xlink:href="#m3791d6d51c" x="308.07125" y="53.307339" style="stroke: #000000"/>
    </g>
   </g>
   <g id="patch_9">
    <path d="M 43.78125 242.518281 
L 43.78125 21.558281 
" style="fill: none; stroke: #000000; stroke-width: 0.8; stroke-linejoin: miter; stroke-linecap: square"/>
   </g>
   <g id="patch_10">
    <path d="M 308.07125 242.518281 
L 308.07125 21.558281 
" style="fill: none; stroke: #000000; stroke-width: 0.8; stroke-linejoin: miter; stroke-linecap: square"/>
   </g>
   <g id="patch_11">
    <path d="M 43.78125 242.518281 
L 308.07125 242.518281 
" style="fill: none; stroke: #000000; stroke-width: 0.8; stroke-linejoin: miter; stroke-linecap: square"/>
   </g>
   <g id="patch_12">
    <path d="M 43.78125 21.558281 
L 308.07125 21.558281 
" style="fill: none; stroke: #000000; stroke-width: 0.8; stroke-linejoin: miter; stroke-linecap: square"/>
   </g>
  </g>
 </g>
 <defs>
  <clipPath id="pccb437a0e2">
   <rect x="43.78125" y="21.558281" width="264.29" height="220.96"/>
  </clipPath>
 </defs>
</svg>
