<?xml version="1.0" encoding="utf-8" standalone="no"?>
<!DOCTYPE svg PUBLIC "-//W3C//DTD SVG 1.1//EN"
  "http://www.w3.org/Graphics/SVG/1.1/DTD/svg11.dtd">
<svg xmlns:xlink="http://www.w3.org/1999/xlink" width="576pt" height="288pt" viewBox="0 0 576 288" xmlns="http://www.w3.org/2000/svg" version="1.1">
 <metadata>
  <rdf:RDF xmlns:dc="http://purl.org/dc/elements/1.1/" xmlns:cc="http://creativecommons.org/ns#" xmlns:rdf="http://www.w3.org/1999/02/22-rdf-syntax-ns#">
   <cc:Work>
    <dc:type rdf:resource="http://purl.org/dc/dcmitype/StillImage"/>
    <dc:date>2025-07-31T15:34:46.055494</dc:date>
    <dc:format>image/svg+xml</dc:format>
    <dc:creator>
     <cc:Agent>
      <dc:title>Matplotlib v3.10.1, https://matplotlib.org/</dc:title>
     </cc:Agent>
    </dc:creator>
   </cc:Work>
  </rdf:RDF>
 </metadata>
 <defs>
  <style type="text/css">*{stroke-linejoin: round; stroke-linecap: butt}</style>
 </defs>
 <g id="figure_1">
  <g id="patch_1">
   <path d="M 0 288 
L 576 288 
L 576 0 
L 0 0 
z
" style="fill: #ffffff"/>
  </g>
  <g id="axes_1">
   <g id="patch_2">
    <path d="M 47.855 246.04 
L 565.2 246.04 
L 565.2 26.16 
L 47.855 26.16 
z
" style="fill: #ffffff"/>
   </g>
   <g id="matplotlib.axis_1">
    <g id="xtick_1">
     <g id="line2d_1">
      <path d="M 71.370682 246.04 
L 71.370682 26.16 
" clip-path="url(#p9f45227756)" style="fill: none; stroke: #808080; stroke-opacity: 0.3; stroke-width: 0.5; stroke-linecap: square"/>
     </g>
     <g id="line2d_2">
      <defs>
       <path id="mb4c1596537" d="M 0 0 
L 0 4 
" style="stroke: #000000; stroke-width: 0.8"/>
      </defs>
      <g>
       <use xlink:href="#mb4c1596537" x="71.370682" y="246.04" style="stroke: #000000; stroke-width: 0.8"/>
      </g>
     </g>
     <g id="text_1">
      <!-- 0.0 -->
      <g transform="translate(63.419119 261.138438) scale(0.1 -0.1)">
       <defs>
        <path id="DejaVuSans-30" d="M 2034 4250 
Q 1547 4250 1301 3770 
Q 1056 3291 1056 2328 
Q 1056 1369 1301 889 
Q 1547 409 2034 409 
Q 2525 409 2770 889 
Q 3016 1369 3016 2328 
Q 3016 3291 2770 3770 
Q 2525 4250 2034 4250 
z
M 2034 4750 
Q 2819 4750 3233 4129 
Q 3647 3509 3647 2328 
Q 3647 1150 3233 529 
Q 2819 -91 2034 -91 
Q 1250 -91 836 529 
Q 422 1150 422 2328 
Q 422 3509 836 4129 
Q 1250 4750 2034 4750 
z
" transform="scale(0.015625)"/>
        <path id="DejaVuSans-2e" d="M 684 794 
L 1344 794 
L 1344 0 
L 684 0 
L 684 794 
z
" transform="scale(0.015625)"/>
       </defs>
       <use xlink:href="#DejaVuSans-30"/>
       <use xlink:href="#DejaVuSans-2e" transform="translate(63.623047 0)"/>
       <use xlink:href="#DejaVuSans-30" transform="translate(95.410156 0)"/>
      </g>
     </g>
    </g>
    <g id="xtick_2">
     <g id="line2d_3">
      <path d="M 149.756288 246.04 
L 149.756288 26.16 
" clip-path="url(#p9f45227756)" style="fill: none; stroke: #808080; stroke-opacity: 0.3; stroke-width: 0.5; stroke-linecap: square"/>
     </g>
     <g id="line2d_4">
      <g>
       <use xlink:href="#mb4c1596537" x="149.756288" y="246.04" style="stroke: #000000; stroke-width: 0.8"/>
      </g>
     </g>
     <g id="text_2">
      <!-- 0.5 -->
      <g transform="translate(141.804725 261.138438) scale(0.1 -0.1)">
       <defs>
        <path id="DejaVuSans-35" d="M 691 4666 
L 3169 4666 
L 3169 4134 
L 1269 4134 
L 1269 2991 
Q 1406 3038 1543 3061 
Q 1681 3084 1819 3084 
Q 2600 3084 3056 2656 
Q 3513 2228 3513 1497 
Q 3513 744 3044 326 
Q 2575 -91 1722 -91 
Q 1428 -91 1123 -41 
Q 819 9 494 109 
L 494 744 
Q 775 591 1075 516 
Q 1375 441 1709 441 
Q 2250 441 2565 725 
Q 2881 1009 2881 1497 
Q 2881 1984 2565 2268 
Q 2250 2553 1709 2553 
Q 1456 2553 1204 2497 
Q 953 2441 691 2322 
L 691 4666 
z
" transform="scale(0.015625)"/>
       </defs>
       <use xlink:href="#DejaVuSans-30"/>
       <use xlink:href="#DejaVuSans-2e" transform="translate(63.623047 0)"/>
       <use xlink:href="#DejaVuSans-35" transform="translate(95.410156 0)"/>
      </g>
     </g>
    </g>
    <g id="xtick_3">
     <g id="line2d_5">
      <path d="M 228.141894 246.04 
L 228.141894 26.16 
" clip-path="url(#p9f45227756)" style="fill: none; stroke: #808080; stroke-opacity: 0.3; stroke-width: 0.5; stroke-linecap: square"/>
     </g>
     <g id="line2d_6">
      <g>
       <use xlink:href="#mb4c1596537" x="228.141894" y="246.04" style="stroke: #000000; stroke-width: 0.8"/>
      </g>
     </g>
     <g id="text_3">
      <!-- 1.0 -->
      <g transform="translate(220.190331 261.138438) scale(0.1 -0.1)">
       <defs>
        <path id="DejaVuSans-31" d="M 794 531 
L 1825 531 
L 1825 4091 
L 703 3866 
L 703 4441 
L 1819 4666 
L 2450 4666 
L 2450 531 
L 3481 531 
L 3481 0 
L 794 0 
L 794 531 
z
" transform="scale(0.015625)"/>
       </defs>
       <use xlink:href="#DejaVuSans-31"/>
       <use xlink:href="#DejaVuSans-2e" transform="translate(63.623047 0)"/>
       <use xlink:href="#DejaVuSans-30" transform="translate(95.410156 0)"/>
      </g>
     </g>
    </g>
    <g id="xtick_4">
     <g id="line2d_7">
      <path d="M 306.5275 246.04 
L 306.5275 26.16 
" clip-path="url(#p9f45227756)" style="fill: none; stroke: #808080; stroke-opacity: 0.3; stroke-width: 0.5; stroke-linecap: square"/>
     </g>
     <g id="line2d_8">
      <g>
       <use xlink:href="#mb4c1596537" x="306.5275" y="246.04" style="stroke: #000000; stroke-width: 0.8"/>
      </g>
     </g>
     <g id="text_4">
      <!-- 1.5 -->
      <g transform="translate(298.575937 261.138438) scale(0.1 -0.1)">
       <use xlink:href="#DejaVuSans-31"/>
       <use xlink:href="#DejaVuSans-2e" transform="translate(63.623047 0)"/>
       <use xlink:href="#DejaVuSans-35" transform="translate(95.410156 0)"/>
      </g>
     </g>
    </g>
    <g id="xtick_5">
     <g id="line2d_9">
      <path d="M 384.913106 246.04 
L 384.913106 26.16 
" clip-path="url(#p9f45227756)" style="fill: none; stroke: #808080; stroke-opacity: 0.3; stroke-width: 0.5; stroke-linecap: square"/>
     </g>
     <g id="line2d_10">
      <g>
       <use xlink:href="#mb4c1596537" x="384.913106" y="246.04" style="stroke: #000000; stroke-width: 0.8"/>
      </g>
     </g>
     <g id="text_5">
      <!-- 2.0 -->
      <g transform="translate(376.961544 261.138438) scale(0.1 -0.1)">
       <defs>
        <path id="DejaVuSans-32" d="M 1228 531 
L 3431 531 
L 3431 0 
L 469 0 
L 469 531 
Q 828 903 1448 1529 
Q 2069 2156 2228 2338 
Q 2531 2678 2651 2914 
Q 2772 3150 2772 3378 
Q 2772 3750 2511 3984 
Q 2250 4219 1831 4219 
Q 1534 4219 1204 4116 
Q 875 4013 500 3803 
L 500 4441 
Q 881 4594 1212 4672 
Q 1544 4750 1819 4750 
Q 2544 4750 2975 4387 
Q 3406 4025 3406 3419 
Q 3406 3131 3298 2873 
Q 3191 2616 2906 2266 
Q 2828 2175 2409 1742 
Q 1991 1309 1228 531 
z
" transform="scale(0.015625)"/>
       </defs>
       <use xlink:href="#DejaVuSans-32"/>
       <use xlink:href="#DejaVuSans-2e" transform="translate(63.623047 0)"/>
       <use xlink:href="#DejaVuSans-30" transform="translate(95.410156 0)"/>
      </g>
     </g>
    </g>
    <g id="xtick_6">
     <g id="line2d_11">
      <path d="M 463.298712 246.04 
L 463.298712 26.16 
" clip-path="url(#p9f45227756)" style="fill: none; stroke: #808080; stroke-opacity: 0.3; stroke-width: 0.5; stroke-linecap: square"/>
     </g>
     <g id="line2d_12">
      <g>
       <use xlink:href="#mb4c1596537" x="463.298712" y="246.04" style="stroke: #000000; stroke-width: 0.8"/>
      </g>
     </g>
     <g id="text_6">
      <!-- 2.5 -->
      <g transform="translate(455.34715 261.138438) scale(0.1 -0.1)">
       <use xlink:href="#DejaVuSans-32"/>
       <use xlink:href="#DejaVuSans-2e" transform="translate(63.623047 0)"/>
       <use xlink:href="#DejaVuSans-35" transform="translate(95.410156 0)"/>
      </g>
     </g>
    </g>
    <g id="xtick_7">
     <g id="line2d_13">
      <path d="M 541.684318 246.04 
L 541.684318 26.16 
" clip-path="url(#p9f45227756)" style="fill: none; stroke: #808080; stroke-opacity: 0.3; stroke-width: 0.5; stroke-linecap: square"/>
     </g>
     <g id="line2d_14">
      <g>
       <use xlink:href="#mb4c1596537" x="541.684318" y="246.04" style="stroke: #000000; stroke-width: 0.8"/>
      </g>
     </g>
     <g id="text_7">
      <!-- 3.0 -->
      <g transform="translate(533.732756 261.138438) scale(0.1 -0.1)">
       <defs>
        <path id="DejaVuSans-33" d="M 2597 2516 
Q 3050 2419 3304 2112 
Q 3559 1806 3559 1356 
Q 3559 666 3084 287 
Q 2609 -91 1734 -91 
Q 1441 -91 1130 -33 
Q 819 25 488 141 
L 488 750 
Q 750 597 1062 519 
Q 1375 441 1716 441 
Q 2309 441 2620 675 
Q 2931 909 2931 1356 
Q 2931 1769 2642 2001 
Q 2353 2234 1838 2234 
L 1294 2234 
L 1294 2753 
L 1863 2753 
Q 2328 2753 2575 2939 
Q 2822 3125 2822 3475 
Q 2822 3834 2567 4026 
Q 2313 4219 1838 4219 
Q 1578 4219 1281 4162 
Q 984 4106 628 3988 
L 628 4550 
Q 988 4650 1302 4700 
Q 1616 4750 1894 4750 
Q 2613 4750 3031 4423 
Q 3450 4097 3450 3541 
Q 3450 3153 3228 2886 
Q 3006 2619 2597 2516 
z
" transform="scale(0.015625)"/>
       </defs>
       <use xlink:href="#DejaVuSans-33"/>
       <use xlink:href="#DejaVuSans-2e" transform="translate(63.623047 0)"/>
       <use xlink:href="#DejaVuSans-30" transform="translate(95.410156 0)"/>
      </g>
     </g>
    </g>
    <g id="text_8">
     <!-- Time [h] -->
     <g transform="translate(285.634531 274.816562) scale(0.1 -0.1)">
      <defs>
       <path id="DejaVuSans-54" d="M -19 4666 
L 3928 4666 
L 3928 4134 
L 2272 4134 
L 2272 0 
L 1638 0 
L 1638 4134 
L -19 4134 
L -19 4666 
z
" transform="scale(0.015625)"/>
       <path id="DejaVuSans-69" d="M 603 3500 
L 1178 3500 
L 1178 0 
L 603 0 
L 603 3500 
z
M 603 4863 
L 1178 4863 
L 1178 4134 
L 603 4134 
L 603 4863 
z
" transform="scale(0.015625)"/>
       <path id="DejaVuSans-6d" d="M 3328 2828 
Q 3544 3216 3844 3400 
Q 4144 3584 4550 3584 
Q 5097 3584 5394 3201 
Q 5691 2819 5691 2113 
L 5691 0 
L 5113 0 
L 5113 2094 
Q 5113 2597 4934 2840 
Q 4756 3084 4391 3084 
Q 3944 3084 3684 2787 
Q 3425 2491 3425 1978 
L 3425 0 
L 2847 0 
L 2847 2094 
Q 2847 2600 2669 2842 
Q 2491 3084 2119 3084 
Q 1678 3084 1418 2786 
Q 1159 2488 1159 1978 
L 1159 0 
L 581 0 
L 581 3500 
L 1159 3500 
L 1159 2956 
Q 1356 3278 1631 3431 
Q 1906 3584 2284 3584 
Q 2666 3584 2933 3390 
Q 3200 3197 3328 2828 
z
" transform="scale(0.015625)"/>
       <path id="DejaVuSans-65" d="M 3597 1894 
L 3597 1613 
L 953 1613 
Q 991 1019 1311 708 
Q 1631 397 2203 397 
Q 2534 397 2845 478 
Q 3156 559 3463 722 
L 3463 178 
Q 3153 47 2828 -22 
Q 2503 -91 2169 -91 
Q 1331 -91 842 396 
Q 353 884 353 1716 
Q 353 2575 817 3079 
Q 1281 3584 2069 3584 
Q 2775 3584 3186 3129 
Q 3597 2675 3597 1894 
z
M 3022 2063 
Q 3016 2534 2758 2815 
Q 2500 3097 2075 3097 
Q 1594 3097 1305 2825 
Q 1016 2553 972 2059 
L 3022 2063 
z
" transform="scale(0.015625)"/>
       <path id="DejaVuSans-20" transform="scale(0.015625)"/>
       <path id="DejaVuSans-5b" d="M 550 4863 
L 1875 4863 
L 1875 4416 
L 1125 4416 
L 1125 -397 
L 1875 -397 
L 1875 -844 
L 550 -844 
L 550 4863 
z
" transform="scale(0.015625)"/>
       <path id="DejaVuSans-68" d="M 3513 2113 
L 3513 0 
L 2938 0 
L 2938 2094 
Q 2938 2591 2744 2837 
Q 2550 3084 2163 3084 
Q 1697 3084 1428 2787 
Q 1159 2491 1159 1978 
L 1159 0 
L 581 0 
L 581 4863 
L 1159 4863 
L 1159 2956 
Q 1366 3272 1645 3428 
Q 1925 3584 2291 3584 
Q 2894 3584 3203 3211 
Q 3513 2838 3513 2113 
z
" transform="scale(0.015625)"/>
       <path id="DejaVuSans-5d" d="M 1947 4863 
L 1947 -844 
L 622 -844 
L 622 -397 
L 1369 -397 
L 1369 4416 
L 622 4416 
L 622 4863 
L 1947 4863 
z
" transform="scale(0.015625)"/>
      </defs>
      <use xlink:href="#DejaVuSans-54"/>
      <use xlink:href="#DejaVuSans-69" transform="translate(57.958984 0)"/>
      <use xlink:href="#DejaVuSans-6d" transform="translate(85.742188 0)"/>
      <use xlink:href="#DejaVuSans-65" transform="translate(183.154297 0)"/>
      <use xlink:href="#DejaVuSans-20" transform="translate(244.677734 0)"/>
      <use xlink:href="#DejaVuSans-5b" transform="translate(276.464844 0)"/>
      <use xlink:href="#DejaVuSans-68" transform="translate(315.478516 0)"/>
      <use xlink:href="#DejaVuSans-5d" transform="translate(378.857422 0)"/>
     </g>
    </g>
   </g>
   <g id="matplotlib.axis_2">
    <g id="ytick_1">
     <g id="line2d_15">
      <path d="M 47.855 221.895032 
L 565.2 221.895032 
" clip-path="url(#p9f45227756)" style="fill: none; stroke: #808080; stroke-opacity: 0.3; stroke-width: 0.5; stroke-linecap: square"/>
     </g>
     <g id="line2d_16">
      <defs>
       <path id="m9ac60f8d54" d="M 0 0 
L -4 0 
" style="stroke: #000000; stroke-width: 0.8"/>
      </defs>
      <g>
       <use xlink:href="#m9ac60f8d54" x="47.855" y="221.895032" style="stroke: #000000; stroke-width: 0.8"/>
      </g>
     </g>
     <g id="text_9">
      <!-- 0.2 -->
      <g transform="translate(24.451875 225.694251) scale(0.1 -0.1)">
       <use xlink:href="#DejaVuSans-30"/>
       <use xlink:href="#DejaVuSans-2e" transform="translate(63.623047 0)"/>
       <use xlink:href="#DejaVuSans-32" transform="translate(95.410156 0)"/>
      </g>
     </g>
    </g>
    <g id="ytick_2">
     <g id="line2d_17">
      <path d="M 47.855 192.537309 
L 565.2 192.537309 
" clip-path="url(#p9f45227756)" style="fill: none; stroke: #808080; stroke-opacity: 0.3; stroke-width: 0.5; stroke-linecap: square"/>
     </g>
     <g id="line2d_18">
      <g>
       <use xlink:href="#m9ac60f8d54" x="47.855" y="192.537309" style="stroke: #000000; stroke-width: 0.8"/>
      </g>
     </g>
     <g id="text_10">
      <!-- 0.3 -->
      <g transform="translate(24.451875 196.336527) scale(0.1 -0.1)">
       <use xlink:href="#DejaVuSans-30"/>
       <use xlink:href="#DejaVuSans-2e" transform="translate(63.623047 0)"/>
       <use xlink:href="#DejaVuSans-33" transform="translate(95.410156 0)"/>
      </g>
     </g>
    </g>
    <g id="ytick_3">
     <g id="line2d_19">
      <path d="M 47.855 163.179585 
L 565.2 163.179585 
" clip-path="url(#p9f45227756)" style="fill: none; stroke: #808080; stroke-opacity: 0.3; stroke-width: 0.5; stroke-linecap: square"/>
     </g>
     <g id="line2d_20">
      <g>
       <use xlink:href="#m9ac60f8d54" x="47.855" y="163.179585" style="stroke: #000000; stroke-width: 0.8"/>
      </g>
     </g>
     <g id="text_11">
      <!-- 0.4 -->
      <g transform="translate(24.451875 166.978804) scale(0.1 -0.1)">
       <defs>
        <path id="DejaVuSans-34" d="M 2419 4116 
L 825 1625 
L 2419 1625 
L 2419 4116 
z
M 2253 4666 
L 3047 4666 
L 3047 1625 
L 3713 1625 
L 3713 1100 
L 3047 1100 
L 3047 0 
L 2419 0 
L 2419 1100 
L 313 1100 
L 313 1709 
L 2253 4666 
z
" transform="scale(0.015625)"/>
       </defs>
       <use xlink:href="#DejaVuSans-30"/>
       <use xlink:href="#DejaVuSans-2e" transform="translate(63.623047 0)"/>
       <use xlink:href="#DejaVuSans-34" transform="translate(95.410156 0)"/>
      </g>
     </g>
    </g>
    <g id="ytick_4">
     <g id="line2d_21">
      <path d="M 47.855 133.821862 
L 565.2 133.821862 
" clip-path="url(#p9f45227756)" style="fill: none; stroke: #808080; stroke-opacity: 0.3; stroke-width: 0.5; stroke-linecap: square"/>
     </g>
     <g id="line2d_22">
      <g>
       <use xlink:href="#m9ac60f8d54" x="47.855" y="133.821862" style="stroke: #000000; stroke-width: 0.8"/>
      </g>
     </g>
     <g id="text_12">
      <!-- 0.5 -->
      <g transform="translate(24.451875 137.621081) scale(0.1 -0.1)">
       <use xlink:href="#DejaVuSans-30"/>
       <use xlink:href="#DejaVuSans-2e" transform="translate(63.623047 0)"/>
       <use xlink:href="#DejaVuSans-35" transform="translate(95.410156 0)"/>
      </g>
     </g>
    </g>
    <g id="ytick_5">
     <g id="line2d_23">
      <path d="M 47.855 104.464139 
L 565.2 104.464139 
" clip-path="url(#p9f45227756)" style="fill: none; stroke: #808080; stroke-opacity: 0.3; stroke-width: 0.5; stroke-linecap: square"/>
     </g>
     <g id="line2d_24">
      <g>
       <use xlink:href="#m9ac60f8d54" x="47.855" y="104.464139" style="stroke: #000000; stroke-width: 0.8"/>
      </g>
     </g>
     <g id="text_13">
      <!-- 0.6 -->
      <g transform="translate(24.451875 108.263357) scale(0.1 -0.1)">
       <defs>
        <path id="DejaVuSans-36" d="M 2113 2584 
Q 1688 2584 1439 2293 
Q 1191 2003 1191 1497 
Q 1191 994 1439 701 
Q 1688 409 2113 409 
Q 2538 409 2786 701 
Q 3034 994 3034 1497 
Q 3034 2003 2786 2293 
Q 2538 2584 2113 2584 
z
M 3366 4563 
L 3366 3988 
Q 3128 4100 2886 4159 
Q 2644 4219 2406 4219 
Q 1781 4219 1451 3797 
Q 1122 3375 1075 2522 
Q 1259 2794 1537 2939 
Q 1816 3084 2150 3084 
Q 2853 3084 3261 2657 
Q 3669 2231 3669 1497 
Q 3669 778 3244 343 
Q 2819 -91 2113 -91 
Q 1303 -91 875 529 
Q 447 1150 447 2328 
Q 447 3434 972 4092 
Q 1497 4750 2381 4750 
Q 2619 4750 2861 4703 
Q 3103 4656 3366 4563 
z
" transform="scale(0.015625)"/>
       </defs>
       <use xlink:href="#DejaVuSans-30"/>
       <use xlink:href="#DejaVuSans-2e" transform="translate(63.623047 0)"/>
       <use xlink:href="#DejaVuSans-36" transform="translate(95.410156 0)"/>
      </g>
     </g>
    </g>
    <g id="ytick_6">
     <g id="line2d_25">
      <path d="M 47.855 75.106415 
L 565.2 75.106415 
" clip-path="url(#p9f45227756)" style="fill: none; stroke: #808080; stroke-opacity: 0.3; stroke-width: 0.5; stroke-linecap: square"/>
     </g>
     <g id="line2d_26">
      <g>
       <use xlink:href="#m9ac60f8d54" x="47.855" y="75.106415" style="stroke: #000000; stroke-width: 0.8"/>
      </g>
     </g>
     <g id="text_14">
      <!-- 0.7 -->
      <g transform="translate(24.451875 78.905634) scale(0.1 -0.1)">
       <defs>
        <path id="DejaVuSans-37" d="M 525 4666 
L 3525 4666 
L 3525 4397 
L 1831 0 
L 1172 0 
L 2766 4134 
L 525 4134 
L 525 4666 
z
" transform="scale(0.015625)"/>
       </defs>
       <use xlink:href="#DejaVuSans-30"/>
       <use xlink:href="#DejaVuSans-2e" transform="translate(63.623047 0)"/>
       <use xlink:href="#DejaVuSans-37" transform="translate(95.410156 0)"/>
      </g>
     </g>
    </g>
    <g id="ytick_7">
     <g id="line2d_27">
      <path d="M 47.855 45.748692 
L 565.2 45.748692 
" clip-path="url(#p9f45227756)" style="fill: none; stroke: #808080; stroke-opacity: 0.3; stroke-width: 0.5; stroke-linecap: square"/>
     </g>
     <g id="line2d_28">
      <g>
       <use xlink:href="#m9ac60f8d54" x="47.855" y="45.748692" style="stroke: #000000; stroke-width: 0.8"/>
      </g>
     </g>
     <g id="text_15">
      <!-- 0.8 -->
      <g transform="translate(24.451875 49.547911) scale(0.1 -0.1)">
       <defs>
        <path id="DejaVuSans-38" d="M 2034 2216 
Q 1584 2216 1326 1975 
Q 1069 1734 1069 1313 
Q 1069 891 1326 650 
Q 1584 409 2034 409 
Q 2484 409 2743 651 
Q 3003 894 3003 1313 
Q 3003 1734 2745 1975 
Q 2488 2216 2034 2216 
z
M 1403 2484 
Q 997 2584 770 2862 
Q 544 3141 544 3541 
Q 544 4100 942 4425 
Q 1341 4750 2034 4750 
Q 2731 4750 3128 4425 
Q 3525 4100 3525 3541 
Q 3525 3141 3298 2862 
Q 3072 2584 2669 2484 
Q 3125 2378 3379 2068 
Q 3634 1759 3634 1313 
Q 3634 634 3220 271 
Q 2806 -91 2034 -91 
Q 1263 -91 848 271 
Q 434 634 434 1313 
Q 434 1759 690 2068 
Q 947 2378 1403 2484 
z
M 1172 3481 
Q 1172 3119 1398 2916 
Q 1625 2713 2034 2713 
Q 2441 2713 2670 2916 
Q 2900 3119 2900 3481 
Q 2900 3844 2670 4047 
Q 2441 4250 2034 4250 
Q 1625 4250 1398 4047 
Q 1172 3844 1172 3481 
z
" transform="scale(0.015625)"/>
       </defs>
       <use xlink:href="#DejaVuSans-30"/>
       <use xlink:href="#DejaVuSans-2e" transform="translate(63.623047 0)"/>
       <use xlink:href="#DejaVuSans-38" transform="translate(95.410156 0)"/>
      </g>
     </g>
    </g>
    <g id="text_16">
     <!-- Growth Level [g/L] -->
     <g transform="translate(18.372187 182.11875) rotate(-90) scale(0.1 -0.1)">
      <defs>
       <path id="DejaVuSans-47" d="M 3809 666 
L 3809 1919 
L 2778 1919 
L 2778 2438 
L 4434 2438 
L 4434 434 
Q 4069 175 3628 42 
Q 3188 -91 2688 -91 
Q 1594 -91 976 548 
Q 359 1188 359 2328 
Q 359 3472 976 4111 
Q 1594 4750 2688 4750 
Q 3144 4750 3555 4637 
Q 3966 4525 4313 4306 
L 4313 3634 
Q 3963 3931 3569 4081 
Q 3175 4231 2741 4231 
Q 1884 4231 1454 3753 
Q 1025 3275 1025 2328 
Q 1025 1384 1454 906 
Q 1884 428 2741 428 
Q 3075 428 3337 486 
Q 3600 544 3809 666 
z
" transform="scale(0.015625)"/>
       <path id="DejaVuSans-72" d="M 2631 2963 
Q 2534 3019 2420 3045 
Q 2306 3072 2169 3072 
Q 1681 3072 1420 2755 
Q 1159 2438 1159 1844 
L 1159 0 
L 581 0 
L 581 3500 
L 1159 3500 
L 1159 2956 
Q 1341 3275 1631 3429 
Q 1922 3584 2338 3584 
Q 2397 3584 2469 3576 
Q 2541 3569 2628 3553 
L 2631 2963 
z
" transform="scale(0.015625)"/>
       <path id="DejaVuSans-6f" d="M 1959 3097 
Q 1497 3097 1228 2736 
Q 959 2375 959 1747 
Q 959 1119 1226 758 
Q 1494 397 1959 397 
Q 2419 397 2687 759 
Q 2956 1122 2956 1747 
Q 2956 2369 2687 2733 
Q 2419 3097 1959 3097 
z
M 1959 3584 
Q 2709 3584 3137 3096 
Q 3566 2609 3566 1747 
Q 3566 888 3137 398 
Q 2709 -91 1959 -91 
Q 1206 -91 779 398 
Q 353 888 353 1747 
Q 353 2609 779 3096 
Q 1206 3584 1959 3584 
z
" transform="scale(0.015625)"/>
       <path id="DejaVuSans-77" d="M 269 3500 
L 844 3500 
L 1563 769 
L 2278 3500 
L 2956 3500 
L 3675 769 
L 4391 3500 
L 4966 3500 
L 4050 0 
L 3372 0 
L 2619 2869 
L 1863 0 
L 1184 0 
L 269 3500 
z
" transform="scale(0.015625)"/>
       <path id="DejaVuSans-74" d="M 1172 4494 
L 1172 3500 
L 2356 3500 
L 2356 3053 
L 1172 3053 
L 1172 1153 
Q 1172 725 1289 603 
Q 1406 481 1766 481 
L 2356 481 
L 2356 0 
L 1766 0 
Q 1100 0 847 248 
Q 594 497 594 1153 
L 594 3053 
L 172 3053 
L 172 3500 
L 594 3500 
L 594 4494 
L 1172 4494 
z
" transform="scale(0.015625)"/>
       <path id="DejaVuSans-4c" d="M 628 4666 
L 1259 4666 
L 1259 531 
L 3531 531 
L 3531 0 
L 628 0 
L 628 4666 
z
" transform="scale(0.015625)"/>
       <path id="DejaVuSans-76" d="M 191 3500 
L 800 3500 
L 1894 563 
L 2988 3500 
L 3597 3500 
L 2284 0 
L 1503 0 
L 191 3500 
z
" transform="scale(0.015625)"/>
       <path id="DejaVuSans-6c" d="M 603 4863 
L 1178 4863 
L 1178 0 
L 603 0 
L 603 4863 
z
" transform="scale(0.015625)"/>
       <path id="DejaVuSans-67" d="M 2906 1791 
Q 2906 2416 2648 2759 
Q 2391 3103 1925 3103 
Q 1463 3103 1205 2759 
Q 947 2416 947 1791 
Q 947 1169 1205 825 
Q 1463 481 1925 481 
Q 2391 481 2648 825 
Q 2906 1169 2906 1791 
z
M 3481 434 
Q 3481 -459 3084 -895 
Q 2688 -1331 1869 -1331 
Q 1566 -1331 1297 -1286 
Q 1028 -1241 775 -1147 
L 775 -588 
Q 1028 -725 1275 -790 
Q 1522 -856 1778 -856 
Q 2344 -856 2625 -561 
Q 2906 -266 2906 331 
L 2906 616 
Q 2728 306 2450 153 
Q 2172 0 1784 0 
Q 1141 0 747 490 
Q 353 981 353 1791 
Q 353 2603 747 3093 
Q 1141 3584 1784 3584 
Q 2172 3584 2450 3431 
Q 2728 3278 2906 2969 
L 2906 3500 
L 3481 3500 
L 3481 434 
z
" transform="scale(0.015625)"/>
       <path id="DejaVuSans-2f" d="M 1625 4666 
L 2156 4666 
L 531 -594 
L 0 -594 
L 1625 4666 
z
" transform="scale(0.015625)"/>
      </defs>
      <use xlink:href="#DejaVuSans-47"/>
      <use xlink:href="#DejaVuSans-72" transform="translate(77.490234 0)"/>
      <use xlink:href="#DejaVuSans-6f" transform="translate(116.353516 0)"/>
      <use xlink:href="#DejaVuSans-77" transform="translate(177.535156 0)"/>
      <use xlink:href="#DejaVuSans-74" transform="translate(259.322266 0)"/>
      <use xlink:href="#DejaVuSans-68" transform="translate(298.53125 0)"/>
      <use xlink:href="#DejaVuSans-20" transform="translate(361.910156 0)"/>
      <use xlink:href="#DejaVuSans-4c" transform="translate(393.697266 0)"/>
      <use xlink:href="#DejaVuSans-65" transform="translate(447.660156 0)"/>
      <use xlink:href="#DejaVuSans-76" transform="translate(509.183594 0)"/>
      <use xlink:href="#DejaVuSans-65" transform="translate(568.363281 0)"/>
      <use xlink:href="#DejaVuSans-6c" transform="translate(629.886719 0)"/>
      <use xlink:href="#DejaVuSans-20" transform="translate(657.669922 0)"/>
      <use xlink:href="#DejaVuSans-5b" transform="translate(689.457031 0)"/>
      <use xlink:href="#DejaVuSans-67" transform="translate(728.470703 0)"/>
      <use xlink:href="#DejaVuSans-2f" transform="translate(791.947266 0)"/>
      <use xlink:href="#DejaVuSans-4c" transform="translate(825.638672 0)"/>
      <use xlink:href="#DejaVuSans-5d" transform="translate(881.351562 0)"/>
     </g>
    </g>
   </g>
   <g id="line2d_29">
    <path d="M 71.370682 236.045455 
L 73.889086 235.556427 
L 99.073125 230.361264 
L 131.545249 222.769511 
L 163.336468 214.227962 
L 194.123807 204.757098 
L 223.921824 194.307593 
L 252.751857 182.832003 
L 280.626865 170.291345 
L 307.549854 156.659356 
L 333.511525 141.928534 
L 358.483741 126.120941 
L 382.397908 109.314523 
L 405.058715 91.734707 
L 421.54383 77.857806 
L 433.408214 67.280402 
L 441.937676 59.373408 
L 448.099524 53.515353 
L 452.610937 49.163224 
L 455.952403 45.920251 
L 458.457768 43.492488 
L 460.35789 41.667492 
L 461.815702 40.290426 
L 462.947418 39.248304 
L 463.837008 38.458206 
L 464.545628 37.85911 
L 465.117885 37.406111 
L 465.58599 37.066163 
L 465.972984 36.814479 
L 466.296233 36.631139 
L 466.57064 36.498992 
L 466.809514 36.403794 
L 467.023859 36.334807 
L 467.238204 36.280932 
L 467.436543 36.243289 
L 467.624771 36.2168 
L 467.808876 36.197928 
L 467.993244 36.184428 
L 468.181392 36.1748 
L 468.376405 36.167993 
L 468.581214 36.163248 
L 468.798812 36.160007 
L 469.032446 36.157848 
L 469.285824 36.156456 
L 469.563377 36.155593 
L 469.870608 36.155083 
L 470.214599 36.1548 
L 470.604785 36.154655 
L 471.054197 36.154587 
L 471.581539 36.154559 
L 472.214872 36.154549 
L 472.99847 36.154546 
L 474.005983 36.154546 
L 475.361164 36.154545 
L 477.191673 36.154546 
L 478.745935 36.154546 
L 480.300197 36.154546 
L 481.886414 36.154546 
L 483.42759 36.154546 
L 484.900375 36.154546 
L 486.362491 36.154546 
L 487.885926 36.154546 
L 489.474096 36.154546 
L 491.049647 36.154546 
L 492.547611 36.154546 
L 493.996366 36.154546 
L 495.482002 36.154546 
L 497.051899 36.154546 
L 498.653694 36.154546 
L 500.190999 36.154546 
L 501.645505 36.154546 
L 503.096296 36.154546 
L 504.629264 36.154546 
L 506.238331 36.154546 
L 507.820598 36.154546 
L 509.303046 36.154546 
L 510.732829 36.154546 
L 512.218062 36.154546 
L 513.808538 36.154546 
L 515.428115 36.154546 
L 516.958174 36.154546 
L 518.390014 36.154546 
L 519.828999 36.154546 
L 521.375822 36.154546 
L 523.01035 36.154546 
L 524.598125 36.154546 
L 526.060079 36.154546 
L 527.468155 36.154546 
L 528.955528 36.154546 
L 530.572245 36.154546 
L 532.211395 36.154546 
L 533.729926 36.154546 
L 535.13462 36.154546 
L 536.561967 36.154546 
L 538.127732 36.154546 
L 539.792291 36.154546 
L 541.383428 36.154546 
L 541.684318 36.154546 
" clip-path="url(#p9f45227756)" style="fill: none; stroke: #000000; stroke-width: 1.5; stroke-linecap: square"/>
    <defs>
     <path id="m2a821273a2" d="M 0 3 
C 0.795609 3 1.55874 2.683901 2.12132 2.12132 
C 2.683901 1.55874 3 0.795609 3 0 
C 3 -0.795609 2.683901 -1.55874 2.12132 -2.12132 
C 1.55874 -2.683901 0.795609 -3 0 -3 
C -0.795609 -3 -1.55874 -2.683901 -2.12132 -2.12132 
C -2.683901 -1.55874 -3 -0.795609 -3 0 
C -3 0.795609 -2.683901 1.55874 -2.12132 2.12132 
C -1.55874 2.683901 -0.795609 3 0 3 
z
" style="stroke: #000000"/>
    </defs>
    <g clip-path="url(#p9f45227756)">
     <use xlink:href="#m2a821273a2" x="71.370682" y="236.045455" style="stroke: #000000"/>
     <use xlink:href="#m2a821273a2" x="73.889086" y="235.556427" style="stroke: #000000"/>
     <use xlink:href="#m2a821273a2" x="99.073125" y="230.361264" style="stroke: #000000"/>
     <use xlink:href="#m2a821273a2" x="131.545249" y="222.769511" style="stroke: #000000"/>
     <use xlink:href="#m2a821273a2" x="163.336468" y="214.227962" style="stroke: #000000"/>
     <use xlink:href="#m2a821273a2" x="194.123807" y="204.757098" style="stroke: #000000"/>
     <use xlink:href="#m2a821273a2" x="223.921824" y="194.307593" style="stroke: #000000"/>
     <use xlink:href="#m2a821273a2" x="252.751857" y="182.832003" style="stroke: #000000"/>
     <use xlink:href="#m2a821273a2" x="280.626865" y="170.291345" style="stroke: #000000"/>
     <use xlink:href="#m2a821273a2" x="307.549854" y="156.659356" style="stroke: #000000"/>
     <use xlink:href="#m2a821273a2" x="333.511525" y="141.928534" style="stroke: #000000"/>
     <use xlink:href="#m2a821273a2" x="358.483741" y="126.120941" style="stroke: #000000"/>
     <use xlink:href="#m2a821273a2" x="382.397908" y="109.314523" style="stroke: #000000"/>
     <use xlink:href="#m2a821273a2" x="405.058715" y="91.734707" style="stroke: #000000"/>
     <use xlink:href="#m2a821273a2" x="421.54383" y="77.857806" style="stroke: #000000"/>
     <use xlink:href="#m2a821273a2" x="433.408214" y="67.280402" style="stroke: #000000"/>
     <use xlink:href="#m2a821273a2" x="441.937676" y="59.373408" style="stroke: #000000"/>
     <use xlink:href="#m2a821273a2" x="448.099524" y="53.515353" style="stroke: #000000"/>
     <use xlink:href="#m2a821273a2" x="452.610937" y="49.163224" style="stroke: #000000"/>
     <use xlink:href="#m2a821273a2" x="455.952403" y="45.920251" style="stroke: #000000"/>
     <use xlink:href="#m2a821273a2" x="458.457768" y="43.492488" style="stroke: #000000"/>
     <use xlink:href="#m2a821273a2" x="460.35789" y="41.667492" style="stroke: #000000"/>
     <use xlink:href="#m2a821273a2" x="461.815702" y="40.290426" style="stroke: #000000"/>
     <use xlink:href="#m2a821273a2" x="462.947418" y="39.248304" style="stroke: #000000"/>
     <use xlink:href="#m2a821273a2" x="463.837008" y="38.458206" style="stroke: #000000"/>
     <use xlink:href="#m2a821273a2" x="464.545628" y="37.85911" style="stroke: #000000"/>
     <use xlink:href="#m2a821273a2" x="465.117885" y="37.406111" style="stroke: #000000"/>
     <use xlink:href="#m2a821273a2" x="465.58599" y="37.066163" style="stroke: #000000"/>
     <use xlink:href="#m2a821273a2" x="465.972984" y="36.814479" style="stroke: #000000"/>
     <use xlink:href="#m2a821273a2" x="466.296233" y="36.631139" style="stroke: #000000"/>
     <use xlink:href="#m2a821273a2" x="466.57064" y="36.498992" style="stroke: #000000"/>
     <use xlink:href="#m2a821273a2" x="466.809514" y="36.403794" style="stroke: #000000"/>
     <use xlink:href="#m2a821273a2" x="467.023859" y="36.334807" style="stroke: #000000"/>
     <use xlink:href="#m2a821273a2" x="467.238204" y="36.280932" style="stroke: #000000"/>
     <use xlink:href="#m2a821273a2" x="467.436543" y="36.243289" style="stroke: #000000"/>
     <use xlink:href="#m2a821273a2" x="467.624771" y="36.2168" style="stroke: #000000"/>
     <use xlink:href="#m2a821273a2" x="467.808876" y="36.197928" style="stroke: #000000"/>
     <use xlink:href="#m2a821273a2" x="467.993244" y="36.184428" style="stroke: #000000"/>
     <use xlink:href="#m2a821273a2" x="468.181392" y="36.1748" style="stroke: #000000"/>
     <use xlink:href="#m2a821273a2" x="468.376405" y="36.167993" style="stroke: #000000"/>
     <use xlink:href="#m2a821273a2" x="468.581214" y="36.163248" style="stroke: #000000"/>
     <use xlink:href="#m2a821273a2" x="468.798812" y="36.160007" style="stroke: #000000"/>
     <use xlink:href="#m2a821273a2" x="469.032446" y="36.157848" style="stroke: #000000"/>
     <use xlink:href="#m2a821273a2" x="469.285824" y="36.156456" style="stroke: #000000"/>
     <use xlink:href="#m2a821273a2" x="469.563377" y="36.155593" style="stroke: #000000"/>
     <use xlink:href="#m2a821273a2" x="469.870608" y="36.155083" style="stroke: #000000"/>
     <use xlink:href="#m2a821273a2" x="470.214599" y="36.1548" style="stroke: #000000"/>
     <use xlink:href="#m2a821273a2" x="470.604785" y="36.154655" style="stroke: #000000"/>
     <use xlink:href="#m2a821273a2" x="471.054197" y="36.154587" style="stroke: #000000"/>
     <use xlink:href="#m2a821273a2" x="471.581539" y="36.154559" style="stroke: #000000"/>
     <use xlink:href="#m2a821273a2" x="472.214872" y="36.154549" style="stroke: #000000"/>
     <use xlink:href="#m2a821273a2" x="472.99847" y="36.154546" style="stroke: #000000"/>
     <use xlink:href="#m2a821273a2" x="474.005983" y="36.154546" style="stroke: #000000"/>
     <use xlink:href="#m2a821273a2" x="475.361164" y="36.154545" style="stroke: #000000"/>
     <use xlink:href="#m2a821273a2" x="477.191673" y="36.154546" style="stroke: #000000"/>
     <use xlink:href="#m2a821273a2" x="478.745935" y="36.154546" style="stroke: #000000"/>
     <use xlink:href="#m2a821273a2" x="480.300197" y="36.154546" style="stroke: #000000"/>
     <use xlink:href="#m2a821273a2" x="481.886414" y="36.154546" style="stroke: #000000"/>
     <use xlink:href="#m2a821273a2" x="483.42759" y="36.154546" style="stroke: #000000"/>
     <use xlink:href="#m2a821273a2" x="484.900375" y="36.154546" style="stroke: #000000"/>
     <use xlink:href="#m2a821273a2" x="486.362491" y="36.154546" style="stroke: #000000"/>
     <use xlink:href="#m2a821273a2" x="487.885926" y="36.154546" style="stroke: #000000"/>
     <use xlink:href="#m2a821273a2" x="489.474096" y="36.154546" style="stroke: #000000"/>
     <use xlink:href="#m2a821273a2" x="491.049647" y="36.154546" style="stroke: #000000"/>
     <use xlink:href="#m2a821273a2" x="492.547611" y="36.154546" style="stroke: #000000"/>
     <use xlink:href="#m2a821273a2" x="493.996366" y="36.154546" style="stroke: #000000"/>
     <use xlink:href="#m2a821273a2" x="495.482002" y="36.154546" style="stroke: #000000"/>
     <use xlink:href="#m2a821273a2" x="497.051899" y="36.154546" style="stroke: #000000"/>
     <use xlink:href="#m2a821273a2" x="498.653694" y="36.154546" style="stroke: #000000"/>
     <use xlink:href="#m2a821273a2" x="500.190999" y="36.154546" style="stroke: #000000"/>
     <use xlink:href="#m2a821273a2" x="501.645505" y="36.154546" style="stroke: #000000"/>
     <use xlink:href="#m2a821273a2" x="503.096296" y="36.154546" style="stroke: #000000"/>
     <use xlink:href="#m2a821273a2" x="504.629264" y="36.154546" style="stroke: #000000"/>
     <use xlink:href="#m2a821273a2" x="506.238331" y="36.154546" style="stroke: #000000"/>
     <use xlink:href="#m2a821273a2" x="507.820598" y="36.154546" style="stroke: #000000"/>
     <use xlink:href="#m2a821273a2" x="509.303046" y="36.154546" style="stroke: #000000"/>
     <use xlink:href="#m2a821273a2" x="510.732829" y="36.154546" style="stroke: #000000"/>
     <use xlink:href="#m2a821273a2" x="512.218062" y="36.154546" style="stroke: #000000"/>
     <use xlink:href="#m2a821273a2" x="513.808538" y="36.154546" style="stroke: #000000"/>
     <use xlink:href="#m2a821273a2" x="515.428115" y="36.154546" style="stroke: #000000"/>
     <use xlink:href="#m2a821273a2" x="516.958174" y="36.154546" style="stroke: #000000"/>
     <use xlink:href="#m2a821273a2" x="518.390014" y="36.154546" style="stroke: #000000"/>
     <use xlink:href="#m2a821273a2" x="519.828999" y="36.154546" style="stroke: #000000"/>
     <use xlink:href="#m2a821273a2" x="521.375822" y="36.154546" style="stroke: #000000"/>
     <use xlink:href="#m2a821273a2" x="523.01035" y="36.154546" style="stroke: #000000"/>
     <use xlink:href="#m2a821273a2" x="524.598125" y="36.154546" style="stroke: #000000"/>
     <use xlink:href="#m2a821273a2" x="526.060079" y="36.154546" style="stroke: #000000"/>
     <use xlink:href="#m2a821273a2" x="527.468155" y="36.154546" style="stroke: #000000"/>
     <use xlink:href="#m2a821273a2" x="528.955528" y="36.154546" style="stroke: #000000"/>
     <use xlink:href="#m2a821273a2" x="530.572245" y="36.154546" style="stroke: #000000"/>
     <use xlink:href="#m2a821273a2" x="532.211395" y="36.154546" style="stroke: #000000"/>
     <use xlink:href="#m2a821273a2" x="533.729926" y="36.154546" style="stroke: #000000"/>
     <use xlink:href="#m2a821273a2" x="535.13462" y="36.154546" style="stroke: #000000"/>
     <use xlink:href="#m2a821273a2" x="536.561967" y="36.154546" style="stroke: #000000"/>
     <use xlink:href="#m2a821273a2" x="538.127732" y="36.154546" style="stroke: #000000"/>
     <use xlink:href="#m2a821273a2" x="539.792291" y="36.154546" style="stroke: #000000"/>
     <use xlink:href="#m2a821273a2" x="541.383428" y="36.154546" style="stroke: #000000"/>
     <use xlink:href="#m2a821273a2" x="541.684318" y="36.154546" style="stroke: #000000"/>
    </g>
   </g>
   <g id="patch_3">
    <path d="M 47.855 246.04 
L 47.855 26.16 
" style="fill: none; stroke: #000000; stroke-width: 0.8; stroke-linejoin: miter; stroke-linecap: square"/>
   </g>
   <g id="patch_4">
    <path d="M 47.855 246.04 
L 565.2 246.04 
" style="fill: none; stroke: #000000; stroke-width: 0.8; stroke-linejoin: miter; stroke-linecap: square"/>
   </g>
   <g id="text_17">
    <!-- E. coli Growth -->
    <g transform="translate(264.998125 20.16) scale(0.12 -0.12)">
     <defs>
      <path id="DejaVuSans-45" d="M 628 4666 
L 3578 4666 
L 3578 4134 
L 1259 4134 
L 1259 2753 
L 3481 2753 
L 3481 2222 
L 1259 2222 
L 1259 531 
L 3634 531 
L 3634 0 
L 628 0 
L 628 4666 
z
" transform="scale(0.015625)"/>
      <path id="DejaVuSans-63" d="M 3122 3366 
L 3122 2828 
Q 2878 2963 2633 3030 
Q 2388 3097 2138 3097 
Q 1578 3097 1268 2742 
Q 959 2388 959 1747 
Q 959 1106 1268 751 
Q 1578 397 2138 397 
Q 2388 397 2633 464 
Q 2878 531 3122 666 
L 3122 134 
Q 2881 22 2623 -34 
Q 2366 -91 2075 -91 
Q 1284 -91 818 406 
Q 353 903 353 1747 
Q 353 2603 823 3093 
Q 1294 3584 2113 3584 
Q 2378 3584 2631 3529 
Q 2884 3475 3122 3366 
z
" transform="scale(0.015625)"/>
     </defs>
     <use xlink:href="#DejaVuSans-45"/>
     <use xlink:href="#DejaVuSans-2e" transform="translate(63.183594 0)"/>
     <use xlink:href="#DejaVuSans-20" transform="translate(94.970703 0)"/>
     <use xlink:href="#DejaVuSans-63" transform="translate(126.757812 0)"/>
     <use xlink:href="#DejaVuSans-6f" transform="translate(181.738281 0)"/>
     <use xlink:href="#DejaVuSans-6c" transform="translate(242.919922 0)"/>
     <use xlink:href="#DejaVuSans-69" transform="translate(270.703125 0)"/>
     <use xlink:href="#DejaVuSans-20" transform="translate(298.486328 0)"/>
     <use xlink:href="#DejaVuSans-47" transform="translate(330.273438 0)"/>
     <use xlink:href="#DejaVuSans-72" transform="translate(407.763672 0)"/>
     <use xlink:href="#DejaVuSans-6f" transform="translate(446.626953 0)"/>
     <use xlink:href="#DejaVuSans-77" transform="translate(507.808594 0)"/>
     <use xlink:href="#DejaVuSans-74" transform="translate(589.595703 0)"/>
     <use xlink:href="#DejaVuSans-68" transform="translate(628.804688 0)"/>
    </g>
   </g>
  </g>
 </g>
 <defs>
  <clipPath id="p9f45227756">
   <rect x="47.855" y="26.16" width="517.345" height="219.88"/>
  </clipPath>
 </defs>
</svg>
