<?xml version="1.0" encoding="utf-8" standalone="no"?>
<!DOCTYPE svg PUBLIC "-//W3C//DTD SVG 1.1//EN"
  "http://www.w3.org/Graphics/SVG/1.1/DTD/svg11.dtd">
<svg xmlns:xlink="http://www.w3.org/1999/xlink" width="576pt" height="288pt" viewBox="0 0 576 288" xmlns="http://www.w3.org/2000/svg" version="1.1">
 <metadata>
  <rdf:RDF xmlns:dc="http://purl.org/dc/elements/1.1/" xmlns:cc="http://creativecommons.org/ns#" xmlns:rdf="http://www.w3.org/1999/02/22-rdf-syntax-ns#">
   <cc:Work>
    <dc:type rdf:resource="http://purl.org/dc/dcmitype/StillImage"/>
    <dc:date>2025-07-11T11:24:13.827245</dc:date>
    <dc:format>image/svg+xml</dc:format>
    <dc:creator>
     <cc:Agent>
      <dc:title>Matplotlib v3.10.1, https://matplotlib.org/</dc:title>
     </cc:Agent>
    </dc:creator>
   </cc:Work>
  </rdf:RDF>
 </metadata>
 <defs>
  <style type="text/css">*{stroke-linejoin: round; stroke-linecap: butt}</style>
 </defs>
 <g id="figure_1">
  <g id="patch_1">
   <path d="M 0 288 
L 576 288 
L 576 0 
L 0 0 
z
" style="fill: #ffffff"/>
  </g>
  <g id="axes_1">
   <g id="patch_2">
    <path d="M 67.525 245.54 
L 308.9625 245.54 
L 308.9625 26.16 
L 67.525 26.16 
z
" style="fill: #ffffff"/>
   </g>
   <g id="matplotlib.axis_1">
    <g id="xtick_1">
     <g id="line2d_1">
      <path d="M 78.499432 245.54 
L 78.499432 26.16 
" clip-path="url(#pf15ca2f2d6)" style="fill: none; stroke: #b0b0b0; stroke-opacity: 0.3; stroke-width: 0.5; stroke-linecap: square"/>
     </g>
     <g id="line2d_2">
      <defs>
       <path id="me5a354ac1d" d="M 0 0 
L 0 4 
" style="stroke: #000000; stroke-width: 0.8"/>
      </defs>
      <g>
       <use xlink:href="#me5a354ac1d" x="78.499432" y="245.54" style="stroke: #000000; stroke-width: 0.8"/>
      </g>
     </g>
     <g id="text_1">
      <!-- 0 -->
      <g transform="translate(75.318182 260.638438) scale(0.1 -0.1)">
       <defs>
        <path id="DejaVuSans-30" d="M 2034 4250 
Q 1547 4250 1301 3770 
Q 1056 3291 1056 2328 
Q 1056 1369 1301 889 
Q 1547 409 2034 409 
Q 2525 409 2770 889 
Q 3016 1369 3016 2328 
Q 3016 3291 2770 3770 
Q 2525 4250 2034 4250 
z
M 2034 4750 
Q 2819 4750 3233 4129 
Q 3647 3509 3647 2328 
Q 3647 1150 3233 529 
Q 2819 -91 2034 -91 
Q 1250 -91 836 529 
Q 422 1150 422 2328 
Q 422 3509 836 4129 
Q 1250 4750 2034 4750 
z
" transform="scale(0.015625)"/>
       </defs>
       <use xlink:href="#DejaVuSans-30"/>
      </g>
     </g>
    </g>
    <g id="xtick_2">
     <g id="line2d_3">
      <path d="M 115.080871 245.54 
L 115.080871 26.16 
" clip-path="url(#pf15ca2f2d6)" style="fill: none; stroke: #b0b0b0; stroke-opacity: 0.3; stroke-width: 0.5; stroke-linecap: square"/>
     </g>
     <g id="line2d_4">
      <g>
       <use xlink:href="#me5a354ac1d" x="115.080871" y="245.54" style="stroke: #000000; stroke-width: 0.8"/>
      </g>
     </g>
     <g id="text_2">
      <!-- 1 -->
      <g transform="translate(111.899621 260.638438) scale(0.1 -0.1)">
       <defs>
        <path id="DejaVuSans-31" d="M 794 531 
L 1825 531 
L 1825 4091 
L 703 3866 
L 703 4441 
L 1819 4666 
L 2450 4666 
L 2450 531 
L 3481 531 
L 3481 0 
L 794 0 
L 794 531 
z
" transform="scale(0.015625)"/>
       </defs>
       <use xlink:href="#DejaVuSans-31"/>
      </g>
     </g>
    </g>
    <g id="xtick_3">
     <g id="line2d_5">
      <path d="M 151.662311 245.54 
L 151.662311 26.16 
" clip-path="url(#pf15ca2f2d6)" style="fill: none; stroke: #b0b0b0; stroke-opacity: 0.3; stroke-width: 0.5; stroke-linecap: square"/>
     </g>
     <g id="line2d_6">
      <g>
       <use xlink:href="#me5a354ac1d" x="151.662311" y="245.54" style="stroke: #000000; stroke-width: 0.8"/>
      </g>
     </g>
     <g id="text_3">
      <!-- 2 -->
      <g transform="translate(148.481061 260.638438) scale(0.1 -0.1)">
       <defs>
        <path id="DejaVuSans-32" d="M 1228 531 
L 3431 531 
L 3431 0 
L 469 0 
L 469 531 
Q 828 903 1448 1529 
Q 2069 2156 2228 2338 
Q 2531 2678 2651 2914 
Q 2772 3150 2772 3378 
Q 2772 3750 2511 3984 
Q 2250 4219 1831 4219 
Q 1534 4219 1204 4116 
Q 875 4013 500 3803 
L 500 4441 
Q 881 4594 1212 4672 
Q 1544 4750 1819 4750 
Q 2544 4750 2975 4387 
Q 3406 4025 3406 3419 
Q 3406 3131 3298 2873 
Q 3191 2616 2906 2266 
Q 2828 2175 2409 1742 
Q 1991 1309 1228 531 
z
" transform="scale(0.015625)"/>
       </defs>
       <use xlink:href="#DejaVuSans-32"/>
      </g>
     </g>
    </g>
    <g id="xtick_4">
     <g id="line2d_7">
      <path d="M 188.24375 245.54 
L 188.24375 26.16 
" clip-path="url(#pf15ca2f2d6)" style="fill: none; stroke: #b0b0b0; stroke-opacity: 0.3; stroke-width: 0.5; stroke-linecap: square"/>
     </g>
     <g id="line2d_8">
      <g>
       <use xlink:href="#me5a354ac1d" x="188.24375" y="245.54" style="stroke: #000000; stroke-width: 0.8"/>
      </g>
     </g>
     <g id="text_4">
      <!-- 3 -->
      <g transform="translate(185.0625 260.638438) scale(0.1 -0.1)">
       <defs>
        <path id="DejaVuSans-33" d="M 2597 2516 
Q 3050 2419 3304 2112 
Q 3559 1806 3559 1356 
Q 3559 666 3084 287 
Q 2609 -91 1734 -91 
Q 1441 -91 1130 -33 
Q 819 25 488 141 
L 488 750 
Q 750 597 1062 519 
Q 1375 441 1716 441 
Q 2309 441 2620 675 
Q 2931 909 2931 1356 
Q 2931 1769 2642 2001 
Q 2353 2234 1838 2234 
L 1294 2234 
L 1294 2753 
L 1863 2753 
Q 2328 2753 2575 2939 
Q 2822 3125 2822 3475 
Q 2822 3834 2567 4026 
Q 2313 4219 1838 4219 
Q 1578 4219 1281 4162 
Q 984 4106 628 3988 
L 628 4550 
Q 988 4650 1302 4700 
Q 1616 4750 1894 4750 
Q 2613 4750 3031 4423 
Q 3450 4097 3450 3541 
Q 3450 3153 3228 2886 
Q 3006 2619 2597 2516 
z
" transform="scale(0.015625)"/>
       </defs>
       <use xlink:href="#DejaVuSans-33"/>
      </g>
     </g>
    </g>
    <g id="xtick_5">
     <g id="line2d_9">
      <path d="M 224.825189 245.54 
L 224.825189 26.16 
" clip-path="url(#pf15ca2f2d6)" style="fill: none; stroke: #b0b0b0; stroke-opacity: 0.3; stroke-width: 0.5; stroke-linecap: square"/>
     </g>
     <g id="line2d_10">
      <g>
       <use xlink:href="#me5a354ac1d" x="224.825189" y="245.54" style="stroke: #000000; stroke-width: 0.8"/>
      </g>
     </g>
     <g id="text_5">
      <!-- 4 -->
      <g transform="translate(221.643939 260.638438) scale(0.1 -0.1)">
       <defs>
        <path id="DejaVuSans-34" d="M 2419 4116 
L 825 1625 
L 2419 1625 
L 2419 4116 
z
M 2253 4666 
L 3047 4666 
L 3047 1625 
L 3713 1625 
L 3713 1100 
L 3047 1100 
L 3047 0 
L 2419 0 
L 2419 1100 
L 313 1100 
L 313 1709 
L 2253 4666 
z
" transform="scale(0.015625)"/>
       </defs>
       <use xlink:href="#DejaVuSans-34"/>
      </g>
     </g>
    </g>
    <g id="xtick_6">
     <g id="line2d_11">
      <path d="M 261.406629 245.54 
L 261.406629 26.16 
" clip-path="url(#pf15ca2f2d6)" style="fill: none; stroke: #b0b0b0; stroke-opacity: 0.3; stroke-width: 0.5; stroke-linecap: square"/>
     </g>
     <g id="line2d_12">
      <g>
       <use xlink:href="#me5a354ac1d" x="261.406629" y="245.54" style="stroke: #000000; stroke-width: 0.8"/>
      </g>
     </g>
     <g id="text_6">
      <!-- 5 -->
      <g transform="translate(258.225379 260.638438) scale(0.1 -0.1)">
       <defs>
        <path id="DejaVuSans-35" d="M 691 4666 
L 3169 4666 
L 3169 4134 
L 1269 4134 
L 1269 2991 
Q 1406 3038 1543 3061 
Q 1681 3084 1819 3084 
Q 2600 3084 3056 2656 
Q 3513 2228 3513 1497 
Q 3513 744 3044 326 
Q 2575 -91 1722 -91 
Q 1428 -91 1123 -41 
Q 819 9 494 109 
L 494 744 
Q 775 591 1075 516 
Q 1375 441 1709 441 
Q 2250 441 2565 725 
Q 2881 1009 2881 1497 
Q 2881 1984 2565 2268 
Q 2250 2553 1709 2553 
Q 1456 2553 1204 2497 
Q 953 2441 691 2322 
L 691 4666 
z
" transform="scale(0.015625)"/>
       </defs>
       <use xlink:href="#DejaVuSans-35"/>
      </g>
     </g>
    </g>
    <g id="xtick_7">
     <g id="line2d_13">
      <path d="M 297.988068 245.54 
L 297.988068 26.16 
" clip-path="url(#pf15ca2f2d6)" style="fill: none; stroke: #b0b0b0; stroke-opacity: 0.3; stroke-width: 0.5; stroke-linecap: square"/>
     </g>
     <g id="line2d_14">
      <g>
       <use xlink:href="#me5a354ac1d" x="297.988068" y="245.54" style="stroke: #000000; stroke-width: 0.8"/>
      </g>
     </g>
     <g id="text_7">
      <!-- 6 -->
      <g transform="translate(294.806818 260.638438) scale(0.1 -0.1)">
       <defs>
        <path id="DejaVuSans-36" d="M 2113 2584 
Q 1688 2584 1439 2293 
Q 1191 2003 1191 1497 
Q 1191 994 1439 701 
Q 1688 409 2113 409 
Q 2538 409 2786 701 
Q 3034 994 3034 1497 
Q 3034 2003 2786 2293 
Q 2538 2584 2113 2584 
z
M 3366 4563 
L 3366 3988 
Q 3128 4100 2886 4159 
Q 2644 4219 2406 4219 
Q 1781 4219 1451 3797 
Q 1122 3375 1075 2522 
Q 1259 2794 1537 2939 
Q 1816 3084 2150 3084 
Q 2853 3084 3261 2657 
Q 3669 2231 3669 1497 
Q 3669 778 3244 343 
Q 2819 -91 2113 -91 
Q 1303 -91 875 529 
Q 447 1150 447 2328 
Q 447 3434 972 4092 
Q 1497 4750 2381 4750 
Q 2619 4750 2861 4703 
Q 3103 4656 3366 4563 
z
" transform="scale(0.015625)"/>
       </defs>
       <use xlink:href="#DejaVuSans-36"/>
      </g>
     </g>
    </g>
    <g id="text_8">
     <!-- Time [h] -->
     <g transform="translate(167.350781 274.316563) scale(0.1 -0.1)">
      <defs>
       <path id="DejaVuSans-54" d="M -19 4666 
L 3928 4666 
L 3928 4134 
L 2272 4134 
L 2272 0 
L 1638 0 
L 1638 4134 
L -19 4134 
L -19 4666 
z
" transform="scale(0.015625)"/>
       <path id="DejaVuSans-69" d="M 603 3500 
L 1178 3500 
L 1178 0 
L 603 0 
L 603 3500 
z
M 603 4863 
L 1178 4863 
L 1178 4134 
L 603 4134 
L 603 4863 
z
" transform="scale(0.015625)"/>
       <path id="DejaVuSans-6d" d="M 3328 2828 
Q 3544 3216 3844 3400 
Q 4144 3584 4550 3584 
Q 5097 3584 5394 3201 
Q 5691 2819 5691 2113 
L 5691 0 
L 5113 0 
L 5113 2094 
Q 5113 2597 4934 2840 
Q 4756 3084 4391 3084 
Q 3944 3084 3684 2787 
Q 3425 2491 3425 1978 
L 3425 0 
L 2847 0 
L 2847 2094 
Q 2847 2600 2669 2842 
Q 2491 3084 2119 3084 
Q 1678 3084 1418 2786 
Q 1159 2488 1159 1978 
L 1159 0 
L 581 0 
L 581 3500 
L 1159 3500 
L 1159 2956 
Q 1356 3278 1631 3431 
Q 1906 3584 2284 3584 
Q 2666 3584 2933 3390 
Q 3200 3197 3328 2828 
z
" transform="scale(0.015625)"/>
       <path id="DejaVuSans-65" d="M 3597 1894 
L 3597 1613 
L 953 1613 
Q 991 1019 1311 708 
Q 1631 397 2203 397 
Q 2534 397 2845 478 
Q 3156 559 3463 722 
L 3463 178 
Q 3153 47 2828 -22 
Q 2503 -91 2169 -91 
Q 1331 -91 842 396 
Q 353 884 353 1716 
Q 353 2575 817 3079 
Q 1281 3584 2069 3584 
Q 2775 3584 3186 3129 
Q 3597 2675 3597 1894 
z
M 3022 2063 
Q 3016 2534 2758 2815 
Q 2500 3097 2075 3097 
Q 1594 3097 1305 2825 
Q 1016 2553 972 2059 
L 3022 2063 
z
" transform="scale(0.015625)"/>
       <path id="DejaVuSans-20" transform="scale(0.015625)"/>
       <path id="DejaVuSans-5b" d="M 550 4863 
L 1875 4863 
L 1875 4416 
L 1125 4416 
L 1125 -397 
L 1875 -397 
L 1875 -844 
L 550 -844 
L 550 4863 
z
" transform="scale(0.015625)"/>
       <path id="DejaVuSans-68" d="M 3513 2113 
L 3513 0 
L 2938 0 
L 2938 2094 
Q 2938 2591 2744 2837 
Q 2550 3084 2163 3084 
Q 1697 3084 1428 2787 
Q 1159 2491 1159 1978 
L 1159 0 
L 581 0 
L 581 4863 
L 1159 4863 
L 1159 2956 
Q 1366 3272 1645 3428 
Q 1925 3584 2291 3584 
Q 2894 3584 3203 3211 
Q 3513 2838 3513 2113 
z
" transform="scale(0.015625)"/>
       <path id="DejaVuSans-5d" d="M 1947 4863 
L 1947 -844 
L 622 -844 
L 622 -397 
L 1369 -397 
L 1369 4416 
L 622 4416 
L 622 4863 
L 1947 4863 
z
" transform="scale(0.015625)"/>
      </defs>
      <use xlink:href="#DejaVuSans-54"/>
      <use xlink:href="#DejaVuSans-69" transform="translate(57.958984 0)"/>
      <use xlink:href="#DejaVuSans-6d" transform="translate(85.742188 0)"/>
      <use xlink:href="#DejaVuSans-65" transform="translate(183.154297 0)"/>
      <use xlink:href="#DejaVuSans-20" transform="translate(244.677734 0)"/>
      <use xlink:href="#DejaVuSans-5b" transform="translate(276.464844 0)"/>
      <use xlink:href="#DejaVuSans-68" transform="translate(315.478516 0)"/>
      <use xlink:href="#DejaVuSans-5d" transform="translate(378.857422 0)"/>
     </g>
    </g>
   </g>
   <g id="matplotlib.axis_2">
    <g id="ytick_1">
     <g id="line2d_15">
      <path d="M 67.525 235.568464 
L 308.9625 235.568464 
" clip-path="url(#pf15ca2f2d6)" style="fill: none; stroke: #b0b0b0; stroke-opacity: 0.3; stroke-width: 0.5; stroke-linecap: square"/>
     </g>
     <g id="line2d_16">
      <defs>
       <path id="m4ce0654eb6" d="M 0 0 
L -4 0 
" style="stroke: #000000; stroke-width: 0.8"/>
      </defs>
      <g>
       <use xlink:href="#m4ce0654eb6" x="67.525" y="235.568464" style="stroke: #000000; stroke-width: 0.8"/>
      </g>
     </g>
     <g id="text_9">
      <!-- 0.0000 -->
      <g transform="translate(25.034375 239.367683) scale(0.1 -0.1)">
       <defs>
        <path id="DejaVuSans-2e" d="M 684 794 
L 1344 794 
L 1344 0 
L 684 0 
L 684 794 
z
" transform="scale(0.015625)"/>
       </defs>
       <use xlink:href="#DejaVuSans-30"/>
       <use xlink:href="#DejaVuSans-2e" transform="translate(63.623047 0)"/>
       <use xlink:href="#DejaVuSans-30" transform="translate(95.410156 0)"/>
       <use xlink:href="#DejaVuSans-30" transform="translate(159.033203 0)"/>
       <use xlink:href="#DejaVuSans-30" transform="translate(222.65625 0)"/>
       <use xlink:href="#DejaVuSans-30" transform="translate(286.279297 0)"/>
      </g>
     </g>
    </g>
    <g id="ytick_2">
     <g id="line2d_17">
      <path d="M 67.525 210.638883 
L 308.9625 210.638883 
" clip-path="url(#pf15ca2f2d6)" style="fill: none; stroke: #b0b0b0; stroke-opacity: 0.3; stroke-width: 0.5; stroke-linecap: square"/>
     </g>
     <g id="line2d_18">
      <g>
       <use xlink:href="#m4ce0654eb6" x="67.525" y="210.638883" style="stroke: #000000; stroke-width: 0.8"/>
      </g>
     </g>
     <g id="text_10">
      <!-- 0.0025 -->
      <g transform="translate(25.034375 214.438102) scale(0.1 -0.1)">
       <use xlink:href="#DejaVuSans-30"/>
       <use xlink:href="#DejaVuSans-2e" transform="translate(63.623047 0)"/>
       <use xlink:href="#DejaVuSans-30" transform="translate(95.410156 0)"/>
       <use xlink:href="#DejaVuSans-30" transform="translate(159.033203 0)"/>
       <use xlink:href="#DejaVuSans-32" transform="translate(222.65625 0)"/>
       <use xlink:href="#DejaVuSans-35" transform="translate(286.279297 0)"/>
      </g>
     </g>
    </g>
    <g id="ytick_3">
     <g id="line2d_19">
      <path d="M 67.525 185.709302 
L 308.9625 185.709302 
" clip-path="url(#pf15ca2f2d6)" style="fill: none; stroke: #b0b0b0; stroke-opacity: 0.3; stroke-width: 0.5; stroke-linecap: square"/>
     </g>
     <g id="line2d_20">
      <g>
       <use xlink:href="#m4ce0654eb6" x="67.525" y="185.709302" style="stroke: #000000; stroke-width: 0.8"/>
      </g>
     </g>
     <g id="text_11">
      <!-- 0.0050 -->
      <g transform="translate(25.034375 189.508521) scale(0.1 -0.1)">
       <use xlink:href="#DejaVuSans-30"/>
       <use xlink:href="#DejaVuSans-2e" transform="translate(63.623047 0)"/>
       <use xlink:href="#DejaVuSans-30" transform="translate(95.410156 0)"/>
       <use xlink:href="#DejaVuSans-30" transform="translate(159.033203 0)"/>
       <use xlink:href="#DejaVuSans-35" transform="translate(222.65625 0)"/>
       <use xlink:href="#DejaVuSans-30" transform="translate(286.279297 0)"/>
      </g>
     </g>
    </g>
    <g id="ytick_4">
     <g id="line2d_21">
      <path d="M 67.525 160.779722 
L 308.9625 160.779722 
" clip-path="url(#pf15ca2f2d6)" style="fill: none; stroke: #b0b0b0; stroke-opacity: 0.3; stroke-width: 0.5; stroke-linecap: square"/>
     </g>
     <g id="line2d_22">
      <g>
       <use xlink:href="#m4ce0654eb6" x="67.525" y="160.779722" style="stroke: #000000; stroke-width: 0.8"/>
      </g>
     </g>
     <g id="text_12">
      <!-- 0.0075 -->
      <g transform="translate(25.034375 164.578941) scale(0.1 -0.1)">
       <defs>
        <path id="DejaVuSans-37" d="M 525 4666 
L 3525 4666 
L 3525 4397 
L 1831 0 
L 1172 0 
L 2766 4134 
L 525 4134 
L 525 4666 
z
" transform="scale(0.015625)"/>
       </defs>
       <use xlink:href="#DejaVuSans-30"/>
       <use xlink:href="#DejaVuSans-2e" transform="translate(63.623047 0)"/>
       <use xlink:href="#DejaVuSans-30" transform="translate(95.410156 0)"/>
       <use xlink:href="#DejaVuSans-30" transform="translate(159.033203 0)"/>
       <use xlink:href="#DejaVuSans-37" transform="translate(222.65625 0)"/>
       <use xlink:href="#DejaVuSans-35" transform="translate(286.279297 0)"/>
      </g>
     </g>
    </g>
    <g id="ytick_5">
     <g id="line2d_23">
      <path d="M 67.525 135.850141 
L 308.9625 135.850141 
" clip-path="url(#pf15ca2f2d6)" style="fill: none; stroke: #b0b0b0; stroke-opacity: 0.3; stroke-width: 0.5; stroke-linecap: square"/>
     </g>
     <g id="line2d_24">
      <g>
       <use xlink:href="#m4ce0654eb6" x="67.525" y="135.850141" style="stroke: #000000; stroke-width: 0.8"/>
      </g>
     </g>
     <g id="text_13">
      <!-- 0.0100 -->
      <g transform="translate(25.034375 139.64936) scale(0.1 -0.1)">
       <use xlink:href="#DejaVuSans-30"/>
       <use xlink:href="#DejaVuSans-2e" transform="translate(63.623047 0)"/>
       <use xlink:href="#DejaVuSans-30" transform="translate(95.410156 0)"/>
       <use xlink:href="#DejaVuSans-31" transform="translate(159.033203 0)"/>
       <use xlink:href="#DejaVuSans-30" transform="translate(222.65625 0)"/>
       <use xlink:href="#DejaVuSans-30" transform="translate(286.279297 0)"/>
      </g>
     </g>
    </g>
    <g id="ytick_6">
     <g id="line2d_25">
      <path d="M 67.525 110.92056 
L 308.9625 110.92056 
" clip-path="url(#pf15ca2f2d6)" style="fill: none; stroke: #b0b0b0; stroke-opacity: 0.3; stroke-width: 0.5; stroke-linecap: square"/>
     </g>
     <g id="line2d_26">
      <g>
       <use xlink:href="#m4ce0654eb6" x="67.525" y="110.92056" style="stroke: #000000; stroke-width: 0.8"/>
      </g>
     </g>
     <g id="text_14">
      <!-- 0.0125 -->
      <g transform="translate(25.034375 114.719779) scale(0.1 -0.1)">
       <use xlink:href="#DejaVuSans-30"/>
       <use xlink:href="#DejaVuSans-2e" transform="translate(63.623047 0)"/>
       <use xlink:href="#DejaVuSans-30" transform="translate(95.410156 0)"/>
       <use xlink:href="#DejaVuSans-31" transform="translate(159.033203 0)"/>
       <use xlink:href="#DejaVuSans-32" transform="translate(222.65625 0)"/>
       <use xlink:href="#DejaVuSans-35" transform="translate(286.279297 0)"/>
      </g>
     </g>
    </g>
    <g id="ytick_7">
     <g id="line2d_27">
      <path d="M 67.525 85.99098 
L 308.9625 85.99098 
" clip-path="url(#pf15ca2f2d6)" style="fill: none; stroke: #b0b0b0; stroke-opacity: 0.3; stroke-width: 0.5; stroke-linecap: square"/>
     </g>
     <g id="line2d_28">
      <g>
       <use xlink:href="#m4ce0654eb6" x="67.525" y="85.99098" style="stroke: #000000; stroke-width: 0.8"/>
      </g>
     </g>
     <g id="text_15">
      <!-- 0.0150 -->
      <g transform="translate(25.034375 89.790198) scale(0.1 -0.1)">
       <use xlink:href="#DejaVuSans-30"/>
       <use xlink:href="#DejaVuSans-2e" transform="translate(63.623047 0)"/>
       <use xlink:href="#DejaVuSans-30" transform="translate(95.410156 0)"/>
       <use xlink:href="#DejaVuSans-31" transform="translate(159.033203 0)"/>
       <use xlink:href="#DejaVuSans-35" transform="translate(222.65625 0)"/>
       <use xlink:href="#DejaVuSans-30" transform="translate(286.279297 0)"/>
      </g>
     </g>
    </g>
    <g id="ytick_8">
     <g id="line2d_29">
      <path d="M 67.525 61.061399 
L 308.9625 61.061399 
" clip-path="url(#pf15ca2f2d6)" style="fill: none; stroke: #b0b0b0; stroke-opacity: 0.3; stroke-width: 0.5; stroke-linecap: square"/>
     </g>
     <g id="line2d_30">
      <g>
       <use xlink:href="#m4ce0654eb6" x="67.525" y="61.061399" style="stroke: #000000; stroke-width: 0.8"/>
      </g>
     </g>
     <g id="text_16">
      <!-- 0.0175 -->
      <g transform="translate(25.034375 64.860618) scale(0.1 -0.1)">
       <use xlink:href="#DejaVuSans-30"/>
       <use xlink:href="#DejaVuSans-2e" transform="translate(63.623047 0)"/>
       <use xlink:href="#DejaVuSans-30" transform="translate(95.410156 0)"/>
       <use xlink:href="#DejaVuSans-31" transform="translate(159.033203 0)"/>
       <use xlink:href="#DejaVuSans-37" transform="translate(222.65625 0)"/>
       <use xlink:href="#DejaVuSans-35" transform="translate(286.279297 0)"/>
      </g>
     </g>
    </g>
    <g id="ytick_9">
     <g id="line2d_31">
      <path d="M 67.525 36.131818 
L 308.9625 36.131818 
" clip-path="url(#pf15ca2f2d6)" style="fill: none; stroke: #b0b0b0; stroke-opacity: 0.3; stroke-width: 0.5; stroke-linecap: square"/>
     </g>
     <g id="line2d_32">
      <g>
       <use xlink:href="#m4ce0654eb6" x="67.525" y="36.131818" style="stroke: #000000; stroke-width: 0.8"/>
      </g>
     </g>
     <g id="text_17">
      <!-- 0.0200 -->
      <g transform="translate(25.034375 39.931037) scale(0.1 -0.1)">
       <use xlink:href="#DejaVuSans-30"/>
       <use xlink:href="#DejaVuSans-2e" transform="translate(63.623047 0)"/>
       <use xlink:href="#DejaVuSans-30" transform="translate(95.410156 0)"/>
       <use xlink:href="#DejaVuSans-32" transform="translate(159.033203 0)"/>
       <use xlink:href="#DejaVuSans-30" transform="translate(222.65625 0)"/>
       <use xlink:href="#DejaVuSans-30" transform="translate(286.279297 0)"/>
      </g>
     </g>
    </g>
    <g id="text_18">
     <!-- Concentration [mM] -->
     <g transform="translate(18.954687 185.896094) rotate(-90) scale(0.1 -0.1)">
      <defs>
       <path id="DejaVuSans-43" d="M 4122 4306 
L 4122 3641 
Q 3803 3938 3442 4084 
Q 3081 4231 2675 4231 
Q 1875 4231 1450 3742 
Q 1025 3253 1025 2328 
Q 1025 1406 1450 917 
Q 1875 428 2675 428 
Q 3081 428 3442 575 
Q 3803 722 4122 1019 
L 4122 359 
Q 3791 134 3420 21 
Q 3050 -91 2638 -91 
Q 1578 -91 968 557 
Q 359 1206 359 2328 
Q 359 3453 968 4101 
Q 1578 4750 2638 4750 
Q 3056 4750 3426 4639 
Q 3797 4528 4122 4306 
z
" transform="scale(0.015625)"/>
       <path id="DejaVuSans-6f" d="M 1959 3097 
Q 1497 3097 1228 2736 
Q 959 2375 959 1747 
Q 959 1119 1226 758 
Q 1494 397 1959 397 
Q 2419 397 2687 759 
Q 2956 1122 2956 1747 
Q 2956 2369 2687 2733 
Q 2419 3097 1959 3097 
z
M 1959 3584 
Q 2709 3584 3137 3096 
Q 3566 2609 3566 1747 
Q 3566 888 3137 398 
Q 2709 -91 1959 -91 
Q 1206 -91 779 398 
Q 353 888 353 1747 
Q 353 2609 779 3096 
Q 1206 3584 1959 3584 
z
" transform="scale(0.015625)"/>
       <path id="DejaVuSans-6e" d="M 3513 2113 
L 3513 0 
L 2938 0 
L 2938 2094 
Q 2938 2591 2744 2837 
Q 2550 3084 2163 3084 
Q 1697 3084 1428 2787 
Q 1159 2491 1159 1978 
L 1159 0 
L 581 0 
L 581 3500 
L 1159 3500 
L 1159 2956 
Q 1366 3272 1645 3428 
Q 1925 3584 2291 3584 
Q 2894 3584 3203 3211 
Q 3513 2838 3513 2113 
z
" transform="scale(0.015625)"/>
       <path id="DejaVuSans-63" d="M 3122 3366 
L 3122 2828 
Q 2878 2963 2633 3030 
Q 2388 3097 2138 3097 
Q 1578 3097 1268 2742 
Q 959 2388 959 1747 
Q 959 1106 1268 751 
Q 1578 397 2138 397 
Q 2388 397 2633 464 
Q 2878 531 3122 666 
L 3122 134 
Q 2881 22 2623 -34 
Q 2366 -91 2075 -91 
Q 1284 -91 818 406 
Q 353 903 353 1747 
Q 353 2603 823 3093 
Q 1294 3584 2113 3584 
Q 2378 3584 2631 3529 
Q 2884 3475 3122 3366 
z
" transform="scale(0.015625)"/>
       <path id="DejaVuSans-74" d="M 1172 4494 
L 1172 3500 
L 2356 3500 
L 2356 3053 
L 1172 3053 
L 1172 1153 
Q 1172 725 1289 603 
Q 1406 481 1766 481 
L 2356 481 
L 2356 0 
L 1766 0 
Q 1100 0 847 248 
Q 594 497 594 1153 
L 594 3053 
L 172 3053 
L 172 3500 
L 594 3500 
L 594 4494 
L 1172 4494 
z
" transform="scale(0.015625)"/>
       <path id="DejaVuSans-72" d="M 2631 2963 
Q 2534 3019 2420 3045 
Q 2306 3072 2169 3072 
Q 1681 3072 1420 2755 
Q 1159 2438 1159 1844 
L 1159 0 
L 581 0 
L 581 3500 
L 1159 3500 
L 1159 2956 
Q 1341 3275 1631 3429 
Q 1922 3584 2338 3584 
Q 2397 3584 2469 3576 
Q 2541 3569 2628 3553 
L 2631 2963 
z
" transform="scale(0.015625)"/>
       <path id="DejaVuSans-61" d="M 2194 1759 
Q 1497 1759 1228 1600 
Q 959 1441 959 1056 
Q 959 750 1161 570 
Q 1363 391 1709 391 
Q 2188 391 2477 730 
Q 2766 1069 2766 1631 
L 2766 1759 
L 2194 1759 
z
M 3341 1997 
L 3341 0 
L 2766 0 
L 2766 531 
Q 2569 213 2275 61 
Q 1981 -91 1556 -91 
Q 1019 -91 701 211 
Q 384 513 384 1019 
Q 384 1609 779 1909 
Q 1175 2209 1959 2209 
L 2766 2209 
L 2766 2266 
Q 2766 2663 2505 2880 
Q 2244 3097 1772 3097 
Q 1472 3097 1187 3025 
Q 903 2953 641 2809 
L 641 3341 
Q 956 3463 1253 3523 
Q 1550 3584 1831 3584 
Q 2591 3584 2966 3190 
Q 3341 2797 3341 1997 
z
" transform="scale(0.015625)"/>
       <path id="DejaVuSans-4d" d="M 628 4666 
L 1569 4666 
L 2759 1491 
L 3956 4666 
L 4897 4666 
L 4897 0 
L 4281 0 
L 4281 4097 
L 3078 897 
L 2444 897 
L 1241 4097 
L 1241 0 
L 628 0 
L 628 4666 
z
" transform="scale(0.015625)"/>
      </defs>
      <use xlink:href="#DejaVuSans-43"/>
      <use xlink:href="#DejaVuSans-6f" transform="translate(69.824219 0)"/>
      <use xlink:href="#DejaVuSans-6e" transform="translate(131.005859 0)"/>
      <use xlink:href="#DejaVuSans-63" transform="translate(194.384766 0)"/>
      <use xlink:href="#DejaVuSans-65" transform="translate(249.365234 0)"/>
      <use xlink:href="#DejaVuSans-6e" transform="translate(310.888672 0)"/>
      <use xlink:href="#DejaVuSans-74" transform="translate(374.267578 0)"/>
      <use xlink:href="#DejaVuSans-72" transform="translate(413.476562 0)"/>
      <use xlink:href="#DejaVuSans-61" transform="translate(454.589844 0)"/>
      <use xlink:href="#DejaVuSans-74" transform="translate(515.869141 0)"/>
      <use xlink:href="#DejaVuSans-69" transform="translate(555.078125 0)"/>
      <use xlink:href="#DejaVuSans-6f" transform="translate(582.861328 0)"/>
      <use xlink:href="#DejaVuSans-6e" transform="translate(644.042969 0)"/>
      <use xlink:href="#DejaVuSans-20" transform="translate(707.421875 0)"/>
      <use xlink:href="#DejaVuSans-5b" transform="translate(739.208984 0)"/>
      <use xlink:href="#DejaVuSans-6d" transform="translate(778.222656 0)"/>
      <use xlink:href="#DejaVuSans-4d" transform="translate(875.634766 0)"/>
      <use xlink:href="#DejaVuSans-5d" transform="translate(961.914062 0)"/>
     </g>
    </g>
   </g>
   <g id="line2d_33">
    <path d="M 78.499432 36.131818 
L 79.357799 40.206533 
L 87.941472 80.296246 
L 102.251664 140.633008 
L 110.149218 167.851242 
L 117.07121 187.165324 
L 123.993202 202.136019 
L 130.232205 212.215793 
L 136.113766 219.211918 
L 141.882873 224.183937 
L 147.689674 227.740845 
L 153.646431 230.277978 
L 159.84944 232.070091 
L 166.390296 233.316299 
L 173.363469 234.164631 
L 180.872852 234.726601 
L 189.038747 235.086474 
L 198.006569 235.307513 
L 207.958785 235.436482 
L 219.132413 235.507093 
L 231.846003 235.542786 
L 246.543251 235.55908 
L 263.866997 235.565591 
L 284.791606 235.567767 
L 297.988068 235.568182 
" clip-path="url(#pf15ca2f2d6)" style="fill: none; stroke: #691f55; stroke-width: 1.5; stroke-linecap: square"/>
    <defs>
     <path id="m4f14c2533f" d="M -3 3 
L 3 3 
L 3 -3 
L -3 -3 
z
" style="stroke: #691f55; stroke-linejoin: miter"/>
    </defs>
    <g clip-path="url(#pf15ca2f2d6)">
     <use xlink:href="#m4f14c2533f" x="78.499432" y="36.131818" style="fill: #691f55; stroke: #691f55; stroke-linejoin: miter"/>
     <use xlink:href="#m4f14c2533f" x="79.357799" y="40.206533" style="fill: #691f55; stroke: #691f55; stroke-linejoin: miter"/>
     <use xlink:href="#m4f14c2533f" x="87.941472" y="80.296246" style="fill: #691f55; stroke: #691f55; stroke-linejoin: miter"/>
     <use xlink:href="#m4f14c2533f" x="102.251664" y="140.633008" style="fill: #691f55; stroke: #691f55; stroke-linejoin: miter"/>
     <use xlink:href="#m4f14c2533f" x="110.149218" y="167.851242" style="fill: #691f55; stroke: #691f55; stroke-linejoin: miter"/>
     <use xlink:href="#m4f14c2533f" x="117.07121" y="187.165324" style="fill: #691f55; stroke: #691f55; stroke-linejoin: miter"/>
     <use xlink:href="#m4f14c2533f" x="123.993202" y="202.136019" style="fill: #691f55; stroke: #691f55; stroke-linejoin: miter"/>
     <use xlink:href="#m4f14c2533f" x="130.232205" y="212.215793" style="fill: #691f55; stroke: #691f55; stroke-linejoin: miter"/>
     <use xlink:href="#m4f14c2533f" x="136.113766" y="219.211918" style="fill: #691f55; stroke: #691f55; stroke-linejoin: miter"/>
     <use xlink:href="#m4f14c2533f" x="141.882873" y="224.183937" style="fill: #691f55; stroke: #691f55; stroke-linejoin: miter"/>
     <use xlink:href="#m4f14c2533f" x="147.689674" y="227.740845" style="fill: #691f55; stroke: #691f55; stroke-linejoin: miter"/>
     <use xlink:href="#m4f14c2533f" x="153.646431" y="230.277978" style="fill: #691f55; stroke: #691f55; stroke-linejoin: miter"/>
     <use xlink:href="#m4f14c2533f" x="159.84944" y="232.070091" style="fill: #691f55; stroke: #691f55; stroke-linejoin: miter"/>
     <use xlink:href="#m4f14c2533f" x="166.390296" y="233.316299" style="fill: #691f55; stroke: #691f55; stroke-linejoin: miter"/>
     <use xlink:href="#m4f14c2533f" x="173.363469" y="234.164631" style="fill: #691f55; stroke: #691f55; stroke-linejoin: miter"/>
     <use xlink:href="#m4f14c2533f" x="180.872852" y="234.726601" style="fill: #691f55; stroke: #691f55; stroke-linejoin: miter"/>
     <use xlink:href="#m4f14c2533f" x="189.038747" y="235.086474" style="fill: #691f55; stroke: #691f55; stroke-linejoin: miter"/>
     <use xlink:href="#m4f14c2533f" x="198.006569" y="235.307513" style="fill: #691f55; stroke: #691f55; stroke-linejoin: miter"/>
     <use xlink:href="#m4f14c2533f" x="207.958785" y="235.436482" style="fill: #691f55; stroke: #691f55; stroke-linejoin: miter"/>
     <use xlink:href="#m4f14c2533f" x="219.132413" y="235.507093" style="fill: #691f55; stroke: #691f55; stroke-linejoin: miter"/>
     <use xlink:href="#m4f14c2533f" x="231.846003" y="235.542786" style="fill: #691f55; stroke: #691f55; stroke-linejoin: miter"/>
     <use xlink:href="#m4f14c2533f" x="246.543251" y="235.55908" style="fill: #691f55; stroke: #691f55; stroke-linejoin: miter"/>
     <use xlink:href="#m4f14c2533f" x="263.866997" y="235.565591" style="fill: #691f55; stroke: #691f55; stroke-linejoin: miter"/>
     <use xlink:href="#m4f14c2533f" x="284.791606" y="235.567767" style="fill: #691f55; stroke: #691f55; stroke-linejoin: miter"/>
     <use xlink:href="#m4f14c2533f" x="297.988068" y="235.568182" style="fill: #691f55; stroke: #691f55; stroke-linejoin: miter"/>
    </g>
   </g>
   <g id="patch_3">
    <path d="M 67.525 245.54 
L 67.525 26.16 
" style="fill: none; stroke: #000000; stroke-width: 0.8; stroke-linejoin: miter; stroke-linecap: square"/>
   </g>
   <g id="patch_4">
    <path d="M 67.525 245.54 
L 308.9625 245.54 
" style="fill: none; stroke: #000000; stroke-width: 0.8; stroke-linejoin: miter; stroke-linecap: square"/>
   </g>
   <g id="text_19">
    <!-- Fructose -->
    <g transform="translate(162.81875 20.16) scale(0.12 -0.12)">
     <defs>
      <path id="DejaVuSans-46" d="M 628 4666 
L 3309 4666 
L 3309 4134 
L 1259 4134 
L 1259 2759 
L 3109 2759 
L 3109 2228 
L 1259 2228 
L 1259 0 
L 628 0 
L 628 4666 
z
" transform="scale(0.015625)"/>
      <path id="DejaVuSans-75" d="M 544 1381 
L 544 3500 
L 1119 3500 
L 1119 1403 
Q 1119 906 1312 657 
Q 1506 409 1894 409 
Q 2359 409 2629 706 
Q 2900 1003 2900 1516 
L 2900 3500 
L 3475 3500 
L 3475 0 
L 2900 0 
L 2900 538 
Q 2691 219 2414 64 
Q 2138 -91 1772 -91 
Q 1169 -91 856 284 
Q 544 659 544 1381 
z
M 1991 3584 
L 1991 3584 
z
" transform="scale(0.015625)"/>
      <path id="DejaVuSans-73" d="M 2834 3397 
L 2834 2853 
Q 2591 2978 2328 3040 
Q 2066 3103 1784 3103 
Q 1356 3103 1142 2972 
Q 928 2841 928 2578 
Q 928 2378 1081 2264 
Q 1234 2150 1697 2047 
L 1894 2003 
Q 2506 1872 2764 1633 
Q 3022 1394 3022 966 
Q 3022 478 2636 193 
Q 2250 -91 1575 -91 
Q 1294 -91 989 -36 
Q 684 19 347 128 
L 347 722 
Q 666 556 975 473 
Q 1284 391 1588 391 
Q 1994 391 2212 530 
Q 2431 669 2431 922 
Q 2431 1156 2273 1281 
Q 2116 1406 1581 1522 
L 1381 1569 
Q 847 1681 609 1914 
Q 372 2147 372 2553 
Q 372 3047 722 3315 
Q 1072 3584 1716 3584 
Q 2034 3584 2315 3537 
Q 2597 3491 2834 3397 
z
" transform="scale(0.015625)"/>
     </defs>
     <use xlink:href="#DejaVuSans-46"/>
     <use xlink:href="#DejaVuSans-72" transform="translate(50.269531 0)"/>
     <use xlink:href="#DejaVuSans-75" transform="translate(91.382812 0)"/>
     <use xlink:href="#DejaVuSans-63" transform="translate(154.761719 0)"/>
     <use xlink:href="#DejaVuSans-74" transform="translate(209.742188 0)"/>
     <use xlink:href="#DejaVuSans-6f" transform="translate(248.951172 0)"/>
     <use xlink:href="#DejaVuSans-73" transform="translate(310.132812 0)"/>
     <use xlink:href="#DejaVuSans-65" transform="translate(362.232422 0)"/>
    </g>
   </g>
  </g>
  <g id="axes_2">
   <g id="patch_5">
    <path d="M 323.7625 245.54 
L 565.2 245.54 
L 565.2 26.16 
L 323.7625 26.16 
z
" style="fill: #ffffff"/>
   </g>
   <g id="matplotlib.axis_3">
    <g id="xtick_8">
     <g id="line2d_34">
      <path d="M 334.736932 245.54 
L 334.736932 26.16 
" clip-path="url(#p07ad53ab8b)" style="fill: none; stroke: #b0b0b0; stroke-opacity: 0.3; stroke-width: 0.5; stroke-linecap: square"/>
     </g>
     <g id="line2d_35">
      <g>
       <use xlink:href="#me5a354ac1d" x="334.736932" y="245.54" style="stroke: #000000; stroke-width: 0.8"/>
      </g>
     </g>
     <g id="text_20">
      <!-- 0 -->
      <g transform="translate(331.555682 260.638438) scale(0.1 -0.1)">
       <use xlink:href="#DejaVuSans-30"/>
      </g>
     </g>
    </g>
    <g id="xtick_9">
     <g id="line2d_36">
      <path d="M 371.318371 245.54 
L 371.318371 26.16 
" clip-path="url(#p07ad53ab8b)" style="fill: none; stroke: #b0b0b0; stroke-opacity: 0.3; stroke-width: 0.5; stroke-linecap: square"/>
     </g>
     <g id="line2d_37">
      <g>
       <use xlink:href="#me5a354ac1d" x="371.318371" y="245.54" style="stroke: #000000; stroke-width: 0.8"/>
      </g>
     </g>
     <g id="text_21">
      <!-- 1 -->
      <g transform="translate(368.137121 260.638438) scale(0.1 -0.1)">
       <use xlink:href="#DejaVuSans-31"/>
      </g>
     </g>
    </g>
    <g id="xtick_10">
     <g id="line2d_38">
      <path d="M 407.899811 245.54 
L 407.899811 26.16 
" clip-path="url(#p07ad53ab8b)" style="fill: none; stroke: #b0b0b0; stroke-opacity: 0.3; stroke-width: 0.5; stroke-linecap: square"/>
     </g>
     <g id="line2d_39">
      <g>
       <use xlink:href="#me5a354ac1d" x="407.899811" y="245.54" style="stroke: #000000; stroke-width: 0.8"/>
      </g>
     </g>
     <g id="text_22">
      <!-- 2 -->
      <g transform="translate(404.718561 260.638438) scale(0.1 -0.1)">
       <use xlink:href="#DejaVuSans-32"/>
      </g>
     </g>
    </g>
    <g id="xtick_11">
     <g id="line2d_40">
      <path d="M 444.48125 245.54 
L 444.48125 26.16 
" clip-path="url(#p07ad53ab8b)" style="fill: none; stroke: #b0b0b0; stroke-opacity: 0.3; stroke-width: 0.5; stroke-linecap: square"/>
     </g>
     <g id="line2d_41">
      <g>
       <use xlink:href="#me5a354ac1d" x="444.48125" y="245.54" style="stroke: #000000; stroke-width: 0.8"/>
      </g>
     </g>
     <g id="text_23">
      <!-- 3 -->
      <g transform="translate(441.3 260.638438) scale(0.1 -0.1)">
       <use xlink:href="#DejaVuSans-33"/>
      </g>
     </g>
    </g>
    <g id="xtick_12">
     <g id="line2d_42">
      <path d="M 481.062689 245.54 
L 481.062689 26.16 
" clip-path="url(#p07ad53ab8b)" style="fill: none; stroke: #b0b0b0; stroke-opacity: 0.3; stroke-width: 0.5; stroke-linecap: square"/>
     </g>
     <g id="line2d_43">
      <g>
       <use xlink:href="#me5a354ac1d" x="481.062689" y="245.54" style="stroke: #000000; stroke-width: 0.8"/>
      </g>
     </g>
     <g id="text_24">
      <!-- 4 -->
      <g transform="translate(477.881439 260.638438) scale(0.1 -0.1)">
       <use xlink:href="#DejaVuSans-34"/>
      </g>
     </g>
    </g>
    <g id="xtick_13">
     <g id="line2d_44">
      <path d="M 517.644129 245.54 
L 517.644129 26.16 
" clip-path="url(#p07ad53ab8b)" style="fill: none; stroke: #b0b0b0; stroke-opacity: 0.3; stroke-width: 0.5; stroke-linecap: square"/>
     </g>
     <g id="line2d_45">
      <g>
       <use xlink:href="#me5a354ac1d" x="517.644129" y="245.54" style="stroke: #000000; stroke-width: 0.8"/>
      </g>
     </g>
     <g id="text_25">
      <!-- 5 -->
      <g transform="translate(514.462879 260.638438) scale(0.1 -0.1)">
       <use xlink:href="#DejaVuSans-35"/>
      </g>
     </g>
    </g>
    <g id="xtick_14">
     <g id="line2d_46">
      <path d="M 554.225568 245.54 
L 554.225568 26.16 
" clip-path="url(#p07ad53ab8b)" style="fill: none; stroke: #b0b0b0; stroke-opacity: 0.3; stroke-width: 0.5; stroke-linecap: square"/>
     </g>
     <g id="line2d_47">
      <g>
       <use xlink:href="#me5a354ac1d" x="554.225568" y="245.54" style="stroke: #000000; stroke-width: 0.8"/>
      </g>
     </g>
     <g id="text_26">
      <!-- 6 -->
      <g transform="translate(551.044318 260.638438) scale(0.1 -0.1)">
       <use xlink:href="#DejaVuSans-36"/>
      </g>
     </g>
    </g>
    <g id="text_27">
     <!-- Time [h] -->
     <g transform="translate(423.588281 274.316563) scale(0.1 -0.1)">
      <use xlink:href="#DejaVuSans-54"/>
      <use xlink:href="#DejaVuSans-69" transform="translate(57.958984 0)"/>
      <use xlink:href="#DejaVuSans-6d" transform="translate(85.742188 0)"/>
      <use xlink:href="#DejaVuSans-65" transform="translate(183.154297 0)"/>
      <use xlink:href="#DejaVuSans-20" transform="translate(244.677734 0)"/>
      <use xlink:href="#DejaVuSans-5b" transform="translate(276.464844 0)"/>
      <use xlink:href="#DejaVuSans-68" transform="translate(315.478516 0)"/>
      <use xlink:href="#DejaVuSans-5d" transform="translate(378.857422 0)"/>
     </g>
    </g>
   </g>
   <g id="matplotlib.axis_4">
    <g id="ytick_10">
     <g id="line2d_48">
      <path d="M 323.7625 235.568464 
L 565.2 235.568464 
" clip-path="url(#p07ad53ab8b)" style="fill: none; stroke: #b0b0b0; stroke-opacity: 0.3; stroke-width: 0.5; stroke-linecap: square"/>
     </g>
     <g id="line2d_49">
      <g>
       <use xlink:href="#m4ce0654eb6" x="323.7625" y="235.568464" style="stroke: #000000; stroke-width: 0.8"/>
      </g>
     </g>
    </g>
    <g id="ytick_11">
     <g id="line2d_50">
      <path d="M 323.7625 210.638883 
L 565.2 210.638883 
" clip-path="url(#p07ad53ab8b)" style="fill: none; stroke: #b0b0b0; stroke-opacity: 0.3; stroke-width: 0.5; stroke-linecap: square"/>
     </g>
     <g id="line2d_51">
      <g>
       <use xlink:href="#m4ce0654eb6" x="323.7625" y="210.638883" style="stroke: #000000; stroke-width: 0.8"/>
      </g>
     </g>
    </g>
    <g id="ytick_12">
     <g id="line2d_52">
      <path d="M 323.7625 185.709302 
L 565.2 185.709302 
" clip-path="url(#p07ad53ab8b)" style="fill: none; stroke: #b0b0b0; stroke-opacity: 0.3; stroke-width: 0.5; stroke-linecap: square"/>
     </g>
     <g id="line2d_53">
      <g>
       <use xlink:href="#m4ce0654eb6" x="323.7625" y="185.709302" style="stroke: #000000; stroke-width: 0.8"/>
      </g>
     </g>
    </g>
    <g id="ytick_13">
     <g id="line2d_54">
      <path d="M 323.7625 160.779722 
L 565.2 160.779722 
" clip-path="url(#p07ad53ab8b)" style="fill: none; stroke: #b0b0b0; stroke-opacity: 0.3; stroke-width: 0.5; stroke-linecap: square"/>
     </g>
     <g id="line2d_55">
      <g>
       <use xlink:href="#m4ce0654eb6" x="323.7625" y="160.779722" style="stroke: #000000; stroke-width: 0.8"/>
      </g>
     </g>
    </g>
    <g id="ytick_14">
     <g id="line2d_56">
      <path d="M 323.7625 135.850141 
L 565.2 135.850141 
" clip-path="url(#p07ad53ab8b)" style="fill: none; stroke: #b0b0b0; stroke-opacity: 0.3; stroke-width: 0.5; stroke-linecap: square"/>
     </g>
     <g id="line2d_57">
      <g>
       <use xlink:href="#m4ce0654eb6" x="323.7625" y="135.850141" style="stroke: #000000; stroke-width: 0.8"/>
      </g>
     </g>
    </g>
    <g id="ytick_15">
     <g id="line2d_58">
      <path d="M 323.7625 110.92056 
L 565.2 110.92056 
" clip-path="url(#p07ad53ab8b)" style="fill: none; stroke: #b0b0b0; stroke-opacity: 0.3; stroke-width: 0.5; stroke-linecap: square"/>
     </g>
     <g id="line2d_59">
      <g>
       <use xlink:href="#m4ce0654eb6" x="323.7625" y="110.92056" style="stroke: #000000; stroke-width: 0.8"/>
      </g>
     </g>
    </g>
    <g id="ytick_16">
     <g id="line2d_60">
      <path d="M 323.7625 85.99098 
L 565.2 85.99098 
" clip-path="url(#p07ad53ab8b)" style="fill: none; stroke: #b0b0b0; stroke-opacity: 0.3; stroke-width: 0.5; stroke-linecap: square"/>
     </g>
     <g id="line2d_61">
      <g>
       <use xlink:href="#m4ce0654eb6" x="323.7625" y="85.99098" style="stroke: #000000; stroke-width: 0.8"/>
      </g>
     </g>
    </g>
    <g id="ytick_17">
     <g id="line2d_62">
      <path d="M 323.7625 61.061399 
L 565.2 61.061399 
" clip-path="url(#p07ad53ab8b)" style="fill: none; stroke: #b0b0b0; stroke-opacity: 0.3; stroke-width: 0.5; stroke-linecap: square"/>
     </g>
     <g id="line2d_63">
      <g>
       <use xlink:href="#m4ce0654eb6" x="323.7625" y="61.061399" style="stroke: #000000; stroke-width: 0.8"/>
      </g>
     </g>
    </g>
    <g id="ytick_18">
     <g id="line2d_64">
      <path d="M 323.7625 36.131818 
L 565.2 36.131818 
" clip-path="url(#p07ad53ab8b)" style="fill: none; stroke: #b0b0b0; stroke-opacity: 0.3; stroke-width: 0.5; stroke-linecap: square"/>
     </g>
     <g id="line2d_65">
      <g>
       <use xlink:href="#m4ce0654eb6" x="323.7625" y="36.131818" style="stroke: #000000; stroke-width: 0.8"/>
      </g>
     </g>
    </g>
   </g>
   <g id="line2d_66">
    <path d="M 334.736932 36.131818 
L 335.595299 40.206533 
L 344.178972 80.296246 
L 358.489164 140.633008 
L 366.386718 167.851242 
L 373.30871 187.165324 
L 380.230702 202.136019 
L 386.469705 212.215793 
L 392.351266 219.211918 
L 398.120373 224.183937 
L 403.927174 227.740845 
L 409.883931 230.277978 
L 416.08694 232.070091 
L 422.627796 233.316299 
L 429.600969 234.164631 
L 437.110352 234.726601 
L 445.276247 235.086474 
L 454.244069 235.307513 
L 464.196285 235.436482 
L 475.369913 235.507093 
L 488.083503 235.542786 
L 502.780751 235.55908 
L 520.104497 235.565591 
L 541.029106 235.567767 
L 554.225568 235.568182 
" clip-path="url(#p07ad53ab8b)" style="fill: none; stroke: #f47d57; stroke-width: 1.5; stroke-linecap: square"/>
    <defs>
     <path id="mf066310311" d="M -3 3 
L 3 3 
L 3 -3 
L -3 -3 
z
" style="stroke: #f47d57; stroke-linejoin: miter"/>
    </defs>
    <g clip-path="url(#p07ad53ab8b)">
     <use xlink:href="#mf066310311" x="334.736932" y="36.131818" style="fill: #f47d57; stroke: #f47d57; stroke-linejoin: miter"/>
     <use xlink:href="#mf066310311" x="335.595299" y="40.206533" style="fill: #f47d57; stroke: #f47d57; stroke-linejoin: miter"/>
     <use xlink:href="#mf066310311" x="344.178972" y="80.296246" style="fill: #f47d57; stroke: #f47d57; stroke-linejoin: miter"/>
     <use xlink:href="#mf066310311" x="358.489164" y="140.633008" style="fill: #f47d57; stroke: #f47d57; stroke-linejoin: miter"/>
     <use xlink:href="#mf066310311" x="366.386718" y="167.851242" style="fill: #f47d57; stroke: #f47d57; stroke-linejoin: miter"/>
     <use xlink:href="#mf066310311" x="373.30871" y="187.165324" style="fill: #f47d57; stroke: #f47d57; stroke-linejoin: miter"/>
     <use xlink:href="#mf066310311" x="380.230702" y="202.136019" style="fill: #f47d57; stroke: #f47d57; stroke-linejoin: miter"/>
     <use xlink:href="#mf066310311" x="386.469705" y="212.215793" style="fill: #f47d57; stroke: #f47d57; stroke-linejoin: miter"/>
     <use xlink:href="#mf066310311" x="392.351266" y="219.211918" style="fill: #f47d57; stroke: #f47d57; stroke-linejoin: miter"/>
     <use xlink:href="#mf066310311" x="398.120373" y="224.183937" style="fill: #f47d57; stroke: #f47d57; stroke-linejoin: miter"/>
     <use xlink:href="#mf066310311" x="403.927174" y="227.740845" style="fill: #f47d57; stroke: #f47d57; stroke-linejoin: miter"/>
     <use xlink:href="#mf066310311" x="409.883931" y="230.277978" style="fill: #f47d57; stroke: #f47d57; stroke-linejoin: miter"/>
     <use xlink:href="#mf066310311" x="416.08694" y="232.070091" style="fill: #f47d57; stroke: #f47d57; stroke-linejoin: miter"/>
     <use xlink:href="#mf066310311" x="422.627796" y="233.316299" style="fill: #f47d57; stroke: #f47d57; stroke-linejoin: miter"/>
     <use xlink:href="#mf066310311" x="429.600969" y="234.164631" style="fill: #f47d57; stroke: #f47d57; stroke-linejoin: miter"/>
     <use xlink:href="#mf066310311" x="437.110352" y="234.726601" style="fill: #f47d57; stroke: #f47d57; stroke-linejoin: miter"/>
     <use xlink:href="#mf066310311" x="445.276247" y="235.086474" style="fill: #f47d57; stroke: #f47d57; stroke-linejoin: miter"/>
     <use xlink:href="#mf066310311" x="454.244069" y="235.307513" style="fill: #f47d57; stroke: #f47d57; stroke-linejoin: miter"/>
     <use xlink:href="#mf066310311" x="464.196285" y="235.436482" style="fill: #f47d57; stroke: #f47d57; stroke-linejoin: miter"/>
     <use xlink:href="#mf066310311" x="475.369913" y="235.507093" style="fill: #f47d57; stroke: #f47d57; stroke-linejoin: miter"/>
     <use xlink:href="#mf066310311" x="488.083503" y="235.542786" style="fill: #f47d57; stroke: #f47d57; stroke-linejoin: miter"/>
     <use xlink:href="#mf066310311" x="502.780751" y="235.55908" style="fill: #f47d57; stroke: #f47d57; stroke-linejoin: miter"/>
     <use xlink:href="#mf066310311" x="520.104497" y="235.565591" style="fill: #f47d57; stroke: #f47d57; stroke-linejoin: miter"/>
     <use xlink:href="#mf066310311" x="541.029106" y="235.567767" style="fill: #f47d57; stroke: #f47d57; stroke-linejoin: miter"/>
     <use xlink:href="#mf066310311" x="554.225568" y="235.568182" style="fill: #f47d57; stroke: #f47d57; stroke-linejoin: miter"/>
    </g>
   </g>
   <g id="patch_6">
    <path d="M 323.7625 245.54 
L 323.7625 26.16 
" style="fill: none; stroke: #000000; stroke-width: 0.8; stroke-linejoin: miter; stroke-linecap: square"/>
   </g>
   <g id="patch_7">
    <path d="M 323.7625 245.54 
L 565.2 245.54 
" style="fill: none; stroke: #000000; stroke-width: 0.8; stroke-linejoin: miter; stroke-linecap: square"/>
   </g>
   <g id="text_28">
    <!-- Glucose -->
    <g transform="translate(420.575 20.16) scale(0.12 -0.12)">
     <defs>
      <path id="DejaVuSans-47" d="M 3809 666 
L 3809 1919 
L 2778 1919 
L 2778 2438 
L 4434 2438 
L 4434 434 
Q 4069 175 3628 42 
Q 3188 -91 2688 -91 
Q 1594 -91 976 548 
Q 359 1188 359 2328 
Q 359 3472 976 4111 
Q 1594 4750 2688 4750 
Q 3144 4750 3555 4637 
Q 3966 4525 4313 4306 
L 4313 3634 
Q 3963 3931 3569 4081 
Q 3175 4231 2741 4231 
Q 1884 4231 1454 3753 
Q 1025 3275 1025 2328 
Q 1025 1384 1454 906 
Q 1884 428 2741 428 
Q 3075 428 3337 486 
Q 3600 544 3809 666 
z
" transform="scale(0.015625)"/>
      <path id="DejaVuSans-6c" d="M 603 4863 
L 1178 4863 
L 1178 0 
L 603 0 
L 603 4863 
z
" transform="scale(0.015625)"/>
     </defs>
     <use xlink:href="#DejaVuSans-47"/>
     <use xlink:href="#DejaVuSans-6c" transform="translate(77.490234 0)"/>
     <use xlink:href="#DejaVuSans-75" transform="translate(105.273438 0)"/>
     <use xlink:href="#DejaVuSans-63" transform="translate(168.652344 0)"/>
     <use xlink:href="#DejaVuSans-6f" transform="translate(223.632812 0)"/>
     <use xlink:href="#DejaVuSans-73" transform="translate(284.814453 0)"/>
     <use xlink:href="#DejaVuSans-65" transform="translate(336.914062 0)"/>
    </g>
   </g>
  </g>
 </g>
 <defs>
  <clipPath id="pf15ca2f2d6">
   <rect x="67.525" y="26.16" width="241.4375" height="219.38"/>
  </clipPath>
  <clipPath id="p07ad53ab8b">
   <rect x="323.7625" y="26.16" width="241.4375" height="219.38"/>
  </clipPath>
 </defs>
</svg>
