<?xml version="1.0" encoding="utf-8" standalone="no"?>
<!DOCTYPE svg PUBLIC "-//W3C//DTD SVG 1.1//EN"
  "http://www.w3.org/Graphics/SVG/1.1/DTD/svg11.dtd">
<svg xmlns:xlink="http://www.w3.org/1999/xlink" width="576pt" height="288pt" viewBox="0 0 576 288" xmlns="http://www.w3.org/2000/svg" version="1.1">
 <metadata>
  <rdf:RDF xmlns:dc="http://purl.org/dc/elements/1.1/" xmlns:cc="http://creativecommons.org/ns#" xmlns:rdf="http://www.w3.org/1999/02/22-rdf-syntax-ns#">
   <cc:Work>
    <dc:type rdf:resource="http://purl.org/dc/dcmitype/StillImage"/>
    <dc:date>2025-07-31T15:32:31.042302</dc:date>
    <dc:format>image/svg+xml</dc:format>
    <dc:creator>
     <cc:Agent>
      <dc:title>Matplotlib v3.10.1, https://matplotlib.org/</dc:title>
     </cc:Agent>
    </dc:creator>
   </cc:Work>
  </rdf:RDF>
 </metadata>
 <defs>
  <style type="text/css">*{stroke-linejoin: round; stroke-linecap: butt}</style>
 </defs>
 <g id="figure_1">
  <g id="patch_1">
   <path d="M 0 288 
L 576 288 
L 576 0 
L 0 0 
z
" style="fill: #ffffff"/>
  </g>
  <g id="axes_1">
   <g id="patch_2">
    <path d="M 47.855 246.04 
L 565.2 246.04 
L 565.2 26.16 
L 47.855 26.16 
z
" style="fill: #ffffff"/>
   </g>
   <g id="matplotlib.axis_1">
    <g id="xtick_1">
     <g id="line2d_1">
      <path d="M 71.370682 246.04 
L 71.370682 26.16 
" clip-path="url(#ped1c353aac)" style="fill: none; stroke: #808080; stroke-opacity: 0.3; stroke-width: 0.5; stroke-linecap: square"/>
     </g>
     <g id="line2d_2">
      <defs>
       <path id="m8cd2f7c38a" d="M 0 0 
L 0 4 
" style="stroke: #000000; stroke-width: 0.8"/>
      </defs>
      <g>
       <use xlink:href="#m8cd2f7c38a" x="71.370682" y="246.04" style="stroke: #000000; stroke-width: 0.8"/>
      </g>
     </g>
     <g id="text_1">
      <!-- 0.0 -->
      <g transform="translate(63.419119 261.138438) scale(0.1 -0.1)">
       <defs>
        <path id="DejaVuSans-30" d="M 2034 4250 
Q 1547 4250 1301 3770 
Q 1056 3291 1056 2328 
Q 1056 1369 1301 889 
Q 1547 409 2034 409 
Q 2525 409 2770 889 
Q 3016 1369 3016 2328 
Q 3016 3291 2770 3770 
Q 2525 4250 2034 4250 
z
M 2034 4750 
Q 2819 4750 3233 4129 
Q 3647 3509 3647 2328 
Q 3647 1150 3233 529 
Q 2819 -91 2034 -91 
Q 1250 -91 836 529 
Q 422 1150 422 2328 
Q 422 3509 836 4129 
Q 1250 4750 2034 4750 
z
" transform="scale(0.015625)"/>
        <path id="DejaVuSans-2e" d="M 684 794 
L 1344 794 
L 1344 0 
L 684 0 
L 684 794 
z
" transform="scale(0.015625)"/>
       </defs>
       <use xlink:href="#DejaVuSans-30"/>
       <use xlink:href="#DejaVuSans-2e" transform="translate(63.623047 0)"/>
       <use xlink:href="#DejaVuSans-30" transform="translate(95.410156 0)"/>
      </g>
     </g>
    </g>
    <g id="xtick_2">
     <g id="line2d_3">
      <path d="M 149.756288 246.04 
L 149.756288 26.16 
" clip-path="url(#ped1c353aac)" style="fill: none; stroke: #808080; stroke-opacity: 0.3; stroke-width: 0.5; stroke-linecap: square"/>
     </g>
     <g id="line2d_4">
      <g>
       <use xlink:href="#m8cd2f7c38a" x="149.756288" y="246.04" style="stroke: #000000; stroke-width: 0.8"/>
      </g>
     </g>
     <g id="text_2">
      <!-- 0.5 -->
      <g transform="translate(141.804725 261.138438) scale(0.1 -0.1)">
       <defs>
        <path id="DejaVuSans-35" d="M 691 4666 
L 3169 4666 
L 3169 4134 
L 1269 4134 
L 1269 2991 
Q 1406 3038 1543 3061 
Q 1681 3084 1819 3084 
Q 2600 3084 3056 2656 
Q 3513 2228 3513 1497 
Q 3513 744 3044 326 
Q 2575 -91 1722 -91 
Q 1428 -91 1123 -41 
Q 819 9 494 109 
L 494 744 
Q 775 591 1075 516 
Q 1375 441 1709 441 
Q 2250 441 2565 725 
Q 2881 1009 2881 1497 
Q 2881 1984 2565 2268 
Q 2250 2553 1709 2553 
Q 1456 2553 1204 2497 
Q 953 2441 691 2322 
L 691 4666 
z
" transform="scale(0.015625)"/>
       </defs>
       <use xlink:href="#DejaVuSans-30"/>
       <use xlink:href="#DejaVuSans-2e" transform="translate(63.623047 0)"/>
       <use xlink:href="#DejaVuSans-35" transform="translate(95.410156 0)"/>
      </g>
     </g>
    </g>
    <g id="xtick_3">
     <g id="line2d_5">
      <path d="M 228.141894 246.04 
L 228.141894 26.16 
" clip-path="url(#ped1c353aac)" style="fill: none; stroke: #808080; stroke-opacity: 0.3; stroke-width: 0.5; stroke-linecap: square"/>
     </g>
     <g id="line2d_6">
      <g>
       <use xlink:href="#m8cd2f7c38a" x="228.141894" y="246.04" style="stroke: #000000; stroke-width: 0.8"/>
      </g>
     </g>
     <g id="text_3">
      <!-- 1.0 -->
      <g transform="translate(220.190331 261.138438) scale(0.1 -0.1)">
       <defs>
        <path id="DejaVuSans-31" d="M 794 531 
L 1825 531 
L 1825 4091 
L 703 3866 
L 703 4441 
L 1819 4666 
L 2450 4666 
L 2450 531 
L 3481 531 
L 3481 0 
L 794 0 
L 794 531 
z
" transform="scale(0.015625)"/>
       </defs>
       <use xlink:href="#DejaVuSans-31"/>
       <use xlink:href="#DejaVuSans-2e" transform="translate(63.623047 0)"/>
       <use xlink:href="#DejaVuSans-30" transform="translate(95.410156 0)"/>
      </g>
     </g>
    </g>
    <g id="xtick_4">
     <g id="line2d_7">
      <path d="M 306.5275 246.04 
L 306.5275 26.16 
" clip-path="url(#ped1c353aac)" style="fill: none; stroke: #808080; stroke-opacity: 0.3; stroke-width: 0.5; stroke-linecap: square"/>
     </g>
     <g id="line2d_8">
      <g>
       <use xlink:href="#m8cd2f7c38a" x="306.5275" y="246.04" style="stroke: #000000; stroke-width: 0.8"/>
      </g>
     </g>
     <g id="text_4">
      <!-- 1.5 -->
      <g transform="translate(298.575937 261.138438) scale(0.1 -0.1)">
       <use xlink:href="#DejaVuSans-31"/>
       <use xlink:href="#DejaVuSans-2e" transform="translate(63.623047 0)"/>
       <use xlink:href="#DejaVuSans-35" transform="translate(95.410156 0)"/>
      </g>
     </g>
    </g>
    <g id="xtick_5">
     <g id="line2d_9">
      <path d="M 384.913106 246.04 
L 384.913106 26.16 
" clip-path="url(#ped1c353aac)" style="fill: none; stroke: #808080; stroke-opacity: 0.3; stroke-width: 0.5; stroke-linecap: square"/>
     </g>
     <g id="line2d_10">
      <g>
       <use xlink:href="#m8cd2f7c38a" x="384.913106" y="246.04" style="stroke: #000000; stroke-width: 0.8"/>
      </g>
     </g>
     <g id="text_5">
      <!-- 2.0 -->
      <g transform="translate(376.961544 261.138438) scale(0.1 -0.1)">
       <defs>
        <path id="DejaVuSans-32" d="M 1228 531 
L 3431 531 
L 3431 0 
L 469 0 
L 469 531 
Q 828 903 1448 1529 
Q 2069 2156 2228 2338 
Q 2531 2678 2651 2914 
Q 2772 3150 2772 3378 
Q 2772 3750 2511 3984 
Q 2250 4219 1831 4219 
Q 1534 4219 1204 4116 
Q 875 4013 500 3803 
L 500 4441 
Q 881 4594 1212 4672 
Q 1544 4750 1819 4750 
Q 2544 4750 2975 4387 
Q 3406 4025 3406 3419 
Q 3406 3131 3298 2873 
Q 3191 2616 2906 2266 
Q 2828 2175 2409 1742 
Q 1991 1309 1228 531 
z
" transform="scale(0.015625)"/>
       </defs>
       <use xlink:href="#DejaVuSans-32"/>
       <use xlink:href="#DejaVuSans-2e" transform="translate(63.623047 0)"/>
       <use xlink:href="#DejaVuSans-30" transform="translate(95.410156 0)"/>
      </g>
     </g>
    </g>
    <g id="xtick_6">
     <g id="line2d_11">
      <path d="M 463.298712 246.04 
L 463.298712 26.16 
" clip-path="url(#ped1c353aac)" style="fill: none; stroke: #808080; stroke-opacity: 0.3; stroke-width: 0.5; stroke-linecap: square"/>
     </g>
     <g id="line2d_12">
      <g>
       <use xlink:href="#m8cd2f7c38a" x="463.298712" y="246.04" style="stroke: #000000; stroke-width: 0.8"/>
      </g>
     </g>
     <g id="text_6">
      <!-- 2.5 -->
      <g transform="translate(455.34715 261.138438) scale(0.1 -0.1)">
       <use xlink:href="#DejaVuSans-32"/>
       <use xlink:href="#DejaVuSans-2e" transform="translate(63.623047 0)"/>
       <use xlink:href="#DejaVuSans-35" transform="translate(95.410156 0)"/>
      </g>
     </g>
    </g>
    <g id="xtick_7">
     <g id="line2d_13">
      <path d="M 541.684318 246.04 
L 541.684318 26.16 
" clip-path="url(#ped1c353aac)" style="fill: none; stroke: #808080; stroke-opacity: 0.3; stroke-width: 0.5; stroke-linecap: square"/>
     </g>
     <g id="line2d_14">
      <g>
       <use xlink:href="#m8cd2f7c38a" x="541.684318" y="246.04" style="stroke: #000000; stroke-width: 0.8"/>
      </g>
     </g>
     <g id="text_7">
      <!-- 3.0 -->
      <g transform="translate(533.732756 261.138438) scale(0.1 -0.1)">
       <defs>
        <path id="DejaVuSans-33" d="M 2597 2516 
Q 3050 2419 3304 2112 
Q 3559 1806 3559 1356 
Q 3559 666 3084 287 
Q 2609 -91 1734 -91 
Q 1441 -91 1130 -33 
Q 819 25 488 141 
L 488 750 
Q 750 597 1062 519 
Q 1375 441 1716 441 
Q 2309 441 2620 675 
Q 2931 909 2931 1356 
Q 2931 1769 2642 2001 
Q 2353 2234 1838 2234 
L 1294 2234 
L 1294 2753 
L 1863 2753 
Q 2328 2753 2575 2939 
Q 2822 3125 2822 3475 
Q 2822 3834 2567 4026 
Q 2313 4219 1838 4219 
Q 1578 4219 1281 4162 
Q 984 4106 628 3988 
L 628 4550 
Q 988 4650 1302 4700 
Q 1616 4750 1894 4750 
Q 2613 4750 3031 4423 
Q 3450 4097 3450 3541 
Q 3450 3153 3228 2886 
Q 3006 2619 2597 2516 
z
" transform="scale(0.015625)"/>
       </defs>
       <use xlink:href="#DejaVuSans-33"/>
       <use xlink:href="#DejaVuSans-2e" transform="translate(63.623047 0)"/>
       <use xlink:href="#DejaVuSans-30" transform="translate(95.410156 0)"/>
      </g>
     </g>
    </g>
    <g id="text_8">
     <!-- Time [h] -->
     <g transform="translate(285.634531 274.816562) scale(0.1 -0.1)">
      <defs>
       <path id="DejaVuSans-54" d="M -19 4666 
L 3928 4666 
L 3928 4134 
L 2272 4134 
L 2272 0 
L 1638 0 
L 1638 4134 
L -19 4134 
L -19 4666 
z
" transform="scale(0.015625)"/>
       <path id="DejaVuSans-69" d="M 603 3500 
L 1178 3500 
L 1178 0 
L 603 0 
L 603 3500 
z
M 603 4863 
L 1178 4863 
L 1178 4134 
L 603 4134 
L 603 4863 
z
" transform="scale(0.015625)"/>
       <path id="DejaVuSans-6d" d="M 3328 2828 
Q 3544 3216 3844 3400 
Q 4144 3584 4550 3584 
Q 5097 3584 5394 3201 
Q 5691 2819 5691 2113 
L 5691 0 
L 5113 0 
L 5113 2094 
Q 5113 2597 4934 2840 
Q 4756 3084 4391 3084 
Q 3944 3084 3684 2787 
Q 3425 2491 3425 1978 
L 3425 0 
L 2847 0 
L 2847 2094 
Q 2847 2600 2669 2842 
Q 2491 3084 2119 3084 
Q 1678 3084 1418 2786 
Q 1159 2488 1159 1978 
L 1159 0 
L 581 0 
L 581 3500 
L 1159 3500 
L 1159 2956 
Q 1356 3278 1631 3431 
Q 1906 3584 2284 3584 
Q 2666 3584 2933 3390 
Q 3200 3197 3328 2828 
z
" transform="scale(0.015625)"/>
       <path id="DejaVuSans-65" d="M 3597 1894 
L 3597 1613 
L 953 1613 
Q 991 1019 1311 708 
Q 1631 397 2203 397 
Q 2534 397 2845 478 
Q 3156 559 3463 722 
L 3463 178 
Q 3153 47 2828 -22 
Q 2503 -91 2169 -91 
Q 1331 -91 842 396 
Q 353 884 353 1716 
Q 353 2575 817 3079 
Q 1281 3584 2069 3584 
Q 2775 3584 3186 3129 
Q 3597 2675 3597 1894 
z
M 3022 2063 
Q 3016 2534 2758 2815 
Q 2500 3097 2075 3097 
Q 1594 3097 1305 2825 
Q 1016 2553 972 2059 
L 3022 2063 
z
" transform="scale(0.015625)"/>
       <path id="DejaVuSans-20" transform="scale(0.015625)"/>
       <path id="DejaVuSans-5b" d="M 550 4863 
L 1875 4863 
L 1875 4416 
L 1125 4416 
L 1125 -397 
L 1875 -397 
L 1875 -844 
L 550 -844 
L 550 4863 
z
" transform="scale(0.015625)"/>
       <path id="DejaVuSans-68" d="M 3513 2113 
L 3513 0 
L 2938 0 
L 2938 2094 
Q 2938 2591 2744 2837 
Q 2550 3084 2163 3084 
Q 1697 3084 1428 2787 
Q 1159 2491 1159 1978 
L 1159 0 
L 581 0 
L 581 4863 
L 1159 4863 
L 1159 2956 
Q 1366 3272 1645 3428 
Q 1925 3584 2291 3584 
Q 2894 3584 3203 3211 
Q 3513 2838 3513 2113 
z
" transform="scale(0.015625)"/>
       <path id="DejaVuSans-5d" d="M 1947 4863 
L 1947 -844 
L 622 -844 
L 622 -397 
L 1369 -397 
L 1369 4416 
L 622 4416 
L 622 4863 
L 1947 4863 
z
" transform="scale(0.015625)"/>
      </defs>
      <use xlink:href="#DejaVuSans-54"/>
      <use xlink:href="#DejaVuSans-69" transform="translate(57.958984 0)"/>
      <use xlink:href="#DejaVuSans-6d" transform="translate(85.742188 0)"/>
      <use xlink:href="#DejaVuSans-65" transform="translate(183.154297 0)"/>
      <use xlink:href="#DejaVuSans-20" transform="translate(244.677734 0)"/>
      <use xlink:href="#DejaVuSans-5b" transform="translate(276.464844 0)"/>
      <use xlink:href="#DejaVuSans-68" transform="translate(315.478516 0)"/>
      <use xlink:href="#DejaVuSans-5d" transform="translate(378.857422 0)"/>
     </g>
    </g>
   </g>
   <g id="matplotlib.axis_2">
    <g id="ytick_1">
     <g id="line2d_15">
      <path d="M 47.855 222.504398 
L 565.2 222.504398 
" clip-path="url(#ped1c353aac)" style="fill: none; stroke: #808080; stroke-opacity: 0.3; stroke-width: 0.5; stroke-linecap: square"/>
     </g>
     <g id="line2d_16">
      <defs>
       <path id="m6540d3ef25" d="M 0 0 
L -4 0 
" style="stroke: #000000; stroke-width: 0.8"/>
      </defs>
      <g>
       <use xlink:href="#m6540d3ef25" x="47.855" y="222.504398" style="stroke: #000000; stroke-width: 0.8"/>
      </g>
     </g>
     <g id="text_9">
      <!-- 0.2 -->
      <g transform="translate(24.451875 226.303617) scale(0.1 -0.1)">
       <use xlink:href="#DejaVuSans-30"/>
       <use xlink:href="#DejaVuSans-2e" transform="translate(63.623047 0)"/>
       <use xlink:href="#DejaVuSans-32" transform="translate(95.410156 0)"/>
      </g>
     </g>
    </g>
    <g id="ytick_2">
     <g id="line2d_17">
      <path d="M 47.855 194.410919 
L 565.2 194.410919 
" clip-path="url(#ped1c353aac)" style="fill: none; stroke: #808080; stroke-opacity: 0.3; stroke-width: 0.5; stroke-linecap: square"/>
     </g>
     <g id="line2d_18">
      <g>
       <use xlink:href="#m6540d3ef25" x="47.855" y="194.410919" style="stroke: #000000; stroke-width: 0.8"/>
      </g>
     </g>
     <g id="text_10">
      <!-- 0.3 -->
      <g transform="translate(24.451875 198.210138) scale(0.1 -0.1)">
       <use xlink:href="#DejaVuSans-30"/>
       <use xlink:href="#DejaVuSans-2e" transform="translate(63.623047 0)"/>
       <use xlink:href="#DejaVuSans-33" transform="translate(95.410156 0)"/>
      </g>
     </g>
    </g>
    <g id="ytick_3">
     <g id="line2d_19">
      <path d="M 47.855 166.31744 
L 565.2 166.31744 
" clip-path="url(#ped1c353aac)" style="fill: none; stroke: #808080; stroke-opacity: 0.3; stroke-width: 0.5; stroke-linecap: square"/>
     </g>
     <g id="line2d_20">
      <g>
       <use xlink:href="#m6540d3ef25" x="47.855" y="166.31744" style="stroke: #000000; stroke-width: 0.8"/>
      </g>
     </g>
     <g id="text_11">
      <!-- 0.4 -->
      <g transform="translate(24.451875 170.116659) scale(0.1 -0.1)">
       <defs>
        <path id="DejaVuSans-34" d="M 2419 4116 
L 825 1625 
L 2419 1625 
L 2419 4116 
z
M 2253 4666 
L 3047 4666 
L 3047 1625 
L 3713 1625 
L 3713 1100 
L 3047 1100 
L 3047 0 
L 2419 0 
L 2419 1100 
L 313 1100 
L 313 1709 
L 2253 4666 
z
" transform="scale(0.015625)"/>
       </defs>
       <use xlink:href="#DejaVuSans-30"/>
       <use xlink:href="#DejaVuSans-2e" transform="translate(63.623047 0)"/>
       <use xlink:href="#DejaVuSans-34" transform="translate(95.410156 0)"/>
      </g>
     </g>
    </g>
    <g id="ytick_4">
     <g id="line2d_21">
      <path d="M 47.855 138.223962 
L 565.2 138.223962 
" clip-path="url(#ped1c353aac)" style="fill: none; stroke: #808080; stroke-opacity: 0.3; stroke-width: 0.5; stroke-linecap: square"/>
     </g>
     <g id="line2d_22">
      <g>
       <use xlink:href="#m6540d3ef25" x="47.855" y="138.223962" style="stroke: #000000; stroke-width: 0.8"/>
      </g>
     </g>
     <g id="text_12">
      <!-- 0.5 -->
      <g transform="translate(24.451875 142.02318) scale(0.1 -0.1)">
       <use xlink:href="#DejaVuSans-30"/>
       <use xlink:href="#DejaVuSans-2e" transform="translate(63.623047 0)"/>
       <use xlink:href="#DejaVuSans-35" transform="translate(95.410156 0)"/>
      </g>
     </g>
    </g>
    <g id="ytick_5">
     <g id="line2d_23">
      <path d="M 47.855 110.130483 
L 565.2 110.130483 
" clip-path="url(#ped1c353aac)" style="fill: none; stroke: #808080; stroke-opacity: 0.3; stroke-width: 0.5; stroke-linecap: square"/>
     </g>
     <g id="line2d_24">
      <g>
       <use xlink:href="#m6540d3ef25" x="47.855" y="110.130483" style="stroke: #000000; stroke-width: 0.8"/>
      </g>
     </g>
     <g id="text_13">
      <!-- 0.6 -->
      <g transform="translate(24.451875 113.929702) scale(0.1 -0.1)">
       <defs>
        <path id="DejaVuSans-36" d="M 2113 2584 
Q 1688 2584 1439 2293 
Q 1191 2003 1191 1497 
Q 1191 994 1439 701 
Q 1688 409 2113 409 
Q 2538 409 2786 701 
Q 3034 994 3034 1497 
Q 3034 2003 2786 2293 
Q 2538 2584 2113 2584 
z
M 3366 4563 
L 3366 3988 
Q 3128 4100 2886 4159 
Q 2644 4219 2406 4219 
Q 1781 4219 1451 3797 
Q 1122 3375 1075 2522 
Q 1259 2794 1537 2939 
Q 1816 3084 2150 3084 
Q 2853 3084 3261 2657 
Q 3669 2231 3669 1497 
Q 3669 778 3244 343 
Q 2819 -91 2113 -91 
Q 1303 -91 875 529 
Q 447 1150 447 2328 
Q 447 3434 972 4092 
Q 1497 4750 2381 4750 
Q 2619 4750 2861 4703 
Q 3103 4656 3366 4563 
z
" transform="scale(0.015625)"/>
       </defs>
       <use xlink:href="#DejaVuSans-30"/>
       <use xlink:href="#DejaVuSans-2e" transform="translate(63.623047 0)"/>
       <use xlink:href="#DejaVuSans-36" transform="translate(95.410156 0)"/>
      </g>
     </g>
    </g>
    <g id="ytick_6">
     <g id="line2d_25">
      <path d="M 47.855 82.037004 
L 565.2 82.037004 
" clip-path="url(#ped1c353aac)" style="fill: none; stroke: #808080; stroke-opacity: 0.3; stroke-width: 0.5; stroke-linecap: square"/>
     </g>
     <g id="line2d_26">
      <g>
       <use xlink:href="#m6540d3ef25" x="47.855" y="82.037004" style="stroke: #000000; stroke-width: 0.8"/>
      </g>
     </g>
     <g id="text_14">
      <!-- 0.7 -->
      <g transform="translate(24.451875 85.836223) scale(0.1 -0.1)">
       <defs>
        <path id="DejaVuSans-37" d="M 525 4666 
L 3525 4666 
L 3525 4397 
L 1831 0 
L 1172 0 
L 2766 4134 
L 525 4134 
L 525 4666 
z
" transform="scale(0.015625)"/>
       </defs>
       <use xlink:href="#DejaVuSans-30"/>
       <use xlink:href="#DejaVuSans-2e" transform="translate(63.623047 0)"/>
       <use xlink:href="#DejaVuSans-37" transform="translate(95.410156 0)"/>
      </g>
     </g>
    </g>
    <g id="ytick_7">
     <g id="line2d_27">
      <path d="M 47.855 53.943525 
L 565.2 53.943525 
" clip-path="url(#ped1c353aac)" style="fill: none; stroke: #808080; stroke-opacity: 0.3; stroke-width: 0.5; stroke-linecap: square"/>
     </g>
     <g id="line2d_28">
      <g>
       <use xlink:href="#m6540d3ef25" x="47.855" y="53.943525" style="stroke: #000000; stroke-width: 0.8"/>
      </g>
     </g>
     <g id="text_15">
      <!-- 0.8 -->
      <g transform="translate(24.451875 57.742744) scale(0.1 -0.1)">
       <defs>
        <path id="DejaVuSans-38" d="M 2034 2216 
Q 1584 2216 1326 1975 
Q 1069 1734 1069 1313 
Q 1069 891 1326 650 
Q 1584 409 2034 409 
Q 2484 409 2743 651 
Q 3003 894 3003 1313 
Q 3003 1734 2745 1975 
Q 2488 2216 2034 2216 
z
M 1403 2484 
Q 997 2584 770 2862 
Q 544 3141 544 3541 
Q 544 4100 942 4425 
Q 1341 4750 2034 4750 
Q 2731 4750 3128 4425 
Q 3525 4100 3525 3541 
Q 3525 3141 3298 2862 
Q 3072 2584 2669 2484 
Q 3125 2378 3379 2068 
Q 3634 1759 3634 1313 
Q 3634 634 3220 271 
Q 2806 -91 2034 -91 
Q 1263 -91 848 271 
Q 434 634 434 1313 
Q 434 1759 690 2068 
Q 947 2378 1403 2484 
z
M 1172 3481 
Q 1172 3119 1398 2916 
Q 1625 2713 2034 2713 
Q 2441 2713 2670 2916 
Q 2900 3119 2900 3481 
Q 2900 3844 2670 4047 
Q 2441 4250 2034 4250 
Q 1625 4250 1398 4047 
Q 1172 3844 1172 3481 
z
" transform="scale(0.015625)"/>
       </defs>
       <use xlink:href="#DejaVuSans-30"/>
       <use xlink:href="#DejaVuSans-2e" transform="translate(63.623047 0)"/>
       <use xlink:href="#DejaVuSans-38" transform="translate(95.410156 0)"/>
      </g>
     </g>
    </g>
    <g id="text_16">
     <!-- Growth Level [g/L] -->
     <g transform="translate(18.372187 182.11875) rotate(-90) scale(0.1 -0.1)">
      <defs>
       <path id="DejaVuSans-47" d="M 3809 666 
L 3809 1919 
L 2778 1919 
L 2778 2438 
L 4434 2438 
L 4434 434 
Q 4069 175 3628 42 
Q 3188 -91 2688 -91 
Q 1594 -91 976 548 
Q 359 1188 359 2328 
Q 359 3472 976 4111 
Q 1594 4750 2688 4750 
Q 3144 4750 3555 4637 
Q 3966 4525 4313 4306 
L 4313 3634 
Q 3963 3931 3569 4081 
Q 3175 4231 2741 4231 
Q 1884 4231 1454 3753 
Q 1025 3275 1025 2328 
Q 1025 1384 1454 906 
Q 1884 428 2741 428 
Q 3075 428 3337 486 
Q 3600 544 3809 666 
z
" transform="scale(0.015625)"/>
       <path id="DejaVuSans-72" d="M 2631 2963 
Q 2534 3019 2420 3045 
Q 2306 3072 2169 3072 
Q 1681 3072 1420 2755 
Q 1159 2438 1159 1844 
L 1159 0 
L 581 0 
L 581 3500 
L 1159 3500 
L 1159 2956 
Q 1341 3275 1631 3429 
Q 1922 3584 2338 3584 
Q 2397 3584 2469 3576 
Q 2541 3569 2628 3553 
L 2631 2963 
z
" transform="scale(0.015625)"/>
       <path id="DejaVuSans-6f" d="M 1959 3097 
Q 1497 3097 1228 2736 
Q 959 2375 959 1747 
Q 959 1119 1226 758 
Q 1494 397 1959 397 
Q 2419 397 2687 759 
Q 2956 1122 2956 1747 
Q 2956 2369 2687 2733 
Q 2419 3097 1959 3097 
z
M 1959 3584 
Q 2709 3584 3137 3096 
Q 3566 2609 3566 1747 
Q 3566 888 3137 398 
Q 2709 -91 1959 -91 
Q 1206 -91 779 398 
Q 353 888 353 1747 
Q 353 2609 779 3096 
Q 1206 3584 1959 3584 
z
" transform="scale(0.015625)"/>
       <path id="DejaVuSans-77" d="M 269 3500 
L 844 3500 
L 1563 769 
L 2278 3500 
L 2956 3500 
L 3675 769 
L 4391 3500 
L 4966 3500 
L 4050 0 
L 3372 0 
L 2619 2869 
L 1863 0 
L 1184 0 
L 269 3500 
z
" transform="scale(0.015625)"/>
       <path id="DejaVuSans-74" d="M 1172 4494 
L 1172 3500 
L 2356 3500 
L 2356 3053 
L 1172 3053 
L 1172 1153 
Q 1172 725 1289 603 
Q 1406 481 1766 481 
L 2356 481 
L 2356 0 
L 1766 0 
Q 1100 0 847 248 
Q 594 497 594 1153 
L 594 3053 
L 172 3053 
L 172 3500 
L 594 3500 
L 594 4494 
L 1172 4494 
z
" transform="scale(0.015625)"/>
       <path id="DejaVuSans-4c" d="M 628 4666 
L 1259 4666 
L 1259 531 
L 3531 531 
L 3531 0 
L 628 0 
L 628 4666 
z
" transform="scale(0.015625)"/>
       <path id="DejaVuSans-76" d="M 191 3500 
L 800 3500 
L 1894 563 
L 2988 3500 
L 3597 3500 
L 2284 0 
L 1503 0 
L 191 3500 
z
" transform="scale(0.015625)"/>
       <path id="DejaVuSans-6c" d="M 603 4863 
L 1178 4863 
L 1178 0 
L 603 0 
L 603 4863 
z
" transform="scale(0.015625)"/>
       <path id="DejaVuSans-67" d="M 2906 1791 
Q 2906 2416 2648 2759 
Q 2391 3103 1925 3103 
Q 1463 3103 1205 2759 
Q 947 2416 947 1791 
Q 947 1169 1205 825 
Q 1463 481 1925 481 
Q 2391 481 2648 825 
Q 2906 1169 2906 1791 
z
M 3481 434 
Q 3481 -459 3084 -895 
Q 2688 -1331 1869 -1331 
Q 1566 -1331 1297 -1286 
Q 1028 -1241 775 -1147 
L 775 -588 
Q 1028 -725 1275 -790 
Q 1522 -856 1778 -856 
Q 2344 -856 2625 -561 
Q 2906 -266 2906 331 
L 2906 616 
Q 2728 306 2450 153 
Q 2172 0 1784 0 
Q 1141 0 747 490 
Q 353 981 353 1791 
Q 353 2603 747 3093 
Q 1141 3584 1784 3584 
Q 2172 3584 2450 3431 
Q 2728 3278 2906 2969 
L 2906 3500 
L 3481 3500 
L 3481 434 
z
" transform="scale(0.015625)"/>
       <path id="DejaVuSans-2f" d="M 1625 4666 
L 2156 4666 
L 531 -594 
L 0 -594 
L 1625 4666 
z
" transform="scale(0.015625)"/>
      </defs>
      <use xlink:href="#DejaVuSans-47"/>
      <use xlink:href="#DejaVuSans-72" transform="translate(77.490234 0)"/>
      <use xlink:href="#DejaVuSans-6f" transform="translate(116.353516 0)"/>
      <use xlink:href="#DejaVuSans-77" transform="translate(177.535156 0)"/>
      <use xlink:href="#DejaVuSans-74" transform="translate(259.322266 0)"/>
      <use xlink:href="#DejaVuSans-68" transform="translate(298.53125 0)"/>
      <use xlink:href="#DejaVuSans-20" transform="translate(361.910156 0)"/>
      <use xlink:href="#DejaVuSans-4c" transform="translate(393.697266 0)"/>
      <use xlink:href="#DejaVuSans-65" transform="translate(447.660156 0)"/>
      <use xlink:href="#DejaVuSans-76" transform="translate(509.183594 0)"/>
      <use xlink:href="#DejaVuSans-65" transform="translate(568.363281 0)"/>
      <use xlink:href="#DejaVuSans-6c" transform="translate(629.886719 0)"/>
      <use xlink:href="#DejaVuSans-20" transform="translate(657.669922 0)"/>
      <use xlink:href="#DejaVuSans-5b" transform="translate(689.457031 0)"/>
      <use xlink:href="#DejaVuSans-67" transform="translate(728.470703 0)"/>
      <use xlink:href="#DejaVuSans-2f" transform="translate(791.947266 0)"/>
      <use xlink:href="#DejaVuSans-4c" transform="translate(825.638672 0)"/>
      <use xlink:href="#DejaVuSans-5d" transform="translate(881.351562 0)"/>
     </g>
    </g>
   </g>
   <g id="line2d_29">
    <path d="M 71.370682 236.045455 
L 73.855794 235.536557 
L 98.706917 230.101552 
L 128.386818 222.707091 
L 157.369991 214.402472 
L 185.441295 205.187878 
L 212.618283 195.012237 
L 238.921351 183.826773 
L 264.363203 171.590492 
L 288.947674 158.274151 
L 312.66792 143.86583 
L 335.501484 128.380493 
L 357.394449 111.881931 
L 378.200245 94.554692 
L 394.056995 80.184443 
L 405.60419 69.055695 
L 413.896242 60.718295 
L 419.885762 54.526925 
L 424.262995 49.92681 
L 427.500986 46.498068 
L 429.925303 43.931394 
L 431.761636 42.001867 
L 433.1687 40.545766 
L 434.259568 39.443541 
L 435.1158 38.607483 
L 435.79676 37.973027 
L 436.345773 37.492622 
L 436.794213 37.13127 
L 437.164529 36.862855 
L 437.473391 36.666666 
L 437.734825 36.52497 
L 437.961409 36.422842 
L 438.163699 36.348848 
L 438.365989 36.290804 
L 438.552228 36.250299 
L 438.728022 36.22184 
L 438.899214 36.201567 
L 439.070034 36.187051 
L 439.243829 36.176676 
L 439.42349 36.169317 
L 439.611731 36.164167 
L 439.81129 36.16063 
L 440.025104 36.158258 
L 440.256502 36.156716 
L 440.509425 36.155751 
L 440.788729 36.155175 
L 441.10062 36.15485 
L 441.453305 36.154679 
L 441.858024 36.154597 
L 442.330768 36.154563 
L 442.895277 36.15455 
L 443.588563 36.154546 
L 444.471507 36.154546 
L 445.647349 36.154545 
L 447.252445 36.154546 
L 448.812884 36.154546 
L 450.373323 36.154546 
L 451.808123 36.154546 
L 453.101019 36.154546 
L 454.397277 36.154546 
L 455.84129 36.154546 
L 457.417329 36.154546 
L 458.75697 36.154546 
L 460.096611 36.154546 
L 461.560641 36.154546 
L 463.103713 36.154546 
L 464.573485 36.154546 
L 465.908382 36.154546 
L 467.206392 36.154546 
L 468.607228 36.154546 
L 470.142048 36.154546 
L 471.674737 36.154546 
L 473.06454 36.154546 
L 474.34819 36.154546 
L 475.680185 36.154546 
L 477.167724 36.154546 
L 478.740229 36.154546 
L 480.046713 36.154546 
L 481.353197 36.154546 
L 482.82035 36.154546 
L 484.405073 36.154546 
L 485.723362 36.154546 
L 487.041651 36.154546 
L 488.510119 36.154546 
L 490.082039 36.154546 
L 491.403606 36.154546 
L 492.725173 36.154546 
L 494.190539 36.154546 
L 495.75586 36.154546 
L 497.08211 36.154546 
L 498.40836 36.154546 
L 499.871765 36.154546 
L 501.429869 36.154546 
L 502.760129 36.154546 
L 504.090389 36.154546 
L 505.551763 36.154546 
L 507.103402 36.154546 
L 508.582712 36.154546 
L 509.916798 36.154546 
L 511.205263 36.154546 
L 512.598293 36.154546 
L 514.136942 36.154546 
L 515.681694 36.154546 
L 517.076742 36.154546 
L 518.353624 36.154546 
L 519.674557 36.154546 
L 521.15922 36.154546 
L 522.742302 36.154546 
L 524.047494 36.154546 
L 525.352686 36.154546 
L 526.822204 36.154546 
L 528.410578 36.154546 
L 529.725787 36.154546 
L 531.040996 36.154546 
L 532.510581 36.154546 
L 534.087129 36.154546 
L 535.406256 36.154546 
L 536.725383 36.154546 
L 538.192016 36.154546 
L 539.761324 36.154546 
L 541.085222 36.154546 
L 541.684318 36.154545 
" clip-path="url(#ped1c353aac)" style="fill: none; stroke: #000000; stroke-width: 1.5; stroke-linecap: square"/>
    <defs>
     <path id="m13cb3ae107" d="M 0 3 
C 0.795609 3 1.55874 2.683901 2.12132 2.12132 
C 2.683901 1.55874 3 0.795609 3 0 
C 3 -0.795609 2.683901 -1.55874 2.12132 -2.12132 
C 1.55874 -2.683901 0.795609 -3 0 -3 
C -0.795609 -3 -1.55874 -2.683901 -2.12132 -2.12132 
C -2.683901 -1.55874 -3 -0.795609 -3 0 
C -3 0.795609 -2.683901 1.55874 -2.12132 2.12132 
C -1.55874 2.683901 -0.795609 3 0 3 
z
" style="stroke: #000000"/>
    </defs>
    <g clip-path="url(#ped1c353aac)">
     <use xlink:href="#m13cb3ae107" x="71.370682" y="236.045455" style="stroke: #000000"/>
     <use xlink:href="#m13cb3ae107" x="73.855794" y="235.536557" style="stroke: #000000"/>
     <use xlink:href="#m13cb3ae107" x="98.706917" y="230.101552" style="stroke: #000000"/>
     <use xlink:href="#m13cb3ae107" x="128.386818" y="222.707091" style="stroke: #000000"/>
     <use xlink:href="#m13cb3ae107" x="157.369991" y="214.402472" style="stroke: #000000"/>
     <use xlink:href="#m13cb3ae107" x="185.441295" y="205.187878" style="stroke: #000000"/>
     <use xlink:href="#m13cb3ae107" x="212.618283" y="195.012237" style="stroke: #000000"/>
     <use xlink:href="#m13cb3ae107" x="238.921351" y="183.826773" style="stroke: #000000"/>
     <use xlink:href="#m13cb3ae107" x="264.363203" y="171.590492" style="stroke: #000000"/>
     <use xlink:href="#m13cb3ae107" x="288.947674" y="158.274151" style="stroke: #000000"/>
     <use xlink:href="#m13cb3ae107" x="312.66792" y="143.86583" style="stroke: #000000"/>
     <use xlink:href="#m13cb3ae107" x="335.501484" y="128.380493" style="stroke: #000000"/>
     <use xlink:href="#m13cb3ae107" x="357.394449" y="111.881931" style="stroke: #000000"/>
     <use xlink:href="#m13cb3ae107" x="378.200245" y="94.554692" style="stroke: #000000"/>
     <use xlink:href="#m13cb3ae107" x="394.056995" y="80.184443" style="stroke: #000000"/>
     <use xlink:href="#m13cb3ae107" x="405.60419" y="69.055695" style="stroke: #000000"/>
     <use xlink:href="#m13cb3ae107" x="413.896242" y="60.718295" style="stroke: #000000"/>
     <use xlink:href="#m13cb3ae107" x="419.885762" y="54.526925" style="stroke: #000000"/>
     <use xlink:href="#m13cb3ae107" x="424.262995" y="49.92681" style="stroke: #000000"/>
     <use xlink:href="#m13cb3ae107" x="427.500986" y="46.498068" style="stroke: #000000"/>
     <use xlink:href="#m13cb3ae107" x="429.925303" y="43.931394" style="stroke: #000000"/>
     <use xlink:href="#m13cb3ae107" x="431.761636" y="42.001867" style="stroke: #000000"/>
     <use xlink:href="#m13cb3ae107" x="433.1687" y="40.545766" style="stroke: #000000"/>
     <use xlink:href="#m13cb3ae107" x="434.259568" y="39.443541" style="stroke: #000000"/>
     <use xlink:href="#m13cb3ae107" x="435.1158" y="38.607483" style="stroke: #000000"/>
     <use xlink:href="#m13cb3ae107" x="435.79676" y="37.973027" style="stroke: #000000"/>
     <use xlink:href="#m13cb3ae107" x="436.345773" y="37.492622" style="stroke: #000000"/>
     <use xlink:href="#m13cb3ae107" x="436.794213" y="37.13127" style="stroke: #000000"/>
     <use xlink:href="#m13cb3ae107" x="437.164529" y="36.862855" style="stroke: #000000"/>
     <use xlink:href="#m13cb3ae107" x="437.473391" y="36.666666" style="stroke: #000000"/>
     <use xlink:href="#m13cb3ae107" x="437.734825" y="36.52497" style="stroke: #000000"/>
     <use xlink:href="#m13cb3ae107" x="437.961409" y="36.422842" style="stroke: #000000"/>
     <use xlink:href="#m13cb3ae107" x="438.163699" y="36.348848" style="stroke: #000000"/>
     <use xlink:href="#m13cb3ae107" x="438.365989" y="36.290804" style="stroke: #000000"/>
     <use xlink:href="#m13cb3ae107" x="438.552228" y="36.250299" style="stroke: #000000"/>
     <use xlink:href="#m13cb3ae107" x="438.728022" y="36.22184" style="stroke: #000000"/>
     <use xlink:href="#m13cb3ae107" x="438.899214" y="36.201567" style="stroke: #000000"/>
     <use xlink:href="#m13cb3ae107" x="439.070034" y="36.187051" style="stroke: #000000"/>
     <use xlink:href="#m13cb3ae107" x="439.243829" y="36.176676" style="stroke: #000000"/>
     <use xlink:href="#m13cb3ae107" x="439.42349" y="36.169317" style="stroke: #000000"/>
     <use xlink:href="#m13cb3ae107" x="439.611731" y="36.164167" style="stroke: #000000"/>
     <use xlink:href="#m13cb3ae107" x="439.81129" y="36.16063" style="stroke: #000000"/>
     <use xlink:href="#m13cb3ae107" x="440.025104" y="36.158258" style="stroke: #000000"/>
     <use xlink:href="#m13cb3ae107" x="440.256502" y="36.156716" style="stroke: #000000"/>
     <use xlink:href="#m13cb3ae107" x="440.509425" y="36.155751" style="stroke: #000000"/>
     <use xlink:href="#m13cb3ae107" x="440.788729" y="36.155175" style="stroke: #000000"/>
     <use xlink:href="#m13cb3ae107" x="441.10062" y="36.15485" style="stroke: #000000"/>
     <use xlink:href="#m13cb3ae107" x="441.453305" y="36.154679" style="stroke: #000000"/>
     <use xlink:href="#m13cb3ae107" x="441.858024" y="36.154597" style="stroke: #000000"/>
     <use xlink:href="#m13cb3ae107" x="442.330768" y="36.154563" style="stroke: #000000"/>
     <use xlink:href="#m13cb3ae107" x="442.895277" y="36.15455" style="stroke: #000000"/>
     <use xlink:href="#m13cb3ae107" x="443.588563" y="36.154546" style="stroke: #000000"/>
     <use xlink:href="#m13cb3ae107" x="444.471507" y="36.154546" style="stroke: #000000"/>
     <use xlink:href="#m13cb3ae107" x="445.647349" y="36.154545" style="stroke: #000000"/>
     <use xlink:href="#m13cb3ae107" x="447.252445" y="36.154546" style="stroke: #000000"/>
     <use xlink:href="#m13cb3ae107" x="448.812884" y="36.154546" style="stroke: #000000"/>
     <use xlink:href="#m13cb3ae107" x="450.373323" y="36.154546" style="stroke: #000000"/>
     <use xlink:href="#m13cb3ae107" x="451.808123" y="36.154546" style="stroke: #000000"/>
     <use xlink:href="#m13cb3ae107" x="453.101019" y="36.154546" style="stroke: #000000"/>
     <use xlink:href="#m13cb3ae107" x="454.397277" y="36.154546" style="stroke: #000000"/>
     <use xlink:href="#m13cb3ae107" x="455.84129" y="36.154546" style="stroke: #000000"/>
     <use xlink:href="#m13cb3ae107" x="457.417329" y="36.154546" style="stroke: #000000"/>
     <use xlink:href="#m13cb3ae107" x="458.75697" y="36.154546" style="stroke: #000000"/>
     <use xlink:href="#m13cb3ae107" x="460.096611" y="36.154546" style="stroke: #000000"/>
     <use xlink:href="#m13cb3ae107" x="461.560641" y="36.154546" style="stroke: #000000"/>
     <use xlink:href="#m13cb3ae107" x="463.103713" y="36.154546" style="stroke: #000000"/>
     <use xlink:href="#m13cb3ae107" x="464.573485" y="36.154546" style="stroke: #000000"/>
     <use xlink:href="#m13cb3ae107" x="465.908382" y="36.154546" style="stroke: #000000"/>
     <use xlink:href="#m13cb3ae107" x="467.206392" y="36.154546" style="stroke: #000000"/>
     <use xlink:href="#m13cb3ae107" x="468.607228" y="36.154546" style="stroke: #000000"/>
     <use xlink:href="#m13cb3ae107" x="470.142048" y="36.154546" style="stroke: #000000"/>
     <use xlink:href="#m13cb3ae107" x="471.674737" y="36.154546" style="stroke: #000000"/>
     <use xlink:href="#m13cb3ae107" x="473.06454" y="36.154546" style="stroke: #000000"/>
     <use xlink:href="#m13cb3ae107" x="474.34819" y="36.154546" style="stroke: #000000"/>
     <use xlink:href="#m13cb3ae107" x="475.680185" y="36.154546" style="stroke: #000000"/>
     <use xlink:href="#m13cb3ae107" x="477.167724" y="36.154546" style="stroke: #000000"/>
     <use xlink:href="#m13cb3ae107" x="478.740229" y="36.154546" style="stroke: #000000"/>
     <use xlink:href="#m13cb3ae107" x="480.046713" y="36.154546" style="stroke: #000000"/>
     <use xlink:href="#m13cb3ae107" x="481.353197" y="36.154546" style="stroke: #000000"/>
     <use xlink:href="#m13cb3ae107" x="482.82035" y="36.154546" style="stroke: #000000"/>
     <use xlink:href="#m13cb3ae107" x="484.405073" y="36.154546" style="stroke: #000000"/>
     <use xlink:href="#m13cb3ae107" x="485.723362" y="36.154546" style="stroke: #000000"/>
     <use xlink:href="#m13cb3ae107" x="487.041651" y="36.154546" style="stroke: #000000"/>
     <use xlink:href="#m13cb3ae107" x="488.510119" y="36.154546" style="stroke: #000000"/>
     <use xlink:href="#m13cb3ae107" x="490.082039" y="36.154546" style="stroke: #000000"/>
     <use xlink:href="#m13cb3ae107" x="491.403606" y="36.154546" style="stroke: #000000"/>
     <use xlink:href="#m13cb3ae107" x="492.725173" y="36.154546" style="stroke: #000000"/>
     <use xlink:href="#m13cb3ae107" x="494.190539" y="36.154546" style="stroke: #000000"/>
     <use xlink:href="#m13cb3ae107" x="495.75586" y="36.154546" style="stroke: #000000"/>
     <use xlink:href="#m13cb3ae107" x="497.08211" y="36.154546" style="stroke: #000000"/>
     <use xlink:href="#m13cb3ae107" x="498.40836" y="36.154546" style="stroke: #000000"/>
     <use xlink:href="#m13cb3ae107" x="499.871765" y="36.154546" style="stroke: #000000"/>
     <use xlink:href="#m13cb3ae107" x="501.429869" y="36.154546" style="stroke: #000000"/>
     <use xlink:href="#m13cb3ae107" x="502.760129" y="36.154546" style="stroke: #000000"/>
     <use xlink:href="#m13cb3ae107" x="504.090389" y="36.154546" style="stroke: #000000"/>
     <use xlink:href="#m13cb3ae107" x="505.551763" y="36.154546" style="stroke: #000000"/>
     <use xlink:href="#m13cb3ae107" x="507.103402" y="36.154546" style="stroke: #000000"/>
     <use xlink:href="#m13cb3ae107" x="508.582712" y="36.154546" style="stroke: #000000"/>
     <use xlink:href="#m13cb3ae107" x="509.916798" y="36.154546" style="stroke: #000000"/>
     <use xlink:href="#m13cb3ae107" x="511.205263" y="36.154546" style="stroke: #000000"/>
     <use xlink:href="#m13cb3ae107" x="512.598293" y="36.154546" style="stroke: #000000"/>
     <use xlink:href="#m13cb3ae107" x="514.136942" y="36.154546" style="stroke: #000000"/>
     <use xlink:href="#m13cb3ae107" x="515.681694" y="36.154546" style="stroke: #000000"/>
     <use xlink:href="#m13cb3ae107" x="517.076742" y="36.154546" style="stroke: #000000"/>
     <use xlink:href="#m13cb3ae107" x="518.353624" y="36.154546" style="stroke: #000000"/>
     <use xlink:href="#m13cb3ae107" x="519.674557" y="36.154546" style="stroke: #000000"/>
     <use xlink:href="#m13cb3ae107" x="521.15922" y="36.154546" style="stroke: #000000"/>
     <use xlink:href="#m13cb3ae107" x="522.742302" y="36.154546" style="stroke: #000000"/>
     <use xlink:href="#m13cb3ae107" x="524.047494" y="36.154546" style="stroke: #000000"/>
     <use xlink:href="#m13cb3ae107" x="525.352686" y="36.154546" style="stroke: #000000"/>
     <use xlink:href="#m13cb3ae107" x="526.822204" y="36.154546" style="stroke: #000000"/>
     <use xlink:href="#m13cb3ae107" x="528.410578" y="36.154546" style="stroke: #000000"/>
     <use xlink:href="#m13cb3ae107" x="529.725787" y="36.154546" style="stroke: #000000"/>
     <use xlink:href="#m13cb3ae107" x="531.040996" y="36.154546" style="stroke: #000000"/>
     <use xlink:href="#m13cb3ae107" x="532.510581" y="36.154546" style="stroke: #000000"/>
     <use xlink:href="#m13cb3ae107" x="534.087129" y="36.154546" style="stroke: #000000"/>
     <use xlink:href="#m13cb3ae107" x="535.406256" y="36.154546" style="stroke: #000000"/>
     <use xlink:href="#m13cb3ae107" x="536.725383" y="36.154546" style="stroke: #000000"/>
     <use xlink:href="#m13cb3ae107" x="538.192016" y="36.154546" style="stroke: #000000"/>
     <use xlink:href="#m13cb3ae107" x="539.761324" y="36.154546" style="stroke: #000000"/>
     <use xlink:href="#m13cb3ae107" x="541.085222" y="36.154546" style="stroke: #000000"/>
     <use xlink:href="#m13cb3ae107" x="541.684318" y="36.154545" style="stroke: #000000"/>
    </g>
   </g>
   <g id="patch_3">
    <path d="M 47.855 246.04 
L 47.855 26.16 
" style="fill: none; stroke: #000000; stroke-width: 0.8; stroke-linejoin: miter; stroke-linecap: square"/>
   </g>
   <g id="patch_4">
    <path d="M 47.855 246.04 
L 565.2 246.04 
" style="fill: none; stroke: #000000; stroke-width: 0.8; stroke-linejoin: miter; stroke-linecap: square"/>
   </g>
   <g id="text_17">
    <!-- E. coli Growth -->
    <g transform="translate(264.998125 20.16) scale(0.12 -0.12)">
     <defs>
      <path id="DejaVuSans-45" d="M 628 4666 
L 3578 4666 
L 3578 4134 
L 1259 4134 
L 1259 2753 
L 3481 2753 
L 3481 2222 
L 1259 2222 
L 1259 531 
L 3634 531 
L 3634 0 
L 628 0 
L 628 4666 
z
" transform="scale(0.015625)"/>
      <path id="DejaVuSans-63" d="M 3122 3366 
L 3122 2828 
Q 2878 2963 2633 3030 
Q 2388 3097 2138 3097 
Q 1578 3097 1268 2742 
Q 959 2388 959 1747 
Q 959 1106 1268 751 
Q 1578 397 2138 397 
Q 2388 397 2633 464 
Q 2878 531 3122 666 
L 3122 134 
Q 2881 22 2623 -34 
Q 2366 -91 2075 -91 
Q 1284 -91 818 406 
Q 353 903 353 1747 
Q 353 2603 823 3093 
Q 1294 3584 2113 3584 
Q 2378 3584 2631 3529 
Q 2884 3475 3122 3366 
z
" transform="scale(0.015625)"/>
     </defs>
     <use xlink:href="#DejaVuSans-45"/>
     <use xlink:href="#DejaVuSans-2e" transform="translate(63.183594 0)"/>
     <use xlink:href="#DejaVuSans-20" transform="translate(94.970703 0)"/>
     <use xlink:href="#DejaVuSans-63" transform="translate(126.757812 0)"/>
     <use xlink:href="#DejaVuSans-6f" transform="translate(181.738281 0)"/>
     <use xlink:href="#DejaVuSans-6c" transform="translate(242.919922 0)"/>
     <use xlink:href="#DejaVuSans-69" transform="translate(270.703125 0)"/>
     <use xlink:href="#DejaVuSans-20" transform="translate(298.486328 0)"/>
     <use xlink:href="#DejaVuSans-47" transform="translate(330.273438 0)"/>
     <use xlink:href="#DejaVuSans-72" transform="translate(407.763672 0)"/>
     <use xlink:href="#DejaVuSans-6f" transform="translate(446.626953 0)"/>
     <use xlink:href="#DejaVuSans-77" transform="translate(507.808594 0)"/>
     <use xlink:href="#DejaVuSans-74" transform="translate(589.595703 0)"/>
     <use xlink:href="#DejaVuSans-68" transform="translate(628.804688 0)"/>
    </g>
   </g>
  </g>
 </g>
 <defs>
  <clipPath id="ped1c353aac">
   <rect x="47.855" y="26.16" width="517.345" height="219.88"/>
  </clipPath>
 </defs>
</svg>
