<?xml version="1.0" encoding="utf-8" standalone="no"?>
<!DOCTYPE svg PUBLIC "-//W3C//DTD SVG 1.1//EN"
  "http://www.w3.org/Graphics/SVG/1.1/DTD/svg11.dtd">
<svg xmlns:xlink="http://www.w3.org/1999/xlink" width="856.395312pt" height="243.592813pt" viewBox="0 0 856.395312 243.592813" xmlns="http://www.w3.org/2000/svg" version="1.1">
 <metadata>
  <rdf:RDF xmlns:dc="http://purl.org/dc/elements/1.1/" xmlns:cc="http://creativecommons.org/ns#" xmlns:rdf="http://www.w3.org/1999/02/22-rdf-syntax-ns#">
   <cc:Work>
    <dc:type rdf:resource="http://purl.org/dc/dcmitype/StillImage"/>
    <dc:date>2025-07-16T14:15:14.957555</dc:date>
    <dc:format>image/svg+xml</dc:format>
    <dc:creator>
     <cc:Agent>
      <dc:title>Matplotlib v3.10.1, https://matplotlib.org/</dc:title>
     </cc:Agent>
    </dc:creator>
   </cc:Work>
  </rdf:RDF>
 </metadata>
 <defs>
  <style type="text/css">*{stroke-linejoin: round; stroke-linecap: butt}</style>
 </defs>
 <g id="figure_1">
  <g id="patch_1">
   <path d="M 0 243.592813 
L 856.395312 243.592813 
L 856.395312 0 
L 0 0 
z
" style="fill: #ffffff"/>
  </g>
  <g id="axes_1">
   <g id="patch_2">
    <path d="M 60.145313 205.258438 
L 447.270312 205.258438 
L 447.270312 20.798438 
L 60.145313 20.798438 
z
" style="fill: #ffffff"/>
   </g>
   <g id="patch_3">
    <path d="M 77.741903 205.258438 
L 81.29677 205.258438 
L 81.29677 66.854933 
L 77.741903 66.854933 
z
" clip-path="url(#p0051e95ef3)" style="stroke: #ffffff; stroke-width: 0.8; stroke-linejoin: miter"/>
   </g>
   <g id="patch_4">
    <path d="M 81.29677 205.258438 
L 84.851637 205.258438 
L 84.851637 205.258438 
L 81.29677 205.258438 
z
" clip-path="url(#p0051e95ef3)" style="stroke: #ffffff; stroke-width: 0.8; stroke-linejoin: miter"/>
   </g>
   <g id="patch_5">
    <path d="M 84.851637 205.258438 
L 88.406504 205.258438 
L 88.406504 205.258438 
L 84.851637 205.258438 
z
" clip-path="url(#p0051e95ef3)" style="stroke: #ffffff; stroke-width: 0.8; stroke-linejoin: miter"/>
   </g>
   <g id="patch_6">
    <path d="M 88.406504 205.258438 
L 91.961371 205.258438 
L 91.961371 204.542237 
L 88.406504 204.542237 
z
" clip-path="url(#p0051e95ef3)" style="stroke: #ffffff; stroke-width: 0.8; stroke-linejoin: miter"/>
   </g>
   <g id="patch_7">
    <path d="M 91.961371 205.258438 
L 95.516238 205.258438 
L 95.516238 202.030883 
L 91.961371 202.030883 
z
" clip-path="url(#p0051e95ef3)" style="stroke: #ffffff; stroke-width: 0.8; stroke-linejoin: miter"/>
   </g>
   <g id="patch_8">
    <path d="M 95.516238 205.258438 
L 99.071105 205.258438 
L 99.071105 202.970315 
L 95.516238 202.970315 
z
" clip-path="url(#p0051e95ef3)" style="stroke: #ffffff; stroke-width: 0.8; stroke-linejoin: miter"/>
   </g>
   <g id="patch_9">
    <path d="M 99.071105 205.258438 
L 102.625971 205.258438 
L 102.625971 202.086691 
L 99.071105 202.086691 
z
" clip-path="url(#p0051e95ef3)" style="stroke: #ffffff; stroke-width: 0.8; stroke-linejoin: miter"/>
   </g>
   <g id="patch_10">
    <path d="M 102.625971 205.258438 
L 106.180838 205.258438 
L 106.180838 197.780184 
L 102.625971 197.780184 
z
" clip-path="url(#p0051e95ef3)" style="stroke: #ffffff; stroke-width: 0.8; stroke-linejoin: miter"/>
   </g>
   <g id="patch_11">
    <path d="M 106.180838 205.258438 
L 109.735705 205.258438 
L 109.735705 197.194201 
L 106.180838 197.194201 
z
" clip-path="url(#p0051e95ef3)" style="stroke: #ffffff; stroke-width: 0.8; stroke-linejoin: miter"/>
   </g>
   <g id="patch_12">
    <path d="M 109.735705 205.258438 
L 113.290572 205.258438 
L 113.290572 196.626821 
L 109.735705 196.626821 
z
" clip-path="url(#p0051e95ef3)" style="stroke: #ffffff; stroke-width: 0.8; stroke-linejoin: miter"/>
   </g>
   <g id="patch_13">
    <path d="M 113.290572 205.258438 
L 116.845439 205.258438 
L 116.845439 196.998874 
L 113.290572 196.998874 
z
" clip-path="url(#p0051e95ef3)" style="stroke: #ffffff; stroke-width: 0.8; stroke-linejoin: miter"/>
   </g>
   <g id="patch_14">
    <path d="M 116.845439 205.258438 
L 120.400306 205.258438 
L 120.400306 196.580315 
L 116.845439 196.580315 
z
" clip-path="url(#p0051e95ef3)" style="stroke: #ffffff; stroke-width: 0.8; stroke-linejoin: miter"/>
   </g>
   <g id="patch_15">
    <path d="M 120.400306 205.258438 
L 123.955172 205.258438 
L 123.955172 195.473459 
L 120.400306 195.473459 
z
" clip-path="url(#p0051e95ef3)" style="stroke: #ffffff; stroke-width: 0.8; stroke-linejoin: miter"/>
   </g>
   <g id="patch_16">
    <path d="M 123.955172 205.258438 
L 127.510039 205.258438 
L 127.510039 194.943284 
L 123.955172 194.943284 
z
" clip-path="url(#p0051e95ef3)" style="stroke: #ffffff; stroke-width: 0.8; stroke-linejoin: miter"/>
   </g>
   <g id="patch_17">
    <path d="M 127.510039 205.258438 
L 131.064906 205.258438 
L 131.064906 194.338699 
L 127.510039 194.338699 
z
" clip-path="url(#p0051e95ef3)" style="stroke: #ffffff; stroke-width: 0.8; stroke-linejoin: miter"/>
   </g>
   <g id="patch_18">
    <path d="M 131.064906 205.258438 
L 134.619773 205.258438 
L 134.619773 194.831668 
L 131.064906 194.831668 
z
" clip-path="url(#p0051e95ef3)" style="stroke: #ffffff; stroke-width: 0.8; stroke-linejoin: miter"/>
   </g>
   <g id="patch_19">
    <path d="M 134.619773 205.258438 
L 138.17464 205.258438 
L 138.17464 143.311708 
L 134.619773 143.311708 
z
" clip-path="url(#p0051e95ef3)" style="stroke: #ffffff; stroke-width: 0.8; stroke-linejoin: miter"/>
   </g>
   <g id="patch_20">
    <path d="M 138.17464 205.258438 
L 141.729507 205.258438 
L 141.729507 124.476553 
L 138.17464 124.476553 
z
" clip-path="url(#p0051e95ef3)" style="stroke: #ffffff; stroke-width: 0.8; stroke-linejoin: miter"/>
   </g>
   <g id="patch_21">
    <path d="M 141.729507 205.258438 
L 145.284374 205.258438 
L 145.284374 191.818043 
L 141.729507 191.818043 
z
" clip-path="url(#p0051e95ef3)" style="stroke: #ffffff; stroke-width: 0.8; stroke-linejoin: miter"/>
   </g>
   <g id="patch_22">
    <path d="M 145.284374 205.258438 
L 148.83924 205.258438 
L 148.83924 192.915598 
L 145.284374 192.915598 
z
" clip-path="url(#p0051e95ef3)" style="stroke: #ffffff; stroke-width: 0.8; stroke-linejoin: miter"/>
   </g>
   <g id="patch_23">
    <path d="M 148.83924 205.258438 
L 152.394107 205.258438 
L 152.394107 192.497039 
L 148.83924 192.497039 
z
" clip-path="url(#p0051e95ef3)" style="stroke: #ffffff; stroke-width: 0.8; stroke-linejoin: miter"/>
   </g>
   <g id="patch_24">
    <path d="M 152.394107 205.258438 
L 155.948974 205.258438 
L 155.948974 193.799223 
L 152.394107 193.799223 
z
" clip-path="url(#p0051e95ef3)" style="stroke: #ffffff; stroke-width: 0.8; stroke-linejoin: miter"/>
   </g>
   <g id="patch_25">
    <path d="M 155.948974 205.258438 
L 159.503841 205.258438 
L 159.503841 192.50634 
L 155.948974 192.50634 
z
" clip-path="url(#p0051e95ef3)" style="stroke: #ffffff; stroke-width: 0.8; stroke-linejoin: miter"/>
   </g>
   <g id="patch_26">
    <path d="M 159.503841 205.258438 
L 163.058708 205.258438 
L 163.058708 179.214767 
L 159.503841 179.214767 
z
" clip-path="url(#p0051e95ef3)" style="stroke: #ffffff; stroke-width: 0.8; stroke-linejoin: miter"/>
   </g>
   <g id="patch_27">
    <path d="M 163.058708 205.258438 
L 166.613575 205.258438 
L 166.613575 173.27123 
L 163.058708 173.27123 
z
" clip-path="url(#p0051e95ef3)" style="stroke: #ffffff; stroke-width: 0.8; stroke-linejoin: miter"/>
   </g>
   <g id="patch_28">
    <path d="M 166.613575 205.258438 
L 170.168442 205.258438 
L 170.168442 177.921885 
L 166.613575 177.921885 
z
" clip-path="url(#p0051e95ef3)" style="stroke: #ffffff; stroke-width: 0.8; stroke-linejoin: miter"/>
   </g>
   <g id="patch_29">
    <path d="M 170.168442 205.258438 
L 173.723308 205.258438 
L 173.723308 191.836646 
L 170.168442 191.836646 
z
" clip-path="url(#p0051e95ef3)" style="stroke: #ffffff; stroke-width: 0.8; stroke-linejoin: miter"/>
   </g>
   <g id="patch_30">
    <path d="M 173.723308 205.258438 
L 177.278175 205.258438 
L 177.278175 193.669004 
L 173.723308 193.669004 
z
" clip-path="url(#p0051e95ef3)" style="stroke: #ffffff; stroke-width: 0.8; stroke-linejoin: miter"/>
   </g>
   <g id="patch_31">
    <path d="M 177.278175 205.258438 
L 180.833042 205.258438 
L 180.833042 187.009266 
L 177.278175 187.009266 
z
" clip-path="url(#p0051e95ef3)" style="stroke: #ffffff; stroke-width: 0.8; stroke-linejoin: miter"/>
   </g>
   <g id="patch_32">
    <path d="M 180.833042 205.258438 
L 184.387909 205.258438 
L 184.387909 193.42717 
L 180.833042 193.42717 
z
" clip-path="url(#p0051e95ef3)" style="stroke: #ffffff; stroke-width: 0.8; stroke-linejoin: miter"/>
   </g>
   <g id="patch_33">
    <path d="M 184.387909 205.258438 
L 187.942776 205.258438 
L 187.942776 192.059877 
L 184.387909 192.059877 
z
" clip-path="url(#p0051e95ef3)" style="stroke: #ffffff; stroke-width: 0.8; stroke-linejoin: miter"/>
   </g>
   <g id="patch_34">
    <path d="M 187.942776 205.258438 
L 191.497643 205.258438 
L 191.497643 191.901755 
L 187.942776 191.901755 
z
" clip-path="url(#p0051e95ef3)" style="stroke: #ffffff; stroke-width: 0.8; stroke-linejoin: miter"/>
   </g>
   <g id="patch_35">
    <path d="M 191.497643 205.258438 
L 195.052509 205.258438 
L 195.052509 194.850271 
L 191.497643 194.850271 
z
" clip-path="url(#p0051e95ef3)" style="stroke: #ffffff; stroke-width: 0.8; stroke-linejoin: miter"/>
   </g>
   <g id="patch_36">
    <path d="M 195.052509 205.258438 
L 198.607376 205.258438 
L 198.607376 202.291319 
L 195.052509 202.291319 
z
" clip-path="url(#p0051e95ef3)" style="stroke: #ffffff; stroke-width: 0.8; stroke-linejoin: miter"/>
   </g>
   <g id="patch_37">
    <path d="M 198.607376 205.258438 
L 202.162243 205.258438 
L 202.162243 203.174944 
L 198.607376 203.174944 
z
" clip-path="url(#p0051e95ef3)" style="stroke: #ffffff; stroke-width: 0.8; stroke-linejoin: miter"/>
   </g>
   <g id="patch_38">
    <path d="M 202.162243 205.258438 
L 205.71711 205.258438 
L 205.71711 201.519311 
L 202.162243 201.519311 
z
" clip-path="url(#p0051e95ef3)" style="stroke: #ffffff; stroke-width: 0.8; stroke-linejoin: miter"/>
   </g>
   <g id="patch_39">
    <path d="M 205.71711 205.258438 
L 209.271977 205.258438 
L 209.271977 200.700795 
L 205.71711 200.700795 
z
" clip-path="url(#p0051e95ef3)" style="stroke: #ffffff; stroke-width: 0.8; stroke-linejoin: miter"/>
   </g>
   <g id="patch_40">
    <path d="M 209.271977 205.258438 
L 212.826844 205.258438 
L 212.826844 201.472804 
L 209.271977 201.472804 
z
" clip-path="url(#p0051e95ef3)" style="stroke: #ffffff; stroke-width: 0.8; stroke-linejoin: miter"/>
   </g>
   <g id="patch_41">
    <path d="M 212.826844 205.258438 
L 216.381711 205.258438 
L 216.381711 201.054245 
L 212.826844 201.054245 
z
" clip-path="url(#p0051e95ef3)" style="stroke: #ffffff; stroke-width: 0.8; stroke-linejoin: miter"/>
   </g>
   <g id="patch_42">
    <path d="M 216.381711 205.258438 
L 219.936577 205.258438 
L 219.936577 200.626385 
L 216.381711 200.626385 
z
" clip-path="url(#p0051e95ef3)" style="stroke: #ffffff; stroke-width: 0.8; stroke-linejoin: miter"/>
   </g>
   <g id="patch_43">
    <path d="M 219.936577 205.258438 
L 223.491444 205.258438 
L 223.491444 200.542673 
L 219.936577 200.542673 
z
" clip-path="url(#p0051e95ef3)" style="stroke: #ffffff; stroke-width: 0.8; stroke-linejoin: miter"/>
   </g>
   <g id="patch_44">
    <path d="M 223.491444 205.258438 
L 227.046311 205.258438 
L 227.046311 199.640446 
L 223.491444 199.640446 
z
" clip-path="url(#p0051e95ef3)" style="stroke: #ffffff; stroke-width: 0.8; stroke-linejoin: miter"/>
   </g>
   <g id="patch_45">
    <path d="M 227.046311 205.258438 
L 230.601178 205.258438 
L 230.601178 200.914725 
L 227.046311 200.914725 
z
" clip-path="url(#p0051e95ef3)" style="stroke: #ffffff; stroke-width: 0.8; stroke-linejoin: miter"/>
   </g>
   <g id="patch_46">
    <path d="M 230.601178 205.258438 
L 234.156045 205.258438 
L 234.156045 192.115685 
L 230.601178 192.115685 
z
" clip-path="url(#p0051e95ef3)" style="stroke: #ffffff; stroke-width: 0.8; stroke-linejoin: miter"/>
   </g>
   <g id="patch_47">
    <path d="M 234.156045 205.258438 
L 237.710912 205.258438 
L 237.710912 199.724158 
L 234.156045 199.724158 
z
" clip-path="url(#p0051e95ef3)" style="stroke: #ffffff; stroke-width: 0.8; stroke-linejoin: miter"/>
   </g>
   <g id="patch_48">
    <path d="M 237.710912 205.258438 
L 241.265779 205.258438 
L 241.265779 190.953021 
L 237.710912 190.953021 
z
" clip-path="url(#p0051e95ef3)" style="stroke: #ffffff; stroke-width: 0.8; stroke-linejoin: miter"/>
   </g>
   <g id="patch_49">
    <path d="M 241.265779 205.258438 
L 244.820645 205.258438 
L 244.820645 199.547433 
L 241.265779 199.547433 
z
" clip-path="url(#p0051e95ef3)" style="stroke: #ffffff; stroke-width: 0.8; stroke-linejoin: miter"/>
   </g>
   <g id="patch_50">
    <path d="M 244.820645 205.258438 
L 248.375512 205.258438 
L 248.375512 187.651056 
L 244.820645 187.651056 
z
" clip-path="url(#p0051e95ef3)" style="stroke: #ffffff; stroke-width: 0.8; stroke-linejoin: miter"/>
   </g>
   <g id="patch_51">
    <path d="M 248.375512 205.258438 
L 251.930379 205.258438 
L 251.930379 201.891363 
L 248.375512 201.891363 
z
" clip-path="url(#p0051e95ef3)" style="stroke: #ffffff; stroke-width: 0.8; stroke-linejoin: miter"/>
   </g>
   <g id="patch_52">
    <path d="M 251.930379 205.258438 
L 255.485246 205.258438 
L 255.485246 191.622716 
L 251.930379 191.622716 
z
" clip-path="url(#p0051e95ef3)" style="stroke: #ffffff; stroke-width: 0.8; stroke-linejoin: miter"/>
   </g>
   <g id="patch_53">
    <path d="M 255.485246 205.258438 
L 259.040113 205.258438 
L 259.040113 202.309922 
L 255.485246 202.309922 
z
" clip-path="url(#p0051e95ef3)" style="stroke: #ffffff; stroke-width: 0.8; stroke-linejoin: miter"/>
   </g>
   <g id="patch_54">
    <path d="M 259.040113 205.258438 
L 262.59498 205.258438 
L 262.59498 204.198088 
L 259.040113 204.198088 
z
" clip-path="url(#p0051e95ef3)" style="stroke: #ffffff; stroke-width: 0.8; stroke-linejoin: miter"/>
   </g>
   <g id="patch_55">
    <path d="M 262.59498 205.258438 
L 266.149846 205.258438 
L 266.149846 204.532935 
L 262.59498 204.532935 
z
" clip-path="url(#p0051e95ef3)" style="stroke: #ffffff; stroke-width: 0.8; stroke-linejoin: miter"/>
   </g>
   <g id="patch_56">
    <path d="M 266.149846 205.258438 
L 269.704713 205.258438 
L 269.704713 204.839879 
L 266.149846 204.839879 
z
" clip-path="url(#p0051e95ef3)" style="stroke: #ffffff; stroke-width: 0.8; stroke-linejoin: miter"/>
   </g>
   <g id="patch_57">
    <path d="M 269.704713 205.258438 
L 273.25958 205.258438 
L 273.25958 204.663154 
L 269.704713 204.663154 
z
" clip-path="url(#p0051e95ef3)" style="stroke: #ffffff; stroke-width: 0.8; stroke-linejoin: miter"/>
   </g>
   <g id="patch_58">
    <path d="M 273.25958 205.258438 
L 276.814447 205.258438 
L 276.814447 204.877084 
L 273.25958 204.877084 
z
" clip-path="url(#p0051e95ef3)" style="stroke: #ffffff; stroke-width: 0.8; stroke-linejoin: miter"/>
   </g>
   <g id="patch_59">
    <path d="M 276.814447 205.258438 
L 280.369314 205.258438 
L 280.369314 204.774769 
L 276.814447 204.774769 
z
" clip-path="url(#p0051e95ef3)" style="stroke: #ffffff; stroke-width: 0.8; stroke-linejoin: miter"/>
   </g>
   <g id="patch_60">
    <path d="M 280.369314 205.258438 
L 283.924181 205.258438 
L 283.924181 204.467826 
L 280.369314 204.467826 
z
" clip-path="url(#p0051e95ef3)" style="stroke: #ffffff; stroke-width: 0.8; stroke-linejoin: miter"/>
   </g>
   <g id="patch_61">
    <path d="M 283.924181 205.258438 
L 287.479048 205.258438 
L 287.479048 204.560839 
L 283.924181 204.560839 
z
" clip-path="url(#p0051e95ef3)" style="stroke: #ffffff; stroke-width: 0.8; stroke-linejoin: miter"/>
   </g>
   <g id="patch_62">
    <path d="M 287.479048 205.258438 
L 291.033914 205.258438 
L 291.033914 204.467826 
L 287.479048 204.467826 
z
" clip-path="url(#p0051e95ef3)" style="stroke: #ffffff; stroke-width: 0.8; stroke-linejoin: miter"/>
   </g>
   <g id="patch_63">
    <path d="M 291.033914 205.258438 
L 294.588781 205.258438 
L 294.588781 204.514333 
L 291.033914 204.514333 
z
" clip-path="url(#p0051e95ef3)" style="stroke: #ffffff; stroke-width: 0.8; stroke-linejoin: miter"/>
   </g>
   <g id="patch_64">
    <path d="M 294.588781 205.258438 
L 298.143648 205.258438 
L 298.143648 204.095774 
L 294.588781 204.095774 
z
" clip-path="url(#p0051e95ef3)" style="stroke: #ffffff; stroke-width: 0.8; stroke-linejoin: miter"/>
   </g>
   <g id="patch_65">
    <path d="M 298.143648 205.258438 
L 301.698515 205.258438 
L 301.698515 204.030664 
L 298.143648 204.030664 
z
" clip-path="url(#p0051e95ef3)" style="stroke: #ffffff; stroke-width: 0.8; stroke-linejoin: miter"/>
   </g>
   <g id="patch_66">
    <path d="M 301.698515 205.258438 
L 305.253382 205.258438 
L 305.253382 204.244595 
L 301.698515 204.244595 
z
" clip-path="url(#p0051e95ef3)" style="stroke: #ffffff; stroke-width: 0.8; stroke-linejoin: miter"/>
   </g>
   <g id="patch_67">
    <path d="M 305.253382 205.258438 
L 308.808249 205.258438 
L 308.808249 204.225992 
L 305.253382 204.225992 
z
" clip-path="url(#p0051e95ef3)" style="stroke: #ffffff; stroke-width: 0.8; stroke-linejoin: miter"/>
   </g>
   <g id="patch_68">
    <path d="M 308.808249 205.258438 
L 312.363116 205.258438 
L 312.363116 204.700359 
L 308.808249 204.700359 
z
" clip-path="url(#p0051e95ef3)" style="stroke: #ffffff; stroke-width: 0.8; stroke-linejoin: miter"/>
   </g>
   <g id="patch_69">
    <path d="M 312.363116 205.258438 
L 315.917982 205.258438 
L 315.917982 203.36097 
L 312.363116 203.36097 
z
" clip-path="url(#p0051e95ef3)" style="stroke: #ffffff; stroke-width: 0.8; stroke-linejoin: miter"/>
   </g>
   <g id="patch_70">
    <path d="M 315.917982 205.258438 
L 319.472849 205.258438 
L 319.472849 202.895905 
L 315.917982 202.895905 
z
" clip-path="url(#p0051e95ef3)" style="stroke: #ffffff; stroke-width: 0.8; stroke-linejoin: miter"/>
   </g>
   <g id="patch_71">
    <path d="M 319.472849 205.258438 
L 323.027716 205.258438 
L 323.027716 202.282018 
L 319.472849 202.282018 
z
" clip-path="url(#p0051e95ef3)" style="stroke: #ffffff; stroke-width: 0.8; stroke-linejoin: miter"/>
   </g>
   <g id="patch_72">
    <path d="M 323.027716 205.258438 
L 326.582583 205.258438 
L 326.582583 204.579442 
L 323.027716 204.579442 
z
" clip-path="url(#p0051e95ef3)" style="stroke: #ffffff; stroke-width: 0.8; stroke-linejoin: miter"/>
   </g>
   <g id="patch_73">
    <path d="M 326.582583 205.258438 
L 330.13745 205.258438 
L 330.13745 202.170402 
L 326.582583 202.170402 
z
" clip-path="url(#p0051e95ef3)" style="stroke: #ffffff; stroke-width: 0.8; stroke-linejoin: miter"/>
   </g>
   <g id="patch_74">
    <path d="M 330.13745 205.258438 
L 333.692317 205.258438 
L 333.692317 203.100533 
L 330.13745 203.100533 
z
" clip-path="url(#p0051e95ef3)" style="stroke: #ffffff; stroke-width: 0.8; stroke-linejoin: miter"/>
   </g>
   <g id="patch_75">
    <path d="M 333.692317 205.258438 
L 337.247183 205.258438 
L 337.247183 203.909747 
L 333.692317 203.909747 
z
" clip-path="url(#p0051e95ef3)" style="stroke: #ffffff; stroke-width: 0.8; stroke-linejoin: miter"/>
   </g>
   <g id="patch_76">
    <path d="M 337.247183 205.258438 
L 340.80205 205.258438 
L 340.80205 204.663154 
L 337.247183 204.663154 
z
" clip-path="url(#p0051e95ef3)" style="stroke: #ffffff; stroke-width: 0.8; stroke-linejoin: miter"/>
   </g>
   <g id="patch_77">
    <path d="M 340.80205 205.258438 
L 344.356917 205.258438 
L 344.356917 204.63525 
L 340.80205 204.63525 
z
" clip-path="url(#p0051e95ef3)" style="stroke: #ffffff; stroke-width: 0.8; stroke-linejoin: miter"/>
   </g>
   <g id="patch_78">
    <path d="M 344.356917 205.258438 
L 347.911784 205.258438 
L 347.911784 204.793372 
L 344.356917 204.793372 
z
" clip-path="url(#p0051e95ef3)" style="stroke: #ffffff; stroke-width: 0.8; stroke-linejoin: miter"/>
   </g>
   <g id="patch_79">
    <path d="M 347.911784 205.258438 
L 351.466651 205.258438 
L 351.466651 204.505031 
L 347.911784 204.505031 
z
" clip-path="url(#p0051e95ef3)" style="stroke: #ffffff; stroke-width: 0.8; stroke-linejoin: miter"/>
   </g>
   <g id="patch_80">
    <path d="M 351.466651 205.258438 
L 355.021518 205.258438 
L 355.021518 204.858481 
L 351.466651 204.858481 
z
" clip-path="url(#p0051e95ef3)" style="stroke: #ffffff; stroke-width: 0.8; stroke-linejoin: miter"/>
   </g>
   <g id="patch_81">
    <path d="M 355.021518 205.258438 
L 358.576385 205.258438 
L 358.576385 204.830577 
L 355.021518 204.830577 
z
" clip-path="url(#p0051e95ef3)" style="stroke: #ffffff; stroke-width: 0.8; stroke-linejoin: miter"/>
   </g>
   <g id="patch_82">
    <path d="M 358.576385 205.258438 
L 362.131251 205.258438 
L 362.131251 204.839879 
L 358.576385 204.839879 
z
" clip-path="url(#p0051e95ef3)" style="stroke: #ffffff; stroke-width: 0.8; stroke-linejoin: miter"/>
   </g>
   <g id="patch_83">
    <path d="M 362.131251 205.258438 
L 365.686118 205.258438 
L 365.686118 204.653852 
L 362.131251 204.653852 
z
" clip-path="url(#p0051e95ef3)" style="stroke: #ffffff; stroke-width: 0.8; stroke-linejoin: miter"/>
   </g>
   <g id="patch_84">
    <path d="M 365.686118 205.258438 
L 369.240985 205.258438 
L 369.240985 204.560839 
L 365.686118 204.560839 
z
" clip-path="url(#p0051e95ef3)" style="stroke: #ffffff; stroke-width: 0.8; stroke-linejoin: miter"/>
   </g>
   <g id="patch_85">
    <path d="M 369.240985 205.258438 
L 372.795852 205.258438 
L 372.795852 204.486429 
L 369.240985 204.486429 
z
" clip-path="url(#p0051e95ef3)" style="stroke: #ffffff; stroke-width: 0.8; stroke-linejoin: miter"/>
   </g>
   <g id="patch_86">
    <path d="M 372.795852 205.258438 
L 376.350719 205.258438 
L 376.350719 205.016603 
L 372.795852 205.016603 
z
" clip-path="url(#p0051e95ef3)" style="stroke: #ffffff; stroke-width: 0.8; stroke-linejoin: miter"/>
   </g>
   <g id="patch_87">
    <path d="M 376.350719 205.258438 
L 379.905586 205.258438 
L 379.905586 204.570141 
L 376.350719 204.570141 
z
" clip-path="url(#p0051e95ef3)" style="stroke: #ffffff; stroke-width: 0.8; stroke-linejoin: miter"/>
   </g>
   <g id="patch_88">
    <path d="M 379.905586 205.258438 
L 383.460453 205.258438 
L 383.460453 204.49573 
L 379.905586 204.49573 
z
" clip-path="url(#p0051e95ef3)" style="stroke: #ffffff; stroke-width: 0.8; stroke-linejoin: miter"/>
   </g>
   <g id="patch_89">
    <path d="M 383.460453 205.258438 
L 387.015319 205.258438 
L 387.015319 204.895686 
L 383.460453 204.895686 
z
" clip-path="url(#p0051e95ef3)" style="stroke: #ffffff; stroke-width: 0.8; stroke-linejoin: miter"/>
   </g>
   <g id="patch_90">
    <path d="M 387.015319 205.258438 
L 390.570186 205.258438 
L 390.570186 204.998001 
L 387.015319 204.998001 
z
" clip-path="url(#p0051e95ef3)" style="stroke: #ffffff; stroke-width: 0.8; stroke-linejoin: miter"/>
   </g>
   <g id="patch_91">
    <path d="M 390.570186 205.258438 
L 394.125053 205.258438 
L 394.125053 204.914289 
L 390.570186 204.914289 
z
" clip-path="url(#p0051e95ef3)" style="stroke: #ffffff; stroke-width: 0.8; stroke-linejoin: miter"/>
   </g>
   <g id="patch_92">
    <path d="M 394.125053 205.258438 
L 397.67992 205.258438 
L 397.67992 205.072411 
L 394.125053 205.072411 
z
" clip-path="url(#p0051e95ef3)" style="stroke: #ffffff; stroke-width: 0.8; stroke-linejoin: miter"/>
   </g>
   <g id="patch_93">
    <path d="M 397.67992 205.258438 
L 401.234787 205.258438 
L 401.234787 204.821276 
L 397.67992 204.821276 
z
" clip-path="url(#p0051e95ef3)" style="stroke: #ffffff; stroke-width: 0.8; stroke-linejoin: miter"/>
   </g>
   <g id="patch_94">
    <path d="M 401.234787 205.258438 
L 404.789654 205.258438 
L 404.789654 204.979398 
L 401.234787 204.979398 
z
" clip-path="url(#p0051e95ef3)" style="stroke: #ffffff; stroke-width: 0.8; stroke-linejoin: miter"/>
   </g>
   <g id="patch_95">
    <path d="M 404.789654 205.258438 
L 408.34452 205.258438 
L 408.34452 204.970097 
L 404.789654 204.970097 
z
" clip-path="url(#p0051e95ef3)" style="stroke: #ffffff; stroke-width: 0.8; stroke-linejoin: miter"/>
   </g>
   <g id="patch_96">
    <path d="M 408.34452 205.258438 
L 411.899387 205.258438 
L 411.899387 204.979398 
L 408.34452 204.979398 
z
" clip-path="url(#p0051e95ef3)" style="stroke: #ffffff; stroke-width: 0.8; stroke-linejoin: miter"/>
   </g>
   <g id="patch_97">
    <path d="M 411.899387 205.258438 
L 415.454254 205.258438 
L 415.454254 204.895686 
L 411.899387 204.895686 
z
" clip-path="url(#p0051e95ef3)" style="stroke: #ffffff; stroke-width: 0.8; stroke-linejoin: miter"/>
   </g>
   <g id="patch_98">
    <path d="M 415.454254 205.258438 
L 419.009121 205.258438 
L 419.009121 205.072411 
L 415.454254 205.072411 
z
" clip-path="url(#p0051e95ef3)" style="stroke: #ffffff; stroke-width: 0.8; stroke-linejoin: miter"/>
   </g>
   <g id="patch_99">
    <path d="M 419.009121 205.258438 
L 422.563988 205.258438 
L 422.563988 205.007302 
L 419.009121 205.007302 
z
" clip-path="url(#p0051e95ef3)" style="stroke: #ffffff; stroke-width: 0.8; stroke-linejoin: miter"/>
   </g>
   <g id="patch_100">
    <path d="M 422.563988 205.258438 
L 426.118855 205.258438 
L 426.118855 205.091014 
L 422.563988 205.091014 
z
" clip-path="url(#p0051e95ef3)" style="stroke: #ffffff; stroke-width: 0.8; stroke-linejoin: miter"/>
   </g>
   <g id="patch_101">
    <path d="M 426.118855 205.258438 
L 429.673722 205.258438 
L 429.673722 205.184027 
L 426.118855 205.184027 
z
" clip-path="url(#p0051e95ef3)" style="stroke: #ffffff; stroke-width: 0.8; stroke-linejoin: miter"/>
   </g>
   <g id="matplotlib.axis_1">
    <g id="xtick_1">
     <g id="line2d_1">
      <defs>
       <path id="m62348aa916" d="M 0 0 
L 0 4 
" style="stroke: #000000; stroke-width: 0.8"/>
      </defs>
      <g>
       <use xlink:href="#m62348aa916" x="77.741903" y="205.258438" style="stroke: #000000; stroke-width: 0.8"/>
      </g>
     </g>
     <g id="text_1">
      <!-- 0.00 -->
      <g transform="translate(66.609091 220.356875) scale(0.1 -0.1)">
       <defs>
        <path id="DejaVuSans-30" d="M 2034 4250 
Q 1547 4250 1301 3770 
Q 1056 3291 1056 2328 
Q 1056 1369 1301 889 
Q 1547 409 2034 409 
Q 2525 409 2770 889 
Q 3016 1369 3016 2328 
Q 3016 3291 2770 3770 
Q 2525 4250 2034 4250 
z
M 2034 4750 
Q 2819 4750 3233 4129 
Q 3647 3509 3647 2328 
Q 3647 1150 3233 529 
Q 2819 -91 2034 -91 
Q 1250 -91 836 529 
Q 422 1150 422 2328 
Q 422 3509 836 4129 
Q 1250 4750 2034 4750 
z
" transform="scale(0.015625)"/>
        <path id="DejaVuSans-2e" d="M 684 794 
L 1344 794 
L 1344 0 
L 684 0 
L 684 794 
z
" transform="scale(0.015625)"/>
       </defs>
       <use xlink:href="#DejaVuSans-30"/>
       <use xlink:href="#DejaVuSans-2e" transform="translate(63.623047 0)"/>
       <use xlink:href="#DejaVuSans-30" transform="translate(95.410156 0)"/>
       <use xlink:href="#DejaVuSans-30" transform="translate(159.033203 0)"/>
      </g>
     </g>
    </g>
    <g id="xtick_2">
     <g id="line2d_2">
      <g>
       <use xlink:href="#m62348aa916" x="154.528636" y="205.258438" style="stroke: #000000; stroke-width: 0.8"/>
      </g>
     </g>
     <g id="text_2">
      <!-- 0.02 -->
      <g transform="translate(143.395823 220.356875) scale(0.1 -0.1)">
       <defs>
        <path id="DejaVuSans-32" d="M 1228 531 
L 3431 531 
L 3431 0 
L 469 0 
L 469 531 
Q 828 903 1448 1529 
Q 2069 2156 2228 2338 
Q 2531 2678 2651 2914 
Q 2772 3150 2772 3378 
Q 2772 3750 2511 3984 
Q 2250 4219 1831 4219 
Q 1534 4219 1204 4116 
Q 875 4013 500 3803 
L 500 4441 
Q 881 4594 1212 4672 
Q 1544 4750 1819 4750 
Q 2544 4750 2975 4387 
Q 3406 4025 3406 3419 
Q 3406 3131 3298 2873 
Q 3191 2616 2906 2266 
Q 2828 2175 2409 1742 
Q 1991 1309 1228 531 
z
" transform="scale(0.015625)"/>
       </defs>
       <use xlink:href="#DejaVuSans-30"/>
       <use xlink:href="#DejaVuSans-2e" transform="translate(63.623047 0)"/>
       <use xlink:href="#DejaVuSans-30" transform="translate(95.410156 0)"/>
       <use xlink:href="#DejaVuSans-32" transform="translate(159.033203 0)"/>
      </g>
     </g>
    </g>
    <g id="xtick_3">
     <g id="line2d_3">
      <g>
       <use xlink:href="#m62348aa916" x="231.315368" y="205.258438" style="stroke: #000000; stroke-width: 0.8"/>
      </g>
     </g>
     <g id="text_3">
      <!-- 0.04 -->
      <g transform="translate(220.182556 220.356875) scale(0.1 -0.1)">
       <defs>
        <path id="DejaVuSans-34" d="M 2419 4116 
L 825 1625 
L 2419 1625 
L 2419 4116 
z
M 2253 4666 
L 3047 4666 
L 3047 1625 
L 3713 1625 
L 3713 1100 
L 3047 1100 
L 3047 0 
L 2419 0 
L 2419 1100 
L 313 1100 
L 313 1709 
L 2253 4666 
z
" transform="scale(0.015625)"/>
       </defs>
       <use xlink:href="#DejaVuSans-30"/>
       <use xlink:href="#DejaVuSans-2e" transform="translate(63.623047 0)"/>
       <use xlink:href="#DejaVuSans-30" transform="translate(95.410156 0)"/>
       <use xlink:href="#DejaVuSans-34" transform="translate(159.033203 0)"/>
      </g>
     </g>
    </g>
    <g id="xtick_4">
     <g id="line2d_4">
      <g>
       <use xlink:href="#m62348aa916" x="308.102101" y="205.258438" style="stroke: #000000; stroke-width: 0.8"/>
      </g>
     </g>
     <g id="text_4">
      <!-- 0.06 -->
      <g transform="translate(296.969289 220.356875) scale(0.1 -0.1)">
       <defs>
        <path id="DejaVuSans-36" d="M 2113 2584 
Q 1688 2584 1439 2293 
Q 1191 2003 1191 1497 
Q 1191 994 1439 701 
Q 1688 409 2113 409 
Q 2538 409 2786 701 
Q 3034 994 3034 1497 
Q 3034 2003 2786 2293 
Q 2538 2584 2113 2584 
z
M 3366 4563 
L 3366 3988 
Q 3128 4100 2886 4159 
Q 2644 4219 2406 4219 
Q 1781 4219 1451 3797 
Q 1122 3375 1075 2522 
Q 1259 2794 1537 2939 
Q 1816 3084 2150 3084 
Q 2853 3084 3261 2657 
Q 3669 2231 3669 1497 
Q 3669 778 3244 343 
Q 2819 -91 2113 -91 
Q 1303 -91 875 529 
Q 447 1150 447 2328 
Q 447 3434 972 4092 
Q 1497 4750 2381 4750 
Q 2619 4750 2861 4703 
Q 3103 4656 3366 4563 
z
" transform="scale(0.015625)"/>
       </defs>
       <use xlink:href="#DejaVuSans-30"/>
       <use xlink:href="#DejaVuSans-2e" transform="translate(63.623047 0)"/>
       <use xlink:href="#DejaVuSans-30" transform="translate(95.410156 0)"/>
       <use xlink:href="#DejaVuSans-36" transform="translate(159.033203 0)"/>
      </g>
     </g>
    </g>
    <g id="xtick_5">
     <g id="line2d_5">
      <g>
       <use xlink:href="#m62348aa916" x="384.888834" y="205.258438" style="stroke: #000000; stroke-width: 0.8"/>
      </g>
     </g>
     <g id="text_5">
      <!-- 0.08 -->
      <g transform="translate(373.756021 220.356875) scale(0.1 -0.1)">
       <defs>
        <path id="DejaVuSans-38" d="M 2034 2216 
Q 1584 2216 1326 1975 
Q 1069 1734 1069 1313 
Q 1069 891 1326 650 
Q 1584 409 2034 409 
Q 2484 409 2743 651 
Q 3003 894 3003 1313 
Q 3003 1734 2745 1975 
Q 2488 2216 2034 2216 
z
M 1403 2484 
Q 997 2584 770 2862 
Q 544 3141 544 3541 
Q 544 4100 942 4425 
Q 1341 4750 2034 4750 
Q 2731 4750 3128 4425 
Q 3525 4100 3525 3541 
Q 3525 3141 3298 2862 
Q 3072 2584 2669 2484 
Q 3125 2378 3379 2068 
Q 3634 1759 3634 1313 
Q 3634 634 3220 271 
Q 2806 -91 2034 -91 
Q 1263 -91 848 271 
Q 434 634 434 1313 
Q 434 1759 690 2068 
Q 947 2378 1403 2484 
z
M 1172 3481 
Q 1172 3119 1398 2916 
Q 1625 2713 2034 2713 
Q 2441 2713 2670 2916 
Q 2900 3119 2900 3481 
Q 2900 3844 2670 4047 
Q 2441 4250 2034 4250 
Q 1625 4250 1398 4047 
Q 1172 3844 1172 3481 
z
" transform="scale(0.015625)"/>
       </defs>
       <use xlink:href="#DejaVuSans-30"/>
       <use xlink:href="#DejaVuSans-2e" transform="translate(63.623047 0)"/>
       <use xlink:href="#DejaVuSans-30" transform="translate(95.410156 0)"/>
       <use xlink:href="#DejaVuSans-38" transform="translate(159.033203 0)"/>
      </g>
     </g>
    </g>
    <g id="text_6">
     <!-- Biomass Flux (Biomass_Ecoli_core) -->
     <g transform="translate(166.615625 234.035) scale(0.1 -0.1)">
      <defs>
       <path id="DejaVuSans-42" d="M 1259 2228 
L 1259 519 
L 2272 519 
Q 2781 519 3026 730 
Q 3272 941 3272 1375 
Q 3272 1813 3026 2020 
Q 2781 2228 2272 2228 
L 1259 2228 
z
M 1259 4147 
L 1259 2741 
L 2194 2741 
Q 2656 2741 2882 2914 
Q 3109 3088 3109 3444 
Q 3109 3797 2882 3972 
Q 2656 4147 2194 4147 
L 1259 4147 
z
M 628 4666 
L 2241 4666 
Q 2963 4666 3353 4366 
Q 3744 4066 3744 3513 
Q 3744 3084 3544 2831 
Q 3344 2578 2956 2516 
Q 3422 2416 3680 2098 
Q 3938 1781 3938 1306 
Q 3938 681 3513 340 
Q 3088 0 2303 0 
L 628 0 
L 628 4666 
z
" transform="scale(0.015625)"/>
       <path id="DejaVuSans-69" d="M 603 3500 
L 1178 3500 
L 1178 0 
L 603 0 
L 603 3500 
z
M 603 4863 
L 1178 4863 
L 1178 4134 
L 603 4134 
L 603 4863 
z
" transform="scale(0.015625)"/>
       <path id="DejaVuSans-6f" d="M 1959 3097 
Q 1497 3097 1228 2736 
Q 959 2375 959 1747 
Q 959 1119 1226 758 
Q 1494 397 1959 397 
Q 2419 397 2687 759 
Q 2956 1122 2956 1747 
Q 2956 2369 2687 2733 
Q 2419 3097 1959 3097 
z
M 1959 3584 
Q 2709 3584 3137 3096 
Q 3566 2609 3566 1747 
Q 3566 888 3137 398 
Q 2709 -91 1959 -91 
Q 1206 -91 779 398 
Q 353 888 353 1747 
Q 353 2609 779 3096 
Q 1206 3584 1959 3584 
z
" transform="scale(0.015625)"/>
       <path id="DejaVuSans-6d" d="M 3328 2828 
Q 3544 3216 3844 3400 
Q 4144 3584 4550 3584 
Q 5097 3584 5394 3201 
Q 5691 2819 5691 2113 
L 5691 0 
L 5113 0 
L 5113 2094 
Q 5113 2597 4934 2840 
Q 4756 3084 4391 3084 
Q 3944 3084 3684 2787 
Q 3425 2491 3425 1978 
L 3425 0 
L 2847 0 
L 2847 2094 
Q 2847 2600 2669 2842 
Q 2491 3084 2119 3084 
Q 1678 3084 1418 2786 
Q 1159 2488 1159 1978 
L 1159 0 
L 581 0 
L 581 3500 
L 1159 3500 
L 1159 2956 
Q 1356 3278 1631 3431 
Q 1906 3584 2284 3584 
Q 2666 3584 2933 3390 
Q 3200 3197 3328 2828 
z
" transform="scale(0.015625)"/>
       <path id="DejaVuSans-61" d="M 2194 1759 
Q 1497 1759 1228 1600 
Q 959 1441 959 1056 
Q 959 750 1161 570 
Q 1363 391 1709 391 
Q 2188 391 2477 730 
Q 2766 1069 2766 1631 
L 2766 1759 
L 2194 1759 
z
M 3341 1997 
L 3341 0 
L 2766 0 
L 2766 531 
Q 2569 213 2275 61 
Q 1981 -91 1556 -91 
Q 1019 -91 701 211 
Q 384 513 384 1019 
Q 384 1609 779 1909 
Q 1175 2209 1959 2209 
L 2766 2209 
L 2766 2266 
Q 2766 2663 2505 2880 
Q 2244 3097 1772 3097 
Q 1472 3097 1187 3025 
Q 903 2953 641 2809 
L 641 3341 
Q 956 3463 1253 3523 
Q 1550 3584 1831 3584 
Q 2591 3584 2966 3190 
Q 3341 2797 3341 1997 
z
" transform="scale(0.015625)"/>
       <path id="DejaVuSans-73" d="M 2834 3397 
L 2834 2853 
Q 2591 2978 2328 3040 
Q 2066 3103 1784 3103 
Q 1356 3103 1142 2972 
Q 928 2841 928 2578 
Q 928 2378 1081 2264 
Q 1234 2150 1697 2047 
L 1894 2003 
Q 2506 1872 2764 1633 
Q 3022 1394 3022 966 
Q 3022 478 2636 193 
Q 2250 -91 1575 -91 
Q 1294 -91 989 -36 
Q 684 19 347 128 
L 347 722 
Q 666 556 975 473 
Q 1284 391 1588 391 
Q 1994 391 2212 530 
Q 2431 669 2431 922 
Q 2431 1156 2273 1281 
Q 2116 1406 1581 1522 
L 1381 1569 
Q 847 1681 609 1914 
Q 372 2147 372 2553 
Q 372 3047 722 3315 
Q 1072 3584 1716 3584 
Q 2034 3584 2315 3537 
Q 2597 3491 2834 3397 
z
" transform="scale(0.015625)"/>
       <path id="DejaVuSans-20" transform="scale(0.015625)"/>
       <path id="DejaVuSans-46" d="M 628 4666 
L 3309 4666 
L 3309 4134 
L 1259 4134 
L 1259 2759 
L 3109 2759 
L 3109 2228 
L 1259 2228 
L 1259 0 
L 628 0 
L 628 4666 
z
" transform="scale(0.015625)"/>
       <path id="DejaVuSans-6c" d="M 603 4863 
L 1178 4863 
L 1178 0 
L 603 0 
L 603 4863 
z
" transform="scale(0.015625)"/>
       <path id="DejaVuSans-75" d="M 544 1381 
L 544 3500 
L 1119 3500 
L 1119 1403 
Q 1119 906 1312 657 
Q 1506 409 1894 409 
Q 2359 409 2629 706 
Q 2900 1003 2900 1516 
L 2900 3500 
L 3475 3500 
L 3475 0 
L 2900 0 
L 2900 538 
Q 2691 219 2414 64 
Q 2138 -91 1772 -91 
Q 1169 -91 856 284 
Q 544 659 544 1381 
z
M 1991 3584 
L 1991 3584 
z
" transform="scale(0.015625)"/>
       <path id="DejaVuSans-78" d="M 3513 3500 
L 2247 1797 
L 3578 0 
L 2900 0 
L 1881 1375 
L 863 0 
L 184 0 
L 1544 1831 
L 300 3500 
L 978 3500 
L 1906 2253 
L 2834 3500 
L 3513 3500 
z
" transform="scale(0.015625)"/>
       <path id="DejaVuSans-28" d="M 1984 4856 
Q 1566 4138 1362 3434 
Q 1159 2731 1159 2009 
Q 1159 1288 1364 580 
Q 1569 -128 1984 -844 
L 1484 -844 
Q 1016 -109 783 600 
Q 550 1309 550 2009 
Q 550 2706 781 3412 
Q 1013 4119 1484 4856 
L 1984 4856 
z
" transform="scale(0.015625)"/>
       <path id="DejaVuSans-5f" d="M 3263 -1063 
L 3263 -1509 
L -63 -1509 
L -63 -1063 
L 3263 -1063 
z
" transform="scale(0.015625)"/>
       <path id="DejaVuSans-45" d="M 628 4666 
L 3578 4666 
L 3578 4134 
L 1259 4134 
L 1259 2753 
L 3481 2753 
L 3481 2222 
L 1259 2222 
L 1259 531 
L 3634 531 
L 3634 0 
L 628 0 
L 628 4666 
z
" transform="scale(0.015625)"/>
       <path id="DejaVuSans-63" d="M 3122 3366 
L 3122 2828 
Q 2878 2963 2633 3030 
Q 2388 3097 2138 3097 
Q 1578 3097 1268 2742 
Q 959 2388 959 1747 
Q 959 1106 1268 751 
Q 1578 397 2138 397 
Q 2388 397 2633 464 
Q 2878 531 3122 666 
L 3122 134 
Q 2881 22 2623 -34 
Q 2366 -91 2075 -91 
Q 1284 -91 818 406 
Q 353 903 353 1747 
Q 353 2603 823 3093 
Q 1294 3584 2113 3584 
Q 2378 3584 2631 3529 
Q 2884 3475 3122 3366 
z
" transform="scale(0.015625)"/>
       <path id="DejaVuSans-72" d="M 2631 2963 
Q 2534 3019 2420 3045 
Q 2306 3072 2169 3072 
Q 1681 3072 1420 2755 
Q 1159 2438 1159 1844 
L 1159 0 
L 581 0 
L 581 3500 
L 1159 3500 
L 1159 2956 
Q 1341 3275 1631 3429 
Q 1922 3584 2338 3584 
Q 2397 3584 2469 3576 
Q 2541 3569 2628 3553 
L 2631 2963 
z
" transform="scale(0.015625)"/>
       <path id="DejaVuSans-65" d="M 3597 1894 
L 3597 1613 
L 953 1613 
Q 991 1019 1311 708 
Q 1631 397 2203 397 
Q 2534 397 2845 478 
Q 3156 559 3463 722 
L 3463 178 
Q 3153 47 2828 -22 
Q 2503 -91 2169 -91 
Q 1331 -91 842 396 
Q 353 884 353 1716 
Q 353 2575 817 3079 
Q 1281 3584 2069 3584 
Q 2775 3584 3186 3129 
Q 3597 2675 3597 1894 
z
M 3022 2063 
Q 3016 2534 2758 2815 
Q 2500 3097 2075 3097 
Q 1594 3097 1305 2825 
Q 1016 2553 972 2059 
L 3022 2063 
z
" transform="scale(0.015625)"/>
       <path id="DejaVuSans-29" d="M 513 4856 
L 1013 4856 
Q 1481 4119 1714 3412 
Q 1947 2706 1947 2009 
Q 1947 1309 1714 600 
Q 1481 -109 1013 -844 
L 513 -844 
Q 928 -128 1133 580 
Q 1338 1288 1338 2009 
Q 1338 2731 1133 3434 
Q 928 4138 513 4856 
z
" transform="scale(0.015625)"/>
      </defs>
      <use xlink:href="#DejaVuSans-42"/>
      <use xlink:href="#DejaVuSans-69" transform="translate(68.603516 0)"/>
      <use xlink:href="#DejaVuSans-6f" transform="translate(96.386719 0)"/>
      <use xlink:href="#DejaVuSans-6d" transform="translate(157.568359 0)"/>
      <use xlink:href="#DejaVuSans-61" transform="translate(254.980469 0)"/>
      <use xlink:href="#DejaVuSans-73" transform="translate(316.259766 0)"/>
      <use xlink:href="#DejaVuSans-73" transform="translate(368.359375 0)"/>
      <use xlink:href="#DejaVuSans-20" transform="translate(420.458984 0)"/>
      <use xlink:href="#DejaVuSans-46" transform="translate(452.246094 0)"/>
      <use xlink:href="#DejaVuSans-6c" transform="translate(509.765625 0)"/>
      <use xlink:href="#DejaVuSans-75" transform="translate(537.548828 0)"/>
      <use xlink:href="#DejaVuSans-78" transform="translate(600.927734 0)"/>
      <use xlink:href="#DejaVuSans-20" transform="translate(660.107422 0)"/>
      <use xlink:href="#DejaVuSans-28" transform="translate(691.894531 0)"/>
      <use xlink:href="#DejaVuSans-42" transform="translate(730.908203 0)"/>
      <use xlink:href="#DejaVuSans-69" transform="translate(799.511719 0)"/>
      <use xlink:href="#DejaVuSans-6f" transform="translate(827.294922 0)"/>
      <use xlink:href="#DejaVuSans-6d" transform="translate(888.476562 0)"/>
      <use xlink:href="#DejaVuSans-61" transform="translate(985.888672 0)"/>
      <use xlink:href="#DejaVuSans-73" transform="translate(1047.167969 0)"/>
      <use xlink:href="#DejaVuSans-73" transform="translate(1099.267578 0)"/>
      <use xlink:href="#DejaVuSans-5f" transform="translate(1151.367188 0)"/>
      <use xlink:href="#DejaVuSans-45" transform="translate(1201.367188 0)"/>
      <use xlink:href="#DejaVuSans-63" transform="translate(1264.550781 0)"/>
      <use xlink:href="#DejaVuSans-6f" transform="translate(1319.53125 0)"/>
      <use xlink:href="#DejaVuSans-6c" transform="translate(1380.712891 0)"/>
      <use xlink:href="#DejaVuSans-69" transform="translate(1408.496094 0)"/>
      <use xlink:href="#DejaVuSans-5f" transform="translate(1436.279297 0)"/>
      <use xlink:href="#DejaVuSans-63" transform="translate(1486.279297 0)"/>
      <use xlink:href="#DejaVuSans-6f" transform="translate(1541.259766 0)"/>
      <use xlink:href="#DejaVuSans-72" transform="translate(1602.441406 0)"/>
      <use xlink:href="#DejaVuSans-65" transform="translate(1641.304688 0)"/>
      <use xlink:href="#DejaVuSans-29" transform="translate(1702.828125 0)"/>
     </g>
    </g>
   </g>
   <g id="matplotlib.axis_2">
    <g id="ytick_1">
     <g id="line2d_6">
      <defs>
       <path id="m3fa083b206" d="M 0 0 
L -4 0 
" style="stroke: #000000; stroke-width: 0.8"/>
      </defs>
      <g>
       <use xlink:href="#m3fa083b206" x="60.145313" y="205.258438" style="stroke: #000000; stroke-width: 0.8"/>
      </g>
     </g>
     <g id="text_7">
      <!-- 0.0% -->
      <g transform="translate(27.240625 209.057656) scale(0.1 -0.1)">
       <defs>
        <path id="DejaVuSans-25" d="M 4653 2053 
Q 4381 2053 4226 1822 
Q 4072 1591 4072 1178 
Q 4072 772 4226 539 
Q 4381 306 4653 306 
Q 4919 306 5073 539 
Q 5228 772 5228 1178 
Q 5228 1588 5073 1820 
Q 4919 2053 4653 2053 
z
M 4653 2450 
Q 5147 2450 5437 2106 
Q 5728 1763 5728 1178 
Q 5728 594 5436 251 
Q 5144 -91 4653 -91 
Q 4153 -91 3862 251 
Q 3572 594 3572 1178 
Q 3572 1766 3864 2108 
Q 4156 2450 4653 2450 
z
M 1428 4353 
Q 1159 4353 1004 4120 
Q 850 3888 850 3481 
Q 850 3069 1003 2837 
Q 1156 2606 1428 2606 
Q 1700 2606 1854 2837 
Q 2009 3069 2009 3481 
Q 2009 3884 1853 4118 
Q 1697 4353 1428 4353 
z
M 4250 4750 
L 4750 4750 
L 1831 -91 
L 1331 -91 
L 4250 4750 
z
M 1428 4750 
Q 1922 4750 2215 4408 
Q 2509 4066 2509 3481 
Q 2509 2891 2217 2550 
Q 1925 2209 1428 2209 
Q 931 2209 642 2551 
Q 353 2894 353 3481 
Q 353 4063 643 4406 
Q 934 4750 1428 4750 
z
" transform="scale(0.015625)"/>
       </defs>
       <use xlink:href="#DejaVuSans-30"/>
       <use xlink:href="#DejaVuSans-2e" transform="translate(63.623047 0)"/>
       <use xlink:href="#DejaVuSans-30" transform="translate(95.410156 0)"/>
       <use xlink:href="#DejaVuSans-25" transform="translate(159.033203 0)"/>
      </g>
     </g>
    </g>
    <g id="ytick_2">
     <g id="line2d_7">
      <g>
       <use xlink:href="#m3fa083b206" x="60.145313" y="166.893786" style="stroke: #000000; stroke-width: 0.8"/>
      </g>
     </g>
     <g id="text_8">
      <!-- 5.0% -->
      <g transform="translate(27.240625 170.693005) scale(0.1 -0.1)">
       <defs>
        <path id="DejaVuSans-35" d="M 691 4666 
L 3169 4666 
L 3169 4134 
L 1269 4134 
L 1269 2991 
Q 1406 3038 1543 3061 
Q 1681 3084 1819 3084 
Q 2600 3084 3056 2656 
Q 3513 2228 3513 1497 
Q 3513 744 3044 326 
Q 2575 -91 1722 -91 
Q 1428 -91 1123 -41 
Q 819 9 494 109 
L 494 744 
Q 775 591 1075 516 
Q 1375 441 1709 441 
Q 2250 441 2565 725 
Q 2881 1009 2881 1497 
Q 2881 1984 2565 2268 
Q 2250 2553 1709 2553 
Q 1456 2553 1204 2497 
Q 953 2441 691 2322 
L 691 4666 
z
" transform="scale(0.015625)"/>
       </defs>
       <use xlink:href="#DejaVuSans-35"/>
       <use xlink:href="#DejaVuSans-2e" transform="translate(63.623047 0)"/>
       <use xlink:href="#DejaVuSans-30" transform="translate(95.410156 0)"/>
       <use xlink:href="#DejaVuSans-25" transform="translate(159.033203 0)"/>
      </g>
     </g>
    </g>
    <g id="ytick_3">
     <g id="line2d_8">
      <g>
       <use xlink:href="#m3fa083b206" x="60.145313" y="128.529134" style="stroke: #000000; stroke-width: 0.8"/>
      </g>
     </g>
     <g id="text_9">
      <!-- 10.0% -->
      <g transform="translate(20.878125 132.328353) scale(0.1 -0.1)">
       <defs>
        <path id="DejaVuSans-31" d="M 794 531 
L 1825 531 
L 1825 4091 
L 703 3866 
L 703 4441 
L 1819 4666 
L 2450 4666 
L 2450 531 
L 3481 531 
L 3481 0 
L 794 0 
L 794 531 
z
" transform="scale(0.015625)"/>
       </defs>
       <use xlink:href="#DejaVuSans-31"/>
       <use xlink:href="#DejaVuSans-30" transform="translate(63.623047 0)"/>
       <use xlink:href="#DejaVuSans-2e" transform="translate(127.246094 0)"/>
       <use xlink:href="#DejaVuSans-30" transform="translate(159.033203 0)"/>
       <use xlink:href="#DejaVuSans-25" transform="translate(222.65625 0)"/>
      </g>
     </g>
    </g>
    <g id="ytick_4">
     <g id="line2d_9">
      <g>
       <use xlink:href="#m3fa083b206" x="60.145313" y="90.164483" style="stroke: #000000; stroke-width: 0.8"/>
      </g>
     </g>
     <g id="text_10">
      <!-- 15.0% -->
      <g transform="translate(20.878125 93.963702) scale(0.1 -0.1)">
       <use xlink:href="#DejaVuSans-31"/>
       <use xlink:href="#DejaVuSans-35" transform="translate(63.623047 0)"/>
       <use xlink:href="#DejaVuSans-2e" transform="translate(127.246094 0)"/>
       <use xlink:href="#DejaVuSans-30" transform="translate(159.033203 0)"/>
       <use xlink:href="#DejaVuSans-25" transform="translate(222.65625 0)"/>
      </g>
     </g>
    </g>
    <g id="ytick_5">
     <g id="line2d_10">
      <g>
       <use xlink:href="#m3fa083b206" x="60.145313" y="51.799831" style="stroke: #000000; stroke-width: 0.8"/>
      </g>
     </g>
     <g id="text_11">
      <!-- 20.0% -->
      <g transform="translate(20.878125 55.59905) scale(0.1 -0.1)">
       <use xlink:href="#DejaVuSans-32"/>
       <use xlink:href="#DejaVuSans-30" transform="translate(63.623047 0)"/>
       <use xlink:href="#DejaVuSans-2e" transform="translate(127.246094 0)"/>
       <use xlink:href="#DejaVuSans-30" transform="translate(159.033203 0)"/>
       <use xlink:href="#DejaVuSans-25" transform="translate(222.65625 0)"/>
      </g>
     </g>
    </g>
    <g id="text_12">
     <!-- Percentage of Entries (%) -->
     <g transform="translate(14.798438 176.804219) rotate(-90) scale(0.1 -0.1)">
      <defs>
       <path id="DejaVuSans-50" d="M 1259 4147 
L 1259 2394 
L 2053 2394 
Q 2494 2394 2734 2622 
Q 2975 2850 2975 3272 
Q 2975 3691 2734 3919 
Q 2494 4147 2053 4147 
L 1259 4147 
z
M 628 4666 
L 2053 4666 
Q 2838 4666 3239 4311 
Q 3641 3956 3641 3272 
Q 3641 2581 3239 2228 
Q 2838 1875 2053 1875 
L 1259 1875 
L 1259 0 
L 628 0 
L 628 4666 
z
" transform="scale(0.015625)"/>
       <path id="DejaVuSans-6e" d="M 3513 2113 
L 3513 0 
L 2938 0 
L 2938 2094 
Q 2938 2591 2744 2837 
Q 2550 3084 2163 3084 
Q 1697 3084 1428 2787 
Q 1159 2491 1159 1978 
L 1159 0 
L 581 0 
L 581 3500 
L 1159 3500 
L 1159 2956 
Q 1366 3272 1645 3428 
Q 1925 3584 2291 3584 
Q 2894 3584 3203 3211 
Q 3513 2838 3513 2113 
z
" transform="scale(0.015625)"/>
       <path id="DejaVuSans-74" d="M 1172 4494 
L 1172 3500 
L 2356 3500 
L 2356 3053 
L 1172 3053 
L 1172 1153 
Q 1172 725 1289 603 
Q 1406 481 1766 481 
L 2356 481 
L 2356 0 
L 1766 0 
Q 1100 0 847 248 
Q 594 497 594 1153 
L 594 3053 
L 172 3053 
L 172 3500 
L 594 3500 
L 594 4494 
L 1172 4494 
z
" transform="scale(0.015625)"/>
       <path id="DejaVuSans-67" d="M 2906 1791 
Q 2906 2416 2648 2759 
Q 2391 3103 1925 3103 
Q 1463 3103 1205 2759 
Q 947 2416 947 1791 
Q 947 1169 1205 825 
Q 1463 481 1925 481 
Q 2391 481 2648 825 
Q 2906 1169 2906 1791 
z
M 3481 434 
Q 3481 -459 3084 -895 
Q 2688 -1331 1869 -1331 
Q 1566 -1331 1297 -1286 
Q 1028 -1241 775 -1147 
L 775 -588 
Q 1028 -725 1275 -790 
Q 1522 -856 1778 -856 
Q 2344 -856 2625 -561 
Q 2906 -266 2906 331 
L 2906 616 
Q 2728 306 2450 153 
Q 2172 0 1784 0 
Q 1141 0 747 490 
Q 353 981 353 1791 
Q 353 2603 747 3093 
Q 1141 3584 1784 3584 
Q 2172 3584 2450 3431 
Q 2728 3278 2906 2969 
L 2906 3500 
L 3481 3500 
L 3481 434 
z
" transform="scale(0.015625)"/>
       <path id="DejaVuSans-66" d="M 2375 4863 
L 2375 4384 
L 1825 4384 
Q 1516 4384 1395 4259 
Q 1275 4134 1275 3809 
L 1275 3500 
L 2222 3500 
L 2222 3053 
L 1275 3053 
L 1275 0 
L 697 0 
L 697 3053 
L 147 3053 
L 147 3500 
L 697 3500 
L 697 3744 
Q 697 4328 969 4595 
Q 1241 4863 1831 4863 
L 2375 4863 
z
" transform="scale(0.015625)"/>
      </defs>
      <use xlink:href="#DejaVuSans-50"/>
      <use xlink:href="#DejaVuSans-65" transform="translate(56.677734 0)"/>
      <use xlink:href="#DejaVuSans-72" transform="translate(118.201172 0)"/>
      <use xlink:href="#DejaVuSans-63" transform="translate(157.064453 0)"/>
      <use xlink:href="#DejaVuSans-65" transform="translate(212.044922 0)"/>
      <use xlink:href="#DejaVuSans-6e" transform="translate(273.568359 0)"/>
      <use xlink:href="#DejaVuSans-74" transform="translate(336.947266 0)"/>
      <use xlink:href="#DejaVuSans-61" transform="translate(376.15625 0)"/>
      <use xlink:href="#DejaVuSans-67" transform="translate(437.435547 0)"/>
      <use xlink:href="#DejaVuSans-65" transform="translate(500.912109 0)"/>
      <use xlink:href="#DejaVuSans-20" transform="translate(562.435547 0)"/>
      <use xlink:href="#DejaVuSans-6f" transform="translate(594.222656 0)"/>
      <use xlink:href="#DejaVuSans-66" transform="translate(655.404297 0)"/>
      <use xlink:href="#DejaVuSans-20" transform="translate(690.609375 0)"/>
      <use xlink:href="#DejaVuSans-45" transform="translate(722.396484 0)"/>
      <use xlink:href="#DejaVuSans-6e" transform="translate(785.580078 0)"/>
      <use xlink:href="#DejaVuSans-74" transform="translate(848.958984 0)"/>
      <use xlink:href="#DejaVuSans-72" transform="translate(888.167969 0)"/>
      <use xlink:href="#DejaVuSans-69" transform="translate(929.28125 0)"/>
      <use xlink:href="#DejaVuSans-65" transform="translate(957.064453 0)"/>
      <use xlink:href="#DejaVuSans-73" transform="translate(1018.587891 0)"/>
      <use xlink:href="#DejaVuSans-20" transform="translate(1070.6875 0)"/>
      <use xlink:href="#DejaVuSans-28" transform="translate(1102.474609 0)"/>
      <use xlink:href="#DejaVuSans-25" transform="translate(1141.488281 0)"/>
      <use xlink:href="#DejaVuSans-29" transform="translate(1236.507812 0)"/>
     </g>
    </g>
   </g>
   <g id="patch_102">
    <path d="M 60.145313 205.258438 
L 60.145313 20.798438 
" style="fill: none; stroke: #000000; stroke-width: 0.8; stroke-linejoin: miter; stroke-linecap: square"/>
   </g>
   <g id="patch_103">
    <path d="M 60.145313 205.258438 
L 447.270313 205.258438 
" style="fill: none; stroke: #000000; stroke-width: 0.8; stroke-linejoin: miter; stroke-linecap: square"/>
   </g>
   <g id="text_13">
    <!-- Row-Wise Scaled Data (Glc Import per Path = 1)  EFMs -->
    <g transform="translate(114.725781 14.798438) scale(0.1 -0.1)">
     <defs>
      <path id="DejaVuSans-52" d="M 2841 2188 
Q 3044 2119 3236 1894 
Q 3428 1669 3622 1275 
L 4263 0 
L 3584 0 
L 2988 1197 
Q 2756 1666 2539 1819 
Q 2322 1972 1947 1972 
L 1259 1972 
L 1259 0 
L 628 0 
L 628 4666 
L 2053 4666 
Q 2853 4666 3247 4331 
Q 3641 3997 3641 3322 
Q 3641 2881 3436 2590 
Q 3231 2300 2841 2188 
z
M 1259 4147 
L 1259 2491 
L 2053 2491 
Q 2509 2491 2742 2702 
Q 2975 2913 2975 3322 
Q 2975 3731 2742 3939 
Q 2509 4147 2053 4147 
L 1259 4147 
z
" transform="scale(0.015625)"/>
      <path id="DejaVuSans-77" d="M 269 3500 
L 844 3500 
L 1563 769 
L 2278 3500 
L 2956 3500 
L 3675 769 
L 4391 3500 
L 4966 3500 
L 4050 0 
L 3372 0 
L 2619 2869 
L 1863 0 
L 1184 0 
L 269 3500 
z
" transform="scale(0.015625)"/>
      <path id="DejaVuSans-2d" d="M 313 2009 
L 1997 2009 
L 1997 1497 
L 313 1497 
L 313 2009 
z
" transform="scale(0.015625)"/>
      <path id="DejaVuSans-57" d="M 213 4666 
L 850 4666 
L 1831 722 
L 2809 4666 
L 3519 4666 
L 4500 722 
L 5478 4666 
L 6119 4666 
L 4947 0 
L 4153 0 
L 3169 4050 
L 2175 0 
L 1381 0 
L 213 4666 
z
" transform="scale(0.015625)"/>
      <path id="DejaVuSans-53" d="M 3425 4513 
L 3425 3897 
Q 3066 4069 2747 4153 
Q 2428 4238 2131 4238 
Q 1616 4238 1336 4038 
Q 1056 3838 1056 3469 
Q 1056 3159 1242 3001 
Q 1428 2844 1947 2747 
L 2328 2669 
Q 3034 2534 3370 2195 
Q 3706 1856 3706 1288 
Q 3706 609 3251 259 
Q 2797 -91 1919 -91 
Q 1588 -91 1214 -16 
Q 841 59 441 206 
L 441 856 
Q 825 641 1194 531 
Q 1563 422 1919 422 
Q 2459 422 2753 634 
Q 3047 847 3047 1241 
Q 3047 1584 2836 1778 
Q 2625 1972 2144 2069 
L 1759 2144 
Q 1053 2284 737 2584 
Q 422 2884 422 3419 
Q 422 4038 858 4394 
Q 1294 4750 2059 4750 
Q 2388 4750 2728 4690 
Q 3069 4631 3425 4513 
z
" transform="scale(0.015625)"/>
      <path id="DejaVuSans-64" d="M 2906 2969 
L 2906 4863 
L 3481 4863 
L 3481 0 
L 2906 0 
L 2906 525 
Q 2725 213 2448 61 
Q 2172 -91 1784 -91 
Q 1150 -91 751 415 
Q 353 922 353 1747 
Q 353 2572 751 3078 
Q 1150 3584 1784 3584 
Q 2172 3584 2448 3432 
Q 2725 3281 2906 2969 
z
M 947 1747 
Q 947 1113 1208 752 
Q 1469 391 1925 391 
Q 2381 391 2643 752 
Q 2906 1113 2906 1747 
Q 2906 2381 2643 2742 
Q 2381 3103 1925 3103 
Q 1469 3103 1208 2742 
Q 947 2381 947 1747 
z
" transform="scale(0.015625)"/>
      <path id="DejaVuSans-44" d="M 1259 4147 
L 1259 519 
L 2022 519 
Q 2988 519 3436 956 
Q 3884 1394 3884 2338 
Q 3884 3275 3436 3711 
Q 2988 4147 2022 4147 
L 1259 4147 
z
M 628 4666 
L 1925 4666 
Q 3281 4666 3915 4102 
Q 4550 3538 4550 2338 
Q 4550 1131 3912 565 
Q 3275 0 1925 0 
L 628 0 
L 628 4666 
z
" transform="scale(0.015625)"/>
      <path id="DejaVuSans-47" d="M 3809 666 
L 3809 1919 
L 2778 1919 
L 2778 2438 
L 4434 2438 
L 4434 434 
Q 4069 175 3628 42 
Q 3188 -91 2688 -91 
Q 1594 -91 976 548 
Q 359 1188 359 2328 
Q 359 3472 976 4111 
Q 1594 4750 2688 4750 
Q 3144 4750 3555 4637 
Q 3966 4525 4313 4306 
L 4313 3634 
Q 3963 3931 3569 4081 
Q 3175 4231 2741 4231 
Q 1884 4231 1454 3753 
Q 1025 3275 1025 2328 
Q 1025 1384 1454 906 
Q 1884 428 2741 428 
Q 3075 428 3337 486 
Q 3600 544 3809 666 
z
" transform="scale(0.015625)"/>
      <path id="DejaVuSans-49" d="M 628 4666 
L 1259 4666 
L 1259 0 
L 628 0 
L 628 4666 
z
" transform="scale(0.015625)"/>
      <path id="DejaVuSans-70" d="M 1159 525 
L 1159 -1331 
L 581 -1331 
L 581 3500 
L 1159 3500 
L 1159 2969 
Q 1341 3281 1617 3432 
Q 1894 3584 2278 3584 
Q 2916 3584 3314 3078 
Q 3713 2572 3713 1747 
Q 3713 922 3314 415 
Q 2916 -91 2278 -91 
Q 1894 -91 1617 61 
Q 1341 213 1159 525 
z
M 3116 1747 
Q 3116 2381 2855 2742 
Q 2594 3103 2138 3103 
Q 1681 3103 1420 2742 
Q 1159 2381 1159 1747 
Q 1159 1113 1420 752 
Q 1681 391 2138 391 
Q 2594 391 2855 752 
Q 3116 1113 3116 1747 
z
" transform="scale(0.015625)"/>
      <path id="DejaVuSans-68" d="M 3513 2113 
L 3513 0 
L 2938 0 
L 2938 2094 
Q 2938 2591 2744 2837 
Q 2550 3084 2163 3084 
Q 1697 3084 1428 2787 
Q 1159 2491 1159 1978 
L 1159 0 
L 581 0 
L 581 4863 
L 1159 4863 
L 1159 2956 
Q 1366 3272 1645 3428 
Q 1925 3584 2291 3584 
Q 2894 3584 3203 3211 
Q 3513 2838 3513 2113 
z
" transform="scale(0.015625)"/>
      <path id="DejaVuSans-3d" d="M 678 2906 
L 4684 2906 
L 4684 2381 
L 678 2381 
L 678 2906 
z
M 678 1631 
L 4684 1631 
L 4684 1100 
L 678 1100 
L 678 1631 
z
" transform="scale(0.015625)"/>
      <path id="DejaVuSans-2013" d="M 313 1978 
L 2888 1978 
L 2888 1528 
L 313 1528 
L 313 1978 
z
" transform="scale(0.015625)"/>
      <path id="DejaVuSans-4d" d="M 628 4666 
L 1569 4666 
L 2759 1491 
L 3956 4666 
L 4897 4666 
L 4897 0 
L 4281 0 
L 4281 4097 
L 3078 897 
L 2444 897 
L 1241 4097 
L 1241 0 
L 628 0 
L 628 4666 
z
" transform="scale(0.015625)"/>
     </defs>
     <use xlink:href="#DejaVuSans-52"/>
     <use xlink:href="#DejaVuSans-6f" transform="translate(64.982422 0)"/>
     <use xlink:href="#DejaVuSans-77" transform="translate(126.164062 0)"/>
     <use xlink:href="#DejaVuSans-2d" transform="translate(207.951172 0)"/>
     <use xlink:href="#DejaVuSans-57" transform="translate(240.035156 0)"/>
     <use xlink:href="#DejaVuSans-69" transform="translate(336.662109 0)"/>
     <use xlink:href="#DejaVuSans-73" transform="translate(364.445312 0)"/>
     <use xlink:href="#DejaVuSans-65" transform="translate(416.544922 0)"/>
     <use xlink:href="#DejaVuSans-20" transform="translate(478.068359 0)"/>
     <use xlink:href="#DejaVuSans-53" transform="translate(509.855469 0)"/>
     <use xlink:href="#DejaVuSans-63" transform="translate(573.332031 0)"/>
     <use xlink:href="#DejaVuSans-61" transform="translate(628.3125 0)"/>
     <use xlink:href="#DejaVuSans-6c" transform="translate(689.591797 0)"/>
     <use xlink:href="#DejaVuSans-65" transform="translate(717.375 0)"/>
     <use xlink:href="#DejaVuSans-64" transform="translate(778.898438 0)"/>
     <use xlink:href="#DejaVuSans-20" transform="translate(842.375 0)"/>
     <use xlink:href="#DejaVuSans-44" transform="translate(874.162109 0)"/>
     <use xlink:href="#DejaVuSans-61" transform="translate(951.164062 0)"/>
     <use xlink:href="#DejaVuSans-74" transform="translate(1012.443359 0)"/>
     <use xlink:href="#DejaVuSans-61" transform="translate(1051.652344 0)"/>
     <use xlink:href="#DejaVuSans-20" transform="translate(1112.931641 0)"/>
     <use xlink:href="#DejaVuSans-28" transform="translate(1144.71875 0)"/>
     <use xlink:href="#DejaVuSans-47" transform="translate(1183.732422 0)"/>
     <use xlink:href="#DejaVuSans-6c" transform="translate(1261.222656 0)"/>
     <use xlink:href="#DejaVuSans-63" transform="translate(1289.005859 0)"/>
     <use xlink:href="#DejaVuSans-20" transform="translate(1343.986328 0)"/>
     <use xlink:href="#DejaVuSans-49" transform="translate(1375.773438 0)"/>
     <use xlink:href="#DejaVuSans-6d" transform="translate(1405.265625 0)"/>
     <use xlink:href="#DejaVuSans-70" transform="translate(1502.677734 0)"/>
     <use xlink:href="#DejaVuSans-6f" transform="translate(1566.154297 0)"/>
     <use xlink:href="#DejaVuSans-72" transform="translate(1627.335938 0)"/>
     <use xlink:href="#DejaVuSans-74" transform="translate(1668.449219 0)"/>
     <use xlink:href="#DejaVuSans-20" transform="translate(1707.658203 0)"/>
     <use xlink:href="#DejaVuSans-70" transform="translate(1739.445312 0)"/>
     <use xlink:href="#DejaVuSans-65" transform="translate(1802.921875 0)"/>
     <use xlink:href="#DejaVuSans-72" transform="translate(1864.445312 0)"/>
     <use xlink:href="#DejaVuSans-20" transform="translate(1905.558594 0)"/>
     <use xlink:href="#DejaVuSans-50" transform="translate(1937.345703 0)"/>
     <use xlink:href="#DejaVuSans-61" transform="translate(1993.148438 0)"/>
     <use xlink:href="#DejaVuSans-74" transform="translate(2054.427734 0)"/>
     <use xlink:href="#DejaVuSans-68" transform="translate(2093.636719 0)"/>
     <use xlink:href="#DejaVuSans-20" transform="translate(2157.015625 0)"/>
     <use xlink:href="#DejaVuSans-3d" transform="translate(2188.802734 0)"/>
     <use xlink:href="#DejaVuSans-20" transform="translate(2272.591797 0)"/>
     <use xlink:href="#DejaVuSans-31" transform="translate(2304.378906 0)"/>
     <use xlink:href="#DejaVuSans-29" transform="translate(2368.001953 0)"/>
     <use xlink:href="#DejaVuSans-20" transform="translate(2407.015625 0)"/>
     <use xlink:href="#DejaVuSans-2013" transform="translate(2438.802734 0)"/>
     <use xlink:href="#DejaVuSans-20" transform="translate(2488.802734 0)"/>
     <use xlink:href="#DejaVuSans-45" transform="translate(2520.589844 0)"/>
     <use xlink:href="#DejaVuSans-46" transform="translate(2583.773438 0)"/>
     <use xlink:href="#DejaVuSans-4d" transform="translate(2641.292969 0)"/>
     <use xlink:href="#DejaVuSans-73" transform="translate(2727.572266 0)"/>
    </g>
   </g>
  </g>
  <g id="axes_2">
   <g id="patch_104">
    <path d="M 462.070312 205.258438 
L 849.195312 205.258438 
L 849.195312 20.798438 
L 462.070312 20.798438 
z
" style="fill: #ffffff"/>
   </g>
   <g id="patch_105">
    <path d="M 479.666903 205.258438 
L 483.22177 205.258438 
L 483.22177 29.582247 
L 479.666903 29.582247 
z
" clip-path="url(#pd315351a8d)" style="stroke: #ffffff; stroke-width: 0.8; stroke-linejoin: miter"/>
   </g>
   <g id="patch_106">
    <path d="M 483.22177 205.258438 
L 486.776637 205.258438 
L 486.776637 201.950972 
L 483.22177 201.950972 
z
" clip-path="url(#pd315351a8d)" style="stroke: #ffffff; stroke-width: 0.8; stroke-linejoin: miter"/>
   </g>
   <g id="patch_107">
    <path d="M 486.776637 205.258438 
L 490.331504 205.258438 
L 490.331504 48.880676 
L 486.776637 48.880676 
z
" clip-path="url(#pd315351a8d)" style="stroke: #ffffff; stroke-width: 0.8; stroke-linejoin: miter"/>
   </g>
   <g id="patch_108">
    <path d="M 490.331504 205.258438 
L 493.886371 205.258438 
L 493.886371 171.159344 
L 490.331504 171.159344 
z
" clip-path="url(#pd315351a8d)" style="stroke: #ffffff; stroke-width: 0.8; stroke-linejoin: miter"/>
   </g>
   <g id="patch_109">
    <path d="M 493.886371 205.258438 
L 497.441238 205.258438 
L 497.441238 197.736148 
L 493.886371 197.736148 
z
" clip-path="url(#pd315351a8d)" style="stroke: #ffffff; stroke-width: 0.8; stroke-linejoin: miter"/>
   </g>
   <g id="patch_110">
    <path d="M 497.441238 205.258438 
L 500.996105 205.258438 
L 500.996105 199.170359 
L 497.441238 199.170359 
z
" clip-path="url(#pd315351a8d)" style="stroke: #ffffff; stroke-width: 0.8; stroke-linejoin: miter"/>
   </g>
   <g id="patch_111">
    <path d="M 500.996105 205.258438 
L 504.550971 205.258438 
L 504.550971 198.643506 
L 500.996105 198.643506 
z
" clip-path="url(#pd315351a8d)" style="stroke: #ffffff; stroke-width: 0.8; stroke-linejoin: miter"/>
   </g>
   <g id="patch_112">
    <path d="M 504.550971 205.258438 
L 508.105838 205.258438 
L 508.105838 197.11173 
L 504.550971 197.11173 
z
" clip-path="url(#pd315351a8d)" style="stroke: #ffffff; stroke-width: 0.8; stroke-linejoin: miter"/>
   </g>
   <g id="patch_113">
    <path d="M 508.105838 205.258438 
L 511.660705 205.258438 
L 511.660705 191.911496 
L 508.105838 191.911496 
z
" clip-path="url(#pd315351a8d)" style="stroke: #ffffff; stroke-width: 0.8; stroke-linejoin: miter"/>
   </g>
   <g id="patch_114">
    <path d="M 511.660705 205.258438 
L 515.215572 205.258438 
L 515.215572 190.82852 
L 511.660705 190.82852 
z
" clip-path="url(#pd315351a8d)" style="stroke: #ffffff; stroke-width: 0.8; stroke-linejoin: miter"/>
   </g>
   <g id="patch_115">
    <path d="M 515.215572 205.258438 
L 518.770439 205.258438 
L 518.770439 192.516401 
L 515.215572 192.516401 
z
" clip-path="url(#pd315351a8d)" style="stroke: #ffffff; stroke-width: 0.8; stroke-linejoin: miter"/>
   </g>
   <g id="patch_116">
    <path d="M 518.770439 205.258438 
L 522.325306 205.258438 
L 522.325306 195.33604 
L 518.770439 195.33604 
z
" clip-path="url(#pd315351a8d)" style="stroke: #ffffff; stroke-width: 0.8; stroke-linejoin: miter"/>
   </g>
   <g id="patch_117">
    <path d="M 522.325306 205.258438 
L 525.880172 205.258438 
L 525.880172 196.497068 
L 522.325306 196.497068 
z
" clip-path="url(#pd315351a8d)" style="stroke: #ffffff; stroke-width: 0.8; stroke-linejoin: miter"/>
   </g>
   <g id="patch_118">
    <path d="M 525.880172 205.258438 
L 529.435039 205.258438 
L 529.435039 193.33595 
L 525.880172 193.33595 
z
" clip-path="url(#pd315351a8d)" style="stroke: #ffffff; stroke-width: 0.8; stroke-linejoin: miter"/>
   </g>
   <g id="patch_119">
    <path d="M 529.435039 205.258438 
L 532.989906 205.258438 
L 532.989906 178.40845 
L 529.435039 178.40845 
z
" clip-path="url(#pd315351a8d)" style="stroke: #ffffff; stroke-width: 0.8; stroke-linejoin: miter"/>
   </g>
   <g id="patch_120">
    <path d="M 532.989906 205.258438 
L 536.544773 205.258438 
L 536.544773 176.701056 
L 532.989906 176.701056 
z
" clip-path="url(#pd315351a8d)" style="stroke: #ffffff; stroke-width: 0.8; stroke-linejoin: miter"/>
   </g>
   <g id="patch_121">
    <path d="M 536.544773 205.258438 
L 540.09964 205.258438 
L 540.09964 192.37981 
L 536.544773 192.37981 
z
" clip-path="url(#pd315351a8d)" style="stroke: #ffffff; stroke-width: 0.8; stroke-linejoin: miter"/>
   </g>
   <g id="patch_122">
    <path d="M 540.09964 205.258438 
L 543.654507 205.258438 
L 543.654507 182.476926 
L 540.09964 182.476926 
z
" clip-path="url(#pd315351a8d)" style="stroke: #ffffff; stroke-width: 0.8; stroke-linejoin: miter"/>
   </g>
   <g id="patch_123">
    <path d="M 543.654507 205.258438 
L 547.209374 205.258438 
L 547.209374 176.330308 
L 543.654507 176.330308 
z
" clip-path="url(#pd315351a8d)" style="stroke: #ffffff; stroke-width: 0.8; stroke-linejoin: miter"/>
   </g>
   <g id="patch_124">
    <path d="M 547.209374 205.258438 
L 550.76424 205.258438 
L 550.76424 191.921253 
L 547.209374 191.921253 
z
" clip-path="url(#pd315351a8d)" style="stroke: #ffffff; stroke-width: 0.8; stroke-linejoin: miter"/>
   </g>
   <g id="patch_125">
    <path d="M 550.76424 205.258438 
L 554.319107 205.258438 
L 554.319107 201.180205 
L 550.76424 201.180205 
z
" clip-path="url(#pd315351a8d)" style="stroke: #ffffff; stroke-width: 0.8; stroke-linejoin: miter"/>
   </g>
   <g id="patch_126">
    <path d="M 554.319107 205.258438 
L 557.873974 205.258438 
L 557.873974 201.33631 
L 554.319107 201.33631 
z
" clip-path="url(#pd315351a8d)" style="stroke: #ffffff; stroke-width: 0.8; stroke-linejoin: miter"/>
   </g>
   <g id="patch_127">
    <path d="M 557.873974 205.258438 
L 561.428841 205.258438 
L 561.428841 200.770431 
L 557.873974 200.770431 
z
" clip-path="url(#pd315351a8d)" style="stroke: #ffffff; stroke-width: 0.8; stroke-linejoin: miter"/>
   </g>
   <g id="patch_128">
    <path d="M 561.428841 205.258438 
L 564.983708 205.258438 
L 564.983708 201.472901 
L 561.428841 201.472901 
z
" clip-path="url(#pd315351a8d)" style="stroke: #ffffff; stroke-width: 0.8; stroke-linejoin: miter"/>
   </g>
   <g id="patch_129">
    <path d="M 564.983708 205.258438 
L 568.538575 205.258438 
L 568.538575 201.668032 
L 564.983708 201.668032 
z
" clip-path="url(#pd315351a8d)" style="stroke: #ffffff; stroke-width: 0.8; stroke-linejoin: miter"/>
   </g>
   <g id="patch_130">
    <path d="M 568.538575 205.258438 
L 572.093442 205.258438 
L 572.093442 201.785111 
L 568.538575 201.785111 
z
" clip-path="url(#pd315351a8d)" style="stroke: #ffffff; stroke-width: 0.8; stroke-linejoin: miter"/>
   </g>
   <g id="patch_131">
    <path d="M 572.093442 205.258438 
L 575.648308 205.258438 
L 575.648308 200.516761 
L 572.093442 200.516761 
z
" clip-path="url(#pd315351a8d)" style="stroke: #ffffff; stroke-width: 0.8; stroke-linejoin: miter"/>
   </g>
   <g id="patch_132">
    <path d="M 575.648308 205.258438 
L 579.203175 205.258438 
L 579.203175 198.750828 
L 575.648308 198.750828 
z
" clip-path="url(#pd315351a8d)" style="stroke: #ffffff; stroke-width: 0.8; stroke-linejoin: miter"/>
   </g>
   <g id="patch_133">
    <path d="M 579.203175 205.258438 
L 582.758042 205.258438 
L 582.758042 201.316797 
L 579.203175 201.316797 
z
" clip-path="url(#pd315351a8d)" style="stroke: #ffffff; stroke-width: 0.8; stroke-linejoin: miter"/>
   </g>
   <g id="patch_134">
    <path d="M 582.758042 205.258438 
L 586.312909 205.258438 
L 586.312909 199.892343 
L 582.758042 199.892343 
z
" clip-path="url(#pd315351a8d)" style="stroke: #ffffff; stroke-width: 0.8; stroke-linejoin: miter"/>
   </g>
   <g id="patch_135">
    <path d="M 586.312909 205.258438 
L 589.867776 205.258438 
L 589.867776 201.658276 
L 586.312909 201.658276 
z
" clip-path="url(#pd315351a8d)" style="stroke: #ffffff; stroke-width: 0.8; stroke-linejoin: miter"/>
   </g>
   <g id="patch_136">
    <path d="M 589.867776 205.258438 
L 593.422643 205.258438 
L 593.422643 199.345977 
L 589.867776 199.345977 
z
" clip-path="url(#pd315351a8d)" style="stroke: #ffffff; stroke-width: 0.8; stroke-linejoin: miter"/>
   </g>
   <g id="patch_137">
    <path d="M 593.422643 205.258438 
L 596.977509 205.258438 
L 596.977509 201.180205 
L 593.422643 201.180205 
z
" clip-path="url(#pd315351a8d)" style="stroke: #ffffff; stroke-width: 0.8; stroke-linejoin: miter"/>
   </g>
   <g id="patch_138">
    <path d="M 596.977509 205.258438 
L 600.532376 205.258438 
L 600.532376 201.121666 
L 596.977509 201.121666 
z
" clip-path="url(#pd315351a8d)" style="stroke: #ffffff; stroke-width: 0.8; stroke-linejoin: miter"/>
   </g>
   <g id="patch_139">
    <path d="M 600.532376 205.258438 
L 604.087243 205.258438 
L 604.087243 202.975408 
L 600.532376 202.975408 
z
" clip-path="url(#pd315351a8d)" style="stroke: #ffffff; stroke-width: 0.8; stroke-linejoin: miter"/>
   </g>
   <g id="patch_140">
    <path d="M 604.087243 205.258438 
L 607.64211 205.258438 
L 607.64211 201.443632 
L 604.087243 201.443632 
z
" clip-path="url(#pd315351a8d)" style="stroke: #ffffff; stroke-width: 0.8; stroke-linejoin: miter"/>
   </g>
   <g id="patch_141">
    <path d="M 607.64211 205.258438 
L 611.196977 205.258438 
L 611.196977 202.438799 
L 607.64211 202.438799 
z
" clip-path="url(#pd315351a8d)" style="stroke: #ffffff; stroke-width: 0.8; stroke-linejoin: miter"/>
   </g>
   <g id="patch_142">
    <path d="M 611.196977 205.258438 
L 614.751844 205.258438 
L 614.751844 202.438799 
L 611.196977 202.438799 
z
" clip-path="url(#pd315351a8d)" style="stroke: #ffffff; stroke-width: 0.8; stroke-linejoin: miter"/>
   </g>
   <g id="patch_143">
    <path d="M 614.751844 205.258438 
L 618.306711 205.258438 
L 618.306711 201.58998 
L 614.751844 201.58998 
z
" clip-path="url(#pd315351a8d)" style="stroke: #ffffff; stroke-width: 0.8; stroke-linejoin: miter"/>
   </g>
   <g id="patch_144">
    <path d="M 618.306711 205.258438 
L 621.861577 205.258438 
L 621.861577 199.863073 
L 618.306711 199.863073 
z
" clip-path="url(#pd315351a8d)" style="stroke: #ffffff; stroke-width: 0.8; stroke-linejoin: miter"/>
   </g>
   <g id="patch_145">
    <path d="M 621.861577 205.258438 
L 625.416444 205.258438 
L 625.416444 202.399772 
L 621.861577 202.399772 
z
" clip-path="url(#pd315351a8d)" style="stroke: #ffffff; stroke-width: 0.8; stroke-linejoin: miter"/>
   </g>
   <g id="patch_146">
    <path d="M 625.416444 205.258438 
L 628.971311 205.258438 
L 628.971311 201.921702 
L 625.416444 201.921702 
z
" clip-path="url(#pd315351a8d)" style="stroke: #ffffff; stroke-width: 0.8; stroke-linejoin: miter"/>
   </g>
   <g id="patch_147">
    <path d="M 628.971311 205.258438 
L 632.526178 205.258438 
L 632.526178 201.472901 
L 628.971311 201.472901 
z
" clip-path="url(#pd315351a8d)" style="stroke: #ffffff; stroke-width: 0.8; stroke-linejoin: miter"/>
   </g>
   <g id="patch_148">
    <path d="M 632.526178 205.258438 
L 636.081045 205.258438 
L 636.081045 204.185219 
L 632.526178 204.185219 
z
" clip-path="url(#pd315351a8d)" style="stroke: #ffffff; stroke-width: 0.8; stroke-linejoin: miter"/>
   </g>
   <g id="patch_149">
    <path d="M 636.081045 205.258438 
L 639.635912 205.258438 
L 639.635912 204.594993 
L 636.081045 204.594993 
z
" clip-path="url(#pd315351a8d)" style="stroke: #ffffff; stroke-width: 0.8; stroke-linejoin: miter"/>
   </g>
   <g id="patch_150">
    <path d="M 639.635912 205.258438 
L 643.190779 205.258438 
L 643.190779 198.984985 
L 639.635912 198.984985 
z
" clip-path="url(#pd315351a8d)" style="stroke: #ffffff; stroke-width: 0.8; stroke-linejoin: miter"/>
   </g>
   <g id="patch_151">
    <path d="M 643.190779 205.258438 
L 646.745645 205.258438 
L 646.745645 203.960818 
L 643.190779 203.960818 
z
" clip-path="url(#pd315351a8d)" style="stroke: #ffffff; stroke-width: 0.8; stroke-linejoin: miter"/>
   </g>
   <g id="patch_152">
    <path d="M 646.745645 205.258438 
L 650.300512 205.258438 
L 650.300512 195.638493 
L 646.745645 195.638493 
z
" clip-path="url(#pd315351a8d)" style="stroke: #ffffff; stroke-width: 0.8; stroke-linejoin: miter"/>
   </g>
   <g id="patch_153">
    <path d="M 650.300512 205.258438 
L 653.855379 205.258438 
L 653.855379 203.951062 
L 650.300512 203.951062 
z
" clip-path="url(#pd315351a8d)" style="stroke: #ffffff; stroke-width: 0.8; stroke-linejoin: miter"/>
   </g>
   <g id="patch_154">
    <path d="M 653.855379 205.258438 
L 657.410246 205.258438 
L 657.410246 197.550774 
L 653.855379 197.550774 
z
" clip-path="url(#pd315351a8d)" style="stroke: #ffffff; stroke-width: 0.8; stroke-linejoin: miter"/>
   </g>
   <g id="patch_155">
    <path d="M 657.410246 205.258438 
L 660.965113 205.258438 
L 660.965113 203.84374 
L 657.410246 203.84374 
z
" clip-path="url(#pd315351a8d)" style="stroke: #ffffff; stroke-width: 0.8; stroke-linejoin: miter"/>
   </g>
   <g id="patch_156">
    <path d="M 660.965113 205.258438 
L 664.51998 205.258438 
L 664.51998 198.038601 
L 660.965113 198.038601 
z
" clip-path="url(#pd315351a8d)" style="stroke: #ffffff; stroke-width: 0.8; stroke-linejoin: miter"/>
   </g>
   <g id="patch_157">
    <path d="M 664.51998 205.258438 
L 668.074846 205.258438 
L 668.074846 203.199808 
L 664.51998 203.199808 
z
" clip-path="url(#pd315351a8d)" style="stroke: #ffffff; stroke-width: 0.8; stroke-linejoin: miter"/>
   </g>
   <g id="patch_158">
    <path d="M 668.074846 205.258438 
L 671.629713 205.258438 
L 671.629713 204.57548 
L 668.074846 204.57548 
z
" clip-path="url(#pd315351a8d)" style="stroke: #ffffff; stroke-width: 0.8; stroke-linejoin: miter"/>
   </g>
   <g id="patch_159">
    <path d="M 671.629713 205.258438 
L 675.18458 205.258438 
L 675.18458 203.980331 
L 671.629713 203.980331 
z
" clip-path="url(#pd315351a8d)" style="stroke: #ffffff; stroke-width: 0.8; stroke-linejoin: miter"/>
   </g>
   <g id="patch_160">
    <path d="M 675.18458 205.258438 
L 678.739447 205.258438 
L 678.739447 204.487671 
L 675.18458 204.487671 
z
" clip-path="url(#pd315351a8d)" style="stroke: #ffffff; stroke-width: 0.8; stroke-linejoin: miter"/>
   </g>
   <g id="patch_161">
    <path d="M 678.739447 205.258438 
L 682.294314 205.258438 
L 682.294314 204.624263 
L 678.739447 204.624263 
z
" clip-path="url(#pd315351a8d)" style="stroke: #ffffff; stroke-width: 0.8; stroke-linejoin: miter"/>
   </g>
   <g id="patch_162">
    <path d="M 682.294314 205.258438 
L 685.849181 205.258438 
L 685.849181 204.565723 
L 682.294314 204.565723 
z
" clip-path="url(#pd315351a8d)" style="stroke: #ffffff; stroke-width: 0.8; stroke-linejoin: miter"/>
   </g>
   <g id="patch_163">
    <path d="M 685.849181 205.258438 
L 689.404048 205.258438 
L 689.404048 204.54621 
L 685.849181 204.54621 
z
" clip-path="url(#pd315351a8d)" style="stroke: #ffffff; stroke-width: 0.8; stroke-linejoin: miter"/>
   </g>
   <g id="patch_164">
    <path d="M 689.404048 205.258438 
L 692.958914 205.258438 
L 692.958914 204.663289 
L 689.404048 204.663289 
z
" clip-path="url(#pd315351a8d)" style="stroke: #ffffff; stroke-width: 0.8; stroke-linejoin: miter"/>
   </g>
   <g id="patch_165">
    <path d="M 692.958914 205.258438 
L 696.513781 205.258438 
L 696.513781 204.712071 
L 692.958914 204.712071 
z
" clip-path="url(#pd315351a8d)" style="stroke: #ffffff; stroke-width: 0.8; stroke-linejoin: miter"/>
   </g>
   <g id="patch_166">
    <path d="M 696.513781 205.258438 
L 700.068648 205.258438 
L 700.068648 204.780367 
L 696.513781 204.780367 
z
" clip-path="url(#pd315351a8d)" style="stroke: #ffffff; stroke-width: 0.8; stroke-linejoin: miter"/>
   </g>
   <g id="patch_167">
    <path d="M 700.068648 205.258438 
L 703.623515 205.258438 
L 703.623515 204.702315 
L 700.068648 204.702315 
z
" clip-path="url(#pd315351a8d)" style="stroke: #ffffff; stroke-width: 0.8; stroke-linejoin: miter"/>
   </g>
   <g id="patch_168">
    <path d="M 703.623515 205.258438 
L 707.178382 205.258438 
L 707.178382 204.614506 
L 703.623515 204.614506 
z
" clip-path="url(#pd315351a8d)" style="stroke: #ffffff; stroke-width: 0.8; stroke-linejoin: miter"/>
   </g>
   <g id="patch_169">
    <path d="M 707.178382 205.258438 
L 710.733249 205.258438 
L 710.733249 204.273027 
L 707.178382 204.273027 
z
" clip-path="url(#pd315351a8d)" style="stroke: #ffffff; stroke-width: 0.8; stroke-linejoin: miter"/>
   </g>
   <g id="patch_170">
    <path d="M 710.733249 205.258438 
L 714.288116 205.258438 
L 714.288116 204.448645 
L 710.733249 204.448645 
z
" clip-path="url(#pd315351a8d)" style="stroke: #ffffff; stroke-width: 0.8; stroke-linejoin: miter"/>
   </g>
   <g id="patch_171">
    <path d="M 714.288116 205.258438 
L 717.842982 205.258438 
L 717.842982 203.726661 
L 714.288116 203.726661 
z
" clip-path="url(#pd315351a8d)" style="stroke: #ffffff; stroke-width: 0.8; stroke-linejoin: miter"/>
   </g>
   <g id="patch_172">
    <path d="M 717.842982 205.258438 
L 721.397849 205.258438 
L 721.397849 204.03887 
L 717.842982 204.03887 
z
" clip-path="url(#pd315351a8d)" style="stroke: #ffffff; stroke-width: 0.8; stroke-linejoin: miter"/>
   </g>
   <g id="patch_173">
    <path d="M 721.397849 205.258438 
L 724.952716 205.258438 
L 724.952716 204.516941 
L 721.397849 204.516941 
z
" clip-path="url(#pd315351a8d)" style="stroke: #ffffff; stroke-width: 0.8; stroke-linejoin: miter"/>
   </g>
   <g id="patch_174">
    <path d="M 724.952716 205.258438 
L 728.507583 205.258438 
L 728.507583 204.09741 
L 724.952716 204.09741 
z
" clip-path="url(#pd315351a8d)" style="stroke: #ffffff; stroke-width: 0.8; stroke-linejoin: miter"/>
   </g>
   <g id="patch_175">
    <path d="M 728.507583 205.258438 
L 732.06245 205.258438 
L 732.06245 202.058294 
L 728.507583 202.058294 
z
" clip-path="url(#pd315351a8d)" style="stroke: #ffffff; stroke-width: 0.8; stroke-linejoin: miter"/>
   </g>
   <g id="patch_176">
    <path d="M 732.06245 205.258438 
L 735.617317 205.258438 
L 735.617317 203.004678 
L 732.06245 203.004678 
z
" clip-path="url(#pd315351a8d)" style="stroke: #ffffff; stroke-width: 0.8; stroke-linejoin: miter"/>
   </g>
   <g id="patch_177">
    <path d="M 735.617317 205.258438 
L 739.172183 205.258438 
L 739.172183 203.863253 
L 735.617317 203.863253 
z
" clip-path="url(#pd315351a8d)" style="stroke: #ffffff; stroke-width: 0.8; stroke-linejoin: miter"/>
   </g>
   <g id="patch_178">
    <path d="M 739.172183 205.258438 
L 742.72705 205.258438 
L 742.72705 203.707148 
L 739.172183 203.707148 
z
" clip-path="url(#pd315351a8d)" style="stroke: #ffffff; stroke-width: 0.8; stroke-linejoin: miter"/>
   </g>
   <g id="patch_179">
    <path d="M 742.72705 205.258438 
L 746.281917 205.258438 
L 746.281917 203.697392 
L 742.72705 203.697392 
z
" clip-path="url(#pd315351a8d)" style="stroke: #ffffff; stroke-width: 0.8; stroke-linejoin: miter"/>
   </g>
   <g id="patch_180">
    <path d="M 746.281917 205.258438 
L 749.836784 205.258438 
L 749.836784 203.960818 
L 746.281917 203.960818 
z
" clip-path="url(#pd315351a8d)" style="stroke: #ffffff; stroke-width: 0.8; stroke-linejoin: miter"/>
   </g>
   <g id="patch_181">
    <path d="M 749.836784 205.258438 
L 753.391651 205.258438 
L 753.391651 203.921792 
L 749.836784 203.921792 
z
" clip-path="url(#pd315351a8d)" style="stroke: #ffffff; stroke-width: 0.8; stroke-linejoin: miter"/>
   </g>
   <g id="patch_182">
    <path d="M 753.391651 205.258438 
L 756.946518 205.258438 
L 756.946518 204.946228 
L 753.391651 204.946228 
z
" clip-path="url(#pd315351a8d)" style="stroke: #ffffff; stroke-width: 0.8; stroke-linejoin: miter"/>
   </g>
   <g id="patch_183">
    <path d="M 756.946518 205.258438 
L 760.501385 205.258438 
L 760.501385 204.887689 
L 756.946518 204.887689 
z
" clip-path="url(#pd315351a8d)" style="stroke: #ffffff; stroke-width: 0.8; stroke-linejoin: miter"/>
   </g>
   <g id="patch_184">
    <path d="M 760.501385 205.258438 
L 764.056251 205.258438 
L 764.056251 204.507184 
L 760.501385 204.507184 
z
" clip-path="url(#pd315351a8d)" style="stroke: #ffffff; stroke-width: 0.8; stroke-linejoin: miter"/>
   </g>
   <g id="patch_185">
    <path d="M 764.056251 205.258438 
L 767.611118 205.258438 
L 767.611118 204.955985 
L 764.056251 204.955985 
z
" clip-path="url(#pd315351a8d)" style="stroke: #ffffff; stroke-width: 0.8; stroke-linejoin: miter"/>
   </g>
   <g id="patch_186">
    <path d="M 767.611118 205.258438 
L 771.165985 205.258438 
L 771.165985 205.141359 
L 767.611118 205.141359 
z
" clip-path="url(#pd315351a8d)" style="stroke: #ffffff; stroke-width: 0.8; stroke-linejoin: miter"/>
   </g>
   <g id="patch_187">
    <path d="M 771.165985 205.258438 
L 774.720852 205.258438 
L 774.720852 204.985254 
L 771.165985 204.985254 
z
" clip-path="url(#pd315351a8d)" style="stroke: #ffffff; stroke-width: 0.8; stroke-linejoin: miter"/>
   </g>
   <g id="patch_188">
    <path d="M 774.720852 205.258438 
L 778.275719 205.258438 
L 778.275719 204.965741 
L 774.720852 204.965741 
z
" clip-path="url(#pd315351a8d)" style="stroke: #ffffff; stroke-width: 0.8; stroke-linejoin: miter"/>
   </g>
   <g id="patch_189">
    <path d="M 778.275719 205.258438 
L 781.830586 205.258438 
L 781.830586 204.741341 
L 778.275719 204.741341 
z
" clip-path="url(#pd315351a8d)" style="stroke: #ffffff; stroke-width: 0.8; stroke-linejoin: miter"/>
   </g>
   <g id="patch_190">
    <path d="M 781.830586 205.258438 
L 785.385453 205.258438 
L 785.385453 204.487671 
L 781.830586 204.487671 
z
" clip-path="url(#pd315351a8d)" style="stroke: #ffffff; stroke-width: 0.8; stroke-linejoin: miter"/>
   </g>
   <g id="patch_191">
    <path d="M 785.385453 205.258438 
L 788.940319 205.258438 
L 788.940319 204.516941 
L 785.385453 204.516941 
z
" clip-path="url(#pd315351a8d)" style="stroke: #ffffff; stroke-width: 0.8; stroke-linejoin: miter"/>
   </g>
   <g id="patch_192">
    <path d="M 788.940319 205.258438 
L 792.495186 205.258438 
L 792.495186 205.034037 
L 788.940319 205.034037 
z
" clip-path="url(#pd315351a8d)" style="stroke: #ffffff; stroke-width: 0.8; stroke-linejoin: miter"/>
   </g>
   <g id="patch_193">
    <path d="M 792.495186 205.258438 
L 796.050053 205.258438 
L 796.050053 204.731585 
L 792.495186 204.731585 
z
" clip-path="url(#pd315351a8d)" style="stroke: #ffffff; stroke-width: 0.8; stroke-linejoin: miter"/>
   </g>
   <g id="patch_194">
    <path d="M 796.050053 205.258438 
L 799.60492 205.258438 
L 799.60492 205.073063 
L 796.050053 205.073063 
z
" clip-path="url(#pd315351a8d)" style="stroke: #ffffff; stroke-width: 0.8; stroke-linejoin: miter"/>
   </g>
   <g id="patch_195">
    <path d="M 799.60492 205.258438 
L 803.159787 205.258438 
L 803.159787 204.614506 
L 799.60492 204.614506 
z
" clip-path="url(#pd315351a8d)" style="stroke: #ffffff; stroke-width: 0.8; stroke-linejoin: miter"/>
   </g>
   <g id="patch_196">
    <path d="M 803.159787 205.258438 
L 806.714654 205.258438 
L 806.714654 205.141359 
L 803.159787 205.141359 
z
" clip-path="url(#pd315351a8d)" style="stroke: #ffffff; stroke-width: 0.8; stroke-linejoin: miter"/>
   </g>
   <g id="patch_197">
    <path d="M 806.714654 205.258438 
L 810.26952 205.258438 
L 810.26952 205.063307 
L 806.714654 205.063307 
z
" clip-path="url(#pd315351a8d)" style="stroke: #ffffff; stroke-width: 0.8; stroke-linejoin: miter"/>
   </g>
   <g id="patch_198">
    <path d="M 810.26952 205.258438 
L 813.824387 205.258438 
L 813.824387 204.995011 
L 810.26952 204.995011 
z
" clip-path="url(#pd315351a8d)" style="stroke: #ffffff; stroke-width: 0.8; stroke-linejoin: miter"/>
   </g>
   <g id="patch_199">
    <path d="M 813.824387 205.258438 
L 817.379254 205.258438 
L 817.379254 205.024281 
L 813.824387 205.024281 
z
" clip-path="url(#pd315351a8d)" style="stroke: #ffffff; stroke-width: 0.8; stroke-linejoin: miter"/>
   </g>
   <g id="patch_200">
    <path d="M 817.379254 205.258438 
L 820.934121 205.258438 
L 820.934121 205.102333 
L 817.379254 205.102333 
z
" clip-path="url(#pd315351a8d)" style="stroke: #ffffff; stroke-width: 0.8; stroke-linejoin: miter"/>
   </g>
   <g id="patch_201">
    <path d="M 820.934121 205.258438 
L 824.488988 205.258438 
L 824.488988 205.180385 
L 820.934121 205.180385 
z
" clip-path="url(#pd315351a8d)" style="stroke: #ffffff; stroke-width: 0.8; stroke-linejoin: miter"/>
   </g>
   <g id="patch_202">
    <path d="M 824.488988 205.258438 
L 828.043855 205.258438 
L 828.043855 205.043794 
L 824.488988 205.043794 
z
" clip-path="url(#pd315351a8d)" style="stroke: #ffffff; stroke-width: 0.8; stroke-linejoin: miter"/>
   </g>
   <g id="patch_203">
    <path d="M 828.043855 205.258438 
L 831.598722 205.258438 
L 831.598722 205.219411 
L 828.043855 205.219411 
z
" clip-path="url(#pd315351a8d)" style="stroke: #ffffff; stroke-width: 0.8; stroke-linejoin: miter"/>
   </g>
   <g id="matplotlib.axis_3">
    <g id="xtick_6">
     <g id="line2d_11">
      <g>
       <use xlink:href="#m62348aa916" x="479.666903" y="205.258438" style="stroke: #000000; stroke-width: 0.8"/>
      </g>
     </g>
     <g id="text_14">
      <!-- 0.00 -->
      <g transform="translate(468.534091 220.356875) scale(0.1 -0.1)">
       <use xlink:href="#DejaVuSans-30"/>
       <use xlink:href="#DejaVuSans-2e" transform="translate(63.623047 0)"/>
       <use xlink:href="#DejaVuSans-30" transform="translate(95.410156 0)"/>
       <use xlink:href="#DejaVuSans-30" transform="translate(159.033203 0)"/>
      </g>
     </g>
    </g>
    <g id="xtick_7">
     <g id="line2d_12">
      <g>
       <use xlink:href="#m62348aa916" x="560.207734" y="205.258438" style="stroke: #000000; stroke-width: 0.8"/>
      </g>
     </g>
     <g id="text_15">
      <!-- 0.02 -->
      <g transform="translate(549.074921 220.356875) scale(0.1 -0.1)">
       <use xlink:href="#DejaVuSans-30"/>
       <use xlink:href="#DejaVuSans-2e" transform="translate(63.623047 0)"/>
       <use xlink:href="#DejaVuSans-30" transform="translate(95.410156 0)"/>
       <use xlink:href="#DejaVuSans-32" transform="translate(159.033203 0)"/>
      </g>
     </g>
    </g>
    <g id="xtick_8">
     <g id="line2d_13">
      <g>
       <use xlink:href="#m62348aa916" x="640.748564" y="205.258438" style="stroke: #000000; stroke-width: 0.8"/>
      </g>
     </g>
     <g id="text_16">
      <!-- 0.04 -->
      <g transform="translate(629.615751 220.356875) scale(0.1 -0.1)">
       <use xlink:href="#DejaVuSans-30"/>
       <use xlink:href="#DejaVuSans-2e" transform="translate(63.623047 0)"/>
       <use xlink:href="#DejaVuSans-30" transform="translate(95.410156 0)"/>
       <use xlink:href="#DejaVuSans-34" transform="translate(159.033203 0)"/>
      </g>
     </g>
    </g>
    <g id="xtick_9">
     <g id="line2d_14">
      <g>
       <use xlink:href="#m62348aa916" x="721.289394" y="205.258438" style="stroke: #000000; stroke-width: 0.8"/>
      </g>
     </g>
     <g id="text_17">
      <!-- 0.06 -->
      <g transform="translate(710.156581 220.356875) scale(0.1 -0.1)">
       <use xlink:href="#DejaVuSans-30"/>
       <use xlink:href="#DejaVuSans-2e" transform="translate(63.623047 0)"/>
       <use xlink:href="#DejaVuSans-30" transform="translate(95.410156 0)"/>
       <use xlink:href="#DejaVuSans-36" transform="translate(159.033203 0)"/>
      </g>
     </g>
    </g>
    <g id="xtick_10">
     <g id="line2d_15">
      <g>
       <use xlink:href="#m62348aa916" x="801.830224" y="205.258438" style="stroke: #000000; stroke-width: 0.8"/>
      </g>
     </g>
     <g id="text_18">
      <!-- 0.08 -->
      <g transform="translate(790.697411 220.356875) scale(0.1 -0.1)">
       <use xlink:href="#DejaVuSans-30"/>
       <use xlink:href="#DejaVuSans-2e" transform="translate(63.623047 0)"/>
       <use xlink:href="#DejaVuSans-30" transform="translate(95.410156 0)"/>
       <use xlink:href="#DejaVuSans-38" transform="translate(159.033203 0)"/>
      </g>
     </g>
    </g>
    <g id="text_19">
     <!-- Biomass Flux (Biomass_Ecoli_core) -->
     <g transform="translate(568.540625 234.035) scale(0.1 -0.1)">
      <use xlink:href="#DejaVuSans-42"/>
      <use xlink:href="#DejaVuSans-69" transform="translate(68.603516 0)"/>
      <use xlink:href="#DejaVuSans-6f" transform="translate(96.386719 0)"/>
      <use xlink:href="#DejaVuSans-6d" transform="translate(157.568359 0)"/>
      <use xlink:href="#DejaVuSans-61" transform="translate(254.980469 0)"/>
      <use xlink:href="#DejaVuSans-73" transform="translate(316.259766 0)"/>
      <use xlink:href="#DejaVuSans-73" transform="translate(368.359375 0)"/>
      <use xlink:href="#DejaVuSans-20" transform="translate(420.458984 0)"/>
      <use xlink:href="#DejaVuSans-46" transform="translate(452.246094 0)"/>
      <use xlink:href="#DejaVuSans-6c" transform="translate(509.765625 0)"/>
      <use xlink:href="#DejaVuSans-75" transform="translate(537.548828 0)"/>
      <use xlink:href="#DejaVuSans-78" transform="translate(600.927734 0)"/>
      <use xlink:href="#DejaVuSans-20" transform="translate(660.107422 0)"/>
      <use xlink:href="#DejaVuSans-28" transform="translate(691.894531 0)"/>
      <use xlink:href="#DejaVuSans-42" transform="translate(730.908203 0)"/>
      <use xlink:href="#DejaVuSans-69" transform="translate(799.511719 0)"/>
      <use xlink:href="#DejaVuSans-6f" transform="translate(827.294922 0)"/>
      <use xlink:href="#DejaVuSans-6d" transform="translate(888.476562 0)"/>
      <use xlink:href="#DejaVuSans-61" transform="translate(985.888672 0)"/>
      <use xlink:href="#DejaVuSans-73" transform="translate(1047.167969 0)"/>
      <use xlink:href="#DejaVuSans-73" transform="translate(1099.267578 0)"/>
      <use xlink:href="#DejaVuSans-5f" transform="translate(1151.367188 0)"/>
      <use xlink:href="#DejaVuSans-45" transform="translate(1201.367188 0)"/>
      <use xlink:href="#DejaVuSans-63" transform="translate(1264.550781 0)"/>
      <use xlink:href="#DejaVuSans-6f" transform="translate(1319.53125 0)"/>
      <use xlink:href="#DejaVuSans-6c" transform="translate(1380.712891 0)"/>
      <use xlink:href="#DejaVuSans-69" transform="translate(1408.496094 0)"/>
      <use xlink:href="#DejaVuSans-5f" transform="translate(1436.279297 0)"/>
      <use xlink:href="#DejaVuSans-63" transform="translate(1486.279297 0)"/>
      <use xlink:href="#DejaVuSans-6f" transform="translate(1541.259766 0)"/>
      <use xlink:href="#DejaVuSans-72" transform="translate(1602.441406 0)"/>
      <use xlink:href="#DejaVuSans-65" transform="translate(1641.304688 0)"/>
      <use xlink:href="#DejaVuSans-29" transform="translate(1702.828125 0)"/>
     </g>
    </g>
   </g>
   <g id="matplotlib.axis_4">
    <g id="ytick_6">
     <g id="line2d_16">
      <g>
       <use xlink:href="#m3fa083b206" x="462.070312" y="205.258438" style="stroke: #000000; stroke-width: 0.8"/>
      </g>
     </g>
    </g>
    <g id="ytick_7">
     <g id="line2d_17">
      <g>
       <use xlink:href="#m3fa083b206" x="462.070312" y="166.893786" style="stroke: #000000; stroke-width: 0.8"/>
      </g>
     </g>
    </g>
    <g id="ytick_8">
     <g id="line2d_18">
      <g>
       <use xlink:href="#m3fa083b206" x="462.070312" y="128.529134" style="stroke: #000000; stroke-width: 0.8"/>
      </g>
     </g>
    </g>
    <g id="ytick_9">
     <g id="line2d_19">
      <g>
       <use xlink:href="#m3fa083b206" x="462.070312" y="90.164483" style="stroke: #000000; stroke-width: 0.8"/>
      </g>
     </g>
    </g>
    <g id="ytick_10">
     <g id="line2d_20">
      <g>
       <use xlink:href="#m3fa083b206" x="462.070312" y="51.799831" style="stroke: #000000; stroke-width: 0.8"/>
      </g>
     </g>
    </g>
   </g>
   <g id="patch_204">
    <path d="M 462.070312 205.258438 
L 462.070312 20.798438 
" style="fill: none; stroke: #000000; stroke-width: 0.8; stroke-linejoin: miter; stroke-linecap: square"/>
   </g>
   <g id="patch_205">
    <path d="M 462.070312 205.258438 
L 849.195312 205.258438 
" style="fill: none; stroke: #000000; stroke-width: 0.8; stroke-linejoin: miter; stroke-linecap: square"/>
   </g>
   <g id="text_20">
    <!-- Row-Wise Scaled Data (Glc Import per Path = 1)  EFVs -->
    <g transform="translate(517.544531 14.798438) scale(0.1 -0.1)">
     <defs>
      <path id="DejaVuSans-56" d="M 1831 0 
L 50 4666 
L 709 4666 
L 2188 738 
L 3669 4666 
L 4325 4666 
L 2547 0 
L 1831 0 
z
" transform="scale(0.015625)"/>
     </defs>
     <use xlink:href="#DejaVuSans-52"/>
     <use xlink:href="#DejaVuSans-6f" transform="translate(64.982422 0)"/>
     <use xlink:href="#DejaVuSans-77" transform="translate(126.164062 0)"/>
     <use xlink:href="#DejaVuSans-2d" transform="translate(207.951172 0)"/>
     <use xlink:href="#DejaVuSans-57" transform="translate(240.035156 0)"/>
     <use xlink:href="#DejaVuSans-69" transform="translate(336.662109 0)"/>
     <use xlink:href="#DejaVuSans-73" transform="translate(364.445312 0)"/>
     <use xlink:href="#DejaVuSans-65" transform="translate(416.544922 0)"/>
     <use xlink:href="#DejaVuSans-20" transform="translate(478.068359 0)"/>
     <use xlink:href="#DejaVuSans-53" transform="translate(509.855469 0)"/>
     <use xlink:href="#DejaVuSans-63" transform="translate(573.332031 0)"/>
     <use xlink:href="#DejaVuSans-61" transform="translate(628.3125 0)"/>
     <use xlink:href="#DejaVuSans-6c" transform="translate(689.591797 0)"/>
     <use xlink:href="#DejaVuSans-65" transform="translate(717.375 0)"/>
     <use xlink:href="#DejaVuSans-64" transform="translate(778.898438 0)"/>
     <use xlink:href="#DejaVuSans-20" transform="translate(842.375 0)"/>
     <use xlink:href="#DejaVuSans-44" transform="translate(874.162109 0)"/>
     <use xlink:href="#DejaVuSans-61" transform="translate(951.164062 0)"/>
     <use xlink:href="#DejaVuSans-74" transform="translate(1012.443359 0)"/>
     <use xlink:href="#DejaVuSans-61" transform="translate(1051.652344 0)"/>
     <use xlink:href="#DejaVuSans-20" transform="translate(1112.931641 0)"/>
     <use xlink:href="#DejaVuSans-28" transform="translate(1144.71875 0)"/>
     <use xlink:href="#DejaVuSans-47" transform="translate(1183.732422 0)"/>
     <use xlink:href="#DejaVuSans-6c" transform="translate(1261.222656 0)"/>
     <use xlink:href="#DejaVuSans-63" transform="translate(1289.005859 0)"/>
     <use xlink:href="#DejaVuSans-20" transform="translate(1343.986328 0)"/>
     <use xlink:href="#DejaVuSans-49" transform="translate(1375.773438 0)"/>
     <use xlink:href="#DejaVuSans-6d" transform="translate(1405.265625 0)"/>
     <use xlink:href="#DejaVuSans-70" transform="translate(1502.677734 0)"/>
     <use xlink:href="#DejaVuSans-6f" transform="translate(1566.154297 0)"/>
     <use xlink:href="#DejaVuSans-72" transform="translate(1627.335938 0)"/>
     <use xlink:href="#DejaVuSans-74" transform="translate(1668.449219 0)"/>
     <use xlink:href="#DejaVuSans-20" transform="translate(1707.658203 0)"/>
     <use xlink:href="#DejaVuSans-70" transform="translate(1739.445312 0)"/>
     <use xlink:href="#DejaVuSans-65" transform="translate(1802.921875 0)"/>
     <use xlink:href="#DejaVuSans-72" transform="translate(1864.445312 0)"/>
     <use xlink:href="#DejaVuSans-20" transform="translate(1905.558594 0)"/>
     <use xlink:href="#DejaVuSans-50" transform="translate(1937.345703 0)"/>
     <use xlink:href="#DejaVuSans-61" transform="translate(1993.148438 0)"/>
     <use xlink:href="#DejaVuSans-74" transform="translate(2054.427734 0)"/>
     <use xlink:href="#DejaVuSans-68" transform="translate(2093.636719 0)"/>
     <use xlink:href="#DejaVuSans-20" transform="translate(2157.015625 0)"/>
     <use xlink:href="#DejaVuSans-3d" transform="translate(2188.802734 0)"/>
     <use xlink:href="#DejaVuSans-20" transform="translate(2272.591797 0)"/>
     <use xlink:href="#DejaVuSans-31" transform="translate(2304.378906 0)"/>
     <use xlink:href="#DejaVuSans-29" transform="translate(2368.001953 0)"/>
     <use xlink:href="#DejaVuSans-20" transform="translate(2407.015625 0)"/>
     <use xlink:href="#DejaVuSans-2013" transform="translate(2438.802734 0)"/>
     <use xlink:href="#DejaVuSans-20" transform="translate(2488.802734 0)"/>
     <use xlink:href="#DejaVuSans-45" transform="translate(2520.589844 0)"/>
     <use xlink:href="#DejaVuSans-46" transform="translate(2583.773438 0)"/>
     <use xlink:href="#DejaVuSans-56" transform="translate(2641.292969 0)"/>
     <use xlink:href="#DejaVuSans-73" transform="translate(2709.701172 0)"/>
    </g>
   </g>
  </g>
 </g>
 <defs>
  <clipPath id="p0051e95ef3">
   <rect x="60.145313" y="20.798438" width="387.125" height="184.46"/>
  </clipPath>
  <clipPath id="pd315351a8d">
   <rect x="462.070312" y="20.798438" width="387.125" height="184.46"/>
  </clipPath>
 </defs>
</svg>
