<?xml version="1.0" encoding="utf-8" standalone="no"?>
<!DOCTYPE svg PUBLIC "-//W3C//DTD SVG 1.1//EN"
  "http://www.w3.org/Graphics/SVG/1.1/DTD/svg11.dtd">
<svg xmlns:xlink="http://www.w3.org/1999/xlink" width="269.966516pt" height="276.394619pt" viewBox="0 0 269.966516 276.394619" xmlns="http://www.w3.org/2000/svg" version="1.1">
 <metadata>
  <rdf:RDF xmlns:dc="http://purl.org/dc/elements/1.1/" xmlns:cc="http://creativecommons.org/ns#" xmlns:rdf="http://www.w3.org/1999/02/22-rdf-syntax-ns#">
   <cc:Work>
    <dc:type rdf:resource="http://purl.org/dc/dcmitype/StillImage"/>
    <dc:date>2025-07-16T14:15:54.355620</dc:date>
    <dc:format>image/svg+xml</dc:format>
    <dc:creator>
     <cc:Agent>
      <dc:title>Matplotlib v3.10.1, https://matplotlib.org/</dc:title>
     </cc:Agent>
    </dc:creator>
   </cc:Work>
  </rdf:RDF>
 </metadata>
 <defs>
  <style type="text/css">*{stroke-linejoin: round; stroke-linecap: butt}</style>
 </defs>
 <g id="figure_1">
  <g id="patch_1">
   <path d="M 0 276.394619 
L 269.966516 276.394619 
L 269.966516 0 
L 0 0 
z
" style="fill: #ffffff"/>
  </g>
  <g id="axes_1">
   <g id="patch_2">
    <path d="M 95.038581 238.502037 
C 75.80236 230.993009 59.273758 217.848995 47.625643 200.797921 
C 35.977529 183.746847 29.743719 163.570142 29.743719 142.920259 
C 29.743719 122.270375 35.977529 102.09367 47.625643 85.042596 
C 59.273758 67.991522 75.80236 54.847508 95.038581 47.33848 
C 74.851629 53.890509 57.250091 66.672349 44.772424 83.840632 
C 32.294757 101.008915 25.571087 121.696637 25.571087 142.920259 
C 25.571087 164.14388 32.294757 184.831602 44.772424 201.999885 
C 57.250091 219.168168 74.851629 231.950008 95.038581 238.502037 
" clip-path="url(#p907e4318eb)" style="fill: #35193e; opacity: 0.4; stroke: #35193e; stroke-linejoin: miter"/>
   </g>
   <g id="patch_3">
    <path d="M 95.038581 47.33848 
C 110.119072 42.443844 126.146038 41.18699 141.805171 43.670989 
C 157.464303 46.154988 172.315524 52.31003 185.140944 61.631365 
C 197.966364 70.9527 208.405542 83.178365 215.602403 97.305781 
C 222.799263 111.433196 226.551548 127.065332 226.551548 142.920259 
C 226.551548 158.775185 222.799263 174.407321 215.602403 188.534736 
C 208.405542 202.662152 197.966364 214.887817 185.140944 224.209152 
C 172.315524 233.530487 157.464303 239.685529 141.805171 242.169528 
C 126.146038 244.653527 110.119072 243.396673 95.038581 238.502037 
C 110.590243 244.572764 127.391065 246.757246 143.978058 244.865261 
C 160.56505 242.973277 176.442364 237.061384 190.227428 227.644381 
C 204.012492 218.227379 215.293218 205.586777 223.087296 190.823299 
C 230.881375 176.059822 234.955812 159.614806 234.955812 142.920259 
C 234.955812 126.225711 230.881375 109.780695 223.087296 95.017218 
C 215.293218 80.25374 204.012492 67.613138 190.227428 58.196136 
C 176.442364 48.779133 160.56505 42.86724 143.978058 40.975256 
C 127.391065 39.083271 110.590243 41.267753 95.038581 47.33848 
" clip-path="url(#p907e4318eb)" style="fill: #a8325c; opacity: 0.4; stroke: #a8325c; stroke-linejoin: miter"/>
   </g>
   <g id="patch_4">
    <path d="M 95.038581 238.502037 
C 110.119072 243.396673 126.146038 244.653527 141.805171 242.169528 
C 157.464303 239.685529 172.315524 233.530487 185.140944 224.209152 
C 197.966364 214.887817 208.405542 202.662152 215.602403 188.534736 
C 222.799263 174.407321 226.551548 158.775185 226.551548 142.920259 
C 226.551548 127.065332 222.799263 111.433196 215.602403 97.305781 
C 208.405542 83.178365 197.966364 70.9527 185.140944 61.631365 
C 172.315524 52.31003 157.464303 46.154988 141.805171 43.670989 
C 126.146038 41.18699 110.119072 42.443844 95.038581 47.33848 
C 75.80236 54.847508 59.273758 67.991522 47.625643 85.042596 
C 35.977529 102.09367 29.743719 122.270375 29.743719 142.920259 
C 29.743719 163.570142 35.977529 183.746847 47.625643 200.797921 
C 59.273758 217.848995 75.80236 230.993009 95.038581 238.502037 
" clip-path="url(#p907e4318eb)" style="fill: #f2b134; opacity: 0.4; stroke: #f2b134; stroke-linejoin: miter"/>
   </g>
   <g id="text_1">
    <!-- 1 -->
    <g style="fill: #262626" transform="translate(24.320841 146.022446) scale(0.12 -0.12)">
     <defs>
      <path id="ArialMT-31" d="M 2384 0 
L 1822 0 
L 1822 3584 
Q 1619 3391 1289 3197 
Q 959 3003 697 2906 
L 697 3450 
Q 1169 3672 1522 3987 
Q 1875 4303 2022 4600 
L 2384 4600 
L 2384 0 
z
" transform="scale(0.015625)"/>
     </defs>
     <use xlink:href="#ArialMT-31"/>
    </g>
   </g>
   <g id="text_2">
    <!-- 3 -->
    <g style="fill: #262626" transform="translate(227.417118 146.022446) scale(0.12 -0.12)">
     <defs>
      <path id="ArialMT-33" d="M 269 1209 
L 831 1284 
Q 928 806 1161 595 
Q 1394 384 1728 384 
Q 2125 384 2398 659 
Q 2672 934 2672 1341 
Q 2672 1728 2419 1979 
Q 2166 2231 1775 2231 
Q 1616 2231 1378 2169 
L 1441 2663 
Q 1497 2656 1531 2656 
Q 1891 2656 2178 2843 
Q 2466 3031 2466 3422 
Q 2466 3731 2256 3934 
Q 2047 4138 1716 4138 
Q 1388 4138 1169 3931 
Q 950 3725 888 3313 
L 325 3413 
Q 428 3978 793 4289 
Q 1159 4600 1703 4600 
Q 2078 4600 2393 4439 
Q 2709 4278 2876 4000 
Q 3044 3722 3044 3409 
Q 3044 3113 2884 2869 
Q 2725 2625 2413 2481 
Q 2819 2388 3044 2092 
Q 3269 1797 3269 1353 
Q 3269 753 2831 336 
Q 2394 -81 1725 -81 
Q 1122 -81 723 278 
Q 325 638 269 1209 
z
" transform="scale(0.015625)"/>
     </defs>
     <use xlink:href="#ArialMT-33"/>
    </g>
   </g>
   <g id="text_3">
    <!-- 46 -->
    <g style="fill: #262626" transform="translate(121.474509 146.022446) scale(0.12 -0.12)">
     <defs>
      <path id="ArialMT-34" d="M 2069 0 
L 2069 1097 
L 81 1097 
L 81 1613 
L 2172 4581 
L 2631 4581 
L 2631 1613 
L 3250 1613 
L 3250 1097 
L 2631 1097 
L 2631 0 
L 2069 0 
z
M 2069 1613 
L 2069 3678 
L 634 1613 
L 2069 1613 
z
" transform="scale(0.015625)"/>
      <path id="ArialMT-36" d="M 3184 3459 
L 2625 3416 
Q 2550 3747 2413 3897 
Q 2184 4138 1850 4138 
Q 1581 4138 1378 3988 
Q 1113 3794 959 3422 
Q 806 3050 800 2363 
Q 1003 2672 1297 2822 
Q 1591 2972 1913 2972 
Q 2475 2972 2870 2558 
Q 3266 2144 3266 1488 
Q 3266 1056 3080 686 
Q 2894 316 2569 119 
Q 2244 -78 1831 -78 
Q 1128 -78 684 439 
Q 241 956 241 2144 
Q 241 3472 731 4075 
Q 1159 4600 1884 4600 
Q 2425 4600 2770 4297 
Q 3116 3994 3184 3459 
z
M 888 1484 
Q 888 1194 1011 928 
Q 1134 663 1356 523 
Q 1578 384 1822 384 
Q 2178 384 2434 671 
Q 2691 959 2691 1453 
Q 2691 1928 2437 2201 
Q 2184 2475 1800 2475 
Q 1419 2475 1153 2201 
Q 888 1928 888 1484 
z
" transform="scale(0.015625)"/>
     </defs>
     <use xlink:href="#ArialMT-34"/>
     <use xlink:href="#ArialMT-36" transform="translate(55.615234 0)"/>
    </g>
   </g>
   <g id="text_4">
    <!-- OFV (Fructose) -->
    <g style="fill: #262626" transform="translate(26.856568 264.057053) scale(0.144 -0.144)">
     <defs>
      <path id="ArialMT-4f" d="M 309 2231 
Q 309 3372 921 4017 
Q 1534 4663 2503 4663 
Q 3138 4663 3647 4359 
Q 4156 4056 4423 3514 
Q 4691 2972 4691 2284 
Q 4691 1588 4409 1038 
Q 4128 488 3612 205 
Q 3097 -78 2500 -78 
Q 1853 -78 1343 234 
Q 834 547 571 1087 
Q 309 1628 309 2231 
z
M 934 2222 
Q 934 1394 1379 917 
Q 1825 441 2497 441 
Q 3181 441 3623 922 
Q 4066 1403 4066 2288 
Q 4066 2847 3877 3264 
Q 3688 3681 3323 3911 
Q 2959 4141 2506 4141 
Q 1863 4141 1398 3698 
Q 934 3256 934 2222 
z
" transform="scale(0.015625)"/>
      <path id="ArialMT-46" d="M 525 0 
L 525 4581 
L 3616 4581 
L 3616 4041 
L 1131 4041 
L 1131 2622 
L 3281 2622 
L 3281 2081 
L 1131 2081 
L 1131 0 
L 525 0 
z
" transform="scale(0.015625)"/>
      <path id="ArialMT-56" d="M 1803 0 
L 28 4581 
L 684 4581 
L 1875 1253 
Q 2019 853 2116 503 
Q 2222 878 2363 1253 
L 3600 4581 
L 4219 4581 
L 2425 0 
L 1803 0 
z
" transform="scale(0.015625)"/>
      <path id="ArialMT-20" transform="scale(0.015625)"/>
      <path id="ArialMT-28" d="M 1497 -1347 
Q 1031 -759 709 28 
Q 388 816 388 1659 
Q 388 2403 628 3084 
Q 909 3875 1497 4659 
L 1900 4659 
Q 1522 4009 1400 3731 
Q 1209 3300 1100 2831 
Q 966 2247 966 1656 
Q 966 153 1900 -1347 
L 1497 -1347 
z
" transform="scale(0.015625)"/>
      <path id="ArialMT-72" d="M 416 0 
L 416 3319 
L 922 3319 
L 922 2816 
Q 1116 3169 1280 3281 
Q 1444 3394 1641 3394 
Q 1925 3394 2219 3213 
L 2025 2691 
Q 1819 2813 1613 2813 
Q 1428 2813 1281 2702 
Q 1134 2591 1072 2394 
Q 978 2094 978 1738 
L 978 0 
L 416 0 
z
" transform="scale(0.015625)"/>
      <path id="ArialMT-75" d="M 2597 0 
L 2597 488 
Q 2209 -75 1544 -75 
Q 1250 -75 995 37 
Q 741 150 617 320 
Q 494 491 444 738 
Q 409 903 409 1263 
L 409 3319 
L 972 3319 
L 972 1478 
Q 972 1038 1006 884 
Q 1059 663 1231 536 
Q 1403 409 1656 409 
Q 1909 409 2131 539 
Q 2353 669 2445 892 
Q 2538 1116 2538 1541 
L 2538 3319 
L 3100 3319 
L 3100 0 
L 2597 0 
z
" transform="scale(0.015625)"/>
      <path id="ArialMT-63" d="M 2588 1216 
L 3141 1144 
Q 3050 572 2676 248 
Q 2303 -75 1759 -75 
Q 1078 -75 664 370 
Q 250 816 250 1647 
Q 250 2184 428 2587 
Q 606 2991 970 3192 
Q 1334 3394 1763 3394 
Q 2303 3394 2647 3120 
Q 2991 2847 3088 2344 
L 2541 2259 
Q 2463 2594 2264 2762 
Q 2066 2931 1784 2931 
Q 1359 2931 1093 2626 
Q 828 2322 828 1663 
Q 828 994 1084 691 
Q 1341 388 1753 388 
Q 2084 388 2306 591 
Q 2528 794 2588 1216 
z
" transform="scale(0.015625)"/>
      <path id="ArialMT-74" d="M 1650 503 
L 1731 6 
Q 1494 -44 1306 -44 
Q 1000 -44 831 53 
Q 663 150 594 308 
Q 525 466 525 972 
L 525 2881 
L 113 2881 
L 113 3319 
L 525 3319 
L 525 4141 
L 1084 4478 
L 1084 3319 
L 1650 3319 
L 1650 2881 
L 1084 2881 
L 1084 941 
Q 1084 700 1114 631 
Q 1144 563 1211 522 
Q 1278 481 1403 481 
Q 1497 481 1650 503 
z
" transform="scale(0.015625)"/>
      <path id="ArialMT-6f" d="M 213 1659 
Q 213 2581 725 3025 
Q 1153 3394 1769 3394 
Q 2453 3394 2887 2945 
Q 3322 2497 3322 1706 
Q 3322 1066 3130 698 
Q 2938 331 2570 128 
Q 2203 -75 1769 -75 
Q 1072 -75 642 372 
Q 213 819 213 1659 
z
M 791 1659 
Q 791 1022 1069 705 
Q 1347 388 1769 388 
Q 2188 388 2466 706 
Q 2744 1025 2744 1678 
Q 2744 2294 2464 2611 
Q 2184 2928 1769 2928 
Q 1347 2928 1069 2612 
Q 791 2297 791 1659 
z
" transform="scale(0.015625)"/>
      <path id="ArialMT-73" d="M 197 991 
L 753 1078 
Q 800 744 1014 566 
Q 1228 388 1613 388 
Q 2000 388 2187 545 
Q 2375 703 2375 916 
Q 2375 1106 2209 1216 
Q 2094 1291 1634 1406 
Q 1016 1563 777 1677 
Q 538 1791 414 1992 
Q 291 2194 291 2438 
Q 291 2659 392 2848 
Q 494 3038 669 3163 
Q 800 3259 1026 3326 
Q 1253 3394 1513 3394 
Q 1903 3394 2198 3281 
Q 2494 3169 2634 2976 
Q 2775 2784 2828 2463 
L 2278 2388 
Q 2241 2644 2061 2787 
Q 1881 2931 1553 2931 
Q 1166 2931 1000 2803 
Q 834 2675 834 2503 
Q 834 2394 903 2306 
Q 972 2216 1119 2156 
Q 1203 2125 1616 2013 
Q 2213 1853 2448 1751 
Q 2684 1650 2818 1456 
Q 2953 1263 2953 975 
Q 2953 694 2789 445 
Q 2625 197 2315 61 
Q 2006 -75 1616 -75 
Q 969 -75 630 194 
Q 291 463 197 991 
z
" transform="scale(0.015625)"/>
      <path id="ArialMT-65" d="M 2694 1069 
L 3275 997 
Q 3138 488 2766 206 
Q 2394 -75 1816 -75 
Q 1088 -75 661 373 
Q 234 822 234 1631 
Q 234 2469 665 2931 
Q 1097 3394 1784 3394 
Q 2450 3394 2872 2941 
Q 3294 2488 3294 1666 
Q 3294 1616 3291 1516 
L 816 1516 
Q 847 969 1125 678 
Q 1403 388 1819 388 
Q 2128 388 2347 550 
Q 2566 713 2694 1069 
z
M 847 1978 
L 2700 1978 
Q 2663 2397 2488 2606 
Q 2219 2931 1791 2931 
Q 1403 2931 1139 2672 
Q 875 2413 847 1978 
z
" transform="scale(0.015625)"/>
      <path id="ArialMT-29" d="M 791 -1347 
L 388 -1347 
Q 1322 153 1322 1656 
Q 1322 2244 1188 2822 
Q 1081 3291 891 3722 
Q 769 4003 388 4659 
L 791 4659 
Q 1378 3875 1659 3084 
Q 1900 2403 1900 1659 
Q 1900 816 1576 28 
Q 1253 -759 791 -1347 
z
" transform="scale(0.015625)"/>
     </defs>
     <use xlink:href="#ArialMT-4f"/>
     <use xlink:href="#ArialMT-46" transform="translate(77.783203 0)"/>
     <use xlink:href="#ArialMT-56" transform="translate(138.867188 0)"/>
     <use xlink:href="#ArialMT-20" transform="translate(205.566406 0)"/>
     <use xlink:href="#ArialMT-28" transform="translate(233.349609 0)"/>
     <use xlink:href="#ArialMT-46" transform="translate(266.650391 0)"/>
     <use xlink:href="#ArialMT-72" transform="translate(327.734375 0)"/>
     <use xlink:href="#ArialMT-75" transform="translate(361.035156 0)"/>
     <use xlink:href="#ArialMT-63" transform="translate(416.650391 0)"/>
     <use xlink:href="#ArialMT-74" transform="translate(466.650391 0)"/>
     <use xlink:href="#ArialMT-6f" transform="translate(494.433594 0)"/>
     <use xlink:href="#ArialMT-73" transform="translate(550.048828 0)"/>
     <use xlink:href="#ArialMT-65" transform="translate(600.048828 0)"/>
     <use xlink:href="#ArialMT-29" transform="translate(655.664062 0)"/>
    </g>
   </g>
   <g id="text_5">
    <!-- EFV (Max. biomass) -->
    <g style="fill: #262626" transform="translate(132.349766 266.163869) scale(0.144 -0.144)">
     <defs>
      <path id="ArialMT-45" d="M 506 0 
L 506 4581 
L 3819 4581 
L 3819 4041 
L 1113 4041 
L 1113 2638 
L 3647 2638 
L 3647 2100 
L 1113 2100 
L 1113 541 
L 3925 541 
L 3925 0 
L 506 0 
z
" transform="scale(0.015625)"/>
      <path id="ArialMT-4d" d="M 475 0 
L 475 4581 
L 1388 4581 
L 2472 1338 
Q 2622 884 2691 659 
Q 2769 909 2934 1394 
L 4031 4581 
L 4847 4581 
L 4847 0 
L 4263 0 
L 4263 3834 
L 2931 0 
L 2384 0 
L 1059 3900 
L 1059 0 
L 475 0 
z
" transform="scale(0.015625)"/>
      <path id="ArialMT-61" d="M 2588 409 
Q 2275 144 1986 34 
Q 1697 -75 1366 -75 
Q 819 -75 525 192 
Q 231 459 231 875 
Q 231 1119 342 1320 
Q 453 1522 633 1644 
Q 813 1766 1038 1828 
Q 1203 1872 1538 1913 
Q 2219 1994 2541 2106 
Q 2544 2222 2544 2253 
Q 2544 2597 2384 2738 
Q 2169 2928 1744 2928 
Q 1347 2928 1158 2789 
Q 969 2650 878 2297 
L 328 2372 
Q 403 2725 575 2942 
Q 747 3159 1072 3276 
Q 1397 3394 1825 3394 
Q 2250 3394 2515 3294 
Q 2781 3194 2906 3042 
Q 3031 2891 3081 2659 
Q 3109 2516 3109 2141 
L 3109 1391 
Q 3109 606 3145 398 
Q 3181 191 3288 0 
L 2700 0 
Q 2613 175 2588 409 
z
M 2541 1666 
Q 2234 1541 1622 1453 
Q 1275 1403 1131 1340 
Q 988 1278 909 1158 
Q 831 1038 831 891 
Q 831 666 1001 516 
Q 1172 366 1500 366 
Q 1825 366 2078 508 
Q 2331 650 2450 897 
Q 2541 1088 2541 1459 
L 2541 1666 
z
" transform="scale(0.015625)"/>
      <path id="ArialMT-78" d="M 47 0 
L 1259 1725 
L 138 3319 
L 841 3319 
L 1350 2541 
Q 1494 2319 1581 2169 
Q 1719 2375 1834 2534 
L 2394 3319 
L 3066 3319 
L 1919 1756 
L 3153 0 
L 2463 0 
L 1781 1031 
L 1600 1309 
L 728 0 
L 47 0 
z
" transform="scale(0.015625)"/>
      <path id="ArialMT-2e" d="M 581 0 
L 581 641 
L 1222 641 
L 1222 0 
L 581 0 
z
" transform="scale(0.015625)"/>
      <path id="ArialMT-62" d="M 941 0 
L 419 0 
L 419 4581 
L 981 4581 
L 981 2947 
Q 1338 3394 1891 3394 
Q 2197 3394 2470 3270 
Q 2744 3147 2920 2923 
Q 3097 2700 3197 2384 
Q 3297 2069 3297 1709 
Q 3297 856 2875 390 
Q 2453 -75 1863 -75 
Q 1275 -75 941 416 
L 941 0 
z
M 934 1684 
Q 934 1088 1097 822 
Q 1363 388 1816 388 
Q 2184 388 2453 708 
Q 2722 1028 2722 1663 
Q 2722 2313 2464 2622 
Q 2206 2931 1841 2931 
Q 1472 2931 1203 2611 
Q 934 2291 934 1684 
z
" transform="scale(0.015625)"/>
      <path id="ArialMT-69" d="M 425 3934 
L 425 4581 
L 988 4581 
L 988 3934 
L 425 3934 
z
M 425 0 
L 425 3319 
L 988 3319 
L 988 0 
L 425 0 
z
" transform="scale(0.015625)"/>
      <path id="ArialMT-6d" d="M 422 0 
L 422 3319 
L 925 3319 
L 925 2853 
Q 1081 3097 1340 3245 
Q 1600 3394 1931 3394 
Q 2300 3394 2536 3241 
Q 2772 3088 2869 2813 
Q 3263 3394 3894 3394 
Q 4388 3394 4653 3120 
Q 4919 2847 4919 2278 
L 4919 0 
L 4359 0 
L 4359 2091 
Q 4359 2428 4304 2576 
Q 4250 2725 4106 2815 
Q 3963 2906 3769 2906 
Q 3419 2906 3187 2673 
Q 2956 2441 2956 1928 
L 2956 0 
L 2394 0 
L 2394 2156 
Q 2394 2531 2256 2718 
Q 2119 2906 1806 2906 
Q 1569 2906 1367 2781 
Q 1166 2656 1075 2415 
Q 984 2175 984 1722 
L 984 0 
L 422 0 
z
" transform="scale(0.015625)"/>
     </defs>
     <use xlink:href="#ArialMT-45"/>
     <use xlink:href="#ArialMT-46" transform="translate(66.699219 0)"/>
     <use xlink:href="#ArialMT-56" transform="translate(127.783203 0)"/>
     <use xlink:href="#ArialMT-20" transform="translate(194.482422 0)"/>
     <use xlink:href="#ArialMT-28" transform="translate(222.265625 0)"/>
     <use xlink:href="#ArialMT-4d" transform="translate(255.566406 0)"/>
     <use xlink:href="#ArialMT-61" transform="translate(338.867188 0)"/>
     <use xlink:href="#ArialMT-78" transform="translate(394.482422 0)"/>
     <use xlink:href="#ArialMT-2e" transform="translate(444.482422 0)"/>
     <use xlink:href="#ArialMT-20" transform="translate(472.265625 0)"/>
     <use xlink:href="#ArialMT-62" transform="translate(500.048828 0)"/>
     <use xlink:href="#ArialMT-69" transform="translate(555.664062 0)"/>
     <use xlink:href="#ArialMT-6f" transform="translate(577.880859 0)"/>
     <use xlink:href="#ArialMT-6d" transform="translate(633.496094 0)"/>
     <use xlink:href="#ArialMT-61" transform="translate(716.796875 0)"/>
     <use xlink:href="#ArialMT-73" transform="translate(772.412109 0)"/>
     <use xlink:href="#ArialMT-73" transform="translate(822.412109 0)"/>
     <use xlink:href="#ArialMT-29" transform="translate(872.412109 0)"/>
    </g>
   </g>
   <g id="text_6">
    <!-- OFV (Fructose) vs EFV (Max. biomass) -->
    <g style="fill: #262626" transform="translate(25.254075 15.943125) scale(0.12 -0.12)">
     <defs>
      <path id="ArialMT-76" d="M 1344 0 
L 81 3319 
L 675 3319 
L 1388 1331 
Q 1503 1009 1600 663 
Q 1675 925 1809 1294 
L 2547 3319 
L 3125 3319 
L 1869 0 
L 1344 0 
z
" transform="scale(0.015625)"/>
     </defs>
     <use xlink:href="#ArialMT-4f"/>
     <use xlink:href="#ArialMT-46" transform="translate(77.783203 0)"/>
     <use xlink:href="#ArialMT-56" transform="translate(138.867188 0)"/>
     <use xlink:href="#ArialMT-20" transform="translate(205.566406 0)"/>
     <use xlink:href="#ArialMT-28" transform="translate(233.349609 0)"/>
     <use xlink:href="#ArialMT-46" transform="translate(266.650391 0)"/>
     <use xlink:href="#ArialMT-72" transform="translate(327.734375 0)"/>
     <use xlink:href="#ArialMT-75" transform="translate(361.035156 0)"/>
     <use xlink:href="#ArialMT-63" transform="translate(416.650391 0)"/>
     <use xlink:href="#ArialMT-74" transform="translate(466.650391 0)"/>
     <use xlink:href="#ArialMT-6f" transform="translate(494.433594 0)"/>
     <use xlink:href="#ArialMT-73" transform="translate(550.048828 0)"/>
     <use xlink:href="#ArialMT-65" transform="translate(600.048828 0)"/>
     <use xlink:href="#ArialMT-29" transform="translate(655.664062 0)"/>
     <use xlink:href="#ArialMT-20" transform="translate(688.964844 0)"/>
     <use xlink:href="#ArialMT-76" transform="translate(716.748047 0)"/>
     <use xlink:href="#ArialMT-73" transform="translate(766.748047 0)"/>
     <use xlink:href="#ArialMT-20" transform="translate(816.748047 0)"/>
     <use xlink:href="#ArialMT-45" transform="translate(844.53125 0)"/>
     <use xlink:href="#ArialMT-46" transform="translate(911.230469 0)"/>
     <use xlink:href="#ArialMT-56" transform="translate(972.314453 0)"/>
     <use xlink:href="#ArialMT-20" transform="translate(1039.013672 0)"/>
     <use xlink:href="#ArialMT-28" transform="translate(1066.796875 0)"/>
     <use xlink:href="#ArialMT-4d" transform="translate(1100.097656 0)"/>
     <use xlink:href="#ArialMT-61" transform="translate(1183.398438 0)"/>
     <use xlink:href="#ArialMT-78" transform="translate(1239.013672 0)"/>
     <use xlink:href="#ArialMT-2e" transform="translate(1289.013672 0)"/>
     <use xlink:href="#ArialMT-20" transform="translate(1316.796875 0)"/>
     <use xlink:href="#ArialMT-62" transform="translate(1344.580078 0)"/>
     <use xlink:href="#ArialMT-69" transform="translate(1400.195312 0)"/>
     <use xlink:href="#ArialMT-6f" transform="translate(1422.412109 0)"/>
     <use xlink:href="#ArialMT-6d" transform="translate(1478.027344 0)"/>
     <use xlink:href="#ArialMT-61" transform="translate(1561.328125 0)"/>
     <use xlink:href="#ArialMT-73" transform="translate(1616.943359 0)"/>
     <use xlink:href="#ArialMT-73" transform="translate(1666.943359 0)"/>
     <use xlink:href="#ArialMT-29" transform="translate(1716.943359 0)"/>
    </g>
   </g>
  </g>
 </g>
 <defs>
  <clipPath id="p907e4318eb">
   <rect x="7.2" y="21.943125" width="246.126899" height="241.954267"/>
  </clipPath>
 </defs>
</svg>
