<?xml version="1.0" encoding="utf-8" standalone="no"?>
<!DOCTYPE svg PUBLIC "-//W3C//DTD SVG 1.1//EN"
  "http://www.w3.org/Graphics/SVG/1.1/DTD/svg11.dtd">
<svg xmlns:xlink="http://www.w3.org/1999/xlink" width="265.761227pt" height="276.468637pt" viewBox="0 0 265.761227 276.468637" xmlns="http://www.w3.org/2000/svg" version="1.1">
 <metadata>
  <rdf:RDF xmlns:dc="http://purl.org/dc/elements/1.1/" xmlns:cc="http://creativecommons.org/ns#" xmlns:rdf="http://www.w3.org/1999/02/22-rdf-syntax-ns#">
   <cc:Work>
    <dc:type rdf:resource="http://purl.org/dc/dcmitype/StillImage"/>
    <dc:date>2025-07-16T14:15:54.467250</dc:date>
    <dc:format>image/svg+xml</dc:format>
    <dc:creator>
     <cc:Agent>
      <dc:title>Matplotlib v3.10.1, https://matplotlib.org/</dc:title>
     </cc:Agent>
    </dc:creator>
   </cc:Work>
  </rdf:RDF>
 </metadata>
 <defs>
  <style type="text/css">*{stroke-linejoin: round; stroke-linecap: butt}</style>
 </defs>
 <g id="figure_1">
  <g id="patch_1">
   <path d="M 0 276.468637 
L 265.761227 276.468637 
L 265.761227 0 
L 0 0 
z
" style="fill: #ffffff"/>
  </g>
  <g id="axes_1">
   <g id="patch_2">
    <path d="M 26.282067 156.112596 
C 25.711151 151.72129 25.424796 147.297658 25.424796 142.869395 
C 25.424796 138.441133 25.711151 134.017501 26.282067 129.626195 
C 25.699052 134.016511 25.406589 138.440538 25.406589 142.869395 
C 25.406589 147.298253 25.699052 151.72228 26.282067 156.112596 
" clip-path="url(#pd1eb410768)" style="fill: #35193e; opacity: 0.4; stroke: #35193e; stroke-linejoin: miter"/>
   </g>
   <g id="patch_3">
    <path d="M 26.282067 129.626195 
C 27.947629 117.083922 31.964449 104.9677 38.121383 93.914425 
C 44.278316 82.86115 52.465558 73.06795 62.252741 65.04961 
C 72.039924 57.031271 83.2525 50.930793 95.301074 47.068852 
C 107.349648 43.206912 120.019341 41.652383 132.644165 42.486982 
C 145.268988 43.32158 157.623786 46.530421 169.059121 51.944829 
C 180.494457 57.359238 190.806389 64.882652 199.452864 74.119598 
C 208.099339 83.356545 214.926153 94.14229 219.574452 105.909875 
C 224.22275 117.677459 226.609633 130.217015 226.609633 142.869395 
C 226.609633 155.521775 224.22275 168.061332 219.574452 179.828916 
C 214.926153 191.596501 208.099339 202.382246 199.452864 211.619193 
C 190.806389 220.856139 180.494457 228.379553 169.059121 233.793962 
C 157.623786 239.20837 145.268988 242.417211 132.644165 243.251809 
C 120.019341 244.086408 107.349648 242.531879 95.301074 238.669939 
C 83.2525 234.807998 72.039924 228.70752 62.252741 220.689181 
C 52.465558 212.670841 44.278316 202.877641 38.121383 191.824366 
C 31.964449 180.771091 27.947629 168.654869 26.282067 156.112596 
C 27.949153 168.935276 32.022569 181.328621 38.287809 192.63999 
C 44.553049 203.95136 52.898172 213.978655 62.883719 222.193833 
C 72.869267 230.409011 84.316828 236.665293 96.623569 240.633219 
C 108.93031 244.601146 121.876347 246.209822 134.779936 245.374535 
C 147.683525 244.539247 160.314118 241.274921 172.006583 235.753455 
C 183.699048 230.23199 194.244475 222.552038 203.087539 213.118028 
C 211.930603 203.684018 218.913304 192.664508 223.667931 180.63979 
C 228.422557 168.615072 230.864158 155.799992 230.864158 142.869395 
C 230.864158 129.938799 228.422557 117.123719 223.667931 105.099001 
C 218.913304 93.074283 211.930603 82.054773 203.087539 72.620763 
C 194.244475 63.186753 183.699048 55.506801 172.006583 49.985336 
C 160.314118 44.46387 147.683525 41.199544 134.779936 40.364256 
C 121.876347 39.528969 108.93031 41.137645 96.623569 45.105572 
C 84.316828 49.073498 72.869267 55.32978 62.883719 63.544958 
C 52.898172 71.760136 44.553049 81.787431 38.287809 93.098801 
C 32.022569 104.41017 27.949153 116.803515 26.282067 129.626195 
" clip-path="url(#pd1eb410768)" style="fill: #a8325c; opacity: 0.4; stroke: #a8325c; stroke-linejoin: miter"/>
   </g>
   <g id="patch_4">
    <path d="M 26.282067 156.112596 
C 27.947629 168.654869 31.964449 180.771091 38.121383 191.824366 
C 44.278316 202.877641 52.465558 212.670841 62.252741 220.689181 
C 72.039924 228.70752 83.2525 234.807998 95.301074 238.669939 
C 107.349648 242.531879 120.019341 244.086408 132.644165 243.251809 
C 145.268988 242.417211 157.623786 239.20837 169.059121 233.793962 
C 180.494457 228.379553 190.806389 220.856139 199.452864 211.619193 
C 208.099339 202.382246 214.926153 191.596501 219.574452 179.828916 
C 224.22275 168.061332 226.609633 155.521775 226.609633 142.869395 
C 226.609633 130.217015 224.22275 117.677459 219.574452 105.909875 
C 214.926153 94.14229 208.099339 83.356545 199.452864 74.119598 
C 190.806389 64.882652 180.494457 57.359238 169.059121 51.944829 
C 157.623786 46.530421 145.268988 43.32158 132.644165 42.486982 
C 120.019341 41.652383 107.349648 43.206912 95.301074 47.068852 
C 83.2525 50.930793 72.039924 57.031271 62.252741 65.04961 
C 52.465558 73.06795 44.278316 82.86115 38.121383 93.914425 
C 31.964449 104.9677 27.947629 117.083922 26.282067 129.626195 
C 25.711151 134.017501 25.424796 138.441133 25.424796 142.869395 
C 25.424796 147.297658 25.711151 151.72129 26.282067 156.112596 
" clip-path="url(#pd1eb410768)" style="fill: #f2b134; opacity: 0.4; stroke: #f2b134; stroke-linejoin: miter"/>
   </g>
   <g id="text_1">
    <!-- 0 -->
    <g style="fill: #262626" transform="translate(22.07913 145.971583) scale(0.12 -0.12)">
     <defs>
      <path id="ArialMT-30" d="M 266 2259 
Q 266 3072 433 3567 
Q 600 4063 929 4331 
Q 1259 4600 1759 4600 
Q 2128 4600 2406 4451 
Q 2684 4303 2865 4023 
Q 3047 3744 3150 3342 
Q 3253 2941 3253 2259 
Q 3253 1453 3087 958 
Q 2922 463 2592 192 
Q 2263 -78 1759 -78 
Q 1097 -78 719 397 
Q 266 969 266 2259 
z
M 844 2259 
Q 844 1131 1108 757 
Q 1372 384 1759 384 
Q 2147 384 2411 759 
Q 2675 1134 2675 2259 
Q 2675 3391 2411 3762 
Q 2147 4134 1753 4134 
Q 1366 4134 1134 3806 
Q 844 3388 844 2259 
z
" transform="scale(0.015625)"/>
     </defs>
     <use xlink:href="#ArialMT-30"/>
    </g>
   </g>
   <g id="text_2">
    <!-- 2 -->
    <g style="fill: #262626" transform="translate(225.400333 145.971583) scale(0.12 -0.12)">
     <defs>
      <path id="ArialMT-32" d="M 3222 541 
L 3222 0 
L 194 0 
Q 188 203 259 391 
Q 375 700 629 1000 
Q 884 1300 1366 1694 
Q 2113 2306 2375 2664 
Q 2638 3022 2638 3341 
Q 2638 3675 2398 3904 
Q 2159 4134 1775 4134 
Q 1369 4134 1125 3890 
Q 881 3647 878 3216 
L 300 3275 
Q 359 3922 746 4261 
Q 1134 4600 1788 4600 
Q 2447 4600 2831 4234 
Q 3216 3869 3216 3328 
Q 3216 3053 3103 2787 
Q 2991 2522 2730 2228 
Q 2469 1934 1863 1422 
Q 1356 997 1212 845 
Q 1069 694 975 541 
L 3222 541 
z
" transform="scale(0.015625)"/>
     </defs>
     <use xlink:href="#ArialMT-32"/>
    </g>
   </g>
   <g id="text_3">
    <!-- 47 -->
    <g style="fill: #262626" transform="translate(119.34409 145.971583) scale(0.12 -0.12)">
     <defs>
      <path id="ArialMT-34" d="M 2069 0 
L 2069 1097 
L 81 1097 
L 81 1613 
L 2172 4581 
L 2631 4581 
L 2631 1613 
L 3250 1613 
L 3250 1097 
L 2631 1097 
L 2631 0 
L 2069 0 
z
M 2069 1613 
L 2069 3678 
L 634 1613 
L 2069 1613 
z
" transform="scale(0.015625)"/>
      <path id="ArialMT-37" d="M 303 3981 
L 303 4522 
L 3269 4522 
L 3269 4084 
Q 2831 3619 2401 2847 
Q 1972 2075 1738 1259 
Q 1569 684 1522 0 
L 944 0 
Q 953 541 1156 1306 
Q 1359 2072 1739 2783 
Q 2119 3494 2547 3981 
L 303 3981 
z
" transform="scale(0.015625)"/>
     </defs>
     <use xlink:href="#ArialMT-34"/>
     <use xlink:href="#ArialMT-37" transform="translate(55.615234 0)"/>
    </g>
   </g>
   <g id="text_4">
    <!-- OFV (Glucose) -->
    <g style="fill: #262626" transform="translate(29.993861 264.128728) scale(0.144 -0.144)">
     <defs>
      <path id="ArialMT-4f" d="M 309 2231 
Q 309 3372 921 4017 
Q 1534 4663 2503 4663 
Q 3138 4663 3647 4359 
Q 4156 4056 4423 3514 
Q 4691 2972 4691 2284 
Q 4691 1588 4409 1038 
Q 4128 488 3612 205 
Q 3097 -78 2500 -78 
Q 1853 -78 1343 234 
Q 834 547 571 1087 
Q 309 1628 309 2231 
z
M 934 2222 
Q 934 1394 1379 917 
Q 1825 441 2497 441 
Q 3181 441 3623 922 
Q 4066 1403 4066 2288 
Q 4066 2847 3877 3264 
Q 3688 3681 3323 3911 
Q 2959 4141 2506 4141 
Q 1863 4141 1398 3698 
Q 934 3256 934 2222 
z
" transform="scale(0.015625)"/>
      <path id="ArialMT-46" d="M 525 0 
L 525 4581 
L 3616 4581 
L 3616 4041 
L 1131 4041 
L 1131 2622 
L 3281 2622 
L 3281 2081 
L 1131 2081 
L 1131 0 
L 525 0 
z
" transform="scale(0.015625)"/>
      <path id="ArialMT-56" d="M 1803 0 
L 28 4581 
L 684 4581 
L 1875 1253 
Q 2019 853 2116 503 
Q 2222 878 2363 1253 
L 3600 4581 
L 4219 4581 
L 2425 0 
L 1803 0 
z
" transform="scale(0.015625)"/>
      <path id="ArialMT-20" transform="scale(0.015625)"/>
      <path id="ArialMT-28" d="M 1497 -1347 
Q 1031 -759 709 28 
Q 388 816 388 1659 
Q 388 2403 628 3084 
Q 909 3875 1497 4659 
L 1900 4659 
Q 1522 4009 1400 3731 
Q 1209 3300 1100 2831 
Q 966 2247 966 1656 
Q 966 153 1900 -1347 
L 1497 -1347 
z
" transform="scale(0.015625)"/>
      <path id="ArialMT-47" d="M 2638 1797 
L 2638 2334 
L 4578 2338 
L 4578 638 
Q 4131 281 3656 101 
Q 3181 -78 2681 -78 
Q 2006 -78 1454 211 
Q 903 500 622 1047 
Q 341 1594 341 2269 
Q 341 2938 620 3517 
Q 900 4097 1425 4378 
Q 1950 4659 2634 4659 
Q 3131 4659 3532 4498 
Q 3934 4338 4162 4050 
Q 4391 3763 4509 3300 
L 3963 3150 
Q 3859 3500 3706 3700 
Q 3553 3900 3268 4020 
Q 2984 4141 2638 4141 
Q 2222 4141 1919 4014 
Q 1616 3888 1430 3681 
Q 1244 3475 1141 3228 
Q 966 2803 966 2306 
Q 966 1694 1177 1281 
Q 1388 869 1791 669 
Q 2194 469 2647 469 
Q 3041 469 3416 620 
Q 3791 772 3984 944 
L 3984 1797 
L 2638 1797 
z
" transform="scale(0.015625)"/>
      <path id="ArialMT-6c" d="M 409 0 
L 409 4581 
L 972 4581 
L 972 0 
L 409 0 
z
" transform="scale(0.015625)"/>
      <path id="ArialMT-75" d="M 2597 0 
L 2597 488 
Q 2209 -75 1544 -75 
Q 1250 -75 995 37 
Q 741 150 617 320 
Q 494 491 444 738 
Q 409 903 409 1263 
L 409 3319 
L 972 3319 
L 972 1478 
Q 972 1038 1006 884 
Q 1059 663 1231 536 
Q 1403 409 1656 409 
Q 1909 409 2131 539 
Q 2353 669 2445 892 
Q 2538 1116 2538 1541 
L 2538 3319 
L 3100 3319 
L 3100 0 
L 2597 0 
z
" transform="scale(0.015625)"/>
      <path id="ArialMT-63" d="M 2588 1216 
L 3141 1144 
Q 3050 572 2676 248 
Q 2303 -75 1759 -75 
Q 1078 -75 664 370 
Q 250 816 250 1647 
Q 250 2184 428 2587 
Q 606 2991 970 3192 
Q 1334 3394 1763 3394 
Q 2303 3394 2647 3120 
Q 2991 2847 3088 2344 
L 2541 2259 
Q 2463 2594 2264 2762 
Q 2066 2931 1784 2931 
Q 1359 2931 1093 2626 
Q 828 2322 828 1663 
Q 828 994 1084 691 
Q 1341 388 1753 388 
Q 2084 388 2306 591 
Q 2528 794 2588 1216 
z
" transform="scale(0.015625)"/>
      <path id="ArialMT-6f" d="M 213 1659 
Q 213 2581 725 3025 
Q 1153 3394 1769 3394 
Q 2453 3394 2887 2945 
Q 3322 2497 3322 1706 
Q 3322 1066 3130 698 
Q 2938 331 2570 128 
Q 2203 -75 1769 -75 
Q 1072 -75 642 372 
Q 213 819 213 1659 
z
M 791 1659 
Q 791 1022 1069 705 
Q 1347 388 1769 388 
Q 2188 388 2466 706 
Q 2744 1025 2744 1678 
Q 2744 2294 2464 2611 
Q 2184 2928 1769 2928 
Q 1347 2928 1069 2612 
Q 791 2297 791 1659 
z
" transform="scale(0.015625)"/>
      <path id="ArialMT-73" d="M 197 991 
L 753 1078 
Q 800 744 1014 566 
Q 1228 388 1613 388 
Q 2000 388 2187 545 
Q 2375 703 2375 916 
Q 2375 1106 2209 1216 
Q 2094 1291 1634 1406 
Q 1016 1563 777 1677 
Q 538 1791 414 1992 
Q 291 2194 291 2438 
Q 291 2659 392 2848 
Q 494 3038 669 3163 
Q 800 3259 1026 3326 
Q 1253 3394 1513 3394 
Q 1903 3394 2198 3281 
Q 2494 3169 2634 2976 
Q 2775 2784 2828 2463 
L 2278 2388 
Q 2241 2644 2061 2787 
Q 1881 2931 1553 2931 
Q 1166 2931 1000 2803 
Q 834 2675 834 2503 
Q 834 2394 903 2306 
Q 972 2216 1119 2156 
Q 1203 2125 1616 2013 
Q 2213 1853 2448 1751 
Q 2684 1650 2818 1456 
Q 2953 1263 2953 975 
Q 2953 694 2789 445 
Q 2625 197 2315 61 
Q 2006 -75 1616 -75 
Q 969 -75 630 194 
Q 291 463 197 991 
z
" transform="scale(0.015625)"/>
      <path id="ArialMT-65" d="M 2694 1069 
L 3275 997 
Q 3138 488 2766 206 
Q 2394 -75 1816 -75 
Q 1088 -75 661 373 
Q 234 822 234 1631 
Q 234 2469 665 2931 
Q 1097 3394 1784 3394 
Q 2450 3394 2872 2941 
Q 3294 2488 3294 1666 
Q 3294 1616 3291 1516 
L 816 1516 
Q 847 969 1125 678 
Q 1403 388 1819 388 
Q 2128 388 2347 550 
Q 2566 713 2694 1069 
z
M 847 1978 
L 2700 1978 
Q 2663 2397 2488 2606 
Q 2219 2931 1791 2931 
Q 1403 2931 1139 2672 
Q 875 2413 847 1978 
z
" transform="scale(0.015625)"/>
      <path id="ArialMT-29" d="M 791 -1347 
L 388 -1347 
Q 1322 153 1322 1656 
Q 1322 2244 1188 2822 
Q 1081 3291 891 3722 
Q 769 4003 388 4659 
L 791 4659 
Q 1378 3875 1659 3084 
Q 1900 2403 1900 1659 
Q 1900 816 1576 28 
Q 1253 -759 791 -1347 
z
" transform="scale(0.015625)"/>
     </defs>
     <use xlink:href="#ArialMT-4f"/>
     <use xlink:href="#ArialMT-46" transform="translate(77.783203 0)"/>
     <use xlink:href="#ArialMT-56" transform="translate(138.867188 0)"/>
     <use xlink:href="#ArialMT-20" transform="translate(205.566406 0)"/>
     <use xlink:href="#ArialMT-28" transform="translate(233.349609 0)"/>
     <use xlink:href="#ArialMT-47" transform="translate(266.650391 0)"/>
     <use xlink:href="#ArialMT-6c" transform="translate(344.433594 0)"/>
     <use xlink:href="#ArialMT-75" transform="translate(366.650391 0)"/>
     <use xlink:href="#ArialMT-63" transform="translate(422.265625 0)"/>
     <use xlink:href="#ArialMT-6f" transform="translate(472.265625 0)"/>
     <use xlink:href="#ArialMT-73" transform="translate(527.880859 0)"/>
     <use xlink:href="#ArialMT-65" transform="translate(577.880859 0)"/>
     <use xlink:href="#ArialMT-29" transform="translate(633.496094 0)"/>
    </g>
   </g>
   <g id="text_5">
    <!-- EFV (Max. biomass) -->
    <g style="fill: #262626" transform="translate(128.144477 266.237887) scale(0.144 -0.144)">
     <defs>
      <path id="ArialMT-45" d="M 506 0 
L 506 4581 
L 3819 4581 
L 3819 4041 
L 1113 4041 
L 1113 2638 
L 3647 2638 
L 3647 2100 
L 1113 2100 
L 1113 541 
L 3925 541 
L 3925 0 
L 506 0 
z
" transform="scale(0.015625)"/>
      <path id="ArialMT-4d" d="M 475 0 
L 475 4581 
L 1388 4581 
L 2472 1338 
Q 2622 884 2691 659 
Q 2769 909 2934 1394 
L 4031 4581 
L 4847 4581 
L 4847 0 
L 4263 0 
L 4263 3834 
L 2931 0 
L 2384 0 
L 1059 3900 
L 1059 0 
L 475 0 
z
" transform="scale(0.015625)"/>
      <path id="ArialMT-61" d="M 2588 409 
Q 2275 144 1986 34 
Q 1697 -75 1366 -75 
Q 819 -75 525 192 
Q 231 459 231 875 
Q 231 1119 342 1320 
Q 453 1522 633 1644 
Q 813 1766 1038 1828 
Q 1203 1872 1538 1913 
Q 2219 1994 2541 2106 
Q 2544 2222 2544 2253 
Q 2544 2597 2384 2738 
Q 2169 2928 1744 2928 
Q 1347 2928 1158 2789 
Q 969 2650 878 2297 
L 328 2372 
Q 403 2725 575 2942 
Q 747 3159 1072 3276 
Q 1397 3394 1825 3394 
Q 2250 3394 2515 3294 
Q 2781 3194 2906 3042 
Q 3031 2891 3081 2659 
Q 3109 2516 3109 2141 
L 3109 1391 
Q 3109 606 3145 398 
Q 3181 191 3288 0 
L 2700 0 
Q 2613 175 2588 409 
z
M 2541 1666 
Q 2234 1541 1622 1453 
Q 1275 1403 1131 1340 
Q 988 1278 909 1158 
Q 831 1038 831 891 
Q 831 666 1001 516 
Q 1172 366 1500 366 
Q 1825 366 2078 508 
Q 2331 650 2450 897 
Q 2541 1088 2541 1459 
L 2541 1666 
z
" transform="scale(0.015625)"/>
      <path id="ArialMT-78" d="M 47 0 
L 1259 1725 
L 138 3319 
L 841 3319 
L 1350 2541 
Q 1494 2319 1581 2169 
Q 1719 2375 1834 2534 
L 2394 3319 
L 3066 3319 
L 1919 1756 
L 3153 0 
L 2463 0 
L 1781 1031 
L 1600 1309 
L 728 0 
L 47 0 
z
" transform="scale(0.015625)"/>
      <path id="ArialMT-2e" d="M 581 0 
L 581 641 
L 1222 641 
L 1222 0 
L 581 0 
z
" transform="scale(0.015625)"/>
      <path id="ArialMT-62" d="M 941 0 
L 419 0 
L 419 4581 
L 981 4581 
L 981 2947 
Q 1338 3394 1891 3394 
Q 2197 3394 2470 3270 
Q 2744 3147 2920 2923 
Q 3097 2700 3197 2384 
Q 3297 2069 3297 1709 
Q 3297 856 2875 390 
Q 2453 -75 1863 -75 
Q 1275 -75 941 416 
L 941 0 
z
M 934 1684 
Q 934 1088 1097 822 
Q 1363 388 1816 388 
Q 2184 388 2453 708 
Q 2722 1028 2722 1663 
Q 2722 2313 2464 2622 
Q 2206 2931 1841 2931 
Q 1472 2931 1203 2611 
Q 934 2291 934 1684 
z
" transform="scale(0.015625)"/>
      <path id="ArialMT-69" d="M 425 3934 
L 425 4581 
L 988 4581 
L 988 3934 
L 425 3934 
z
M 425 0 
L 425 3319 
L 988 3319 
L 988 0 
L 425 0 
z
" transform="scale(0.015625)"/>
      <path id="ArialMT-6d" d="M 422 0 
L 422 3319 
L 925 3319 
L 925 2853 
Q 1081 3097 1340 3245 
Q 1600 3394 1931 3394 
Q 2300 3394 2536 3241 
Q 2772 3088 2869 2813 
Q 3263 3394 3894 3394 
Q 4388 3394 4653 3120 
Q 4919 2847 4919 2278 
L 4919 0 
L 4359 0 
L 4359 2091 
Q 4359 2428 4304 2576 
Q 4250 2725 4106 2815 
Q 3963 2906 3769 2906 
Q 3419 2906 3187 2673 
Q 2956 2441 2956 1928 
L 2956 0 
L 2394 0 
L 2394 2156 
Q 2394 2531 2256 2718 
Q 2119 2906 1806 2906 
Q 1569 2906 1367 2781 
Q 1166 2656 1075 2415 
Q 984 2175 984 1722 
L 984 0 
L 422 0 
z
" transform="scale(0.015625)"/>
     </defs>
     <use xlink:href="#ArialMT-45"/>
     <use xlink:href="#ArialMT-46" transform="translate(66.699219 0)"/>
     <use xlink:href="#ArialMT-56" transform="translate(127.783203 0)"/>
     <use xlink:href="#ArialMT-20" transform="translate(194.482422 0)"/>
     <use xlink:href="#ArialMT-28" transform="translate(222.265625 0)"/>
     <use xlink:href="#ArialMT-4d" transform="translate(255.566406 0)"/>
     <use xlink:href="#ArialMT-61" transform="translate(338.867188 0)"/>
     <use xlink:href="#ArialMT-78" transform="translate(394.482422 0)"/>
     <use xlink:href="#ArialMT-2e" transform="translate(444.482422 0)"/>
     <use xlink:href="#ArialMT-20" transform="translate(472.265625 0)"/>
     <use xlink:href="#ArialMT-62" transform="translate(500.048828 0)"/>
     <use xlink:href="#ArialMT-69" transform="translate(555.664062 0)"/>
     <use xlink:href="#ArialMT-6f" transform="translate(577.880859 0)"/>
     <use xlink:href="#ArialMT-6d" transform="translate(633.496094 0)"/>
     <use xlink:href="#ArialMT-61" transform="translate(716.796875 0)"/>
     <use xlink:href="#ArialMT-73" transform="translate(772.412109 0)"/>
     <use xlink:href="#ArialMT-73" transform="translate(822.412109 0)"/>
     <use xlink:href="#ArialMT-29" transform="translate(872.412109 0)"/>
    </g>
   </g>
   <g id="text_6">
    <!-- OFV (Glucose) vs EFV (Max. biomass) -->
    <g style="fill: #262626" transform="translate(24.455374 15.943125) scale(0.12 -0.12)">
     <defs>
      <path id="ArialMT-76" d="M 1344 0 
L 81 3319 
L 675 3319 
L 1388 1331 
Q 1503 1009 1600 663 
Q 1675 925 1809 1294 
L 2547 3319 
L 3125 3319 
L 1869 0 
L 1344 0 
z
" transform="scale(0.015625)"/>
     </defs>
     <use xlink:href="#ArialMT-4f"/>
     <use xlink:href="#ArialMT-46" transform="translate(77.783203 0)"/>
     <use xlink:href="#ArialMT-56" transform="translate(138.867188 0)"/>
     <use xlink:href="#ArialMT-20" transform="translate(205.566406 0)"/>
     <use xlink:href="#ArialMT-28" transform="translate(233.349609 0)"/>
     <use xlink:href="#ArialMT-47" transform="translate(266.650391 0)"/>
     <use xlink:href="#ArialMT-6c" transform="translate(344.433594 0)"/>
     <use xlink:href="#ArialMT-75" transform="translate(366.650391 0)"/>
     <use xlink:href="#ArialMT-63" transform="translate(422.265625 0)"/>
     <use xlink:href="#ArialMT-6f" transform="translate(472.265625 0)"/>
     <use xlink:href="#ArialMT-73" transform="translate(527.880859 0)"/>
     <use xlink:href="#ArialMT-65" transform="translate(577.880859 0)"/>
     <use xlink:href="#ArialMT-29" transform="translate(633.496094 0)"/>
     <use xlink:href="#ArialMT-20" transform="translate(666.796875 0)"/>
     <use xlink:href="#ArialMT-76" transform="translate(694.580078 0)"/>
     <use xlink:href="#ArialMT-73" transform="translate(744.580078 0)"/>
     <use xlink:href="#ArialMT-20" transform="translate(794.580078 0)"/>
     <use xlink:href="#ArialMT-45" transform="translate(822.363281 0)"/>
     <use xlink:href="#ArialMT-46" transform="translate(889.0625 0)"/>
     <use xlink:href="#ArialMT-56" transform="translate(950.146484 0)"/>
     <use xlink:href="#ArialMT-20" transform="translate(1016.845703 0)"/>
     <use xlink:href="#ArialMT-28" transform="translate(1044.628906 0)"/>
     <use xlink:href="#ArialMT-4d" transform="translate(1077.929688 0)"/>
     <use xlink:href="#ArialMT-61" transform="translate(1161.230469 0)"/>
     <use xlink:href="#ArialMT-78" transform="translate(1216.845703 0)"/>
     <use xlink:href="#ArialMT-2e" transform="translate(1266.845703 0)"/>
     <use xlink:href="#ArialMT-20" transform="translate(1294.628906 0)"/>
     <use xlink:href="#ArialMT-62" transform="translate(1322.412109 0)"/>
     <use xlink:href="#ArialMT-69" transform="translate(1378.027344 0)"/>
     <use xlink:href="#ArialMT-6f" transform="translate(1400.244141 0)"/>
     <use xlink:href="#ArialMT-6d" transform="translate(1455.859375 0)"/>
     <use xlink:href="#ArialMT-61" transform="translate(1539.160156 0)"/>
     <use xlink:href="#ArialMT-73" transform="translate(1594.775391 0)"/>
     <use xlink:href="#ArialMT-73" transform="translate(1644.775391 0)"/>
     <use xlink:href="#ArialMT-29" transform="translate(1694.775391 0)"/>
    </g>
   </g>
  </g>
 </g>
 <defs>
  <clipPath id="pd1eb410768">
   <rect x="7.2" y="21.943125" width="241.870748" height="241.852541"/>
  </clipPath>
 </defs>
</svg>
