<?xml version="1.0" encoding="utf-8" standalone="no"?>
<!DOCTYPE svg PUBLIC "-//W3C//DTD SVG 1.1//EN"
  "http://www.w3.org/Graphics/SVG/1.1/DTD/svg11.dtd">
<svg xmlns:xlink="http://www.w3.org/1999/xlink" width="856.7375pt" height="280.62pt" viewBox="0 0 856.7375 280.62" xmlns="http://www.w3.org/2000/svg" version="1.1">
 <metadata>
  <rdf:RDF xmlns:dc="http://purl.org/dc/elements/1.1/" xmlns:cc="http://creativecommons.org/ns#" xmlns:rdf="http://www.w3.org/1999/02/22-rdf-syntax-ns#">
   <cc:Work>
    <dc:type rdf:resource="http://purl.org/dc/dcmitype/StillImage"/>
    <dc:date>2025-07-16T14:15:24.157968</dc:date>
    <dc:format>image/svg+xml</dc:format>
    <dc:creator>
     <cc:Agent>
      <dc:title>Matplotlib v3.10.1, https://matplotlib.org/</dc:title>
     </cc:Agent>
    </dc:creator>
   </cc:Work>
  </rdf:RDF>
 </metadata>
 <defs>
  <style type="text/css">*{stroke-linejoin: round; stroke-linecap: butt}</style>
 </defs>
 <g id="figure_1">
  <g id="patch_1">
   <path d="M -0 280.62 
L 856.7375 280.62 
L 856.7375 0 
L -0 0 
z
" style="fill: #ffffff"/>
  </g>
  <g id="axes_1">
   <g id="patch_2">
    <path d="M 56.4375 256.774688 
L 447.5875 256.774688 
L 447.5875 20.479687 
L 56.4375 20.479687 
z
" style="fill: #ffffff"/>
   </g>
   <g id="matplotlib.axis_1">
    <g id="xtick_1">
     <g id="text_1">
      <!-- 0.0 -->
      <g style="fill: #262626" transform="translate(67.267045 271.4325) scale(0.1 -0.1)">
       <defs>
        <path id="ArialMT-30" d="M 266 2259 
Q 266 3072 433 3567 
Q 600 4063 929 4331 
Q 1259 4600 1759 4600 
Q 2128 4600 2406 4451 
Q 2684 4303 2865 4023 
Q 3047 3744 3150 3342 
Q 3253 2941 3253 2259 
Q 3253 1453 3087 958 
Q 2922 463 2592 192 
Q 2263 -78 1759 -78 
Q 1097 -78 719 397 
Q 266 969 266 2259 
z
M 844 2259 
Q 844 1131 1108 757 
Q 1372 384 1759 384 
Q 2147 384 2411 759 
Q 2675 1134 2675 2259 
Q 2675 3391 2411 3762 
Q 2147 4134 1753 4134 
Q 1366 4134 1134 3806 
Q 844 3388 844 2259 
z
" transform="scale(0.015625)"/>
        <path id="ArialMT-2e" d="M 581 0 
L 581 641 
L 1222 641 
L 1222 0 
L 581 0 
z
" transform="scale(0.015625)"/>
       </defs>
       <use xlink:href="#ArialMT-30"/>
       <use xlink:href="#ArialMT-2e" transform="translate(55.615234 0)"/>
       <use xlink:href="#ArialMT-30" transform="translate(83.398438 0)"/>
      </g>
     </g>
    </g>
    <g id="xtick_2">
     <g id="text_2">
      <!-- 0.2 -->
      <g style="fill: #262626" transform="translate(138.385227 271.4325) scale(0.1 -0.1)">
       <defs>
        <path id="ArialMT-32" d="M 3222 541 
L 3222 0 
L 194 0 
Q 188 203 259 391 
Q 375 700 629 1000 
Q 884 1300 1366 1694 
Q 2113 2306 2375 2664 
Q 2638 3022 2638 3341 
Q 2638 3675 2398 3904 
Q 2159 4134 1775 4134 
Q 1369 4134 1125 3890 
Q 881 3647 878 3216 
L 300 3275 
Q 359 3922 746 4261 
Q 1134 4600 1788 4600 
Q 2447 4600 2831 4234 
Q 3216 3869 3216 3328 
Q 3216 3053 3103 2787 
Q 2991 2522 2730 2228 
Q 2469 1934 1863 1422 
Q 1356 997 1212 845 
Q 1069 694 975 541 
L 3222 541 
z
" transform="scale(0.015625)"/>
       </defs>
       <use xlink:href="#ArialMT-30"/>
       <use xlink:href="#ArialMT-2e" transform="translate(55.615234 0)"/>
       <use xlink:href="#ArialMT-32" transform="translate(83.398438 0)"/>
      </g>
     </g>
    </g>
    <g id="xtick_3">
     <g id="text_3">
      <!-- 0.4 -->
      <g style="fill: #262626" transform="translate(209.503409 271.4325) scale(0.1 -0.1)">
       <defs>
        <path id="ArialMT-34" d="M 2069 0 
L 2069 1097 
L 81 1097 
L 81 1613 
L 2172 4581 
L 2631 4581 
L 2631 1613 
L 3250 1613 
L 3250 1097 
L 2631 1097 
L 2631 0 
L 2069 0 
z
M 2069 1613 
L 2069 3678 
L 634 1613 
L 2069 1613 
z
" transform="scale(0.015625)"/>
       </defs>
       <use xlink:href="#ArialMT-30"/>
       <use xlink:href="#ArialMT-2e" transform="translate(55.615234 0)"/>
       <use xlink:href="#ArialMT-34" transform="translate(83.398438 0)"/>
      </g>
     </g>
    </g>
    <g id="xtick_4">
     <g id="text_4">
      <!-- 0.6 -->
      <g style="fill: #262626" transform="translate(280.621591 271.4325) scale(0.1 -0.1)">
       <defs>
        <path id="ArialMT-36" d="M 3184 3459 
L 2625 3416 
Q 2550 3747 2413 3897 
Q 2184 4138 1850 4138 
Q 1581 4138 1378 3988 
Q 1113 3794 959 3422 
Q 806 3050 800 2363 
Q 1003 2672 1297 2822 
Q 1591 2972 1913 2972 
Q 2475 2972 2870 2558 
Q 3266 2144 3266 1488 
Q 3266 1056 3080 686 
Q 2894 316 2569 119 
Q 2244 -78 1831 -78 
Q 1128 -78 684 439 
Q 241 956 241 2144 
Q 241 3472 731 4075 
Q 1159 4600 1884 4600 
Q 2425 4600 2770 4297 
Q 3116 3994 3184 3459 
z
M 888 1484 
Q 888 1194 1011 928 
Q 1134 663 1356 523 
Q 1578 384 1822 384 
Q 2178 384 2434 671 
Q 2691 959 2691 1453 
Q 2691 1928 2437 2201 
Q 2184 2475 1800 2475 
Q 1419 2475 1153 2201 
Q 888 1928 888 1484 
z
" transform="scale(0.015625)"/>
       </defs>
       <use xlink:href="#ArialMT-30"/>
       <use xlink:href="#ArialMT-2e" transform="translate(55.615234 0)"/>
       <use xlink:href="#ArialMT-36" transform="translate(83.398438 0)"/>
      </g>
     </g>
    </g>
    <g id="xtick_5">
     <g id="text_5">
      <!-- 0.8 -->
      <g style="fill: #262626" transform="translate(351.739773 271.4325) scale(0.1 -0.1)">
       <defs>
        <path id="ArialMT-38" d="M 1131 2484 
Q 781 2613 612 2850 
Q 444 3088 444 3419 
Q 444 3919 803 4259 
Q 1163 4600 1759 4600 
Q 2359 4600 2725 4251 
Q 3091 3903 3091 3403 
Q 3091 3084 2923 2848 
Q 2756 2613 2416 2484 
Q 2838 2347 3058 2040 
Q 3278 1734 3278 1309 
Q 3278 722 2862 322 
Q 2447 -78 1769 -78 
Q 1091 -78 675 323 
Q 259 725 259 1325 
Q 259 1772 486 2073 
Q 713 2375 1131 2484 
z
M 1019 3438 
Q 1019 3113 1228 2906 
Q 1438 2700 1772 2700 
Q 2097 2700 2305 2904 
Q 2513 3109 2513 3406 
Q 2513 3716 2298 3927 
Q 2084 4138 1766 4138 
Q 1444 4138 1231 3931 
Q 1019 3725 1019 3438 
z
M 838 1322 
Q 838 1081 952 856 
Q 1066 631 1291 507 
Q 1516 384 1775 384 
Q 2178 384 2440 643 
Q 2703 903 2703 1303 
Q 2703 1709 2433 1975 
Q 2163 2241 1756 2241 
Q 1359 2241 1098 1978 
Q 838 1716 838 1322 
z
" transform="scale(0.015625)"/>
       </defs>
       <use xlink:href="#ArialMT-30"/>
       <use xlink:href="#ArialMT-2e" transform="translate(55.615234 0)"/>
       <use xlink:href="#ArialMT-38" transform="translate(83.398438 0)"/>
      </g>
     </g>
    </g>
    <g id="xtick_6">
     <g id="text_6">
      <!-- 1.0 -->
      <g style="fill: #262626" transform="translate(422.857955 271.4325) scale(0.1 -0.1)">
       <defs>
        <path id="ArialMT-31" d="M 2384 0 
L 1822 0 
L 1822 3584 
Q 1619 3391 1289 3197 
Q 959 3003 697 2906 
L 697 3450 
Q 1169 3672 1522 3987 
Q 1875 4303 2022 4600 
L 2384 4600 
L 2384 0 
z
" transform="scale(0.015625)"/>
       </defs>
       <use xlink:href="#ArialMT-31"/>
       <use xlink:href="#ArialMT-2e" transform="translate(55.615234 0)"/>
       <use xlink:href="#ArialMT-30" transform="translate(83.398438 0)"/>
      </g>
     </g>
    </g>
   </g>
   <g id="matplotlib.axis_2">
    <g id="ytick_1">
     <g id="text_7">
      <!-- 0.0% -->
      <g style="fill: #262626" transform="translate(26.145313 260.353594) scale(0.1 -0.1)">
       <defs>
        <path id="ArialMT-25" d="M 372 3481 
Q 372 3972 619 4315 
Q 866 4659 1334 4659 
Q 1766 4659 2048 4351 
Q 2331 4044 2331 3447 
Q 2331 2866 2045 2552 
Q 1759 2238 1341 2238 
Q 925 2238 648 2547 
Q 372 2856 372 3481 
z
M 1350 4272 
Q 1141 4272 1002 4090 
Q 863 3909 863 3425 
Q 863 2984 1003 2804 
Q 1144 2625 1350 2625 
Q 1563 2625 1702 2806 
Q 1841 2988 1841 3469 
Q 1841 3913 1700 4092 
Q 1559 4272 1350 4272 
z
M 1353 -169 
L 3859 4659 
L 4316 4659 
L 1819 -169 
L 1353 -169 
z
M 3334 1075 
Q 3334 1569 3581 1911 
Q 3828 2253 4300 2253 
Q 4731 2253 5014 1945 
Q 5297 1638 5297 1041 
Q 5297 459 5011 145 
Q 4725 -169 4303 -169 
Q 3888 -169 3611 142 
Q 3334 453 3334 1075 
z
M 4316 1866 
Q 4103 1866 3964 1684 
Q 3825 1503 3825 1019 
Q 3825 581 3965 400 
Q 4106 219 4313 219 
Q 4528 219 4667 400 
Q 4806 581 4806 1063 
Q 4806 1506 4665 1686 
Q 4525 1866 4316 1866 
z
" transform="scale(0.015625)"/>
       </defs>
       <use xlink:href="#ArialMT-30"/>
       <use xlink:href="#ArialMT-2e" transform="translate(55.615234 0)"/>
       <use xlink:href="#ArialMT-30" transform="translate(83.398438 0)"/>
       <use xlink:href="#ArialMT-25" transform="translate(139.013672 0)"/>
      </g>
     </g>
    </g>
    <g id="ytick_2">
     <g id="text_8">
      <!-- 5.0% -->
      <g style="fill: #262626" transform="translate(26.145313 227.149814) scale(0.1 -0.1)">
       <defs>
        <path id="ArialMT-35" d="M 266 1200 
L 856 1250 
Q 922 819 1161 601 
Q 1400 384 1738 384 
Q 2144 384 2425 690 
Q 2706 997 2706 1503 
Q 2706 1984 2436 2262 
Q 2166 2541 1728 2541 
Q 1456 2541 1237 2417 
Q 1019 2294 894 2097 
L 366 2166 
L 809 4519 
L 3088 4519 
L 3088 3981 
L 1259 3981 
L 1013 2750 
Q 1425 3038 1878 3038 
Q 2478 3038 2890 2622 
Q 3303 2206 3303 1553 
Q 3303 931 2941 478 
Q 2500 -78 1738 -78 
Q 1113 -78 717 272 
Q 322 622 266 1200 
z
" transform="scale(0.015625)"/>
       </defs>
       <use xlink:href="#ArialMT-35"/>
       <use xlink:href="#ArialMT-2e" transform="translate(55.615234 0)"/>
       <use xlink:href="#ArialMT-30" transform="translate(83.398438 0)"/>
       <use xlink:href="#ArialMT-25" transform="translate(139.013672 0)"/>
      </g>
     </g>
    </g>
    <g id="ytick_3">
     <g id="text_9">
      <!-- 10.0% -->
      <g style="fill: #262626" transform="translate(20.584375 193.946034) scale(0.1 -0.1)">
       <use xlink:href="#ArialMT-31"/>
       <use xlink:href="#ArialMT-30" transform="translate(55.615234 0)"/>
       <use xlink:href="#ArialMT-2e" transform="translate(111.230469 0)"/>
       <use xlink:href="#ArialMT-30" transform="translate(139.013672 0)"/>
       <use xlink:href="#ArialMT-25" transform="translate(194.628906 0)"/>
      </g>
     </g>
    </g>
    <g id="ytick_4">
     <g id="text_10">
      <!-- 15.0% -->
      <g style="fill: #262626" transform="translate(20.584375 160.742254) scale(0.1 -0.1)">
       <use xlink:href="#ArialMT-31"/>
       <use xlink:href="#ArialMT-35" transform="translate(55.615234 0)"/>
       <use xlink:href="#ArialMT-2e" transform="translate(111.230469 0)"/>
       <use xlink:href="#ArialMT-30" transform="translate(139.013672 0)"/>
       <use xlink:href="#ArialMT-25" transform="translate(194.628906 0)"/>
      </g>
     </g>
    </g>
    <g id="ytick_5">
     <g id="text_11">
      <!-- 20.0% -->
      <g style="fill: #262626" transform="translate(20.584375 127.538474) scale(0.1 -0.1)">
       <use xlink:href="#ArialMT-32"/>
       <use xlink:href="#ArialMT-30" transform="translate(55.615234 0)"/>
       <use xlink:href="#ArialMT-2e" transform="translate(111.230469 0)"/>
       <use xlink:href="#ArialMT-30" transform="translate(139.013672 0)"/>
       <use xlink:href="#ArialMT-25" transform="translate(194.628906 0)"/>
      </g>
     </g>
    </g>
    <g id="ytick_6">
     <g id="text_12">
      <!-- 25.0% -->
      <g style="fill: #262626" transform="translate(20.584375 94.334694) scale(0.1 -0.1)">
       <use xlink:href="#ArialMT-32"/>
       <use xlink:href="#ArialMT-35" transform="translate(55.615234 0)"/>
       <use xlink:href="#ArialMT-2e" transform="translate(111.230469 0)"/>
       <use xlink:href="#ArialMT-30" transform="translate(139.013672 0)"/>
       <use xlink:href="#ArialMT-25" transform="translate(194.628906 0)"/>
      </g>
     </g>
    </g>
    <g id="ytick_7">
     <g id="text_13">
      <!-- 30.0% -->
      <g style="fill: #262626" transform="translate(20.584375 61.130914) scale(0.1 -0.1)">
       <defs>
        <path id="ArialMT-33" d="M 269 1209 
L 831 1284 
Q 928 806 1161 595 
Q 1394 384 1728 384 
Q 2125 384 2398 659 
Q 2672 934 2672 1341 
Q 2672 1728 2419 1979 
Q 2166 2231 1775 2231 
Q 1616 2231 1378 2169 
L 1441 2663 
Q 1497 2656 1531 2656 
Q 1891 2656 2178 2843 
Q 2466 3031 2466 3422 
Q 2466 3731 2256 3934 
Q 2047 4138 1716 4138 
Q 1388 4138 1169 3931 
Q 950 3725 888 3313 
L 325 3413 
Q 428 3978 793 4289 
Q 1159 4600 1703 4600 
Q 2078 4600 2393 4439 
Q 2709 4278 2876 4000 
Q 3044 3722 3044 3409 
Q 3044 3113 2884 2869 
Q 2725 2625 2413 2481 
Q 2819 2388 3044 2092 
Q 3269 1797 3269 1353 
Q 3269 753 2831 336 
Q 2394 -81 1725 -81 
Q 1122 -81 723 278 
Q 325 638 269 1209 
z
" transform="scale(0.015625)"/>
       </defs>
       <use xlink:href="#ArialMT-33"/>
       <use xlink:href="#ArialMT-30" transform="translate(55.615234 0)"/>
       <use xlink:href="#ArialMT-2e" transform="translate(111.230469 0)"/>
       <use xlink:href="#ArialMT-30" transform="translate(139.013672 0)"/>
       <use xlink:href="#ArialMT-25" transform="translate(194.628906 0)"/>
      </g>
     </g>
    </g>
    <g id="ytick_8">
     <g id="text_14">
      <!-- 35.0% -->
      <g style="fill: #262626" transform="translate(20.584375 27.927134) scale(0.1 -0.1)">
       <use xlink:href="#ArialMT-33"/>
       <use xlink:href="#ArialMT-35" transform="translate(55.615234 0)"/>
       <use xlink:href="#ArialMT-2e" transform="translate(111.230469 0)"/>
       <use xlink:href="#ArialMT-30" transform="translate(139.013672 0)"/>
       <use xlink:href="#ArialMT-25" transform="translate(194.628906 0)"/>
      </g>
     </g>
    </g>
    <g id="text_15">
     <!-- Percentage of Entries (%) -->
     <g style="fill: #262626" transform="translate(14.479688 195.8725) rotate(-90) scale(0.1 -0.1)">
      <defs>
       <path id="ArialMT-50" d="M 494 0 
L 494 4581 
L 2222 4581 
Q 2678 4581 2919 4538 
Q 3256 4481 3484 4323 
Q 3713 4166 3852 3881 
Q 3991 3597 3991 3256 
Q 3991 2672 3619 2267 
Q 3247 1863 2275 1863 
L 1100 1863 
L 1100 0 
L 494 0 
z
M 1100 2403 
L 2284 2403 
Q 2872 2403 3119 2622 
Q 3366 2841 3366 3238 
Q 3366 3525 3220 3729 
Q 3075 3934 2838 4000 
Q 2684 4041 2272 4041 
L 1100 4041 
L 1100 2403 
z
" transform="scale(0.015625)"/>
       <path id="ArialMT-65" d="M 2694 1069 
L 3275 997 
Q 3138 488 2766 206 
Q 2394 -75 1816 -75 
Q 1088 -75 661 373 
Q 234 822 234 1631 
Q 234 2469 665 2931 
Q 1097 3394 1784 3394 
Q 2450 3394 2872 2941 
Q 3294 2488 3294 1666 
Q 3294 1616 3291 1516 
L 816 1516 
Q 847 969 1125 678 
Q 1403 388 1819 388 
Q 2128 388 2347 550 
Q 2566 713 2694 1069 
z
M 847 1978 
L 2700 1978 
Q 2663 2397 2488 2606 
Q 2219 2931 1791 2931 
Q 1403 2931 1139 2672 
Q 875 2413 847 1978 
z
" transform="scale(0.015625)"/>
       <path id="ArialMT-72" d="M 416 0 
L 416 3319 
L 922 3319 
L 922 2816 
Q 1116 3169 1280 3281 
Q 1444 3394 1641 3394 
Q 1925 3394 2219 3213 
L 2025 2691 
Q 1819 2813 1613 2813 
Q 1428 2813 1281 2702 
Q 1134 2591 1072 2394 
Q 978 2094 978 1738 
L 978 0 
L 416 0 
z
" transform="scale(0.015625)"/>
       <path id="ArialMT-63" d="M 2588 1216 
L 3141 1144 
Q 3050 572 2676 248 
Q 2303 -75 1759 -75 
Q 1078 -75 664 370 
Q 250 816 250 1647 
Q 250 2184 428 2587 
Q 606 2991 970 3192 
Q 1334 3394 1763 3394 
Q 2303 3394 2647 3120 
Q 2991 2847 3088 2344 
L 2541 2259 
Q 2463 2594 2264 2762 
Q 2066 2931 1784 2931 
Q 1359 2931 1093 2626 
Q 828 2322 828 1663 
Q 828 994 1084 691 
Q 1341 388 1753 388 
Q 2084 388 2306 591 
Q 2528 794 2588 1216 
z
" transform="scale(0.015625)"/>
       <path id="ArialMT-6e" d="M 422 0 
L 422 3319 
L 928 3319 
L 928 2847 
Q 1294 3394 1984 3394 
Q 2284 3394 2536 3286 
Q 2788 3178 2913 3003 
Q 3038 2828 3088 2588 
Q 3119 2431 3119 2041 
L 3119 0 
L 2556 0 
L 2556 2019 
Q 2556 2363 2490 2533 
Q 2425 2703 2258 2804 
Q 2091 2906 1866 2906 
Q 1506 2906 1245 2678 
Q 984 2450 984 1813 
L 984 0 
L 422 0 
z
" transform="scale(0.015625)"/>
       <path id="ArialMT-74" d="M 1650 503 
L 1731 6 
Q 1494 -44 1306 -44 
Q 1000 -44 831 53 
Q 663 150 594 308 
Q 525 466 525 972 
L 525 2881 
L 113 2881 
L 113 3319 
L 525 3319 
L 525 4141 
L 1084 4478 
L 1084 3319 
L 1650 3319 
L 1650 2881 
L 1084 2881 
L 1084 941 
Q 1084 700 1114 631 
Q 1144 563 1211 522 
Q 1278 481 1403 481 
Q 1497 481 1650 503 
z
" transform="scale(0.015625)"/>
       <path id="ArialMT-61" d="M 2588 409 
Q 2275 144 1986 34 
Q 1697 -75 1366 -75 
Q 819 -75 525 192 
Q 231 459 231 875 
Q 231 1119 342 1320 
Q 453 1522 633 1644 
Q 813 1766 1038 1828 
Q 1203 1872 1538 1913 
Q 2219 1994 2541 2106 
Q 2544 2222 2544 2253 
Q 2544 2597 2384 2738 
Q 2169 2928 1744 2928 
Q 1347 2928 1158 2789 
Q 969 2650 878 2297 
L 328 2372 
Q 403 2725 575 2942 
Q 747 3159 1072 3276 
Q 1397 3394 1825 3394 
Q 2250 3394 2515 3294 
Q 2781 3194 2906 3042 
Q 3031 2891 3081 2659 
Q 3109 2516 3109 2141 
L 3109 1391 
Q 3109 606 3145 398 
Q 3181 191 3288 0 
L 2700 0 
Q 2613 175 2588 409 
z
M 2541 1666 
Q 2234 1541 1622 1453 
Q 1275 1403 1131 1340 
Q 988 1278 909 1158 
Q 831 1038 831 891 
Q 831 666 1001 516 
Q 1172 366 1500 366 
Q 1825 366 2078 508 
Q 2331 650 2450 897 
Q 2541 1088 2541 1459 
L 2541 1666 
z
" transform="scale(0.015625)"/>
       <path id="ArialMT-67" d="M 319 -275 
L 866 -356 
Q 900 -609 1056 -725 
Q 1266 -881 1628 -881 
Q 2019 -881 2231 -725 
Q 2444 -569 2519 -288 
Q 2563 -116 2559 434 
Q 2191 0 1641 0 
Q 956 0 581 494 
Q 206 988 206 1678 
Q 206 2153 378 2554 
Q 550 2956 876 3175 
Q 1203 3394 1644 3394 
Q 2231 3394 2613 2919 
L 2613 3319 
L 3131 3319 
L 3131 450 
Q 3131 -325 2973 -648 
Q 2816 -972 2473 -1159 
Q 2131 -1347 1631 -1347 
Q 1038 -1347 672 -1080 
Q 306 -813 319 -275 
z
M 784 1719 
Q 784 1066 1043 766 
Q 1303 466 1694 466 
Q 2081 466 2343 764 
Q 2606 1063 2606 1700 
Q 2606 2309 2336 2618 
Q 2066 2928 1684 2928 
Q 1309 2928 1046 2623 
Q 784 2319 784 1719 
z
" transform="scale(0.015625)"/>
       <path id="ArialMT-20" transform="scale(0.015625)"/>
       <path id="ArialMT-6f" d="M 213 1659 
Q 213 2581 725 3025 
Q 1153 3394 1769 3394 
Q 2453 3394 2887 2945 
Q 3322 2497 3322 1706 
Q 3322 1066 3130 698 
Q 2938 331 2570 128 
Q 2203 -75 1769 -75 
Q 1072 -75 642 372 
Q 213 819 213 1659 
z
M 791 1659 
Q 791 1022 1069 705 
Q 1347 388 1769 388 
Q 2188 388 2466 706 
Q 2744 1025 2744 1678 
Q 2744 2294 2464 2611 
Q 2184 2928 1769 2928 
Q 1347 2928 1069 2612 
Q 791 2297 791 1659 
z
" transform="scale(0.015625)"/>
       <path id="ArialMT-66" d="M 556 0 
L 556 2881 
L 59 2881 
L 59 3319 
L 556 3319 
L 556 3672 
Q 556 4006 616 4169 
Q 697 4388 901 4523 
Q 1106 4659 1475 4659 
Q 1713 4659 2000 4603 
L 1916 4113 
Q 1741 4144 1584 4144 
Q 1328 4144 1222 4034 
Q 1116 3925 1116 3625 
L 1116 3319 
L 1763 3319 
L 1763 2881 
L 1116 2881 
L 1116 0 
L 556 0 
z
" transform="scale(0.015625)"/>
       <path id="ArialMT-45" d="M 506 0 
L 506 4581 
L 3819 4581 
L 3819 4041 
L 1113 4041 
L 1113 2638 
L 3647 2638 
L 3647 2100 
L 1113 2100 
L 1113 541 
L 3925 541 
L 3925 0 
L 506 0 
z
" transform="scale(0.015625)"/>
       <path id="ArialMT-69" d="M 425 3934 
L 425 4581 
L 988 4581 
L 988 3934 
L 425 3934 
z
M 425 0 
L 425 3319 
L 988 3319 
L 988 0 
L 425 0 
z
" transform="scale(0.015625)"/>
       <path id="ArialMT-73" d="M 197 991 
L 753 1078 
Q 800 744 1014 566 
Q 1228 388 1613 388 
Q 2000 388 2187 545 
Q 2375 703 2375 916 
Q 2375 1106 2209 1216 
Q 2094 1291 1634 1406 
Q 1016 1563 777 1677 
Q 538 1791 414 1992 
Q 291 2194 291 2438 
Q 291 2659 392 2848 
Q 494 3038 669 3163 
Q 800 3259 1026 3326 
Q 1253 3394 1513 3394 
Q 1903 3394 2198 3281 
Q 2494 3169 2634 2976 
Q 2775 2784 2828 2463 
L 2278 2388 
Q 2241 2644 2061 2787 
Q 1881 2931 1553 2931 
Q 1166 2931 1000 2803 
Q 834 2675 834 2503 
Q 834 2394 903 2306 
Q 972 2216 1119 2156 
Q 1203 2125 1616 2013 
Q 2213 1853 2448 1751 
Q 2684 1650 2818 1456 
Q 2953 1263 2953 975 
Q 2953 694 2789 445 
Q 2625 197 2315 61 
Q 2006 -75 1616 -75 
Q 969 -75 630 194 
Q 291 463 197 991 
z
" transform="scale(0.015625)"/>
       <path id="ArialMT-28" d="M 1497 -1347 
Q 1031 -759 709 28 
Q 388 816 388 1659 
Q 388 2403 628 3084 
Q 909 3875 1497 4659 
L 1900 4659 
Q 1522 4009 1400 3731 
Q 1209 3300 1100 2831 
Q 966 2247 966 1656 
Q 966 153 1900 -1347 
L 1497 -1347 
z
" transform="scale(0.015625)"/>
       <path id="ArialMT-29" d="M 791 -1347 
L 388 -1347 
Q 1322 153 1322 1656 
Q 1322 2244 1188 2822 
Q 1081 3291 891 3722 
Q 769 4003 388 4659 
L 791 4659 
Q 1378 3875 1659 3084 
Q 1900 2403 1900 1659 
Q 1900 816 1576 28 
Q 1253 -759 791 -1347 
z
" transform="scale(0.015625)"/>
      </defs>
      <use xlink:href="#ArialMT-50"/>
      <use xlink:href="#ArialMT-65" transform="translate(66.699219 0)"/>
      <use xlink:href="#ArialMT-72" transform="translate(122.314453 0)"/>
      <use xlink:href="#ArialMT-63" transform="translate(155.615234 0)"/>
      <use xlink:href="#ArialMT-65" transform="translate(205.615234 0)"/>
      <use xlink:href="#ArialMT-6e" transform="translate(261.230469 0)"/>
      <use xlink:href="#ArialMT-74" transform="translate(316.845703 0)"/>
      <use xlink:href="#ArialMT-61" transform="translate(344.628906 0)"/>
      <use xlink:href="#ArialMT-67" transform="translate(400.244141 0)"/>
      <use xlink:href="#ArialMT-65" transform="translate(455.859375 0)"/>
      <use xlink:href="#ArialMT-20" transform="translate(511.474609 0)"/>
      <use xlink:href="#ArialMT-6f" transform="translate(539.257812 0)"/>
      <use xlink:href="#ArialMT-66" transform="translate(594.873047 0)"/>
      <use xlink:href="#ArialMT-20" transform="translate(622.65625 0)"/>
      <use xlink:href="#ArialMT-45" transform="translate(650.439453 0)"/>
      <use xlink:href="#ArialMT-6e" transform="translate(717.138672 0)"/>
      <use xlink:href="#ArialMT-74" transform="translate(772.753906 0)"/>
      <use xlink:href="#ArialMT-72" transform="translate(800.537109 0)"/>
      <use xlink:href="#ArialMT-69" transform="translate(833.837891 0)"/>
      <use xlink:href="#ArialMT-65" transform="translate(856.054688 0)"/>
      <use xlink:href="#ArialMT-73" transform="translate(911.669922 0)"/>
      <use xlink:href="#ArialMT-20" transform="translate(961.669922 0)"/>
      <use xlink:href="#ArialMT-28" transform="translate(989.453125 0)"/>
      <use xlink:href="#ArialMT-25" transform="translate(1022.753906 0)"/>
      <use xlink:href="#ArialMT-29" transform="translate(1111.669922 0)"/>
     </g>
    </g>
   </g>
   <g id="patch_3">
    <path d="M 74.217045 256.774688 
L 77.772955 256.774688 
L 77.772955 78.549482 
L 74.217045 78.549482 
z
" clip-path="url(#p8b1fcc0e82)" style="stroke: #ffffff; stroke-width: 0.8; stroke-linejoin: miter"/>
   </g>
   <g id="patch_4">
    <path d="M 77.772955 256.774688 
L 81.328864 256.774688 
L 81.328864 256.754295 
L 77.772955 256.754295 
z
" clip-path="url(#p8b1fcc0e82)" style="stroke: #ffffff; stroke-width: 0.8; stroke-linejoin: miter"/>
   </g>
   <g id="patch_5">
    <path d="M 81.328864 256.774688 
L 84.884773 256.774688 
L 84.884773 256.752029 
L 81.328864 256.752029 
z
" clip-path="url(#p8b1fcc0e82)" style="stroke: #ffffff; stroke-width: 0.8; stroke-linejoin: miter"/>
   </g>
   <g id="patch_6">
    <path d="M 84.884773 256.774688 
L 88.440682 256.774688 
L 88.440682 256.749763 
L 84.884773 256.749763 
z
" clip-path="url(#p8b1fcc0e82)" style="stroke: #ffffff; stroke-width: 0.8; stroke-linejoin: miter"/>
   </g>
   <g id="patch_7">
    <path d="M 88.440682 256.774688 
L 91.996591 256.774688 
L 91.996591 256.740699 
L 88.440682 256.740699 
z
" clip-path="url(#p8b1fcc0e82)" style="stroke: #ffffff; stroke-width: 0.8; stroke-linejoin: miter"/>
   </g>
   <g id="patch_8">
    <path d="M 91.996591 256.774688 
L 95.5525 256.774688 
L 95.5525 256.75656 
L 91.996591 256.75656 
z
" clip-path="url(#p8b1fcc0e82)" style="stroke: #ffffff; stroke-width: 0.8; stroke-linejoin: miter"/>
   </g>
   <g id="patch_9">
    <path d="M 95.5525 256.774688 
L 99.108409 256.774688 
L 99.108409 256.754295 
L 95.5525 256.754295 
z
" clip-path="url(#p8b1fcc0e82)" style="stroke: #ffffff; stroke-width: 0.8; stroke-linejoin: miter"/>
   </g>
   <g id="patch_10">
    <path d="M 99.108409 256.774688 
L 102.664318 256.774688 
L 102.664318 256.742965 
L 99.108409 256.742965 
z
" clip-path="url(#p8b1fcc0e82)" style="stroke: #ffffff; stroke-width: 0.8; stroke-linejoin: miter"/>
   </g>
   <g id="patch_11">
    <path d="M 102.664318 256.774688 
L 106.220227 256.774688 
L 106.220227 256.761092 
L 102.664318 256.761092 
z
" clip-path="url(#p8b1fcc0e82)" style="stroke: #ffffff; stroke-width: 0.8; stroke-linejoin: miter"/>
   </g>
   <g id="patch_12">
    <path d="M 106.220227 256.774688 
L 109.776136 256.774688 
L 109.776136 256.76789 
L 106.220227 256.76789 
z
" clip-path="url(#p8b1fcc0e82)" style="stroke: #ffffff; stroke-width: 0.8; stroke-linejoin: miter"/>
   </g>
   <g id="patch_13">
    <path d="M 109.776136 256.774688 
L 113.332045 256.774688 
L 113.332045 256.740699 
L 109.776136 256.740699 
z
" clip-path="url(#p8b1fcc0e82)" style="stroke: #ffffff; stroke-width: 0.8; stroke-linejoin: miter"/>
   </g>
   <g id="patch_14">
    <path d="M 113.332045 256.774688 
L 116.887955 256.774688 
L 116.887955 256.761092 
L 113.332045 256.761092 
z
" clip-path="url(#p8b1fcc0e82)" style="stroke: #ffffff; stroke-width: 0.8; stroke-linejoin: miter"/>
   </g>
   <g id="patch_15">
    <path d="M 116.887955 256.774688 
L 120.443864 256.774688 
L 120.443864 256.752029 
L 116.887955 256.752029 
z
" clip-path="url(#p8b1fcc0e82)" style="stroke: #ffffff; stroke-width: 0.8; stroke-linejoin: miter"/>
   </g>
   <g id="patch_16">
    <path d="M 120.443864 256.774688 
L 123.999773 256.774688 
L 123.999773 256.754295 
L 120.443864 256.754295 
z
" clip-path="url(#p8b1fcc0e82)" style="stroke: #ffffff; stroke-width: 0.8; stroke-linejoin: miter"/>
   </g>
   <g id="patch_17">
    <path d="M 123.999773 256.774688 
L 127.555682 256.774688 
L 127.555682 256.491452 
L 123.999773 256.491452 
z
" clip-path="url(#p8b1fcc0e82)" style="stroke: #ffffff; stroke-width: 0.8; stroke-linejoin: miter"/>
   </g>
   <g id="patch_18">
    <path d="M 127.555682 256.774688 
L 131.111591 256.774688 
L 131.111591 256.738433 
L 127.555682 256.738433 
z
" clip-path="url(#p8b1fcc0e82)" style="stroke: #ffffff; stroke-width: 0.8; stroke-linejoin: miter"/>
   </g>
   <g id="patch_19">
    <path d="M 131.111591 256.774688 
L 134.6675 256.774688 
L 134.6675 256.758826 
L 131.111591 256.758826 
z
" clip-path="url(#p8b1fcc0e82)" style="stroke: #ffffff; stroke-width: 0.8; stroke-linejoin: miter"/>
   </g>
   <g id="patch_20">
    <path d="M 134.6675 256.774688 
L 138.223409 256.774688 
L 138.223409 256.758826 
L 134.6675 256.758826 
z
" clip-path="url(#p8b1fcc0e82)" style="stroke: #ffffff; stroke-width: 0.8; stroke-linejoin: miter"/>
   </g>
   <g id="patch_21">
    <path d="M 138.223409 256.774688 
L 141.779318 256.774688 
L 141.779318 256.747497 
L 138.223409 256.747497 
z
" clip-path="url(#p8b1fcc0e82)" style="stroke: #ffffff; stroke-width: 0.8; stroke-linejoin: miter"/>
   </g>
   <g id="patch_22">
    <path d="M 141.779318 256.774688 
L 145.335227 256.774688 
L 145.335227 256.749763 
L 141.779318 256.749763 
z
" clip-path="url(#p8b1fcc0e82)" style="stroke: #ffffff; stroke-width: 0.8; stroke-linejoin: miter"/>
   </g>
   <g id="patch_23">
    <path d="M 145.335227 256.774688 
L 148.891136 256.774688 
L 148.891136 256.731636 
L 145.335227 256.731636 
z
" clip-path="url(#p8b1fcc0e82)" style="stroke: #ffffff; stroke-width: 0.8; stroke-linejoin: miter"/>
   </g>
   <g id="patch_24">
    <path d="M 148.891136 256.774688 
L 152.447045 256.774688 
L 152.447045 256.733902 
L 148.891136 256.733902 
z
" clip-path="url(#p8b1fcc0e82)" style="stroke: #ffffff; stroke-width: 0.8; stroke-linejoin: miter"/>
   </g>
   <g id="patch_25">
    <path d="M 152.447045 256.774688 
L 156.002955 256.774688 
L 156.002955 256.738433 
L 152.447045 256.738433 
z
" clip-path="url(#p8b1fcc0e82)" style="stroke: #ffffff; stroke-width: 0.8; stroke-linejoin: miter"/>
   </g>
   <g id="patch_26">
    <path d="M 156.002955 256.774688 
L 159.558864 256.774688 
L 159.558864 256.736168 
L 156.002955 256.736168 
z
" clip-path="url(#p8b1fcc0e82)" style="stroke: #ffffff; stroke-width: 0.8; stroke-linejoin: miter"/>
   </g>
   <g id="patch_27">
    <path d="M 159.558864 256.774688 
L 163.114773 256.774688 
L 163.114773 256.742965 
L 159.558864 256.742965 
z
" clip-path="url(#p8b1fcc0e82)" style="stroke: #ffffff; stroke-width: 0.8; stroke-linejoin: miter"/>
   </g>
   <g id="patch_28">
    <path d="M 163.114773 256.774688 
L 166.670682 256.774688 
L 166.670682 256.083594 
L 163.114773 256.083594 
z
" clip-path="url(#p8b1fcc0e82)" style="stroke: #ffffff; stroke-width: 0.8; stroke-linejoin: miter"/>
   </g>
   <g id="patch_29">
    <path d="M 166.670682 256.774688 
L 170.226591 256.774688 
L 170.226591 256.727104 
L 166.670682 256.727104 
z
" clip-path="url(#p8b1fcc0e82)" style="stroke: #ffffff; stroke-width: 0.8; stroke-linejoin: miter"/>
   </g>
   <g id="patch_30">
    <path d="M 170.226591 256.774688 
L 173.7825 256.774688 
L 173.7825 256.604746 
L 170.226591 256.604746 
z
" clip-path="url(#p8b1fcc0e82)" style="stroke: #ffffff; stroke-width: 0.8; stroke-linejoin: miter"/>
   </g>
   <g id="patch_31">
    <path d="M 173.7825 256.774688 
L 177.338409 256.774688 
L 177.338409 256.681786 
L 173.7825 256.681786 
z
" clip-path="url(#p8b1fcc0e82)" style="stroke: #ffffff; stroke-width: 0.8; stroke-linejoin: miter"/>
   </g>
   <g id="patch_32">
    <path d="M 177.338409 256.774688 
L 180.894318 256.774688 
L 180.894318 256.656862 
L 177.338409 256.656862 
z
" clip-path="url(#p8b1fcc0e82)" style="stroke: #ffffff; stroke-width: 0.8; stroke-linejoin: miter"/>
   </g>
   <g id="patch_33">
    <path d="M 180.894318 256.774688 
L 184.450227 256.774688 
L 184.450227 256.665925 
L 180.894318 256.665925 
z
" clip-path="url(#p8b1fcc0e82)" style="stroke: #ffffff; stroke-width: 0.8; stroke-linejoin: miter"/>
   </g>
   <g id="patch_34">
    <path d="M 184.450227 256.774688 
L 188.006136 256.774688 
L 188.006136 256.699913 
L 184.450227 256.699913 
z
" clip-path="url(#p8b1fcc0e82)" style="stroke: #ffffff; stroke-width: 0.8; stroke-linejoin: miter"/>
   </g>
   <g id="patch_35">
    <path d="M 188.006136 256.774688 
L 191.562045 256.774688 
L 191.562045 256.69085 
L 188.006136 256.69085 
z
" clip-path="url(#p8b1fcc0e82)" style="stroke: #ffffff; stroke-width: 0.8; stroke-linejoin: miter"/>
   </g>
   <g id="patch_36">
    <path d="M 191.562045 256.774688 
L 195.117955 256.774688 
L 195.117955 256.570758 
L 191.562045 256.570758 
z
" clip-path="url(#p8b1fcc0e82)" style="stroke: #ffffff; stroke-width: 0.8; stroke-linejoin: miter"/>
   </g>
   <g id="patch_37">
    <path d="M 195.117955 256.774688 
L 198.673864 256.774688 
L 198.673864 256.711243 
L 195.117955 256.711243 
z
" clip-path="url(#p8b1fcc0e82)" style="stroke: #ffffff; stroke-width: 0.8; stroke-linejoin: miter"/>
   </g>
   <g id="patch_38">
    <path d="M 198.673864 256.774688 
L 202.229773 256.774688 
L 202.229773 256.663659 
L 198.673864 256.663659 
z
" clip-path="url(#p8b1fcc0e82)" style="stroke: #ffffff; stroke-width: 0.8; stroke-linejoin: miter"/>
   </g>
   <g id="patch_39">
    <path d="M 202.229773 256.774688 
L 205.785682 256.774688 
L 205.785682 256.708977 
L 202.229773 256.708977 
z
" clip-path="url(#p8b1fcc0e82)" style="stroke: #ffffff; stroke-width: 0.8; stroke-linejoin: miter"/>
   </g>
   <g id="patch_40">
    <path d="M 205.785682 256.774688 
L 209.341591 256.774688 
L 209.341591 256.708977 
L 205.785682 256.708977 
z
" clip-path="url(#p8b1fcc0e82)" style="stroke: #ffffff; stroke-width: 0.8; stroke-linejoin: miter"/>
   </g>
   <g id="patch_41">
    <path d="M 209.341591 256.774688 
L 212.8975 256.774688 
L 212.8975 256.693116 
L 209.341591 256.693116 
z
" clip-path="url(#p8b1fcc0e82)" style="stroke: #ffffff; stroke-width: 0.8; stroke-linejoin: miter"/>
   </g>
   <g id="patch_42">
    <path d="M 212.8975 256.774688 
L 216.453409 256.774688 
L 216.453409 256.724838 
L 212.8975 256.724838 
z
" clip-path="url(#p8b1fcc0e82)" style="stroke: #ffffff; stroke-width: 0.8; stroke-linejoin: miter"/>
   </g>
   <g id="patch_43">
    <path d="M 216.453409 256.774688 
L 220.009318 256.774688 
L 220.009318 256.552631 
L 216.453409 256.552631 
z
" clip-path="url(#p8b1fcc0e82)" style="stroke: #ffffff; stroke-width: 0.8; stroke-linejoin: miter"/>
   </g>
   <g id="patch_44">
    <path d="M 220.009318 256.774688 
L 223.565227 256.774688 
L 223.565227 256.727104 
L 220.009318 256.727104 
z
" clip-path="url(#p8b1fcc0e82)" style="stroke: #ffffff; stroke-width: 0.8; stroke-linejoin: miter"/>
   </g>
   <g id="patch_45">
    <path d="M 223.565227 256.774688 
L 227.121136 256.774688 
L 227.121136 256.665925 
L 223.565227 256.665925 
z
" clip-path="url(#p8b1fcc0e82)" style="stroke: #ffffff; stroke-width: 0.8; stroke-linejoin: miter"/>
   </g>
   <g id="patch_46">
    <path d="M 227.121136 256.774688 
L 230.677045 256.774688 
L 230.677045 256.731636 
L 227.121136 256.731636 
z
" clip-path="url(#p8b1fcc0e82)" style="stroke: #ffffff; stroke-width: 0.8; stroke-linejoin: miter"/>
   </g>
   <g id="patch_47">
    <path d="M 230.677045 256.774688 
L 234.232955 256.774688 
L 234.232955 256.706711 
L 230.677045 256.706711 
z
" clip-path="url(#p8b1fcc0e82)" style="stroke: #ffffff; stroke-width: 0.8; stroke-linejoin: miter"/>
   </g>
   <g id="patch_48">
    <path d="M 234.232955 256.774688 
L 237.788864 256.774688 
L 237.788864 256.699913 
L 234.232955 256.699913 
z
" clip-path="url(#p8b1fcc0e82)" style="stroke: #ffffff; stroke-width: 0.8; stroke-linejoin: miter"/>
   </g>
   <g id="patch_49">
    <path d="M 237.788864 256.774688 
L 241.344773 256.774688 
L 241.344773 256.715775 
L 237.788864 256.715775 
z
" clip-path="url(#p8b1fcc0e82)" style="stroke: #ffffff; stroke-width: 0.8; stroke-linejoin: miter"/>
   </g>
   <g id="patch_50">
    <path d="M 241.344773 256.774688 
L 244.900682 256.774688 
L 244.900682 256.722572 
L 241.344773 256.722572 
z
" clip-path="url(#p8b1fcc0e82)" style="stroke: #ffffff; stroke-width: 0.8; stroke-linejoin: miter"/>
   </g>
   <g id="patch_51">
    <path d="M 244.900682 256.774688 
L 248.456591 256.774688 
L 248.456591 256.670457 
L 244.900682 256.670457 
z
" clip-path="url(#p8b1fcc0e82)" style="stroke: #ffffff; stroke-width: 0.8; stroke-linejoin: miter"/>
   </g>
   <g id="patch_52">
    <path d="M 248.456591 256.774688 
L 252.0125 256.774688 
L 252.0125 256.704445 
L 248.456591 256.704445 
z
" clip-path="url(#p8b1fcc0e82)" style="stroke: #ffffff; stroke-width: 0.8; stroke-linejoin: miter"/>
   </g>
   <g id="patch_53">
    <path d="M 252.0125 256.774688 
L 255.568409 256.774688 
L 255.568409 63.1936 
L 252.0125 63.1936 
z
" clip-path="url(#p8b1fcc0e82)" style="stroke: #ffffff; stroke-width: 0.8; stroke-linejoin: miter"/>
   </g>
   <g id="patch_54">
    <path d="M 255.568409 256.774688 
L 259.124318 256.774688 
L 259.124318 256.713509 
L 255.568409 256.713509 
z
" clip-path="url(#p8b1fcc0e82)" style="stroke: #ffffff; stroke-width: 0.8; stroke-linejoin: miter"/>
   </g>
   <g id="patch_55">
    <path d="M 259.124318 256.774688 
L 262.680227 256.774688 
L 262.680227 256.711243 
L 259.124318 256.711243 
z
" clip-path="url(#p8b1fcc0e82)" style="stroke: #ffffff; stroke-width: 0.8; stroke-linejoin: miter"/>
   </g>
   <g id="patch_56">
    <path d="M 262.680227 256.774688 
L 266.236136 256.774688 
L 266.236136 256.706711 
L 262.680227 256.706711 
z
" clip-path="url(#p8b1fcc0e82)" style="stroke: #ffffff; stroke-width: 0.8; stroke-linejoin: miter"/>
   </g>
   <g id="patch_57">
    <path d="M 266.236136 256.774688 
L 269.792045 256.774688 
L 269.792045 256.724838 
L 266.236136 256.724838 
z
" clip-path="url(#p8b1fcc0e82)" style="stroke: #ffffff; stroke-width: 0.8; stroke-linejoin: miter"/>
   </g>
   <g id="patch_58">
    <path d="M 269.792045 256.774688 
L 273.347955 256.774688 
L 273.347955 256.704445 
L 269.792045 256.704445 
z
" clip-path="url(#p8b1fcc0e82)" style="stroke: #ffffff; stroke-width: 0.8; stroke-linejoin: miter"/>
   </g>
   <g id="patch_59">
    <path d="M 273.347955 256.774688 
L 276.903864 256.774688 
L 276.903864 256.727104 
L 273.347955 256.727104 
z
" clip-path="url(#p8b1fcc0e82)" style="stroke: #ffffff; stroke-width: 0.8; stroke-linejoin: miter"/>
   </g>
   <g id="patch_60">
    <path d="M 276.903864 256.774688 
L 280.459773 256.774688 
L 280.459773 256.554897 
L 276.903864 256.554897 
z
" clip-path="url(#p8b1fcc0e82)" style="stroke: #ffffff; stroke-width: 0.8; stroke-linejoin: miter"/>
   </g>
   <g id="patch_61">
    <path d="M 280.459773 256.774688 
L 284.015682 256.774688 
L 284.015682 256.713509 
L 280.459773 256.713509 
z
" clip-path="url(#p8b1fcc0e82)" style="stroke: #ffffff; stroke-width: 0.8; stroke-linejoin: miter"/>
   </g>
   <g id="patch_62">
    <path d="M 284.015682 256.774688 
L 287.571591 256.774688 
L 287.571591 256.668191 
L 284.015682 256.668191 
z
" clip-path="url(#p8b1fcc0e82)" style="stroke: #ffffff; stroke-width: 0.8; stroke-linejoin: miter"/>
   </g>
   <g id="patch_63">
    <path d="M 287.571591 256.774688 
L 291.1275 256.774688 
L 291.1275 256.697648 
L 287.571591 256.697648 
z
" clip-path="url(#p8b1fcc0e82)" style="stroke: #ffffff; stroke-width: 0.8; stroke-linejoin: miter"/>
   </g>
   <g id="patch_64">
    <path d="M 291.1275 256.774688 
L 294.683409 256.774688 
L 294.683409 256.677255 
L 291.1275 256.677255 
z
" clip-path="url(#p8b1fcc0e82)" style="stroke: #ffffff; stroke-width: 0.8; stroke-linejoin: miter"/>
   </g>
   <g id="patch_65">
    <path d="M 294.683409 256.774688 
L 298.239318 256.774688 
L 298.239318 256.636469 
L 294.683409 256.636469 
z
" clip-path="url(#p8b1fcc0e82)" style="stroke: #ffffff; stroke-width: 0.8; stroke-linejoin: miter"/>
   </g>
   <g id="patch_66">
    <path d="M 298.239318 256.774688 
L 301.795227 256.774688 
L 301.795227 256.706711 
L 298.239318 256.706711 
z
" clip-path="url(#p8b1fcc0e82)" style="stroke: #ffffff; stroke-width: 0.8; stroke-linejoin: miter"/>
   </g>
   <g id="patch_67">
    <path d="M 301.795227 256.774688 
L 305.351136 256.774688 
L 305.351136 256.711243 
L 301.795227 256.711243 
z
" clip-path="url(#p8b1fcc0e82)" style="stroke: #ffffff; stroke-width: 0.8; stroke-linejoin: miter"/>
   </g>
   <g id="patch_68">
    <path d="M 305.351136 256.774688 
L 308.907045 256.774688 
L 308.907045 256.693116 
L 305.351136 256.693116 
z
" clip-path="url(#p8b1fcc0e82)" style="stroke: #ffffff; stroke-width: 0.8; stroke-linejoin: miter"/>
   </g>
   <g id="patch_69">
    <path d="M 308.907045 256.774688 
L 312.462955 256.774688 
L 312.462955 256.686318 
L 308.907045 256.686318 
z
" clip-path="url(#p8b1fcc0e82)" style="stroke: #ffffff; stroke-width: 0.8; stroke-linejoin: miter"/>
   </g>
   <g id="patch_70">
    <path d="M 312.462955 256.774688 
L 316.018864 256.774688 
L 316.018864 256.65233 
L 312.462955 256.65233 
z
" clip-path="url(#p8b1fcc0e82)" style="stroke: #ffffff; stroke-width: 0.8; stroke-linejoin: miter"/>
   </g>
   <g id="patch_71">
    <path d="M 316.018864 256.774688 
L 319.574773 256.774688 
L 319.574773 256.620608 
L 316.018864 256.620608 
z
" clip-path="url(#p8b1fcc0e82)" style="stroke: #ffffff; stroke-width: 0.8; stroke-linejoin: miter"/>
   </g>
   <g id="patch_72">
    <path d="M 319.574773 256.774688 
L 323.130682 256.774688 
L 323.130682 256.702179 
L 319.574773 256.702179 
z
" clip-path="url(#p8b1fcc0e82)" style="stroke: #ffffff; stroke-width: 0.8; stroke-linejoin: miter"/>
   </g>
   <g id="patch_73">
    <path d="M 323.130682 256.774688 
L 326.686591 256.774688 
L 326.686591 256.704445 
L 323.130682 256.704445 
z
" clip-path="url(#p8b1fcc0e82)" style="stroke: #ffffff; stroke-width: 0.8; stroke-linejoin: miter"/>
   </g>
   <g id="patch_74">
    <path d="M 326.686591 256.774688 
L 330.2425 256.774688 
L 330.2425 256.697648 
L 326.686591 256.697648 
z
" clip-path="url(#p8b1fcc0e82)" style="stroke: #ffffff; stroke-width: 0.8; stroke-linejoin: miter"/>
   </g>
   <g id="patch_75">
    <path d="M 330.2425 256.774688 
L 333.798409 256.774688 
L 333.798409 256.654596 
L 330.2425 256.654596 
z
" clip-path="url(#p8b1fcc0e82)" style="stroke: #ffffff; stroke-width: 0.8; stroke-linejoin: miter"/>
   </g>
   <g id="patch_76">
    <path d="M 333.798409 256.774688 
L 337.354318 256.774688 
L 337.354318 256.697648 
L 333.798409 256.697648 
z
" clip-path="url(#p8b1fcc0e82)" style="stroke: #ffffff; stroke-width: 0.8; stroke-linejoin: miter"/>
   </g>
   <g id="patch_77">
    <path d="M 337.354318 256.774688 
L 340.910227 256.774688 
L 340.910227 256.708977 
L 337.354318 256.708977 
z
" clip-path="url(#p8b1fcc0e82)" style="stroke: #ffffff; stroke-width: 0.8; stroke-linejoin: miter"/>
   </g>
   <g id="patch_78">
    <path d="M 340.910227 256.774688 
L 344.466136 256.774688 
L 344.466136 256.724838 
L 340.910227 256.724838 
z
" clip-path="url(#p8b1fcc0e82)" style="stroke: #ffffff; stroke-width: 0.8; stroke-linejoin: miter"/>
   </g>
   <g id="patch_79">
    <path d="M 344.466136 256.774688 
L 348.022045 256.774688 
L 348.022045 256.686318 
L 344.466136 256.686318 
z
" clip-path="url(#p8b1fcc0e82)" style="stroke: #ffffff; stroke-width: 0.8; stroke-linejoin: miter"/>
   </g>
   <g id="patch_80">
    <path d="M 348.022045 256.774688 
L 351.577955 256.774688 
L 351.577955 256.688584 
L 348.022045 256.688584 
z
" clip-path="url(#p8b1fcc0e82)" style="stroke: #ffffff; stroke-width: 0.8; stroke-linejoin: miter"/>
   </g>
   <g id="patch_81">
    <path d="M 351.577955 256.774688 
L 355.133864 256.774688 
L 355.133864 256.704445 
L 351.577955 256.704445 
z
" clip-path="url(#p8b1fcc0e82)" style="stroke: #ffffff; stroke-width: 0.8; stroke-linejoin: miter"/>
   </g>
   <g id="patch_82">
    <path d="M 355.133864 256.774688 
L 358.689773 256.774688 
L 358.689773 256.69085 
L 355.133864 256.69085 
z
" clip-path="url(#p8b1fcc0e82)" style="stroke: #ffffff; stroke-width: 0.8; stroke-linejoin: miter"/>
   </g>
   <g id="patch_83">
    <path d="M 358.689773 256.774688 
L 362.245682 256.774688 
L 362.245682 256.629671 
L 358.689773 256.629671 
z
" clip-path="url(#p8b1fcc0e82)" style="stroke: #ffffff; stroke-width: 0.8; stroke-linejoin: miter"/>
   </g>
   <g id="patch_84">
    <path d="M 362.245682 256.774688 
L 365.801591 256.774688 
L 365.801591 256.724838 
L 362.245682 256.724838 
z
" clip-path="url(#p8b1fcc0e82)" style="stroke: #ffffff; stroke-width: 0.8; stroke-linejoin: miter"/>
   </g>
   <g id="patch_85">
    <path d="M 365.801591 256.774688 
L 369.3575 256.774688 
L 369.3575 256.634203 
L 365.801591 256.634203 
z
" clip-path="url(#p8b1fcc0e82)" style="stroke: #ffffff; stroke-width: 0.8; stroke-linejoin: miter"/>
   </g>
   <g id="patch_86">
    <path d="M 369.3575 256.774688 
L 372.913409 256.774688 
L 372.913409 256.559429 
L 369.3575 256.559429 
z
" clip-path="url(#p8b1fcc0e82)" style="stroke: #ffffff; stroke-width: 0.8; stroke-linejoin: miter"/>
   </g>
   <g id="patch_87">
    <path d="M 372.913409 256.774688 
L 376.469318 256.774688 
L 376.469318 256.414412 
L 372.913409 256.414412 
z
" clip-path="url(#p8b1fcc0e82)" style="stroke: #ffffff; stroke-width: 0.8; stroke-linejoin: miter"/>
   </g>
   <g id="patch_88">
    <path d="M 376.469318 256.774688 
L 380.025227 256.774688 
L 380.025227 256.369095 
L 376.469318 256.369095 
z
" clip-path="url(#p8b1fcc0e82)" style="stroke: #ffffff; stroke-width: 0.8; stroke-linejoin: miter"/>
   </g>
   <g id="patch_89">
    <path d="M 380.025227 256.774688 
L 383.581136 256.774688 
L 383.581136 256.484655 
L 380.025227 256.484655 
z
" clip-path="url(#p8b1fcc0e82)" style="stroke: #ffffff; stroke-width: 0.8; stroke-linejoin: miter"/>
   </g>
   <g id="patch_90">
    <path d="M 383.581136 256.774688 
L 387.137045 256.774688 
L 387.137045 256.058669 
L 383.581136 256.058669 
z
" clip-path="url(#p8b1fcc0e82)" style="stroke: #ffffff; stroke-width: 0.8; stroke-linejoin: miter"/>
   </g>
   <g id="patch_91">
    <path d="M 387.137045 256.774688 
L 390.692955 256.774688 
L 390.692955 256.321511 
L 387.137045 256.321511 
z
" clip-path="url(#p8b1fcc0e82)" style="stroke: #ffffff; stroke-width: 0.8; stroke-linejoin: miter"/>
   </g>
   <g id="patch_92">
    <path d="M 390.692955 256.774688 
L 394.248864 256.774688 
L 394.248864 256.332841 
L 390.692955 256.332841 
z
" clip-path="url(#p8b1fcc0e82)" style="stroke: #ffffff; stroke-width: 0.8; stroke-linejoin: miter"/>
   </g>
   <g id="patch_93">
    <path d="M 394.248864 256.774688 
L 397.804773 256.774688 
L 397.804773 256.339638 
L 394.248864 256.339638 
z
" clip-path="url(#p8b1fcc0e82)" style="stroke: #ffffff; stroke-width: 0.8; stroke-linejoin: miter"/>
   </g>
   <g id="patch_94">
    <path d="M 397.804773 256.774688 
L 401.360682 256.774688 
L 401.360682 253.842636 
L 397.804773 253.842636 
z
" clip-path="url(#p8b1fcc0e82)" style="stroke: #ffffff; stroke-width: 0.8; stroke-linejoin: miter"/>
   </g>
   <g id="patch_95">
    <path d="M 401.360682 256.774688 
L 404.916591 256.774688 
L 404.916591 255.868335 
L 401.360682 255.868335 
z
" clip-path="url(#p8b1fcc0e82)" style="stroke: #ffffff; stroke-width: 0.8; stroke-linejoin: miter"/>
   </g>
   <g id="patch_96">
    <path d="M 404.916591 256.774688 
L 408.4725 256.774688 
L 408.4725 254.941589 
L 404.916591 254.941589 
z
" clip-path="url(#p8b1fcc0e82)" style="stroke: #ffffff; stroke-width: 0.8; stroke-linejoin: miter"/>
   </g>
   <g id="patch_97">
    <path d="M 408.4725 256.774688 
L 412.028409 256.774688 
L 412.028409 252.743684 
L 408.4725 252.743684 
z
" clip-path="url(#p8b1fcc0e82)" style="stroke: #ffffff; stroke-width: 0.8; stroke-linejoin: miter"/>
   </g>
   <g id="patch_98">
    <path d="M 412.028409 256.774688 
L 415.584318 256.774688 
L 415.584318 252.530691 
L 412.028409 252.530691 
z
" clip-path="url(#p8b1fcc0e82)" style="stroke: #ffffff; stroke-width: 0.8; stroke-linejoin: miter"/>
   </g>
   <g id="patch_99">
    <path d="M 415.584318 256.774688 
L 419.140227 256.774688 
L 419.140227 248.884887 
L 415.584318 248.884887 
z
" clip-path="url(#p8b1fcc0e82)" style="stroke: #ffffff; stroke-width: 0.8; stroke-linejoin: miter"/>
   </g>
   <g id="patch_100">
    <path d="M 419.140227 256.774688 
L 422.696136 256.774688 
L 422.696136 241.856121 
L 419.140227 241.856121 
z
" clip-path="url(#p8b1fcc0e82)" style="stroke: #ffffff; stroke-width: 0.8; stroke-linejoin: miter"/>
   </g>
   <g id="patch_101">
    <path d="M 422.696136 256.774688 
L 426.252045 256.774688 
L 426.252045 236.209544 
L 422.696136 236.209544 
z
" clip-path="url(#p8b1fcc0e82)" style="stroke: #ffffff; stroke-width: 0.8; stroke-linejoin: miter"/>
   </g>
   <g id="patch_102">
    <path d="M 426.252045 256.774688 
L 429.807955 256.774688 
L 429.807955 31.73183 
L 426.252045 31.73183 
z
" clip-path="url(#p8b1fcc0e82)" style="stroke: #ffffff; stroke-width: 0.8; stroke-linejoin: miter"/>
   </g>
   <g id="patch_103">
    <path d="M 56.4375 256.774688 
L 56.4375 20.479687 
" style="fill: none; stroke: #262626; stroke-width: 0.8; stroke-linejoin: miter; stroke-linecap: square"/>
   </g>
   <g id="patch_104">
    <path d="M 56.4375 256.774688 
L 447.5875 256.774688 
" style="fill: none; stroke: #262626; stroke-width: 0.8; stroke-linejoin: miter; stroke-linecap: square"/>
   </g>
   <g id="text_16">
    <!-- Fructose Import -->
    <g style="fill: #262626" transform="translate(217.005469 14.479687) scale(0.1 -0.1)">
     <defs>
      <path id="ArialMT-46" d="M 525 0 
L 525 4581 
L 3616 4581 
L 3616 4041 
L 1131 4041 
L 1131 2622 
L 3281 2622 
L 3281 2081 
L 1131 2081 
L 1131 0 
L 525 0 
z
" transform="scale(0.015625)"/>
      <path id="ArialMT-75" d="M 2597 0 
L 2597 488 
Q 2209 -75 1544 -75 
Q 1250 -75 995 37 
Q 741 150 617 320 
Q 494 491 444 738 
Q 409 903 409 1263 
L 409 3319 
L 972 3319 
L 972 1478 
Q 972 1038 1006 884 
Q 1059 663 1231 536 
Q 1403 409 1656 409 
Q 1909 409 2131 539 
Q 2353 669 2445 892 
Q 2538 1116 2538 1541 
L 2538 3319 
L 3100 3319 
L 3100 0 
L 2597 0 
z
" transform="scale(0.015625)"/>
      <path id="ArialMT-49" d="M 597 0 
L 597 4581 
L 1203 4581 
L 1203 0 
L 597 0 
z
" transform="scale(0.015625)"/>
      <path id="ArialMT-6d" d="M 422 0 
L 422 3319 
L 925 3319 
L 925 2853 
Q 1081 3097 1340 3245 
Q 1600 3394 1931 3394 
Q 2300 3394 2536 3241 
Q 2772 3088 2869 2813 
Q 3263 3394 3894 3394 
Q 4388 3394 4653 3120 
Q 4919 2847 4919 2278 
L 4919 0 
L 4359 0 
L 4359 2091 
Q 4359 2428 4304 2576 
Q 4250 2725 4106 2815 
Q 3963 2906 3769 2906 
Q 3419 2906 3187 2673 
Q 2956 2441 2956 1928 
L 2956 0 
L 2394 0 
L 2394 2156 
Q 2394 2531 2256 2718 
Q 2119 2906 1806 2906 
Q 1569 2906 1367 2781 
Q 1166 2656 1075 2415 
Q 984 2175 984 1722 
L 984 0 
L 422 0 
z
" transform="scale(0.015625)"/>
      <path id="ArialMT-70" d="M 422 -1272 
L 422 3319 
L 934 3319 
L 934 2888 
Q 1116 3141 1344 3267 
Q 1572 3394 1897 3394 
Q 2322 3394 2647 3175 
Q 2972 2956 3137 2557 
Q 3303 2159 3303 1684 
Q 3303 1175 3120 767 
Q 2938 359 2589 142 
Q 2241 -75 1856 -75 
Q 1575 -75 1351 44 
Q 1128 163 984 344 
L 984 -1272 
L 422 -1272 
z
M 931 1641 
Q 931 1000 1190 694 
Q 1450 388 1819 388 
Q 2194 388 2461 705 
Q 2728 1022 2728 1688 
Q 2728 2322 2467 2637 
Q 2206 2953 1844 2953 
Q 1484 2953 1207 2617 
Q 931 2281 931 1641 
z
" transform="scale(0.015625)"/>
     </defs>
     <use xlink:href="#ArialMT-46"/>
     <use xlink:href="#ArialMT-72" transform="translate(61.083984 0)"/>
     <use xlink:href="#ArialMT-75" transform="translate(94.384766 0)"/>
     <use xlink:href="#ArialMT-63" transform="translate(150 0)"/>
     <use xlink:href="#ArialMT-74" transform="translate(200 0)"/>
     <use xlink:href="#ArialMT-6f" transform="translate(227.783203 0)"/>
     <use xlink:href="#ArialMT-73" transform="translate(283.398438 0)"/>
     <use xlink:href="#ArialMT-65" transform="translate(333.398438 0)"/>
     <use xlink:href="#ArialMT-20" transform="translate(389.013672 0)"/>
     <use xlink:href="#ArialMT-49" transform="translate(416.796875 0)"/>
     <use xlink:href="#ArialMT-6d" transform="translate(444.580078 0)"/>
     <use xlink:href="#ArialMT-70" transform="translate(527.880859 0)"/>
     <use xlink:href="#ArialMT-6f" transform="translate(583.496094 0)"/>
     <use xlink:href="#ArialMT-72" transform="translate(639.111328 0)"/>
     <use xlink:href="#ArialMT-74" transform="translate(672.412109 0)"/>
    </g>
   </g>
  </g>
  <g id="axes_2">
   <g id="patch_105">
    <path d="M 458.3875 256.774688 
L 849.5375 256.774688 
L 849.5375 20.479687 
L 458.3875 20.479687 
z
" style="fill: #ffffff"/>
   </g>
   <g id="matplotlib.axis_3">
    <g id="xtick_7">
     <g id="text_17">
      <!-- 0.0 -->
      <g style="fill: #262626" transform="translate(469.217045 271.4325) scale(0.1 -0.1)">
       <use xlink:href="#ArialMT-30"/>
       <use xlink:href="#ArialMT-2e" transform="translate(55.615234 0)"/>
       <use xlink:href="#ArialMT-30" transform="translate(83.398438 0)"/>
      </g>
     </g>
    </g>
    <g id="xtick_8">
     <g id="text_18">
      <!-- 0.2 -->
      <g style="fill: #262626" transform="translate(540.335227 271.4325) scale(0.1 -0.1)">
       <use xlink:href="#ArialMT-30"/>
       <use xlink:href="#ArialMT-2e" transform="translate(55.615234 0)"/>
       <use xlink:href="#ArialMT-32" transform="translate(83.398438 0)"/>
      </g>
     </g>
    </g>
    <g id="xtick_9">
     <g id="text_19">
      <!-- 0.4 -->
      <g style="fill: #262626" transform="translate(611.453409 271.4325) scale(0.1 -0.1)">
       <use xlink:href="#ArialMT-30"/>
       <use xlink:href="#ArialMT-2e" transform="translate(55.615234 0)"/>
       <use xlink:href="#ArialMT-34" transform="translate(83.398438 0)"/>
      </g>
     </g>
    </g>
    <g id="xtick_10">
     <g id="text_20">
      <!-- 0.6 -->
      <g style="fill: #262626" transform="translate(682.571591 271.4325) scale(0.1 -0.1)">
       <use xlink:href="#ArialMT-30"/>
       <use xlink:href="#ArialMT-2e" transform="translate(55.615234 0)"/>
       <use xlink:href="#ArialMT-36" transform="translate(83.398438 0)"/>
      </g>
     </g>
    </g>
    <g id="xtick_11">
     <g id="text_21">
      <!-- 0.8 -->
      <g style="fill: #262626" transform="translate(753.689773 271.4325) scale(0.1 -0.1)">
       <use xlink:href="#ArialMT-30"/>
       <use xlink:href="#ArialMT-2e" transform="translate(55.615234 0)"/>
       <use xlink:href="#ArialMT-38" transform="translate(83.398438 0)"/>
      </g>
     </g>
    </g>
    <g id="xtick_12">
     <g id="text_22">
      <!-- 1.0 -->
      <g style="fill: #262626" transform="translate(824.807955 271.4325) scale(0.1 -0.1)">
       <use xlink:href="#ArialMT-31"/>
       <use xlink:href="#ArialMT-2e" transform="translate(55.615234 0)"/>
       <use xlink:href="#ArialMT-30" transform="translate(83.398438 0)"/>
      </g>
     </g>
    </g>
   </g>
   <g id="matplotlib.axis_4">
    <g id="ytick_9"/>
    <g id="ytick_10"/>
    <g id="ytick_11"/>
    <g id="ytick_12"/>
    <g id="ytick_13"/>
    <g id="ytick_14"/>
    <g id="ytick_15"/>
    <g id="ytick_16"/>
   </g>
   <g id="patch_106">
    <path d="M 476.167045 256.774688 
L 479.722955 256.774688 
L 479.722955 31.73183 
L 476.167045 31.73183 
z
" clip-path="url(#p2e37d7c199)" style="stroke: #ffffff; stroke-width: 0.8; stroke-linejoin: miter"/>
   </g>
   <g id="patch_107">
    <path d="M 479.722955 256.774688 
L 483.278864 256.774688 
L 483.278864 236.209544 
L 479.722955 236.209544 
z
" clip-path="url(#p2e37d7c199)" style="stroke: #ffffff; stroke-width: 0.8; stroke-linejoin: miter"/>
   </g>
   <g id="patch_108">
    <path d="M 483.278864 256.774688 
L 486.834773 256.774688 
L 486.834773 241.856121 
L 483.278864 241.856121 
z
" clip-path="url(#p2e37d7c199)" style="stroke: #ffffff; stroke-width: 0.8; stroke-linejoin: miter"/>
   </g>
   <g id="patch_109">
    <path d="M 486.834773 256.774688 
L 490.390682 256.774688 
L 490.390682 248.884887 
L 486.834773 248.884887 
z
" clip-path="url(#p2e37d7c199)" style="stroke: #ffffff; stroke-width: 0.8; stroke-linejoin: miter"/>
   </g>
   <g id="patch_110">
    <path d="M 490.390682 256.774688 
L 493.946591 256.774688 
L 493.946591 252.530691 
L 490.390682 252.530691 
z
" clip-path="url(#p2e37d7c199)" style="stroke: #ffffff; stroke-width: 0.8; stroke-linejoin: miter"/>
   </g>
   <g id="patch_111">
    <path d="M 493.946591 256.774688 
L 497.5025 256.774688 
L 497.5025 252.743684 
L 493.946591 252.743684 
z
" clip-path="url(#p2e37d7c199)" style="stroke: #ffffff; stroke-width: 0.8; stroke-linejoin: miter"/>
   </g>
   <g id="patch_112">
    <path d="M 497.5025 256.774688 
L 501.058409 256.774688 
L 501.058409 254.941589 
L 497.5025 254.941589 
z
" clip-path="url(#p2e37d7c199)" style="stroke: #ffffff; stroke-width: 0.8; stroke-linejoin: miter"/>
   </g>
   <g id="patch_113">
    <path d="M 501.058409 256.774688 
L 504.614318 256.774688 
L 504.614318 255.868335 
L 501.058409 255.868335 
z
" clip-path="url(#p2e37d7c199)" style="stroke: #ffffff; stroke-width: 0.8; stroke-linejoin: miter"/>
   </g>
   <g id="patch_114">
    <path d="M 504.614318 256.774688 
L 508.170227 256.774688 
L 508.170227 253.842636 
L 504.614318 253.842636 
z
" clip-path="url(#p2e37d7c199)" style="stroke: #ffffff; stroke-width: 0.8; stroke-linejoin: miter"/>
   </g>
   <g id="patch_115">
    <path d="M 508.170227 256.774688 
L 511.726136 256.774688 
L 511.726136 256.339638 
L 508.170227 256.339638 
z
" clip-path="url(#p2e37d7c199)" style="stroke: #ffffff; stroke-width: 0.8; stroke-linejoin: miter"/>
   </g>
   <g id="patch_116">
    <path d="M 511.726136 256.774688 
L 515.282045 256.774688 
L 515.282045 256.332841 
L 511.726136 256.332841 
z
" clip-path="url(#p2e37d7c199)" style="stroke: #ffffff; stroke-width: 0.8; stroke-linejoin: miter"/>
   </g>
   <g id="patch_117">
    <path d="M 515.282045 256.774688 
L 518.837955 256.774688 
L 518.837955 256.321511 
L 515.282045 256.321511 
z
" clip-path="url(#p2e37d7c199)" style="stroke: #ffffff; stroke-width: 0.8; stroke-linejoin: miter"/>
   </g>
   <g id="patch_118">
    <path d="M 518.837955 256.774688 
L 522.393864 256.774688 
L 522.393864 256.058669 
L 518.837955 256.058669 
z
" clip-path="url(#p2e37d7c199)" style="stroke: #ffffff; stroke-width: 0.8; stroke-linejoin: miter"/>
   </g>
   <g id="patch_119">
    <path d="M 522.393864 256.774688 
L 525.949773 256.774688 
L 525.949773 256.484655 
L 522.393864 256.484655 
z
" clip-path="url(#p2e37d7c199)" style="stroke: #ffffff; stroke-width: 0.8; stroke-linejoin: miter"/>
   </g>
   <g id="patch_120">
    <path d="M 525.949773 256.774688 
L 529.505682 256.774688 
L 529.505682 256.369095 
L 525.949773 256.369095 
z
" clip-path="url(#p2e37d7c199)" style="stroke: #ffffff; stroke-width: 0.8; stroke-linejoin: miter"/>
   </g>
   <g id="patch_121">
    <path d="M 529.505682 256.774688 
L 533.061591 256.774688 
L 533.061591 256.414412 
L 529.505682 256.414412 
z
" clip-path="url(#p2e37d7c199)" style="stroke: #ffffff; stroke-width: 0.8; stroke-linejoin: miter"/>
   </g>
   <g id="patch_122">
    <path d="M 533.061591 256.774688 
L 536.6175 256.774688 
L 536.6175 256.559429 
L 533.061591 256.559429 
z
" clip-path="url(#p2e37d7c199)" style="stroke: #ffffff; stroke-width: 0.8; stroke-linejoin: miter"/>
   </g>
   <g id="patch_123">
    <path d="M 536.6175 256.774688 
L 540.173409 256.774688 
L 540.173409 256.634203 
L 536.6175 256.634203 
z
" clip-path="url(#p2e37d7c199)" style="stroke: #ffffff; stroke-width: 0.8; stroke-linejoin: miter"/>
   </g>
   <g id="patch_124">
    <path d="M 540.173409 256.774688 
L 543.729318 256.774688 
L 543.729318 256.724838 
L 540.173409 256.724838 
z
" clip-path="url(#p2e37d7c199)" style="stroke: #ffffff; stroke-width: 0.8; stroke-linejoin: miter"/>
   </g>
   <g id="patch_125">
    <path d="M 543.729318 256.774688 
L 547.285227 256.774688 
L 547.285227 256.629671 
L 543.729318 256.629671 
z
" clip-path="url(#p2e37d7c199)" style="stroke: #ffffff; stroke-width: 0.8; stroke-linejoin: miter"/>
   </g>
   <g id="patch_126">
    <path d="M 547.285227 256.774688 
L 550.841136 256.774688 
L 550.841136 256.69085 
L 547.285227 256.69085 
z
" clip-path="url(#p2e37d7c199)" style="stroke: #ffffff; stroke-width: 0.8; stroke-linejoin: miter"/>
   </g>
   <g id="patch_127">
    <path d="M 550.841136 256.774688 
L 554.397045 256.774688 
L 554.397045 256.704445 
L 550.841136 256.704445 
z
" clip-path="url(#p2e37d7c199)" style="stroke: #ffffff; stroke-width: 0.8; stroke-linejoin: miter"/>
   </g>
   <g id="patch_128">
    <path d="M 554.397045 256.774688 
L 557.952955 256.774688 
L 557.952955 256.688584 
L 554.397045 256.688584 
z
" clip-path="url(#p2e37d7c199)" style="stroke: #ffffff; stroke-width: 0.8; stroke-linejoin: miter"/>
   </g>
   <g id="patch_129">
    <path d="M 557.952955 256.774688 
L 561.508864 256.774688 
L 561.508864 256.686318 
L 557.952955 256.686318 
z
" clip-path="url(#p2e37d7c199)" style="stroke: #ffffff; stroke-width: 0.8; stroke-linejoin: miter"/>
   </g>
   <g id="patch_130">
    <path d="M 561.508864 256.774688 
L 565.064773 256.774688 
L 565.064773 256.724838 
L 561.508864 256.724838 
z
" clip-path="url(#p2e37d7c199)" style="stroke: #ffffff; stroke-width: 0.8; stroke-linejoin: miter"/>
   </g>
   <g id="patch_131">
    <path d="M 565.064773 256.774688 
L 568.620682 256.774688 
L 568.620682 256.708977 
L 565.064773 256.708977 
z
" clip-path="url(#p2e37d7c199)" style="stroke: #ffffff; stroke-width: 0.8; stroke-linejoin: miter"/>
   </g>
   <g id="patch_132">
    <path d="M 568.620682 256.774688 
L 572.176591 256.774688 
L 572.176591 256.697648 
L 568.620682 256.697648 
z
" clip-path="url(#p2e37d7c199)" style="stroke: #ffffff; stroke-width: 0.8; stroke-linejoin: miter"/>
   </g>
   <g id="patch_133">
    <path d="M 572.176591 256.774688 
L 575.7325 256.774688 
L 575.7325 256.654596 
L 572.176591 256.654596 
z
" clip-path="url(#p2e37d7c199)" style="stroke: #ffffff; stroke-width: 0.8; stroke-linejoin: miter"/>
   </g>
   <g id="patch_134">
    <path d="M 575.7325 256.774688 
L 579.288409 256.774688 
L 579.288409 256.697648 
L 575.7325 256.697648 
z
" clip-path="url(#p2e37d7c199)" style="stroke: #ffffff; stroke-width: 0.8; stroke-linejoin: miter"/>
   </g>
   <g id="patch_135">
    <path d="M 579.288409 256.774688 
L 582.844318 256.774688 
L 582.844318 256.704445 
L 579.288409 256.704445 
z
" clip-path="url(#p2e37d7c199)" style="stroke: #ffffff; stroke-width: 0.8; stroke-linejoin: miter"/>
   </g>
   <g id="patch_136">
    <path d="M 582.844318 256.774688 
L 586.400227 256.774688 
L 586.400227 256.702179 
L 582.844318 256.702179 
z
" clip-path="url(#p2e37d7c199)" style="stroke: #ffffff; stroke-width: 0.8; stroke-linejoin: miter"/>
   </g>
   <g id="patch_137">
    <path d="M 586.400227 256.774688 
L 589.956136 256.774688 
L 589.956136 256.620608 
L 586.400227 256.620608 
z
" clip-path="url(#p2e37d7c199)" style="stroke: #ffffff; stroke-width: 0.8; stroke-linejoin: miter"/>
   </g>
   <g id="patch_138">
    <path d="M 589.956136 256.774688 
L 593.512045 256.774688 
L 593.512045 256.65233 
L 589.956136 256.65233 
z
" clip-path="url(#p2e37d7c199)" style="stroke: #ffffff; stroke-width: 0.8; stroke-linejoin: miter"/>
   </g>
   <g id="patch_139">
    <path d="M 593.512045 256.774688 
L 597.067955 256.774688 
L 597.067955 256.686318 
L 593.512045 256.686318 
z
" clip-path="url(#p2e37d7c199)" style="stroke: #ffffff; stroke-width: 0.8; stroke-linejoin: miter"/>
   </g>
   <g id="patch_140">
    <path d="M 597.067955 256.774688 
L 600.623864 256.774688 
L 600.623864 256.693116 
L 597.067955 256.693116 
z
" clip-path="url(#p2e37d7c199)" style="stroke: #ffffff; stroke-width: 0.8; stroke-linejoin: miter"/>
   </g>
   <g id="patch_141">
    <path d="M 600.623864 256.774688 
L 604.179773 256.774688 
L 604.179773 256.711243 
L 600.623864 256.711243 
z
" clip-path="url(#p2e37d7c199)" style="stroke: #ffffff; stroke-width: 0.8; stroke-linejoin: miter"/>
   </g>
   <g id="patch_142">
    <path d="M 604.179773 256.774688 
L 607.735682 256.774688 
L 607.735682 256.706711 
L 604.179773 256.706711 
z
" clip-path="url(#p2e37d7c199)" style="stroke: #ffffff; stroke-width: 0.8; stroke-linejoin: miter"/>
   </g>
   <g id="patch_143">
    <path d="M 607.735682 256.774688 
L 611.291591 256.774688 
L 611.291591 256.636469 
L 607.735682 256.636469 
z
" clip-path="url(#p2e37d7c199)" style="stroke: #ffffff; stroke-width: 0.8; stroke-linejoin: miter"/>
   </g>
   <g id="patch_144">
    <path d="M 611.291591 256.774688 
L 614.8475 256.774688 
L 614.8475 256.677255 
L 611.291591 256.677255 
z
" clip-path="url(#p2e37d7c199)" style="stroke: #ffffff; stroke-width: 0.8; stroke-linejoin: miter"/>
   </g>
   <g id="patch_145">
    <path d="M 614.8475 256.774688 
L 618.403409 256.774688 
L 618.403409 256.697648 
L 614.8475 256.697648 
z
" clip-path="url(#p2e37d7c199)" style="stroke: #ffffff; stroke-width: 0.8; stroke-linejoin: miter"/>
   </g>
   <g id="patch_146">
    <path d="M 618.403409 256.774688 
L 621.959318 256.774688 
L 621.959318 256.668191 
L 618.403409 256.668191 
z
" clip-path="url(#p2e37d7c199)" style="stroke: #ffffff; stroke-width: 0.8; stroke-linejoin: miter"/>
   </g>
   <g id="patch_147">
    <path d="M 621.959318 256.774688 
L 625.515227 256.774688 
L 625.515227 256.713509 
L 621.959318 256.713509 
z
" clip-path="url(#p2e37d7c199)" style="stroke: #ffffff; stroke-width: 0.8; stroke-linejoin: miter"/>
   </g>
   <g id="patch_148">
    <path d="M 625.515227 256.774688 
L 629.071136 256.774688 
L 629.071136 256.554897 
L 625.515227 256.554897 
z
" clip-path="url(#p2e37d7c199)" style="stroke: #ffffff; stroke-width: 0.8; stroke-linejoin: miter"/>
   </g>
   <g id="patch_149">
    <path d="M 629.071136 256.774688 
L 632.627045 256.774688 
L 632.627045 256.727104 
L 629.071136 256.727104 
z
" clip-path="url(#p2e37d7c199)" style="stroke: #ffffff; stroke-width: 0.8; stroke-linejoin: miter"/>
   </g>
   <g id="patch_150">
    <path d="M 632.627045 256.774688 
L 636.182955 256.774688 
L 636.182955 256.704445 
L 632.627045 256.704445 
z
" clip-path="url(#p2e37d7c199)" style="stroke: #ffffff; stroke-width: 0.8; stroke-linejoin: miter"/>
   </g>
   <g id="patch_151">
    <path d="M 636.182955 256.774688 
L 639.738864 256.774688 
L 639.738864 256.724838 
L 636.182955 256.724838 
z
" clip-path="url(#p2e37d7c199)" style="stroke: #ffffff; stroke-width: 0.8; stroke-linejoin: miter"/>
   </g>
   <g id="patch_152">
    <path d="M 639.738864 256.774688 
L 643.294773 256.774688 
L 643.294773 256.706711 
L 639.738864 256.706711 
z
" clip-path="url(#p2e37d7c199)" style="stroke: #ffffff; stroke-width: 0.8; stroke-linejoin: miter"/>
   </g>
   <g id="patch_153">
    <path d="M 643.294773 256.774688 
L 646.850682 256.774688 
L 646.850682 256.724838 
L 643.294773 256.724838 
z
" clip-path="url(#p2e37d7c199)" style="stroke: #ffffff; stroke-width: 0.8; stroke-linejoin: miter"/>
   </g>
   <g id="patch_154">
    <path d="M 646.850682 256.774688 
L 650.406591 256.774688 
L 650.406591 256.699913 
L 646.850682 256.699913 
z
" clip-path="url(#p2e37d7c199)" style="stroke: #ffffff; stroke-width: 0.8; stroke-linejoin: miter"/>
   </g>
   <g id="patch_155">
    <path d="M 650.406591 256.774688 
L 653.9625 256.774688 
L 653.9625 256.722572 
L 650.406591 256.722572 
z
" clip-path="url(#p2e37d7c199)" style="stroke: #ffffff; stroke-width: 0.8; stroke-linejoin: miter"/>
   </g>
   <g id="patch_156">
    <path d="M 653.9625 256.774688 
L 657.518409 256.774688 
L 657.518409 63.175473 
L 653.9625 63.175473 
z
" clip-path="url(#p2e37d7c199)" style="stroke: #ffffff; stroke-width: 0.8; stroke-linejoin: miter"/>
   </g>
   <g id="patch_157">
    <path d="M 657.518409 256.774688 
L 661.074318 256.774688 
L 661.074318 256.670457 
L 657.518409 256.670457 
z
" clip-path="url(#p2e37d7c199)" style="stroke: #ffffff; stroke-width: 0.8; stroke-linejoin: miter"/>
   </g>
   <g id="patch_158">
    <path d="M 661.074318 256.774688 
L 664.630227 256.774688 
L 664.630227 256.722572 
L 661.074318 256.722572 
z
" clip-path="url(#p2e37d7c199)" style="stroke: #ffffff; stroke-width: 0.8; stroke-linejoin: miter"/>
   </g>
   <g id="patch_159">
    <path d="M 664.630227 256.774688 
L 668.186136 256.774688 
L 668.186136 256.715775 
L 664.630227 256.715775 
z
" clip-path="url(#p2e37d7c199)" style="stroke: #ffffff; stroke-width: 0.8; stroke-linejoin: miter"/>
   </g>
   <g id="patch_160">
    <path d="M 668.186136 256.774688 
L 671.742045 256.774688 
L 671.742045 256.699913 
L 668.186136 256.699913 
z
" clip-path="url(#p2e37d7c199)" style="stroke: #ffffff; stroke-width: 0.8; stroke-linejoin: miter"/>
   </g>
   <g id="patch_161">
    <path d="M 671.742045 256.774688 
L 675.297955 256.774688 
L 675.297955 256.706711 
L 671.742045 256.706711 
z
" clip-path="url(#p2e37d7c199)" style="stroke: #ffffff; stroke-width: 0.8; stroke-linejoin: miter"/>
   </g>
   <g id="patch_162">
    <path d="M 675.297955 256.774688 
L 678.853864 256.774688 
L 678.853864 256.731636 
L 675.297955 256.731636 
z
" clip-path="url(#p2e37d7c199)" style="stroke: #ffffff; stroke-width: 0.8; stroke-linejoin: miter"/>
   </g>
   <g id="patch_163">
    <path d="M 678.853864 256.774688 
L 682.409773 256.774688 
L 682.409773 256.665925 
L 678.853864 256.665925 
z
" clip-path="url(#p2e37d7c199)" style="stroke: #ffffff; stroke-width: 0.8; stroke-linejoin: miter"/>
   </g>
   <g id="patch_164">
    <path d="M 682.409773 256.774688 
L 685.965682 256.774688 
L 685.965682 256.727104 
L 682.409773 256.727104 
z
" clip-path="url(#p2e37d7c199)" style="stroke: #ffffff; stroke-width: 0.8; stroke-linejoin: miter"/>
   </g>
   <g id="patch_165">
    <path d="M 685.965682 256.774688 
L 689.521591 256.774688 
L 689.521591 256.674989 
L 685.965682 256.674989 
z
" clip-path="url(#p2e37d7c199)" style="stroke: #ffffff; stroke-width: 0.8; stroke-linejoin: miter"/>
   </g>
   <g id="patch_166">
    <path d="M 689.521591 256.774688 
L 693.0775 256.774688 
L 693.0775 256.60248 
L 689.521591 256.60248 
z
" clip-path="url(#p2e37d7c199)" style="stroke: #ffffff; stroke-width: 0.8; stroke-linejoin: miter"/>
   </g>
   <g id="patch_167">
    <path d="M 693.0775 256.774688 
L 696.633409 256.774688 
L 696.633409 256.693116 
L 693.0775 256.693116 
z
" clip-path="url(#p2e37d7c199)" style="stroke: #ffffff; stroke-width: 0.8; stroke-linejoin: miter"/>
   </g>
   <g id="patch_168">
    <path d="M 696.633409 256.774688 
L 700.189318 256.774688 
L 700.189318 256.708977 
L 696.633409 256.708977 
z
" clip-path="url(#p2e37d7c199)" style="stroke: #ffffff; stroke-width: 0.8; stroke-linejoin: miter"/>
   </g>
   <g id="patch_169">
    <path d="M 700.189318 256.774688 
L 703.745227 256.774688 
L 703.745227 256.708977 
L 700.189318 256.708977 
z
" clip-path="url(#p2e37d7c199)" style="stroke: #ffffff; stroke-width: 0.8; stroke-linejoin: miter"/>
   </g>
   <g id="patch_170">
    <path d="M 703.745227 256.774688 
L 707.301136 256.774688 
L 707.301136 256.663659 
L 703.745227 256.663659 
z
" clip-path="url(#p2e37d7c199)" style="stroke: #ffffff; stroke-width: 0.8; stroke-linejoin: miter"/>
   </g>
   <g id="patch_171">
    <path d="M 707.301136 256.774688 
L 710.857045 256.774688 
L 710.857045 256.711243 
L 707.301136 256.711243 
z
" clip-path="url(#p2e37d7c199)" style="stroke: #ffffff; stroke-width: 0.8; stroke-linejoin: miter"/>
   </g>
   <g id="patch_172">
    <path d="M 710.857045 256.774688 
L 714.412955 256.774688 
L 714.412955 256.570758 
L 710.857045 256.570758 
z
" clip-path="url(#p2e37d7c199)" style="stroke: #ffffff; stroke-width: 0.8; stroke-linejoin: miter"/>
   </g>
   <g id="patch_173">
    <path d="M 714.412955 256.774688 
L 717.968864 256.774688 
L 717.968864 256.69085 
L 714.412955 256.69085 
z
" clip-path="url(#p2e37d7c199)" style="stroke: #ffffff; stroke-width: 0.8; stroke-linejoin: miter"/>
   </g>
   <g id="patch_174">
    <path d="M 717.968864 256.774688 
L 721.524773 256.774688 
L 721.524773 256.699913 
L 717.968864 256.699913 
z
" clip-path="url(#p2e37d7c199)" style="stroke: #ffffff; stroke-width: 0.8; stroke-linejoin: miter"/>
   </g>
   <g id="patch_175">
    <path d="M 721.524773 256.774688 
L 725.080682 256.774688 
L 725.080682 256.665925 
L 721.524773 256.665925 
z
" clip-path="url(#p2e37d7c199)" style="stroke: #ffffff; stroke-width: 0.8; stroke-linejoin: miter"/>
   </g>
   <g id="patch_176">
    <path d="M 725.080682 256.774688 
L 728.636591 256.774688 
L 728.636591 256.656862 
L 725.080682 256.656862 
z
" clip-path="url(#p2e37d7c199)" style="stroke: #ffffff; stroke-width: 0.8; stroke-linejoin: miter"/>
   </g>
   <g id="patch_177">
    <path d="M 728.636591 256.774688 
L 732.1925 256.774688 
L 732.1925 256.681786 
L 728.636591 256.681786 
z
" clip-path="url(#p2e37d7c199)" style="stroke: #ffffff; stroke-width: 0.8; stroke-linejoin: miter"/>
   </g>
   <g id="patch_178">
    <path d="M 732.1925 256.774688 
L 735.748409 256.774688 
L 735.748409 256.604746 
L 732.1925 256.604746 
z
" clip-path="url(#p2e37d7c199)" style="stroke: #ffffff; stroke-width: 0.8; stroke-linejoin: miter"/>
   </g>
   <g id="patch_179">
    <path d="M 735.748409 256.774688 
L 739.304318 256.774688 
L 739.304318 256.727104 
L 735.748409 256.727104 
z
" clip-path="url(#p2e37d7c199)" style="stroke: #ffffff; stroke-width: 0.8; stroke-linejoin: miter"/>
   </g>
   <g id="patch_180">
    <path d="M 739.304318 256.774688 
L 742.860227 256.774688 
L 742.860227 256.668191 
L 739.304318 256.668191 
z
" clip-path="url(#p2e37d7c199)" style="stroke: #ffffff; stroke-width: 0.8; stroke-linejoin: miter"/>
   </g>
   <g id="patch_181">
    <path d="M 742.860227 256.774688 
L 746.416136 256.774688 
L 746.416136 256.158368 
L 742.860227 256.158368 
z
" clip-path="url(#p2e37d7c199)" style="stroke: #ffffff; stroke-width: 0.8; stroke-linejoin: miter"/>
   </g>
   <g id="patch_182">
    <path d="M 746.416136 256.774688 
L 749.972045 256.774688 
L 749.972045 256.736168 
L 746.416136 256.736168 
z
" clip-path="url(#p2e37d7c199)" style="stroke: #ffffff; stroke-width: 0.8; stroke-linejoin: miter"/>
   </g>
   <g id="patch_183">
    <path d="M 749.972045 256.774688 
L 753.527955 256.774688 
L 753.527955 256.738433 
L 749.972045 256.738433 
z
" clip-path="url(#p2e37d7c199)" style="stroke: #ffffff; stroke-width: 0.8; stroke-linejoin: miter"/>
   </g>
   <g id="patch_184">
    <path d="M 753.527955 256.774688 
L 757.083864 256.774688 
L 757.083864 256.733902 
L 753.527955 256.733902 
z
" clip-path="url(#p2e37d7c199)" style="stroke: #ffffff; stroke-width: 0.8; stroke-linejoin: miter"/>
   </g>
   <g id="patch_185">
    <path d="M 757.083864 256.774688 
L 760.639773 256.774688 
L 760.639773 256.731636 
L 757.083864 256.731636 
z
" clip-path="url(#p2e37d7c199)" style="stroke: #ffffff; stroke-width: 0.8; stroke-linejoin: miter"/>
   </g>
   <g id="patch_186">
    <path d="M 760.639773 256.774688 
L 764.195682 256.774688 
L 764.195682 256.749763 
L 760.639773 256.749763 
z
" clip-path="url(#p2e37d7c199)" style="stroke: #ffffff; stroke-width: 0.8; stroke-linejoin: miter"/>
   </g>
   <g id="patch_187">
    <path d="M 764.195682 256.774688 
L 767.751591 256.774688 
L 767.751591 256.747497 
L 764.195682 256.747497 
z
" clip-path="url(#p2e37d7c199)" style="stroke: #ffffff; stroke-width: 0.8; stroke-linejoin: miter"/>
   </g>
   <g id="patch_188">
    <path d="M 767.751591 256.774688 
L 771.3075 256.774688 
L 771.3075 256.758826 
L 767.751591 256.758826 
z
" clip-path="url(#p2e37d7c199)" style="stroke: #ffffff; stroke-width: 0.8; stroke-linejoin: miter"/>
   </g>
   <g id="patch_189">
    <path d="M 771.3075 256.774688 
L 774.863409 256.774688 
L 774.863409 256.758826 
L 771.3075 256.758826 
z
" clip-path="url(#p2e37d7c199)" style="stroke: #ffffff; stroke-width: 0.8; stroke-linejoin: miter"/>
   </g>
   <g id="patch_190">
    <path d="M 774.863409 256.774688 
L 778.419318 256.774688 
L 778.419318 256.738433 
L 774.863409 256.738433 
z
" clip-path="url(#p2e37d7c199)" style="stroke: #ffffff; stroke-width: 0.8; stroke-linejoin: miter"/>
   </g>
   <g id="patch_191">
    <path d="M 778.419318 256.774688 
L 781.975227 256.774688 
L 781.975227 256.491452 
L 778.419318 256.491452 
z
" clip-path="url(#p2e37d7c199)" style="stroke: #ffffff; stroke-width: 0.8; stroke-linejoin: miter"/>
   </g>
   <g id="patch_192">
    <path d="M 781.975227 256.774688 
L 785.531136 256.774688 
L 785.531136 256.754295 
L 781.975227 256.754295 
z
" clip-path="url(#p2e37d7c199)" style="stroke: #ffffff; stroke-width: 0.8; stroke-linejoin: miter"/>
   </g>
   <g id="patch_193">
    <path d="M 785.531136 256.774688 
L 789.087045 256.774688 
L 789.087045 256.752029 
L 785.531136 256.752029 
z
" clip-path="url(#p2e37d7c199)" style="stroke: #ffffff; stroke-width: 0.8; stroke-linejoin: miter"/>
   </g>
   <g id="patch_194">
    <path d="M 789.087045 256.774688 
L 792.642955 256.774688 
L 792.642955 256.761092 
L 789.087045 256.761092 
z
" clip-path="url(#p2e37d7c199)" style="stroke: #ffffff; stroke-width: 0.8; stroke-linejoin: miter"/>
   </g>
   <g id="patch_195">
    <path d="M 792.642955 256.774688 
L 796.198864 256.774688 
L 796.198864 256.740699 
L 792.642955 256.740699 
z
" clip-path="url(#p2e37d7c199)" style="stroke: #ffffff; stroke-width: 0.8; stroke-linejoin: miter"/>
   </g>
   <g id="patch_196">
    <path d="M 796.198864 256.774688 
L 799.754773 256.774688 
L 799.754773 256.76789 
L 796.198864 256.76789 
z
" clip-path="url(#p2e37d7c199)" style="stroke: #ffffff; stroke-width: 0.8; stroke-linejoin: miter"/>
   </g>
   <g id="patch_197">
    <path d="M 799.754773 256.774688 
L 803.310682 256.774688 
L 803.310682 256.761092 
L 799.754773 256.761092 
z
" clip-path="url(#p2e37d7c199)" style="stroke: #ffffff; stroke-width: 0.8; stroke-linejoin: miter"/>
   </g>
   <g id="patch_198">
    <path d="M 803.310682 256.774688 
L 806.866591 256.774688 
L 806.866591 256.742965 
L 803.310682 256.742965 
z
" clip-path="url(#p2e37d7c199)" style="stroke: #ffffff; stroke-width: 0.8; stroke-linejoin: miter"/>
   </g>
   <g id="patch_199">
    <path d="M 806.866591 256.774688 
L 810.4225 256.774688 
L 810.4225 256.754295 
L 806.866591 256.754295 
z
" clip-path="url(#p2e37d7c199)" style="stroke: #ffffff; stroke-width: 0.8; stroke-linejoin: miter"/>
   </g>
   <g id="patch_200">
    <path d="M 810.4225 256.774688 
L 813.978409 256.774688 
L 813.978409 256.75656 
L 810.4225 256.75656 
z
" clip-path="url(#p2e37d7c199)" style="stroke: #ffffff; stroke-width: 0.8; stroke-linejoin: miter"/>
   </g>
   <g id="patch_201">
    <path d="M 813.978409 256.774688 
L 817.534318 256.774688 
L 817.534318 256.740699 
L 813.978409 256.740699 
z
" clip-path="url(#p2e37d7c199)" style="stroke: #ffffff; stroke-width: 0.8; stroke-linejoin: miter"/>
   </g>
   <g id="patch_202">
    <path d="M 817.534318 256.774688 
L 821.090227 256.774688 
L 821.090227 256.749763 
L 817.534318 256.749763 
z
" clip-path="url(#p2e37d7c199)" style="stroke: #ffffff; stroke-width: 0.8; stroke-linejoin: miter"/>
   </g>
   <g id="patch_203">
    <path d="M 821.090227 256.774688 
L 824.646136 256.774688 
L 824.646136 256.752029 
L 821.090227 256.752029 
z
" clip-path="url(#p2e37d7c199)" style="stroke: #ffffff; stroke-width: 0.8; stroke-linejoin: miter"/>
   </g>
   <g id="patch_204">
    <path d="M 824.646136 256.774688 
L 828.202045 256.774688 
L 828.202045 256.754295 
L 824.646136 256.754295 
z
" clip-path="url(#p2e37d7c199)" style="stroke: #ffffff; stroke-width: 0.8; stroke-linejoin: miter"/>
   </g>
   <g id="patch_205">
    <path d="M 828.202045 256.774688 
L 831.757955 256.774688 
L 831.757955 78.549482 
L 828.202045 78.549482 
z
" clip-path="url(#p2e37d7c199)" style="stroke: #ffffff; stroke-width: 0.8; stroke-linejoin: miter"/>
   </g>
   <g id="patch_206">
    <path d="M 458.3875 256.774688 
L 458.3875 20.479687 
" style="fill: none; stroke: #262626; stroke-width: 0.8; stroke-linejoin: miter; stroke-linecap: square"/>
   </g>
   <g id="patch_207">
    <path d="M 458.3875 256.774688 
L 849.5375 256.774688 
" style="fill: none; stroke: #262626; stroke-width: 0.8; stroke-linejoin: miter; stroke-linecap: square"/>
   </g>
   <g id="text_23">
    <!-- Glucose Import -->
    <g style="fill: #262626" transform="translate(620.063281 14.479687) scale(0.1 -0.1)">
     <defs>
      <path id="ArialMT-47" d="M 2638 1797 
L 2638 2334 
L 4578 2338 
L 4578 638 
Q 4131 281 3656 101 
Q 3181 -78 2681 -78 
Q 2006 -78 1454 211 
Q 903 500 622 1047 
Q 341 1594 341 2269 
Q 341 2938 620 3517 
Q 900 4097 1425 4378 
Q 1950 4659 2634 4659 
Q 3131 4659 3532 4498 
Q 3934 4338 4162 4050 
Q 4391 3763 4509 3300 
L 3963 3150 
Q 3859 3500 3706 3700 
Q 3553 3900 3268 4020 
Q 2984 4141 2638 4141 
Q 2222 4141 1919 4014 
Q 1616 3888 1430 3681 
Q 1244 3475 1141 3228 
Q 966 2803 966 2306 
Q 966 1694 1177 1281 
Q 1388 869 1791 669 
Q 2194 469 2647 469 
Q 3041 469 3416 620 
Q 3791 772 3984 944 
L 3984 1797 
L 2638 1797 
z
" transform="scale(0.015625)"/>
      <path id="ArialMT-6c" d="M 409 0 
L 409 4581 
L 972 4581 
L 972 0 
L 409 0 
z
" transform="scale(0.015625)"/>
     </defs>
     <use xlink:href="#ArialMT-47"/>
     <use xlink:href="#ArialMT-6c" transform="translate(77.783203 0)"/>
     <use xlink:href="#ArialMT-75" transform="translate(100 0)"/>
     <use xlink:href="#ArialMT-63" transform="translate(155.615234 0)"/>
     <use xlink:href="#ArialMT-6f" transform="translate(205.615234 0)"/>
     <use xlink:href="#ArialMT-73" transform="translate(261.230469 0)"/>
     <use xlink:href="#ArialMT-65" transform="translate(311.230469 0)"/>
     <use xlink:href="#ArialMT-20" transform="translate(366.845703 0)"/>
     <use xlink:href="#ArialMT-49" transform="translate(394.628906 0)"/>
     <use xlink:href="#ArialMT-6d" transform="translate(422.412109 0)"/>
     <use xlink:href="#ArialMT-70" transform="translate(505.712891 0)"/>
     <use xlink:href="#ArialMT-6f" transform="translate(561.328125 0)"/>
     <use xlink:href="#ArialMT-72" transform="translate(616.943359 0)"/>
     <use xlink:href="#ArialMT-74" transform="translate(650.244141 0)"/>
    </g>
   </g>
  </g>
 </g>
 <defs>
  <clipPath id="p8b1fcc0e82">
   <rect x="56.4375" y="20.479687" width="391.15" height="236.295"/>
  </clipPath>
  <clipPath id="p2e37d7c199">
   <rect x="458.3875" y="20.479687" width="391.15" height="236.295"/>
  </clipPath>
 </defs>
</svg>
