<?xml version="1.0" encoding="utf-8" standalone="no"?>
<!DOCTYPE svg PUBLIC "-//W3C//DTD SVG 1.1//EN"
  "http://www.w3.org/Graphics/SVG/1.1/DTD/svg11.dtd">
<svg xmlns:xlink="http://www.w3.org/1999/xlink" width="1000.412188pt" height="279.592813pt" viewBox="0 0 1000.412188 279.592813" xmlns="http://www.w3.org/2000/svg" version="1.1">
 <metadata>
  <rdf:RDF xmlns:dc="http://purl.org/dc/elements/1.1/" xmlns:cc="http://creativecommons.org/ns#" xmlns:rdf="http://www.w3.org/1999/02/22-rdf-syntax-ns#">
   <cc:Work>
    <dc:type rdf:resource="http://purl.org/dc/dcmitype/StillImage"/>
    <dc:date>2025-07-16T14:15:17.536740</dc:date>
    <dc:format>image/svg+xml</dc:format>
    <dc:creator>
     <cc:Agent>
      <dc:title>Matplotlib v3.10.1, https://matplotlib.org/</dc:title>
     </cc:Agent>
    </dc:creator>
   </cc:Work>
  </rdf:RDF>
 </metadata>
 <defs>
  <style type="text/css">*{stroke-linejoin: round; stroke-linecap: butt}</style>
 </defs>
 <g id="figure_1">
  <g id="patch_1">
   <path d="M -0 279.592813 
L 1000.412188 279.592813 
L 1000.412188 0 
L -0 0 
z
" style="fill: #ffffff"/>
  </g>
  <g id="axes_1">
   <g id="patch_2">
    <path d="M 56.967188 241.258438 
L 517.689688 241.258438 
L 517.689688 20.798438 
L 56.967188 20.798438 
z
" style="fill: #ffffff"/>
   </g>
   <g id="patch_3">
    <path d="M 77.909119 241.258438 
L 82.097506 241.258438 
L 82.097506 82.984187 
L 77.909119 82.984187 
z
" clip-path="url(#p1e522b0e08)" style="stroke: #ffffff; stroke-width: 0.8; stroke-linejoin: miter"/>
   </g>
   <g id="patch_4">
    <path d="M 82.097506 241.258438 
L 86.285892 241.258438 
L 86.285892 209.945891 
L 82.097506 209.945891 
z
" clip-path="url(#p1e522b0e08)" style="stroke: #ffffff; stroke-width: 0.8; stroke-linejoin: miter"/>
   </g>
   <g id="patch_5">
    <path d="M 86.285892 241.258438 
L 90.474278 241.258438 
L 90.474278 229.097943 
L 86.285892 229.097943 
z
" clip-path="url(#p1e522b0e08)" style="stroke: #ffffff; stroke-width: 0.8; stroke-linejoin: miter"/>
   </g>
   <g id="patch_6">
    <path d="M 90.474278 241.258438 
L 94.662665 241.258438 
L 94.662665 235.274744 
L 90.474278 235.274744 
z
" clip-path="url(#p1e522b0e08)" style="stroke: #ffffff; stroke-width: 0.8; stroke-linejoin: miter"/>
   </g>
   <g id="patch_7">
    <path d="M 94.662665 241.258438 
L 98.851051 241.258438 
L 98.851051 238.266591 
L 94.662665 238.266591 
z
" clip-path="url(#p1e522b0e08)" style="stroke: #ffffff; stroke-width: 0.8; stroke-linejoin: miter"/>
   </g>
   <g id="patch_8">
    <path d="M 98.851051 241.258438 
L 103.039438 241.258438 
L 103.039438 239.076056 
L 98.851051 239.076056 
z
" clip-path="url(#p1e522b0e08)" style="stroke: #ffffff; stroke-width: 0.8; stroke-linejoin: miter"/>
   </g>
   <g id="patch_9">
    <path d="M 103.039438 241.258438 
L 107.227824 241.258438 
L 107.227824 239.896102 
L 103.039438 239.896102 
z
" clip-path="url(#p1e522b0e08)" style="stroke: #ffffff; stroke-width: 0.8; stroke-linejoin: miter"/>
   </g>
   <g id="patch_10">
    <path d="M 107.227824 241.258438 
L 111.41621 241.258438 
L 111.41621 240.321997 
L 107.227824 240.321997 
z
" clip-path="url(#p1e522b0e08)" style="stroke: #ffffff; stroke-width: 0.8; stroke-linejoin: miter"/>
   </g>
   <g id="patch_11">
    <path d="M 111.41621 241.258438 
L 115.604597 241.258438 
L 115.604597 240.705567 
L 111.41621 240.705567 
z
" clip-path="url(#p1e522b0e08)" style="stroke: #ffffff; stroke-width: 0.8; stroke-linejoin: miter"/>
   </g>
   <g id="patch_12">
    <path d="M 115.604597 241.258438 
L 119.792983 241.258438 
L 119.792983 240.845769 
L 115.604597 240.845769 
z
" clip-path="url(#p1e522b0e08)" style="stroke: #ffffff; stroke-width: 0.8; stroke-linejoin: miter"/>
   </g>
   <g id="patch_13">
    <path d="M 119.792983 241.258438 
L 123.981369 241.258438 
L 123.981369 240.872222 
L 119.792983 240.872222 
z
" clip-path="url(#p1e522b0e08)" style="stroke: #ffffff; stroke-width: 0.8; stroke-linejoin: miter"/>
   </g>
   <g id="patch_14">
    <path d="M 123.981369 241.258438 
L 128.169756 241.258438 
L 128.169756 240.943645 
L 123.981369 240.943645 
z
" clip-path="url(#p1e522b0e08)" style="stroke: #ffffff; stroke-width: 0.8; stroke-linejoin: miter"/>
   </g>
   <g id="patch_15">
    <path d="M 128.169756 241.258438 
L 132.358142 241.258438 
L 132.358142 241.044167 
L 128.169756 241.044167 
z
" clip-path="url(#p1e522b0e08)" style="stroke: #ffffff; stroke-width: 0.8; stroke-linejoin: miter"/>
   </g>
   <g id="patch_16">
    <path d="M 132.358142 241.258438 
L 136.546528 241.258438 
L 136.546528 241.06533 
L 132.358142 241.06533 
z
" clip-path="url(#p1e522b0e08)" style="stroke: #ffffff; stroke-width: 0.8; stroke-linejoin: miter"/>
   </g>
   <g id="patch_17">
    <path d="M 136.546528 241.258438 
L 140.734915 241.258438 
L 140.734915 241.131463 
L 136.546528 241.131463 
z
" clip-path="url(#p1e522b0e08)" style="stroke: #ffffff; stroke-width: 0.8; stroke-linejoin: miter"/>
   </g>
   <g id="patch_18">
    <path d="M 140.734915 241.258438 
L 144.923301 241.258438 
L 144.923301 241.142044 
L 140.734915 241.142044 
z
" clip-path="url(#p1e522b0e08)" style="stroke: #ffffff; stroke-width: 0.8; stroke-linejoin: miter"/>
   </g>
   <g id="patch_19">
    <path d="M 144.923301 241.258438 
L 149.111688 241.258438 
L 149.111688 241.184369 
L 144.923301 241.184369 
z
" clip-path="url(#p1e522b0e08)" style="stroke: #ffffff; stroke-width: 0.8; stroke-linejoin: miter"/>
   </g>
   <g id="patch_20">
    <path d="M 149.111688 241.258438 
L 153.300074 241.258438 
L 153.300074 241.216113 
L 149.111688 241.216113 
z
" clip-path="url(#p1e522b0e08)" style="stroke: #ffffff; stroke-width: 0.8; stroke-linejoin: miter"/>
   </g>
   <g id="patch_21">
    <path d="M 153.300074 241.258438 
L 157.48846 241.258438 
L 157.48846 241.224048 
L 153.300074 241.224048 
z
" clip-path="url(#p1e522b0e08)" style="stroke: #ffffff; stroke-width: 0.8; stroke-linejoin: miter"/>
   </g>
   <g id="patch_22">
    <path d="M 157.48846 241.258438 
L 161.676847 241.258438 
L 161.676847 241.200241 
L 157.48846 241.200241 
z
" clip-path="url(#p1e522b0e08)" style="stroke: #ffffff; stroke-width: 0.8; stroke-linejoin: miter"/>
   </g>
   <g id="patch_23">
    <path d="M 161.676847 241.258438 
L 165.865233 241.258438 
L 165.865233 241.216113 
L 161.676847 241.216113 
z
" clip-path="url(#p1e522b0e08)" style="stroke: #ffffff; stroke-width: 0.8; stroke-linejoin: miter"/>
   </g>
   <g id="patch_24">
    <path d="M 165.865233 241.258438 
L 170.053619 241.258438 
L 170.053619 241.202886 
L 165.865233 241.202886 
z
" clip-path="url(#p1e522b0e08)" style="stroke: #ffffff; stroke-width: 0.8; stroke-linejoin: miter"/>
   </g>
   <g id="patch_25">
    <path d="M 170.053619 241.258438 
L 174.242006 241.258438 
L 174.242006 241.216113 
L 170.053619 241.216113 
z
" clip-path="url(#p1e522b0e08)" style="stroke: #ffffff; stroke-width: 0.8; stroke-linejoin: miter"/>
   </g>
   <g id="patch_26">
    <path d="M 174.242006 241.258438 
L 178.430392 241.258438 
L 178.430392 241.208177 
L 174.242006 241.208177 
z
" clip-path="url(#p1e522b0e08)" style="stroke: #ffffff; stroke-width: 0.8; stroke-linejoin: miter"/>
   </g>
   <g id="patch_27">
    <path d="M 178.430392 241.258438 
L 182.618778 241.258438 
L 182.618778 241.23463 
L 178.430392 241.23463 
z
" clip-path="url(#p1e522b0e08)" style="stroke: #ffffff; stroke-width: 0.8; stroke-linejoin: miter"/>
   </g>
   <g id="patch_28">
    <path d="M 182.618778 241.258438 
L 186.807165 241.258438 
L 186.807165 241.231984 
L 182.618778 241.231984 
z
" clip-path="url(#p1e522b0e08)" style="stroke: #ffffff; stroke-width: 0.8; stroke-linejoin: miter"/>
   </g>
   <g id="patch_29">
    <path d="M 186.807165 241.258438 
L 190.995551 241.258438 
L 190.995551 241.200241 
L 186.807165 241.200241 
z
" clip-path="url(#p1e522b0e08)" style="stroke: #ffffff; stroke-width: 0.8; stroke-linejoin: miter"/>
   </g>
   <g id="patch_30">
    <path d="M 190.995551 241.258438 
L 195.183938 241.258438 
L 195.183938 241.245211 
L 190.995551 241.245211 
z
" clip-path="url(#p1e522b0e08)" style="stroke: #ffffff; stroke-width: 0.8; stroke-linejoin: miter"/>
   </g>
   <g id="patch_31">
    <path d="M 195.183938 241.258438 
L 199.372324 241.258438 
L 199.372324 241.231984 
L 195.183938 241.231984 
z
" clip-path="url(#p1e522b0e08)" style="stroke: #ffffff; stroke-width: 0.8; stroke-linejoin: miter"/>
   </g>
   <g id="patch_32">
    <path d="M 199.372324 241.258438 
L 203.56071 241.258438 
L 203.56071 241.242566 
L 199.372324 241.242566 
z
" clip-path="url(#p1e522b0e08)" style="stroke: #ffffff; stroke-width: 0.8; stroke-linejoin: miter"/>
   </g>
   <g id="patch_33">
    <path d="M 203.56071 241.258438 
L 207.749097 241.258438 
L 207.749097 241.247856 
L 203.56071 241.247856 
z
" clip-path="url(#p1e522b0e08)" style="stroke: #ffffff; stroke-width: 0.8; stroke-linejoin: miter"/>
   </g>
   <g id="patch_34">
    <path d="M 207.749097 241.258438 
L 211.937483 241.258438 
L 211.937483 241.23992 
L 207.749097 241.23992 
z
" clip-path="url(#p1e522b0e08)" style="stroke: #ffffff; stroke-width: 0.8; stroke-linejoin: miter"/>
   </g>
   <g id="patch_35">
    <path d="M 211.937483 241.258438 
L 216.125869 241.258438 
L 216.125869 241.250502 
L 211.937483 241.250502 
z
" clip-path="url(#p1e522b0e08)" style="stroke: #ffffff; stroke-width: 0.8; stroke-linejoin: miter"/>
   </g>
   <g id="patch_36">
    <path d="M 216.125869 241.258438 
L 220.314256 241.258438 
L 220.314256 241.253147 
L 216.125869 241.253147 
z
" clip-path="url(#p1e522b0e08)" style="stroke: #ffffff; stroke-width: 0.8; stroke-linejoin: miter"/>
   </g>
   <g id="patch_37">
    <path d="M 220.314256 241.258438 
L 224.502642 241.258438 
L 224.502642 241.253147 
L 220.314256 241.253147 
z
" clip-path="url(#p1e522b0e08)" style="stroke: #ffffff; stroke-width: 0.8; stroke-linejoin: miter"/>
   </g>
   <g id="patch_38">
    <path d="M 224.502642 241.258438 
L 228.691028 241.258438 
L 228.691028 241.258438 
L 224.502642 241.258438 
z
" clip-path="url(#p1e522b0e08)" style="stroke: #ffffff; stroke-width: 0.8; stroke-linejoin: miter"/>
   </g>
   <g id="patch_39">
    <path d="M 228.691028 241.258438 
L 232.879415 241.258438 
L 232.879415 241.250502 
L 228.691028 241.250502 
z
" clip-path="url(#p1e522b0e08)" style="stroke: #ffffff; stroke-width: 0.8; stroke-linejoin: miter"/>
   </g>
   <g id="patch_40">
    <path d="M 232.879415 241.258438 
L 237.067801 241.258438 
L 237.067801 241.258438 
L 232.879415 241.258438 
z
" clip-path="url(#p1e522b0e08)" style="stroke: #ffffff; stroke-width: 0.8; stroke-linejoin: miter"/>
   </g>
   <g id="patch_41">
    <path d="M 237.067801 241.258438 
L 241.256188 241.258438 
L 241.256188 241.253147 
L 237.067801 241.253147 
z
" clip-path="url(#p1e522b0e08)" style="stroke: #ffffff; stroke-width: 0.8; stroke-linejoin: miter"/>
   </g>
   <g id="patch_42">
    <path d="M 241.256188 241.258438 
L 245.444574 241.258438 
L 245.444574 241.250502 
L 241.256188 241.250502 
z
" clip-path="url(#p1e522b0e08)" style="stroke: #ffffff; stroke-width: 0.8; stroke-linejoin: miter"/>
   </g>
   <g id="patch_43">
    <path d="M 245.444574 241.258438 
L 249.63296 241.258438 
L 249.63296 241.253147 
L 245.444574 241.253147 
z
" clip-path="url(#p1e522b0e08)" style="stroke: #ffffff; stroke-width: 0.8; stroke-linejoin: miter"/>
   </g>
   <g id="patch_44">
    <path d="M 249.63296 241.258438 
L 253.821347 241.258438 
L 253.821347 241.255792 
L 249.63296 241.255792 
z
" clip-path="url(#p1e522b0e08)" style="stroke: #ffffff; stroke-width: 0.8; stroke-linejoin: miter"/>
   </g>
   <g id="patch_45">
    <path d="M 253.821347 241.258438 
L 258.009733 241.258438 
L 258.009733 241.258438 
L 253.821347 241.258438 
z
" clip-path="url(#p1e522b0e08)" style="stroke: #ffffff; stroke-width: 0.8; stroke-linejoin: miter"/>
   </g>
   <g id="patch_46">
    <path d="M 258.009733 241.258438 
L 262.198119 241.258438 
L 262.198119 241.258438 
L 258.009733 241.258438 
z
" clip-path="url(#p1e522b0e08)" style="stroke: #ffffff; stroke-width: 0.8; stroke-linejoin: miter"/>
   </g>
   <g id="patch_47">
    <path d="M 262.198119 241.258438 
L 266.386506 241.258438 
L 266.386506 241.255792 
L 262.198119 241.255792 
z
" clip-path="url(#p1e522b0e08)" style="stroke: #ffffff; stroke-width: 0.8; stroke-linejoin: miter"/>
   </g>
   <g id="patch_48">
    <path d="M 266.386506 241.258438 
L 270.574892 241.258438 
L 270.574892 241.258438 
L 266.386506 241.258438 
z
" clip-path="url(#p1e522b0e08)" style="stroke: #ffffff; stroke-width: 0.8; stroke-linejoin: miter"/>
   </g>
   <g id="patch_49">
    <path d="M 270.574892 241.258438 
L 274.763278 241.258438 
L 274.763278 241.255792 
L 270.574892 241.255792 
z
" clip-path="url(#p1e522b0e08)" style="stroke: #ffffff; stroke-width: 0.8; stroke-linejoin: miter"/>
   </g>
   <g id="patch_50">
    <path d="M 274.763278 241.258438 
L 278.951665 241.258438 
L 278.951665 241.245211 
L 274.763278 241.245211 
z
" clip-path="url(#p1e522b0e08)" style="stroke: #ffffff; stroke-width: 0.8; stroke-linejoin: miter"/>
   </g>
   <g id="patch_51">
    <path d="M 278.951665 241.258438 
L 283.140051 241.258438 
L 283.140051 241.258438 
L 278.951665 241.258438 
z
" clip-path="url(#p1e522b0e08)" style="stroke: #ffffff; stroke-width: 0.8; stroke-linejoin: miter"/>
   </g>
   <g id="patch_52">
    <path d="M 283.140051 241.258438 
L 287.328438 241.258438 
L 287.328438 241.253147 
L 283.140051 241.253147 
z
" clip-path="url(#p1e522b0e08)" style="stroke: #ffffff; stroke-width: 0.8; stroke-linejoin: miter"/>
   </g>
   <g id="patch_53">
    <path d="M 287.328438 241.258438 
L 291.516824 241.258438 
L 291.516824 241.255792 
L 287.328438 241.255792 
z
" clip-path="url(#p1e522b0e08)" style="stroke: #ffffff; stroke-width: 0.8; stroke-linejoin: miter"/>
   </g>
   <g id="patch_54">
    <path d="M 291.516824 241.258438 
L 295.70521 241.258438 
L 295.70521 241.258438 
L 291.516824 241.258438 
z
" clip-path="url(#p1e522b0e08)" style="stroke: #ffffff; stroke-width: 0.8; stroke-linejoin: miter"/>
   </g>
   <g id="patch_55">
    <path d="M 295.70521 241.258438 
L 299.893597 241.258438 
L 299.893597 241.247856 
L 295.70521 241.247856 
z
" clip-path="url(#p1e522b0e08)" style="stroke: #ffffff; stroke-width: 0.8; stroke-linejoin: miter"/>
   </g>
   <g id="patch_56">
    <path d="M 299.893597 241.258438 
L 304.081983 241.258438 
L 304.081983 241.253147 
L 299.893597 241.253147 
z
" clip-path="url(#p1e522b0e08)" style="stroke: #ffffff; stroke-width: 0.8; stroke-linejoin: miter"/>
   </g>
   <g id="patch_57">
    <path d="M 304.081983 241.258438 
L 308.270369 241.258438 
L 308.270369 241.255792 
L 304.081983 241.255792 
z
" clip-path="url(#p1e522b0e08)" style="stroke: #ffffff; stroke-width: 0.8; stroke-linejoin: miter"/>
   </g>
   <g id="patch_58">
    <path d="M 308.270369 241.258438 
L 312.458756 241.258438 
L 312.458756 241.258438 
L 308.270369 241.258438 
z
" clip-path="url(#p1e522b0e08)" style="stroke: #ffffff; stroke-width: 0.8; stroke-linejoin: miter"/>
   </g>
   <g id="patch_59">
    <path d="M 312.458756 241.258438 
L 316.647142 241.258438 
L 316.647142 241.258438 
L 312.458756 241.258438 
z
" clip-path="url(#p1e522b0e08)" style="stroke: #ffffff; stroke-width: 0.8; stroke-linejoin: miter"/>
   </g>
   <g id="patch_60">
    <path d="M 316.647142 241.258438 
L 320.835528 241.258438 
L 320.835528 241.255792 
L 316.647142 241.255792 
z
" clip-path="url(#p1e522b0e08)" style="stroke: #ffffff; stroke-width: 0.8; stroke-linejoin: miter"/>
   </g>
   <g id="patch_61">
    <path d="M 320.835528 241.258438 
L 325.023915 241.258438 
L 325.023915 241.258438 
L 320.835528 241.258438 
z
" clip-path="url(#p1e522b0e08)" style="stroke: #ffffff; stroke-width: 0.8; stroke-linejoin: miter"/>
   </g>
   <g id="patch_62">
    <path d="M 325.023915 241.258438 
L 329.212301 241.258438 
L 329.212301 241.255792 
L 325.023915 241.255792 
z
" clip-path="url(#p1e522b0e08)" style="stroke: #ffffff; stroke-width: 0.8; stroke-linejoin: miter"/>
   </g>
   <g id="patch_63">
    <path d="M 329.212301 241.258438 
L 333.400688 241.258438 
L 333.400688 241.258438 
L 329.212301 241.258438 
z
" clip-path="url(#p1e522b0e08)" style="stroke: #ffffff; stroke-width: 0.8; stroke-linejoin: miter"/>
   </g>
   <g id="patch_64">
    <path d="M 333.400688 241.258438 
L 337.589074 241.258438 
L 337.589074 241.258438 
L 333.400688 241.258438 
z
" clip-path="url(#p1e522b0e08)" style="stroke: #ffffff; stroke-width: 0.8; stroke-linejoin: miter"/>
   </g>
   <g id="patch_65">
    <path d="M 337.589074 241.258438 
L 341.77746 241.258438 
L 341.77746 241.258438 
L 337.589074 241.258438 
z
" clip-path="url(#p1e522b0e08)" style="stroke: #ffffff; stroke-width: 0.8; stroke-linejoin: miter"/>
   </g>
   <g id="patch_66">
    <path d="M 341.77746 241.258438 
L 345.965847 241.258438 
L 345.965847 241.255792 
L 341.77746 241.255792 
z
" clip-path="url(#p1e522b0e08)" style="stroke: #ffffff; stroke-width: 0.8; stroke-linejoin: miter"/>
   </g>
   <g id="patch_67">
    <path d="M 345.965847 241.258438 
L 350.154233 241.258438 
L 350.154233 241.258438 
L 345.965847 241.258438 
z
" clip-path="url(#p1e522b0e08)" style="stroke: #ffffff; stroke-width: 0.8; stroke-linejoin: miter"/>
   </g>
   <g id="patch_68">
    <path d="M 350.154233 241.258438 
L 354.342619 241.258438 
L 354.342619 241.258438 
L 350.154233 241.258438 
z
" clip-path="url(#p1e522b0e08)" style="stroke: #ffffff; stroke-width: 0.8; stroke-linejoin: miter"/>
   </g>
   <g id="patch_69">
    <path d="M 354.342619 241.258438 
L 358.531006 241.258438 
L 358.531006 241.258438 
L 354.342619 241.258438 
z
" clip-path="url(#p1e522b0e08)" style="stroke: #ffffff; stroke-width: 0.8; stroke-linejoin: miter"/>
   </g>
   <g id="patch_70">
    <path d="M 358.531006 241.258438 
L 362.719392 241.258438 
L 362.719392 241.258438 
L 358.531006 241.258438 
z
" clip-path="url(#p1e522b0e08)" style="stroke: #ffffff; stroke-width: 0.8; stroke-linejoin: miter"/>
   </g>
   <g id="patch_71">
    <path d="M 362.719392 241.258438 
L 366.907778 241.258438 
L 366.907778 241.258438 
L 362.719392 241.258438 
z
" clip-path="url(#p1e522b0e08)" style="stroke: #ffffff; stroke-width: 0.8; stroke-linejoin: miter"/>
   </g>
   <g id="patch_72">
    <path d="M 366.907778 241.258438 
L 371.096165 241.258438 
L 371.096165 241.258438 
L 366.907778 241.258438 
z
" clip-path="url(#p1e522b0e08)" style="stroke: #ffffff; stroke-width: 0.8; stroke-linejoin: miter"/>
   </g>
   <g id="patch_73">
    <path d="M 371.096165 241.258438 
L 375.284551 241.258438 
L 375.284551 241.258438 
L 371.096165 241.258438 
z
" clip-path="url(#p1e522b0e08)" style="stroke: #ffffff; stroke-width: 0.8; stroke-linejoin: miter"/>
   </g>
   <g id="patch_74">
    <path d="M 375.284551 241.258438 
L 379.472938 241.258438 
L 379.472938 241.258438 
L 375.284551 241.258438 
z
" clip-path="url(#p1e522b0e08)" style="stroke: #ffffff; stroke-width: 0.8; stroke-linejoin: miter"/>
   </g>
   <g id="patch_75">
    <path d="M 379.472938 241.258438 
L 383.661324 241.258438 
L 383.661324 241.258438 
L 379.472938 241.258438 
z
" clip-path="url(#p1e522b0e08)" style="stroke: #ffffff; stroke-width: 0.8; stroke-linejoin: miter"/>
   </g>
   <g id="patch_76">
    <path d="M 383.661324 241.258438 
L 387.84971 241.258438 
L 387.84971 241.258438 
L 383.661324 241.258438 
z
" clip-path="url(#p1e522b0e08)" style="stroke: #ffffff; stroke-width: 0.8; stroke-linejoin: miter"/>
   </g>
   <g id="patch_77">
    <path d="M 387.84971 241.258438 
L 392.038097 241.258438 
L 392.038097 241.258438 
L 387.84971 241.258438 
z
" clip-path="url(#p1e522b0e08)" style="stroke: #ffffff; stroke-width: 0.8; stroke-linejoin: miter"/>
   </g>
   <g id="patch_78">
    <path d="M 392.038097 241.258438 
L 396.226483 241.258438 
L 396.226483 241.258438 
L 392.038097 241.258438 
z
" clip-path="url(#p1e522b0e08)" style="stroke: #ffffff; stroke-width: 0.8; stroke-linejoin: miter"/>
   </g>
   <g id="patch_79">
    <path d="M 396.226483 241.258438 
L 400.414869 241.258438 
L 400.414869 241.258438 
L 396.226483 241.258438 
z
" clip-path="url(#p1e522b0e08)" style="stroke: #ffffff; stroke-width: 0.8; stroke-linejoin: miter"/>
   </g>
   <g id="patch_80">
    <path d="M 400.414869 241.258438 
L 404.603256 241.258438 
L 404.603256 241.258438 
L 400.414869 241.258438 
z
" clip-path="url(#p1e522b0e08)" style="stroke: #ffffff; stroke-width: 0.8; stroke-linejoin: miter"/>
   </g>
   <g id="patch_81">
    <path d="M 404.603256 241.258438 
L 408.791642 241.258438 
L 408.791642 241.258438 
L 404.603256 241.258438 
z
" clip-path="url(#p1e522b0e08)" style="stroke: #ffffff; stroke-width: 0.8; stroke-linejoin: miter"/>
   </g>
   <g id="patch_82">
    <path d="M 408.791642 241.258438 
L 412.980028 241.258438 
L 412.980028 241.258438 
L 408.791642 241.258438 
z
" clip-path="url(#p1e522b0e08)" style="stroke: #ffffff; stroke-width: 0.8; stroke-linejoin: miter"/>
   </g>
   <g id="patch_83">
    <path d="M 412.980028 241.258438 
L 417.168415 241.258438 
L 417.168415 241.258438 
L 412.980028 241.258438 
z
" clip-path="url(#p1e522b0e08)" style="stroke: #ffffff; stroke-width: 0.8; stroke-linejoin: miter"/>
   </g>
   <g id="patch_84">
    <path d="M 417.168415 241.258438 
L 421.356801 241.258438 
L 421.356801 241.258438 
L 417.168415 241.258438 
z
" clip-path="url(#p1e522b0e08)" style="stroke: #ffffff; stroke-width: 0.8; stroke-linejoin: miter"/>
   </g>
   <g id="patch_85">
    <path d="M 421.356801 241.258438 
L 425.545188 241.258438 
L 425.545188 241.258438 
L 421.356801 241.258438 
z
" clip-path="url(#p1e522b0e08)" style="stroke: #ffffff; stroke-width: 0.8; stroke-linejoin: miter"/>
   </g>
   <g id="patch_86">
    <path d="M 425.545188 241.258438 
L 429.733574 241.258438 
L 429.733574 241.258438 
L 425.545188 241.258438 
z
" clip-path="url(#p1e522b0e08)" style="stroke: #ffffff; stroke-width: 0.8; stroke-linejoin: miter"/>
   </g>
   <g id="patch_87">
    <path d="M 429.733574 241.258438 
L 433.92196 241.258438 
L 433.92196 241.258438 
L 429.733574 241.258438 
z
" clip-path="url(#p1e522b0e08)" style="stroke: #ffffff; stroke-width: 0.8; stroke-linejoin: miter"/>
   </g>
   <g id="patch_88">
    <path d="M 433.92196 241.258438 
L 438.110347 241.258438 
L 438.110347 241.258438 
L 433.92196 241.258438 
z
" clip-path="url(#p1e522b0e08)" style="stroke: #ffffff; stroke-width: 0.8; stroke-linejoin: miter"/>
   </g>
   <g id="patch_89">
    <path d="M 438.110347 241.258438 
L 442.298733 241.258438 
L 442.298733 241.258438 
L 438.110347 241.258438 
z
" clip-path="url(#p1e522b0e08)" style="stroke: #ffffff; stroke-width: 0.8; stroke-linejoin: miter"/>
   </g>
   <g id="patch_90">
    <path d="M 442.298733 241.258438 
L 446.487119 241.258438 
L 446.487119 241.258438 
L 442.298733 241.258438 
z
" clip-path="url(#p1e522b0e08)" style="stroke: #ffffff; stroke-width: 0.8; stroke-linejoin: miter"/>
   </g>
   <g id="patch_91">
    <path d="M 446.487119 241.258438 
L 450.675506 241.258438 
L 450.675506 241.258438 
L 446.487119 241.258438 
z
" clip-path="url(#p1e522b0e08)" style="stroke: #ffffff; stroke-width: 0.8; stroke-linejoin: miter"/>
   </g>
   <g id="patch_92">
    <path d="M 450.675506 241.258438 
L 454.863892 241.258438 
L 454.863892 241.258438 
L 450.675506 241.258438 
z
" clip-path="url(#p1e522b0e08)" style="stroke: #ffffff; stroke-width: 0.8; stroke-linejoin: miter"/>
   </g>
   <g id="patch_93">
    <path d="M 454.863892 241.258438 
L 459.052278 241.258438 
L 459.052278 241.258438 
L 454.863892 241.258438 
z
" clip-path="url(#p1e522b0e08)" style="stroke: #ffffff; stroke-width: 0.8; stroke-linejoin: miter"/>
   </g>
   <g id="patch_94">
    <path d="M 459.052278 241.258438 
L 463.240665 241.258438 
L 463.240665 241.258438 
L 459.052278 241.258438 
z
" clip-path="url(#p1e522b0e08)" style="stroke: #ffffff; stroke-width: 0.8; stroke-linejoin: miter"/>
   </g>
   <g id="patch_95">
    <path d="M 463.240665 241.258438 
L 467.429051 241.258438 
L 467.429051 241.258438 
L 463.240665 241.258438 
z
" clip-path="url(#p1e522b0e08)" style="stroke: #ffffff; stroke-width: 0.8; stroke-linejoin: miter"/>
   </g>
   <g id="patch_96">
    <path d="M 467.429051 241.258438 
L 471.617438 241.258438 
L 471.617438 241.255792 
L 467.429051 241.255792 
z
" clip-path="url(#p1e522b0e08)" style="stroke: #ffffff; stroke-width: 0.8; stroke-linejoin: miter"/>
   </g>
   <g id="patch_97">
    <path d="M 471.617438 241.258438 
L 475.805824 241.258438 
L 475.805824 241.258438 
L 471.617438 241.258438 
z
" clip-path="url(#p1e522b0e08)" style="stroke: #ffffff; stroke-width: 0.8; stroke-linejoin: miter"/>
   </g>
   <g id="patch_98">
    <path d="M 475.805824 241.258438 
L 479.99421 241.258438 
L 479.99421 241.258438 
L 475.805824 241.258438 
z
" clip-path="url(#p1e522b0e08)" style="stroke: #ffffff; stroke-width: 0.8; stroke-linejoin: miter"/>
   </g>
   <g id="patch_99">
    <path d="M 479.99421 241.258438 
L 484.182597 241.258438 
L 484.182597 241.258438 
L 479.99421 241.258438 
z
" clip-path="url(#p1e522b0e08)" style="stroke: #ffffff; stroke-width: 0.8; stroke-linejoin: miter"/>
   </g>
   <g id="patch_100">
    <path d="M 484.182597 241.258438 
L 488.370983 241.258438 
L 488.370983 241.258438 
L 484.182597 241.258438 
z
" clip-path="url(#p1e522b0e08)" style="stroke: #ffffff; stroke-width: 0.8; stroke-linejoin: miter"/>
   </g>
   <g id="patch_101">
    <path d="M 488.370983 241.258438 
L 492.559369 241.258438 
L 492.559369 241.258438 
L 488.370983 241.258438 
z
" clip-path="url(#p1e522b0e08)" style="stroke: #ffffff; stroke-width: 0.8; stroke-linejoin: miter"/>
   </g>
   <g id="patch_102">
    <path d="M 492.559369 241.258438 
L 496.747756 241.258438 
L 496.747756 241.255792 
L 492.559369 241.255792 
z
" clip-path="url(#p1e522b0e08)" style="stroke: #ffffff; stroke-width: 0.8; stroke-linejoin: miter"/>
   </g>
   <g id="matplotlib.axis_1">
    <g id="xtick_1">
     <g id="line2d_1">
      <defs>
       <path id="m38543f516e" d="M 0 0 
L 0 4 
" style="stroke: #000000; stroke-width: 0.8"/>
      </defs>
      <g>
       <use xlink:href="#m38543f516e" x="77.909119" y="241.258438" style="stroke: #000000; stroke-width: 0.8"/>
      </g>
     </g>
     <g id="text_1">
      <!-- 0.0 -->
      <g transform="translate(69.957557 256.356875) scale(0.1 -0.1)">
       <defs>
        <path id="DejaVuSans-30" d="M 2034 4250 
Q 1547 4250 1301 3770 
Q 1056 3291 1056 2328 
Q 1056 1369 1301 889 
Q 1547 409 2034 409 
Q 2525 409 2770 889 
Q 3016 1369 3016 2328 
Q 3016 3291 2770 3770 
Q 2525 4250 2034 4250 
z
M 2034 4750 
Q 2819 4750 3233 4129 
Q 3647 3509 3647 2328 
Q 3647 1150 3233 529 
Q 2819 -91 2034 -91 
Q 1250 -91 836 529 
Q 422 1150 422 2328 
Q 422 3509 836 4129 
Q 1250 4750 2034 4750 
z
" transform="scale(0.015625)"/>
        <path id="DejaVuSans-2e" d="M 684 794 
L 1344 794 
L 1344 0 
L 684 0 
L 684 794 
z
" transform="scale(0.015625)"/>
       </defs>
       <use xlink:href="#DejaVuSans-30"/>
       <use xlink:href="#DejaVuSans-2e" transform="translate(63.623047 0)"/>
       <use xlink:href="#DejaVuSans-30" transform="translate(95.410156 0)"/>
      </g>
     </g>
    </g>
    <g id="xtick_2">
     <g id="line2d_2">
      <g>
       <use xlink:href="#m38543f516e" x="161.676847" y="241.258438" style="stroke: #000000; stroke-width: 0.8"/>
      </g>
     </g>
     <g id="text_2">
      <!-- 0.2 -->
      <g transform="translate(153.725284 256.356875) scale(0.1 -0.1)">
       <defs>
        <path id="DejaVuSans-32" d="M 1228 531 
L 3431 531 
L 3431 0 
L 469 0 
L 469 531 
Q 828 903 1448 1529 
Q 2069 2156 2228 2338 
Q 2531 2678 2651 2914 
Q 2772 3150 2772 3378 
Q 2772 3750 2511 3984 
Q 2250 4219 1831 4219 
Q 1534 4219 1204 4116 
Q 875 4013 500 3803 
L 500 4441 
Q 881 4594 1212 4672 
Q 1544 4750 1819 4750 
Q 2544 4750 2975 4387 
Q 3406 4025 3406 3419 
Q 3406 3131 3298 2873 
Q 3191 2616 2906 2266 
Q 2828 2175 2409 1742 
Q 1991 1309 1228 531 
z
" transform="scale(0.015625)"/>
       </defs>
       <use xlink:href="#DejaVuSans-30"/>
       <use xlink:href="#DejaVuSans-2e" transform="translate(63.623047 0)"/>
       <use xlink:href="#DejaVuSans-32" transform="translate(95.410156 0)"/>
      </g>
     </g>
    </g>
    <g id="xtick_3">
     <g id="line2d_3">
      <g>
       <use xlink:href="#m38543f516e" x="245.444574" y="241.258438" style="stroke: #000000; stroke-width: 0.8"/>
      </g>
     </g>
     <g id="text_3">
      <!-- 0.4 -->
      <g transform="translate(237.493011 256.356875) scale(0.1 -0.1)">
       <defs>
        <path id="DejaVuSans-34" d="M 2419 4116 
L 825 1625 
L 2419 1625 
L 2419 4116 
z
M 2253 4666 
L 3047 4666 
L 3047 1625 
L 3713 1625 
L 3713 1100 
L 3047 1100 
L 3047 0 
L 2419 0 
L 2419 1100 
L 313 1100 
L 313 1709 
L 2253 4666 
z
" transform="scale(0.015625)"/>
       </defs>
       <use xlink:href="#DejaVuSans-30"/>
       <use xlink:href="#DejaVuSans-2e" transform="translate(63.623047 0)"/>
       <use xlink:href="#DejaVuSans-34" transform="translate(95.410156 0)"/>
      </g>
     </g>
    </g>
    <g id="xtick_4">
     <g id="line2d_4">
      <g>
       <use xlink:href="#m38543f516e" x="329.212301" y="241.258438" style="stroke: #000000; stroke-width: 0.8"/>
      </g>
     </g>
     <g id="text_4">
      <!-- 0.6 -->
      <g transform="translate(321.260739 256.356875) scale(0.1 -0.1)">
       <defs>
        <path id="DejaVuSans-36" d="M 2113 2584 
Q 1688 2584 1439 2293 
Q 1191 2003 1191 1497 
Q 1191 994 1439 701 
Q 1688 409 2113 409 
Q 2538 409 2786 701 
Q 3034 994 3034 1497 
Q 3034 2003 2786 2293 
Q 2538 2584 2113 2584 
z
M 3366 4563 
L 3366 3988 
Q 3128 4100 2886 4159 
Q 2644 4219 2406 4219 
Q 1781 4219 1451 3797 
Q 1122 3375 1075 2522 
Q 1259 2794 1537 2939 
Q 1816 3084 2150 3084 
Q 2853 3084 3261 2657 
Q 3669 2231 3669 1497 
Q 3669 778 3244 343 
Q 2819 -91 2113 -91 
Q 1303 -91 875 529 
Q 447 1150 447 2328 
Q 447 3434 972 4092 
Q 1497 4750 2381 4750 
Q 2619 4750 2861 4703 
Q 3103 4656 3366 4563 
z
" transform="scale(0.015625)"/>
       </defs>
       <use xlink:href="#DejaVuSans-30"/>
       <use xlink:href="#DejaVuSans-2e" transform="translate(63.623047 0)"/>
       <use xlink:href="#DejaVuSans-36" transform="translate(95.410156 0)"/>
      </g>
     </g>
    </g>
    <g id="xtick_5">
     <g id="line2d_5">
      <g>
       <use xlink:href="#m38543f516e" x="412.980028" y="241.258438" style="stroke: #000000; stroke-width: 0.8"/>
      </g>
     </g>
     <g id="text_5">
      <!-- 0.8 -->
      <g transform="translate(405.028466 256.356875) scale(0.1 -0.1)">
       <defs>
        <path id="DejaVuSans-38" d="M 2034 2216 
Q 1584 2216 1326 1975 
Q 1069 1734 1069 1313 
Q 1069 891 1326 650 
Q 1584 409 2034 409 
Q 2484 409 2743 651 
Q 3003 894 3003 1313 
Q 3003 1734 2745 1975 
Q 2488 2216 2034 2216 
z
M 1403 2484 
Q 997 2584 770 2862 
Q 544 3141 544 3541 
Q 544 4100 942 4425 
Q 1341 4750 2034 4750 
Q 2731 4750 3128 4425 
Q 3525 4100 3525 3541 
Q 3525 3141 3298 2862 
Q 3072 2584 2669 2484 
Q 3125 2378 3379 2068 
Q 3634 1759 3634 1313 
Q 3634 634 3220 271 
Q 2806 -91 2034 -91 
Q 1263 -91 848 271 
Q 434 634 434 1313 
Q 434 1759 690 2068 
Q 947 2378 1403 2484 
z
M 1172 3481 
Q 1172 3119 1398 2916 
Q 1625 2713 2034 2713 
Q 2441 2713 2670 2916 
Q 2900 3119 2900 3481 
Q 2900 3844 2670 4047 
Q 2441 4250 2034 4250 
Q 1625 4250 1398 4047 
Q 1172 3844 1172 3481 
z
" transform="scale(0.015625)"/>
       </defs>
       <use xlink:href="#DejaVuSans-30"/>
       <use xlink:href="#DejaVuSans-2e" transform="translate(63.623047 0)"/>
       <use xlink:href="#DejaVuSans-38" transform="translate(95.410156 0)"/>
      </g>
     </g>
    </g>
    <g id="xtick_6">
     <g id="line2d_6">
      <g>
       <use xlink:href="#m38543f516e" x="496.747756" y="241.258438" style="stroke: #000000; stroke-width: 0.8"/>
      </g>
     </g>
     <g id="text_6">
      <!-- 1.0 -->
      <g transform="translate(488.796193 256.356875) scale(0.1 -0.1)">
       <defs>
        <path id="DejaVuSans-31" d="M 794 531 
L 1825 531 
L 1825 4091 
L 703 3866 
L 703 4441 
L 1819 4666 
L 2450 4666 
L 2450 531 
L 3481 531 
L 3481 0 
L 794 0 
L 794 531 
z
" transform="scale(0.015625)"/>
       </defs>
       <use xlink:href="#DejaVuSans-31"/>
       <use xlink:href="#DejaVuSans-2e" transform="translate(63.623047 0)"/>
       <use xlink:href="#DejaVuSans-30" transform="translate(95.410156 0)"/>
      </g>
     </g>
    </g>
    <g id="text_7">
     <!-- Glucose Import (EX_glc(e)) -->
     <g transform="translate(220.357344 270.035) scale(0.1 -0.1)">
      <defs>
       <path id="DejaVuSans-47" d="M 3809 666 
L 3809 1919 
L 2778 1919 
L 2778 2438 
L 4434 2438 
L 4434 434 
Q 4069 175 3628 42 
Q 3188 -91 2688 -91 
Q 1594 -91 976 548 
Q 359 1188 359 2328 
Q 359 3472 976 4111 
Q 1594 4750 2688 4750 
Q 3144 4750 3555 4637 
Q 3966 4525 4313 4306 
L 4313 3634 
Q 3963 3931 3569 4081 
Q 3175 4231 2741 4231 
Q 1884 4231 1454 3753 
Q 1025 3275 1025 2328 
Q 1025 1384 1454 906 
Q 1884 428 2741 428 
Q 3075 428 3337 486 
Q 3600 544 3809 666 
z
" transform="scale(0.015625)"/>
       <path id="DejaVuSans-6c" d="M 603 4863 
L 1178 4863 
L 1178 0 
L 603 0 
L 603 4863 
z
" transform="scale(0.015625)"/>
       <path id="DejaVuSans-75" d="M 544 1381 
L 544 3500 
L 1119 3500 
L 1119 1403 
Q 1119 906 1312 657 
Q 1506 409 1894 409 
Q 2359 409 2629 706 
Q 2900 1003 2900 1516 
L 2900 3500 
L 3475 3500 
L 3475 0 
L 2900 0 
L 2900 538 
Q 2691 219 2414 64 
Q 2138 -91 1772 -91 
Q 1169 -91 856 284 
Q 544 659 544 1381 
z
M 1991 3584 
L 1991 3584 
z
" transform="scale(0.015625)"/>
       <path id="DejaVuSans-63" d="M 3122 3366 
L 3122 2828 
Q 2878 2963 2633 3030 
Q 2388 3097 2138 3097 
Q 1578 3097 1268 2742 
Q 959 2388 959 1747 
Q 959 1106 1268 751 
Q 1578 397 2138 397 
Q 2388 397 2633 464 
Q 2878 531 3122 666 
L 3122 134 
Q 2881 22 2623 -34 
Q 2366 -91 2075 -91 
Q 1284 -91 818 406 
Q 353 903 353 1747 
Q 353 2603 823 3093 
Q 1294 3584 2113 3584 
Q 2378 3584 2631 3529 
Q 2884 3475 3122 3366 
z
" transform="scale(0.015625)"/>
       <path id="DejaVuSans-6f" d="M 1959 3097 
Q 1497 3097 1228 2736 
Q 959 2375 959 1747 
Q 959 1119 1226 758 
Q 1494 397 1959 397 
Q 2419 397 2687 759 
Q 2956 1122 2956 1747 
Q 2956 2369 2687 2733 
Q 2419 3097 1959 3097 
z
M 1959 3584 
Q 2709 3584 3137 3096 
Q 3566 2609 3566 1747 
Q 3566 888 3137 398 
Q 2709 -91 1959 -91 
Q 1206 -91 779 398 
Q 353 888 353 1747 
Q 353 2609 779 3096 
Q 1206 3584 1959 3584 
z
" transform="scale(0.015625)"/>
       <path id="DejaVuSans-73" d="M 2834 3397 
L 2834 2853 
Q 2591 2978 2328 3040 
Q 2066 3103 1784 3103 
Q 1356 3103 1142 2972 
Q 928 2841 928 2578 
Q 928 2378 1081 2264 
Q 1234 2150 1697 2047 
L 1894 2003 
Q 2506 1872 2764 1633 
Q 3022 1394 3022 966 
Q 3022 478 2636 193 
Q 2250 -91 1575 -91 
Q 1294 -91 989 -36 
Q 684 19 347 128 
L 347 722 
Q 666 556 975 473 
Q 1284 391 1588 391 
Q 1994 391 2212 530 
Q 2431 669 2431 922 
Q 2431 1156 2273 1281 
Q 2116 1406 1581 1522 
L 1381 1569 
Q 847 1681 609 1914 
Q 372 2147 372 2553 
Q 372 3047 722 3315 
Q 1072 3584 1716 3584 
Q 2034 3584 2315 3537 
Q 2597 3491 2834 3397 
z
" transform="scale(0.015625)"/>
       <path id="DejaVuSans-65" d="M 3597 1894 
L 3597 1613 
L 953 1613 
Q 991 1019 1311 708 
Q 1631 397 2203 397 
Q 2534 397 2845 478 
Q 3156 559 3463 722 
L 3463 178 
Q 3153 47 2828 -22 
Q 2503 -91 2169 -91 
Q 1331 -91 842 396 
Q 353 884 353 1716 
Q 353 2575 817 3079 
Q 1281 3584 2069 3584 
Q 2775 3584 3186 3129 
Q 3597 2675 3597 1894 
z
M 3022 2063 
Q 3016 2534 2758 2815 
Q 2500 3097 2075 3097 
Q 1594 3097 1305 2825 
Q 1016 2553 972 2059 
L 3022 2063 
z
" transform="scale(0.015625)"/>
       <path id="DejaVuSans-20" transform="scale(0.015625)"/>
       <path id="DejaVuSans-49" d="M 628 4666 
L 1259 4666 
L 1259 0 
L 628 0 
L 628 4666 
z
" transform="scale(0.015625)"/>
       <path id="DejaVuSans-6d" d="M 3328 2828 
Q 3544 3216 3844 3400 
Q 4144 3584 4550 3584 
Q 5097 3584 5394 3201 
Q 5691 2819 5691 2113 
L 5691 0 
L 5113 0 
L 5113 2094 
Q 5113 2597 4934 2840 
Q 4756 3084 4391 3084 
Q 3944 3084 3684 2787 
Q 3425 2491 3425 1978 
L 3425 0 
L 2847 0 
L 2847 2094 
Q 2847 2600 2669 2842 
Q 2491 3084 2119 3084 
Q 1678 3084 1418 2786 
Q 1159 2488 1159 1978 
L 1159 0 
L 581 0 
L 581 3500 
L 1159 3500 
L 1159 2956 
Q 1356 3278 1631 3431 
Q 1906 3584 2284 3584 
Q 2666 3584 2933 3390 
Q 3200 3197 3328 2828 
z
" transform="scale(0.015625)"/>
       <path id="DejaVuSans-70" d="M 1159 525 
L 1159 -1331 
L 581 -1331 
L 581 3500 
L 1159 3500 
L 1159 2969 
Q 1341 3281 1617 3432 
Q 1894 3584 2278 3584 
Q 2916 3584 3314 3078 
Q 3713 2572 3713 1747 
Q 3713 922 3314 415 
Q 2916 -91 2278 -91 
Q 1894 -91 1617 61 
Q 1341 213 1159 525 
z
M 3116 1747 
Q 3116 2381 2855 2742 
Q 2594 3103 2138 3103 
Q 1681 3103 1420 2742 
Q 1159 2381 1159 1747 
Q 1159 1113 1420 752 
Q 1681 391 2138 391 
Q 2594 391 2855 752 
Q 3116 1113 3116 1747 
z
" transform="scale(0.015625)"/>
       <path id="DejaVuSans-72" d="M 2631 2963 
Q 2534 3019 2420 3045 
Q 2306 3072 2169 3072 
Q 1681 3072 1420 2755 
Q 1159 2438 1159 1844 
L 1159 0 
L 581 0 
L 581 3500 
L 1159 3500 
L 1159 2956 
Q 1341 3275 1631 3429 
Q 1922 3584 2338 3584 
Q 2397 3584 2469 3576 
Q 2541 3569 2628 3553 
L 2631 2963 
z
" transform="scale(0.015625)"/>
       <path id="DejaVuSans-74" d="M 1172 4494 
L 1172 3500 
L 2356 3500 
L 2356 3053 
L 1172 3053 
L 1172 1153 
Q 1172 725 1289 603 
Q 1406 481 1766 481 
L 2356 481 
L 2356 0 
L 1766 0 
Q 1100 0 847 248 
Q 594 497 594 1153 
L 594 3053 
L 172 3053 
L 172 3500 
L 594 3500 
L 594 4494 
L 1172 4494 
z
" transform="scale(0.015625)"/>
       <path id="DejaVuSans-28" d="M 1984 4856 
Q 1566 4138 1362 3434 
Q 1159 2731 1159 2009 
Q 1159 1288 1364 580 
Q 1569 -128 1984 -844 
L 1484 -844 
Q 1016 -109 783 600 
Q 550 1309 550 2009 
Q 550 2706 781 3412 
Q 1013 4119 1484 4856 
L 1984 4856 
z
" transform="scale(0.015625)"/>
       <path id="DejaVuSans-45" d="M 628 4666 
L 3578 4666 
L 3578 4134 
L 1259 4134 
L 1259 2753 
L 3481 2753 
L 3481 2222 
L 1259 2222 
L 1259 531 
L 3634 531 
L 3634 0 
L 628 0 
L 628 4666 
z
" transform="scale(0.015625)"/>
       <path id="DejaVuSans-58" d="M 403 4666 
L 1081 4666 
L 2241 2931 
L 3406 4666 
L 4084 4666 
L 2584 2425 
L 4184 0 
L 3506 0 
L 2194 1984 
L 872 0 
L 191 0 
L 1856 2491 
L 403 4666 
z
" transform="scale(0.015625)"/>
       <path id="DejaVuSans-5f" d="M 3263 -1063 
L 3263 -1509 
L -63 -1509 
L -63 -1063 
L 3263 -1063 
z
" transform="scale(0.015625)"/>
       <path id="DejaVuSans-67" d="M 2906 1791 
Q 2906 2416 2648 2759 
Q 2391 3103 1925 3103 
Q 1463 3103 1205 2759 
Q 947 2416 947 1791 
Q 947 1169 1205 825 
Q 1463 481 1925 481 
Q 2391 481 2648 825 
Q 2906 1169 2906 1791 
z
M 3481 434 
Q 3481 -459 3084 -895 
Q 2688 -1331 1869 -1331 
Q 1566 -1331 1297 -1286 
Q 1028 -1241 775 -1147 
L 775 -588 
Q 1028 -725 1275 -790 
Q 1522 -856 1778 -856 
Q 2344 -856 2625 -561 
Q 2906 -266 2906 331 
L 2906 616 
Q 2728 306 2450 153 
Q 2172 0 1784 0 
Q 1141 0 747 490 
Q 353 981 353 1791 
Q 353 2603 747 3093 
Q 1141 3584 1784 3584 
Q 2172 3584 2450 3431 
Q 2728 3278 2906 2969 
L 2906 3500 
L 3481 3500 
L 3481 434 
z
" transform="scale(0.015625)"/>
       <path id="DejaVuSans-29" d="M 513 4856 
L 1013 4856 
Q 1481 4119 1714 3412 
Q 1947 2706 1947 2009 
Q 1947 1309 1714 600 
Q 1481 -109 1013 -844 
L 513 -844 
Q 928 -128 1133 580 
Q 1338 1288 1338 2009 
Q 1338 2731 1133 3434 
Q 928 4138 513 4856 
z
" transform="scale(0.015625)"/>
      </defs>
      <use xlink:href="#DejaVuSans-47"/>
      <use xlink:href="#DejaVuSans-6c" transform="translate(77.490234 0)"/>
      <use xlink:href="#DejaVuSans-75" transform="translate(105.273438 0)"/>
      <use xlink:href="#DejaVuSans-63" transform="translate(168.652344 0)"/>
      <use xlink:href="#DejaVuSans-6f" transform="translate(223.632812 0)"/>
      <use xlink:href="#DejaVuSans-73" transform="translate(284.814453 0)"/>
      <use xlink:href="#DejaVuSans-65" transform="translate(336.914062 0)"/>
      <use xlink:href="#DejaVuSans-20" transform="translate(398.4375 0)"/>
      <use xlink:href="#DejaVuSans-49" transform="translate(430.224609 0)"/>
      <use xlink:href="#DejaVuSans-6d" transform="translate(459.716797 0)"/>
      <use xlink:href="#DejaVuSans-70" transform="translate(557.128906 0)"/>
      <use xlink:href="#DejaVuSans-6f" transform="translate(620.605469 0)"/>
      <use xlink:href="#DejaVuSans-72" transform="translate(681.787109 0)"/>
      <use xlink:href="#DejaVuSans-74" transform="translate(722.900391 0)"/>
      <use xlink:href="#DejaVuSans-20" transform="translate(762.109375 0)"/>
      <use xlink:href="#DejaVuSans-28" transform="translate(793.896484 0)"/>
      <use xlink:href="#DejaVuSans-45" transform="translate(832.910156 0)"/>
      <use xlink:href="#DejaVuSans-58" transform="translate(896.09375 0)"/>
      <use xlink:href="#DejaVuSans-5f" transform="translate(964.599609 0)"/>
      <use xlink:href="#DejaVuSans-67" transform="translate(1014.599609 0)"/>
      <use xlink:href="#DejaVuSans-6c" transform="translate(1078.076172 0)"/>
      <use xlink:href="#DejaVuSans-63" transform="translate(1105.859375 0)"/>
      <use xlink:href="#DejaVuSans-28" transform="translate(1160.839844 0)"/>
      <use xlink:href="#DejaVuSans-65" transform="translate(1199.853516 0)"/>
      <use xlink:href="#DejaVuSans-29" transform="translate(1261.376953 0)"/>
      <use xlink:href="#DejaVuSans-29" transform="translate(1300.390625 0)"/>
     </g>
    </g>
   </g>
   <g id="matplotlib.axis_2">
    <g id="ytick_1">
     <g id="line2d_7">
      <defs>
       <path id="m92e1b3dc77" d="M 0 0 
L -4 0 
" style="stroke: #000000; stroke-width: 0.8"/>
      </defs>
      <g>
       <use xlink:href="#m92e1b3dc77" x="56.967188" y="241.258438" style="stroke: #000000; stroke-width: 0.8"/>
      </g>
     </g>
     <g id="text_8">
      <!-- 0% -->
      <g transform="translate(33.603125 245.057656) scale(0.1 -0.1)">
       <defs>
        <path id="DejaVuSans-25" d="M 4653 2053 
Q 4381 2053 4226 1822 
Q 4072 1591 4072 1178 
Q 4072 772 4226 539 
Q 4381 306 4653 306 
Q 4919 306 5073 539 
Q 5228 772 5228 1178 
Q 5228 1588 5073 1820 
Q 4919 2053 4653 2053 
z
M 4653 2450 
Q 5147 2450 5437 2106 
Q 5728 1763 5728 1178 
Q 5728 594 5436 251 
Q 5144 -91 4653 -91 
Q 4153 -91 3862 251 
Q 3572 594 3572 1178 
Q 3572 1766 3864 2108 
Q 4156 2450 4653 2450 
z
M 1428 4353 
Q 1159 4353 1004 4120 
Q 850 3888 850 3481 
Q 850 3069 1003 2837 
Q 1156 2606 1428 2606 
Q 1700 2606 1854 2837 
Q 2009 3069 2009 3481 
Q 2009 3884 1853 4118 
Q 1697 4353 1428 4353 
z
M 4250 4750 
L 4750 4750 
L 1831 -91 
L 1331 -91 
L 4250 4750 
z
M 1428 4750 
Q 1922 4750 2215 4408 
Q 2509 4066 2509 3481 
Q 2509 2891 2217 2550 
Q 1925 2209 1428 2209 
Q 931 2209 642 2551 
Q 353 2894 353 3481 
Q 353 4063 643 4406 
Q 934 4750 1428 4750 
z
" transform="scale(0.015625)"/>
       </defs>
       <use xlink:href="#DejaVuSans-30"/>
       <use xlink:href="#DejaVuSans-25" transform="translate(63.623047 0)"/>
      </g>
     </g>
    </g>
    <g id="ytick_2">
     <g id="line2d_8">
      <g>
       <use xlink:href="#m92e1b3dc77" x="56.967188" y="197.614509" style="stroke: #000000; stroke-width: 0.8"/>
      </g>
     </g>
     <g id="text_9">
      <!-- 20% -->
      <g transform="translate(27.240625 201.413727) scale(0.1 -0.1)">
       <use xlink:href="#DejaVuSans-32"/>
       <use xlink:href="#DejaVuSans-30" transform="translate(63.623047 0)"/>
       <use xlink:href="#DejaVuSans-25" transform="translate(127.246094 0)"/>
      </g>
     </g>
    </g>
    <g id="ytick_3">
     <g id="line2d_9">
      <g>
       <use xlink:href="#m92e1b3dc77" x="56.967188" y="153.97058" style="stroke: #000000; stroke-width: 0.8"/>
      </g>
     </g>
     <g id="text_10">
      <!-- 40% -->
      <g transform="translate(27.240625 157.769799) scale(0.1 -0.1)">
       <use xlink:href="#DejaVuSans-34"/>
       <use xlink:href="#DejaVuSans-30" transform="translate(63.623047 0)"/>
       <use xlink:href="#DejaVuSans-25" transform="translate(127.246094 0)"/>
      </g>
     </g>
    </g>
    <g id="ytick_4">
     <g id="line2d_10">
      <g>
       <use xlink:href="#m92e1b3dc77" x="56.967188" y="110.326651" style="stroke: #000000; stroke-width: 0.8"/>
      </g>
     </g>
     <g id="text_11">
      <!-- 60% -->
      <g transform="translate(27.240625 114.12587) scale(0.1 -0.1)">
       <use xlink:href="#DejaVuSans-36"/>
       <use xlink:href="#DejaVuSans-30" transform="translate(63.623047 0)"/>
       <use xlink:href="#DejaVuSans-25" transform="translate(127.246094 0)"/>
      </g>
     </g>
    </g>
    <g id="ytick_5">
     <g id="line2d_11">
      <g>
       <use xlink:href="#m92e1b3dc77" x="56.967188" y="66.682722" style="stroke: #000000; stroke-width: 0.8"/>
      </g>
     </g>
     <g id="text_12">
      <!-- 80% -->
      <g transform="translate(27.240625 70.481941) scale(0.1 -0.1)">
       <use xlink:href="#DejaVuSans-38"/>
       <use xlink:href="#DejaVuSans-30" transform="translate(63.623047 0)"/>
       <use xlink:href="#DejaVuSans-25" transform="translate(127.246094 0)"/>
      </g>
     </g>
    </g>
    <g id="ytick_6">
     <g id="line2d_12">
      <g>
       <use xlink:href="#m92e1b3dc77" x="56.967188" y="23.038793" style="stroke: #000000; stroke-width: 0.8"/>
      </g>
     </g>
     <g id="text_13">
      <!-- 100% -->
      <g transform="translate(20.878125 26.838012) scale(0.1 -0.1)">
       <use xlink:href="#DejaVuSans-31"/>
       <use xlink:href="#DejaVuSans-30" transform="translate(63.623047 0)"/>
       <use xlink:href="#DejaVuSans-30" transform="translate(127.246094 0)"/>
       <use xlink:href="#DejaVuSans-25" transform="translate(190.869141 0)"/>
      </g>
     </g>
    </g>
    <g id="text_14">
     <!-- Percentage of Entries (%) -->
     <g transform="translate(14.798438 194.804219) rotate(-90) scale(0.1 -0.1)">
      <defs>
       <path id="DejaVuSans-50" d="M 1259 4147 
L 1259 2394 
L 2053 2394 
Q 2494 2394 2734 2622 
Q 2975 2850 2975 3272 
Q 2975 3691 2734 3919 
Q 2494 4147 2053 4147 
L 1259 4147 
z
M 628 4666 
L 2053 4666 
Q 2838 4666 3239 4311 
Q 3641 3956 3641 3272 
Q 3641 2581 3239 2228 
Q 2838 1875 2053 1875 
L 1259 1875 
L 1259 0 
L 628 0 
L 628 4666 
z
" transform="scale(0.015625)"/>
       <path id="DejaVuSans-6e" d="M 3513 2113 
L 3513 0 
L 2938 0 
L 2938 2094 
Q 2938 2591 2744 2837 
Q 2550 3084 2163 3084 
Q 1697 3084 1428 2787 
Q 1159 2491 1159 1978 
L 1159 0 
L 581 0 
L 581 3500 
L 1159 3500 
L 1159 2956 
Q 1366 3272 1645 3428 
Q 1925 3584 2291 3584 
Q 2894 3584 3203 3211 
Q 3513 2838 3513 2113 
z
" transform="scale(0.015625)"/>
       <path id="DejaVuSans-61" d="M 2194 1759 
Q 1497 1759 1228 1600 
Q 959 1441 959 1056 
Q 959 750 1161 570 
Q 1363 391 1709 391 
Q 2188 391 2477 730 
Q 2766 1069 2766 1631 
L 2766 1759 
L 2194 1759 
z
M 3341 1997 
L 3341 0 
L 2766 0 
L 2766 531 
Q 2569 213 2275 61 
Q 1981 -91 1556 -91 
Q 1019 -91 701 211 
Q 384 513 384 1019 
Q 384 1609 779 1909 
Q 1175 2209 1959 2209 
L 2766 2209 
L 2766 2266 
Q 2766 2663 2505 2880 
Q 2244 3097 1772 3097 
Q 1472 3097 1187 3025 
Q 903 2953 641 2809 
L 641 3341 
Q 956 3463 1253 3523 
Q 1550 3584 1831 3584 
Q 2591 3584 2966 3190 
Q 3341 2797 3341 1997 
z
" transform="scale(0.015625)"/>
       <path id="DejaVuSans-66" d="M 2375 4863 
L 2375 4384 
L 1825 4384 
Q 1516 4384 1395 4259 
Q 1275 4134 1275 3809 
L 1275 3500 
L 2222 3500 
L 2222 3053 
L 1275 3053 
L 1275 0 
L 697 0 
L 697 3053 
L 147 3053 
L 147 3500 
L 697 3500 
L 697 3744 
Q 697 4328 969 4595 
Q 1241 4863 1831 4863 
L 2375 4863 
z
" transform="scale(0.015625)"/>
       <path id="DejaVuSans-69" d="M 603 3500 
L 1178 3500 
L 1178 0 
L 603 0 
L 603 3500 
z
M 603 4863 
L 1178 4863 
L 1178 4134 
L 603 4134 
L 603 4863 
z
" transform="scale(0.015625)"/>
      </defs>
      <use xlink:href="#DejaVuSans-50"/>
      <use xlink:href="#DejaVuSans-65" transform="translate(56.677734 0)"/>
      <use xlink:href="#DejaVuSans-72" transform="translate(118.201172 0)"/>
      <use xlink:href="#DejaVuSans-63" transform="translate(157.064453 0)"/>
      <use xlink:href="#DejaVuSans-65" transform="translate(212.044922 0)"/>
      <use xlink:href="#DejaVuSans-6e" transform="translate(273.568359 0)"/>
      <use xlink:href="#DejaVuSans-74" transform="translate(336.947266 0)"/>
      <use xlink:href="#DejaVuSans-61" transform="translate(376.15625 0)"/>
      <use xlink:href="#DejaVuSans-67" transform="translate(437.435547 0)"/>
      <use xlink:href="#DejaVuSans-65" transform="translate(500.912109 0)"/>
      <use xlink:href="#DejaVuSans-20" transform="translate(562.435547 0)"/>
      <use xlink:href="#DejaVuSans-6f" transform="translate(594.222656 0)"/>
      <use xlink:href="#DejaVuSans-66" transform="translate(655.404297 0)"/>
      <use xlink:href="#DejaVuSans-20" transform="translate(690.609375 0)"/>
      <use xlink:href="#DejaVuSans-45" transform="translate(722.396484 0)"/>
      <use xlink:href="#DejaVuSans-6e" transform="translate(785.580078 0)"/>
      <use xlink:href="#DejaVuSans-74" transform="translate(848.958984 0)"/>
      <use xlink:href="#DejaVuSans-72" transform="translate(888.167969 0)"/>
      <use xlink:href="#DejaVuSans-69" transform="translate(929.28125 0)"/>
      <use xlink:href="#DejaVuSans-65" transform="translate(957.064453 0)"/>
      <use xlink:href="#DejaVuSans-73" transform="translate(1018.587891 0)"/>
      <use xlink:href="#DejaVuSans-20" transform="translate(1070.6875 0)"/>
      <use xlink:href="#DejaVuSans-28" transform="translate(1102.474609 0)"/>
      <use xlink:href="#DejaVuSans-25" transform="translate(1141.488281 0)"/>
      <use xlink:href="#DejaVuSans-29" transform="translate(1236.507812 0)"/>
     </g>
    </g>
   </g>
   <g id="patch_103">
    <path d="M 56.967188 241.258438 
L 56.967188 20.798438 
" style="fill: none; stroke: #000000; stroke-width: 0.8; stroke-linejoin: miter; stroke-linecap: square"/>
   </g>
   <g id="patch_104">
    <path d="M 56.967188 241.258438 
L 517.689688 241.258438 
" style="fill: none; stroke: #000000; stroke-width: 0.8; stroke-linejoin: miter; stroke-linecap: square"/>
   </g>
   <g id="text_15">
    <!-- Globally Scaled Data (Max Glc Import = 1) – EFMs -->
    <g transform="translate(162.491719 14.798438) scale(0.1 -0.1)">
     <defs>
      <path id="DejaVuSans-62" d="M 3116 1747 
Q 3116 2381 2855 2742 
Q 2594 3103 2138 3103 
Q 1681 3103 1420 2742 
Q 1159 2381 1159 1747 
Q 1159 1113 1420 752 
Q 1681 391 2138 391 
Q 2594 391 2855 752 
Q 3116 1113 3116 1747 
z
M 1159 2969 
Q 1341 3281 1617 3432 
Q 1894 3584 2278 3584 
Q 2916 3584 3314 3078 
Q 3713 2572 3713 1747 
Q 3713 922 3314 415 
Q 2916 -91 2278 -91 
Q 1894 -91 1617 61 
Q 1341 213 1159 525 
L 1159 0 
L 581 0 
L 581 4863 
L 1159 4863 
L 1159 2969 
z
" transform="scale(0.015625)"/>
      <path id="DejaVuSans-79" d="M 2059 -325 
Q 1816 -950 1584 -1140 
Q 1353 -1331 966 -1331 
L 506 -1331 
L 506 -850 
L 844 -850 
Q 1081 -850 1212 -737 
Q 1344 -625 1503 -206 
L 1606 56 
L 191 3500 
L 800 3500 
L 1894 763 
L 2988 3500 
L 3597 3500 
L 2059 -325 
z
" transform="scale(0.015625)"/>
      <path id="DejaVuSans-53" d="M 3425 4513 
L 3425 3897 
Q 3066 4069 2747 4153 
Q 2428 4238 2131 4238 
Q 1616 4238 1336 4038 
Q 1056 3838 1056 3469 
Q 1056 3159 1242 3001 
Q 1428 2844 1947 2747 
L 2328 2669 
Q 3034 2534 3370 2195 
Q 3706 1856 3706 1288 
Q 3706 609 3251 259 
Q 2797 -91 1919 -91 
Q 1588 -91 1214 -16 
Q 841 59 441 206 
L 441 856 
Q 825 641 1194 531 
Q 1563 422 1919 422 
Q 2459 422 2753 634 
Q 3047 847 3047 1241 
Q 3047 1584 2836 1778 
Q 2625 1972 2144 2069 
L 1759 2144 
Q 1053 2284 737 2584 
Q 422 2884 422 3419 
Q 422 4038 858 4394 
Q 1294 4750 2059 4750 
Q 2388 4750 2728 4690 
Q 3069 4631 3425 4513 
z
" transform="scale(0.015625)"/>
      <path id="DejaVuSans-64" d="M 2906 2969 
L 2906 4863 
L 3481 4863 
L 3481 0 
L 2906 0 
L 2906 525 
Q 2725 213 2448 61 
Q 2172 -91 1784 -91 
Q 1150 -91 751 415 
Q 353 922 353 1747 
Q 353 2572 751 3078 
Q 1150 3584 1784 3584 
Q 2172 3584 2448 3432 
Q 2725 3281 2906 2969 
z
M 947 1747 
Q 947 1113 1208 752 
Q 1469 391 1925 391 
Q 2381 391 2643 752 
Q 2906 1113 2906 1747 
Q 2906 2381 2643 2742 
Q 2381 3103 1925 3103 
Q 1469 3103 1208 2742 
Q 947 2381 947 1747 
z
" transform="scale(0.015625)"/>
      <path id="DejaVuSans-44" d="M 1259 4147 
L 1259 519 
L 2022 519 
Q 2988 519 3436 956 
Q 3884 1394 3884 2338 
Q 3884 3275 3436 3711 
Q 2988 4147 2022 4147 
L 1259 4147 
z
M 628 4666 
L 1925 4666 
Q 3281 4666 3915 4102 
Q 4550 3538 4550 2338 
Q 4550 1131 3912 565 
Q 3275 0 1925 0 
L 628 0 
L 628 4666 
z
" transform="scale(0.015625)"/>
      <path id="DejaVuSans-4d" d="M 628 4666 
L 1569 4666 
L 2759 1491 
L 3956 4666 
L 4897 4666 
L 4897 0 
L 4281 0 
L 4281 4097 
L 3078 897 
L 2444 897 
L 1241 4097 
L 1241 0 
L 628 0 
L 628 4666 
z
" transform="scale(0.015625)"/>
      <path id="DejaVuSans-78" d="M 3513 3500 
L 2247 1797 
L 3578 0 
L 2900 0 
L 1881 1375 
L 863 0 
L 184 0 
L 1544 1831 
L 300 3500 
L 978 3500 
L 1906 2253 
L 2834 3500 
L 3513 3500 
z
" transform="scale(0.015625)"/>
      <path id="DejaVuSans-3d" d="M 678 2906 
L 4684 2906 
L 4684 2381 
L 678 2381 
L 678 2906 
z
M 678 1631 
L 4684 1631 
L 4684 1100 
L 678 1100 
L 678 1631 
z
" transform="scale(0.015625)"/>
      <path id="DejaVuSans-2013" d="M 313 1978 
L 2888 1978 
L 2888 1528 
L 313 1528 
L 313 1978 
z
" transform="scale(0.015625)"/>
      <path id="DejaVuSans-46" d="M 628 4666 
L 3309 4666 
L 3309 4134 
L 1259 4134 
L 1259 2759 
L 3109 2759 
L 3109 2228 
L 1259 2228 
L 1259 0 
L 628 0 
L 628 4666 
z
" transform="scale(0.015625)"/>
     </defs>
     <use xlink:href="#DejaVuSans-47"/>
     <use xlink:href="#DejaVuSans-6c" transform="translate(77.490234 0)"/>
     <use xlink:href="#DejaVuSans-6f" transform="translate(105.273438 0)"/>
     <use xlink:href="#DejaVuSans-62" transform="translate(166.455078 0)"/>
     <use xlink:href="#DejaVuSans-61" transform="translate(229.931641 0)"/>
     <use xlink:href="#DejaVuSans-6c" transform="translate(291.210938 0)"/>
     <use xlink:href="#DejaVuSans-6c" transform="translate(318.994141 0)"/>
     <use xlink:href="#DejaVuSans-79" transform="translate(346.777344 0)"/>
     <use xlink:href="#DejaVuSans-20" transform="translate(405.957031 0)"/>
     <use xlink:href="#DejaVuSans-53" transform="translate(437.744141 0)"/>
     <use xlink:href="#DejaVuSans-63" transform="translate(501.220703 0)"/>
     <use xlink:href="#DejaVuSans-61" transform="translate(556.201172 0)"/>
     <use xlink:href="#DejaVuSans-6c" transform="translate(617.480469 0)"/>
     <use xlink:href="#DejaVuSans-65" transform="translate(645.263672 0)"/>
     <use xlink:href="#DejaVuSans-64" transform="translate(706.787109 0)"/>
     <use xlink:href="#DejaVuSans-20" transform="translate(770.263672 0)"/>
     <use xlink:href="#DejaVuSans-44" transform="translate(802.050781 0)"/>
     <use xlink:href="#DejaVuSans-61" transform="translate(879.052734 0)"/>
     <use xlink:href="#DejaVuSans-74" transform="translate(940.332031 0)"/>
     <use xlink:href="#DejaVuSans-61" transform="translate(979.541016 0)"/>
     <use xlink:href="#DejaVuSans-20" transform="translate(1040.820312 0)"/>
     <use xlink:href="#DejaVuSans-28" transform="translate(1072.607422 0)"/>
     <use xlink:href="#DejaVuSans-4d" transform="translate(1111.621094 0)"/>
     <use xlink:href="#DejaVuSans-61" transform="translate(1197.900391 0)"/>
     <use xlink:href="#DejaVuSans-78" transform="translate(1259.179688 0)"/>
     <use xlink:href="#DejaVuSans-20" transform="translate(1318.359375 0)"/>
     <use xlink:href="#DejaVuSans-47" transform="translate(1350.146484 0)"/>
     <use xlink:href="#DejaVuSans-6c" transform="translate(1427.636719 0)"/>
     <use xlink:href="#DejaVuSans-63" transform="translate(1455.419922 0)"/>
     <use xlink:href="#DejaVuSans-20" transform="translate(1510.400391 0)"/>
     <use xlink:href="#DejaVuSans-49" transform="translate(1542.1875 0)"/>
     <use xlink:href="#DejaVuSans-6d" transform="translate(1571.679688 0)"/>
     <use xlink:href="#DejaVuSans-70" transform="translate(1669.091797 0)"/>
     <use xlink:href="#DejaVuSans-6f" transform="translate(1732.568359 0)"/>
     <use xlink:href="#DejaVuSans-72" transform="translate(1793.75 0)"/>
     <use xlink:href="#DejaVuSans-74" transform="translate(1834.863281 0)"/>
     <use xlink:href="#DejaVuSans-20" transform="translate(1874.072266 0)"/>
     <use xlink:href="#DejaVuSans-3d" transform="translate(1905.859375 0)"/>
     <use xlink:href="#DejaVuSans-20" transform="translate(1989.648438 0)"/>
     <use xlink:href="#DejaVuSans-31" transform="translate(2021.435547 0)"/>
     <use xlink:href="#DejaVuSans-29" transform="translate(2085.058594 0)"/>
     <use xlink:href="#DejaVuSans-20" transform="translate(2124.072266 0)"/>
     <use xlink:href="#DejaVuSans-2013" transform="translate(2155.859375 0)"/>
     <use xlink:href="#DejaVuSans-20" transform="translate(2205.859375 0)"/>
     <use xlink:href="#DejaVuSans-45" transform="translate(2237.646484 0)"/>
     <use xlink:href="#DejaVuSans-46" transform="translate(2300.830078 0)"/>
     <use xlink:href="#DejaVuSans-4d" transform="translate(2358.349609 0)"/>
     <use xlink:href="#DejaVuSans-73" transform="translate(2444.628906 0)"/>
    </g>
   </g>
  </g>
  <g id="axes_2">
   <g id="patch_105">
    <path d="M 532.489688 241.258438 
L 993.212188 241.258438 
L 993.212188 20.798438 
L 532.489688 20.798438 
z
" style="fill: #ffffff"/>
   </g>
   <g id="patch_106">
    <path d="M 553.431619 241.258438 
L 557.620006 241.258438 
L 557.620006 241.258438 
L 553.431619 241.258438 
z
" clip-path="url(#p5baaca97b1)" style="stroke: #ffffff; stroke-width: 0.8; stroke-linejoin: miter"/>
   </g>
   <g id="patch_107">
    <path d="M 557.620006 241.258438 
L 561.808392 241.258438 
L 561.808392 241.258438 
L 557.620006 241.258438 
z
" clip-path="url(#p5baaca97b1)" style="stroke: #ffffff; stroke-width: 0.8; stroke-linejoin: miter"/>
   </g>
   <g id="patch_108">
    <path d="M 561.808392 241.258438 
L 565.996778 241.258438 
L 565.996778 241.258438 
L 561.808392 241.258438 
z
" clip-path="url(#p5baaca97b1)" style="stroke: #ffffff; stroke-width: 0.8; stroke-linejoin: miter"/>
   </g>
   <g id="patch_109">
    <path d="M 565.996778 241.258438 
L 570.185165 241.258438 
L 570.185165 241.258438 
L 565.996778 241.258438 
z
" clip-path="url(#p5baaca97b1)" style="stroke: #ffffff; stroke-width: 0.8; stroke-linejoin: miter"/>
   </g>
   <g id="patch_110">
    <path d="M 570.185165 241.258438 
L 574.373551 241.258438 
L 574.373551 241.252888 
L 570.185165 241.252888 
z
" clip-path="url(#p5baaca97b1)" style="stroke: #ffffff; stroke-width: 0.8; stroke-linejoin: miter"/>
   </g>
   <g id="patch_111">
    <path d="M 574.373551 241.258438 
L 578.561938 241.258438 
L 578.561938 241.180744 
L 574.373551 241.180744 
z
" clip-path="url(#p5baaca97b1)" style="stroke: #ffffff; stroke-width: 0.8; stroke-linejoin: miter"/>
   </g>
   <g id="patch_112">
    <path d="M 578.561938 241.258438 
L 582.750324 241.258438 
L 582.750324 241.194618 
L 578.561938 241.194618 
z
" clip-path="url(#p5baaca97b1)" style="stroke: #ffffff; stroke-width: 0.8; stroke-linejoin: miter"/>
   </g>
   <g id="patch_113">
    <path d="M 582.750324 241.258438 
L 586.93871 241.258438 
L 586.93871 241.216816 
L 582.750324 241.216816 
z
" clip-path="url(#p5baaca97b1)" style="stroke: #ffffff; stroke-width: 0.8; stroke-linejoin: miter"/>
   </g>
   <g id="patch_114">
    <path d="M 586.93871 241.258438 
L 591.127097 241.258438 
L 591.127097 241.16132 
L 586.93871 241.16132 
z
" clip-path="url(#p5baaca97b1)" style="stroke: #ffffff; stroke-width: 0.8; stroke-linejoin: miter"/>
   </g>
   <g id="patch_115">
    <path d="M 591.127097 241.258438 
L 595.315483 241.258438 
L 595.315483 241.139122 
L 591.127097 241.139122 
z
" clip-path="url(#p5baaca97b1)" style="stroke: #ffffff; stroke-width: 0.8; stroke-linejoin: miter"/>
   </g>
   <g id="patch_116">
    <path d="M 595.315483 241.258438 
L 599.503869 241.258438 
L 599.503869 241.16132 
L 595.315483 241.16132 
z
" clip-path="url(#p5baaca97b1)" style="stroke: #ffffff; stroke-width: 0.8; stroke-linejoin: miter"/>
   </g>
   <g id="patch_117">
    <path d="M 599.503869 241.258438 
L 603.692256 241.258438 
L 603.692256 241.169645 
L 599.503869 241.169645 
z
" clip-path="url(#p5baaca97b1)" style="stroke: #ffffff; stroke-width: 0.8; stroke-linejoin: miter"/>
   </g>
   <g id="patch_118">
    <path d="M 603.692256 241.258438 
L 607.880642 241.258438 
L 607.880642 241.189068 
L 603.692256 241.189068 
z
" clip-path="url(#p5baaca97b1)" style="stroke: #ffffff; stroke-width: 0.8; stroke-linejoin: miter"/>
   </g>
   <g id="patch_119">
    <path d="M 607.880642 241.258438 
L 612.069028 241.258438 
L 612.069028 241.16132 
L 607.880642 241.16132 
z
" clip-path="url(#p5baaca97b1)" style="stroke: #ffffff; stroke-width: 0.8; stroke-linejoin: miter"/>
   </g>
   <g id="patch_120">
    <path d="M 612.069028 241.258438 
L 616.257415 241.258438 
L 616.257415 241.191843 
L 612.069028 241.191843 
z
" clip-path="url(#p5baaca97b1)" style="stroke: #ffffff; stroke-width: 0.8; stroke-linejoin: miter"/>
   </g>
   <g id="patch_121">
    <path d="M 616.257415 241.258438 
L 620.445801 241.258438 
L 620.445801 241.158545 
L 616.257415 241.158545 
z
" clip-path="url(#p5baaca97b1)" style="stroke: #ffffff; stroke-width: 0.8; stroke-linejoin: miter"/>
   </g>
   <g id="patch_122">
    <path d="M 620.445801 241.258438 
L 624.634188 241.258438 
L 624.634188 241.214041 
L 620.445801 241.214041 
z
" clip-path="url(#p5baaca97b1)" style="stroke: #ffffff; stroke-width: 0.8; stroke-linejoin: miter"/>
   </g>
   <g id="patch_123">
    <path d="M 624.634188 241.258438 
L 628.822574 241.258438 
L 628.822574 241.200167 
L 624.634188 241.200167 
z
" clip-path="url(#p5baaca97b1)" style="stroke: #ffffff; stroke-width: 0.8; stroke-linejoin: miter"/>
   </g>
   <g id="patch_124">
    <path d="M 628.822574 241.258438 
L 633.01096 241.258438 
L 633.01096 241.200167 
L 628.822574 241.200167 
z
" clip-path="url(#p5baaca97b1)" style="stroke: #ffffff; stroke-width: 0.8; stroke-linejoin: miter"/>
   </g>
   <g id="patch_125">
    <path d="M 633.01096 241.258438 
L 637.199347 241.258438 
L 637.199347 241.22514 
L 633.01096 241.22514 
z
" clip-path="url(#p5baaca97b1)" style="stroke: #ffffff; stroke-width: 0.8; stroke-linejoin: miter"/>
   </g>
   <g id="patch_126">
    <path d="M 637.199347 241.258438 
L 641.387733 241.258438 
L 641.387733 241.189068 
L 637.199347 241.189068 
z
" clip-path="url(#p5baaca97b1)" style="stroke: #ffffff; stroke-width: 0.8; stroke-linejoin: miter"/>
   </g>
   <g id="patch_127">
    <path d="M 641.387733 241.258438 
L 645.576119 241.258438 
L 645.576119 241.205717 
L 641.387733 241.205717 
z
" clip-path="url(#p5baaca97b1)" style="stroke: #ffffff; stroke-width: 0.8; stroke-linejoin: miter"/>
   </g>
   <g id="patch_128">
    <path d="M 645.576119 241.258438 
L 649.764506 241.258438 
L 649.764506 241.222365 
L 645.576119 241.222365 
z
" clip-path="url(#p5baaca97b1)" style="stroke: #ffffff; stroke-width: 0.8; stroke-linejoin: miter"/>
   </g>
   <g id="patch_129">
    <path d="M 649.764506 241.258438 
L 653.952892 241.258438 
L 653.952892 241.177969 
L 649.764506 241.177969 
z
" clip-path="url(#p5baaca97b1)" style="stroke: #ffffff; stroke-width: 0.8; stroke-linejoin: miter"/>
   </g>
   <g id="patch_130">
    <path d="M 653.952892 241.258438 
L 658.141278 241.258438 
L 658.141278 241.216816 
L 653.952892 241.216816 
z
" clip-path="url(#p5baaca97b1)" style="stroke: #ffffff; stroke-width: 0.8; stroke-linejoin: miter"/>
   </g>
   <g id="patch_131">
    <path d="M 658.141278 241.258438 
L 662.329665 241.258438 
L 662.329665 241.197392 
L 658.141278 241.197392 
z
" clip-path="url(#p5baaca97b1)" style="stroke: #ffffff; stroke-width: 0.8; stroke-linejoin: miter"/>
   </g>
   <g id="patch_132">
    <path d="M 662.329665 241.258438 
L 666.518051 241.258438 
L 666.518051 241.211266 
L 662.329665 241.211266 
z
" clip-path="url(#p5baaca97b1)" style="stroke: #ffffff; stroke-width: 0.8; stroke-linejoin: miter"/>
   </g>
   <g id="patch_133">
    <path d="M 666.518051 241.258438 
L 670.706438 241.258438 
L 670.706438 241.116924 
L 666.518051 241.116924 
z
" clip-path="url(#p5baaca97b1)" style="stroke: #ffffff; stroke-width: 0.8; stroke-linejoin: miter"/>
   </g>
   <g id="patch_134">
    <path d="M 670.706438 241.258438 
L 674.894824 241.258438 
L 674.894824 241.202942 
L 670.706438 241.202942 
z
" clip-path="url(#p5baaca97b1)" style="stroke: #ffffff; stroke-width: 0.8; stroke-linejoin: miter"/>
   </g>
   <g id="patch_135">
    <path d="M 674.894824 241.258438 
L 679.08321 241.258438 
L 679.08321 241.202942 
L 674.894824 241.202942 
z
" clip-path="url(#p5baaca97b1)" style="stroke: #ffffff; stroke-width: 0.8; stroke-linejoin: miter"/>
   </g>
   <g id="patch_136">
    <path d="M 679.08321 241.258438 
L 683.271597 241.258438 
L 683.271597 241.211266 
L 679.08321 241.211266 
z
" clip-path="url(#p5baaca97b1)" style="stroke: #ffffff; stroke-width: 0.8; stroke-linejoin: miter"/>
   </g>
   <g id="patch_137">
    <path d="M 683.271597 241.258438 
L 687.459983 241.258438 
L 687.459983 241.0975 
L 683.271597 241.0975 
z
" clip-path="url(#p5baaca97b1)" style="stroke: #ffffff; stroke-width: 0.8; stroke-linejoin: miter"/>
   </g>
   <g id="patch_138">
    <path d="M 687.459983 241.258438 
L 691.648369 241.258438 
L 691.648369 241.22514 
L 687.459983 241.22514 
z
" clip-path="url(#p5baaca97b1)" style="stroke: #ffffff; stroke-width: 0.8; stroke-linejoin: miter"/>
   </g>
   <g id="patch_139">
    <path d="M 691.648369 241.258438 
L 695.836756 241.258438 
L 695.836756 241.216816 
L 691.648369 241.216816 
z
" clip-path="url(#p5baaca97b1)" style="stroke: #ffffff; stroke-width: 0.8; stroke-linejoin: miter"/>
   </g>
   <g id="patch_140">
    <path d="M 695.836756 241.258438 
L 700.025142 241.258438 
L 700.025142 241.205717 
L 695.836756 241.205717 
z
" clip-path="url(#p5baaca97b1)" style="stroke: #ffffff; stroke-width: 0.8; stroke-linejoin: miter"/>
   </g>
   <g id="patch_141">
    <path d="M 700.025142 241.258438 
L 704.213528 241.258438 
L 704.213528 241.222365 
L 700.025142 241.222365 
z
" clip-path="url(#p5baaca97b1)" style="stroke: #ffffff; stroke-width: 0.8; stroke-linejoin: miter"/>
   </g>
   <g id="patch_142">
    <path d="M 704.213528 241.258438 
L 708.401915 241.258438 
L 708.401915 241.244564 
L 704.213528 241.244564 
z
" clip-path="url(#p5baaca97b1)" style="stroke: #ffffff; stroke-width: 0.8; stroke-linejoin: miter"/>
   </g>
   <g id="patch_143">
    <path d="M 708.401915 241.258438 
L 712.590301 241.258438 
L 712.590301 241.202942 
L 708.401915 241.202942 
z
" clip-path="url(#p5baaca97b1)" style="stroke: #ffffff; stroke-width: 0.8; stroke-linejoin: miter"/>
   </g>
   <g id="patch_144">
    <path d="M 712.590301 241.258438 
L 716.778688 241.258438 
L 716.778688 241.23069 
L 712.590301 241.23069 
z
" clip-path="url(#p5baaca97b1)" style="stroke: #ffffff; stroke-width: 0.8; stroke-linejoin: miter"/>
   </g>
   <g id="patch_145">
    <path d="M 716.778688 241.258438 
L 720.967074 241.258438 
L 720.967074 241.211266 
L 716.778688 241.211266 
z
" clip-path="url(#p5baaca97b1)" style="stroke: #ffffff; stroke-width: 0.8; stroke-linejoin: miter"/>
   </g>
   <g id="patch_146">
    <path d="M 720.967074 241.258438 
L 725.15546 241.258438 
L 725.15546 241.241789 
L 720.967074 241.241789 
z
" clip-path="url(#p5baaca97b1)" style="stroke: #ffffff; stroke-width: 0.8; stroke-linejoin: miter"/>
   </g>
   <g id="patch_147">
    <path d="M 725.15546 241.258438 
L 729.343847 241.258438 
L 729.343847 240.631338 
L 725.15546 240.631338 
z
" clip-path="url(#p5baaca97b1)" style="stroke: #ffffff; stroke-width: 0.8; stroke-linejoin: miter"/>
   </g>
   <g id="patch_148">
    <path d="M 729.343847 241.258438 
L 733.532233 241.258438 
L 733.532233 241.227915 
L 729.343847 241.227915 
z
" clip-path="url(#p5baaca97b1)" style="stroke: #ffffff; stroke-width: 0.8; stroke-linejoin: miter"/>
   </g>
   <g id="patch_149">
    <path d="M 733.532233 241.258438 
L 737.720619 241.258438 
L 737.720619 241.214041 
L 733.532233 241.214041 
z
" clip-path="url(#p5baaca97b1)" style="stroke: #ffffff; stroke-width: 0.8; stroke-linejoin: miter"/>
   </g>
   <g id="patch_150">
    <path d="M 737.720619 241.258438 
L 741.909006 241.258438 
L 741.909006 241.222365 
L 737.720619 241.222365 
z
" clip-path="url(#p5baaca97b1)" style="stroke: #ffffff; stroke-width: 0.8; stroke-linejoin: miter"/>
   </g>
   <g id="patch_151">
    <path d="M 741.909006 241.258438 
L 746.097392 241.258438 
L 746.097392 241.214041 
L 741.909006 241.214041 
z
" clip-path="url(#p5baaca97b1)" style="stroke: #ffffff; stroke-width: 0.8; stroke-linejoin: miter"/>
   </g>
   <g id="patch_152">
    <path d="M 746.097392 241.258438 
L 750.285778 241.258438 
L 750.285778 241.236239 
L 746.097392 241.236239 
z
" clip-path="url(#p5baaca97b1)" style="stroke: #ffffff; stroke-width: 0.8; stroke-linejoin: miter"/>
   </g>
   <g id="patch_153">
    <path d="M 750.285778 241.258438 
L 754.474165 241.258438 
L 754.474165 241.200167 
L 750.285778 241.200167 
z
" clip-path="url(#p5baaca97b1)" style="stroke: #ffffff; stroke-width: 0.8; stroke-linejoin: miter"/>
   </g>
   <g id="patch_154">
    <path d="M 754.474165 241.258438 
L 758.662551 241.258438 
L 758.662551 241.189068 
L 754.474165 241.189068 
z
" clip-path="url(#p5baaca97b1)" style="stroke: #ffffff; stroke-width: 0.8; stroke-linejoin: miter"/>
   </g>
   <g id="patch_155">
    <path d="M 758.662551 241.258438 
L 762.850938 241.258438 
L 762.850938 241.211266 
L 758.662551 241.211266 
z
" clip-path="url(#p5baaca97b1)" style="stroke: #ffffff; stroke-width: 0.8; stroke-linejoin: miter"/>
   </g>
   <g id="patch_156">
    <path d="M 762.850938 241.258438 
L 767.039324 241.258438 
L 767.039324 240.706257 
L 762.850938 240.706257 
z
" clip-path="url(#p5baaca97b1)" style="stroke: #ffffff; stroke-width: 0.8; stroke-linejoin: miter"/>
   </g>
   <g id="patch_157">
    <path d="M 767.039324 241.258438 
L 771.22771 241.258438 
L 771.22771 241.164095 
L 767.039324 241.164095 
z
" clip-path="url(#p5baaca97b1)" style="stroke: #ffffff; stroke-width: 0.8; stroke-linejoin: miter"/>
   </g>
   <g id="patch_158">
    <path d="M 771.22771 241.258438 
L 775.416097 241.258438 
L 775.416097 241.186293 
L 771.22771 241.186293 
z
" clip-path="url(#p5baaca97b1)" style="stroke: #ffffff; stroke-width: 0.8; stroke-linejoin: miter"/>
   </g>
   <g id="patch_159">
    <path d="M 775.416097 241.258438 
L 779.604483 241.258438 
L 779.604483 241.194618 
L 775.416097 241.194618 
z
" clip-path="url(#p5baaca97b1)" style="stroke: #ffffff; stroke-width: 0.8; stroke-linejoin: miter"/>
   </g>
   <g id="patch_160">
    <path d="M 779.604483 241.258438 
L 783.792869 241.258438 
L 783.792869 241.183518 
L 779.604483 241.183518 
z
" clip-path="url(#p5baaca97b1)" style="stroke: #ffffff; stroke-width: 0.8; stroke-linejoin: miter"/>
   </g>
   <g id="patch_161">
    <path d="M 783.792869 241.258438 
L 787.981256 241.258438 
L 787.981256 241.04478 
L 783.792869 241.04478 
z
" clip-path="url(#p5baaca97b1)" style="stroke: #ffffff; stroke-width: 0.8; stroke-linejoin: miter"/>
   </g>
   <g id="patch_162">
    <path d="M 787.981256 241.258438 
L 792.169642 241.258438 
L 792.169642 241.183518 
L 787.981256 241.183518 
z
" clip-path="url(#p5baaca97b1)" style="stroke: #ffffff; stroke-width: 0.8; stroke-linejoin: miter"/>
   </g>
   <g id="patch_163">
    <path d="M 792.169642 241.258438 
L 796.358028 241.258438 
L 796.358028 241.222365 
L 792.169642 241.222365 
z
" clip-path="url(#p5baaca97b1)" style="stroke: #ffffff; stroke-width: 0.8; stroke-linejoin: miter"/>
   </g>
   <g id="patch_164">
    <path d="M 796.358028 241.258438 
L 800.546415 241.258438 
L 800.546415 241.202942 
L 796.358028 241.202942 
z
" clip-path="url(#p5baaca97b1)" style="stroke: #ffffff; stroke-width: 0.8; stroke-linejoin: miter"/>
   </g>
   <g id="patch_165">
    <path d="M 800.546415 241.258438 
L 804.734801 241.258438 
L 804.734801 241.169645 
L 800.546415 241.169645 
z
" clip-path="url(#p5baaca97b1)" style="stroke: #ffffff; stroke-width: 0.8; stroke-linejoin: miter"/>
   </g>
   <g id="patch_166">
    <path d="M 804.734801 241.258438 
L 808.923188 241.258438 
L 808.923188 241.23069 
L 804.734801 241.23069 
z
" clip-path="url(#p5baaca97b1)" style="stroke: #ffffff; stroke-width: 0.8; stroke-linejoin: miter"/>
   </g>
   <g id="patch_167">
    <path d="M 808.923188 241.258438 
L 813.111574 241.258438 
L 813.111574 241.222365 
L 808.923188 241.222365 
z
" clip-path="url(#p5baaca97b1)" style="stroke: #ffffff; stroke-width: 0.8; stroke-linejoin: miter"/>
   </g>
   <g id="patch_168">
    <path d="M 813.111574 241.258438 
L 817.29996 241.258438 
L 817.29996 240.992059 
L 813.111574 240.992059 
z
" clip-path="url(#p5baaca97b1)" style="stroke: #ffffff; stroke-width: 0.8; stroke-linejoin: miter"/>
   </g>
   <g id="patch_169">
    <path d="M 817.29996 241.258438 
L 821.488347 241.258438 
L 821.488347 241.216816 
L 817.29996 241.216816 
z
" clip-path="url(#p5baaca97b1)" style="stroke: #ffffff; stroke-width: 0.8; stroke-linejoin: miter"/>
   </g>
   <g id="patch_170">
    <path d="M 821.488347 241.258438 
L 825.676733 241.258438 
L 825.676733 241.205717 
L 821.488347 241.205717 
z
" clip-path="url(#p5baaca97b1)" style="stroke: #ffffff; stroke-width: 0.8; stroke-linejoin: miter"/>
   </g>
   <g id="patch_171">
    <path d="M 825.676733 241.258438 
L 829.865119 241.258438 
L 829.865119 241.216816 
L 825.676733 241.216816 
z
" clip-path="url(#p5baaca97b1)" style="stroke: #ffffff; stroke-width: 0.8; stroke-linejoin: miter"/>
   </g>
   <g id="patch_172">
    <path d="M 829.865119 241.258438 
L 834.053506 241.258438 
L 834.053506 241.164095 
L 829.865119 241.164095 
z
" clip-path="url(#p5baaca97b1)" style="stroke: #ffffff; stroke-width: 0.8; stroke-linejoin: miter"/>
   </g>
   <g id="patch_173">
    <path d="M 834.053506 241.258438 
L 838.241892 241.258438 
L 838.241892 241.208491 
L 834.053506 241.208491 
z
" clip-path="url(#p5baaca97b1)" style="stroke: #ffffff; stroke-width: 0.8; stroke-linejoin: miter"/>
   </g>
   <g id="patch_174">
    <path d="M 838.241892 241.258438 
L 842.430278 241.258438 
L 842.430278 241.200167 
L 838.241892 241.200167 
z
" clip-path="url(#p5baaca97b1)" style="stroke: #ffffff; stroke-width: 0.8; stroke-linejoin: miter"/>
   </g>
   <g id="patch_175">
    <path d="M 842.430278 241.258438 
L 846.618665 241.258438 
L 846.618665 241.186293 
L 842.430278 241.186293 
z
" clip-path="url(#p5baaca97b1)" style="stroke: #ffffff; stroke-width: 0.8; stroke-linejoin: miter"/>
   </g>
   <g id="patch_176">
    <path d="M 846.618665 241.258438 
L 850.807051 241.258438 
L 850.807051 241.197392 
L 846.618665 241.197392 
z
" clip-path="url(#p5baaca97b1)" style="stroke: #ffffff; stroke-width: 0.8; stroke-linejoin: miter"/>
   </g>
   <g id="patch_177">
    <path d="M 850.807051 241.258438 
L 854.995438 241.258438 
L 854.995438 241.169645 
L 850.807051 241.169645 
z
" clip-path="url(#p5baaca97b1)" style="stroke: #ffffff; stroke-width: 0.8; stroke-linejoin: miter"/>
   </g>
   <g id="patch_178">
    <path d="M 854.995438 241.258438 
L 859.183824 241.258438 
L 859.183824 241.216816 
L 854.995438 241.216816 
z
" clip-path="url(#p5baaca97b1)" style="stroke: #ffffff; stroke-width: 0.8; stroke-linejoin: miter"/>
   </g>
   <g id="patch_179">
    <path d="M 859.183824 241.258438 
L 863.37221 241.258438 
L 863.37221 241.186293 
L 859.183824 241.186293 
z
" clip-path="url(#p5baaca97b1)" style="stroke: #ffffff; stroke-width: 0.8; stroke-linejoin: miter"/>
   </g>
   <g id="patch_180">
    <path d="M 863.37221 241.258438 
L 867.560597 241.258438 
L 867.560597 241.200167 
L 863.37221 241.200167 
z
" clip-path="url(#p5baaca97b1)" style="stroke: #ffffff; stroke-width: 0.8; stroke-linejoin: miter"/>
   </g>
   <g id="patch_181">
    <path d="M 867.560597 241.258438 
L 871.748983 241.258438 
L 871.748983 241.177969 
L 867.560597 241.177969 
z
" clip-path="url(#p5baaca97b1)" style="stroke: #ffffff; stroke-width: 0.8; stroke-linejoin: miter"/>
   </g>
   <g id="patch_182">
    <path d="M 871.748983 241.258438 
L 875.937369 241.258438 
L 875.937369 241.219591 
L 871.748983 241.219591 
z
" clip-path="url(#p5baaca97b1)" style="stroke: #ffffff; stroke-width: 0.8; stroke-linejoin: miter"/>
   </g>
   <g id="patch_183">
    <path d="M 875.937369 241.258438 
L 880.125756 241.258438 
L 880.125756 241.208491 
L 875.937369 241.208491 
z
" clip-path="url(#p5baaca97b1)" style="stroke: #ffffff; stroke-width: 0.8; stroke-linejoin: miter"/>
   </g>
   <g id="patch_184">
    <path d="M 880.125756 241.258438 
L 884.314142 241.258438 
L 884.314142 241.219591 
L 880.125756 241.219591 
z
" clip-path="url(#p5baaca97b1)" style="stroke: #ffffff; stroke-width: 0.8; stroke-linejoin: miter"/>
   </g>
   <g id="patch_185">
    <path d="M 884.314142 241.258438 
L 888.502528 241.258438 
L 888.502528 241.233464 
L 884.314142 241.233464 
z
" clip-path="url(#p5baaca97b1)" style="stroke: #ffffff; stroke-width: 0.8; stroke-linejoin: miter"/>
   </g>
   <g id="patch_186">
    <path d="M 888.502528 241.258438 
L 892.690915 241.258438 
L 892.690915 241.233464 
L 888.502528 241.233464 
z
" clip-path="url(#p5baaca97b1)" style="stroke: #ffffff; stroke-width: 0.8; stroke-linejoin: miter"/>
   </g>
   <g id="patch_187">
    <path d="M 892.690915 241.258438 
L 896.879301 241.258438 
L 896.879301 241.23069 
L 892.690915 241.23069 
z
" clip-path="url(#p5baaca97b1)" style="stroke: #ffffff; stroke-width: 0.8; stroke-linejoin: miter"/>
   </g>
   <g id="patch_188">
    <path d="M 896.879301 241.258438 
L 901.067688 241.258438 
L 901.067688 241.236239 
L 896.879301 241.236239 
z
" clip-path="url(#p5baaca97b1)" style="stroke: #ffffff; stroke-width: 0.8; stroke-linejoin: miter"/>
   </g>
   <g id="patch_189">
    <path d="M 901.067688 241.258438 
L 905.256074 241.258438 
L 905.256074 239.404886 
L 901.067688 239.404886 
z
" clip-path="url(#p5baaca97b1)" style="stroke: #ffffff; stroke-width: 0.8; stroke-linejoin: miter"/>
   </g>
   <g id="patch_190">
    <path d="M 905.256074 241.258438 
L 909.44446 241.258438 
L 909.44446 241.241789 
L 905.256074 241.241789 
z
" clip-path="url(#p5baaca97b1)" style="stroke: #ffffff; stroke-width: 0.8; stroke-linejoin: miter"/>
   </g>
   <g id="patch_191">
    <path d="M 909.44446 241.258438 
L 913.632847 241.258438 
L 913.632847 241.239014 
L 909.44446 241.239014 
z
" clip-path="url(#p5baaca97b1)" style="stroke: #ffffff; stroke-width: 0.8; stroke-linejoin: miter"/>
   </g>
   <g id="patch_192">
    <path d="M 913.632847 241.258438 
L 917.821233 241.258438 
L 917.821233 241.22514 
L 913.632847 241.22514 
z
" clip-path="url(#p5baaca97b1)" style="stroke: #ffffff; stroke-width: 0.8; stroke-linejoin: miter"/>
   </g>
   <g id="patch_193">
    <path d="M 917.821233 241.258438 
L 922.009619 241.258438 
L 922.009619 241.227915 
L 917.821233 241.227915 
z
" clip-path="url(#p5baaca97b1)" style="stroke: #ffffff; stroke-width: 0.8; stroke-linejoin: miter"/>
   </g>
   <g id="patch_194">
    <path d="M 922.009619 241.258438 
L 926.198006 241.258438 
L 926.198006 241.236239 
L 922.009619 241.236239 
z
" clip-path="url(#p5baaca97b1)" style="stroke: #ffffff; stroke-width: 0.8; stroke-linejoin: miter"/>
   </g>
   <g id="patch_195">
    <path d="M 926.198006 241.258438 
L 930.386392 241.258438 
L 930.386392 241.189068 
L 926.198006 241.189068 
z
" clip-path="url(#p5baaca97b1)" style="stroke: #ffffff; stroke-width: 0.8; stroke-linejoin: miter"/>
   </g>
   <g id="patch_196">
    <path d="M 930.386392 241.258438 
L 934.574778 241.258438 
L 934.574778 241.23069 
L 930.386392 241.23069 
z
" clip-path="url(#p5baaca97b1)" style="stroke: #ffffff; stroke-width: 0.8; stroke-linejoin: miter"/>
   </g>
   <g id="patch_197">
    <path d="M 934.574778 241.258438 
L 938.763165 241.258438 
L 938.763165 241.227915 
L 934.574778 241.227915 
z
" clip-path="url(#p5baaca97b1)" style="stroke: #ffffff; stroke-width: 0.8; stroke-linejoin: miter"/>
   </g>
   <g id="patch_198">
    <path d="M 938.763165 241.258438 
L 942.951551 241.258438 
L 942.951551 241.239014 
L 938.763165 241.239014 
z
" clip-path="url(#p5baaca97b1)" style="stroke: #ffffff; stroke-width: 0.8; stroke-linejoin: miter"/>
   </g>
   <g id="patch_199">
    <path d="M 942.951551 241.258438 
L 947.139938 241.258438 
L 947.139938 241.197392 
L 942.951551 241.197392 
z
" clip-path="url(#p5baaca97b1)" style="stroke: #ffffff; stroke-width: 0.8; stroke-linejoin: miter"/>
   </g>
   <g id="patch_200">
    <path d="M 947.139938 241.258438 
L 951.328324 241.258438 
L 951.328324 241.241789 
L 947.139938 241.241789 
z
" clip-path="url(#p5baaca97b1)" style="stroke: #ffffff; stroke-width: 0.8; stroke-linejoin: miter"/>
   </g>
   <g id="patch_201">
    <path d="M 951.328324 241.258438 
L 955.51671 241.258438 
L 955.51671 241.22514 
L 951.328324 241.22514 
z
" clip-path="url(#p5baaca97b1)" style="stroke: #ffffff; stroke-width: 0.8; stroke-linejoin: miter"/>
   </g>
   <g id="patch_202">
    <path d="M 955.51671 241.258438 
L 959.705097 241.258438 
L 959.705097 241.23069 
L 955.51671 241.23069 
z
" clip-path="url(#p5baaca97b1)" style="stroke: #ffffff; stroke-width: 0.8; stroke-linejoin: miter"/>
   </g>
   <g id="patch_203">
    <path d="M 959.705097 241.258438 
L 963.893483 241.258438 
L 963.893483 241.239014 
L 959.705097 241.239014 
z
" clip-path="url(#p5baaca97b1)" style="stroke: #ffffff; stroke-width: 0.8; stroke-linejoin: miter"/>
   </g>
   <g id="patch_204">
    <path d="M 963.893483 241.258438 
L 968.081869 241.258438 
L 968.081869 241.250113 
L 963.893483 241.250113 
z
" clip-path="url(#p5baaca97b1)" style="stroke: #ffffff; stroke-width: 0.8; stroke-linejoin: miter"/>
   </g>
   <g id="patch_205">
    <path d="M 968.081869 241.258438 
L 972.270256 241.258438 
L 972.270256 31.296533 
L 968.081869 31.296533 
z
" clip-path="url(#p5baaca97b1)" style="stroke: #ffffff; stroke-width: 0.8; stroke-linejoin: miter"/>
   </g>
   <g id="matplotlib.axis_3">
    <g id="xtick_7">
     <g id="line2d_13">
      <g>
       <use xlink:href="#m38543f516e" x="553.431619" y="241.258438" style="stroke: #000000; stroke-width: 0.8"/>
      </g>
     </g>
     <g id="text_16">
      <!-- 0.0 -->
      <g transform="translate(545.480057 256.356875) scale(0.1 -0.1)">
       <use xlink:href="#DejaVuSans-30"/>
       <use xlink:href="#DejaVuSans-2e" transform="translate(63.623047 0)"/>
       <use xlink:href="#DejaVuSans-30" transform="translate(95.410156 0)"/>
      </g>
     </g>
    </g>
    <g id="xtick_8">
     <g id="line2d_14">
      <g>
       <use xlink:href="#m38543f516e" x="637.199347" y="241.258438" style="stroke: #000000; stroke-width: 0.8"/>
      </g>
     </g>
     <g id="text_17">
      <!-- 0.2 -->
      <g transform="translate(629.247784 256.356875) scale(0.1 -0.1)">
       <use xlink:href="#DejaVuSans-30"/>
       <use xlink:href="#DejaVuSans-2e" transform="translate(63.623047 0)"/>
       <use xlink:href="#DejaVuSans-32" transform="translate(95.410156 0)"/>
      </g>
     </g>
    </g>
    <g id="xtick_9">
     <g id="line2d_15">
      <g>
       <use xlink:href="#m38543f516e" x="720.967074" y="241.258438" style="stroke: #000000; stroke-width: 0.8"/>
      </g>
     </g>
     <g id="text_18">
      <!-- 0.4 -->
      <g transform="translate(713.015511 256.356875) scale(0.1 -0.1)">
       <use xlink:href="#DejaVuSans-30"/>
       <use xlink:href="#DejaVuSans-2e" transform="translate(63.623047 0)"/>
       <use xlink:href="#DejaVuSans-34" transform="translate(95.410156 0)"/>
      </g>
     </g>
    </g>
    <g id="xtick_10">
     <g id="line2d_16">
      <g>
       <use xlink:href="#m38543f516e" x="804.734801" y="241.258438" style="stroke: #000000; stroke-width: 0.8"/>
      </g>
     </g>
     <g id="text_19">
      <!-- 0.6 -->
      <g transform="translate(796.783239 256.356875) scale(0.1 -0.1)">
       <use xlink:href="#DejaVuSans-30"/>
       <use xlink:href="#DejaVuSans-2e" transform="translate(63.623047 0)"/>
       <use xlink:href="#DejaVuSans-36" transform="translate(95.410156 0)"/>
      </g>
     </g>
    </g>
    <g id="xtick_11">
     <g id="line2d_17">
      <g>
       <use xlink:href="#m38543f516e" x="888.502528" y="241.258438" style="stroke: #000000; stroke-width: 0.8"/>
      </g>
     </g>
     <g id="text_20">
      <!-- 0.8 -->
      <g transform="translate(880.550966 256.356875) scale(0.1 -0.1)">
       <use xlink:href="#DejaVuSans-30"/>
       <use xlink:href="#DejaVuSans-2e" transform="translate(63.623047 0)"/>
       <use xlink:href="#DejaVuSans-38" transform="translate(95.410156 0)"/>
      </g>
     </g>
    </g>
    <g id="xtick_12">
     <g id="line2d_18">
      <g>
       <use xlink:href="#m38543f516e" x="972.270256" y="241.258438" style="stroke: #000000; stroke-width: 0.8"/>
      </g>
     </g>
     <g id="text_21">
      <!-- 1.0 -->
      <g transform="translate(964.318693 256.356875) scale(0.1 -0.1)">
       <use xlink:href="#DejaVuSans-31"/>
       <use xlink:href="#DejaVuSans-2e" transform="translate(63.623047 0)"/>
       <use xlink:href="#DejaVuSans-30" transform="translate(95.410156 0)"/>
      </g>
     </g>
    </g>
    <g id="text_22">
     <!-- Glucose Import (EX_glc(e)) -->
     <g transform="translate(695.879844 270.035) scale(0.1 -0.1)">
      <use xlink:href="#DejaVuSans-47"/>
      <use xlink:href="#DejaVuSans-6c" transform="translate(77.490234 0)"/>
      <use xlink:href="#DejaVuSans-75" transform="translate(105.273438 0)"/>
      <use xlink:href="#DejaVuSans-63" transform="translate(168.652344 0)"/>
      <use xlink:href="#DejaVuSans-6f" transform="translate(223.632812 0)"/>
      <use xlink:href="#DejaVuSans-73" transform="translate(284.814453 0)"/>
      <use xlink:href="#DejaVuSans-65" transform="translate(336.914062 0)"/>
      <use xlink:href="#DejaVuSans-20" transform="translate(398.4375 0)"/>
      <use xlink:href="#DejaVuSans-49" transform="translate(430.224609 0)"/>
      <use xlink:href="#DejaVuSans-6d" transform="translate(459.716797 0)"/>
      <use xlink:href="#DejaVuSans-70" transform="translate(557.128906 0)"/>
      <use xlink:href="#DejaVuSans-6f" transform="translate(620.605469 0)"/>
      <use xlink:href="#DejaVuSans-72" transform="translate(681.787109 0)"/>
      <use xlink:href="#DejaVuSans-74" transform="translate(722.900391 0)"/>
      <use xlink:href="#DejaVuSans-20" transform="translate(762.109375 0)"/>
      <use xlink:href="#DejaVuSans-28" transform="translate(793.896484 0)"/>
      <use xlink:href="#DejaVuSans-45" transform="translate(832.910156 0)"/>
      <use xlink:href="#DejaVuSans-58" transform="translate(896.09375 0)"/>
      <use xlink:href="#DejaVuSans-5f" transform="translate(964.599609 0)"/>
      <use xlink:href="#DejaVuSans-67" transform="translate(1014.599609 0)"/>
      <use xlink:href="#DejaVuSans-6c" transform="translate(1078.076172 0)"/>
      <use xlink:href="#DejaVuSans-63" transform="translate(1105.859375 0)"/>
      <use xlink:href="#DejaVuSans-28" transform="translate(1160.839844 0)"/>
      <use xlink:href="#DejaVuSans-65" transform="translate(1199.853516 0)"/>
      <use xlink:href="#DejaVuSans-29" transform="translate(1261.376953 0)"/>
      <use xlink:href="#DejaVuSans-29" transform="translate(1300.390625 0)"/>
     </g>
    </g>
   </g>
   <g id="matplotlib.axis_4">
    <g id="ytick_7">
     <g id="line2d_19">
      <g>
       <use xlink:href="#m92e1b3dc77" x="532.489688" y="241.258438" style="stroke: #000000; stroke-width: 0.8"/>
      </g>
     </g>
    </g>
    <g id="ytick_8">
     <g id="line2d_20">
      <g>
       <use xlink:href="#m92e1b3dc77" x="532.489688" y="197.614509" style="stroke: #000000; stroke-width: 0.8"/>
      </g>
     </g>
    </g>
    <g id="ytick_9">
     <g id="line2d_21">
      <g>
       <use xlink:href="#m92e1b3dc77" x="532.489688" y="153.97058" style="stroke: #000000; stroke-width: 0.8"/>
      </g>
     </g>
    </g>
    <g id="ytick_10">
     <g id="line2d_22">
      <g>
       <use xlink:href="#m92e1b3dc77" x="532.489688" y="110.326651" style="stroke: #000000; stroke-width: 0.8"/>
      </g>
     </g>
    </g>
    <g id="ytick_11">
     <g id="line2d_23">
      <g>
       <use xlink:href="#m92e1b3dc77" x="532.489688" y="66.682722" style="stroke: #000000; stroke-width: 0.8"/>
      </g>
     </g>
    </g>
    <g id="ytick_12">
     <g id="line2d_24">
      <g>
       <use xlink:href="#m92e1b3dc77" x="532.489688" y="23.038793" style="stroke: #000000; stroke-width: 0.8"/>
      </g>
     </g>
    </g>
   </g>
   <g id="patch_206">
    <path d="M 532.489688 241.258438 
L 532.489688 20.798438 
" style="fill: none; stroke: #000000; stroke-width: 0.8; stroke-linejoin: miter; stroke-linecap: square"/>
   </g>
   <g id="patch_207">
    <path d="M 532.489688 241.258438 
L 993.212188 241.258438 
" style="fill: none; stroke: #000000; stroke-width: 0.8; stroke-linejoin: miter; stroke-linecap: square"/>
   </g>
   <g id="text_23">
    <!-- Globally Scaled Data (Max Glc Import = 1) – EFVs -->
    <g transform="translate(638.907969 14.798438) scale(0.1 -0.1)">
     <defs>
      <path id="DejaVuSans-56" d="M 1831 0 
L 50 4666 
L 709 4666 
L 2188 738 
L 3669 4666 
L 4325 4666 
L 2547 0 
L 1831 0 
z
" transform="scale(0.015625)"/>
     </defs>
     <use xlink:href="#DejaVuSans-47"/>
     <use xlink:href="#DejaVuSans-6c" transform="translate(77.490234 0)"/>
     <use xlink:href="#DejaVuSans-6f" transform="translate(105.273438 0)"/>
     <use xlink:href="#DejaVuSans-62" transform="translate(166.455078 0)"/>
     <use xlink:href="#DejaVuSans-61" transform="translate(229.931641 0)"/>
     <use xlink:href="#DejaVuSans-6c" transform="translate(291.210938 0)"/>
     <use xlink:href="#DejaVuSans-6c" transform="translate(318.994141 0)"/>
     <use xlink:href="#DejaVuSans-79" transform="translate(346.777344 0)"/>
     <use xlink:href="#DejaVuSans-20" transform="translate(405.957031 0)"/>
     <use xlink:href="#DejaVuSans-53" transform="translate(437.744141 0)"/>
     <use xlink:href="#DejaVuSans-63" transform="translate(501.220703 0)"/>
     <use xlink:href="#DejaVuSans-61" transform="translate(556.201172 0)"/>
     <use xlink:href="#DejaVuSans-6c" transform="translate(617.480469 0)"/>
     <use xlink:href="#DejaVuSans-65" transform="translate(645.263672 0)"/>
     <use xlink:href="#DejaVuSans-64" transform="translate(706.787109 0)"/>
     <use xlink:href="#DejaVuSans-20" transform="translate(770.263672 0)"/>
     <use xlink:href="#DejaVuSans-44" transform="translate(802.050781 0)"/>
     <use xlink:href="#DejaVuSans-61" transform="translate(879.052734 0)"/>
     <use xlink:href="#DejaVuSans-74" transform="translate(940.332031 0)"/>
     <use xlink:href="#DejaVuSans-61" transform="translate(979.541016 0)"/>
     <use xlink:href="#DejaVuSans-20" transform="translate(1040.820312 0)"/>
     <use xlink:href="#DejaVuSans-28" transform="translate(1072.607422 0)"/>
     <use xlink:href="#DejaVuSans-4d" transform="translate(1111.621094 0)"/>
     <use xlink:href="#DejaVuSans-61" transform="translate(1197.900391 0)"/>
     <use xlink:href="#DejaVuSans-78" transform="translate(1259.179688 0)"/>
     <use xlink:href="#DejaVuSans-20" transform="translate(1318.359375 0)"/>
     <use xlink:href="#DejaVuSans-47" transform="translate(1350.146484 0)"/>
     <use xlink:href="#DejaVuSans-6c" transform="translate(1427.636719 0)"/>
     <use xlink:href="#DejaVuSans-63" transform="translate(1455.419922 0)"/>
     <use xlink:href="#DejaVuSans-20" transform="translate(1510.400391 0)"/>
     <use xlink:href="#DejaVuSans-49" transform="translate(1542.1875 0)"/>
     <use xlink:href="#DejaVuSans-6d" transform="translate(1571.679688 0)"/>
     <use xlink:href="#DejaVuSans-70" transform="translate(1669.091797 0)"/>
     <use xlink:href="#DejaVuSans-6f" transform="translate(1732.568359 0)"/>
     <use xlink:href="#DejaVuSans-72" transform="translate(1793.75 0)"/>
     <use xlink:href="#DejaVuSans-74" transform="translate(1834.863281 0)"/>
     <use xlink:href="#DejaVuSans-20" transform="translate(1874.072266 0)"/>
     <use xlink:href="#DejaVuSans-3d" transform="translate(1905.859375 0)"/>
     <use xlink:href="#DejaVuSans-20" transform="translate(1989.648438 0)"/>
     <use xlink:href="#DejaVuSans-31" transform="translate(2021.435547 0)"/>
     <use xlink:href="#DejaVuSans-29" transform="translate(2085.058594 0)"/>
     <use xlink:href="#DejaVuSans-20" transform="translate(2124.072266 0)"/>
     <use xlink:href="#DejaVuSans-2013" transform="translate(2155.859375 0)"/>
     <use xlink:href="#DejaVuSans-20" transform="translate(2205.859375 0)"/>
     <use xlink:href="#DejaVuSans-45" transform="translate(2237.646484 0)"/>
     <use xlink:href="#DejaVuSans-46" transform="translate(2300.830078 0)"/>
     <use xlink:href="#DejaVuSans-56" transform="translate(2358.349609 0)"/>
     <use xlink:href="#DejaVuSans-73" transform="translate(2426.757812 0)"/>
    </g>
   </g>
  </g>
 </g>
 <defs>
  <clipPath id="p1e522b0e08">
   <rect x="56.967188" y="20.798438" width="460.7225" height="220.46"/>
  </clipPath>
  <clipPath id="p5baaca97b1">
   <rect x="532.489688" y="20.798438" width="460.7225" height="220.46"/>
  </clipPath>
 </defs>
</svg>
