<?xml version="1.0" encoding="utf-8" standalone="no"?>
<!DOCTYPE svg PUBLIC "-//W3C//DTD SVG 1.1//EN"
  "http://www.w3.org/Graphics/SVG/1.1/DTD/svg11.dtd">
<svg xmlns:xlink="http://www.w3.org/1999/xlink" width="781.057055pt" height="332.686594pt" viewBox="0 0 781.057055 332.686594" xmlns="http://www.w3.org/2000/svg" version="1.1">
 <metadata>
  <rdf:RDF xmlns:dc="http://purl.org/dc/elements/1.1/" xmlns:cc="http://creativecommons.org/ns#" xmlns:rdf="http://www.w3.org/1999/02/22-rdf-syntax-ns#">
   <cc:Work>
    <dc:type rdf:resource="http://purl.org/dc/dcmitype/StillImage"/>
    <dc:date>2025-06-24T14:17:12.261555</dc:date>
    <dc:format>image/svg+xml</dc:format>
    <dc:creator>
     <cc:Agent>
      <dc:title>Matplotlib v3.10.1, https://matplotlib.org/</dc:title>
     </cc:Agent>
    </dc:creator>
   </cc:Work>
  </rdf:RDF>
 </metadata>
 <defs>
  <style type="text/css">*{stroke-linejoin: round; stroke-linecap: butt}</style>
 </defs>
 <g id="figure_1">
  <g id="patch_1">
   <path d="M -0 332.686594 
L 781.057055 332.686594 
L 781.057055 0 
L -0 0 
z
" style="fill: #ffffff"/>
  </g>
  <g id="axes_1">
   <g id="patch_2">
    <path d="M 51.369375 295.311281 
L 355.003368 295.311281 
L 355.003368 21.073594 
L 51.369375 21.073594 
z
" style="fill: #ffffff"/>
   </g>
   <g id="line2d_1">
    <path d="M 207.192826 295.311281 
L 207.192826 21.073594 
" clip-path="url(#p579a5774aa)" style="fill: none; stroke: #f47d57; stroke-opacity: 0.4; stroke-width: 1.5; stroke-linecap: round"/>
   </g>
   <g id="matplotlib.axis_1">
    <g id="xtick_1">
     <g id="text_1">
      <!-- $\mathdefault{10^{-5}}$ -->
      <g style="fill: #262626" transform="translate(54.28092 310.045031) scale(0.11 -0.11)">
       <defs>
        <path id="ArialMT-31" d="M 2384 0 
L 1822 0 
L 1822 3584 
Q 1619 3391 1289 3197 
Q 959 3003 697 2906 
L 697 3450 
Q 1169 3672 1522 3987 
Q 1875 4303 2022 4600 
L 2384 4600 
L 2384 0 
z
" transform="scale(0.015625)"/>
        <path id="ArialMT-30" d="M 266 2259 
Q 266 3072 433 3567 
Q 600 4063 929 4331 
Q 1259 4600 1759 4600 
Q 2128 4600 2406 4451 
Q 2684 4303 2865 4023 
Q 3047 3744 3150 3342 
Q 3253 2941 3253 2259 
Q 3253 1453 3087 958 
Q 2922 463 2592 192 
Q 2263 -78 1759 -78 
Q 1097 -78 719 397 
Q 266 969 266 2259 
z
M 844 2259 
Q 844 1131 1108 757 
Q 1372 384 1759 384 
Q 2147 384 2411 759 
Q 2675 1134 2675 2259 
Q 2675 3391 2411 3762 
Q 2147 4134 1753 4134 
Q 1366 4134 1134 3806 
Q 844 3388 844 2259 
z
" transform="scale(0.015625)"/>
        <path id="ArialMT-2212" d="M 3381 1997 
L 356 1997 
L 356 2522 
L 3381 2522 
L 3381 1997 
z
" transform="scale(0.015625)"/>
        <path id="ArialMT-35" d="M 266 1200 
L 856 1250 
Q 922 819 1161 601 
Q 1400 384 1738 384 
Q 2144 384 2425 690 
Q 2706 997 2706 1503 
Q 2706 1984 2436 2262 
Q 2166 2541 1728 2541 
Q 1456 2541 1237 2417 
Q 1019 2294 894 2097 
L 366 2166 
L 809 4519 
L 3088 4519 
L 3088 3981 
L 1259 3981 
L 1013 2750 
Q 1425 3038 1878 3038 
Q 2478 3038 2890 2622 
Q 3303 2206 3303 1553 
Q 3303 931 2941 478 
Q 2500 -78 1738 -78 
Q 1113 -78 717 272 
Q 322 622 266 1200 
z
" transform="scale(0.015625)"/>
       </defs>
       <use xlink:href="#ArialMT-31" transform="translate(0 0.879688)"/>
       <use xlink:href="#ArialMT-30" transform="translate(55.615234 0.879688)"/>
       <use xlink:href="#ArialMT-2212" transform="translate(112.972813 70.573438) scale(0.7)"/>
       <use xlink:href="#ArialMT-35" transform="translate(153.851719 70.573438) scale(0.7)"/>
      </g>
     </g>
    </g>
    <g id="xtick_2">
     <g id="text_2">
      <!-- $\mathdefault{10^{-4}}$ -->
      <g style="fill: #262626" transform="translate(109.487101 310.045031) scale(0.11 -0.11)">
       <defs>
        <path id="ArialMT-34" d="M 2069 0 
L 2069 1097 
L 81 1097 
L 81 1613 
L 2172 4581 
L 2631 4581 
L 2631 1613 
L 3250 1613 
L 3250 1097 
L 2631 1097 
L 2631 0 
L 2069 0 
z
M 2069 1613 
L 2069 3678 
L 634 1613 
L 2069 1613 
z
" transform="scale(0.015625)"/>
       </defs>
       <use xlink:href="#ArialMT-31" transform="translate(0 0.201563)"/>
       <use xlink:href="#ArialMT-30" transform="translate(55.615234 0.201563)"/>
       <use xlink:href="#ArialMT-2212" transform="translate(112.972813 69.895313) scale(0.7)"/>
       <use xlink:href="#ArialMT-34" transform="translate(153.851719 69.895313) scale(0.7)"/>
      </g>
     </g>
    </g>
    <g id="xtick_3">
     <g id="text_3">
      <!-- $\mathdefault{10^{-3}}$ -->
      <g style="fill: #262626" transform="translate(164.693281 310.155031) scale(0.11 -0.11)">
       <defs>
        <path id="ArialMT-33" d="M 269 1209 
L 831 1284 
Q 928 806 1161 595 
Q 1394 384 1728 384 
Q 2125 384 2398 659 
Q 2672 934 2672 1341 
Q 2672 1728 2419 1979 
Q 2166 2231 1775 2231 
Q 1616 2231 1378 2169 
L 1441 2663 
Q 1497 2656 1531 2656 
Q 1891 2656 2178 2843 
Q 2466 3031 2466 3422 
Q 2466 3731 2256 3934 
Q 2047 4138 1716 4138 
Q 1388 4138 1169 3931 
Q 950 3725 888 3313 
L 325 3413 
Q 428 3978 793 4289 
Q 1159 4600 1703 4600 
Q 2078 4600 2393 4439 
Q 2709 4278 2876 4000 
Q 3044 3722 3044 3409 
Q 3044 3113 2884 2869 
Q 2725 2625 2413 2481 
Q 2819 2388 3044 2092 
Q 3269 1797 3269 1353 
Q 3269 753 2831 336 
Q 2394 -81 1725 -81 
Q 1122 -81 723 278 
Q 325 638 269 1209 
z
" transform="scale(0.015625)"/>
       </defs>
       <use xlink:href="#ArialMT-31" transform="translate(0 0.99375)"/>
       <use xlink:href="#ArialMT-30" transform="translate(55.615234 0.99375)"/>
       <use xlink:href="#ArialMT-2212" transform="translate(112.972813 70.6875) scale(0.7)"/>
       <use xlink:href="#ArialMT-33" transform="translate(153.851719 70.6875) scale(0.7)"/>
      </g>
     </g>
    </g>
    <g id="xtick_4">
     <g id="text_4">
      <!-- $\mathdefault{10^{-2}}$ -->
      <g style="fill: #262626" transform="translate(219.899462 310.155031) scale(0.11 -0.11)">
       <defs>
        <path id="ArialMT-32" d="M 3222 541 
L 3222 0 
L 194 0 
Q 188 203 259 391 
Q 375 700 629 1000 
Q 884 1300 1366 1694 
Q 2113 2306 2375 2664 
Q 2638 3022 2638 3341 
Q 2638 3675 2398 3904 
Q 2159 4134 1775 4134 
Q 1369 4134 1125 3890 
Q 881 3647 878 3216 
L 300 3275 
Q 359 3922 746 4261 
Q 1134 4600 1788 4600 
Q 2447 4600 2831 4234 
Q 3216 3869 3216 3328 
Q 3216 3053 3103 2787 
Q 2991 2522 2730 2228 
Q 2469 1934 1863 1422 
Q 1356 997 1212 845 
Q 1069 694 975 541 
L 3222 541 
z
" transform="scale(0.015625)"/>
       </defs>
       <use xlink:href="#ArialMT-31" transform="translate(0 0.99375)"/>
       <use xlink:href="#ArialMT-30" transform="translate(55.615234 0.99375)"/>
       <use xlink:href="#ArialMT-2212" transform="translate(112.972813 70.6875) scale(0.7)"/>
       <use xlink:href="#ArialMT-32" transform="translate(153.851719 70.6875) scale(0.7)"/>
      </g>
     </g>
    </g>
    <g id="xtick_5">
     <g id="text_5">
      <!-- $\mathdefault{10^{-1}}$ -->
      <g style="fill: #262626" transform="translate(275.105643 310.155031) scale(0.11 -0.11)">
       <use xlink:href="#ArialMT-31" transform="translate(0 0.99375)"/>
       <use xlink:href="#ArialMT-30" transform="translate(55.615234 0.99375)"/>
       <use xlink:href="#ArialMT-2212" transform="translate(112.972813 70.6875) scale(0.7)"/>
       <use xlink:href="#ArialMT-31" transform="translate(153.851719 70.6875) scale(0.7)"/>
      </g>
     </g>
    </g>
    <g id="xtick_6">
     <g id="text_6">
      <!-- $\mathdefault{10^{0}}$ -->
      <g style="fill: #262626" transform="translate(332.566823 310.155031) scale(0.11 -0.11)">
       <use xlink:href="#ArialMT-31" transform="translate(0 0.99375)"/>
       <use xlink:href="#ArialMT-30" transform="translate(55.615234 0.99375)"/>
       <use xlink:href="#ArialMT-30" transform="translate(112.972813 70.6875) scale(0.7)"/>
      </g>
     </g>
    </g>
    <g id="xtick_7"/>
    <g id="xtick_8"/>
    <g id="xtick_9"/>
    <g id="xtick_10"/>
    <g id="xtick_11"/>
    <g id="xtick_12"/>
    <g id="xtick_13"/>
    <g id="xtick_14"/>
    <g id="xtick_15"/>
    <g id="xtick_16"/>
    <g id="xtick_17"/>
    <g id="xtick_18"/>
    <g id="xtick_19"/>
    <g id="xtick_20"/>
    <g id="xtick_21"/>
    <g id="xtick_22"/>
    <g id="xtick_23"/>
    <g id="xtick_24"/>
    <g id="xtick_25"/>
    <g id="xtick_26"/>
    <g id="xtick_27"/>
    <g id="xtick_28"/>
    <g id="xtick_29"/>
    <g id="xtick_30"/>
    <g id="xtick_31"/>
    <g id="xtick_32"/>
    <g id="xtick_33"/>
    <g id="xtick_34"/>
    <g id="xtick_35"/>
    <g id="xtick_36"/>
    <g id="xtick_37"/>
    <g id="xtick_38"/>
    <g id="xtick_39"/>
    <g id="xtick_40"/>
    <g id="xtick_41"/>
    <g id="xtick_42"/>
    <g id="xtick_43"/>
    <g id="xtick_44"/>
    <g id="xtick_45"/>
    <g id="xtick_46"/>
    <g id="xtick_47"/>
    <g id="xtick_48"/>
    <g id="xtick_49"/>
    <g id="xtick_50"/>
    <g id="text_7">
     <!-- $T$ -->
     <g style="fill: #262626" transform="translate(200.086372 323.499094) scale(0.1 -0.1)">
      <defs>
       <path id="DejaVuSans-Oblique-54" d="M 378 4666 
L 4325 4666 
L 4225 4134 
L 2559 4134 
L 1759 0 
L 1125 0 
L 1925 4134 
L 275 4134 
L 378 4666 
z
" transform="scale(0.015625)"/>
      </defs>
      <use xlink:href="#DejaVuSans-Oblique-54" transform="translate(0 0.09375)"/>
     </g>
    </g>
   </g>
   <g id="matplotlib.axis_2">
    <g id="ytick_1">
     <g id="text_8">
      <!-- 0.050 -->
      <g style="fill: #262626" transform="translate(20.345313 259.879964) scale(0.11 -0.11)">
       <defs>
        <path id="ArialMT-2e" d="M 581 0 
L 581 641 
L 1222 641 
L 1222 0 
L 581 0 
z
" transform="scale(0.015625)"/>
       </defs>
       <use xlink:href="#ArialMT-30"/>
       <use xlink:href="#ArialMT-2e" transform="translate(55.615234 0)"/>
       <use xlink:href="#ArialMT-30" transform="translate(83.398438 0)"/>
       <use xlink:href="#ArialMT-35" transform="translate(139.013672 0)"/>
       <use xlink:href="#ArialMT-30" transform="translate(194.628906 0)"/>
      </g>
     </g>
    </g>
    <g id="ytick_2">
     <g id="text_9">
      <!-- 0.075 -->
      <g style="fill: #262626" transform="translate(20.345313 230.662266) scale(0.11 -0.11)">
       <defs>
        <path id="ArialMT-37" d="M 303 3981 
L 303 4522 
L 3269 4522 
L 3269 4084 
Q 2831 3619 2401 2847 
Q 1972 2075 1738 1259 
Q 1569 684 1522 0 
L 944 0 
Q 953 541 1156 1306 
Q 1359 2072 1739 2783 
Q 2119 3494 2547 3981 
L 303 3981 
z
" transform="scale(0.015625)"/>
       </defs>
       <use xlink:href="#ArialMT-30"/>
       <use xlink:href="#ArialMT-2e" transform="translate(55.615234 0)"/>
       <use xlink:href="#ArialMT-30" transform="translate(83.398438 0)"/>
       <use xlink:href="#ArialMT-37" transform="translate(139.013672 0)"/>
       <use xlink:href="#ArialMT-35" transform="translate(194.628906 0)"/>
      </g>
     </g>
    </g>
    <g id="ytick_3">
     <g id="text_10">
      <!-- 0.100 -->
      <g style="fill: #262626" transform="translate(20.345313 201.444567) scale(0.11 -0.11)">
       <use xlink:href="#ArialMT-30"/>
       <use xlink:href="#ArialMT-2e" transform="translate(55.615234 0)"/>
       <use xlink:href="#ArialMT-31" transform="translate(83.398438 0)"/>
       <use xlink:href="#ArialMT-30" transform="translate(139.013672 0)"/>
       <use xlink:href="#ArialMT-30" transform="translate(194.628906 0)"/>
      </g>
     </g>
    </g>
    <g id="ytick_4">
     <g id="text_11">
      <!-- 0.125 -->
      <g style="fill: #262626" transform="translate(20.345313 172.226869) scale(0.11 -0.11)">
       <use xlink:href="#ArialMT-30"/>
       <use xlink:href="#ArialMT-2e" transform="translate(55.615234 0)"/>
       <use xlink:href="#ArialMT-31" transform="translate(83.398438 0)"/>
       <use xlink:href="#ArialMT-32" transform="translate(139.013672 0)"/>
       <use xlink:href="#ArialMT-35" transform="translate(194.628906 0)"/>
      </g>
     </g>
    </g>
    <g id="ytick_5">
     <g id="text_12">
      <!-- 0.150 -->
      <g style="fill: #262626" transform="translate(20.345313 143.00917) scale(0.11 -0.11)">
       <use xlink:href="#ArialMT-30"/>
       <use xlink:href="#ArialMT-2e" transform="translate(55.615234 0)"/>
       <use xlink:href="#ArialMT-31" transform="translate(83.398438 0)"/>
       <use xlink:href="#ArialMT-35" transform="translate(139.013672 0)"/>
       <use xlink:href="#ArialMT-30" transform="translate(194.628906 0)"/>
      </g>
     </g>
    </g>
    <g id="ytick_6">
     <g id="text_13">
      <!-- 0.175 -->
      <g style="fill: #262626" transform="translate(20.345313 113.791472) scale(0.11 -0.11)">
       <use xlink:href="#ArialMT-30"/>
       <use xlink:href="#ArialMT-2e" transform="translate(55.615234 0)"/>
       <use xlink:href="#ArialMT-31" transform="translate(83.398438 0)"/>
       <use xlink:href="#ArialMT-37" transform="translate(139.013672 0)"/>
       <use xlink:href="#ArialMT-35" transform="translate(194.628906 0)"/>
      </g>
     </g>
    </g>
    <g id="ytick_7">
     <g id="text_14">
      <!-- 0.200 -->
      <g style="fill: #262626" transform="translate(20.345313 84.573773) scale(0.11 -0.11)">
       <use xlink:href="#ArialMT-30"/>
       <use xlink:href="#ArialMT-2e" transform="translate(55.615234 0)"/>
       <use xlink:href="#ArialMT-32" transform="translate(83.398438 0)"/>
       <use xlink:href="#ArialMT-30" transform="translate(139.013672 0)"/>
       <use xlink:href="#ArialMT-30" transform="translate(194.628906 0)"/>
      </g>
     </g>
    </g>
    <g id="ytick_8">
     <g id="text_15">
      <!-- 0.225 -->
      <g style="fill: #262626" transform="translate(20.345313 55.356075) scale(0.11 -0.11)">
       <use xlink:href="#ArialMT-30"/>
       <use xlink:href="#ArialMT-2e" transform="translate(55.615234 0)"/>
       <use xlink:href="#ArialMT-32" transform="translate(83.398438 0)"/>
       <use xlink:href="#ArialMT-32" transform="translate(139.013672 0)"/>
       <use xlink:href="#ArialMT-35" transform="translate(194.628906 0)"/>
      </g>
     </g>
    </g>
    <g id="ytick_9">
     <g id="text_16">
      <!-- 0.250 -->
      <g style="fill: #262626" transform="translate(20.345313 26.138376) scale(0.11 -0.11)">
       <use xlink:href="#ArialMT-30"/>
       <use xlink:href="#ArialMT-2e" transform="translate(55.615234 0)"/>
       <use xlink:href="#ArialMT-32" transform="translate(83.398438 0)"/>
       <use xlink:href="#ArialMT-35" transform="translate(139.013672 0)"/>
       <use xlink:href="#ArialMT-30" transform="translate(194.628906 0)"/>
      </g>
     </g>
    </g>
    <g id="text_17">
     <!-- MSE -->
     <g style="fill: #262626" transform="translate(14.357813 169.027594) rotate(-90) scale(0.1 -0.1)">
      <defs>
       <path id="ArialMT-4d" d="M 475 0 
L 475 4581 
L 1388 4581 
L 2472 1338 
Q 2622 884 2691 659 
Q 2769 909 2934 1394 
L 4031 4581 
L 4847 4581 
L 4847 0 
L 4263 0 
L 4263 3834 
L 2931 0 
L 2384 0 
L 1059 3900 
L 1059 0 
L 475 0 
z
" transform="scale(0.015625)"/>
       <path id="ArialMT-53" d="M 288 1472 
L 859 1522 
Q 900 1178 1048 958 
Q 1197 738 1509 602 
Q 1822 466 2213 466 
Q 2559 466 2825 569 
Q 3091 672 3220 851 
Q 3350 1031 3350 1244 
Q 3350 1459 3225 1620 
Q 3100 1781 2813 1891 
Q 2628 1963 1997 2114 
Q 1366 2266 1113 2400 
Q 784 2572 623 2826 
Q 463 3081 463 3397 
Q 463 3744 659 4045 
Q 856 4347 1234 4503 
Q 1613 4659 2075 4659 
Q 2584 4659 2973 4495 
Q 3363 4331 3572 4012 
Q 3781 3694 3797 3291 
L 3216 3247 
Q 3169 3681 2898 3903 
Q 2628 4125 2100 4125 
Q 1550 4125 1298 3923 
Q 1047 3722 1047 3438 
Q 1047 3191 1225 3031 
Q 1400 2872 2139 2705 
Q 2878 2538 3153 2413 
Q 3553 2228 3743 1945 
Q 3934 1663 3934 1294 
Q 3934 928 3725 604 
Q 3516 281 3123 101 
Q 2731 -78 2241 -78 
Q 1619 -78 1198 103 
Q 778 284 539 648 
Q 300 1013 288 1472 
z
" transform="scale(0.015625)"/>
       <path id="ArialMT-45" d="M 506 0 
L 506 4581 
L 3819 4581 
L 3819 4041 
L 1113 4041 
L 1113 2638 
L 3647 2638 
L 3647 2100 
L 1113 2100 
L 1113 541 
L 3925 541 
L 3925 0 
L 506 0 
z
" transform="scale(0.015625)"/>
      </defs>
      <use xlink:href="#ArialMT-4d"/>
      <use xlink:href="#ArialMT-53" transform="translate(83.300781 0)"/>
      <use xlink:href="#ArialMT-45" transform="translate(150 0)"/>
     </g>
    </g>
   </g>
   <g id="line2d_2">
    <path d="M 65.17092 163.705197 
L 107.722231 163.815278 
L 113.800989 164.084432 
L 118.774519 164.523466 
L 124.57697 165.275855 
L 133.418801 166.436715 
L 146.128933 167.84044 
L 149.444619 168.590512 
L 153.31292 169.723112 
L 165.746745 173.806978 
L 169.891353 175.309636 
L 172.930732 176.647976 
L 175.693804 178.11586 
L 178.456876 179.850789 
L 181.496256 182.048293 
L 185.364557 185.158972 
L 192.272237 190.781187 
L 195.035309 192.733874 
L 197.522074 194.216235 
L 199.732532 195.264013 
L 201.666682 195.945514 
L 203.600833 196.391648 
L 205.534983 196.594082 
L 207.469133 196.550178 
L 209.403284 196.260953 
L 211.337434 195.727433 
L 213.271585 194.945259 
L 215.205735 193.897662 
L 216.863579 192.760927 
L 218.521422 191.36229 
L 220.179265 189.643114 
L 221.560801 187.90933 
L 222.942337 185.842764 
L 224.323873 183.380684 
L 225.705409 180.457569 
L 227.086945 177.011433 
L 228.468481 172.992008 
L 230.126325 167.372417 
L 231.784168 160.891917 
L 233.718318 152.351445 
L 236.205083 140.215109 
L 243.389071 104.325971 
L 245.599528 94.695257 
L 247.533679 87.132962 
L 249.467829 80.401631 
L 251.40198 74.474149 
L 253.33613 69.294065 
L 255.270281 64.789981 
L 257.204431 60.885616 
L 259.138582 57.506192 
L 261.072732 54.582058 
L 263.006883 52.050429 
L 264.941033 49.855926 
L 267.151491 47.699292 
L 269.361949 45.859124 
L 271.848713 44.103852 
L 274.335478 42.624634 
L 277.09855 41.246024 
L 280.13793 39.990638 
L 283.453616 38.870083 
L 287.04561 37.88699 
L 291.190218 36.983547 
L 295.887441 36.186401 
L 301.413585 35.475826 
L 308.044958 34.853968 
L 316.057867 34.331473 
L 326.281234 33.89843 
L 339.820287 33.563121 
L 341.201823 33.538943 
L 341.201823 33.538943 
" clip-path="url(#p579a5774aa)" style="fill: none; stroke: #808080; stroke-width: 2; stroke-linecap: round"/>
   </g>
   <g id="line2d_3">
    <path d="M 65.17092 208.205034 
L 107.998538 208.315337 
L 114.077296 208.580963 
L 119.050826 209.013508 
L 124.57697 209.72376 
L 135.905566 211.247828 
L 144.47109 212.274612 
L 148.063083 212.974956 
L 151.655077 213.90465 
L 157.181221 215.608189 
L 168.509817 219.337829 
L 171.549196 220.597654 
L 174.312268 221.979053 
L 177.07534 223.629796 
L 179.838412 225.555466 
L 182.877792 227.948101 
L 187.575014 231.97778 
L 192.548544 236.176837 
L 195.311616 238.246256 
L 197.798381 239.84162 
L 200.008839 240.996887 
L 201.942989 241.778119 
L 203.87714 242.329136 
L 205.81129 242.640997 
L 207.745441 242.709897 
L 209.679591 242.535147 
L 211.613742 242.115713 
L 213.547892 241.445215 
L 215.482043 240.505496 
L 217.139886 239.458113 
L 218.797729 238.147108 
L 220.455572 236.516404 
L 221.837108 234.859979 
L 223.218644 232.877661 
L 224.60018 230.511021 
L 225.981717 227.699703 
L 227.363253 224.387603 
L 228.744789 220.530744 
L 230.402632 215.152587 
L 232.060475 208.972557 
L 233.994626 200.864105 
L 236.481391 189.40872 
L 243.112764 158.30214 
L 245.323221 149.168796 
L 247.533679 141.019394 
L 249.467829 134.725997 
L 251.40198 129.188453 
L 253.33613 124.353061 
L 255.270281 120.152077 
L 257.204431 116.513262 
L 259.138582 113.365923 
L 261.072732 110.644327 
L 263.006883 108.289322 
L 264.941033 106.248821 
L 267.151491 104.244243 
L 269.361949 102.534246 
L 271.848713 100.903336 
L 274.335478 99.528894 
L 277.09855 98.247709 
L 280.13793 97.080632 
L 283.453616 96.038339 
L 287.321917 95.060618 
L 291.742833 94.183605 
L 296.716362 93.425498 
L 302.795121 92.736304 
L 309.979108 92.156241 
L 318.820939 91.67325 
L 330.149535 91.28604 
L 341.201823 91.058338 
L 341.201823 91.058338 
" clip-path="url(#p579a5774aa)" style="fill: none; stroke: #000000; stroke-width: 2; stroke-linecap: round"/>
   </g>
   <g id="patch_3">
    <path d="M 51.369375 295.311281 
L 51.369375 21.073594 
" style="fill: none; stroke: #262626; stroke-linejoin: miter; stroke-linecap: square"/>
   </g>
   <g id="patch_4">
    <path d="M 355.003368 295.311281 
L 355.003368 21.073594 
" style="fill: none; stroke: #262626; stroke-linejoin: miter; stroke-linecap: square"/>
   </g>
   <g id="patch_5">
    <path d="M 51.369375 295.311281 
L 355.003368 295.311281 
" style="fill: none; stroke: #262626; stroke-linejoin: miter; stroke-linecap: square"/>
   </g>
   <g id="patch_6">
    <path d="M 51.369375 21.073594 
L 355.003368 21.073594 
" style="fill: none; stroke: #262626; stroke-linejoin: miter; stroke-linecap: square"/>
   </g>
   <g id="text_18">
    <!-- $T = 0.00374$ -->
    <g style="fill: #f47d57" transform="translate(146.475436 52.017769) scale(0.09 -0.09)">
     <defs>
      <path id="DejaVuSans-3d" d="M 678 2906 
L 4684 2906 
L 4684 2381 
L 678 2381 
L 678 2906 
z
M 678 1631 
L 4684 1631 
L 4684 1100 
L 678 1100 
L 678 1631 
z
" transform="scale(0.015625)"/>
      <path id="DejaVuSans-30" d="M 2034 4250 
Q 1547 4250 1301 3770 
Q 1056 3291 1056 2328 
Q 1056 1369 1301 889 
Q 1547 409 2034 409 
Q 2525 409 2770 889 
Q 3016 1369 3016 2328 
Q 3016 3291 2770 3770 
Q 2525 4250 2034 4250 
z
M 2034 4750 
Q 2819 4750 3233 4129 
Q 3647 3509 3647 2328 
Q 3647 1150 3233 529 
Q 2819 -91 2034 -91 
Q 1250 -91 836 529 
Q 422 1150 422 2328 
Q 422 3509 836 4129 
Q 1250 4750 2034 4750 
z
" transform="scale(0.015625)"/>
      <path id="DejaVuSans-2e" d="M 684 794 
L 1344 794 
L 1344 0 
L 684 0 
L 684 794 
z
" transform="scale(0.015625)"/>
      <path id="DejaVuSans-33" d="M 2597 2516 
Q 3050 2419 3304 2112 
Q 3559 1806 3559 1356 
Q 3559 666 3084 287 
Q 2609 -91 1734 -91 
Q 1441 -91 1130 -33 
Q 819 25 488 141 
L 488 750 
Q 750 597 1062 519 
Q 1375 441 1716 441 
Q 2309 441 2620 675 
Q 2931 909 2931 1356 
Q 2931 1769 2642 2001 
Q 2353 2234 1838 2234 
L 1294 2234 
L 1294 2753 
L 1863 2753 
Q 2328 2753 2575 2939 
Q 2822 3125 2822 3475 
Q 2822 3834 2567 4026 
Q 2313 4219 1838 4219 
Q 1578 4219 1281 4162 
Q 984 4106 628 3988 
L 628 4550 
Q 988 4650 1302 4700 
Q 1616 4750 1894 4750 
Q 2613 4750 3031 4423 
Q 3450 4097 3450 3541 
Q 3450 3153 3228 2886 
Q 3006 2619 2597 2516 
z
" transform="scale(0.015625)"/>
      <path id="DejaVuSans-37" d="M 525 4666 
L 3525 4666 
L 3525 4397 
L 1831 0 
L 1172 0 
L 2766 4134 
L 525 4134 
L 525 4666 
z
" transform="scale(0.015625)"/>
      <path id="DejaVuSans-34" d="M 2419 4116 
L 825 1625 
L 2419 1625 
L 2419 4116 
z
M 2253 4666 
L 3047 4666 
L 3047 1625 
L 3713 1625 
L 3713 1100 
L 3047 1100 
L 3047 0 
L 2419 0 
L 2419 1100 
L 313 1100 
L 313 1709 
L 2253 4666 
z
" transform="scale(0.015625)"/>
     </defs>
     <use xlink:href="#DejaVuSans-Oblique-54" transform="translate(0 0.78125)"/>
     <use xlink:href="#DejaVuSans-3d" transform="translate(80.566406 0.78125)"/>
     <use xlink:href="#DejaVuSans-30" transform="translate(183.837891 0.78125)"/>
     <use xlink:href="#DejaVuSans-2e" transform="translate(247.460938 0.78125)"/>
     <use xlink:href="#DejaVuSans-30" transform="translate(279.248047 0.78125)"/>
     <use xlink:href="#DejaVuSans-30" transform="translate(342.871094 0.78125)"/>
     <use xlink:href="#DejaVuSans-33" transform="translate(406.494141 0.78125)"/>
     <use xlink:href="#DejaVuSans-37" transform="translate(470.117188 0.78125)"/>
     <use xlink:href="#DejaVuSans-34" transform="translate(533.740234 0.78125)"/>
    </g>
   </g>
   <g id="text_19">
    <!-- MSE Curves for EFM / EP -->
    <g style="fill: #262626" transform="translate(139.315044 15.073594) scale(0.11 -0.11)">
     <defs>
      <path id="ArialMT-20" transform="scale(0.015625)"/>
      <path id="ArialMT-43" d="M 3763 1606 
L 4369 1453 
Q 4178 706 3683 314 
Q 3188 -78 2472 -78 
Q 1731 -78 1267 223 
Q 803 525 561 1097 
Q 319 1669 319 2325 
Q 319 3041 592 3573 
Q 866 4106 1370 4382 
Q 1875 4659 2481 4659 
Q 3169 4659 3637 4309 
Q 4106 3959 4291 3325 
L 3694 3184 
Q 3534 3684 3231 3912 
Q 2928 4141 2469 4141 
Q 1941 4141 1586 3887 
Q 1231 3634 1087 3207 
Q 944 2781 944 2328 
Q 944 1744 1114 1308 
Q 1284 872 1643 656 
Q 2003 441 2422 441 
Q 2931 441 3284 734 
Q 3638 1028 3763 1606 
z
" transform="scale(0.015625)"/>
      <path id="ArialMT-75" d="M 2597 0 
L 2597 488 
Q 2209 -75 1544 -75 
Q 1250 -75 995 37 
Q 741 150 617 320 
Q 494 491 444 738 
Q 409 903 409 1263 
L 409 3319 
L 972 3319 
L 972 1478 
Q 972 1038 1006 884 
Q 1059 663 1231 536 
Q 1403 409 1656 409 
Q 1909 409 2131 539 
Q 2353 669 2445 892 
Q 2538 1116 2538 1541 
L 2538 3319 
L 3100 3319 
L 3100 0 
L 2597 0 
z
" transform="scale(0.015625)"/>
      <path id="ArialMT-72" d="M 416 0 
L 416 3319 
L 922 3319 
L 922 2816 
Q 1116 3169 1280 3281 
Q 1444 3394 1641 3394 
Q 1925 3394 2219 3213 
L 2025 2691 
Q 1819 2813 1613 2813 
Q 1428 2813 1281 2702 
Q 1134 2591 1072 2394 
Q 978 2094 978 1738 
L 978 0 
L 416 0 
z
" transform="scale(0.015625)"/>
      <path id="ArialMT-76" d="M 1344 0 
L 81 3319 
L 675 3319 
L 1388 1331 
Q 1503 1009 1600 663 
Q 1675 925 1809 1294 
L 2547 3319 
L 3125 3319 
L 1869 0 
L 1344 0 
z
" transform="scale(0.015625)"/>
      <path id="ArialMT-65" d="M 2694 1069 
L 3275 997 
Q 3138 488 2766 206 
Q 2394 -75 1816 -75 
Q 1088 -75 661 373 
Q 234 822 234 1631 
Q 234 2469 665 2931 
Q 1097 3394 1784 3394 
Q 2450 3394 2872 2941 
Q 3294 2488 3294 1666 
Q 3294 1616 3291 1516 
L 816 1516 
Q 847 969 1125 678 
Q 1403 388 1819 388 
Q 2128 388 2347 550 
Q 2566 713 2694 1069 
z
M 847 1978 
L 2700 1978 
Q 2663 2397 2488 2606 
Q 2219 2931 1791 2931 
Q 1403 2931 1139 2672 
Q 875 2413 847 1978 
z
" transform="scale(0.015625)"/>
      <path id="ArialMT-73" d="M 197 991 
L 753 1078 
Q 800 744 1014 566 
Q 1228 388 1613 388 
Q 2000 388 2187 545 
Q 2375 703 2375 916 
Q 2375 1106 2209 1216 
Q 2094 1291 1634 1406 
Q 1016 1563 777 1677 
Q 538 1791 414 1992 
Q 291 2194 291 2438 
Q 291 2659 392 2848 
Q 494 3038 669 3163 
Q 800 3259 1026 3326 
Q 1253 3394 1513 3394 
Q 1903 3394 2198 3281 
Q 2494 3169 2634 2976 
Q 2775 2784 2828 2463 
L 2278 2388 
Q 2241 2644 2061 2787 
Q 1881 2931 1553 2931 
Q 1166 2931 1000 2803 
Q 834 2675 834 2503 
Q 834 2394 903 2306 
Q 972 2216 1119 2156 
Q 1203 2125 1616 2013 
Q 2213 1853 2448 1751 
Q 2684 1650 2818 1456 
Q 2953 1263 2953 975 
Q 2953 694 2789 445 
Q 2625 197 2315 61 
Q 2006 -75 1616 -75 
Q 969 -75 630 194 
Q 291 463 197 991 
z
" transform="scale(0.015625)"/>
      <path id="ArialMT-66" d="M 556 0 
L 556 2881 
L 59 2881 
L 59 3319 
L 556 3319 
L 556 3672 
Q 556 4006 616 4169 
Q 697 4388 901 4523 
Q 1106 4659 1475 4659 
Q 1713 4659 2000 4603 
L 1916 4113 
Q 1741 4144 1584 4144 
Q 1328 4144 1222 4034 
Q 1116 3925 1116 3625 
L 1116 3319 
L 1763 3319 
L 1763 2881 
L 1116 2881 
L 1116 0 
L 556 0 
z
" transform="scale(0.015625)"/>
      <path id="ArialMT-6f" d="M 213 1659 
Q 213 2581 725 3025 
Q 1153 3394 1769 3394 
Q 2453 3394 2887 2945 
Q 3322 2497 3322 1706 
Q 3322 1066 3130 698 
Q 2938 331 2570 128 
Q 2203 -75 1769 -75 
Q 1072 -75 642 372 
Q 213 819 213 1659 
z
M 791 1659 
Q 791 1022 1069 705 
Q 1347 388 1769 388 
Q 2188 388 2466 706 
Q 2744 1025 2744 1678 
Q 2744 2294 2464 2611 
Q 2184 2928 1769 2928 
Q 1347 2928 1069 2612 
Q 791 2297 791 1659 
z
" transform="scale(0.015625)"/>
      <path id="ArialMT-46" d="M 525 0 
L 525 4581 
L 3616 4581 
L 3616 4041 
L 1131 4041 
L 1131 2622 
L 3281 2622 
L 3281 2081 
L 1131 2081 
L 1131 0 
L 525 0 
z
" transform="scale(0.015625)"/>
      <path id="ArialMT-2f" d="M 0 -78 
L 1328 4659 
L 1778 4659 
L 453 -78 
L 0 -78 
z
" transform="scale(0.015625)"/>
      <path id="ArialMT-50" d="M 494 0 
L 494 4581 
L 2222 4581 
Q 2678 4581 2919 4538 
Q 3256 4481 3484 4323 
Q 3713 4166 3852 3881 
Q 3991 3597 3991 3256 
Q 3991 2672 3619 2267 
Q 3247 1863 2275 1863 
L 1100 1863 
L 1100 0 
L 494 0 
z
M 1100 2403 
L 2284 2403 
Q 2872 2403 3119 2622 
Q 3366 2841 3366 3238 
Q 3366 3525 3220 3729 
Q 3075 3934 2838 4000 
Q 2684 4041 2272 4041 
L 1100 4041 
L 1100 2403 
z
" transform="scale(0.015625)"/>
     </defs>
     <use xlink:href="#ArialMT-4d"/>
     <use xlink:href="#ArialMT-53" transform="translate(83.300781 0)"/>
     <use xlink:href="#ArialMT-45" transform="translate(150 0)"/>
     <use xlink:href="#ArialMT-20" transform="translate(216.699219 0)"/>
     <use xlink:href="#ArialMT-43" transform="translate(244.482422 0)"/>
     <use xlink:href="#ArialMT-75" transform="translate(316.699219 0)"/>
     <use xlink:href="#ArialMT-72" transform="translate(372.314453 0)"/>
     <use xlink:href="#ArialMT-76" transform="translate(405.615234 0)"/>
     <use xlink:href="#ArialMT-65" transform="translate(455.615234 0)"/>
     <use xlink:href="#ArialMT-73" transform="translate(511.230469 0)"/>
     <use xlink:href="#ArialMT-20" transform="translate(561.230469 0)"/>
     <use xlink:href="#ArialMT-66" transform="translate(589.013672 0)"/>
     <use xlink:href="#ArialMT-6f" transform="translate(616.796875 0)"/>
     <use xlink:href="#ArialMT-72" transform="translate(672.412109 0)"/>
     <use xlink:href="#ArialMT-20" transform="translate(705.712891 0)"/>
     <use xlink:href="#ArialMT-45" transform="translate(733.496094 0)"/>
     <use xlink:href="#ArialMT-46" transform="translate(800.195312 0)"/>
     <use xlink:href="#ArialMT-4d" transform="translate(861.279297 0)"/>
     <use xlink:href="#ArialMT-20" transform="translate(944.580078 0)"/>
     <use xlink:href="#ArialMT-2f" transform="translate(972.363281 0)"/>
     <use xlink:href="#ArialMT-20" transform="translate(1000.146484 0)"/>
     <use xlink:href="#ArialMT-45" transform="translate(1027.929688 0)"/>
     <use xlink:href="#ArialMT-50" transform="translate(1094.628906 0)"/>
    </g>
   </g>
   <g id="PathCollection_1">
    <defs>
     <path id="m4db5387b38" d="M 0 3 
C 0.795609 3 1.55874 2.683901 2.12132 2.12132 
C 2.683901 1.55874 3 0.795609 3 0 
C 3 -0.795609 2.683901 -1.55874 2.12132 -2.12132 
C 1.55874 -2.683901 0.795609 -3 0 -3 
C -0.795609 -3 -1.55874 -2.683901 -2.12132 -2.12132 
C -2.683901 -1.55874 -3 -0.795609 -3 0 
C -3 0.795609 -2.683901 1.55874 -2.12132 2.12132 
C -1.55874 2.683901 -0.795609 3 0 3 
z
" style="stroke: #921c5b"/>
    </defs>
    <g clip-path="url(#p579a5774aa)">
     <use xlink:href="#m4db5387b38" x="65.17092" y="163.705197" style="fill: #921c5b; stroke: #921c5b"/>
    </g>
   </g>
   <g id="PathCollection_2">
    <g clip-path="url(#p579a5774aa)">
     <use xlink:href="#m4db5387b38" x="65.17092" y="208.205034" style="fill: #921c5b; stroke: #921c5b"/>
    </g>
   </g>
  </g>
  <g id="axes_2">
   <g id="patch_7">
    <path d="M 365.735382 295.311281 
L 669.369375 295.311281 
L 669.369375 21.073594 
L 365.735382 21.073594 
z
" style="fill: #ffffff"/>
   </g>
   <g id="line2d_4">
    <path d="M 365.735382 180.4677 
L 669.369375 180.4677 
" clip-path="url(#pa6b26d202c)" style="fill: none; stroke-dasharray: 3.7,1.6; stroke-dashoffset: 0; stroke: #ffffff"/>
   </g>
   <g id="line2d_5">
    <path d="M 365.735382 282.845932 
L 669.369375 282.845932 
" clip-path="url(#pa6b26d202c)" style="fill: none; stroke-dasharray: 3.7,1.6; stroke-dashoffset: 0; stroke: #ffffff"/>
   </g>
   <g id="line2d_6">
    <path d="M 365.735382 242.021438 
L 669.369375 242.021438 
" clip-path="url(#pa6b26d202c)" style="fill: none; stroke-dasharray: 3.7,1.6; stroke-dashoffset: 0; stroke: #ffffff"/>
   </g>
   <g id="line2d_7">
    <path d="M 510.782852 295.311281 
L 510.782852 21.073594 
" clip-path="url(#pa6b26d202c)" style="fill: none; stroke: #f47d57; stroke-opacity: 0.4; stroke-width: 1.5; stroke-linecap: round"/>
   </g>
   <g id="matplotlib.axis_3">
    <g id="xtick_51">
     <g id="text_20">
      <!-- $\mathdefault{10^{-5}}$ -->
      <g style="fill: #262626" transform="translate(368.646927 310.045031) scale(0.11 -0.11)">
       <use xlink:href="#ArialMT-31" transform="translate(0 0.879688)"/>
       <use xlink:href="#ArialMT-30" transform="translate(55.615234 0.879688)"/>
       <use xlink:href="#ArialMT-2212" transform="translate(112.972813 70.573438) scale(0.7)"/>
       <use xlink:href="#ArialMT-35" transform="translate(153.851719 70.573438) scale(0.7)"/>
      </g>
     </g>
    </g>
    <g id="xtick_52">
     <g id="text_21">
      <!-- $\mathdefault{10^{-4}}$ -->
      <g style="fill: #262626" transform="translate(423.853107 310.045031) scale(0.11 -0.11)">
       <use xlink:href="#ArialMT-31" transform="translate(0 0.201563)"/>
       <use xlink:href="#ArialMT-30" transform="translate(55.615234 0.201563)"/>
       <use xlink:href="#ArialMT-2212" transform="translate(112.972813 69.895313) scale(0.7)"/>
       <use xlink:href="#ArialMT-34" transform="translate(153.851719 69.895313) scale(0.7)"/>
      </g>
     </g>
    </g>
    <g id="xtick_53">
     <g id="text_22">
      <!-- $\mathdefault{10^{-3}}$ -->
      <g style="fill: #262626" transform="translate(479.059288 310.155031) scale(0.11 -0.11)">
       <use xlink:href="#ArialMT-31" transform="translate(0 0.99375)"/>
       <use xlink:href="#ArialMT-30" transform="translate(55.615234 0.99375)"/>
       <use xlink:href="#ArialMT-2212" transform="translate(112.972813 70.6875) scale(0.7)"/>
       <use xlink:href="#ArialMT-33" transform="translate(153.851719 70.6875) scale(0.7)"/>
      </g>
     </g>
    </g>
    <g id="xtick_54">
     <g id="text_23">
      <!-- $\mathdefault{10^{-2}}$ -->
      <g style="fill: #262626" transform="translate(534.265469 310.155031) scale(0.11 -0.11)">
       <use xlink:href="#ArialMT-31" transform="translate(0 0.99375)"/>
       <use xlink:href="#ArialMT-30" transform="translate(55.615234 0.99375)"/>
       <use xlink:href="#ArialMT-2212" transform="translate(112.972813 70.6875) scale(0.7)"/>
       <use xlink:href="#ArialMT-32" transform="translate(153.851719 70.6875) scale(0.7)"/>
      </g>
     </g>
    </g>
    <g id="xtick_55">
     <g id="text_24">
      <!-- $\mathdefault{10^{-1}}$ -->
      <g style="fill: #262626" transform="translate(589.471649 310.155031) scale(0.11 -0.11)">
       <use xlink:href="#ArialMT-31" transform="translate(0 0.99375)"/>
       <use xlink:href="#ArialMT-30" transform="translate(55.615234 0.99375)"/>
       <use xlink:href="#ArialMT-2212" transform="translate(112.972813 70.6875) scale(0.7)"/>
       <use xlink:href="#ArialMT-31" transform="translate(153.851719 70.6875) scale(0.7)"/>
      </g>
     </g>
    </g>
    <g id="xtick_56">
     <g id="text_25">
      <!-- $\mathdefault{10^{0}}$ -->
      <g style="fill: #262626" transform="translate(646.93283 310.155031) scale(0.11 -0.11)">
       <use xlink:href="#ArialMT-31" transform="translate(0 0.99375)"/>
       <use xlink:href="#ArialMT-30" transform="translate(55.615234 0.99375)"/>
       <use xlink:href="#ArialMT-30" transform="translate(112.972813 70.6875) scale(0.7)"/>
      </g>
     </g>
    </g>
    <g id="xtick_57"/>
    <g id="xtick_58"/>
    <g id="xtick_59"/>
    <g id="xtick_60"/>
    <g id="xtick_61"/>
    <g id="xtick_62"/>
    <g id="xtick_63"/>
    <g id="xtick_64"/>
    <g id="xtick_65"/>
    <g id="xtick_66"/>
    <g id="xtick_67"/>
    <g id="xtick_68"/>
    <g id="xtick_69"/>
    <g id="xtick_70"/>
    <g id="xtick_71"/>
    <g id="xtick_72"/>
    <g id="xtick_73"/>
    <g id="xtick_74"/>
    <g id="xtick_75"/>
    <g id="xtick_76"/>
    <g id="xtick_77"/>
    <g id="xtick_78"/>
    <g id="xtick_79"/>
    <g id="xtick_80"/>
    <g id="xtick_81"/>
    <g id="xtick_82"/>
    <g id="xtick_83"/>
    <g id="xtick_84"/>
    <g id="xtick_85"/>
    <g id="xtick_86"/>
    <g id="xtick_87"/>
    <g id="xtick_88"/>
    <g id="xtick_89"/>
    <g id="xtick_90"/>
    <g id="xtick_91"/>
    <g id="xtick_92"/>
    <g id="xtick_93"/>
    <g id="xtick_94"/>
    <g id="xtick_95"/>
    <g id="xtick_96"/>
    <g id="xtick_97"/>
    <g id="xtick_98"/>
    <g id="xtick_99"/>
    <g id="xtick_100"/>
    <g id="text_26">
     <!-- $T$ -->
     <g style="fill: #262626" transform="translate(514.452378 323.499094) scale(0.1 -0.1)">
      <use xlink:href="#DejaVuSans-Oblique-54" transform="translate(0 0.09375)"/>
     </g>
    </g>
   </g>
   <g id="matplotlib.axis_4">
    <g id="ytick_10"/>
    <g id="ytick_11"/>
    <g id="ytick_12"/>
    <g id="ytick_13"/>
    <g id="ytick_14"/>
    <g id="ytick_15"/>
    <g id="ytick_16"/>
    <g id="ytick_17"/>
    <g id="ytick_18"/>
   </g>
   <g id="line2d_8">
    <path d="M 669.369375 180.4677 
" style="fill: none; stroke: #000000; stroke-width: 1.5; stroke-linecap: round"/>
    <defs>
     <path id="mee0e030901" d="M -4 4 
L 4 -4 
M -4 -4 
L 4 4 
" style="stroke: #000000"/>
    </defs>
    <g>
     <use xlink:href="#mee0e030901" x="669.369375" y="180.4677" style="stroke: #000000"/>
    </g>
   </g>
   <g id="line2d_9">
    <path d="M 669.369375 282.845932 
" style="fill: none; stroke: #000000; stroke-width: 1.5; stroke-linecap: round"/>
    <g>
     <use xlink:href="#mee0e030901" x="669.369375" y="282.845932" style="stroke: #000000"/>
    </g>
   </g>
   <g id="line2d_10">
    <path d="M 669.369375 242.021438 
" style="fill: none; stroke: #000000; stroke-width: 1.5; stroke-linecap: round"/>
    <g>
     <use xlink:href="#mee0e030901" x="669.369375" y="242.021438" style="stroke: #000000"/>
    </g>
   </g>
   <g id="line2d_11">
    <path d="M 379.536927 201.665654 
L 420.154087 201.774445 
L 425.680231 202.025302 
L 430.101146 202.44605 
L 433.69314 202.996638 
L 437.008827 203.714884 
L 440.048206 204.584096 
L 443.087585 205.684927 
L 446.126964 207.038276 
L 449.166344 208.642503 
L 452.758337 210.803586 
L 462.152783 216.611851 
L 465.192162 218.137069 
L 467.955234 219.287462 
L 470.994613 220.302437 
L 474.3103 221.157678 
L 478.454908 221.970906 
L 492.270269 224.466693 
L 503.875171 226.972597 
L 506.361936 227.1992 
L 508.572394 227.194882 
L 510.782852 226.961358 
L 512.993309 226.477942 
L 515.203767 225.739129 
L 517.414225 224.754323 
L 519.90099 223.379825 
L 522.664062 221.571164 
L 525.703441 219.3036 
L 529.019128 216.535825 
L 531.7822 213.951275 
L 533.992657 211.616468 
L 535.926808 209.28829 
L 537.860958 206.590282 
L 539.518802 203.890677 
L 541.176645 200.741313 
L 542.834488 197.050411 
L 544.492331 192.731887 
L 546.150175 187.718527 
L 547.808018 181.977245 
L 549.742168 174.382185 
L 551.952626 164.676125 
L 554.992005 150.161867 
L 560.241842 125.01442 
L 562.728607 114.26509 
L 564.939065 105.677179 
L 566.873215 98.960959 
L 568.807366 92.979441 
L 570.741516 87.691705 
L 572.675667 83.040167 
L 574.609817 78.960123 
L 576.543968 75.386134 
L 578.478118 72.255901 
L 580.412269 69.512322 
L 582.622726 66.78506 
L 584.833184 64.429992 
L 587.043642 62.390628 
L 589.530407 60.414658 
L 592.017171 58.721701 
L 594.780244 57.116602 
L 597.819623 55.627684 
L 601.135309 54.272459 
L 604.727303 53.059233 
L 608.595604 51.98901 
L 613.016519 51.00198 
L 617.990049 50.124519 
L 623.792501 49.336302 
L 630.423874 48.664045 
L 638.436783 48.082573 
L 648.383842 47.598094 
L 655.56783 47.358628 
L 655.56783 47.358628 
" clip-path="url(#pa6b26d202c)" style="fill: none; stroke: #808080; stroke-width: 2; stroke-linecap: round"/>
   </g>
   <g id="line2d_12">
    <path d="M 379.536927 239.028516 
L 420.430394 239.138919 
L 426.232845 239.407429 
L 430.653761 239.835204 
L 434.522062 240.437118 
L 437.837748 241.16405 
L 441.153435 242.121364 
L 444.192814 243.228233 
L 447.232193 244.568856 
L 450.54788 246.284531 
L 454.968795 248.864105 
L 461.600168 252.742107 
L 464.915855 254.411494 
L 467.955234 255.709003 
L 471.270921 256.875248 
L 474.862914 257.896135 
L 479.836444 259.05369 
L 488.12566 260.964943 
L 492.546576 262.23404 
L 498.07272 264.079708 
L 503.322557 265.778536 
L 506.085629 266.456022 
L 508.572394 266.837632 
L 510.782852 266.948137 
L 512.993309 266.815603 
L 514.92746 266.490589 
L 517.137917 265.881814 
L 519.348375 265.033272 
L 521.83514 263.820375 
L 524.598212 262.195281 
L 527.361284 260.316238 
L 530.124356 258.188605 
L 532.611121 256.018978 
L 534.821579 253.812567 
L 536.755729 251.582878 
L 538.413573 249.374262 
L 540.071416 246.813691 
L 541.729259 243.818286 
L 543.387102 240.302239 
L 545.044946 236.186789 
L 546.702789 231.413667 
L 548.360632 225.959978 
L 550.294783 218.773653 
L 552.50524 209.644992 
L 555.820927 194.863144 
L 560.241842 175.307343 
L 562.728607 165.315345 
L 564.939065 157.327287 
L 566.873215 151.079547 
L 568.807366 145.516552 
L 570.741516 140.601172 
L 572.675667 136.280145 
L 574.609817 132.493184 
L 576.543968 129.179098 
L 578.478118 126.279518 
L 580.412269 123.740892 
L 582.622726 121.220421 
L 584.833184 119.046779 
L 587.043642 117.166986 
L 589.530407 115.348111 
L 592.017171 113.791941 
L 594.780244 112.31862 
L 597.819623 110.953964 
L 601.135309 109.713715 
L 604.727303 108.605082 
L 608.871911 107.566127 
L 613.569134 106.630395 
L 618.818971 105.815793 
L 624.89773 105.099288 
L 632.081717 104.479106 
L 640.923548 103.94892 
L 651.975836 103.521826 
L 655.56783 103.421923 
L 655.56783 103.421923 
" clip-path="url(#pa6b26d202c)" style="fill: none; stroke: #000000; stroke-width: 2; stroke-linecap: round"/>
   </g>
   <g id="patch_8">
    <path d="M 365.735382 295.311281 
L 365.735382 21.073594 
" style="fill: none; stroke: #262626; stroke-linejoin: miter; stroke-linecap: square"/>
   </g>
   <g id="patch_9">
    <path d="M 669.369375 295.311281 
L 669.369375 21.073594 
" style="fill: none; stroke: #262626; stroke-linejoin: miter; stroke-linecap: square"/>
   </g>
   <g id="patch_10">
    <path d="M 365.735382 295.311281 
L 669.369375 295.311281 
" style="fill: none; stroke: #262626; stroke-linejoin: miter; stroke-linecap: square"/>
   </g>
   <g id="patch_11">
    <path d="M 365.735382 21.073594 
L 669.369375 21.073594 
" style="fill: none; stroke: #262626; stroke-linejoin: miter; stroke-linecap: square"/>
   </g>
   <g id="text_27">
    <!-- UNIFORM -->
    <g transform="translate(675.442055 182.794341) scale(0.09 -0.09)">
     <defs>
      <path id="ArialMT-55" d="M 3500 4581 
L 4106 4581 
L 4106 1934 
Q 4106 1244 3950 837 
Q 3794 431 3386 176 
Q 2978 -78 2316 -78 
Q 1672 -78 1262 144 
Q 853 366 678 786 
Q 503 1206 503 1934 
L 503 4581 
L 1109 4581 
L 1109 1938 
Q 1109 1341 1220 1058 
Q 1331 775 1601 622 
Q 1872 469 2263 469 
Q 2931 469 3215 772 
Q 3500 1075 3500 1938 
L 3500 4581 
z
" transform="scale(0.015625)"/>
      <path id="ArialMT-4e" d="M 488 0 
L 488 4581 
L 1109 4581 
L 3516 984 
L 3516 4581 
L 4097 4581 
L 4097 0 
L 3475 0 
L 1069 3600 
L 1069 0 
L 488 0 
z
" transform="scale(0.015625)"/>
      <path id="ArialMT-49" d="M 597 0 
L 597 4581 
L 1203 4581 
L 1203 0 
L 597 0 
z
" transform="scale(0.015625)"/>
      <path id="ArialMT-4f" d="M 309 2231 
Q 309 3372 921 4017 
Q 1534 4663 2503 4663 
Q 3138 4663 3647 4359 
Q 4156 4056 4423 3514 
Q 4691 2972 4691 2284 
Q 4691 1588 4409 1038 
Q 4128 488 3612 205 
Q 3097 -78 2500 -78 
Q 1853 -78 1343 234 
Q 834 547 571 1087 
Q 309 1628 309 2231 
z
M 934 2222 
Q 934 1394 1379 917 
Q 1825 441 2497 441 
Q 3181 441 3623 922 
Q 4066 1403 4066 2288 
Q 4066 2847 3877 3264 
Q 3688 3681 3323 3911 
Q 2959 4141 2506 4141 
Q 1863 4141 1398 3698 
Q 934 3256 934 2222 
z
" transform="scale(0.015625)"/>
      <path id="ArialMT-52" d="M 503 0 
L 503 4581 
L 2534 4581 
Q 3147 4581 3465 4457 
Q 3784 4334 3975 4021 
Q 4166 3709 4166 3331 
Q 4166 2844 3850 2509 
Q 3534 2175 2875 2084 
Q 3116 1969 3241 1856 
Q 3506 1613 3744 1247 
L 4541 0 
L 3778 0 
L 3172 953 
Q 2906 1366 2734 1584 
Q 2563 1803 2427 1890 
Q 2291 1978 2150 2013 
Q 2047 2034 1813 2034 
L 1109 2034 
L 1109 0 
L 503 0 
z
M 1109 2559 
L 2413 2559 
Q 2828 2559 3062 2645 
Q 3297 2731 3419 2920 
Q 3541 3109 3541 3331 
Q 3541 3656 3305 3865 
Q 3069 4075 2559 4075 
L 1109 4075 
L 1109 2559 
z
" transform="scale(0.015625)"/>
     </defs>
     <use xlink:href="#ArialMT-55"/>
     <use xlink:href="#ArialMT-4e" transform="translate(72.216797 0)"/>
     <use xlink:href="#ArialMT-49" transform="translate(144.433594 0)"/>
     <use xlink:href="#ArialMT-46" transform="translate(172.216797 0)"/>
     <use xlink:href="#ArialMT-4f" transform="translate(233.300781 0)"/>
     <use xlink:href="#ArialMT-52" transform="translate(311.083984 0)"/>
     <use xlink:href="#ArialMT-4d" transform="translate(383.300781 0)"/>
    </g>
   </g>
   <g id="text_28">
    <!-- MAXENT -->
    <g transform="translate(675.442055 285.172572) scale(0.09 -0.09)">
     <defs>
      <path id="ArialMT-41" d="M -9 0 
L 1750 4581 
L 2403 4581 
L 4278 0 
L 3588 0 
L 3053 1388 
L 1138 1388 
L 634 0 
L -9 0 
z
M 1313 1881 
L 2866 1881 
L 2388 3150 
Q 2169 3728 2063 4100 
Q 1975 3659 1816 3225 
L 1313 1881 
z
" transform="scale(0.015625)"/>
      <path id="ArialMT-58" d="M 28 0 
L 1800 2388 
L 238 4581 
L 959 4581 
L 1791 3406 
Q 2050 3041 2159 2844 
Q 2313 3094 2522 3366 
L 3444 4581 
L 4103 4581 
L 2494 2422 
L 4228 0 
L 3478 0 
L 2325 1634 
Q 2228 1775 2125 1941 
Q 1972 1691 1906 1597 
L 756 0 
L 28 0 
z
" transform="scale(0.015625)"/>
      <path id="ArialMT-54" d="M 1659 0 
L 1659 4041 
L 150 4041 
L 150 4581 
L 3781 4581 
L 3781 4041 
L 2266 4041 
L 2266 0 
L 1659 0 
z
" transform="scale(0.015625)"/>
     </defs>
     <use xlink:href="#ArialMT-4d"/>
     <use xlink:href="#ArialMT-41" transform="translate(83.300781 0)"/>
     <use xlink:href="#ArialMT-58" transform="translate(150 0)"/>
     <use xlink:href="#ArialMT-45" transform="translate(216.699219 0)"/>
     <use xlink:href="#ArialMT-4e" transform="translate(283.398438 0)"/>
     <use xlink:href="#ArialMT-54" transform="translate(355.615234 0)"/>
    </g>
   </g>
   <g id="text_29">
    <!-- FBA -->
    <g transform="translate(675.442055 244.348078) scale(0.09 -0.09)">
     <defs>
      <path id="ArialMT-42" d="M 469 0 
L 469 4581 
L 2188 4581 
Q 2713 4581 3030 4442 
Q 3347 4303 3526 4014 
Q 3706 3725 3706 3409 
Q 3706 3116 3547 2856 
Q 3388 2597 3066 2438 
Q 3481 2316 3704 2022 
Q 3928 1728 3928 1328 
Q 3928 1006 3792 729 
Q 3656 453 3456 303 
Q 3256 153 2954 76 
Q 2653 0 2216 0 
L 469 0 
z
M 1075 2656 
L 2066 2656 
Q 2469 2656 2644 2709 
Q 2875 2778 2992 2937 
Q 3109 3097 3109 3338 
Q 3109 3566 3000 3739 
Q 2891 3913 2687 3977 
Q 2484 4041 1991 4041 
L 1075 4041 
L 1075 2656 
z
M 1075 541 
L 2216 541 
Q 2509 541 2628 563 
Q 2838 600 2978 687 
Q 3119 775 3209 942 
Q 3300 1109 3300 1328 
Q 3300 1584 3169 1773 
Q 3038 1963 2805 2039 
Q 2572 2116 2134 2116 
L 1075 2116 
L 1075 541 
z
" transform="scale(0.015625)"/>
     </defs>
     <use xlink:href="#ArialMT-46"/>
     <use xlink:href="#ArialMT-42" transform="translate(61.083984 0)"/>
     <use xlink:href="#ArialMT-41" transform="translate(127.783203 0)"/>
    </g>
   </g>
   <g id="text_30">
    <!-- $T = 0.00238$ -->
    <g style="fill: #f47d57" transform="translate(450.065461 52.017769) scale(0.09 -0.09)">
     <defs>
      <path id="DejaVuSans-32" d="M 1228 531 
L 3431 531 
L 3431 0 
L 469 0 
L 469 531 
Q 828 903 1448 1529 
Q 2069 2156 2228 2338 
Q 2531 2678 2651 2914 
Q 2772 3150 2772 3378 
Q 2772 3750 2511 3984 
Q 2250 4219 1831 4219 
Q 1534 4219 1204 4116 
Q 875 4013 500 3803 
L 500 4441 
Q 881 4594 1212 4672 
Q 1544 4750 1819 4750 
Q 2544 4750 2975 4387 
Q 3406 4025 3406 3419 
Q 3406 3131 3298 2873 
Q 3191 2616 2906 2266 
Q 2828 2175 2409 1742 
Q 1991 1309 1228 531 
z
" transform="scale(0.015625)"/>
      <path id="DejaVuSans-38" d="M 2034 2216 
Q 1584 2216 1326 1975 
Q 1069 1734 1069 1313 
Q 1069 891 1326 650 
Q 1584 409 2034 409 
Q 2484 409 2743 651 
Q 3003 894 3003 1313 
Q 3003 1734 2745 1975 
Q 2488 2216 2034 2216 
z
M 1403 2484 
Q 997 2584 770 2862 
Q 544 3141 544 3541 
Q 544 4100 942 4425 
Q 1341 4750 2034 4750 
Q 2731 4750 3128 4425 
Q 3525 4100 3525 3541 
Q 3525 3141 3298 2862 
Q 3072 2584 2669 2484 
Q 3125 2378 3379 2068 
Q 3634 1759 3634 1313 
Q 3634 634 3220 271 
Q 2806 -91 2034 -91 
Q 1263 -91 848 271 
Q 434 634 434 1313 
Q 434 1759 690 2068 
Q 947 2378 1403 2484 
z
M 1172 3481 
Q 1172 3119 1398 2916 
Q 1625 2713 2034 2713 
Q 2441 2713 2670 2916 
Q 2900 3119 2900 3481 
Q 2900 3844 2670 4047 
Q 2441 4250 2034 4250 
Q 1625 4250 1398 4047 
Q 1172 3844 1172 3481 
z
" transform="scale(0.015625)"/>
     </defs>
     <use xlink:href="#DejaVuSans-Oblique-54" transform="translate(0 0.78125)"/>
     <use xlink:href="#DejaVuSans-3d" transform="translate(80.566406 0.78125)"/>
     <use xlink:href="#DejaVuSans-30" transform="translate(183.837891 0.78125)"/>
     <use xlink:href="#DejaVuSans-2e" transform="translate(247.460938 0.78125)"/>
     <use xlink:href="#DejaVuSans-30" transform="translate(279.248047 0.78125)"/>
     <use xlink:href="#DejaVuSans-30" transform="translate(342.871094 0.78125)"/>
     <use xlink:href="#DejaVuSans-32" transform="translate(406.494141 0.78125)"/>
     <use xlink:href="#DejaVuSans-33" transform="translate(470.117188 0.78125)"/>
     <use xlink:href="#DejaVuSans-38" transform="translate(533.740234 0.78125)"/>
    </g>
   </g>
   <g id="text_31">
    <!-- MSE Curves for EFV -->
    <g style="fill: #262626" transform="translate(466.514956 15.073594) scale(0.11 -0.11)">
     <defs>
      <path id="ArialMT-56" d="M 1803 0 
L 28 4581 
L 684 4581 
L 1875 1253 
Q 2019 853 2116 503 
Q 2222 878 2363 1253 
L 3600 4581 
L 4219 4581 
L 2425 0 
L 1803 0 
z
" transform="scale(0.015625)"/>
     </defs>
     <use xlink:href="#ArialMT-4d"/>
     <use xlink:href="#ArialMT-53" transform="translate(83.300781 0)"/>
     <use xlink:href="#ArialMT-45" transform="translate(150 0)"/>
     <use xlink:href="#ArialMT-20" transform="translate(216.699219 0)"/>
     <use xlink:href="#ArialMT-43" transform="translate(244.482422 0)"/>
     <use xlink:href="#ArialMT-75" transform="translate(316.699219 0)"/>
     <use xlink:href="#ArialMT-72" transform="translate(372.314453 0)"/>
     <use xlink:href="#ArialMT-76" transform="translate(405.615234 0)"/>
     <use xlink:href="#ArialMT-65" transform="translate(455.615234 0)"/>
     <use xlink:href="#ArialMT-73" transform="translate(511.230469 0)"/>
     <use xlink:href="#ArialMT-20" transform="translate(561.230469 0)"/>
     <use xlink:href="#ArialMT-66" transform="translate(589.013672 0)"/>
     <use xlink:href="#ArialMT-6f" transform="translate(616.796875 0)"/>
     <use xlink:href="#ArialMT-72" transform="translate(672.412109 0)"/>
     <use xlink:href="#ArialMT-20" transform="translate(705.712891 0)"/>
     <use xlink:href="#ArialMT-45" transform="translate(733.496094 0)"/>
     <use xlink:href="#ArialMT-46" transform="translate(800.195312 0)"/>
     <use xlink:href="#ArialMT-56" transform="translate(861.279297 0)"/>
    </g>
   </g>
   <g id="PathCollection_3">
    <g clip-path="url(#pa6b26d202c)">
     <use xlink:href="#m4db5387b38" x="379.536927" y="201.665654" style="fill: #921c5b; stroke: #921c5b"/>
    </g>
   </g>
   <g id="PathCollection_4">
    <g clip-path="url(#pa6b26d202c)">
     <use xlink:href="#m4db5387b38" x="379.536927" y="239.028516" style="fill: #921c5b; stroke: #921c5b"/>
    </g>
   </g>
   <g id="legend_1">
    <g id="patch_12">
     <path d="M 681.742055 66.785156 
L 772.057055 66.785156 
Q 773.857055 66.785156 773.857055 64.985156 
L 773.857055 27.373594 
Q 773.857055 25.573594 772.057055 25.573594 
L 681.742055 25.573594 
Q 679.942055 25.573594 679.942055 27.373594 
L 679.942055 64.985156 
Q 679.942055 66.785156 681.742055 66.785156 
z
" style="fill: #ffffff; opacity: 0.8; stroke: #000000; stroke-linejoin: miter"/>
    </g>
    <g id="line2d_13">
     <path d="M 683.542055 32.514844 
L 692.542055 32.514844 
L 701.542055 32.514844 
" style="fill: none; stroke: #808080; stroke-width: 2; stroke-linecap: round"/>
    </g>
    <g id="text_32">
     <!-- $\lambda = 0.1\,h^{-1}$ -->
     <g style="fill: #262626" transform="translate(708.742055 35.664844) scale(0.09 -0.09)">
      <defs>
       <path id="DejaVuSans-Oblique-3bb" d="M 2350 4316 
L 3125 0 
L 2516 0 
L 2038 2588 
L 328 0 
L -281 0 
L 1903 3356 
L 1794 3975 
Q 1725 4369 1391 4369 
L 1091 4369 
L 1184 4863 
L 1550 4856 
Q 2253 4847 2350 4316 
z
" transform="scale(0.015625)"/>
       <path id="DejaVuSans-31" d="M 794 531 
L 1825 531 
L 1825 4091 
L 703 3866 
L 703 4441 
L 1819 4666 
L 2450 4666 
L 2450 531 
L 3481 531 
L 3481 0 
L 794 0 
L 794 531 
z
" transform="scale(0.015625)"/>
       <path id="DejaVuSans-Oblique-68" d="M 3566 2113 
L 3156 0 
L 2578 0 
L 2988 2091 
Q 3016 2238 3031 2350 
Q 3047 2463 3047 2528 
Q 3047 2791 2881 2937 
Q 2716 3084 2419 3084 
Q 1956 3084 1617 2771 
Q 1278 2459 1178 1941 
L 800 0 
L 225 0 
L 1172 4863 
L 1747 4863 
L 1375 2950 
Q 1594 3244 1934 3414 
Q 2275 3584 2650 3584 
Q 3113 3584 3367 3334 
Q 3622 3084 3622 2631 
Q 3622 2519 3608 2391 
Q 3594 2263 3566 2113 
z
" transform="scale(0.015625)"/>
       <path id="DejaVuSans-2212" d="M 678 2272 
L 4684 2272 
L 4684 1741 
L 678 1741 
L 678 2272 
z
" transform="scale(0.015625)"/>
      </defs>
      <use xlink:href="#DejaVuSans-Oblique-3bb" transform="translate(0 0.684375)"/>
      <use xlink:href="#DejaVuSans-3d" transform="translate(78.662109 0.684375)"/>
      <use xlink:href="#DejaVuSans-30" transform="translate(181.933594 0.684375)"/>
      <use xlink:href="#DejaVuSans-2e" transform="translate(245.556641 0.684375)"/>
      <use xlink:href="#DejaVuSans-31" transform="translate(277.34375 0.684375)"/>
      <use xlink:href="#DejaVuSans-Oblique-68" transform="translate(357.202473 0.684375)"/>
      <use xlink:href="#DejaVuSans-2212" transform="translate(428.029088 38.965625) scale(0.7)"/>
      <use xlink:href="#DejaVuSans-31" transform="translate(486.681431 38.965625) scale(0.7)"/>
     </g>
    </g>
    <g id="line2d_14">
     <path d="M 683.542055 45.294844 
L 692.542055 45.294844 
L 701.542055 45.294844 
" style="fill: none; stroke: #000000; stroke-width: 2; stroke-linecap: round"/>
    </g>
    <g id="text_33">
     <!-- $\lambda = 0.2\,h^{-1}$ -->
     <g style="fill: #262626" transform="translate(708.742055 48.444844) scale(0.09 -0.09)">
      <use xlink:href="#DejaVuSans-Oblique-3bb" transform="translate(0 0.684375)"/>
      <use xlink:href="#DejaVuSans-3d" transform="translate(78.662109 0.684375)"/>
      <use xlink:href="#DejaVuSans-30" transform="translate(181.933594 0.684375)"/>
      <use xlink:href="#DejaVuSans-2e" transform="translate(245.556641 0.684375)"/>
      <use xlink:href="#DejaVuSans-32" transform="translate(271.84375 0.684375)"/>
      <use xlink:href="#DejaVuSans-Oblique-68" transform="translate(351.702473 0.684375)"/>
      <use xlink:href="#DejaVuSans-2212" transform="translate(422.529088 38.965625) scale(0.7)"/>
      <use xlink:href="#DejaVuSans-31" transform="translate(481.181431 38.965625) scale(0.7)"/>
     </g>
    </g>
    <g id="line2d_15">
     <g>
      <use xlink:href="#m4db5387b38" x="692.542055" y="58.140937" style="fill: #921c5b; stroke: #921c5b"/>
     </g>
    </g>
    <g id="text_34">
     <!-- COBRApy FBA -->
     <g style="fill: #262626" transform="translate(708.742055 61.290937) scale(0.09 -0.09)">
      <defs>
       <path id="ArialMT-70" d="M 422 -1272 
L 422 3319 
L 934 3319 
L 934 2888 
Q 1116 3141 1344 3267 
Q 1572 3394 1897 3394 
Q 2322 3394 2647 3175 
Q 2972 2956 3137 2557 
Q 3303 2159 3303 1684 
Q 3303 1175 3120 767 
Q 2938 359 2589 142 
Q 2241 -75 1856 -75 
Q 1575 -75 1351 44 
Q 1128 163 984 344 
L 984 -1272 
L 422 -1272 
z
M 931 1641 
Q 931 1000 1190 694 
Q 1450 388 1819 388 
Q 2194 388 2461 705 
Q 2728 1022 2728 1688 
Q 2728 2322 2467 2637 
Q 2206 2953 1844 2953 
Q 1484 2953 1207 2617 
Q 931 2281 931 1641 
z
" transform="scale(0.015625)"/>
       <path id="ArialMT-79" d="M 397 -1278 
L 334 -750 
Q 519 -800 656 -800 
Q 844 -800 956 -737 
Q 1069 -675 1141 -563 
Q 1194 -478 1313 -144 
Q 1328 -97 1363 -6 
L 103 3319 
L 709 3319 
L 1400 1397 
Q 1534 1031 1641 628 
Q 1738 1016 1872 1384 
L 2581 3319 
L 3144 3319 
L 1881 -56 
Q 1678 -603 1566 -809 
Q 1416 -1088 1222 -1217 
Q 1028 -1347 759 -1347 
Q 597 -1347 397 -1278 
z
" transform="scale(0.015625)"/>
      </defs>
      <use xlink:href="#ArialMT-43"/>
      <use xlink:href="#ArialMT-4f" transform="translate(72.216797 0)"/>
      <use xlink:href="#ArialMT-42" transform="translate(150 0)"/>
      <use xlink:href="#ArialMT-52" transform="translate(216.699219 0)"/>
      <use xlink:href="#ArialMT-41" transform="translate(288.916016 0)"/>
      <use xlink:href="#ArialMT-70" transform="translate(355.615234 0)"/>
      <use xlink:href="#ArialMT-79" transform="translate(411.230469 0)"/>
      <use xlink:href="#ArialMT-20" transform="translate(461.230469 0)"/>
      <use xlink:href="#ArialMT-46" transform="translate(489.013672 0)"/>
      <use xlink:href="#ArialMT-42" transform="translate(550.097656 0)"/>
      <use xlink:href="#ArialMT-41" transform="translate(616.796875 0)"/>
     </g>
    </g>
   </g>
  </g>
 </g>
 <defs>
  <clipPath id="p579a5774aa">
   <rect x="51.369375" y="21.073594" width="303.633993" height="274.237687"/>
  </clipPath>
  <clipPath id="pa6b26d202c">
   <rect x="365.735382" y="21.073594" width="303.633993" height="274.237687"/>
  </clipPath>
 </defs>
</svg>
