<?xml version="1.0" encoding="utf-8" standalone="no"?>
<!DOCTYPE svg PUBLIC "-//W3C//DTD SVG 1.1//EN"
  "http://www.w3.org/Graphics/SVG/1.1/DTD/svg11.dtd">
<svg xmlns:xlink="http://www.w3.org/1999/xlink" width="743.808874pt" height="322.749797pt" viewBox="0 0 743.808874 322.749797" xmlns="http://www.w3.org/2000/svg" version="1.1">
 <metadata>
  <rdf:RDF xmlns:dc="http://purl.org/dc/elements/1.1/" xmlns:cc="http://creativecommons.org/ns#" xmlns:rdf="http://www.w3.org/1999/02/22-rdf-syntax-ns#">
   <cc:Work>
    <dc:type rdf:resource="http://purl.org/dc/dcmitype/StillImage"/>
    <dc:date>2025-08-11T16:28:45.173137</dc:date>
    <dc:format>image/svg+xml</dc:format>
    <dc:creator>
     <cc:Agent>
      <dc:title>Matplotlib v3.10.1, https://matplotlib.org/</dc:title>
     </cc:Agent>
    </dc:creator>
   </cc:Work>
  </rdf:RDF>
 </metadata>
 <defs>
  <style type="text/css">*{stroke-linejoin: round; stroke-linecap: butt}</style>
 </defs>
 <g id="figure_1">
  <g id="patch_1">
   <path d="M 0 322.749797 
L 743.808874 322.749797 
L 743.808874 0 
L 0 0 
z
" style="fill: #ffffff"/>
  </g>
  <g id="axes_1">
   <g id="patch_2">
    <path d="M 45.252344 285.374484 
L 380.628637 285.374484 
L 380.628637 11.136797 
L 45.252344 11.136797 
z
" style="fill: #ffffff"/>
   </g>
   <g id="line2d_1">
    <path d="M 225.645816 285.374484 
L 225.645816 11.136797 
" clip-path="url(#p7e5b15ca33)" style="fill: none; stroke: #f47d57; stroke-opacity: 0.4; stroke-width: 1.5; stroke-linecap: round"/>
   </g>
   <g id="matplotlib.axis_1">
    <g id="xtick_1">
     <g id="text_1">
      <!-- $\mathdefault{10^{-5}}$ -->
      <g style="fill: #262626" transform="translate(53.259823 300.108234) scale(0.11 -0.11)">
       <defs>
        <path id="ArialMT-31" d="M 2384 0 
L 1822 0 
L 1822 3584 
Q 1619 3391 1289 3197 
Q 959 3003 697 2906 
L 697 3450 
Q 1169 3672 1522 3987 
Q 1875 4303 2022 4600 
L 2384 4600 
L 2384 0 
z
" transform="scale(0.015625)"/>
        <path id="ArialMT-30" d="M 266 2259 
Q 266 3072 433 3567 
Q 600 4063 929 4331 
Q 1259 4600 1759 4600 
Q 2128 4600 2406 4451 
Q 2684 4303 2865 4023 
Q 3047 3744 3150 3342 
Q 3253 2941 3253 2259 
Q 3253 1453 3087 958 
Q 2922 463 2592 192 
Q 2263 -78 1759 -78 
Q 1097 -78 719 397 
Q 266 969 266 2259 
z
M 844 2259 
Q 844 1131 1108 757 
Q 1372 384 1759 384 
Q 2147 384 2411 759 
Q 2675 1134 2675 2259 
Q 2675 3391 2411 3762 
Q 2147 4134 1753 4134 
Q 1366 4134 1134 3806 
Q 844 3388 844 2259 
z
" transform="scale(0.015625)"/>
        <path id="ArialMT-2212" d="M 3381 1997 
L 356 1997 
L 356 2522 
L 3381 2522 
L 3381 1997 
z
" transform="scale(0.015625)"/>
        <path id="ArialMT-35" d="M 266 1200 
L 856 1250 
Q 922 819 1161 601 
Q 1400 384 1738 384 
Q 2144 384 2425 690 
Q 2706 997 2706 1503 
Q 2706 1984 2436 2262 
Q 2166 2541 1728 2541 
Q 1456 2541 1237 2417 
Q 1019 2294 894 2097 
L 366 2166 
L 809 4519 
L 3088 4519 
L 3088 3981 
L 1259 3981 
L 1013 2750 
Q 1425 3038 1878 3038 
Q 2478 3038 2890 2622 
Q 3303 2206 3303 1553 
Q 3303 931 2941 478 
Q 2500 -78 1738 -78 
Q 1113 -78 717 272 
Q 322 622 266 1200 
z
" transform="scale(0.015625)"/>
       </defs>
       <use xlink:href="#ArialMT-31" transform="translate(0 0.879688)"/>
       <use xlink:href="#ArialMT-30" transform="translate(55.615234 0.879688)"/>
       <use xlink:href="#ArialMT-2212" transform="translate(112.972813 70.573438) scale(0.7)"/>
       <use xlink:href="#ArialMT-35" transform="translate(153.851719 70.573438) scale(0.7)"/>
      </g>
     </g>
    </g>
    <g id="xtick_2">
     <g id="text_2">
      <!-- $\mathdefault{10^{-4}}$ -->
      <g style="fill: #262626" transform="translate(116.035892 300.108234) scale(0.11 -0.11)">
       <defs>
        <path id="ArialMT-34" d="M 2069 0 
L 2069 1097 
L 81 1097 
L 81 1613 
L 2172 4581 
L 2631 4581 
L 2631 1613 
L 3250 1613 
L 3250 1097 
L 2631 1097 
L 2631 0 
L 2069 0 
z
M 2069 1613 
L 2069 3678 
L 634 1613 
L 2069 1613 
z
" transform="scale(0.015625)"/>
       </defs>
       <use xlink:href="#ArialMT-31" transform="translate(0 0.201563)"/>
       <use xlink:href="#ArialMT-30" transform="translate(55.615234 0.201563)"/>
       <use xlink:href="#ArialMT-2212" transform="translate(112.972813 69.895313) scale(0.7)"/>
       <use xlink:href="#ArialMT-34" transform="translate(153.851719 69.895313) scale(0.7)"/>
      </g>
     </g>
    </g>
    <g id="xtick_3">
     <g id="text_3">
      <!-- $\mathdefault{10^{-3}}$ -->
      <g style="fill: #262626" transform="translate(178.811961 300.218234) scale(0.11 -0.11)">
       <defs>
        <path id="ArialMT-33" d="M 269 1209 
L 831 1284 
Q 928 806 1161 595 
Q 1394 384 1728 384 
Q 2125 384 2398 659 
Q 2672 934 2672 1341 
Q 2672 1728 2419 1979 
Q 2166 2231 1775 2231 
Q 1616 2231 1378 2169 
L 1441 2663 
Q 1497 2656 1531 2656 
Q 1891 2656 2178 2843 
Q 2466 3031 2466 3422 
Q 2466 3731 2256 3934 
Q 2047 4138 1716 4138 
Q 1388 4138 1169 3931 
Q 950 3725 888 3313 
L 325 3413 
Q 428 3978 793 4289 
Q 1159 4600 1703 4600 
Q 2078 4600 2393 4439 
Q 2709 4278 2876 4000 
Q 3044 3722 3044 3409 
Q 3044 3113 2884 2869 
Q 2725 2625 2413 2481 
Q 2819 2388 3044 2092 
Q 3269 1797 3269 1353 
Q 3269 753 2831 336 
Q 2394 -81 1725 -81 
Q 1122 -81 723 278 
Q 325 638 269 1209 
z
" transform="scale(0.015625)"/>
       </defs>
       <use xlink:href="#ArialMT-31" transform="translate(0 0.99375)"/>
       <use xlink:href="#ArialMT-30" transform="translate(55.615234 0.99375)"/>
       <use xlink:href="#ArialMT-2212" transform="translate(112.972813 70.6875) scale(0.7)"/>
       <use xlink:href="#ArialMT-33" transform="translate(153.851719 70.6875) scale(0.7)"/>
      </g>
     </g>
    </g>
    <g id="xtick_4">
     <g id="text_4">
      <!-- $\mathdefault{10^{-2}}$ -->
      <g style="fill: #262626" transform="translate(241.588029 300.218234) scale(0.11 -0.11)">
       <defs>
        <path id="ArialMT-32" d="M 3222 541 
L 3222 0 
L 194 0 
Q 188 203 259 391 
Q 375 700 629 1000 
Q 884 1300 1366 1694 
Q 2113 2306 2375 2664 
Q 2638 3022 2638 3341 
Q 2638 3675 2398 3904 
Q 2159 4134 1775 4134 
Q 1369 4134 1125 3890 
Q 881 3647 878 3216 
L 300 3275 
Q 359 3922 746 4261 
Q 1134 4600 1788 4600 
Q 2447 4600 2831 4234 
Q 3216 3869 3216 3328 
Q 3216 3053 3103 2787 
Q 2991 2522 2730 2228 
Q 2469 1934 1863 1422 
Q 1356 997 1212 845 
Q 1069 694 975 541 
L 3222 541 
z
" transform="scale(0.015625)"/>
       </defs>
       <use xlink:href="#ArialMT-31" transform="translate(0 0.99375)"/>
       <use xlink:href="#ArialMT-30" transform="translate(55.615234 0.99375)"/>
       <use xlink:href="#ArialMT-2212" transform="translate(112.972813 70.6875) scale(0.7)"/>
       <use xlink:href="#ArialMT-32" transform="translate(153.851719 70.6875) scale(0.7)"/>
      </g>
     </g>
    </g>
    <g id="xtick_5">
     <g id="text_5">
      <!-- $\mathdefault{10^{-1}}$ -->
      <g style="fill: #262626" transform="translate(304.364098 300.218234) scale(0.11 -0.11)">
       <use xlink:href="#ArialMT-31" transform="translate(0 0.99375)"/>
       <use xlink:href="#ArialMT-30" transform="translate(55.615234 0.99375)"/>
       <use xlink:href="#ArialMT-2212" transform="translate(112.972813 70.6875) scale(0.7)"/>
       <use xlink:href="#ArialMT-31" transform="translate(153.851719 70.6875) scale(0.7)"/>
      </g>
     </g>
    </g>
    <g id="xtick_6">
     <g id="text_6">
      <!-- $\mathdefault{10^{0}}$ -->
      <g style="fill: #262626" transform="translate(369.395167 300.218234) scale(0.11 -0.11)">
       <use xlink:href="#ArialMT-31" transform="translate(0 0.99375)"/>
       <use xlink:href="#ArialMT-30" transform="translate(55.615234 0.99375)"/>
       <use xlink:href="#ArialMT-30" transform="translate(112.972813 70.6875) scale(0.7)"/>
      </g>
     </g>
    </g>
    <g id="text_7">
     <!-- $T$ -->
     <g style="fill: #262626" transform="translate(209.84049 313.562297) scale(0.1 -0.1)">
      <defs>
       <path id="DejaVuSans-Oblique-54" d="M 378 4666 
L 4325 4666 
L 4225 4134 
L 2559 4134 
L 1759 0 
L 1125 0 
L 1925 4134 
L 275 4134 
L 378 4666 
z
" transform="scale(0.015625)"/>
      </defs>
      <use xlink:href="#DejaVuSans-Oblique-54" transform="translate(0 0.09375)"/>
     </g>
    </g>
   </g>
   <g id="matplotlib.axis_2">
    <g id="ytick_1">
     <g id="text_8">
      <!-- 0.00 -->
      <g style="fill: #262626" transform="translate(20.345313 289.311281) scale(0.11 -0.11)">
       <defs>
        <path id="ArialMT-2e" d="M 581 0 
L 581 641 
L 1222 641 
L 1222 0 
L 581 0 
z
" transform="scale(0.015625)"/>
       </defs>
       <use xlink:href="#ArialMT-30"/>
       <use xlink:href="#ArialMT-2e" transform="translate(55.615234 0)"/>
       <use xlink:href="#ArialMT-30" transform="translate(83.398438 0)"/>
       <use xlink:href="#ArialMT-30" transform="translate(139.013672 0)"/>
      </g>
     </g>
    </g>
    <g id="ytick_2">
     <g id="text_9">
      <!-- 0.05 -->
      <g style="fill: #262626" transform="translate(20.345313 234.463744) scale(0.11 -0.11)">
       <use xlink:href="#ArialMT-30"/>
       <use xlink:href="#ArialMT-2e" transform="translate(55.615234 0)"/>
       <use xlink:href="#ArialMT-30" transform="translate(83.398438 0)"/>
       <use xlink:href="#ArialMT-35" transform="translate(139.013672 0)"/>
      </g>
     </g>
    </g>
    <g id="ytick_3">
     <g id="text_10">
      <!-- 0.10 -->
      <g style="fill: #262626" transform="translate(20.345313 179.616206) scale(0.11 -0.11)">
       <use xlink:href="#ArialMT-30"/>
       <use xlink:href="#ArialMT-2e" transform="translate(55.615234 0)"/>
       <use xlink:href="#ArialMT-31" transform="translate(83.398438 0)"/>
       <use xlink:href="#ArialMT-30" transform="translate(139.013672 0)"/>
      </g>
     </g>
    </g>
    <g id="ytick_4">
     <g id="text_11">
      <!-- 0.15 -->
      <g style="fill: #262626" transform="translate(20.345313 124.768669) scale(0.11 -0.11)">
       <use xlink:href="#ArialMT-30"/>
       <use xlink:href="#ArialMT-2e" transform="translate(55.615234 0)"/>
       <use xlink:href="#ArialMT-31" transform="translate(83.398438 0)"/>
       <use xlink:href="#ArialMT-35" transform="translate(139.013672 0)"/>
      </g>
     </g>
    </g>
    <g id="ytick_5">
     <g id="text_12">
      <!-- 0.20 -->
      <g style="fill: #262626" transform="translate(20.345313 69.921131) scale(0.11 -0.11)">
       <use xlink:href="#ArialMT-30"/>
       <use xlink:href="#ArialMT-2e" transform="translate(55.615234 0)"/>
       <use xlink:href="#ArialMT-32" transform="translate(83.398438 0)"/>
       <use xlink:href="#ArialMT-30" transform="translate(139.013672 0)"/>
      </g>
     </g>
    </g>
    <g id="ytick_6">
     <g id="text_13">
      <!-- 0.25 -->
      <g style="fill: #262626" transform="translate(20.345313 15.073594) scale(0.11 -0.11)">
       <use xlink:href="#ArialMT-30"/>
       <use xlink:href="#ArialMT-2e" transform="translate(55.615234 0)"/>
       <use xlink:href="#ArialMT-32" transform="translate(83.398438 0)"/>
       <use xlink:href="#ArialMT-35" transform="translate(139.013672 0)"/>
      </g>
     </g>
    </g>
    <g id="text_14">
     <!-- MSE -->
     <g style="fill: #262626" transform="translate(14.357813 159.090797) rotate(-90) scale(0.1 -0.1)">
      <defs>
       <path id="ArialMT-4d" d="M 475 0 
L 475 4581 
L 1388 4581 
L 2472 1338 
Q 2622 884 2691 659 
Q 2769 909 2934 1394 
L 4031 4581 
L 4847 4581 
L 4847 0 
L 4263 0 
L 4263 3834 
L 2931 0 
L 2384 0 
L 1059 3900 
L 1059 0 
L 475 0 
z
" transform="scale(0.015625)"/>
       <path id="ArialMT-53" d="M 288 1472 
L 859 1522 
Q 900 1178 1048 958 
Q 1197 738 1509 602 
Q 1822 466 2213 466 
Q 2559 466 2825 569 
Q 3091 672 3220 851 
Q 3350 1031 3350 1244 
Q 3350 1459 3225 1620 
Q 3100 1781 2813 1891 
Q 2628 1963 1997 2114 
Q 1366 2266 1113 2400 
Q 784 2572 623 2826 
Q 463 3081 463 3397 
Q 463 3744 659 4045 
Q 856 4347 1234 4503 
Q 1613 4659 2075 4659 
Q 2584 4659 2973 4495 
Q 3363 4331 3572 4012 
Q 3781 3694 3797 3291 
L 3216 3247 
Q 3169 3681 2898 3903 
Q 2628 4125 2100 4125 
Q 1550 4125 1298 3923 
Q 1047 3722 1047 3438 
Q 1047 3191 1225 3031 
Q 1400 2872 2139 2705 
Q 2878 2538 3153 2413 
Q 3553 2228 3743 1945 
Q 3934 1663 3934 1294 
Q 3934 928 3725 604 
Q 3516 281 3123 101 
Q 2731 -78 2241 -78 
Q 1619 -78 1198 103 
Q 778 284 539 648 
Q 300 1013 288 1472 
z
" transform="scale(0.015625)"/>
       <path id="ArialMT-45" d="M 506 0 
L 506 4581 
L 3819 4581 
L 3819 4041 
L 1113 4041 
L 1113 2638 
L 3647 2638 
L 3647 2100 
L 1113 2100 
L 1113 541 
L 3925 541 
L 3925 0 
L 506 0 
z
" transform="scale(0.015625)"/>
      </defs>
      <use xlink:href="#ArialMT-4d"/>
      <use xlink:href="#ArialMT-53" transform="translate(83.300781 0)"/>
      <use xlink:href="#ArialMT-45" transform="translate(150 0)"/>
     </g>
    </g>
   </g>
   <g id="line2d_2">
    <path d="M 64.149823 143.952271 
L 112.849977 144.062423 
L 119.762257 144.325788 
L 125.731953 144.778533 
L 132.958427 145.575696 
L 141.755874 146.516078 
L 156.208823 147.833615 
L 159.979157 148.537634 
L 164.377881 149.600694 
L 178.83083 153.521073 
L 183.543748 154.948848 
L 186.999888 156.227293 
L 190.141833 157.629619 
L 193.283778 159.282969 
L 196.739918 161.368685 
L 201.138642 164.304535 
L 208.679311 169.36583 
L 211.821256 171.198624 
L 214.649007 172.58997 
L 217.162563 173.573416 
L 219.361925 174.213074 
L 221.561287 174.631816 
L 223.760649 174.821821 
L 225.96001 174.780612 
L 228.159372 174.509145 
L 230.358734 174.008383 
L 232.558096 173.274233 
L 234.757457 172.290957 
L 236.642625 171.224016 
L 238.527792 169.911253 
L 240.412959 168.297633 
L 241.983932 166.670301 
L 243.554905 164.73062 
L 245.125877 162.419709 
L 246.69685 159.676069 
L 248.267823 156.441522 
L 249.838795 152.668884 
L 251.409768 148.330483 
L 253.294935 142.379369 
L 255.180102 135.676387 
L 257.693659 125.802274 
L 262.092382 107.272888 
L 265.548522 93.073949 
L 268.062078 83.580584 
L 270.26144 76.041951 
L 272.460802 69.278907 
L 274.660164 63.289306 
L 276.545331 58.741926 
L 278.430498 54.696738 
L 280.315665 51.110324 
L 282.200833 47.937441 
L 284.400194 44.699261 
L 286.599556 41.897385 
L 288.798918 39.471911 
L 290.99828 37.369864 
L 293.197641 35.545117 
L 295.711198 33.748521 
L 298.224754 32.212136 
L 301.052505 30.742924 
L 304.19445 29.375642 
L 307.65059 28.13257 
L 311.420925 27.024895 
L 315.505454 26.05481 
L 320.218372 25.164946 
L 325.559679 24.381263 
L 331.84357 23.684027 
L 339.384239 23.075021 
L 348.810075 22.549978 
L 360.749467 22.124116 
L 376.459194 21.800755 
L 378.030167 21.778061 
L 378.030167 21.778061 
" clip-path="url(#p7e5b15ca33)" style="fill: none; stroke: #808080; stroke-width: 2; stroke-linecap: round"/>
   </g>
   <g id="line2d_3">
    <path d="M 64.149823 185.719875 
L 113.164171 185.830178 
L 120.076451 186.090015 
L 126.046147 186.536242 
L 132.958427 187.296027 
L 143.955236 188.518899 
L 154.952045 189.626381 
L 159.036574 190.317983 
L 163.435297 191.295695 
L 171.290161 193.330679 
L 181.344386 196.071636 
L 185.11472 197.351604 
L 188.256666 198.648186 
L 191.398611 200.197575 
L 194.540557 202.005012 
L 197.996697 204.250742 
L 203.338004 208.033004 
L 208.993505 211.974244 
L 212.135451 213.916603 
L 214.963202 215.414015 
L 217.476758 216.498349 
L 219.67612 217.231614 
L 221.875481 217.7488 
L 224.074843 218.041513 
L 226.274205 218.106183 
L 228.473567 217.942162 
L 230.672928 217.54848 
L 232.87229 216.91915 
L 235.071652 216.037129 
L 236.956819 215.054054 
L 238.841986 213.823543 
L 240.727154 212.292962 
L 242.298126 210.73824 
L 243.869099 208.877634 
L 245.440072 206.656302 
L 247.011044 204.017596 
L 248.582017 200.908854 
L 250.15299 197.288802 
L 251.723962 193.135592 
L 253.60913 187.456797 
L 255.808491 179.965335 
L 258.322048 170.532524 
L 267.119495 136.656786 
L 269.633051 128.306667 
L 271.832413 121.770755 
L 274.031775 115.967378 
L 276.231136 110.867494 
L 278.116304 107.016307 
L 280.001471 103.60266 
L 281.886638 100.583784 
L 284.086 97.504427 
L 286.285362 94.841712 
L 288.484723 92.538271 
L 290.684085 90.543318 
L 293.197641 88.584657 
L 295.711198 86.915066 
L 298.538949 85.324055 
L 301.366699 83.984506 
L 304.508645 82.737104 
L 307.964785 81.602049 
L 311.735119 80.58953 
L 316.133843 79.640908 
L 321.160955 78.791107 
L 327.130652 78.022315 
L 334.042931 77.365938 
L 342.526184 76.796331 
L 352.894604 76.331678 
L 366.404969 75.959627 
L 378.030167 75.765838 
L 378.030167 75.765838 
" clip-path="url(#p7e5b15ca33)" style="fill: none; stroke: #000000; stroke-width: 2; stroke-linecap: round"/>
   </g>
   <g id="patch_3">
    <path d="M 45.252344 285.374484 
L 45.252344 11.136797 
" style="fill: none; stroke: #262626; stroke-linejoin: miter; stroke-linecap: square"/>
   </g>
   <g id="patch_4">
    <path d="M 380.628637 285.374484 
L 380.628637 11.136797 
" style="fill: none; stroke: #262626; stroke-linejoin: miter; stroke-linecap: square"/>
   </g>
   <g id="patch_5">
    <path d="M 45.252344 285.374484 
L 380.628637 285.374484 
" style="fill: none; stroke: #262626; stroke-linejoin: miter; stroke-linecap: square"/>
   </g>
   <g id="patch_6">
    <path d="M 45.252344 11.136797 
L 380.628637 11.136797 
" style="fill: none; stroke: #262626; stroke-linejoin: miter; stroke-linecap: square"/>
   </g>
   <g id="PathCollection_1">
    <defs>
     <path id="m3f858659d4" d="M 0 3 
C 0.795609 3 1.55874 2.683901 2.12132 2.12132 
C 2.683901 1.55874 3 0.795609 3 0 
C 3 -0.795609 2.683901 -1.55874 2.12132 -2.12132 
C 1.55874 -2.683901 0.795609 -3 0 -3 
C -0.795609 -3 -1.55874 -2.683901 -2.12132 -2.12132 
C -2.683901 -1.55874 -3 -0.795609 -3 0 
C -3 0.795609 -2.683901 1.55874 -2.12132 2.12132 
C -1.55874 2.683901 -0.795609 3 0 3 
z
" style="stroke: #921c5b"/>
    </defs>
    <g clip-path="url(#p7e5b15ca33)">
     <use xlink:href="#m3f858659d4" x="64.149823" y="143.952271" style="fill: #921c5b; stroke: #921c5b"/>
    </g>
   </g>
   <g id="PathCollection_2">
    <g clip-path="url(#p7e5b15ca33)">
     <use xlink:href="#m3f858659d4" x="64.149823" y="185.719875" style="fill: #921c5b; stroke: #921c5b"/>
    </g>
   </g>
  </g>
  <g id="axes_2">
   <g id="patch_7">
    <path d="M 395.196051 285.374484 
L 730.572344 285.374484 
L 730.572344 11.136797 
L 395.196051 11.136797 
z
" style="fill: #ffffff"/>
   </g>
   <g id="line2d_4">
    <path d="M 395.196051 159.685578 
L 730.572344 159.685578 
" clip-path="url(#p40d5487d79)" style="fill: none; stroke-dasharray: 3.7,1.6; stroke-dashoffset: 0; stroke: #ffffff"/>
   </g>
   <g id="line2d_5">
    <path d="M 395.196051 255.777916 
L 730.572344 255.777916 
" clip-path="url(#p40d5487d79)" style="fill: none; stroke-dasharray: 3.7,1.6; stroke-dashoffset: 0; stroke: #ffffff"/>
   </g>
   <g id="line2d_6">
    <path d="M 395.196051 217.459994 
L 730.572344 217.459994 
" clip-path="url(#p40d5487d79)" style="fill: none; stroke-dasharray: 3.7,1.6; stroke-dashoffset: 0; stroke: #ffffff"/>
   </g>
   <g id="line2d_7">
    <path d="M 563.335936 285.374484 
L 563.335936 11.136797 
" clip-path="url(#p40d5487d79)" style="fill: none; stroke: #f47d57; stroke-opacity: 0.4; stroke-width: 1.5; stroke-linecap: round"/>
   </g>
   <g id="matplotlib.axis_3">
    <g id="xtick_7">
     <g id="text_15">
      <!-- $\mathdefault{10^{-5}}$ -->
      <g style="fill: #262626" transform="translate(403.20353 300.108234) scale(0.11 -0.11)">
       <use xlink:href="#ArialMT-31" transform="translate(0 0.879688)"/>
       <use xlink:href="#ArialMT-30" transform="translate(55.615234 0.879688)"/>
       <use xlink:href="#ArialMT-2212" transform="translate(112.972813 70.573438) scale(0.7)"/>
       <use xlink:href="#ArialMT-35" transform="translate(153.851719 70.573438) scale(0.7)"/>
      </g>
     </g>
    </g>
    <g id="xtick_8">
     <g id="text_16">
      <!-- $\mathdefault{10^{-4}}$ -->
      <g style="fill: #262626" transform="translate(465.979599 300.108234) scale(0.11 -0.11)">
       <use xlink:href="#ArialMT-31" transform="translate(0 0.201563)"/>
       <use xlink:href="#ArialMT-30" transform="translate(55.615234 0.201563)"/>
       <use xlink:href="#ArialMT-2212" transform="translate(112.972813 69.895313) scale(0.7)"/>
       <use xlink:href="#ArialMT-34" transform="translate(153.851719 69.895313) scale(0.7)"/>
      </g>
     </g>
    </g>
    <g id="xtick_9">
     <g id="text_17">
      <!-- $\mathdefault{10^{-3}}$ -->
      <g style="fill: #262626" transform="translate(528.755668 300.218234) scale(0.11 -0.11)">
       <use xlink:href="#ArialMT-31" transform="translate(0 0.99375)"/>
       <use xlink:href="#ArialMT-30" transform="translate(55.615234 0.99375)"/>
       <use xlink:href="#ArialMT-2212" transform="translate(112.972813 70.6875) scale(0.7)"/>
       <use xlink:href="#ArialMT-33" transform="translate(153.851719 70.6875) scale(0.7)"/>
      </g>
     </g>
    </g>
    <g id="xtick_10">
     <g id="text_18">
      <!-- $\mathdefault{10^{-2}}$ -->
      <g style="fill: #262626" transform="translate(591.531736 300.218234) scale(0.11 -0.11)">
       <use xlink:href="#ArialMT-31" transform="translate(0 0.99375)"/>
       <use xlink:href="#ArialMT-30" transform="translate(55.615234 0.99375)"/>
       <use xlink:href="#ArialMT-2212" transform="translate(112.972813 70.6875) scale(0.7)"/>
       <use xlink:href="#ArialMT-32" transform="translate(153.851719 70.6875) scale(0.7)"/>
      </g>
     </g>
    </g>
    <g id="xtick_11">
     <g id="text_19">
      <!-- $\mathdefault{10^{-1}}$ -->
      <g style="fill: #262626" transform="translate(654.307805 300.218234) scale(0.11 -0.11)">
       <use xlink:href="#ArialMT-31" transform="translate(0 0.99375)"/>
       <use xlink:href="#ArialMT-30" transform="translate(55.615234 0.99375)"/>
       <use xlink:href="#ArialMT-2212" transform="translate(112.972813 70.6875) scale(0.7)"/>
       <use xlink:href="#ArialMT-31" transform="translate(153.851719 70.6875) scale(0.7)"/>
      </g>
     </g>
    </g>
    <g id="xtick_12">
     <g id="text_20">
      <!-- $\mathdefault{10^{0}}$ -->
      <g style="fill: #262626" transform="translate(719.338874 300.218234) scale(0.11 -0.11)">
       <use xlink:href="#ArialMT-31" transform="translate(0 0.99375)"/>
       <use xlink:href="#ArialMT-30" transform="translate(55.615234 0.99375)"/>
       <use xlink:href="#ArialMT-30" transform="translate(112.972813 70.6875) scale(0.7)"/>
      </g>
     </g>
    </g>
    <g id="text_21">
     <!-- $T$ -->
     <g style="fill: #262626" transform="translate(559.784197 313.562297) scale(0.1 -0.1)">
      <use xlink:href="#DejaVuSans-Oblique-54" transform="translate(0 0.09375)"/>
     </g>
    </g>
   </g>
   <g id="matplotlib.axis_4">
    <g id="ytick_7"/>
    <g id="ytick_8"/>
    <g id="ytick_9"/>
    <g id="ytick_10"/>
    <g id="ytick_11"/>
    <g id="ytick_12"/>
   </g>
   <g id="line2d_8">
    <path d="M 414.09353 179.582004 
L 460.594322 179.691155 
L 467.192407 179.956896 
L 472.21952 180.381241 
L 476.618243 180.98059 
L 480.388578 181.707871 
L 483.844718 182.580436 
L 487.300858 183.676973 
L 490.756998 185.01288 
L 494.527332 186.730353 
L 499.24025 189.151424 
L 506.466725 192.882096 
L 510.237059 194.550446 
L 513.693199 195.820195 
L 517.149339 196.837418 
L 520.919673 197.696199 
L 525.318397 198.455371 
L 533.801649 199.620571 
L 540.399735 200.643838 
L 547.626209 202.022641 
L 553.595905 203.092731 
L 557.052045 203.478708 
L 559.879796 203.569032 
L 562.393352 203.433523 
L 564.906909 203.069132 
L 567.420465 202.465261 
L 569.934021 201.625658 
L 572.761772 200.420251 
L 575.589523 198.974329 
L 579.045663 196.939413 
L 582.815997 194.438166 
L 586.272137 191.871792 
L 589.099888 189.496132 
L 591.29925 187.391865 
L 593.498612 184.969573 
L 595.383779 182.557718 
L 597.268946 179.75198 
L 598.839919 177.051115 
L 600.410891 173.968076 
L 601.981864 170.459105 
L 603.867031 165.640768 
L 605.752199 160.138119 
L 607.637366 153.973706 
L 609.836727 146.049545 
L 612.978673 133.771305 
L 619.576758 107.63706 
L 622.090314 98.617832 
L 624.603871 90.445022 
L 626.803233 84.040966 
L 629.002594 78.330042 
L 631.201956 73.276996 
L 633.401318 68.829391 
L 635.60068 64.92702 
L 637.800041 61.508291 
L 639.999403 58.514157 
L 642.198765 55.890255 
L 644.398127 53.587843 
L 646.911683 51.295355 
L 649.425239 49.311624 
L 651.938796 47.58994 
L 654.766546 45.917641 
L 657.908492 44.334299 
L 661.364632 42.867695 
L 665.134966 41.534769 
L 669.219495 40.343272 
L 673.618219 39.293722 
L 678.645331 38.327103 
L 684.300833 37.46894 
L 690.898918 36.69904 
L 698.753782 36.019992 
L 708.179618 35.444451 
L 719.804816 34.973998 
L 727.973874 34.749234 
L 727.973874 34.749234 
" clip-path="url(#p40d5487d79)" style="fill: none; stroke: #808080; stroke-width: 2; stroke-linecap: round"/>
   </g>
   <g id="line2d_9">
    <path d="M 414.09353 214.650833 
L 460.908517 214.761514 
L 467.506602 215.025265 
L 472.533714 215.441069 
L 476.932438 216.022327 
L 481.016967 216.789129 
L 484.787301 217.726742 
L 488.243441 218.805062 
L 491.699581 220.10309 
L 495.469916 221.750439 
L 500.811223 224.352493 
L 507.409308 227.522428 
L 511.179643 229.089316 
L 514.949977 230.407358 
L 518.720312 231.483071 
L 523.119035 232.491182 
L 529.71712 233.728027 
L 537.571984 235.240392 
L 542.913291 236.512925 
L 549.825571 238.431372 
L 555.166878 239.831007 
L 558.308823 240.445331 
L 561.136574 240.777225 
L 563.65013 240.853513 
L 566.163687 240.699533 
L 568.677243 240.305899 
L 571.190799 239.676643 
L 573.704356 238.827022 
L 576.532106 237.636024 
L 579.674052 236.06075 
L 583.130192 234.05793 
L 586.272137 231.984277 
L 589.099888 229.855107 
L 591.613444 227.667514 
L 593.812806 225.434588 
L 595.697973 223.205693 
L 597.583141 220.608341 
L 599.468308 217.562429 
L 601.03928 214.624505 
L 602.610253 211.280842 
L 604.49542 206.694719 
L 606.380588 201.470363 
L 608.579949 194.613917 
L 611.093506 185.949822 
L 615.178035 170.845116 
L 619.262564 155.938067 
L 622.090314 146.458686 
L 624.603871 138.857072 
L 626.803233 132.899666 
L 629.002594 127.588066 
L 631.201956 122.890462 
L 633.401318 118.758432 
L 635.60068 115.135918 
L 637.800041 111.965349 
L 639.999403 109.191416 
L 642.198765 106.763139 
L 644.398127 104.63479 
L 646.911683 102.518211 
L 649.425239 100.689102 
L 652.25299 98.920725 
L 655.080741 97.409106 
L 658.222686 95.979291 
L 661.678826 94.656235 
L 665.449161 93.455009 
L 669.53369 92.382338 
L 674.246608 91.378098 
L 679.587915 90.474535 
L 685.871806 89.652706 
L 693.09828 88.944691 
L 701.581533 88.34383 
L 711.949952 87.839931 
L 725.146123 87.43366 
L 727.973874 87.370314 
L 727.973874 87.370314 
" clip-path="url(#p40d5487d79)" style="fill: none; stroke: #000000; stroke-width: 2; stroke-linecap: round"/>
   </g>
   <g id="patch_8">
    <path d="M 395.196051 285.374484 
L 395.196051 11.136797 
" style="fill: none; stroke: #262626; stroke-linejoin: miter; stroke-linecap: square"/>
   </g>
   <g id="patch_9">
    <path d="M 730.572344 285.374484 
L 730.572344 11.136797 
" style="fill: none; stroke: #262626; stroke-linejoin: miter; stroke-linecap: square"/>
   </g>
   <g id="patch_10">
    <path d="M 395.196051 285.374484 
L 730.572344 285.374484 
" style="fill: none; stroke: #262626; stroke-linejoin: miter; stroke-linecap: square"/>
   </g>
   <g id="patch_11">
    <path d="M 395.196051 11.136797 
L 730.572344 11.136797 
" style="fill: none; stroke: #262626; stroke-linejoin: miter; stroke-linecap: square"/>
   </g>
   <g id="PathCollection_3">
    <g clip-path="url(#p40d5487d79)">
     <use xlink:href="#m3f858659d4" x="414.09353" y="179.582004" style="fill: #921c5b; stroke: #921c5b"/>
    </g>
   </g>
   <g id="PathCollection_4">
    <g clip-path="url(#p40d5487d79)">
     <use xlink:href="#m3f858659d4" x="414.09353" y="214.650833" style="fill: #921c5b; stroke: #921c5b"/>
    </g>
   </g>
  </g>
 </g>
 <defs>
  <clipPath id="p7e5b15ca33">
   <rect x="45.252344" y="11.136797" width="335.376293" height="274.237687"/>
  </clipPath>
  <clipPath id="p40d5487d79">
   <rect x="395.196051" y="11.136797" width="335.376293" height="274.237687"/>
  </clipPath>
 </defs>
</svg>
