<?xml version="1.0" encoding="utf-8" standalone="no"?>
<!DOCTYPE svg PUBLIC "-//W3C//DTD SVG 1.1//EN"
  "http://www.w3.org/Graphics/SVG/1.1/DTD/svg11.dtd">
<svg xmlns:xlink="http://www.w3.org/1999/xlink" width="468pt" height="360pt" viewBox="0 0 468 360" xmlns="http://www.w3.org/2000/svg" version="1.1">
 <metadata>
  <rdf:RDF xmlns:dc="http://purl.org/dc/elements/1.1/" xmlns:cc="http://creativecommons.org/ns#" xmlns:rdf="http://www.w3.org/1999/02/22-rdf-syntax-ns#">
   <cc:Work>
    <dc:type rdf:resource="http://purl.org/dc/dcmitype/StillImage"/>
    <dc:date>2025-06-24T14:17:10.212767</dc:date>
    <dc:format>image/svg+xml</dc:format>
    <dc:creator>
     <cc:Agent>
      <dc:title>Matplotlib v3.10.1, https://matplotlib.org/</dc:title>
     </cc:Agent>
    </dc:creator>
   </cc:Work>
  </rdf:RDF>
 </metadata>
 <defs>
  <style type="text/css">*{stroke-linejoin: round; stroke-linecap: butt}</style>
 </defs>
 <g id="figure_1">
  <g id="patch_1">
   <path d="M 0 360 
L 468 360 
L 468 0 
L 0 0 
z
" style="fill: #ffffff"/>
  </g>
  <g id="axes_1">
   <g id="patch_2">
    <path d="M 55.2 317.437687 
L 352.341 317.437687 
L 352.341 13.79983 
L 55.2 13.79983 
z
" style="fill: #ffffff"/>
   </g>
   <g id="line2d_1">
    <path d="M 197.145735 317.437687 
L 197.145735 13.79983 
" clip-path="url(#p49d408c69d)" style="fill: none; stroke: #f47d57; stroke-opacity: 0.4; stroke-width: 1.5; stroke-linecap: round"/>
   </g>
   <g id="matplotlib.axis_1">
    <g id="xtick_1">
     <g id="text_1">
      <!-- $\mathdefault{10^{-5}}$ -->
      <g style="fill: #262626" transform="translate(57.816409 332.171437) scale(0.11 -0.11)">
       <defs>
        <path id="ArialMT-31" d="M 2384 0 
L 1822 0 
L 1822 3584 
Q 1619 3391 1289 3197 
Q 959 3003 697 2906 
L 697 3450 
Q 1169 3672 1522 3987 
Q 1875 4303 2022 4600 
L 2384 4600 
L 2384 0 
z
" transform="scale(0.015625)"/>
        <path id="ArialMT-30" d="M 266 2259 
Q 266 3072 433 3567 
Q 600 4063 929 4331 
Q 1259 4600 1759 4600 
Q 2128 4600 2406 4451 
Q 2684 4303 2865 4023 
Q 3047 3744 3150 3342 
Q 3253 2941 3253 2259 
Q 3253 1453 3087 958 
Q 2922 463 2592 192 
Q 2263 -78 1759 -78 
Q 1097 -78 719 397 
Q 266 969 266 2259 
z
M 844 2259 
Q 844 1131 1108 757 
Q 1372 384 1759 384 
Q 2147 384 2411 759 
Q 2675 1134 2675 2259 
Q 2675 3391 2411 3762 
Q 2147 4134 1753 4134 
Q 1366 4134 1134 3806 
Q 844 3388 844 2259 
z
" transform="scale(0.015625)"/>
        <path id="ArialMT-2212" d="M 3381 1997 
L 356 1997 
L 356 2522 
L 3381 2522 
L 3381 1997 
z
" transform="scale(0.015625)"/>
        <path id="ArialMT-35" d="M 266 1200 
L 856 1250 
Q 922 819 1161 601 
Q 1400 384 1738 384 
Q 2144 384 2425 690 
Q 2706 997 2706 1503 
Q 2706 1984 2436 2262 
Q 2166 2541 1728 2541 
Q 1456 2541 1237 2417 
Q 1019 2294 894 2097 
L 366 2166 
L 809 4519 
L 3088 4519 
L 3088 3981 
L 1259 3981 
L 1013 2750 
Q 1425 3038 1878 3038 
Q 2478 3038 2890 2622 
Q 3303 2206 3303 1553 
Q 3303 931 2941 478 
Q 2500 -78 1738 -78 
Q 1113 -78 717 272 
Q 322 622 266 1200 
z
" transform="scale(0.015625)"/>
       </defs>
       <use xlink:href="#ArialMT-31" transform="translate(0 0.879688)"/>
       <use xlink:href="#ArialMT-30" transform="translate(55.615234 0.879688)"/>
       <use xlink:href="#ArialMT-2212" transform="translate(112.972813 70.573438) scale(0.7)"/>
       <use xlink:href="#ArialMT-35" transform="translate(153.851719 70.573438) scale(0.7)"/>
      </g>
     </g>
    </g>
    <g id="xtick_2">
     <g id="text_2">
      <!-- $\mathdefault{10^{-4}}$ -->
      <g style="fill: #262626" transform="translate(111.842045 332.171437) scale(0.11 -0.11)">
       <defs>
        <path id="ArialMT-34" d="M 2069 0 
L 2069 1097 
L 81 1097 
L 81 1613 
L 2172 4581 
L 2631 4581 
L 2631 1613 
L 3250 1613 
L 3250 1097 
L 2631 1097 
L 2631 0 
L 2069 0 
z
M 2069 1613 
L 2069 3678 
L 634 1613 
L 2069 1613 
z
" transform="scale(0.015625)"/>
       </defs>
       <use xlink:href="#ArialMT-31" transform="translate(0 0.201563)"/>
       <use xlink:href="#ArialMT-30" transform="translate(55.615234 0.201563)"/>
       <use xlink:href="#ArialMT-2212" transform="translate(112.972813 69.895313) scale(0.7)"/>
       <use xlink:href="#ArialMT-34" transform="translate(153.851719 69.895313) scale(0.7)"/>
      </g>
     </g>
    </g>
    <g id="xtick_3">
     <g id="text_3">
      <!-- $\mathdefault{10^{-3}}$ -->
      <g style="fill: #262626" transform="translate(165.867682 332.281437) scale(0.11 -0.11)">
       <defs>
        <path id="ArialMT-33" d="M 269 1209 
L 831 1284 
Q 928 806 1161 595 
Q 1394 384 1728 384 
Q 2125 384 2398 659 
Q 2672 934 2672 1341 
Q 2672 1728 2419 1979 
Q 2166 2231 1775 2231 
Q 1616 2231 1378 2169 
L 1441 2663 
Q 1497 2656 1531 2656 
Q 1891 2656 2178 2843 
Q 2466 3031 2466 3422 
Q 2466 3731 2256 3934 
Q 2047 4138 1716 4138 
Q 1388 4138 1169 3931 
Q 950 3725 888 3313 
L 325 3413 
Q 428 3978 793 4289 
Q 1159 4600 1703 4600 
Q 2078 4600 2393 4439 
Q 2709 4278 2876 4000 
Q 3044 3722 3044 3409 
Q 3044 3113 2884 2869 
Q 2725 2625 2413 2481 
Q 2819 2388 3044 2092 
Q 3269 1797 3269 1353 
Q 3269 753 2831 336 
Q 2394 -81 1725 -81 
Q 1122 -81 723 278 
Q 325 638 269 1209 
z
" transform="scale(0.015625)"/>
       </defs>
       <use xlink:href="#ArialMT-31" transform="translate(0 0.99375)"/>
       <use xlink:href="#ArialMT-30" transform="translate(55.615234 0.99375)"/>
       <use xlink:href="#ArialMT-2212" transform="translate(112.972813 70.6875) scale(0.7)"/>
       <use xlink:href="#ArialMT-33" transform="translate(153.851719 70.6875) scale(0.7)"/>
      </g>
     </g>
    </g>
    <g id="xtick_4">
     <g id="text_4">
      <!-- $\mathdefault{10^{-2}}$ -->
      <g style="fill: #262626" transform="translate(219.893318 332.281437) scale(0.11 -0.11)">
       <defs>
        <path id="ArialMT-32" d="M 3222 541 
L 3222 0 
L 194 0 
Q 188 203 259 391 
Q 375 700 629 1000 
Q 884 1300 1366 1694 
Q 2113 2306 2375 2664 
Q 2638 3022 2638 3341 
Q 2638 3675 2398 3904 
Q 2159 4134 1775 4134 
Q 1369 4134 1125 3890 
Q 881 3647 878 3216 
L 300 3275 
Q 359 3922 746 4261 
Q 1134 4600 1788 4600 
Q 2447 4600 2831 4234 
Q 3216 3869 3216 3328 
Q 3216 3053 3103 2787 
Q 2991 2522 2730 2228 
Q 2469 1934 1863 1422 
Q 1356 997 1212 845 
Q 1069 694 975 541 
L 3222 541 
z
" transform="scale(0.015625)"/>
       </defs>
       <use xlink:href="#ArialMT-31" transform="translate(0 0.99375)"/>
       <use xlink:href="#ArialMT-30" transform="translate(55.615234 0.99375)"/>
       <use xlink:href="#ArialMT-2212" transform="translate(112.972813 70.6875) scale(0.7)"/>
       <use xlink:href="#ArialMT-32" transform="translate(153.851719 70.6875) scale(0.7)"/>
      </g>
     </g>
    </g>
    <g id="xtick_5">
     <g id="text_5">
      <!-- $\mathdefault{10^{-1}}$ -->
      <g style="fill: #262626" transform="translate(273.918955 332.281437) scale(0.11 -0.11)">
       <use xlink:href="#ArialMT-31" transform="translate(0 0.99375)"/>
       <use xlink:href="#ArialMT-30" transform="translate(55.615234 0.99375)"/>
       <use xlink:href="#ArialMT-2212" transform="translate(112.972813 70.6875) scale(0.7)"/>
       <use xlink:href="#ArialMT-31" transform="translate(153.851719 70.6875) scale(0.7)"/>
      </g>
     </g>
    </g>
    <g id="xtick_6">
     <g id="text_6">
      <!-- $\mathdefault{10^{0}}$ -->
      <g style="fill: #262626" transform="translate(330.199591 332.281437) scale(0.11 -0.11)">
       <use xlink:href="#ArialMT-31" transform="translate(0 0.99375)"/>
       <use xlink:href="#ArialMT-30" transform="translate(55.615234 0.99375)"/>
       <use xlink:href="#ArialMT-30" transform="translate(112.972813 70.6875) scale(0.7)"/>
      </g>
     </g>
    </g>
    <g id="xtick_7"/>
    <g id="xtick_8"/>
    <g id="xtick_9"/>
    <g id="xtick_10"/>
    <g id="xtick_11"/>
    <g id="xtick_12"/>
    <g id="xtick_13"/>
    <g id="xtick_14"/>
    <g id="xtick_15"/>
    <g id="xtick_16"/>
    <g id="xtick_17"/>
    <g id="xtick_18"/>
    <g id="xtick_19"/>
    <g id="xtick_20"/>
    <g id="xtick_21"/>
    <g id="xtick_22"/>
    <g id="xtick_23"/>
    <g id="xtick_24"/>
    <g id="xtick_25"/>
    <g id="xtick_26"/>
    <g id="xtick_27"/>
    <g id="xtick_28"/>
    <g id="xtick_29"/>
    <g id="xtick_30"/>
    <g id="xtick_31"/>
    <g id="xtick_32"/>
    <g id="xtick_33"/>
    <g id="xtick_34"/>
    <g id="xtick_35"/>
    <g id="xtick_36"/>
    <g id="xtick_37"/>
    <g id="xtick_38"/>
    <g id="xtick_39"/>
    <g id="xtick_40"/>
    <g id="xtick_41"/>
    <g id="xtick_42"/>
    <g id="xtick_43"/>
    <g id="xtick_44"/>
    <g id="xtick_45"/>
    <g id="xtick_46"/>
    <g id="xtick_47"/>
    <g id="xtick_48"/>
    <g id="xtick_49"/>
    <g id="xtick_50"/>
    <g id="text_7">
     <!-- $T$ -->
     <g style="fill: #262626" transform="translate(200.6705 345.6255) scale(0.1 -0.1)">
      <defs>
       <path id="DejaVuSans-Oblique-54" d="M 378 4666 
L 4325 4666 
L 4225 4134 
L 2559 4134 
L 1759 0 
L 1125 0 
L 1925 4134 
L 275 4134 
L 378 4666 
z
" transform="scale(0.015625)"/>
      </defs>
      <use xlink:href="#DejaVuSans-Oblique-54" transform="translate(0 0.09375)"/>
     </g>
    </g>
   </g>
   <g id="matplotlib.axis_2">
    <g id="ytick_1">
     <g id="text_8">
      <!-- 0.050 -->
      <g style="fill: #262626" transform="translate(24.175938 277.785837) scale(0.11 -0.11)">
       <defs>
        <path id="ArialMT-2e" d="M 581 0 
L 581 641 
L 1222 641 
L 1222 0 
L 581 0 
z
" transform="scale(0.015625)"/>
       </defs>
       <use xlink:href="#ArialMT-30"/>
       <use xlink:href="#ArialMT-2e" transform="translate(55.615234 0)"/>
       <use xlink:href="#ArialMT-30" transform="translate(83.398438 0)"/>
       <use xlink:href="#ArialMT-35" transform="translate(139.013672 0)"/>
       <use xlink:href="#ArialMT-30" transform="translate(194.628906 0)"/>
      </g>
     </g>
    </g>
    <g id="ytick_2">
     <g id="text_9">
      <!-- 0.075 -->
      <g style="fill: #262626" transform="translate(24.175938 245.4358) scale(0.11 -0.11)">
       <defs>
        <path id="ArialMT-37" d="M 303 3981 
L 303 4522 
L 3269 4522 
L 3269 4084 
Q 2831 3619 2401 2847 
Q 1972 2075 1738 1259 
Q 1569 684 1522 0 
L 944 0 
Q 953 541 1156 1306 
Q 1359 2072 1739 2783 
Q 2119 3494 2547 3981 
L 303 3981 
z
" transform="scale(0.015625)"/>
       </defs>
       <use xlink:href="#ArialMT-30"/>
       <use xlink:href="#ArialMT-2e" transform="translate(55.615234 0)"/>
       <use xlink:href="#ArialMT-30" transform="translate(83.398438 0)"/>
       <use xlink:href="#ArialMT-37" transform="translate(139.013672 0)"/>
       <use xlink:href="#ArialMT-35" transform="translate(194.628906 0)"/>
      </g>
     </g>
    </g>
    <g id="ytick_3">
     <g id="text_10">
      <!-- 0.100 -->
      <g style="fill: #262626" transform="translate(24.175938 213.085763) scale(0.11 -0.11)">
       <use xlink:href="#ArialMT-30"/>
       <use xlink:href="#ArialMT-2e" transform="translate(55.615234 0)"/>
       <use xlink:href="#ArialMT-31" transform="translate(83.398438 0)"/>
       <use xlink:href="#ArialMT-30" transform="translate(139.013672 0)"/>
       <use xlink:href="#ArialMT-30" transform="translate(194.628906 0)"/>
      </g>
     </g>
    </g>
    <g id="ytick_4">
     <g id="text_11">
      <!-- 0.125 -->
      <g style="fill: #262626" transform="translate(24.175938 180.735726) scale(0.11 -0.11)">
       <use xlink:href="#ArialMT-30"/>
       <use xlink:href="#ArialMT-2e" transform="translate(55.615234 0)"/>
       <use xlink:href="#ArialMT-31" transform="translate(83.398438 0)"/>
       <use xlink:href="#ArialMT-32" transform="translate(139.013672 0)"/>
       <use xlink:href="#ArialMT-35" transform="translate(194.628906 0)"/>
      </g>
     </g>
    </g>
    <g id="ytick_5">
     <g id="text_12">
      <!-- 0.150 -->
      <g style="fill: #262626" transform="translate(24.175938 148.385689) scale(0.11 -0.11)">
       <use xlink:href="#ArialMT-30"/>
       <use xlink:href="#ArialMT-2e" transform="translate(55.615234 0)"/>
       <use xlink:href="#ArialMT-31" transform="translate(83.398438 0)"/>
       <use xlink:href="#ArialMT-35" transform="translate(139.013672 0)"/>
       <use xlink:href="#ArialMT-30" transform="translate(194.628906 0)"/>
      </g>
     </g>
    </g>
    <g id="ytick_6">
     <g id="text_13">
      <!-- 0.175 -->
      <g style="fill: #262626" transform="translate(24.175938 116.035652) scale(0.11 -0.11)">
       <use xlink:href="#ArialMT-30"/>
       <use xlink:href="#ArialMT-2e" transform="translate(55.615234 0)"/>
       <use xlink:href="#ArialMT-31" transform="translate(83.398438 0)"/>
       <use xlink:href="#ArialMT-37" transform="translate(139.013672 0)"/>
       <use xlink:href="#ArialMT-35" transform="translate(194.628906 0)"/>
      </g>
     </g>
    </g>
    <g id="ytick_7">
     <g id="text_14">
      <!-- 0.200 -->
      <g style="fill: #262626" transform="translate(24.175938 83.685614) scale(0.11 -0.11)">
       <use xlink:href="#ArialMT-30"/>
       <use xlink:href="#ArialMT-2e" transform="translate(55.615234 0)"/>
       <use xlink:href="#ArialMT-32" transform="translate(83.398438 0)"/>
       <use xlink:href="#ArialMT-30" transform="translate(139.013672 0)"/>
       <use xlink:href="#ArialMT-30" transform="translate(194.628906 0)"/>
      </g>
     </g>
    </g>
    <g id="ytick_8">
     <g id="text_15">
      <!-- 0.225 -->
      <g style="fill: #262626" transform="translate(24.175938 51.335577) scale(0.11 -0.11)">
       <use xlink:href="#ArialMT-30"/>
       <use xlink:href="#ArialMT-2e" transform="translate(55.615234 0)"/>
       <use xlink:href="#ArialMT-32" transform="translate(83.398438 0)"/>
       <use xlink:href="#ArialMT-32" transform="translate(139.013672 0)"/>
       <use xlink:href="#ArialMT-35" transform="translate(194.628906 0)"/>
      </g>
     </g>
    </g>
    <g id="ytick_9">
     <g id="text_16">
      <!-- 0.250 -->
      <g style="fill: #262626" transform="translate(24.175938 18.98554) scale(0.11 -0.11)">
       <use xlink:href="#ArialMT-30"/>
       <use xlink:href="#ArialMT-2e" transform="translate(55.615234 0)"/>
       <use xlink:href="#ArialMT-32" transform="translate(83.398438 0)"/>
       <use xlink:href="#ArialMT-35" transform="translate(139.013672 0)"/>
       <use xlink:href="#ArialMT-30" transform="translate(194.628906 0)"/>
      </g>
     </g>
    </g>
    <g id="text_17">
     <!-- MSE -->
     <g style="fill: #262626" transform="translate(18.188438 176.453915) rotate(-90) scale(0.1 -0.1)">
      <defs>
       <path id="ArialMT-4d" d="M 475 0 
L 475 4581 
L 1388 4581 
L 2472 1338 
Q 2622 884 2691 659 
Q 2769 909 2934 1394 
L 4031 4581 
L 4847 4581 
L 4847 0 
L 4263 0 
L 4263 3834 
L 2931 0 
L 2384 0 
L 1059 3900 
L 1059 0 
L 475 0 
z
" transform="scale(0.015625)"/>
       <path id="ArialMT-53" d="M 288 1472 
L 859 1522 
Q 900 1178 1048 958 
Q 1197 738 1509 602 
Q 1822 466 2213 466 
Q 2559 466 2825 569 
Q 3091 672 3220 851 
Q 3350 1031 3350 1244 
Q 3350 1459 3225 1620 
Q 3100 1781 2813 1891 
Q 2628 1963 1997 2114 
Q 1366 2266 1113 2400 
Q 784 2572 623 2826 
Q 463 3081 463 3397 
Q 463 3744 659 4045 
Q 856 4347 1234 4503 
Q 1613 4659 2075 4659 
Q 2584 4659 2973 4495 
Q 3363 4331 3572 4012 
Q 3781 3694 3797 3291 
L 3216 3247 
Q 3169 3681 2898 3903 
Q 2628 4125 2100 4125 
Q 1550 4125 1298 3923 
Q 1047 3722 1047 3438 
Q 1047 3191 1225 3031 
Q 1400 2872 2139 2705 
Q 2878 2538 3153 2413 
Q 3553 2228 3743 1945 
Q 3934 1663 3934 1294 
Q 3934 928 3725 604 
Q 3516 281 3123 101 
Q 2731 -78 2241 -78 
Q 1619 -78 1198 103 
Q 778 284 539 648 
Q 300 1013 288 1472 
z
" transform="scale(0.015625)"/>
       <path id="ArialMT-45" d="M 506 0 
L 506 4581 
L 3819 4581 
L 3819 4041 
L 1113 4041 
L 1113 2638 
L 3647 2638 
L 3647 2100 
L 1113 2100 
L 1113 541 
L 3925 541 
L 3925 0 
L 506 0 
z
" transform="scale(0.015625)"/>
      </defs>
      <use xlink:href="#ArialMT-4d"/>
      <use xlink:href="#ArialMT-53" transform="translate(83.300781 0)"/>
      <use xlink:href="#ArialMT-45" transform="translate(150 0)"/>
     </g>
    </g>
   </g>
   <g id="line2d_2">
    <path d="M 55.2 190.282083 
L 352.341 190.282083 
" clip-path="url(#p49d408c69d)" style="fill: none; stroke-dasharray: 0.8,1.32; stroke-dashoffset: 0; stroke: #221331; stroke-width: 0.8"/>
   </g>
   <g id="line2d_3">
    <path d="M 55.2 303.635967 
L 352.341 303.635967 
" clip-path="url(#p49d408c69d)" style="fill: none; stroke-dasharray: 0.8,1.32; stroke-dashoffset: 0; stroke: #221331; stroke-width: 0.8"/>
   </g>
   <g id="line2d_4">
    <path d="M 55.2 258.434806 
L 352.341 258.434806 
" clip-path="url(#p49d408c69d)" style="fill: none; stroke-dasharray: 0.8,1.32; stroke-dashoffset: 0; stroke: #221331; stroke-width: 0.8"/>
   </g>
   <g id="line2d_5">
    <path d="M 68.706409 220.993051 
L 110.077392 221.10039 
L 115.755762 221.352214 
L 120.622937 221.791765 
L 125.490111 222.458956 
L 139.550837 224.557077 
L 145.770005 225.402184 
L 149.014787 226.071851 
L 152.25957 226.963087 
L 156.585948 228.412872 
L 168.483485 232.759631 
L 171.728268 234.176542 
L 174.432254 235.597979 
L 176.865841 237.118876 
L 179.299428 238.888956 
L 182.003414 241.134368 
L 185.248197 244.135479 
L 194.982546 253.374572 
L 197.416133 255.275717 
L 199.579322 256.697788 
L 201.472112 257.70143 
L 203.364902 258.458804 
L 205.257692 258.956257 
L 206.880084 259.170103 
L 208.502475 259.185949 
L 210.124867 259.003588 
L 211.747258 258.62228 
L 213.36965 258.038128 
L 214.992041 257.240822 
L 216.614433 256.209892 
L 218.236824 254.910788 
L 219.859216 253.291287 
L 221.211208 251.645393 
L 222.563201 249.674466 
L 223.915194 247.317429 
L 225.267187 244.508061 
L 226.61918 241.180476 
L 227.971173 237.276802 
L 229.323166 232.756391 
L 230.945557 226.500268 
L 232.567949 219.378441 
L 234.731137 208.749959 
L 237.97592 191.3657 
L 242.031899 169.784254 
L 244.465486 158.057731 
L 246.628675 148.754339 
L 248.521465 141.540056 
L 250.414255 135.174788 
L 252.307045 129.606096 
L 254.199835 124.762145 
L 256.092625 120.563539 
L 257.985415 116.931021 
L 259.878205 113.78999 
L 261.770995 111.072771 
L 263.663786 108.719453 
L 265.826974 106.408949 
L 267.990163 104.439442 
L 270.153351 102.755443 
L 272.586939 101.145107 
L 275.290925 99.646301 
L 277.99491 98.396426 
L 280.969295 97.253541 
L 284.484476 96.152293 
L 288.270056 95.202479 
L 292.596434 94.346184 
L 297.734007 93.566408 
L 303.682775 92.896237 
L 310.983537 92.310893 
L 319.90669 91.830472 
L 331.263431 91.450513 
L 338.834591 91.287421 
L 338.834591 91.287421 
" clip-path="url(#p49d408c69d)" style="fill: none; stroke: #d3d3d3; stroke-width: 1.5; stroke-linecap: round"/>
   </g>
   <g id="line2d_6">
    <path d="M 68.706409 171.722524 
L 109.806993 171.829508 
L 115.485363 172.084461 
L 120.352538 172.530792 
L 125.490111 173.245508 
L 136.035656 174.809158 
L 147.392396 176.188418 
L 150.36678 176.899699 
L 153.611563 177.910432 
L 158.749136 179.795239 
L 171.45787 184.69447 
L 174.161855 186.052858 
L 176.595443 187.502412 
L 179.02903 189.191321 
L 181.733016 191.338936 
L 184.977799 194.215782 
L 194.441749 202.820694 
L 196.875336 204.633016 
L 199.038525 205.974933 
L 200.931315 206.906024 
L 202.824105 207.587484 
L 204.716895 208.004993 
L 206.339287 208.147082 
L 207.961678 208.088714 
L 209.584069 207.830783 
L 211.206461 207.374238 
L 212.828852 206.717377 
L 214.451244 205.852401 
L 216.073635 204.761392 
L 217.696027 203.412009 
L 219.318418 201.753435 
L 220.670411 200.083609 
L 222.022404 198.095494 
L 223.374397 195.725533 
L 224.72639 192.903202 
L 226.078383 189.556107 
L 227.430376 185.617433 
L 228.782369 181.035319 
L 230.40476 174.651912 
L 232.027152 167.323948 
L 233.919942 157.718885 
L 236.353529 144.162937 
L 242.843095 107.386424 
L 245.006284 96.585002 
L 247.169472 86.941218 
L 249.062262 79.488242 
L 250.955052 72.925293 
L 252.847842 67.189868 
L 254.740632 62.202915 
L 256.633422 57.879975 
L 258.526213 54.138254 
L 260.419003 50.900633 
L 262.311793 48.097596 
L 264.204583 45.667827 
L 266.367771 43.279986 
L 268.53096 41.24254 
L 270.694149 39.498839 
L 273.127736 37.829945 
L 275.561323 36.418312 
L 278.265309 35.097552 
L 281.239693 33.889755 
L 284.484476 32.806874 
L 288.270056 31.78705 
L 292.596434 30.868606 
L 297.463608 30.071627 
L 303.141978 29.372754 
L 309.901943 28.770124 
L 318.284299 28.256746 
L 328.829843 27.844578 
L 338.834591 27.601551 
L 338.834591 27.601551 
" clip-path="url(#p49d408c69d)" style="fill: none; stroke-dasharray: 3.7,1.6; stroke-dashoffset: 0; stroke: #d3d3d3"/>
   </g>
   <g id="line2d_7">
    <path d="M 68.706409 255.121021 
L 108.184602 255.22792 
L 113.592573 255.479215 
L 117.918951 255.90434 
L 121.434132 256.462545 
L 124.678915 257.190728 
L 127.6533 258.070411 
L 130.627684 259.182314 
L 133.602068 260.548461 
L 136.576453 262.171424 
L 140.091634 264.37264 
L 150.907578 271.41712 
L 153.881962 272.968049 
L 156.856346 274.269253 
L 160.101129 275.432455 
L 163.886709 276.536228 
L 178.217834 280.439686 
L 182.81461 282.121333 
L 189.844973 284.738828 
L 192.548959 285.488946 
L 194.712148 285.878539 
L 196.875336 286.032792 
L 198.768126 285.949989 
L 200.660916 285.652199 
L 202.553706 285.13813 
L 204.716895 284.295663 
L 206.880084 283.202529 
L 209.313671 281.708409 
L 212.017657 279.764741 
L 214.721643 277.549333 
L 217.425628 275.038987 
L 219.588817 272.754388 
L 221.481607 270.475954 
L 223.374397 267.841916 
L 224.996789 265.212633 
L 226.61918 262.148706 
L 228.241572 258.555642 
L 229.863963 254.340686 
L 231.486354 249.425938 
L 233.108746 243.764452 
L 235.001536 236.218508 
L 237.164725 226.484987 
L 239.86871 213.137265 
L 246.087878 182.017986 
L 248.521465 171.202105 
L 250.684654 162.605745 
L 252.577444 155.907468 
L 254.470234 149.958152 
L 256.363024 144.710347 
L 258.255814 140.101982 
L 260.148604 136.065459 
L 262.041394 132.533596 
L 263.934184 129.443133 
L 265.826974 126.736513 
L 267.990163 124.047878 
L 270.153351 121.727665 
L 272.31654 119.71962 
L 274.750127 117.775038 
L 277.183715 116.109832 
L 279.8877 114.531829 
L 282.862085 113.068786 
L 286.106868 111.737792 
L 289.622049 110.546864 
L 293.407629 109.496835 
L 297.734007 108.52891 
L 302.601181 107.668857 
L 308.279551 106.89665 
L 315.039516 106.215075 
L 323.151473 105.637018 
L 332.885822 105.174432 
L 338.834591 104.976467 
L 338.834591 104.976467 
" clip-path="url(#p49d408c69d)" style="fill: none; stroke: #000000; stroke-width: 1.5; stroke-linecap: round"/>
   </g>
   <g id="line2d_8">
    <path d="M 68.706409 213.752604 
L 107.914203 213.857772 
L 113.322175 214.110273 
L 117.378154 214.507854 
L 120.893335 215.064146 
L 124.138118 215.79938 
L 127.112502 216.697308 
L 129.816488 217.728075 
L 132.520474 218.984749 
L 135.22446 220.475661 
L 138.198844 222.366414 
L 142.254823 225.238015 
L 148.203592 229.441857 
L 151.177976 231.258691 
L 153.881962 232.658095 
L 156.585948 233.808444 
L 159.560332 234.813131 
L 162.805115 235.661819 
L 167.131492 236.5442 
L 176.595443 238.407163 
L 181.733016 239.710104 
L 188.49298 241.431677 
L 191.196966 241.882666 
L 193.360155 242.044283 
L 195.523343 241.979062 
L 197.416133 241.708698 
L 199.308923 241.22494 
L 201.201713 240.52443 
L 203.364902 239.467014 
L 205.528091 238.157731 
L 207.961678 236.423572 
L 210.665664 234.228011 
L 213.640048 231.536223 
L 216.614433 228.540822 
L 219.04802 225.777973 
L 221.211208 222.965389 
L 223.103998 220.107968 
L 224.72639 217.26286 
L 226.348781 213.953113 
L 227.971173 210.077552 
L 229.593564 205.537327 
L 231.215956 200.24923 
L 232.838347 194.16215 
L 234.731137 186.050602 
L 236.623928 176.950704 
L 239.057515 164.152909 
L 246.628675 123.448518 
L 248.791864 113.291888 
L 250.955052 104.185184 
L 252.847842 97.101384 
L 254.740632 90.814728 
L 256.633422 85.270464 
L 258.526213 80.40038 
L 260.419003 76.1318 
L 262.311793 72.39337 
L 264.204583 69.11839 
L 266.097373 66.246451 
L 268.260561 63.389345 
L 270.42375 60.919656 
L 272.586939 58.778648 
L 275.020526 56.701632 
L 277.454113 54.919755 
L 280.158099 53.228057 
L 282.862085 51.788396 
L 285.836469 50.444891 
L 289.081252 49.21455 
L 292.866832 48.029592 
L 296.922811 46.998093 
L 301.519587 46.061788 
L 306.65716 45.240621 
L 312.605929 44.513343 
L 319.636292 43.879826 
L 328.289046 43.335127 
L 338.834591 42.902801 
L 338.834591 42.902801 
" clip-path="url(#p49d408c69d)" style="fill: none; stroke-dasharray: 3.7,1.6; stroke-dashoffset: 0; stroke: #000000"/>
   </g>
   <g id="line2d_9">
    <defs>
     <path id="mbc1ce44e84" d="M 0 3 
C 0.795609 3 1.55874 2.683901 2.12132 2.12132 
C 2.683901 1.55874 3 0.795609 3 0 
C 3 -0.795609 2.683901 -1.55874 2.12132 -2.12132 
C 1.55874 -2.683901 0.795609 -3 0 -3 
C -0.795609 -3 -1.55874 -2.683901 -2.12132 -2.12132 
C -2.683901 -1.55874 -3 -0.795609 -3 0 
C -3 0.795609 -2.683901 1.55874 -2.12132 2.12132 
C -1.55874 2.683901 -0.795609 3 0 3 
z
" style="stroke: #921c5b"/>
    </defs>
    <g clip-path="url(#p49d408c69d)">
     <use xlink:href="#mbc1ce44e84" x="68.706409" y="213.752604" style="fill: #921c5b; stroke: #921c5b"/>
    </g>
   </g>
   <g id="line2d_10">
    <g clip-path="url(#p49d408c69d)">
     <use xlink:href="#mbc1ce44e84" x="68.706409" y="171.722524" style="fill: #921c5b; stroke: #921c5b"/>
    </g>
   </g>
   <g id="line2d_11">
    <g clip-path="url(#p49d408c69d)">
     <use xlink:href="#mbc1ce44e84" x="68.706409" y="255.121021" style="fill: #921c5b; stroke: #921c5b"/>
    </g>
   </g>
   <g id="line2d_12">
    <g clip-path="url(#p49d408c69d)">
     <use xlink:href="#mbc1ce44e84" x="68.706409" y="220.993051" style="fill: #921c5b; stroke: #921c5b"/>
    </g>
   </g>
   <g id="patch_3">
    <path d="M 55.2 317.437687 
L 55.2 13.79983 
" style="fill: none; stroke: #262626; stroke-linejoin: miter; stroke-linecap: square"/>
   </g>
   <g id="patch_4">
    <path d="M 352.341 317.437687 
L 352.341 13.79983 
" style="fill: none; stroke: #262626; stroke-linejoin: miter; stroke-linecap: square"/>
   </g>
   <g id="patch_5">
    <path d="M 55.2 317.437687 
L 352.341 317.437687 
" style="fill: none; stroke: #262626; stroke-linejoin: miter; stroke-linecap: square"/>
   </g>
   <g id="patch_6">
    <path d="M 55.2 13.79983 
L 352.341 13.79983 
" style="fill: none; stroke: #262626; stroke-linejoin: miter; stroke-linecap: square"/>
   </g>
   <g id="text_18">
    <!-- $T = 0.00238$ -->
    <g style="fill: #f47d57" transform="translate(143.325735 47.370804) scale(0.09 -0.09)">
     <defs>
      <path id="DejaVuSans-3d" d="M 678 2906 
L 4684 2906 
L 4684 2381 
L 678 2381 
L 678 2906 
z
M 678 1631 
L 4684 1631 
L 4684 1100 
L 678 1100 
L 678 1631 
z
" transform="scale(0.015625)"/>
      <path id="DejaVuSans-30" d="M 2034 4250 
Q 1547 4250 1301 3770 
Q 1056 3291 1056 2328 
Q 1056 1369 1301 889 
Q 1547 409 2034 409 
Q 2525 409 2770 889 
Q 3016 1369 3016 2328 
Q 3016 3291 2770 3770 
Q 2525 4250 2034 4250 
z
M 2034 4750 
Q 2819 4750 3233 4129 
Q 3647 3509 3647 2328 
Q 3647 1150 3233 529 
Q 2819 -91 2034 -91 
Q 1250 -91 836 529 
Q 422 1150 422 2328 
Q 422 3509 836 4129 
Q 1250 4750 2034 4750 
z
" transform="scale(0.015625)"/>
      <path id="DejaVuSans-2e" d="M 684 794 
L 1344 794 
L 1344 0 
L 684 0 
L 684 794 
z
" transform="scale(0.015625)"/>
      <path id="DejaVuSans-32" d="M 1228 531 
L 3431 531 
L 3431 0 
L 469 0 
L 469 531 
Q 828 903 1448 1529 
Q 2069 2156 2228 2338 
Q 2531 2678 2651 2914 
Q 2772 3150 2772 3378 
Q 2772 3750 2511 3984 
Q 2250 4219 1831 4219 
Q 1534 4219 1204 4116 
Q 875 4013 500 3803 
L 500 4441 
Q 881 4594 1212 4672 
Q 1544 4750 1819 4750 
Q 2544 4750 2975 4387 
Q 3406 4025 3406 3419 
Q 3406 3131 3298 2873 
Q 3191 2616 2906 2266 
Q 2828 2175 2409 1742 
Q 1991 1309 1228 531 
z
" transform="scale(0.015625)"/>
      <path id="DejaVuSans-33" d="M 2597 2516 
Q 3050 2419 3304 2112 
Q 3559 1806 3559 1356 
Q 3559 666 3084 287 
Q 2609 -91 1734 -91 
Q 1441 -91 1130 -33 
Q 819 25 488 141 
L 488 750 
Q 750 597 1062 519 
Q 1375 441 1716 441 
Q 2309 441 2620 675 
Q 2931 909 2931 1356 
Q 2931 1769 2642 2001 
Q 2353 2234 1838 2234 
L 1294 2234 
L 1294 2753 
L 1863 2753 
Q 2328 2753 2575 2939 
Q 2822 3125 2822 3475 
Q 2822 3834 2567 4026 
Q 2313 4219 1838 4219 
Q 1578 4219 1281 4162 
Q 984 4106 628 3988 
L 628 4550 
Q 988 4650 1302 4700 
Q 1616 4750 1894 4750 
Q 2613 4750 3031 4423 
Q 3450 4097 3450 3541 
Q 3450 3153 3228 2886 
Q 3006 2619 2597 2516 
z
" transform="scale(0.015625)"/>
      <path id="DejaVuSans-38" d="M 2034 2216 
Q 1584 2216 1326 1975 
Q 1069 1734 1069 1313 
Q 1069 891 1326 650 
Q 1584 409 2034 409 
Q 2484 409 2743 651 
Q 3003 894 3003 1313 
Q 3003 1734 2745 1975 
Q 2488 2216 2034 2216 
z
M 1403 2484 
Q 997 2584 770 2862 
Q 544 3141 544 3541 
Q 544 4100 942 4425 
Q 1341 4750 2034 4750 
Q 2731 4750 3128 4425 
Q 3525 4100 3525 3541 
Q 3525 3141 3298 2862 
Q 3072 2584 2669 2484 
Q 3125 2378 3379 2068 
Q 3634 1759 3634 1313 
Q 3634 634 3220 271 
Q 2806 -91 2034 -91 
Q 1263 -91 848 271 
Q 434 634 434 1313 
Q 434 1759 690 2068 
Q 947 2378 1403 2484 
z
M 1172 3481 
Q 1172 3119 1398 2916 
Q 1625 2713 2034 2713 
Q 2441 2713 2670 2916 
Q 2900 3119 2900 3481 
Q 2900 3844 2670 4047 
Q 2441 4250 2034 4250 
Q 1625 4250 1398 4047 
Q 1172 3844 1172 3481 
z
" transform="scale(0.015625)"/>
     </defs>
     <use xlink:href="#DejaVuSans-Oblique-54" transform="translate(0 0.78125)"/>
     <use xlink:href="#DejaVuSans-3d" transform="translate(80.566406 0.78125)"/>
     <use xlink:href="#DejaVuSans-30" transform="translate(183.837891 0.78125)"/>
     <use xlink:href="#DejaVuSans-2e" transform="translate(247.460938 0.78125)"/>
     <use xlink:href="#DejaVuSans-30" transform="translate(279.248047 0.78125)"/>
     <use xlink:href="#DejaVuSans-30" transform="translate(342.871094 0.78125)"/>
     <use xlink:href="#DejaVuSans-32" transform="translate(406.494141 0.78125)"/>
     <use xlink:href="#DejaVuSans-33" transform="translate(470.117188 0.78125)"/>
     <use xlink:href="#DejaVuSans-38" transform="translate(533.740234 0.78125)"/>
    </g>
   </g>
   <g id="text_19">
    <!-- $\lambda = 0.2\,h^{-1}$ -->
    <g transform="translate(114.363368 252.305554) scale(0.09 -0.09)">
     <defs>
      <path id="DejaVuSans-Oblique-3bb" d="M 2350 4316 
L 3125 0 
L 2516 0 
L 2038 2588 
L 328 0 
L -281 0 
L 1903 3356 
L 1794 3975 
Q 1725 4369 1391 4369 
L 1091 4369 
L 1184 4863 
L 1550 4856 
Q 2253 4847 2350 4316 
z
" transform="scale(0.015625)"/>
      <path id="DejaVuSans-Oblique-68" d="M 3566 2113 
L 3156 0 
L 2578 0 
L 2988 2091 
Q 3016 2238 3031 2350 
Q 3047 2463 3047 2528 
Q 3047 2791 2881 2937 
Q 2716 3084 2419 3084 
Q 1956 3084 1617 2771 
Q 1278 2459 1178 1941 
L 800 0 
L 225 0 
L 1172 4863 
L 1747 4863 
L 1375 2950 
Q 1594 3244 1934 3414 
Q 2275 3584 2650 3584 
Q 3113 3584 3367 3334 
Q 3622 3084 3622 2631 
Q 3622 2519 3608 2391 
Q 3594 2263 3566 2113 
z
" transform="scale(0.015625)"/>
      <path id="DejaVuSans-2212" d="M 678 2272 
L 4684 2272 
L 4684 1741 
L 678 1741 
L 678 2272 
z
" transform="scale(0.015625)"/>
      <path id="DejaVuSans-31" d="M 794 531 
L 1825 531 
L 1825 4091 
L 703 3866 
L 703 4441 
L 1819 4666 
L 2450 4666 
L 2450 531 
L 3481 531 
L 3481 0 
L 794 0 
L 794 531 
z
" transform="scale(0.015625)"/>
     </defs>
     <use xlink:href="#DejaVuSans-Oblique-3bb" transform="translate(0 0.684375)"/>
     <use xlink:href="#DejaVuSans-3d" transform="translate(78.662109 0.684375)"/>
     <use xlink:href="#DejaVuSans-30" transform="translate(181.933594 0.684375)"/>
     <use xlink:href="#DejaVuSans-2e" transform="translate(245.556641 0.684375)"/>
     <use xlink:href="#DejaVuSans-32" transform="translate(271.84375 0.684375)"/>
     <use xlink:href="#DejaVuSans-Oblique-68" transform="translate(351.702473 0.684375)"/>
     <use xlink:href="#DejaVuSans-2212" transform="translate(422.529088 38.965625) scale(0.7)"/>
     <use xlink:href="#DejaVuSans-31" transform="translate(481.181431 38.965625) scale(0.7)"/>
    </g>
   </g>
   <g id="text_20">
    <!-- $\lambda = 0.1\,h^{-1}$ -->
    <g transform="translate(114.363368 210.959836) scale(0.09 -0.09)">
     <use xlink:href="#DejaVuSans-Oblique-3bb" transform="translate(0 0.684375)"/>
     <use xlink:href="#DejaVuSans-3d" transform="translate(78.662109 0.684375)"/>
     <use xlink:href="#DejaVuSans-30" transform="translate(181.933594 0.684375)"/>
     <use xlink:href="#DejaVuSans-2e" transform="translate(245.556641 0.684375)"/>
     <use xlink:href="#DejaVuSans-31" transform="translate(277.34375 0.684375)"/>
     <use xlink:href="#DejaVuSans-Oblique-68" transform="translate(357.202473 0.684375)"/>
     <use xlink:href="#DejaVuSans-2212" transform="translate(428.029088 38.965625) scale(0.7)"/>
     <use xlink:href="#DejaVuSans-31" transform="translate(486.681431 38.965625) scale(0.7)"/>
    </g>
   </g>
   <g id="text_21">
    <!-- UNIFORM -->
    <g style="fill: #221331" transform="translate(358.28382 192.091693) scale(0.07 -0.07)">
     <defs>
      <path id="ArialMT-55" d="M 3500 4581 
L 4106 4581 
L 4106 1934 
Q 4106 1244 3950 837 
Q 3794 431 3386 176 
Q 2978 -78 2316 -78 
Q 1672 -78 1262 144 
Q 853 366 678 786 
Q 503 1206 503 1934 
L 503 4581 
L 1109 4581 
L 1109 1938 
Q 1109 1341 1220 1058 
Q 1331 775 1601 622 
Q 1872 469 2263 469 
Q 2931 469 3215 772 
Q 3500 1075 3500 1938 
L 3500 4581 
z
" transform="scale(0.015625)"/>
      <path id="ArialMT-4e" d="M 488 0 
L 488 4581 
L 1109 4581 
L 3516 984 
L 3516 4581 
L 4097 4581 
L 4097 0 
L 3475 0 
L 1069 3600 
L 1069 0 
L 488 0 
z
" transform="scale(0.015625)"/>
      <path id="ArialMT-49" d="M 597 0 
L 597 4581 
L 1203 4581 
L 1203 0 
L 597 0 
z
" transform="scale(0.015625)"/>
      <path id="ArialMT-46" d="M 525 0 
L 525 4581 
L 3616 4581 
L 3616 4041 
L 1131 4041 
L 1131 2622 
L 3281 2622 
L 3281 2081 
L 1131 2081 
L 1131 0 
L 525 0 
z
" transform="scale(0.015625)"/>
      <path id="ArialMT-4f" d="M 309 2231 
Q 309 3372 921 4017 
Q 1534 4663 2503 4663 
Q 3138 4663 3647 4359 
Q 4156 4056 4423 3514 
Q 4691 2972 4691 2284 
Q 4691 1588 4409 1038 
Q 4128 488 3612 205 
Q 3097 -78 2500 -78 
Q 1853 -78 1343 234 
Q 834 547 571 1087 
Q 309 1628 309 2231 
z
M 934 2222 
Q 934 1394 1379 917 
Q 1825 441 2497 441 
Q 3181 441 3623 922 
Q 4066 1403 4066 2288 
Q 4066 2847 3877 3264 
Q 3688 3681 3323 3911 
Q 2959 4141 2506 4141 
Q 1863 4141 1398 3698 
Q 934 3256 934 2222 
z
" transform="scale(0.015625)"/>
      <path id="ArialMT-52" d="M 503 0 
L 503 4581 
L 2534 4581 
Q 3147 4581 3465 4457 
Q 3784 4334 3975 4021 
Q 4166 3709 4166 3331 
Q 4166 2844 3850 2509 
Q 3534 2175 2875 2084 
Q 3116 1969 3241 1856 
Q 3506 1613 3744 1247 
L 4541 0 
L 3778 0 
L 3172 953 
Q 2906 1366 2734 1584 
Q 2563 1803 2427 1890 
Q 2291 1978 2150 2013 
Q 2047 2034 1813 2034 
L 1109 2034 
L 1109 0 
L 503 0 
z
M 1109 2559 
L 2413 2559 
Q 2828 2559 3062 2645 
Q 3297 2731 3419 2920 
Q 3541 3109 3541 3331 
Q 3541 3656 3305 3865 
Q 3069 4075 2559 4075 
L 1109 4075 
L 1109 2559 
z
" transform="scale(0.015625)"/>
     </defs>
     <use xlink:href="#ArialMT-55"/>
     <use xlink:href="#ArialMT-4e" transform="translate(72.216797 0)"/>
     <use xlink:href="#ArialMT-49" transform="translate(144.433594 0)"/>
     <use xlink:href="#ArialMT-46" transform="translate(172.216797 0)"/>
     <use xlink:href="#ArialMT-4f" transform="translate(233.300781 0)"/>
     <use xlink:href="#ArialMT-52" transform="translate(311.083984 0)"/>
     <use xlink:href="#ArialMT-4d" transform="translate(383.300781 0)"/>
    </g>
   </g>
   <g id="text_22">
    <!-- MAXENT -->
    <g style="fill: #221331" transform="translate(358.28382 305.445576) scale(0.07 -0.07)">
     <defs>
      <path id="ArialMT-41" d="M -9 0 
L 1750 4581 
L 2403 4581 
L 4278 0 
L 3588 0 
L 3053 1388 
L 1138 1388 
L 634 0 
L -9 0 
z
M 1313 1881 
L 2866 1881 
L 2388 3150 
Q 2169 3728 2063 4100 
Q 1975 3659 1816 3225 
L 1313 1881 
z
" transform="scale(0.015625)"/>
      <path id="ArialMT-58" d="M 28 0 
L 1800 2388 
L 238 4581 
L 959 4581 
L 1791 3406 
Q 2050 3041 2159 2844 
Q 2313 3094 2522 3366 
L 3444 4581 
L 4103 4581 
L 2494 2422 
L 4228 0 
L 3478 0 
L 2325 1634 
Q 2228 1775 2125 1941 
Q 1972 1691 1906 1597 
L 756 0 
L 28 0 
z
" transform="scale(0.015625)"/>
      <path id="ArialMT-54" d="M 1659 0 
L 1659 4041 
L 150 4041 
L 150 4581 
L 3781 4581 
L 3781 4041 
L 2266 4041 
L 2266 0 
L 1659 0 
z
" transform="scale(0.015625)"/>
     </defs>
     <use xlink:href="#ArialMT-4d"/>
     <use xlink:href="#ArialMT-41" transform="translate(83.300781 0)"/>
     <use xlink:href="#ArialMT-58" transform="translate(150 0)"/>
     <use xlink:href="#ArialMT-45" transform="translate(216.699219 0)"/>
     <use xlink:href="#ArialMT-4e" transform="translate(283.398438 0)"/>
     <use xlink:href="#ArialMT-54" transform="translate(355.615234 0)"/>
    </g>
   </g>
   <g id="text_23">
    <!-- FBA -->
    <g style="fill: #221331" transform="translate(358.28382 260.244415) scale(0.07 -0.07)">
     <defs>
      <path id="ArialMT-42" d="M 469 0 
L 469 4581 
L 2188 4581 
Q 2713 4581 3030 4442 
Q 3347 4303 3526 4014 
Q 3706 3725 3706 3409 
Q 3706 3116 3547 2856 
Q 3388 2597 3066 2438 
Q 3481 2316 3704 2022 
Q 3928 1728 3928 1328 
Q 3928 1006 3792 729 
Q 3656 453 3456 303 
Q 3256 153 2954 76 
Q 2653 0 2216 0 
L 469 0 
z
M 1075 2656 
L 2066 2656 
Q 2469 2656 2644 2709 
Q 2875 2778 2992 2937 
Q 3109 3097 3109 3338 
Q 3109 3566 3000 3739 
Q 2891 3913 2687 3977 
Q 2484 4041 1991 4041 
L 1075 4041 
L 1075 2656 
z
M 1075 541 
L 2216 541 
Q 2509 541 2628 563 
Q 2838 600 2978 687 
Q 3119 775 3209 942 
Q 3300 1109 3300 1328 
Q 3300 1584 3169 1773 
Q 3038 1963 2805 2039 
Q 2572 2116 2134 2116 
L 1075 2116 
L 1075 541 
z
" transform="scale(0.015625)"/>
     </defs>
     <use xlink:href="#ArialMT-46"/>
     <use xlink:href="#ArialMT-42" transform="translate(61.083984 0)"/>
     <use xlink:href="#ArialMT-41" transform="translate(127.783203 0)"/>
    </g>
   </g>
   <g id="legend_1">
    <g id="patch_7">
     <path d="M 364.58382 61.212955 
L 453.99882 61.212955 
Q 455.79882 61.212955 455.79882 59.412955 
L 455.79882 20.09983 
Q 455.79882 18.29983 453.99882 18.29983 
L 364.58382 18.29983 
Q 362.78382 18.29983 362.78382 20.09983 
L 362.78382 59.412955 
Q 362.78382 61.212955 364.58382 61.212955 
z
" style="fill: #ffffff; stroke: #000000; stroke-width: 0.8; stroke-linejoin: miter"/>
    </g>
    <g id="line2d_13">
     <path d="M 367.28382 26.091861 
L 376.28382 26.091861 
L 385.28382 26.091861 
" style="fill: none; stroke: #000000; stroke-width: 2; stroke-linecap: round"/>
    </g>
    <g id="text_24">
     <!-- EFV -->
     <g style="fill: #262626" transform="translate(389.78382 29.241861) scale(0.09 -0.09)">
      <defs>
       <path id="ArialMT-56" d="M 1803 0 
L 28 4581 
L 684 4581 
L 1875 1253 
Q 2019 853 2116 503 
Q 2222 878 2363 1253 
L 3600 4581 
L 4219 4581 
L 2425 0 
L 1803 0 
z
" transform="scale(0.015625)"/>
      </defs>
      <use xlink:href="#ArialMT-45"/>
      <use xlink:href="#ArialMT-46" transform="translate(66.699219 0)"/>
      <use xlink:href="#ArialMT-56" transform="translate(127.783203 0)"/>
     </g>
    </g>
    <g id="line2d_14">
     <path d="M 367.28382 38.822643 
L 376.28382 38.822643 
L 385.28382 38.822643 
" style="fill: none; stroke: #d3d3d3; stroke-width: 2; stroke-linecap: round"/>
    </g>
    <g id="text_25">
     <!-- EFM / EP -->
     <g style="fill: #262626" transform="translate(389.78382 41.972643) scale(0.09 -0.09)">
      <defs>
       <path id="ArialMT-20" transform="scale(0.015625)"/>
       <path id="ArialMT-2f" d="M 0 -78 
L 1328 4659 
L 1778 4659 
L 453 -78 
L 0 -78 
z
" transform="scale(0.015625)"/>
       <path id="ArialMT-50" d="M 494 0 
L 494 4581 
L 2222 4581 
Q 2678 4581 2919 4538 
Q 3256 4481 3484 4323 
Q 3713 4166 3852 3881 
Q 3991 3597 3991 3256 
Q 3991 2672 3619 2267 
Q 3247 1863 2275 1863 
L 1100 1863 
L 1100 0 
L 494 0 
z
M 1100 2403 
L 2284 2403 
Q 2872 2403 3119 2622 
Q 3366 2841 3366 3238 
Q 3366 3525 3220 3729 
Q 3075 3934 2838 4000 
Q 2684 4041 2272 4041 
L 1100 4041 
L 1100 2403 
z
" transform="scale(0.015625)"/>
      </defs>
      <use xlink:href="#ArialMT-45"/>
      <use xlink:href="#ArialMT-46" transform="translate(66.699219 0)"/>
      <use xlink:href="#ArialMT-4d" transform="translate(127.783203 0)"/>
      <use xlink:href="#ArialMT-20" transform="translate(211.083984 0)"/>
      <use xlink:href="#ArialMT-2f" transform="translate(238.867188 0)"/>
      <use xlink:href="#ArialMT-20" transform="translate(266.650391 0)"/>
      <use xlink:href="#ArialMT-45" transform="translate(294.433594 0)"/>
      <use xlink:href="#ArialMT-50" transform="translate(361.132812 0)"/>
     </g>
    </g>
    <g id="line2d_15">
     <g>
      <use xlink:href="#mbc1ce44e84" x="376.28382" y="51.668736" style="fill: #921c5b; stroke: #921c5b"/>
     </g>
    </g>
    <g id="text_26">
     <!-- COBRApy FBA -->
     <g style="fill: #262626" transform="translate(389.78382 54.818736) scale(0.09 -0.09)">
      <defs>
       <path id="ArialMT-43" d="M 3763 1606 
L 4369 1453 
Q 4178 706 3683 314 
Q 3188 -78 2472 -78 
Q 1731 -78 1267 223 
Q 803 525 561 1097 
Q 319 1669 319 2325 
Q 319 3041 592 3573 
Q 866 4106 1370 4382 
Q 1875 4659 2481 4659 
Q 3169 4659 3637 4309 
Q 4106 3959 4291 3325 
L 3694 3184 
Q 3534 3684 3231 3912 
Q 2928 4141 2469 4141 
Q 1941 4141 1586 3887 
Q 1231 3634 1087 3207 
Q 944 2781 944 2328 
Q 944 1744 1114 1308 
Q 1284 872 1643 656 
Q 2003 441 2422 441 
Q 2931 441 3284 734 
Q 3638 1028 3763 1606 
z
" transform="scale(0.015625)"/>
       <path id="ArialMT-70" d="M 422 -1272 
L 422 3319 
L 934 3319 
L 934 2888 
Q 1116 3141 1344 3267 
Q 1572 3394 1897 3394 
Q 2322 3394 2647 3175 
Q 2972 2956 3137 2557 
Q 3303 2159 3303 1684 
Q 3303 1175 3120 767 
Q 2938 359 2589 142 
Q 2241 -75 1856 -75 
Q 1575 -75 1351 44 
Q 1128 163 984 344 
L 984 -1272 
L 422 -1272 
z
M 931 1641 
Q 931 1000 1190 694 
Q 1450 388 1819 388 
Q 2194 388 2461 705 
Q 2728 1022 2728 1688 
Q 2728 2322 2467 2637 
Q 2206 2953 1844 2953 
Q 1484 2953 1207 2617 
Q 931 2281 931 1641 
z
" transform="scale(0.015625)"/>
       <path id="ArialMT-79" d="M 397 -1278 
L 334 -750 
Q 519 -800 656 -800 
Q 844 -800 956 -737 
Q 1069 -675 1141 -563 
Q 1194 -478 1313 -144 
Q 1328 -97 1363 -6 
L 103 3319 
L 709 3319 
L 1400 1397 
Q 1534 1031 1641 628 
Q 1738 1016 1872 1384 
L 2581 3319 
L 3144 3319 
L 1881 -56 
Q 1678 -603 1566 -809 
Q 1416 -1088 1222 -1217 
Q 1028 -1347 759 -1347 
Q 597 -1347 397 -1278 
z
" transform="scale(0.015625)"/>
      </defs>
      <use xlink:href="#ArialMT-43"/>
      <use xlink:href="#ArialMT-4f" transform="translate(72.216797 0)"/>
      <use xlink:href="#ArialMT-42" transform="translate(150 0)"/>
      <use xlink:href="#ArialMT-52" transform="translate(216.699219 0)"/>
      <use xlink:href="#ArialMT-41" transform="translate(288.916016 0)"/>
      <use xlink:href="#ArialMT-70" transform="translate(355.615234 0)"/>
      <use xlink:href="#ArialMT-79" transform="translate(411.230469 0)"/>
      <use xlink:href="#ArialMT-20" transform="translate(461.230469 0)"/>
      <use xlink:href="#ArialMT-46" transform="translate(489.013672 0)"/>
      <use xlink:href="#ArialMT-42" transform="translate(550.097656 0)"/>
      <use xlink:href="#ArialMT-41" transform="translate(616.796875 0)"/>
     </g>
    </g>
   </g>
  </g>
 </g>
 <defs>
  <clipPath id="p49d408c69d">
   <rect x="55.2" y="13.79983" width="297.141" height="303.637857"/>
  </clipPath>
 </defs>
</svg>
