<?xml version="1.0" encoding="utf-8" standalone="no"?>
<!DOCTYPE svg PUBLIC "-//W3C//DTD SVG 1.1//EN"
  "http://www.w3.org/Graphics/SVG/1.1/DTD/svg11.dtd">
<svg xmlns:xlink="http://www.w3.org/1999/xlink" width="468pt" height="360pt" viewBox="0 0 468 360" xmlns="http://www.w3.org/2000/svg" version="1.1">
 <metadata>
  <rdf:RDF xmlns:dc="http://purl.org/dc/elements/1.1/" xmlns:cc="http://creativecommons.org/ns#" xmlns:rdf="http://www.w3.org/1999/02/22-rdf-syntax-ns#">
   <cc:Work>
    <dc:type rdf:resource="http://purl.org/dc/dcmitype/StillImage"/>
    <dc:date>2025-08-11T16:28:42.470009</dc:date>
    <dc:format>image/svg+xml</dc:format>
    <dc:creator>
     <cc:Agent>
      <dc:title>Matplotlib v3.10.1, https://matplotlib.org/</dc:title>
     </cc:Agent>
    </dc:creator>
   </cc:Work>
  </rdf:RDF>
 </metadata>
 <defs>
  <style type="text/css">*{stroke-linejoin: round; stroke-linecap: butt}</style>
 </defs>
 <g id="figure_1">
  <g id="patch_1">
   <path d="M 0 360 
L 468 360 
L 468 0 
L 0 0 
z
" style="fill: #ffffff"/>
  </g>
  <g id="axes_1">
   <g id="patch_2">
    <path d="M 55.2 317.437687 
L 326.331 317.437687 
L 326.331 13.79983 
L 55.2 13.79983 
z
" style="fill: #ffffff"/>
   </g>
   <g id="line2d_1">
    <path d="M 184.720628 317.437687 
L 184.720628 13.79983 
" clip-path="url(#pf8b3a6bf09)" style="fill: none; stroke: #f47d57; stroke-opacity: 0.4; stroke-width: 1.5; stroke-linecap: round"/>
   </g>
   <g id="matplotlib.axis_1">
    <g id="xtick_1">
     <g id="text_1">
      <!-- $\mathdefault{10^{-5}}$ -->
      <g style="fill: #262626" transform="translate(56.634136 332.171437) scale(0.11 -0.11)">
       <defs>
        <path id="ArialMT-31" d="M 2384 0 
L 1822 0 
L 1822 3584 
Q 1619 3391 1289 3197 
Q 959 3003 697 2906 
L 697 3450 
Q 1169 3672 1522 3987 
Q 1875 4303 2022 4600 
L 2384 4600 
L 2384 0 
z
" transform="scale(0.015625)"/>
        <path id="ArialMT-30" d="M 266 2259 
Q 266 3072 433 3567 
Q 600 4063 929 4331 
Q 1259 4600 1759 4600 
Q 2128 4600 2406 4451 
Q 2684 4303 2865 4023 
Q 3047 3744 3150 3342 
Q 3253 2941 3253 2259 
Q 3253 1453 3087 958 
Q 2922 463 2592 192 
Q 2263 -78 1759 -78 
Q 1097 -78 719 397 
Q 266 969 266 2259 
z
M 844 2259 
Q 844 1131 1108 757 
Q 1372 384 1759 384 
Q 2147 384 2411 759 
Q 2675 1134 2675 2259 
Q 2675 3391 2411 3762 
Q 2147 4134 1753 4134 
Q 1366 4134 1134 3806 
Q 844 3388 844 2259 
z
" transform="scale(0.015625)"/>
        <path id="ArialMT-2212" d="M 3381 1997 
L 356 1997 
L 356 2522 
L 3381 2522 
L 3381 1997 
z
" transform="scale(0.015625)"/>
        <path id="ArialMT-35" d="M 266 1200 
L 856 1250 
Q 922 819 1161 601 
Q 1400 384 1738 384 
Q 2144 384 2425 690 
Q 2706 997 2706 1503 
Q 2706 1984 2436 2262 
Q 2166 2541 1728 2541 
Q 1456 2541 1237 2417 
Q 1019 2294 894 2097 
L 366 2166 
L 809 4519 
L 3088 4519 
L 3088 3981 
L 1259 3981 
L 1013 2750 
Q 1425 3038 1878 3038 
Q 2478 3038 2890 2622 
Q 3303 2206 3303 1553 
Q 3303 931 2941 478 
Q 2500 -78 1738 -78 
Q 1113 -78 717 272 
Q 322 622 266 1200 
z
" transform="scale(0.015625)"/>
       </defs>
       <use xlink:href="#ArialMT-31" transform="translate(0 0.879688)"/>
       <use xlink:href="#ArialMT-30" transform="translate(55.615234 0.879688)"/>
       <use xlink:href="#ArialMT-2212" transform="translate(112.972813 70.573438) scale(0.7)"/>
       <use xlink:href="#ArialMT-35" transform="translate(153.851719 70.573438) scale(0.7)"/>
      </g>
     </g>
    </g>
    <g id="xtick_2">
     <g id="text_2">
      <!-- $\mathdefault{10^{-4}}$ -->
      <g style="fill: #262626" transform="translate(105.930682 332.171437) scale(0.11 -0.11)">
       <defs>
        <path id="ArialMT-34" d="M 2069 0 
L 2069 1097 
L 81 1097 
L 81 1613 
L 2172 4581 
L 2631 4581 
L 2631 1613 
L 3250 1613 
L 3250 1097 
L 2631 1097 
L 2631 0 
L 2069 0 
z
M 2069 1613 
L 2069 3678 
L 634 1613 
L 2069 1613 
z
" transform="scale(0.015625)"/>
       </defs>
       <use xlink:href="#ArialMT-31" transform="translate(0 0.201563)"/>
       <use xlink:href="#ArialMT-30" transform="translate(55.615234 0.201563)"/>
       <use xlink:href="#ArialMT-2212" transform="translate(112.972813 69.895313) scale(0.7)"/>
       <use xlink:href="#ArialMT-34" transform="translate(153.851719 69.895313) scale(0.7)"/>
      </g>
     </g>
    </g>
    <g id="xtick_3">
     <g id="text_3">
      <!-- $\mathdefault{10^{-3}}$ -->
      <g style="fill: #262626" transform="translate(155.227227 332.281437) scale(0.11 -0.11)">
       <defs>
        <path id="ArialMT-33" d="M 269 1209 
L 831 1284 
Q 928 806 1161 595 
Q 1394 384 1728 384 
Q 2125 384 2398 659 
Q 2672 934 2672 1341 
Q 2672 1728 2419 1979 
Q 2166 2231 1775 2231 
Q 1616 2231 1378 2169 
L 1441 2663 
Q 1497 2656 1531 2656 
Q 1891 2656 2178 2843 
Q 2466 3031 2466 3422 
Q 2466 3731 2256 3934 
Q 2047 4138 1716 4138 
Q 1388 4138 1169 3931 
Q 950 3725 888 3313 
L 325 3413 
Q 428 3978 793 4289 
Q 1159 4600 1703 4600 
Q 2078 4600 2393 4439 
Q 2709 4278 2876 4000 
Q 3044 3722 3044 3409 
Q 3044 3113 2884 2869 
Q 2725 2625 2413 2481 
Q 2819 2388 3044 2092 
Q 3269 1797 3269 1353 
Q 3269 753 2831 336 
Q 2394 -81 1725 -81 
Q 1122 -81 723 278 
Q 325 638 269 1209 
z
" transform="scale(0.015625)"/>
       </defs>
       <use xlink:href="#ArialMT-31" transform="translate(0 0.99375)"/>
       <use xlink:href="#ArialMT-30" transform="translate(55.615234 0.99375)"/>
       <use xlink:href="#ArialMT-2212" transform="translate(112.972813 70.6875) scale(0.7)"/>
       <use xlink:href="#ArialMT-33" transform="translate(153.851719 70.6875) scale(0.7)"/>
      </g>
     </g>
    </g>
    <g id="xtick_4">
     <g id="text_4">
      <!-- $\mathdefault{10^{-2}}$ -->
      <g style="fill: #262626" transform="translate(204.523773 332.281437) scale(0.11 -0.11)">
       <defs>
        <path id="ArialMT-32" d="M 3222 541 
L 3222 0 
L 194 0 
Q 188 203 259 391 
Q 375 700 629 1000 
Q 884 1300 1366 1694 
Q 2113 2306 2375 2664 
Q 2638 3022 2638 3341 
Q 2638 3675 2398 3904 
Q 2159 4134 1775 4134 
Q 1369 4134 1125 3890 
Q 881 3647 878 3216 
L 300 3275 
Q 359 3922 746 4261 
Q 1134 4600 1788 4600 
Q 2447 4600 2831 4234 
Q 3216 3869 3216 3328 
Q 3216 3053 3103 2787 
Q 2991 2522 2730 2228 
Q 2469 1934 1863 1422 
Q 1356 997 1212 845 
Q 1069 694 975 541 
L 3222 541 
z
" transform="scale(0.015625)"/>
       </defs>
       <use xlink:href="#ArialMT-31" transform="translate(0 0.99375)"/>
       <use xlink:href="#ArialMT-30" transform="translate(55.615234 0.99375)"/>
       <use xlink:href="#ArialMT-2212" transform="translate(112.972813 70.6875) scale(0.7)"/>
       <use xlink:href="#ArialMT-32" transform="translate(153.851719 70.6875) scale(0.7)"/>
      </g>
     </g>
    </g>
    <g id="xtick_5">
     <g id="text_5">
      <!-- $\mathdefault{10^{-1}}$ -->
      <g style="fill: #262626" transform="translate(253.820318 332.281437) scale(0.11 -0.11)">
       <use xlink:href="#ArialMT-31" transform="translate(0 0.99375)"/>
       <use xlink:href="#ArialMT-30" transform="translate(55.615234 0.99375)"/>
       <use xlink:href="#ArialMT-2212" transform="translate(112.972813 70.6875) scale(0.7)"/>
       <use xlink:href="#ArialMT-31" transform="translate(153.851719 70.6875) scale(0.7)"/>
      </g>
     </g>
    </g>
    <g id="xtick_6">
     <g id="text_6">
      <!-- $\mathdefault{10^{0}}$ -->
      <g style="fill: #262626" transform="translate(305.371864 332.281437) scale(0.11 -0.11)">
       <use xlink:href="#ArialMT-31" transform="translate(0 0.99375)"/>
       <use xlink:href="#ArialMT-30" transform="translate(55.615234 0.99375)"/>
       <use xlink:href="#ArialMT-30" transform="translate(112.972813 70.6875) scale(0.7)"/>
      </g>
     </g>
    </g>
    <g id="xtick_7"/>
    <g id="xtick_8"/>
    <g id="xtick_9"/>
    <g id="xtick_10"/>
    <g id="xtick_11"/>
    <g id="xtick_12"/>
    <g id="xtick_13"/>
    <g id="xtick_14"/>
    <g id="xtick_15"/>
    <g id="xtick_16"/>
    <g id="xtick_17"/>
    <g id="xtick_18"/>
    <g id="xtick_19"/>
    <g id="xtick_20"/>
    <g id="xtick_21"/>
    <g id="xtick_22"/>
    <g id="xtick_23"/>
    <g id="xtick_24"/>
    <g id="xtick_25"/>
    <g id="xtick_26"/>
    <g id="xtick_27"/>
    <g id="xtick_28"/>
    <g id="xtick_29"/>
    <g id="xtick_30"/>
    <g id="xtick_31"/>
    <g id="xtick_32"/>
    <g id="xtick_33"/>
    <g id="xtick_34"/>
    <g id="xtick_35"/>
    <g id="xtick_36"/>
    <g id="xtick_37"/>
    <g id="xtick_38"/>
    <g id="xtick_39"/>
    <g id="xtick_40"/>
    <g id="xtick_41"/>
    <g id="xtick_42"/>
    <g id="xtick_43"/>
    <g id="xtick_44"/>
    <g id="xtick_45"/>
    <g id="xtick_46"/>
    <g id="xtick_47"/>
    <g id="xtick_48"/>
    <g id="xtick_49"/>
    <g id="xtick_50"/>
    <g id="text_7">
     <!-- $T$ -->
     <g style="fill: #262626" transform="translate(187.6655 345.6255) scale(0.1 -0.1)">
      <defs>
       <path id="DejaVuSans-Oblique-54" d="M 378 4666 
L 4325 4666 
L 4225 4134 
L 2559 4134 
L 1759 0 
L 1125 0 
L 1925 4134 
L 275 4134 
L 378 4666 
z
" transform="scale(0.015625)"/>
      </defs>
      <use xlink:href="#DejaVuSans-Oblique-54" transform="translate(0 0.09375)"/>
     </g>
    </g>
   </g>
   <g id="matplotlib.axis_2">
    <g id="ytick_1">
     <g id="text_8">
      <!-- 0.050 -->
      <g style="fill: #262626" transform="translate(24.175938 277.785837) scale(0.11 -0.11)">
       <defs>
        <path id="ArialMT-2e" d="M 581 0 
L 581 641 
L 1222 641 
L 1222 0 
L 581 0 
z
" transform="scale(0.015625)"/>
       </defs>
       <use xlink:href="#ArialMT-30"/>
       <use xlink:href="#ArialMT-2e" transform="translate(55.615234 0)"/>
       <use xlink:href="#ArialMT-30" transform="translate(83.398438 0)"/>
       <use xlink:href="#ArialMT-35" transform="translate(139.013672 0)"/>
       <use xlink:href="#ArialMT-30" transform="translate(194.628906 0)"/>
      </g>
     </g>
    </g>
    <g id="ytick_2">
     <g id="text_9">
      <!-- 0.075 -->
      <g style="fill: #262626" transform="translate(24.175938 245.4358) scale(0.11 -0.11)">
       <defs>
        <path id="ArialMT-37" d="M 303 3981 
L 303 4522 
L 3269 4522 
L 3269 4084 
Q 2831 3619 2401 2847 
Q 1972 2075 1738 1259 
Q 1569 684 1522 0 
L 944 0 
Q 953 541 1156 1306 
Q 1359 2072 1739 2783 
Q 2119 3494 2547 3981 
L 303 3981 
z
" transform="scale(0.015625)"/>
       </defs>
       <use xlink:href="#ArialMT-30"/>
       <use xlink:href="#ArialMT-2e" transform="translate(55.615234 0)"/>
       <use xlink:href="#ArialMT-30" transform="translate(83.398438 0)"/>
       <use xlink:href="#ArialMT-37" transform="translate(139.013672 0)"/>
       <use xlink:href="#ArialMT-35" transform="translate(194.628906 0)"/>
      </g>
     </g>
    </g>
    <g id="ytick_3">
     <g id="text_10">
      <!-- 0.100 -->
      <g style="fill: #262626" transform="translate(24.175938 213.085763) scale(0.11 -0.11)">
       <use xlink:href="#ArialMT-30"/>
       <use xlink:href="#ArialMT-2e" transform="translate(55.615234 0)"/>
       <use xlink:href="#ArialMT-31" transform="translate(83.398438 0)"/>
       <use xlink:href="#ArialMT-30" transform="translate(139.013672 0)"/>
       <use xlink:href="#ArialMT-30" transform="translate(194.628906 0)"/>
      </g>
     </g>
    </g>
    <g id="ytick_4">
     <g id="text_11">
      <!-- 0.125 -->
      <g style="fill: #262626" transform="translate(24.175938 180.735726) scale(0.11 -0.11)">
       <use xlink:href="#ArialMT-30"/>
       <use xlink:href="#ArialMT-2e" transform="translate(55.615234 0)"/>
       <use xlink:href="#ArialMT-31" transform="translate(83.398438 0)"/>
       <use xlink:href="#ArialMT-32" transform="translate(139.013672 0)"/>
       <use xlink:href="#ArialMT-35" transform="translate(194.628906 0)"/>
      </g>
     </g>
    </g>
    <g id="ytick_5">
     <g id="text_12">
      <!-- 0.150 -->
      <g style="fill: #262626" transform="translate(24.175938 148.385689) scale(0.11 -0.11)">
       <use xlink:href="#ArialMT-30"/>
       <use xlink:href="#ArialMT-2e" transform="translate(55.615234 0)"/>
       <use xlink:href="#ArialMT-31" transform="translate(83.398438 0)"/>
       <use xlink:href="#ArialMT-35" transform="translate(139.013672 0)"/>
       <use xlink:href="#ArialMT-30" transform="translate(194.628906 0)"/>
      </g>
     </g>
    </g>
    <g id="ytick_6">
     <g id="text_13">
      <!-- 0.175 -->
      <g style="fill: #262626" transform="translate(24.175938 116.035652) scale(0.11 -0.11)">
       <use xlink:href="#ArialMT-30"/>
       <use xlink:href="#ArialMT-2e" transform="translate(55.615234 0)"/>
       <use xlink:href="#ArialMT-31" transform="translate(83.398438 0)"/>
       <use xlink:href="#ArialMT-37" transform="translate(139.013672 0)"/>
       <use xlink:href="#ArialMT-35" transform="translate(194.628906 0)"/>
      </g>
     </g>
    </g>
    <g id="ytick_7">
     <g id="text_14">
      <!-- 0.200 -->
      <g style="fill: #262626" transform="translate(24.175938 83.685614) scale(0.11 -0.11)">
       <use xlink:href="#ArialMT-30"/>
       <use xlink:href="#ArialMT-2e" transform="translate(55.615234 0)"/>
       <use xlink:href="#ArialMT-32" transform="translate(83.398438 0)"/>
       <use xlink:href="#ArialMT-30" transform="translate(139.013672 0)"/>
       <use xlink:href="#ArialMT-30" transform="translate(194.628906 0)"/>
      </g>
     </g>
    </g>
    <g id="ytick_8">
     <g id="text_15">
      <!-- 0.225 -->
      <g style="fill: #262626" transform="translate(24.175938 51.335577) scale(0.11 -0.11)">
       <use xlink:href="#ArialMT-30"/>
       <use xlink:href="#ArialMT-2e" transform="translate(55.615234 0)"/>
       <use xlink:href="#ArialMT-32" transform="translate(83.398438 0)"/>
       <use xlink:href="#ArialMT-32" transform="translate(139.013672 0)"/>
       <use xlink:href="#ArialMT-35" transform="translate(194.628906 0)"/>
      </g>
     </g>
    </g>
    <g id="ytick_9">
     <g id="text_16">
      <!-- 0.250 -->
      <g style="fill: #262626" transform="translate(24.175938 18.98554) scale(0.11 -0.11)">
       <use xlink:href="#ArialMT-30"/>
       <use xlink:href="#ArialMT-2e" transform="translate(55.615234 0)"/>
       <use xlink:href="#ArialMT-32" transform="translate(83.398438 0)"/>
       <use xlink:href="#ArialMT-35" transform="translate(139.013672 0)"/>
       <use xlink:href="#ArialMT-30" transform="translate(194.628906 0)"/>
      </g>
     </g>
    </g>
    <g id="text_17">
     <!-- MSE -->
     <g style="fill: #262626" transform="translate(18.188438 176.453915) rotate(-90) scale(0.1 -0.1)">
      <defs>
       <path id="ArialMT-4d" d="M 475 0 
L 475 4581 
L 1388 4581 
L 2472 1338 
Q 2622 884 2691 659 
Q 2769 909 2934 1394 
L 4031 4581 
L 4847 4581 
L 4847 0 
L 4263 0 
L 4263 3834 
L 2931 0 
L 2384 0 
L 1059 3900 
L 1059 0 
L 475 0 
z
" transform="scale(0.015625)"/>
       <path id="ArialMT-53" d="M 288 1472 
L 859 1522 
Q 900 1178 1048 958 
Q 1197 738 1509 602 
Q 1822 466 2213 466 
Q 2559 466 2825 569 
Q 3091 672 3220 851 
Q 3350 1031 3350 1244 
Q 3350 1459 3225 1620 
Q 3100 1781 2813 1891 
Q 2628 1963 1997 2114 
Q 1366 2266 1113 2400 
Q 784 2572 623 2826 
Q 463 3081 463 3397 
Q 463 3744 659 4045 
Q 856 4347 1234 4503 
Q 1613 4659 2075 4659 
Q 2584 4659 2973 4495 
Q 3363 4331 3572 4012 
Q 3781 3694 3797 3291 
L 3216 3247 
Q 3169 3681 2898 3903 
Q 2628 4125 2100 4125 
Q 1550 4125 1298 3923 
Q 1047 3722 1047 3438 
Q 1047 3191 1225 3031 
Q 1400 2872 2139 2705 
Q 2878 2538 3153 2413 
Q 3553 2228 3743 1945 
Q 3934 1663 3934 1294 
Q 3934 928 3725 604 
Q 3516 281 3123 101 
Q 2731 -78 2241 -78 
Q 1619 -78 1198 103 
Q 778 284 539 648 
Q 300 1013 288 1472 
z
" transform="scale(0.015625)"/>
       <path id="ArialMT-45" d="M 506 0 
L 506 4581 
L 3819 4581 
L 3819 4041 
L 1113 4041 
L 1113 2638 
L 3647 2638 
L 3647 2100 
L 1113 2100 
L 1113 541 
L 3925 541 
L 3925 0 
L 506 0 
z
" transform="scale(0.015625)"/>
      </defs>
      <use xlink:href="#ArialMT-4d"/>
      <use xlink:href="#ArialMT-53" transform="translate(83.300781 0)"/>
      <use xlink:href="#ArialMT-45" transform="translate(150 0)"/>
     </g>
    </g>
   </g>
   <g id="line2d_2">
    <path d="M 55.2 190.282083 
L 326.331 190.282083 
" clip-path="url(#pf8b3a6bf09)" style="fill: none; stroke-dasharray: 0.8,1.32; stroke-dashoffset: 0; stroke: #221331; stroke-width: 0.8"/>
   </g>
   <g id="line2d_3">
    <path d="M 55.2 303.635967 
L 326.331 303.635967 
" clip-path="url(#pf8b3a6bf09)" style="fill: none; stroke-dasharray: 0.8,1.32; stroke-dashoffset: 0; stroke: #221331; stroke-width: 0.8"/>
   </g>
   <g id="line2d_4">
    <path d="M 55.2 258.434806 
L 326.331 258.434806 
" clip-path="url(#pf8b3a6bf09)" style="fill: none; stroke-dasharray: 0.8,1.32; stroke-dashoffset: 0; stroke: #221331; stroke-width: 0.8"/>
   </g>
   <g id="line2d_5">
    <path d="M 67.524136 220.993051 
L 105.273743 221.10039 
L 110.455062 221.352214 
L 114.896192 221.791765 
L 119.337322 222.458956 
L 132.167254 224.557077 
L 137.842032 225.402184 
L 140.802785 226.071851 
L 143.763538 226.963087 
L 147.71121 228.412872 
L 158.567306 232.759631 
L 161.528059 234.176542 
L 163.995354 235.597979 
L 166.215919 237.118876 
L 168.436484 238.888956 
L 170.903779 241.134368 
L 173.864532 244.135479 
L 182.746793 253.374572 
L 184.967358 255.275717 
L 186.941193 256.697788 
L 188.6683 257.70143 
L 190.395406 258.458804 
L 192.122512 258.956257 
L 193.602889 259.170103 
L 195.083265 259.185949 
L 196.563642 259.003588 
L 198.044019 258.62228 
L 199.524396 258.038128 
L 201.004772 257.240822 
L 202.485149 256.209892 
L 203.965526 254.910788 
L 205.445903 253.291287 
L 206.67955 251.645393 
L 207.913197 249.674466 
L 209.146845 247.317429 
L 210.380492 244.508061 
L 211.614139 241.180476 
L 212.847786 237.276802 
L 214.328163 231.776497 
L 215.80854 225.37118 
L 217.535646 216.830352 
L 219.756211 204.512244 
L 227.404824 160.554744 
L 229.37866 150.975043 
L 231.352496 142.517825 
L 233.079602 136.033843 
L 234.806708 130.35545 
L 236.533814 125.41275 
L 238.26092 121.126868 
L 239.988027 117.41819 
L 241.715133 114.211265 
L 243.442239 111.437353 
L 245.169345 109.035421 
L 247.143181 106.677863 
L 249.117017 104.668975 
L 251.090852 102.951987 
L 253.311417 101.310832 
L 255.778712 99.784111 
L 258.246006 98.511628 
L 260.96003 97.348696 
L 264.167513 96.228783 
L 267.621726 95.263462 
L 271.569397 94.393723 
L 276.257257 93.602206 
L 281.685305 92.922377 
L 288.100271 92.347281 
L 296.242343 91.854094 
L 306.60498 91.464447 
L 314.006864 91.287421 
L 314.006864 91.287421 
" clip-path="url(#pf8b3a6bf09)" style="fill: none; stroke: #d3d3d3; stroke-width: 1.5; stroke-linecap: round"/>
   </g>
   <g id="line2d_6">
    <path d="M 67.524136 171.722524 
L 105.027014 171.829508 
L 110.208332 172.084461 
L 114.649463 172.530792 
L 119.337322 173.245508 
L 128.959771 174.809158 
L 139.322408 176.188418 
L 142.036432 176.899699 
L 144.997186 177.910432 
L 149.685045 179.795239 
L 161.28133 184.69447 
L 163.748624 186.052858 
L 166.215919 187.678109 
L 168.683214 189.599035 
L 171.397238 192.032126 
L 174.85145 195.476292 
L 181.019686 201.701247 
L 183.486981 203.863275 
L 185.707546 205.504556 
L 187.681382 206.664662 
L 189.408488 207.419225 
L 191.135594 207.913188 
L 192.615971 208.121994 
L 194.096348 208.13041 
L 195.576724 207.93885 
L 197.057101 207.548504 
L 198.784207 206.840993 
L 200.511314 205.852401 
L 201.99169 204.761392 
L 203.472067 203.412009 
L 204.952444 201.753435 
L 206.432821 199.713353 
L 207.666468 197.654231 
L 208.900115 195.199586 
L 210.133762 192.278038 
L 211.36741 188.817637 
L 212.601057 184.753768 
L 214.081434 179.015235 
L 215.56181 172.31097 
L 217.288917 163.33387 
L 219.262752 151.822268 
L 222.716965 130.023357 
L 225.924448 110.25058 
L 228.145013 97.874021 
L 230.118848 88.080892 
L 232.092684 79.488242 
L 233.81979 72.925293 
L 235.546896 67.189868 
L 237.274003 62.202915 
L 239.001109 57.879975 
L 240.728215 54.138254 
L 242.455321 50.900633 
L 244.182427 48.097596 
L 246.156263 45.347984 
L 248.130099 43.007405 
L 250.103934 41.009564 
L 252.324499 39.103103 
L 254.545065 37.495736 
L 257.012359 35.99696 
L 259.726383 34.631422 
L 262.687137 33.411858 
L 265.89462 32.341281 
L 269.595561 31.356851 
L 273.789962 30.487706 
L 278.477822 29.74608 
L 284.152599 29.08186 
L 291.061024 28.512132 
L 299.449826 28.051852 
L 310.305922 27.687014 
L 314.006864 27.601551 
L 314.006864 27.601551 
" clip-path="url(#pf8b3a6bf09)" style="fill: none; stroke-dasharray: 3.7,1.6; stroke-dashoffset: 0; stroke: #d3d3d3"/>
   </g>
   <g id="line2d_7">
    <path d="M 67.524136 255.121021 
L 103.546637 255.22792 
L 108.481226 255.479215 
L 112.428897 255.90434 
L 115.63638 256.462545 
L 118.597134 257.190728 
L 121.311158 258.070411 
L 124.025182 259.182314 
L 126.739206 260.548461 
L 129.45323 262.171424 
L 132.660713 264.37264 
L 142.529891 271.41712 
L 145.243915 272.968049 
L 147.957939 274.269253 
L 150.918693 275.432455 
L 154.372905 276.536228 
L 167.449566 280.439686 
L 171.643967 282.121333 
L 178.058933 284.738828 
L 180.526228 285.488946 
L 182.500063 285.878539 
L 184.473899 286.032792 
L 186.201005 285.949989 
L 187.928111 285.652199 
L 189.655217 285.13813 
L 191.629053 284.295663 
L 193.602889 283.202529 
L 195.823454 281.708409 
L 198.290748 279.764741 
L 200.758043 277.549333 
L 203.225338 275.038987 
L 205.445903 272.446914 
L 207.419738 269.764324 
L 209.146845 267.008174 
L 210.627221 264.244204 
L 212.107598 261.014536 
L 213.587975 257.224055 
L 215.068351 252.783308 
L 216.548728 247.622854 
L 218.029105 241.709719 
L 219.756211 233.887333 
L 221.730047 223.899085 
L 224.6908 207.608253 
L 228.885201 184.5685 
L 231.105766 173.505291 
L 233.079602 164.660859 
L 235.053437 156.817676 
L 237.027273 149.958152 
L 238.754379 144.710347 
L 240.481486 140.101982 
L 242.208592 136.065459 
L 243.935698 132.533596 
L 245.909534 129.034236 
L 247.883369 126.02637 
L 249.857205 123.435646 
L 251.831041 121.198381 
L 254.051606 119.03716 
L 256.272171 117.19138 
L 258.739465 115.447113 
L 261.20676 113.969643 
L 263.920784 112.59718 
L 266.881537 111.34615 
L 270.08902 110.224603 
L 273.789962 109.17048 
L 277.984363 108.218337 
L 282.672223 107.38717 
L 288.100271 106.654225 
L 294.515237 106.01832 
L 302.16385 105.487505 
L 311.786299 105.051192 
L 314.006864 104.976467 
L 314.006864 104.976467 
" clip-path="url(#pf8b3a6bf09)" style="fill: none; stroke: #000000; stroke-width: 1.5; stroke-linecap: round"/>
   </g>
   <g id="line2d_8">
    <path d="M 67.524136 213.752604 
L 103.299908 213.857772 
L 108.234497 214.110273 
L 111.935439 214.507854 
L 115.142922 215.064146 
L 118.103675 215.79938 
L 120.817699 216.697308 
L 123.531723 217.843305 
L 125.999018 219.123332 
L 128.713042 220.801117 
L 131.673795 222.920126 
L 136.361655 226.617543 
L 140.309326 229.617822 
L 143.02335 231.409901 
L 145.490645 232.78417 
L 147.957939 233.910432 
L 150.671963 234.892636 
L 153.632717 235.723543 
L 157.827118 236.644197 
L 165.72246 238.345031 
L 170.41032 239.637111 
L 176.825286 241.431677 
L 179.29258 241.882666 
L 181.266416 242.044283 
L 183.240252 241.979062 
L 184.967358 241.708698 
L 186.694464 241.22494 
L 188.42157 240.52443 
L 190.395406 239.467014 
L 192.369241 238.157731 
L 194.589807 236.423572 
L 197.303831 233.994853 
L 200.264584 231.016203 
L 202.978608 227.955679 
L 205.199173 225.111824 
L 207.173009 222.192439 
L 208.900115 219.205186 
L 210.380492 216.216164 
L 211.860869 212.729167 
L 213.341245 208.642575 
L 214.821622 203.861076 
L 216.301999 198.310248 
L 217.782376 191.953462 
L 219.509482 183.544158 
L 221.483317 172.797542 
L 224.444071 155.229989 
L 228.885201 128.88383 
L 231.105766 116.982097 
L 233.079602 107.473502 
L 235.053437 99.042119 
L 237.027273 91.665896 
L 238.754379 86.019552 
L 240.481486 81.057578 
L 242.208592 76.707514 
L 243.935698 72.897565 
L 245.662804 69.560232 
L 247.63664 66.246451 
L 249.610475 63.389345 
L 251.584311 60.919656 
L 253.558147 58.778648 
L 255.778712 56.701632 
L 257.999277 54.919755 
L 260.466572 53.228057 
L 263.180596 51.656561 
L 266.141349 50.224084 
L 269.348832 48.939846 
L 272.803044 47.8054 
L 276.750716 46.757727 
L 281.191846 45.82514 
L 286.126435 45.021285 
L 291.801213 44.321842 
L 298.709637 43.704358 
L 307.098439 43.191979 
L 314.006864 42.902801 
L 314.006864 42.902801 
" clip-path="url(#pf8b3a6bf09)" style="fill: none; stroke-dasharray: 3.7,1.6; stroke-dashoffset: 0; stroke: #000000"/>
   </g>
   <g id="line2d_9">
    <defs>
     <path id="m5e2775df76" d="M 0 3 
C 0.795609 3 1.55874 2.683901 2.12132 2.12132 
C 2.683901 1.55874 3 0.795609 3 0 
C 3 -0.795609 2.683901 -1.55874 2.12132 -2.12132 
C 1.55874 -2.683901 0.795609 -3 0 -3 
C -0.795609 -3 -1.55874 -2.683901 -2.12132 -2.12132 
C -2.683901 -1.55874 -3 -0.795609 -3 0 
C -3 0.795609 -2.683901 1.55874 -2.12132 2.12132 
C -1.55874 2.683901 -0.795609 3 0 3 
z
" style="stroke: #921c5b"/>
    </defs>
    <g clip-path="url(#pf8b3a6bf09)">
     <use xlink:href="#m5e2775df76" x="67.524136" y="213.752604" style="fill: #921c5b; stroke: #921c5b"/>
    </g>
   </g>
   <g id="line2d_10">
    <g clip-path="url(#pf8b3a6bf09)">
     <use xlink:href="#m5e2775df76" x="67.524136" y="171.722524" style="fill: #921c5b; stroke: #921c5b"/>
    </g>
   </g>
   <g id="line2d_11">
    <g clip-path="url(#pf8b3a6bf09)">
     <use xlink:href="#m5e2775df76" x="67.524136" y="255.121021" style="fill: #921c5b; stroke: #921c5b"/>
    </g>
   </g>
   <g id="line2d_12">
    <g clip-path="url(#pf8b3a6bf09)">
     <use xlink:href="#m5e2775df76" x="67.524136" y="220.993051" style="fill: #921c5b; stroke: #921c5b"/>
    </g>
   </g>
   <g id="patch_3">
    <path d="M 55.2 317.437687 
L 55.2 13.79983 
" style="fill: none; stroke: #262626; stroke-linejoin: miter; stroke-linecap: square"/>
   </g>
   <g id="patch_4">
    <path d="M 326.331 317.437687 
L 326.331 13.79983 
" style="fill: none; stroke: #262626; stroke-linejoin: miter; stroke-linecap: square"/>
   </g>
   <g id="patch_5">
    <path d="M 55.2 317.437687 
L 326.331 317.437687 
" style="fill: none; stroke: #262626; stroke-linejoin: miter; stroke-linecap: square"/>
   </g>
   <g id="patch_6">
    <path d="M 55.2 13.79983 
L 326.331 13.79983 
" style="fill: none; stroke: #262626; stroke-linejoin: miter; stroke-linecap: square"/>
   </g>
   <g id="text_18">
    <!-- $T = 0.00238$ -->
    <g style="fill: #f47d57" transform="translate(130.900628 47.370804) scale(0.09 -0.09)">
     <defs>
      <path id="DejaVuSans-3d" d="M 678 2906 
L 4684 2906 
L 4684 2381 
L 678 2381 
L 678 2906 
z
M 678 1631 
L 4684 1631 
L 4684 1100 
L 678 1100 
L 678 1631 
z
" transform="scale(0.015625)"/>
      <path id="DejaVuSans-30" d="M 2034 4250 
Q 1547 4250 1301 3770 
Q 1056 3291 1056 2328 
Q 1056 1369 1301 889 
Q 1547 409 2034 409 
Q 2525 409 2770 889 
Q 3016 1369 3016 2328 
Q 3016 3291 2770 3770 
Q 2525 4250 2034 4250 
z
M 2034 4750 
Q 2819 4750 3233 4129 
Q 3647 3509 3647 2328 
Q 3647 1150 3233 529 
Q 2819 -91 2034 -91 
Q 1250 -91 836 529 
Q 422 1150 422 2328 
Q 422 3509 836 4129 
Q 1250 4750 2034 4750 
z
" transform="scale(0.015625)"/>
      <path id="DejaVuSans-2e" d="M 684 794 
L 1344 794 
L 1344 0 
L 684 0 
L 684 794 
z
" transform="scale(0.015625)"/>
      <path id="DejaVuSans-32" d="M 1228 531 
L 3431 531 
L 3431 0 
L 469 0 
L 469 531 
Q 828 903 1448 1529 
Q 2069 2156 2228 2338 
Q 2531 2678 2651 2914 
Q 2772 3150 2772 3378 
Q 2772 3750 2511 3984 
Q 2250 4219 1831 4219 
Q 1534 4219 1204 4116 
Q 875 4013 500 3803 
L 500 4441 
Q 881 4594 1212 4672 
Q 1544 4750 1819 4750 
Q 2544 4750 2975 4387 
Q 3406 4025 3406 3419 
Q 3406 3131 3298 2873 
Q 3191 2616 2906 2266 
Q 2828 2175 2409 1742 
Q 1991 1309 1228 531 
z
" transform="scale(0.015625)"/>
      <path id="DejaVuSans-33" d="M 2597 2516 
Q 3050 2419 3304 2112 
Q 3559 1806 3559 1356 
Q 3559 666 3084 287 
Q 2609 -91 1734 -91 
Q 1441 -91 1130 -33 
Q 819 25 488 141 
L 488 750 
Q 750 597 1062 519 
Q 1375 441 1716 441 
Q 2309 441 2620 675 
Q 2931 909 2931 1356 
Q 2931 1769 2642 2001 
Q 2353 2234 1838 2234 
L 1294 2234 
L 1294 2753 
L 1863 2753 
Q 2328 2753 2575 2939 
Q 2822 3125 2822 3475 
Q 2822 3834 2567 4026 
Q 2313 4219 1838 4219 
Q 1578 4219 1281 4162 
Q 984 4106 628 3988 
L 628 4550 
Q 988 4650 1302 4700 
Q 1616 4750 1894 4750 
Q 2613 4750 3031 4423 
Q 3450 4097 3450 3541 
Q 3450 3153 3228 2886 
Q 3006 2619 2597 2516 
z
" transform="scale(0.015625)"/>
      <path id="DejaVuSans-38" d="M 2034 2216 
Q 1584 2216 1326 1975 
Q 1069 1734 1069 1313 
Q 1069 891 1326 650 
Q 1584 409 2034 409 
Q 2484 409 2743 651 
Q 3003 894 3003 1313 
Q 3003 1734 2745 1975 
Q 2488 2216 2034 2216 
z
M 1403 2484 
Q 997 2584 770 2862 
Q 544 3141 544 3541 
Q 544 4100 942 4425 
Q 1341 4750 2034 4750 
Q 2731 4750 3128 4425 
Q 3525 4100 3525 3541 
Q 3525 3141 3298 2862 
Q 3072 2584 2669 2484 
Q 3125 2378 3379 2068 
Q 3634 1759 3634 1313 
Q 3634 634 3220 271 
Q 2806 -91 2034 -91 
Q 1263 -91 848 271 
Q 434 634 434 1313 
Q 434 1759 690 2068 
Q 947 2378 1403 2484 
z
M 1172 3481 
Q 1172 3119 1398 2916 
Q 1625 2713 2034 2713 
Q 2441 2713 2670 2916 
Q 2900 3119 2900 3481 
Q 2900 3844 2670 4047 
Q 2441 4250 2034 4250 
Q 1625 4250 1398 4047 
Q 1172 3844 1172 3481 
z
" transform="scale(0.015625)"/>
     </defs>
     <use xlink:href="#DejaVuSans-Oblique-54" transform="translate(0 0.78125)"/>
     <use xlink:href="#DejaVuSans-3d" transform="translate(80.566406 0.78125)"/>
     <use xlink:href="#DejaVuSans-30" transform="translate(183.837891 0.78125)"/>
     <use xlink:href="#DejaVuSans-2e" transform="translate(247.460938 0.78125)"/>
     <use xlink:href="#DejaVuSans-30" transform="translate(279.248047 0.78125)"/>
     <use xlink:href="#DejaVuSans-30" transform="translate(342.871094 0.78125)"/>
     <use xlink:href="#DejaVuSans-32" transform="translate(406.494141 0.78125)"/>
     <use xlink:href="#DejaVuSans-33" transform="translate(470.117188 0.78125)"/>
     <use xlink:href="#DejaVuSans-38" transform="translate(533.740234 0.78125)"/>
    </g>
   </g>
   <g id="text_19">
    <!-- $\lambda = 0.2\,h^{-1}$ -->
    <g transform="translate(109.18455 252.305554) scale(0.09 -0.09)">
     <defs>
      <path id="DejaVuSans-Oblique-3bb" d="M 2350 4316 
L 3125 0 
L 2516 0 
L 2038 2588 
L 328 0 
L -281 0 
L 1903 3356 
L 1794 3975 
Q 1725 4369 1391 4369 
L 1091 4369 
L 1184 4863 
L 1550 4856 
Q 2253 4847 2350 4316 
z
" transform="scale(0.015625)"/>
      <path id="DejaVuSans-Oblique-68" d="M 3566 2113 
L 3156 0 
L 2578 0 
L 2988 2091 
Q 3016 2238 3031 2350 
Q 3047 2463 3047 2528 
Q 3047 2791 2881 2937 
Q 2716 3084 2419 3084 
Q 1956 3084 1617 2771 
Q 1278 2459 1178 1941 
L 800 0 
L 225 0 
L 1172 4863 
L 1747 4863 
L 1375 2950 
Q 1594 3244 1934 3414 
Q 2275 3584 2650 3584 
Q 3113 3584 3367 3334 
Q 3622 3084 3622 2631 
Q 3622 2519 3608 2391 
Q 3594 2263 3566 2113 
z
" transform="scale(0.015625)"/>
      <path id="DejaVuSans-2212" d="M 678 2272 
L 4684 2272 
L 4684 1741 
L 678 1741 
L 678 2272 
z
" transform="scale(0.015625)"/>
      <path id="DejaVuSans-31" d="M 794 531 
L 1825 531 
L 1825 4091 
L 703 3866 
L 703 4441 
L 1819 4666 
L 2450 4666 
L 2450 531 
L 3481 531 
L 3481 0 
L 794 0 
L 794 531 
z
" transform="scale(0.015625)"/>
     </defs>
     <use xlink:href="#DejaVuSans-Oblique-3bb" transform="translate(0 0.684375)"/>
     <use xlink:href="#DejaVuSans-3d" transform="translate(78.662109 0.684375)"/>
     <use xlink:href="#DejaVuSans-30" transform="translate(181.933594 0.684375)"/>
     <use xlink:href="#DejaVuSans-2e" transform="translate(245.556641 0.684375)"/>
     <use xlink:href="#DejaVuSans-32" transform="translate(271.84375 0.684375)"/>
     <use xlink:href="#DejaVuSans-Oblique-68" transform="translate(351.702473 0.684375)"/>
     <use xlink:href="#DejaVuSans-2212" transform="translate(422.529088 38.965625) scale(0.7)"/>
     <use xlink:href="#DejaVuSans-31" transform="translate(481.181431 38.965625) scale(0.7)"/>
    </g>
   </g>
   <g id="text_20">
    <!-- $\lambda = 0.1\,h^{-1}$ -->
    <g transform="translate(109.18455 210.959836) scale(0.09 -0.09)">
     <use xlink:href="#DejaVuSans-Oblique-3bb" transform="translate(0 0.684375)"/>
     <use xlink:href="#DejaVuSans-3d" transform="translate(78.662109 0.684375)"/>
     <use xlink:href="#DejaVuSans-30" transform="translate(181.933594 0.684375)"/>
     <use xlink:href="#DejaVuSans-2e" transform="translate(245.556641 0.684375)"/>
     <use xlink:href="#DejaVuSans-31" transform="translate(277.34375 0.684375)"/>
     <use xlink:href="#DejaVuSans-Oblique-68" transform="translate(357.202473 0.684375)"/>
     <use xlink:href="#DejaVuSans-2212" transform="translate(428.029088 38.965625) scale(0.7)"/>
     <use xlink:href="#DejaVuSans-31" transform="translate(486.681431 38.965625) scale(0.7)"/>
    </g>
   </g>
   <g id="text_21">
    <!-- UNIFORM -->
    <g style="fill: #221331" transform="translate(331.75362 192.091693) scale(0.07 -0.07)">
     <defs>
      <path id="ArialMT-55" d="M 3500 4581 
L 4106 4581 
L 4106 1934 
Q 4106 1244 3950 837 
Q 3794 431 3386 176 
Q 2978 -78 2316 -78 
Q 1672 -78 1262 144 
Q 853 366 678 786 
Q 503 1206 503 1934 
L 503 4581 
L 1109 4581 
L 1109 1938 
Q 1109 1341 1220 1058 
Q 1331 775 1601 622 
Q 1872 469 2263 469 
Q 2931 469 3215 772 
Q 3500 1075 3500 1938 
L 3500 4581 
z
" transform="scale(0.015625)"/>
      <path id="ArialMT-4e" d="M 488 0 
L 488 4581 
L 1109 4581 
L 3516 984 
L 3516 4581 
L 4097 4581 
L 4097 0 
L 3475 0 
L 1069 3600 
L 1069 0 
L 488 0 
z
" transform="scale(0.015625)"/>
      <path id="ArialMT-49" d="M 597 0 
L 597 4581 
L 1203 4581 
L 1203 0 
L 597 0 
z
" transform="scale(0.015625)"/>
      <path id="ArialMT-46" d="M 525 0 
L 525 4581 
L 3616 4581 
L 3616 4041 
L 1131 4041 
L 1131 2622 
L 3281 2622 
L 3281 2081 
L 1131 2081 
L 1131 0 
L 525 0 
z
" transform="scale(0.015625)"/>
      <path id="ArialMT-4f" d="M 309 2231 
Q 309 3372 921 4017 
Q 1534 4663 2503 4663 
Q 3138 4663 3647 4359 
Q 4156 4056 4423 3514 
Q 4691 2972 4691 2284 
Q 4691 1588 4409 1038 
Q 4128 488 3612 205 
Q 3097 -78 2500 -78 
Q 1853 -78 1343 234 
Q 834 547 571 1087 
Q 309 1628 309 2231 
z
M 934 2222 
Q 934 1394 1379 917 
Q 1825 441 2497 441 
Q 3181 441 3623 922 
Q 4066 1403 4066 2288 
Q 4066 2847 3877 3264 
Q 3688 3681 3323 3911 
Q 2959 4141 2506 4141 
Q 1863 4141 1398 3698 
Q 934 3256 934 2222 
z
" transform="scale(0.015625)"/>
      <path id="ArialMT-52" d="M 503 0 
L 503 4581 
L 2534 4581 
Q 3147 4581 3465 4457 
Q 3784 4334 3975 4021 
Q 4166 3709 4166 3331 
Q 4166 2844 3850 2509 
Q 3534 2175 2875 2084 
Q 3116 1969 3241 1856 
Q 3506 1613 3744 1247 
L 4541 0 
L 3778 0 
L 3172 953 
Q 2906 1366 2734 1584 
Q 2563 1803 2427 1890 
Q 2291 1978 2150 2013 
Q 2047 2034 1813 2034 
L 1109 2034 
L 1109 0 
L 503 0 
z
M 1109 2559 
L 2413 2559 
Q 2828 2559 3062 2645 
Q 3297 2731 3419 2920 
Q 3541 3109 3541 3331 
Q 3541 3656 3305 3865 
Q 3069 4075 2559 4075 
L 1109 4075 
L 1109 2559 
z
" transform="scale(0.015625)"/>
     </defs>
     <use xlink:href="#ArialMT-55"/>
     <use xlink:href="#ArialMT-4e" transform="translate(72.216797 0)"/>
     <use xlink:href="#ArialMT-49" transform="translate(144.433594 0)"/>
     <use xlink:href="#ArialMT-46" transform="translate(172.216797 0)"/>
     <use xlink:href="#ArialMT-4f" transform="translate(233.300781 0)"/>
     <use xlink:href="#ArialMT-52" transform="translate(311.083984 0)"/>
     <use xlink:href="#ArialMT-4d" transform="translate(383.300781 0)"/>
    </g>
   </g>
   <g id="text_22">
    <!-- MAXENT -->
    <g style="fill: #221331" transform="translate(331.75362 305.445576) scale(0.07 -0.07)">
     <defs>
      <path id="ArialMT-41" d="M -9 0 
L 1750 4581 
L 2403 4581 
L 4278 0 
L 3588 0 
L 3053 1388 
L 1138 1388 
L 634 0 
L -9 0 
z
M 1313 1881 
L 2866 1881 
L 2388 3150 
Q 2169 3728 2063 4100 
Q 1975 3659 1816 3225 
L 1313 1881 
z
" transform="scale(0.015625)"/>
      <path id="ArialMT-58" d="M 28 0 
L 1800 2388 
L 238 4581 
L 959 4581 
L 1791 3406 
Q 2050 3041 2159 2844 
Q 2313 3094 2522 3366 
L 3444 4581 
L 4103 4581 
L 2494 2422 
L 4228 0 
L 3478 0 
L 2325 1634 
Q 2228 1775 2125 1941 
Q 1972 1691 1906 1597 
L 756 0 
L 28 0 
z
" transform="scale(0.015625)"/>
      <path id="ArialMT-54" d="M 1659 0 
L 1659 4041 
L 150 4041 
L 150 4581 
L 3781 4581 
L 3781 4041 
L 2266 4041 
L 2266 0 
L 1659 0 
z
" transform="scale(0.015625)"/>
     </defs>
     <use xlink:href="#ArialMT-4d"/>
     <use xlink:href="#ArialMT-41" transform="translate(83.300781 0)"/>
     <use xlink:href="#ArialMT-58" transform="translate(150 0)"/>
     <use xlink:href="#ArialMT-45" transform="translate(216.699219 0)"/>
     <use xlink:href="#ArialMT-4e" transform="translate(283.398438 0)"/>
     <use xlink:href="#ArialMT-54" transform="translate(355.615234 0)"/>
    </g>
   </g>
   <g id="text_23">
    <!-- FBA -->
    <g style="fill: #221331" transform="translate(331.75362 260.244415) scale(0.07 -0.07)">
     <defs>
      <path id="ArialMT-42" d="M 469 0 
L 469 4581 
L 2188 4581 
Q 2713 4581 3030 4442 
Q 3347 4303 3526 4014 
Q 3706 3725 3706 3409 
Q 3706 3116 3547 2856 
Q 3388 2597 3066 2438 
Q 3481 2316 3704 2022 
Q 3928 1728 3928 1328 
Q 3928 1006 3792 729 
Q 3656 453 3456 303 
Q 3256 153 2954 76 
Q 2653 0 2216 0 
L 469 0 
z
M 1075 2656 
L 2066 2656 
Q 2469 2656 2644 2709 
Q 2875 2778 2992 2937 
Q 3109 3097 3109 3338 
Q 3109 3566 3000 3739 
Q 2891 3913 2687 3977 
Q 2484 4041 1991 4041 
L 1075 4041 
L 1075 2656 
z
M 1075 541 
L 2216 541 
Q 2509 541 2628 563 
Q 2838 600 2978 687 
Q 3119 775 3209 942 
Q 3300 1109 3300 1328 
Q 3300 1584 3169 1773 
Q 3038 1963 2805 2039 
Q 2572 2116 2134 2116 
L 1075 2116 
L 1075 541 
z
" transform="scale(0.015625)"/>
     </defs>
     <use xlink:href="#ArialMT-46"/>
     <use xlink:href="#ArialMT-42" transform="translate(61.083984 0)"/>
     <use xlink:href="#ArialMT-41" transform="translate(127.783203 0)"/>
    </g>
   </g>
   <g id="legend_1">
    <g id="patch_7">
     <path d="M 338.05362 61.19608 
L 453.495495 61.19608 
Q 455.295495 61.19608 455.295495 59.39608 
L 455.295495 20.09983 
Q 455.295495 18.29983 453.495495 18.29983 
L 338.05362 18.29983 
Q 336.25362 18.29983 336.25362 20.09983 
L 336.25362 59.39608 
Q 336.25362 61.19608 338.05362 61.19608 
z
" style="fill: #ffffff; stroke: #000000; stroke-width: 0.8; stroke-linejoin: miter"/>
    </g>
    <g id="line2d_13">
     <path d="M 340.75362 26.14108 
L 349.75362 26.14108 
L 358.75362 26.14108 
" style="fill: none; stroke: #000000; stroke-width: 2; stroke-linecap: round"/>
    </g>
    <g id="text_24">
     <!-- $\lambda = \mathrm{GR}\ 0.2\ \mathrm{h}^{-1}$ -->
     <g style="fill: #262626" transform="translate(363.25362 29.29108) scale(0.09 -0.09)">
      <defs>
       <path id="DejaVuSans-47" d="M 3809 666 
L 3809 1919 
L 2778 1919 
L 2778 2438 
L 4434 2438 
L 4434 434 
Q 4069 175 3628 42 
Q 3188 -91 2688 -91 
Q 1594 -91 976 548 
Q 359 1188 359 2328 
Q 359 3472 976 4111 
Q 1594 4750 2688 4750 
Q 3144 4750 3555 4637 
Q 3966 4525 4313 4306 
L 4313 3634 
Q 3963 3931 3569 4081 
Q 3175 4231 2741 4231 
Q 1884 4231 1454 3753 
Q 1025 3275 1025 2328 
Q 1025 1384 1454 906 
Q 1884 428 2741 428 
Q 3075 428 3337 486 
Q 3600 544 3809 666 
z
" transform="scale(0.015625)"/>
       <path id="DejaVuSans-52" d="M 2841 2188 
Q 3044 2119 3236 1894 
Q 3428 1669 3622 1275 
L 4263 0 
L 3584 0 
L 2988 1197 
Q 2756 1666 2539 1819 
Q 2322 1972 1947 1972 
L 1259 1972 
L 1259 0 
L 628 0 
L 628 4666 
L 2053 4666 
Q 2853 4666 3247 4331 
Q 3641 3997 3641 3322 
Q 3641 2881 3436 2590 
Q 3231 2300 2841 2188 
z
M 1259 4147 
L 1259 2491 
L 2053 2491 
Q 2509 2491 2742 2702 
Q 2975 2913 2975 3322 
Q 2975 3731 2742 3939 
Q 2509 4147 2053 4147 
L 1259 4147 
z
" transform="scale(0.015625)"/>
       <path id="DejaVuSans-68" d="M 3513 2113 
L 3513 0 
L 2938 0 
L 2938 2094 
Q 2938 2591 2744 2837 
Q 2550 3084 2163 3084 
Q 1697 3084 1428 2787 
Q 1159 2491 1159 1978 
L 1159 0 
L 581 0 
L 581 4863 
L 1159 4863 
L 1159 2956 
Q 1366 3272 1645 3428 
Q 1925 3584 2291 3584 
Q 2894 3584 3203 3211 
Q 3513 2838 3513 2113 
z
" transform="scale(0.015625)"/>
      </defs>
      <use xlink:href="#DejaVuSans-Oblique-3bb" transform="translate(0 0.684375)"/>
      <use xlink:href="#DejaVuSans-3d" transform="translate(78.662109 0.684375)"/>
      <use xlink:href="#DejaVuSans-47" transform="translate(181.933594 0.684375)"/>
      <use xlink:href="#DejaVuSans-52" transform="translate(259.423828 0.684375)"/>
      <use xlink:href="#DejaVuSans-30" transform="translate(361.376628 0.684375)"/>
      <use xlink:href="#DejaVuSans-2e" transform="translate(424.999675 0.684375)"/>
      <use xlink:href="#DejaVuSans-32" transform="translate(451.286785 0.684375)"/>
      <use xlink:href="#DejaVuSans-68" transform="translate(547.38021 0.684375)"/>
      <use xlink:href="#DejaVuSans-2212" transform="translate(611.716147 38.965625) scale(0.7)"/>
      <use xlink:href="#DejaVuSans-31" transform="translate(670.368491 38.965625) scale(0.7)"/>
     </g>
    </g>
    <g id="line2d_14">
     <path d="M 340.75362 38.92108 
L 349.75362 38.92108 
L 358.75362 38.92108 
" style="fill: none; stroke: #d3d3d3; stroke-width: 2; stroke-linecap: round"/>
    </g>
    <g id="text_25">
     <!-- $\lambda = \mathrm{GR}\ 0.1\ \mathrm{h}^{-1}$ -->
     <g style="fill: #262626" transform="translate(363.25362 42.07108) scale(0.09 -0.09)">
      <use xlink:href="#DejaVuSans-Oblique-3bb" transform="translate(0 0.684375)"/>
      <use xlink:href="#DejaVuSans-3d" transform="translate(78.662109 0.684375)"/>
      <use xlink:href="#DejaVuSans-47" transform="translate(181.933594 0.684375)"/>
      <use xlink:href="#DejaVuSans-52" transform="translate(259.423828 0.684375)"/>
      <use xlink:href="#DejaVuSans-30" transform="translate(361.376628 0.684375)"/>
      <use xlink:href="#DejaVuSans-2e" transform="translate(424.999675 0.684375)"/>
      <use xlink:href="#DejaVuSans-31" transform="translate(456.786785 0.684375)"/>
      <use xlink:href="#DejaVuSans-68" transform="translate(552.88021 0.684375)"/>
      <use xlink:href="#DejaVuSans-2212" transform="translate(617.216147 38.965625) scale(0.7)"/>
      <use xlink:href="#DejaVuSans-31" transform="translate(675.868491 38.965625) scale(0.7)"/>
     </g>
    </g>
    <g id="line2d_15">
     <g>
      <use xlink:href="#m5e2775df76" x="349.75362" y="51.651861" style="fill: #921c5b; stroke: #921c5b"/>
     </g>
    </g>
    <g id="text_26">
     <!-- Flux Balance Analysis -->
     <g style="fill: #262626" transform="translate(363.25362 54.801861) scale(0.09 -0.09)">
      <defs>
       <path id="ArialMT-6c" d="M 409 0 
L 409 4581 
L 972 4581 
L 972 0 
L 409 0 
z
" transform="scale(0.015625)"/>
       <path id="ArialMT-75" d="M 2597 0 
L 2597 488 
Q 2209 -75 1544 -75 
Q 1250 -75 995 37 
Q 741 150 617 320 
Q 494 491 444 738 
Q 409 903 409 1263 
L 409 3319 
L 972 3319 
L 972 1478 
Q 972 1038 1006 884 
Q 1059 663 1231 536 
Q 1403 409 1656 409 
Q 1909 409 2131 539 
Q 2353 669 2445 892 
Q 2538 1116 2538 1541 
L 2538 3319 
L 3100 3319 
L 3100 0 
L 2597 0 
z
" transform="scale(0.015625)"/>
       <path id="ArialMT-78" d="M 47 0 
L 1259 1725 
L 138 3319 
L 841 3319 
L 1350 2541 
Q 1494 2319 1581 2169 
Q 1719 2375 1834 2534 
L 2394 3319 
L 3066 3319 
L 1919 1756 
L 3153 0 
L 2463 0 
L 1781 1031 
L 1600 1309 
L 728 0 
L 47 0 
z
" transform="scale(0.015625)"/>
       <path id="ArialMT-20" transform="scale(0.015625)"/>
       <path id="ArialMT-61" d="M 2588 409 
Q 2275 144 1986 34 
Q 1697 -75 1366 -75 
Q 819 -75 525 192 
Q 231 459 231 875 
Q 231 1119 342 1320 
Q 453 1522 633 1644 
Q 813 1766 1038 1828 
Q 1203 1872 1538 1913 
Q 2219 1994 2541 2106 
Q 2544 2222 2544 2253 
Q 2544 2597 2384 2738 
Q 2169 2928 1744 2928 
Q 1347 2928 1158 2789 
Q 969 2650 878 2297 
L 328 2372 
Q 403 2725 575 2942 
Q 747 3159 1072 3276 
Q 1397 3394 1825 3394 
Q 2250 3394 2515 3294 
Q 2781 3194 2906 3042 
Q 3031 2891 3081 2659 
Q 3109 2516 3109 2141 
L 3109 1391 
Q 3109 606 3145 398 
Q 3181 191 3288 0 
L 2700 0 
Q 2613 175 2588 409 
z
M 2541 1666 
Q 2234 1541 1622 1453 
Q 1275 1403 1131 1340 
Q 988 1278 909 1158 
Q 831 1038 831 891 
Q 831 666 1001 516 
Q 1172 366 1500 366 
Q 1825 366 2078 508 
Q 2331 650 2450 897 
Q 2541 1088 2541 1459 
L 2541 1666 
z
" transform="scale(0.015625)"/>
       <path id="ArialMT-6e" d="M 422 0 
L 422 3319 
L 928 3319 
L 928 2847 
Q 1294 3394 1984 3394 
Q 2284 3394 2536 3286 
Q 2788 3178 2913 3003 
Q 3038 2828 3088 2588 
Q 3119 2431 3119 2041 
L 3119 0 
L 2556 0 
L 2556 2019 
Q 2556 2363 2490 2533 
Q 2425 2703 2258 2804 
Q 2091 2906 1866 2906 
Q 1506 2906 1245 2678 
Q 984 2450 984 1813 
L 984 0 
L 422 0 
z
" transform="scale(0.015625)"/>
       <path id="ArialMT-63" d="M 2588 1216 
L 3141 1144 
Q 3050 572 2676 248 
Q 2303 -75 1759 -75 
Q 1078 -75 664 370 
Q 250 816 250 1647 
Q 250 2184 428 2587 
Q 606 2991 970 3192 
Q 1334 3394 1763 3394 
Q 2303 3394 2647 3120 
Q 2991 2847 3088 2344 
L 2541 2259 
Q 2463 2594 2264 2762 
Q 2066 2931 1784 2931 
Q 1359 2931 1093 2626 
Q 828 2322 828 1663 
Q 828 994 1084 691 
Q 1341 388 1753 388 
Q 2084 388 2306 591 
Q 2528 794 2588 1216 
z
" transform="scale(0.015625)"/>
       <path id="ArialMT-65" d="M 2694 1069 
L 3275 997 
Q 3138 488 2766 206 
Q 2394 -75 1816 -75 
Q 1088 -75 661 373 
Q 234 822 234 1631 
Q 234 2469 665 2931 
Q 1097 3394 1784 3394 
Q 2450 3394 2872 2941 
Q 3294 2488 3294 1666 
Q 3294 1616 3291 1516 
L 816 1516 
Q 847 969 1125 678 
Q 1403 388 1819 388 
Q 2128 388 2347 550 
Q 2566 713 2694 1069 
z
M 847 1978 
L 2700 1978 
Q 2663 2397 2488 2606 
Q 2219 2931 1791 2931 
Q 1403 2931 1139 2672 
Q 875 2413 847 1978 
z
" transform="scale(0.015625)"/>
       <path id="ArialMT-79" d="M 397 -1278 
L 334 -750 
Q 519 -800 656 -800 
Q 844 -800 956 -737 
Q 1069 -675 1141 -563 
Q 1194 -478 1313 -144 
Q 1328 -97 1363 -6 
L 103 3319 
L 709 3319 
L 1400 1397 
Q 1534 1031 1641 628 
Q 1738 1016 1872 1384 
L 2581 3319 
L 3144 3319 
L 1881 -56 
Q 1678 -603 1566 -809 
Q 1416 -1088 1222 -1217 
Q 1028 -1347 759 -1347 
Q 597 -1347 397 -1278 
z
" transform="scale(0.015625)"/>
       <path id="ArialMT-73" d="M 197 991 
L 753 1078 
Q 800 744 1014 566 
Q 1228 388 1613 388 
Q 2000 388 2187 545 
Q 2375 703 2375 916 
Q 2375 1106 2209 1216 
Q 2094 1291 1634 1406 
Q 1016 1563 777 1677 
Q 538 1791 414 1992 
Q 291 2194 291 2438 
Q 291 2659 392 2848 
Q 494 3038 669 3163 
Q 800 3259 1026 3326 
Q 1253 3394 1513 3394 
Q 1903 3394 2198 3281 
Q 2494 3169 2634 2976 
Q 2775 2784 2828 2463 
L 2278 2388 
Q 2241 2644 2061 2787 
Q 1881 2931 1553 2931 
Q 1166 2931 1000 2803 
Q 834 2675 834 2503 
Q 834 2394 903 2306 
Q 972 2216 1119 2156 
Q 1203 2125 1616 2013 
Q 2213 1853 2448 1751 
Q 2684 1650 2818 1456 
Q 2953 1263 2953 975 
Q 2953 694 2789 445 
Q 2625 197 2315 61 
Q 2006 -75 1616 -75 
Q 969 -75 630 194 
Q 291 463 197 991 
z
" transform="scale(0.015625)"/>
       <path id="ArialMT-69" d="M 425 3934 
L 425 4581 
L 988 4581 
L 988 3934 
L 425 3934 
z
M 425 0 
L 425 3319 
L 988 3319 
L 988 0 
L 425 0 
z
" transform="scale(0.015625)"/>
      </defs>
      <use xlink:href="#ArialMT-46"/>
      <use xlink:href="#ArialMT-6c" transform="translate(61.083984 0)"/>
      <use xlink:href="#ArialMT-75" transform="translate(83.300781 0)"/>
      <use xlink:href="#ArialMT-78" transform="translate(138.916016 0)"/>
      <use xlink:href="#ArialMT-20" transform="translate(188.916016 0)"/>
      <use xlink:href="#ArialMT-42" transform="translate(216.699219 0)"/>
      <use xlink:href="#ArialMT-61" transform="translate(283.398438 0)"/>
      <use xlink:href="#ArialMT-6c" transform="translate(339.013672 0)"/>
      <use xlink:href="#ArialMT-61" transform="translate(361.230469 0)"/>
      <use xlink:href="#ArialMT-6e" transform="translate(416.845703 0)"/>
      <use xlink:href="#ArialMT-63" transform="translate(472.460938 0)"/>
      <use xlink:href="#ArialMT-65" transform="translate(522.460938 0)"/>
      <use xlink:href="#ArialMT-20" transform="translate(578.076172 0)"/>
      <use xlink:href="#ArialMT-41" transform="translate(600.359375 0)"/>
      <use xlink:href="#ArialMT-6e" transform="translate(667.058594 0)"/>
      <use xlink:href="#ArialMT-61" transform="translate(722.673828 0)"/>
      <use xlink:href="#ArialMT-6c" transform="translate(778.289062 0)"/>
      <use xlink:href="#ArialMT-79" transform="translate(800.505859 0)"/>
      <use xlink:href="#ArialMT-73" transform="translate(850.505859 0)"/>
      <use xlink:href="#ArialMT-69" transform="translate(900.505859 0)"/>
      <use xlink:href="#ArialMT-73" transform="translate(922.722656 0)"/>
     </g>
    </g>
   </g>
  </g>
 </g>
 <defs>
  <clipPath id="pf8b3a6bf09">
   <rect x="55.2" y="13.79983" width="271.131" height="303.637857"/>
  </clipPath>
 </defs>
</svg>
