<?xml version="1.0" encoding="utf-8" standalone="no"?>
<!DOCTYPE svg PUBLIC "-//W3C//DTD SVG 1.1//EN"
  "http://www.w3.org/Graphics/SVG/1.1/DTD/svg11.dtd">
<svg xmlns:xlink="http://www.w3.org/1999/xlink" width="855.896875pt" height="280.074531pt" viewBox="0 0 855.896875 280.074531" xmlns="http://www.w3.org/2000/svg" version="1.1">
 <metadata>
  <rdf:RDF xmlns:dc="http://purl.org/dc/elements/1.1/" xmlns:cc="http://creativecommons.org/ns#" xmlns:rdf="http://www.w3.org/1999/02/22-rdf-syntax-ns#">
   <cc:Work>
    <dc:type rdf:resource="http://purl.org/dc/dcmitype/StillImage"/>
    <dc:date>2025-08-12T14:33:52.247776</dc:date>
    <dc:format>image/svg+xml</dc:format>
    <dc:creator>
     <cc:Agent>
      <dc:title>Matplotlib v3.10.1, https://matplotlib.org/</dc:title>
     </cc:Agent>
    </dc:creator>
   </cc:Work>
  </rdf:RDF>
 </metadata>
 <defs>
  <style type="text/css">*{stroke-linejoin: round; stroke-linecap: butt}</style>
 </defs>
 <g id="figure_1">
  <g id="patch_1">
   <path d="M 0 280.074531 
L 855.896875 280.074531 
L 855.896875 0 
L 0 0 
z
" style="fill: #ffffff"/>
  </g>
  <g id="axes_1">
   <g id="patch_2">
    <path d="M 34.240625 242.518281 
L 281.665625 242.518281 
L 281.665625 21.558281 
L 34.240625 21.558281 
z
" style="fill: #f2f2f2"/>
   </g>
   <g id="PathCollection_1">
    <defs>
     <path id="mabd5033607" d="M 0 2.738613 
C 0.726289 2.738613 1.422928 2.450055 1.936492 1.936492 
C 2.450055 1.422928 2.738613 0.726289 2.738613 0 
C 2.738613 -0.726289 2.450055 -1.422928 1.936492 -1.936492 
C 1.422928 -2.450055 0.726289 -2.738613 0 -2.738613 
C -0.726289 -2.738613 -1.422928 -2.450055 -1.936492 -1.936492 
C -2.450055 -1.422928 -2.738613 -0.726289 -2.738613 0 
C -2.738613 0.726289 -2.450055 1.422928 -1.936492 1.936492 
C -1.422928 2.450055 -0.726289 2.738613 0 2.738613 
z
" style="stroke: #d92847"/>
    </defs>
    <g clip-path="url(#p29ce7cc17e)">
     <use xlink:href="#mabd5033607" x="46.043099" y="63.123404" style="fill: #d92847; stroke: #d92847"/>
     <use xlink:href="#mabd5033607" x="58.750117" y="66.490408" style="fill: #d92847; stroke: #d92847"/>
     <use xlink:href="#mabd5033607" x="72.391781" y="71.935985" style="fill: #d92847; stroke: #d92847"/>
     <use xlink:href="#mabd5033607" x="87.543189" y="78.789867" style="fill: #d92847; stroke: #d92847"/>
     <use xlink:href="#mabd5033607" x="101.183112" y="84.468643" style="fill: #d92847; stroke: #d92847"/>
     <use xlink:href="#mabd5033607" x="115.200762" y="90.460629" style="fill: #d92847; stroke: #d92847"/>
     <use xlink:href="#mabd5033607" x="129.38995" y="98.930103" style="fill: #d92847; stroke: #d92847"/>
     <use xlink:href="#mabd5033607" x="143.20821" y="106.175782" style="fill: #d92847; stroke: #d92847"/>
     <use xlink:href="#mabd5033607" x="158.145921" y="116.200029" style="fill: #d92847; stroke: #d92847"/>
     <use xlink:href="#mabd5033607" x="172.523857" y="124.841655" style="fill: #d92847; stroke: #d92847"/>
     <use xlink:href="#mabd5033607" x="184.788855" y="136.509" style="fill: #d92847; stroke: #d92847"/>
     <use xlink:href="#mabd5033607" x="201.702986" y="161.796979" style="fill: #d92847; stroke: #d92847"/>
     <use xlink:href="#mabd5033607" x="212.120051" y="191.904544" style="fill: #d92847; stroke: #d92847"/>
     <use xlink:href="#mabd5033607" x="228.00793" y="227.386502" style="fill: #d92847; stroke: #d92847"/>
     <use xlink:href="#mabd5033607" x="241.029168" y="239.574772" style="fill: #d92847; stroke: #d92847"/>
     <use xlink:href="#mabd5033607" x="263.816334" y="241.810234" style="fill: #d92847; stroke: #d92847"/>
    </g>
   </g>
   <g id="PathCollection_2">
    <defs>
     <path id="mfde1d63561" d="M 0 2.738613 
C 0.726289 2.738613 1.422928 2.450055 1.936492 1.936492 
C 2.450055 1.422928 2.738613 0.726289 2.738613 0 
C 2.738613 -0.726289 2.450055 -1.422928 1.936492 -1.936492 
C 1.422928 -2.450055 0.726289 -2.738613 0 -2.738613 
C -0.726289 -2.738613 -1.422928 -2.450055 -1.936492 -1.936492 
C -2.450055 -1.422928 -2.738613 -0.726289 -2.738613 0 
C -2.738613 0.726289 -2.450055 1.422928 -1.936492 1.936492 
C -1.422928 2.450055 -0.726289 2.738613 0 2.738613 
z
" style="stroke: #35a1ab"/>
    </defs>
    <g clip-path="url(#p29ce7cc17e)">
     <use xlink:href="#mfde1d63561" x="45.487216" y="35.760552" style="fill: #35a1ab; stroke: #35a1ab"/>
     <use xlink:href="#mfde1d63561" x="59.304232" y="43.172802" style="fill: #35a1ab; stroke: #35a1ab"/>
     <use xlink:href="#mfde1d63561" x="73.844788" y="55.486782" style="fill: #35a1ab; stroke: #35a1ab"/>
     <use xlink:href="#mfde1d63561" x="89.314673" y="70.591518" style="fill: #35a1ab; stroke: #35a1ab"/>
     <use xlink:href="#mfde1d63561" x="101.585788" y="81.439336" style="fill: #35a1ab; stroke: #35a1ab"/>
     <use xlink:href="#mfde1d63561" x="114.972526" y="95.57876" style="fill: #35a1ab; stroke: #35a1ab"/>
     <use xlink:href="#mfde1d63561" x="130.447783" y="109.96391" style="fill: #35a1ab; stroke: #35a1ab"/>
     <use xlink:href="#mfde1d63561" x="143.64574" y="123.935625" style="fill: #35a1ab; stroke: #35a1ab"/>
     <use xlink:href="#mfde1d63561" x="158.340015" y="141.114606" style="fill: #35a1ab; stroke: #35a1ab"/>
     <use xlink:href="#mfde1d63561" x="171.902353" y="157.187387" style="fill: #35a1ab; stroke: #35a1ab"/>
     <use xlink:href="#mfde1d63561" x="185.574479" y="184.010664" style="fill: #35a1ab; stroke: #35a1ab"/>
     <use xlink:href="#mfde1d63561" x="200.025846" y="233.731988" style="fill: #35a1ab; stroke: #35a1ab"/>
     <use xlink:href="#mfde1d63561" x="215.19205" y="238.603679" style="fill: #35a1ab; stroke: #35a1ab"/>
     <use xlink:href="#mfde1d63561" x="241.025686" y="240.041169" style="fill: #35a1ab; stroke: #35a1ab"/>
     <use xlink:href="#mfde1d63561" x="264.774533" y="240.73322" style="fill: #35a1ab; stroke: #35a1ab"/>
    </g>
   </g>
   <g id="matplotlib.axis_1">
    <g id="xtick_1">
     <g id="line2d_1">
      <defs>
       <path id="m5ecfbf2b57" d="M 0 0 
L 0 3.5 
" style="stroke: #000000; stroke-width: 0.8"/>
      </defs>
      <g>
       <use xlink:href="#m5ecfbf2b57" x="45.727523" y="242.518281" style="stroke: #000000; stroke-width: 0.8"/>
      </g>
     </g>
     <g id="text_1">
      <!-- 0 -->
      <g transform="translate(42.546273 257.116719) scale(0.1 -0.1)">
       <defs>
        <path id="DejaVuSans-30" d="M 2034 4250 
Q 1547 4250 1301 3770 
Q 1056 3291 1056 2328 
Q 1056 1369 1301 889 
Q 1547 409 2034 409 
Q 2525 409 2770 889 
Q 3016 1369 3016 2328 
Q 3016 3291 2770 3770 
Q 2525 4250 2034 4250 
z
M 2034 4750 
Q 2819 4750 3233 4129 
Q 3647 3509 3647 2328 
Q 3647 1150 3233 529 
Q 2819 -91 2034 -91 
Q 1250 -91 836 529 
Q 422 1150 422 2328 
Q 422 3509 836 4129 
Q 1250 4750 2034 4750 
z
" transform="scale(0.015625)"/>
       </defs>
       <use xlink:href="#DejaVuSans-30"/>
      </g>
     </g>
    </g>
    <g id="xtick_2">
     <g id="line2d_2">
      <g>
       <use xlink:href="#m5ecfbf2b57" x="102.010548" y="242.518281" style="stroke: #000000; stroke-width: 0.8"/>
      </g>
     </g>
     <g id="text_2">
      <!-- 1 -->
      <g transform="translate(98.829298 257.116719) scale(0.1 -0.1)">
       <defs>
        <path id="DejaVuSans-31" d="M 794 531 
L 1825 531 
L 1825 4091 
L 703 3866 
L 703 4441 
L 1819 4666 
L 2450 4666 
L 2450 531 
L 3481 531 
L 3481 0 
L 794 0 
L 794 531 
z
" transform="scale(0.015625)"/>
       </defs>
       <use xlink:href="#DejaVuSans-31"/>
      </g>
     </g>
    </g>
    <g id="xtick_3">
     <g id="line2d_3">
      <g>
       <use xlink:href="#m5ecfbf2b57" x="158.293573" y="242.518281" style="stroke: #000000; stroke-width: 0.8"/>
      </g>
     </g>
     <g id="text_3">
      <!-- 2 -->
      <g transform="translate(155.112323 257.116719) scale(0.1 -0.1)">
       <defs>
        <path id="DejaVuSans-32" d="M 1228 531 
L 3431 531 
L 3431 0 
L 469 0 
L 469 531 
Q 828 903 1448 1529 
Q 2069 2156 2228 2338 
Q 2531 2678 2651 2914 
Q 2772 3150 2772 3378 
Q 2772 3750 2511 3984 
Q 2250 4219 1831 4219 
Q 1534 4219 1204 4116 
Q 875 4013 500 3803 
L 500 4441 
Q 881 4594 1212 4672 
Q 1544 4750 1819 4750 
Q 2544 4750 2975 4387 
Q 3406 4025 3406 3419 
Q 3406 3131 3298 2873 
Q 3191 2616 2906 2266 
Q 2828 2175 2409 1742 
Q 1991 1309 1228 531 
z
" transform="scale(0.015625)"/>
       </defs>
       <use xlink:href="#DejaVuSans-32"/>
      </g>
     </g>
    </g>
    <g id="xtick_4">
     <g id="line2d_4">
      <g>
       <use xlink:href="#m5ecfbf2b57" x="214.576598" y="242.518281" style="stroke: #000000; stroke-width: 0.8"/>
      </g>
     </g>
     <g id="text_4">
      <!-- 3 -->
      <g transform="translate(211.395348 257.116719) scale(0.1 -0.1)">
       <defs>
        <path id="DejaVuSans-33" d="M 2597 2516 
Q 3050 2419 3304 2112 
Q 3559 1806 3559 1356 
Q 3559 666 3084 287 
Q 2609 -91 1734 -91 
Q 1441 -91 1130 -33 
Q 819 25 488 141 
L 488 750 
Q 750 597 1062 519 
Q 1375 441 1716 441 
Q 2309 441 2620 675 
Q 2931 909 2931 1356 
Q 2931 1769 2642 2001 
Q 2353 2234 1838 2234 
L 1294 2234 
L 1294 2753 
L 1863 2753 
Q 2328 2753 2575 2939 
Q 2822 3125 2822 3475 
Q 2822 3834 2567 4026 
Q 2313 4219 1838 4219 
Q 1578 4219 1281 4162 
Q 984 4106 628 3988 
L 628 4550 
Q 988 4650 1302 4700 
Q 1616 4750 1894 4750 
Q 2613 4750 3031 4423 
Q 3450 4097 3450 3541 
Q 3450 3153 3228 2886 
Q 3006 2619 2597 2516 
z
" transform="scale(0.015625)"/>
       </defs>
       <use xlink:href="#DejaVuSans-33"/>
      </g>
     </g>
    </g>
    <g id="xtick_5">
     <g id="line2d_5">
      <g>
       <use xlink:href="#m5ecfbf2b57" x="270.859623" y="242.518281" style="stroke: #000000; stroke-width: 0.8"/>
      </g>
     </g>
     <g id="text_5">
      <!-- 4 -->
      <g transform="translate(267.678373 257.116719) scale(0.1 -0.1)">
       <defs>
        <path id="DejaVuSans-34" d="M 2419 4116 
L 825 1625 
L 2419 1625 
L 2419 4116 
z
M 2253 4666 
L 3047 4666 
L 3047 1625 
L 3713 1625 
L 3713 1100 
L 3047 1100 
L 3047 0 
L 2419 0 
L 2419 1100 
L 313 1100 
L 313 1709 
L 2253 4666 
z
" transform="scale(0.015625)"/>
       </defs>
       <use xlink:href="#DejaVuSans-34"/>
      </g>
     </g>
    </g>
    <g id="text_6">
     <!-- Time [h] -->
     <g transform="translate(137.060156 270.794844) scale(0.1 -0.1)">
      <defs>
       <path id="DejaVuSans-54" d="M -19 4666 
L 3928 4666 
L 3928 4134 
L 2272 4134 
L 2272 0 
L 1638 0 
L 1638 4134 
L -19 4134 
L -19 4666 
z
" transform="scale(0.015625)"/>
       <path id="DejaVuSans-69" d="M 603 3500 
L 1178 3500 
L 1178 0 
L 603 0 
L 603 3500 
z
M 603 4863 
L 1178 4863 
L 1178 4134 
L 603 4134 
L 603 4863 
z
" transform="scale(0.015625)"/>
       <path id="DejaVuSans-6d" d="M 3328 2828 
Q 3544 3216 3844 3400 
Q 4144 3584 4550 3584 
Q 5097 3584 5394 3201 
Q 5691 2819 5691 2113 
L 5691 0 
L 5113 0 
L 5113 2094 
Q 5113 2597 4934 2840 
Q 4756 3084 4391 3084 
Q 3944 3084 3684 2787 
Q 3425 2491 3425 1978 
L 3425 0 
L 2847 0 
L 2847 2094 
Q 2847 2600 2669 2842 
Q 2491 3084 2119 3084 
Q 1678 3084 1418 2786 
Q 1159 2488 1159 1978 
L 1159 0 
L 581 0 
L 581 3500 
L 1159 3500 
L 1159 2956 
Q 1356 3278 1631 3431 
Q 1906 3584 2284 3584 
Q 2666 3584 2933 3390 
Q 3200 3197 3328 2828 
z
" transform="scale(0.015625)"/>
       <path id="DejaVuSans-65" d="M 3597 1894 
L 3597 1613 
L 953 1613 
Q 991 1019 1311 708 
Q 1631 397 2203 397 
Q 2534 397 2845 478 
Q 3156 559 3463 722 
L 3463 178 
Q 3153 47 2828 -22 
Q 2503 -91 2169 -91 
Q 1331 -91 842 396 
Q 353 884 353 1716 
Q 353 2575 817 3079 
Q 1281 3584 2069 3584 
Q 2775 3584 3186 3129 
Q 3597 2675 3597 1894 
z
M 3022 2063 
Q 3016 2534 2758 2815 
Q 2500 3097 2075 3097 
Q 1594 3097 1305 2825 
Q 1016 2553 972 2059 
L 3022 2063 
z
" transform="scale(0.015625)"/>
       <path id="DejaVuSans-20" transform="scale(0.015625)"/>
       <path id="DejaVuSans-5b" d="M 550 4863 
L 1875 4863 
L 1875 4416 
L 1125 4416 
L 1125 -397 
L 1875 -397 
L 1875 -844 
L 550 -844 
L 550 4863 
z
" transform="scale(0.015625)"/>
       <path id="DejaVuSans-68" d="M 3513 2113 
L 3513 0 
L 2938 0 
L 2938 2094 
Q 2938 2591 2744 2837 
Q 2550 3084 2163 3084 
Q 1697 3084 1428 2787 
Q 1159 2491 1159 1978 
L 1159 0 
L 581 0 
L 581 4863 
L 1159 4863 
L 1159 2956 
Q 1366 3272 1645 3428 
Q 1925 3584 2291 3584 
Q 2894 3584 3203 3211 
Q 3513 2838 3513 2113 
z
" transform="scale(0.015625)"/>
       <path id="DejaVuSans-5d" d="M 1947 4863 
L 1947 -844 
L 622 -844 
L 622 -397 
L 1369 -397 
L 1369 4416 
L 622 4416 
L 622 4863 
L 1947 4863 
z
" transform="scale(0.015625)"/>
      </defs>
      <use xlink:href="#DejaVuSans-54"/>
      <use xlink:href="#DejaVuSans-69" transform="translate(57.958984 0)"/>
      <use xlink:href="#DejaVuSans-6d" transform="translate(85.742188 0)"/>
      <use xlink:href="#DejaVuSans-65" transform="translate(183.154297 0)"/>
      <use xlink:href="#DejaVuSans-20" transform="translate(244.677734 0)"/>
      <use xlink:href="#DejaVuSans-5b" transform="translate(276.464844 0)"/>
      <use xlink:href="#DejaVuSans-68" transform="translate(315.478516 0)"/>
      <use xlink:href="#DejaVuSans-5d" transform="translate(378.857422 0)"/>
     </g>
    </g>
   </g>
   <g id="matplotlib.axis_2">
    <g id="ytick_1">
     <g id="line2d_6">
      <defs>
       <path id="m18ad566cb4" d="M 0 0 
L -3.5 0 
" style="stroke: #000000; stroke-width: 0.8"/>
      </defs>
      <g>
       <use xlink:href="#m18ad566cb4" x="34.240625" y="242.518281" style="stroke: #000000; stroke-width: 0.8"/>
      </g>
     </g>
     <g id="text_7">
      <!-- 0 -->
      <g transform="translate(20.878125 246.3175) scale(0.1 -0.1)">
       <use xlink:href="#DejaVuSans-30"/>
      </g>
     </g>
    </g>
    <g id="ytick_2">
     <g id="line2d_7">
      <g>
       <use xlink:href="#m18ad566cb4" x="34.240625" y="198.326281" style="stroke: #000000; stroke-width: 0.8"/>
      </g>
     </g>
     <g id="text_8">
      <!-- 1 -->
      <g transform="translate(20.878125 202.1255) scale(0.1 -0.1)">
       <use xlink:href="#DejaVuSans-31"/>
      </g>
     </g>
    </g>
    <g id="ytick_3">
     <g id="line2d_8">
      <g>
       <use xlink:href="#m18ad566cb4" x="34.240625" y="154.134281" style="stroke: #000000; stroke-width: 0.8"/>
      </g>
     </g>
     <g id="text_9">
      <!-- 2 -->
      <g transform="translate(20.878125 157.9335) scale(0.1 -0.1)">
       <use xlink:href="#DejaVuSans-32"/>
      </g>
     </g>
    </g>
    <g id="ytick_4">
     <g id="line2d_9">
      <g>
       <use xlink:href="#m18ad566cb4" x="34.240625" y="109.942281" style="stroke: #000000; stroke-width: 0.8"/>
      </g>
     </g>
     <g id="text_10">
      <!-- 3 -->
      <g transform="translate(20.878125 113.7415) scale(0.1 -0.1)">
       <use xlink:href="#DejaVuSans-33"/>
      </g>
     </g>
    </g>
    <g id="ytick_5">
     <g id="line2d_10">
      <g>
       <use xlink:href="#m18ad566cb4" x="34.240625" y="65.750281" style="stroke: #000000; stroke-width: 0.8"/>
      </g>
     </g>
     <g id="text_11">
      <!-- 4 -->
      <g transform="translate(20.878125 69.5495) scale(0.1 -0.1)">
       <use xlink:href="#DejaVuSans-34"/>
      </g>
     </g>
    </g>
    <g id="ytick_6">
     <g id="line2d_11">
      <g>
       <use xlink:href="#m18ad566cb4" x="34.240625" y="21.558281" style="stroke: #000000; stroke-width: 0.8"/>
      </g>
     </g>
     <g id="text_12">
      <!-- 5 -->
      <g transform="translate(20.878125 25.3575) scale(0.1 -0.1)">
       <defs>
        <path id="DejaVuSans-35" d="M 691 4666 
L 3169 4666 
L 3169 4134 
L 1269 4134 
L 1269 2991 
Q 1406 3038 1543 3061 
Q 1681 3084 1819 3084 
Q 2600 3084 3056 2656 
Q 3513 2228 3513 1497 
Q 3513 744 3044 326 
Q 2575 -91 1722 -91 
Q 1428 -91 1123 -41 
Q 819 9 494 109 
L 494 744 
Q 775 591 1075 516 
Q 1375 441 1709 441 
Q 2250 441 2565 725 
Q 2881 1009 2881 1497 
Q 2881 1984 2565 2268 
Q 2250 2553 1709 2553 
Q 1456 2553 1204 2497 
Q 953 2441 691 2322 
L 691 4666 
z
" transform="scale(0.015625)"/>
       </defs>
       <use xlink:href="#DejaVuSans-35"/>
      </g>
     </g>
    </g>
    <g id="text_13">
     <!-- Carbon Source [mg/L] -->
     <g transform="translate(14.798438 186.817188) rotate(-90) scale(0.1 -0.1)">
      <defs>
       <path id="DejaVuSans-43" d="M 4122 4306 
L 4122 3641 
Q 3803 3938 3442 4084 
Q 3081 4231 2675 4231 
Q 1875 4231 1450 3742 
Q 1025 3253 1025 2328 
Q 1025 1406 1450 917 
Q 1875 428 2675 428 
Q 3081 428 3442 575 
Q 3803 722 4122 1019 
L 4122 359 
Q 3791 134 3420 21 
Q 3050 -91 2638 -91 
Q 1578 -91 968 557 
Q 359 1206 359 2328 
Q 359 3453 968 4101 
Q 1578 4750 2638 4750 
Q 3056 4750 3426 4639 
Q 3797 4528 4122 4306 
z
" transform="scale(0.015625)"/>
       <path id="DejaVuSans-61" d="M 2194 1759 
Q 1497 1759 1228 1600 
Q 959 1441 959 1056 
Q 959 750 1161 570 
Q 1363 391 1709 391 
Q 2188 391 2477 730 
Q 2766 1069 2766 1631 
L 2766 1759 
L 2194 1759 
z
M 3341 1997 
L 3341 0 
L 2766 0 
L 2766 531 
Q 2569 213 2275 61 
Q 1981 -91 1556 -91 
Q 1019 -91 701 211 
Q 384 513 384 1019 
Q 384 1609 779 1909 
Q 1175 2209 1959 2209 
L 2766 2209 
L 2766 2266 
Q 2766 2663 2505 2880 
Q 2244 3097 1772 3097 
Q 1472 3097 1187 3025 
Q 903 2953 641 2809 
L 641 3341 
Q 956 3463 1253 3523 
Q 1550 3584 1831 3584 
Q 2591 3584 2966 3190 
Q 3341 2797 3341 1997 
z
" transform="scale(0.015625)"/>
       <path id="DejaVuSans-72" d="M 2631 2963 
Q 2534 3019 2420 3045 
Q 2306 3072 2169 3072 
Q 1681 3072 1420 2755 
Q 1159 2438 1159 1844 
L 1159 0 
L 581 0 
L 581 3500 
L 1159 3500 
L 1159 2956 
Q 1341 3275 1631 3429 
Q 1922 3584 2338 3584 
Q 2397 3584 2469 3576 
Q 2541 3569 2628 3553 
L 2631 2963 
z
" transform="scale(0.015625)"/>
       <path id="DejaVuSans-62" d="M 3116 1747 
Q 3116 2381 2855 2742 
Q 2594 3103 2138 3103 
Q 1681 3103 1420 2742 
Q 1159 2381 1159 1747 
Q 1159 1113 1420 752 
Q 1681 391 2138 391 
Q 2594 391 2855 752 
Q 3116 1113 3116 1747 
z
M 1159 2969 
Q 1341 3281 1617 3432 
Q 1894 3584 2278 3584 
Q 2916 3584 3314 3078 
Q 3713 2572 3713 1747 
Q 3713 922 3314 415 
Q 2916 -91 2278 -91 
Q 1894 -91 1617 61 
Q 1341 213 1159 525 
L 1159 0 
L 581 0 
L 581 4863 
L 1159 4863 
L 1159 2969 
z
" transform="scale(0.015625)"/>
       <path id="DejaVuSans-6f" d="M 1959 3097 
Q 1497 3097 1228 2736 
Q 959 2375 959 1747 
Q 959 1119 1226 758 
Q 1494 397 1959 397 
Q 2419 397 2687 759 
Q 2956 1122 2956 1747 
Q 2956 2369 2687 2733 
Q 2419 3097 1959 3097 
z
M 1959 3584 
Q 2709 3584 3137 3096 
Q 3566 2609 3566 1747 
Q 3566 888 3137 398 
Q 2709 -91 1959 -91 
Q 1206 -91 779 398 
Q 353 888 353 1747 
Q 353 2609 779 3096 
Q 1206 3584 1959 3584 
z
" transform="scale(0.015625)"/>
       <path id="DejaVuSans-6e" d="M 3513 2113 
L 3513 0 
L 2938 0 
L 2938 2094 
Q 2938 2591 2744 2837 
Q 2550 3084 2163 3084 
Q 1697 3084 1428 2787 
Q 1159 2491 1159 1978 
L 1159 0 
L 581 0 
L 581 3500 
L 1159 3500 
L 1159 2956 
Q 1366 3272 1645 3428 
Q 1925 3584 2291 3584 
Q 2894 3584 3203 3211 
Q 3513 2838 3513 2113 
z
" transform="scale(0.015625)"/>
       <path id="DejaVuSans-53" d="M 3425 4513 
L 3425 3897 
Q 3066 4069 2747 4153 
Q 2428 4238 2131 4238 
Q 1616 4238 1336 4038 
Q 1056 3838 1056 3469 
Q 1056 3159 1242 3001 
Q 1428 2844 1947 2747 
L 2328 2669 
Q 3034 2534 3370 2195 
Q 3706 1856 3706 1288 
Q 3706 609 3251 259 
Q 2797 -91 1919 -91 
Q 1588 -91 1214 -16 
Q 841 59 441 206 
L 441 856 
Q 825 641 1194 531 
Q 1563 422 1919 422 
Q 2459 422 2753 634 
Q 3047 847 3047 1241 
Q 3047 1584 2836 1778 
Q 2625 1972 2144 2069 
L 1759 2144 
Q 1053 2284 737 2584 
Q 422 2884 422 3419 
Q 422 4038 858 4394 
Q 1294 4750 2059 4750 
Q 2388 4750 2728 4690 
Q 3069 4631 3425 4513 
z
" transform="scale(0.015625)"/>
       <path id="DejaVuSans-75" d="M 544 1381 
L 544 3500 
L 1119 3500 
L 1119 1403 
Q 1119 906 1312 657 
Q 1506 409 1894 409 
Q 2359 409 2629 706 
Q 2900 1003 2900 1516 
L 2900 3500 
L 3475 3500 
L 3475 0 
L 2900 0 
L 2900 538 
Q 2691 219 2414 64 
Q 2138 -91 1772 -91 
Q 1169 -91 856 284 
Q 544 659 544 1381 
z
M 1991 3584 
L 1991 3584 
z
" transform="scale(0.015625)"/>
       <path id="DejaVuSans-63" d="M 3122 3366 
L 3122 2828 
Q 2878 2963 2633 3030 
Q 2388 3097 2138 3097 
Q 1578 3097 1268 2742 
Q 959 2388 959 1747 
Q 959 1106 1268 751 
Q 1578 397 2138 397 
Q 2388 397 2633 464 
Q 2878 531 3122 666 
L 3122 134 
Q 2881 22 2623 -34 
Q 2366 -91 2075 -91 
Q 1284 -91 818 406 
Q 353 903 353 1747 
Q 353 2603 823 3093 
Q 1294 3584 2113 3584 
Q 2378 3584 2631 3529 
Q 2884 3475 3122 3366 
z
" transform="scale(0.015625)"/>
       <path id="DejaVuSans-67" d="M 2906 1791 
Q 2906 2416 2648 2759 
Q 2391 3103 1925 3103 
Q 1463 3103 1205 2759 
Q 947 2416 947 1791 
Q 947 1169 1205 825 
Q 1463 481 1925 481 
Q 2391 481 2648 825 
Q 2906 1169 2906 1791 
z
M 3481 434 
Q 3481 -459 3084 -895 
Q 2688 -1331 1869 -1331 
Q 1566 -1331 1297 -1286 
Q 1028 -1241 775 -1147 
L 775 -588 
Q 1028 -725 1275 -790 
Q 1522 -856 1778 -856 
Q 2344 -856 2625 -561 
Q 2906 -266 2906 331 
L 2906 616 
Q 2728 306 2450 153 
Q 2172 0 1784 0 
Q 1141 0 747 490 
Q 353 981 353 1791 
Q 353 2603 747 3093 
Q 1141 3584 1784 3584 
Q 2172 3584 2450 3431 
Q 2728 3278 2906 2969 
L 2906 3500 
L 3481 3500 
L 3481 434 
z
" transform="scale(0.015625)"/>
       <path id="DejaVuSans-2f" d="M 1625 4666 
L 2156 4666 
L 531 -594 
L 0 -594 
L 1625 4666 
z
" transform="scale(0.015625)"/>
       <path id="DejaVuSans-4c" d="M 628 4666 
L 1259 4666 
L 1259 531 
L 3531 531 
L 3531 0 
L 628 0 
L 628 4666 
z
" transform="scale(0.015625)"/>
      </defs>
      <use xlink:href="#DejaVuSans-43"/>
      <use xlink:href="#DejaVuSans-61" transform="translate(69.824219 0)"/>
      <use xlink:href="#DejaVuSans-72" transform="translate(131.103516 0)"/>
      <use xlink:href="#DejaVuSans-62" transform="translate(172.216797 0)"/>
      <use xlink:href="#DejaVuSans-6f" transform="translate(235.693359 0)"/>
      <use xlink:href="#DejaVuSans-6e" transform="translate(296.875 0)"/>
      <use xlink:href="#DejaVuSans-20" transform="translate(360.253906 0)"/>
      <use xlink:href="#DejaVuSans-53" transform="translate(392.041016 0)"/>
      <use xlink:href="#DejaVuSans-6f" transform="translate(455.517578 0)"/>
      <use xlink:href="#DejaVuSans-75" transform="translate(516.699219 0)"/>
      <use xlink:href="#DejaVuSans-72" transform="translate(580.078125 0)"/>
      <use xlink:href="#DejaVuSans-63" transform="translate(618.941406 0)"/>
      <use xlink:href="#DejaVuSans-65" transform="translate(673.921875 0)"/>
      <use xlink:href="#DejaVuSans-20" transform="translate(735.445312 0)"/>
      <use xlink:href="#DejaVuSans-5b" transform="translate(767.232422 0)"/>
      <use xlink:href="#DejaVuSans-6d" transform="translate(806.246094 0)"/>
      <use xlink:href="#DejaVuSans-67" transform="translate(903.658203 0)"/>
      <use xlink:href="#DejaVuSans-2f" transform="translate(967.134766 0)"/>
      <use xlink:href="#DejaVuSans-4c" transform="translate(1000.826172 0)"/>
      <use xlink:href="#DejaVuSans-5d" transform="translate(1056.539062 0)"/>
     </g>
    </g>
   </g>
   <g id="line2d_12">
    <path d="M 46.043099 63.123404 
L 59.153193 66.651311 
L 74.448303 72.866272 
L 90.471752 80.00913 
L 111.593571 88.918699 
L 115.235264 90.481223 
L 130.530374 99.52809 
L 143.640468 106.465858 
L 159.663917 117.112396 
L 172.774011 125.079619 
L 184.427429 136.165185 
L 185.155767 137.057563 
L 201.179216 161.013901 
L 201.907555 162.388227 
L 212.104295 191.859006 
L 227.399405 226.027499 
L 228.127743 227.498651 
L 240.509499 239.088346 
L 241.237838 239.595243 
L 263.816334 241.810234 
L 263.816334 241.810234 
" clip-path="url(#p29ce7cc17e)" style="fill: none; stroke: #d92847; stroke-width: 1.5; stroke-linecap: square"/>
   </g>
   <g id="line2d_13">
    <path d="M 45.487216 35.760552 
L 59.421861 43.272419 
L 74.823312 56.442209 
L 90.958165 72.044385 
L 101.959201 81.833744 
L 115.893846 96.43518 
L 131.295297 110.861111 
L 144.49654 124.930289 
L 168.698819 153.390866 
L 171.632429 156.867498 
L 173.099233 159.53554 
L 185.567074 183.996136 
L 199.50172 231.92868 
L 200.235122 233.799211 
L 214.90317 238.510885 
L 216.369975 238.669224 
L 244.972669 240.156186 
L 264.774533 240.73322 
L 264.774533 240.73322 
" clip-path="url(#p29ce7cc17e)" style="fill: none; stroke: #35a1ab; stroke-width: 1.5; stroke-linecap: square"/>
   </g>
   <g id="patch_3">
    <path d="M 34.240625 242.518281 
L 34.240625 21.558281 
" style="fill: none; stroke: #000000; stroke-width: 0.8; stroke-linejoin: miter; stroke-linecap: square"/>
   </g>
   <g id="patch_4">
    <path d="M 281.665625 242.518281 
L 281.665625 21.558281 
" style="fill: none; stroke: #000000; stroke-width: 0.8; stroke-linejoin: miter; stroke-linecap: square"/>
   </g>
   <g id="patch_5">
    <path d="M 34.240625 242.518281 
L 281.665625 242.518281 
" style="fill: none; stroke: #000000; stroke-width: 0.8; stroke-linejoin: miter; stroke-linecap: square"/>
   </g>
   <g id="patch_6">
    <path d="M 34.240625 21.558281 
L 281.665625 21.558281 
" style="fill: none; stroke: #000000; stroke-width: 0.8; stroke-linejoin: miter; stroke-linecap: square"/>
   </g>
   <g id="text_14">
    <!-- Empirical Data -->
    <g transform="translate(117.509219 15.558281) scale(0.11 -0.11)">
     <defs>
      <path id="DejaVuSans-45" d="M 628 4666 
L 3578 4666 
L 3578 4134 
L 1259 4134 
L 1259 2753 
L 3481 2753 
L 3481 2222 
L 1259 2222 
L 1259 531 
L 3634 531 
L 3634 0 
L 628 0 
L 628 4666 
z
" transform="scale(0.015625)"/>
      <path id="DejaVuSans-70" d="M 1159 525 
L 1159 -1331 
L 581 -1331 
L 581 3500 
L 1159 3500 
L 1159 2969 
Q 1341 3281 1617 3432 
Q 1894 3584 2278 3584 
Q 2916 3584 3314 3078 
Q 3713 2572 3713 1747 
Q 3713 922 3314 415 
Q 2916 -91 2278 -91 
Q 1894 -91 1617 61 
Q 1341 213 1159 525 
z
M 3116 1747 
Q 3116 2381 2855 2742 
Q 2594 3103 2138 3103 
Q 1681 3103 1420 2742 
Q 1159 2381 1159 1747 
Q 1159 1113 1420 752 
Q 1681 391 2138 391 
Q 2594 391 2855 752 
Q 3116 1113 3116 1747 
z
" transform="scale(0.015625)"/>
      <path id="DejaVuSans-6c" d="M 603 4863 
L 1178 4863 
L 1178 0 
L 603 0 
L 603 4863 
z
" transform="scale(0.015625)"/>
      <path id="DejaVuSans-44" d="M 1259 4147 
L 1259 519 
L 2022 519 
Q 2988 519 3436 956 
Q 3884 1394 3884 2338 
Q 3884 3275 3436 3711 
Q 2988 4147 2022 4147 
L 1259 4147 
z
M 628 4666 
L 1925 4666 
Q 3281 4666 3915 4102 
Q 4550 3538 4550 2338 
Q 4550 1131 3912 565 
Q 3275 0 1925 0 
L 628 0 
L 628 4666 
z
" transform="scale(0.015625)"/>
      <path id="DejaVuSans-74" d="M 1172 4494 
L 1172 3500 
L 2356 3500 
L 2356 3053 
L 1172 3053 
L 1172 1153 
Q 1172 725 1289 603 
Q 1406 481 1766 481 
L 2356 481 
L 2356 0 
L 1766 0 
Q 1100 0 847 248 
Q 594 497 594 1153 
L 594 3053 
L 172 3053 
L 172 3500 
L 594 3500 
L 594 4494 
L 1172 4494 
z
" transform="scale(0.015625)"/>
     </defs>
     <use xlink:href="#DejaVuSans-45"/>
     <use xlink:href="#DejaVuSans-6d" transform="translate(63.183594 0)"/>
     <use xlink:href="#DejaVuSans-70" transform="translate(160.595703 0)"/>
     <use xlink:href="#DejaVuSans-69" transform="translate(224.072266 0)"/>
     <use xlink:href="#DejaVuSans-72" transform="translate(251.855469 0)"/>
     <use xlink:href="#DejaVuSans-69" transform="translate(292.96875 0)"/>
     <use xlink:href="#DejaVuSans-63" transform="translate(320.751953 0)"/>
     <use xlink:href="#DejaVuSans-61" transform="translate(375.732422 0)"/>
     <use xlink:href="#DejaVuSans-6c" transform="translate(437.011719 0)"/>
     <use xlink:href="#DejaVuSans-20" transform="translate(464.794922 0)"/>
     <use xlink:href="#DejaVuSans-44" transform="translate(496.582031 0)"/>
     <use xlink:href="#DejaVuSans-61" transform="translate(573.583984 0)"/>
     <use xlink:href="#DejaVuSans-74" transform="translate(634.863281 0)"/>
     <use xlink:href="#DejaVuSans-61" transform="translate(674.072266 0)"/>
    </g>
   </g>
   <g id="legend_1">
    <g id="patch_7">
     <path d="M 208.428125 68.389219 
L 275.365625 68.389219 
Q 277.165625 68.389219 277.165625 66.589219 
L 277.165625 27.858281 
Q 277.165625 26.058281 275.365625 26.058281 
L 208.428125 26.058281 
Q 206.628125 26.058281 206.628125 27.858281 
L 206.628125 66.589219 
Q 206.628125 68.389219 208.428125 68.389219 
z
" style="fill: #ffffff; stroke: #000000; stroke-width: 0.8; stroke-linejoin: miter"/>
    </g>
    <g id="line2d_14">
     <path d="M 210.228125 33.346875 
L 219.228125 33.346875 
L 228.228125 33.346875 
" style="fill: none; stroke: #ffffff; stroke-width: 1.5; stroke-linecap: square"/>
     <defs>
      <path id="mbe195cd51f" d="M 0 4 
C 1.060812 4 2.078319 3.578535 2.828427 2.828427 
C 3.578535 2.078319 4 1.060812 4 0 
C 4 -1.060812 3.578535 -2.078319 2.828427 -2.828427 
C 2.078319 -3.578535 1.060812 -4 0 -4 
C -1.060812 -4 -2.078319 -3.578535 -2.828427 -2.828427 
C -3.578535 -2.078319 -4 -1.060812 -4 0 
C -4 1.060812 -3.578535 2.078319 -2.828427 2.828427 
C -2.078319 3.578535 -1.060812 4 0 4 
z
" style="stroke: #ffffff"/>
     </defs>
     <g>
      <use xlink:href="#mbe195cd51f" x="219.228125" y="33.346875" style="fill: #d92847; stroke: #ffffff"/>
     </g>
    </g>
    <g id="text_15">
     <!-- Glucose -->
     <g transform="translate(235.428125 36.496875) scale(0.09 -0.09)">
      <defs>
       <path id="DejaVuSans-47" d="M 3809 666 
L 3809 1919 
L 2778 1919 
L 2778 2438 
L 4434 2438 
L 4434 434 
Q 4069 175 3628 42 
Q 3188 -91 2688 -91 
Q 1594 -91 976 548 
Q 359 1188 359 2328 
Q 359 3472 976 4111 
Q 1594 4750 2688 4750 
Q 3144 4750 3555 4637 
Q 3966 4525 4313 4306 
L 4313 3634 
Q 3963 3931 3569 4081 
Q 3175 4231 2741 4231 
Q 1884 4231 1454 3753 
Q 1025 3275 1025 2328 
Q 1025 1384 1454 906 
Q 1884 428 2741 428 
Q 3075 428 3337 486 
Q 3600 544 3809 666 
z
" transform="scale(0.015625)"/>
       <path id="DejaVuSans-73" d="M 2834 3397 
L 2834 2853 
Q 2591 2978 2328 3040 
Q 2066 3103 1784 3103 
Q 1356 3103 1142 2972 
Q 928 2841 928 2578 
Q 928 2378 1081 2264 
Q 1234 2150 1697 2047 
L 1894 2003 
Q 2506 1872 2764 1633 
Q 3022 1394 3022 966 
Q 3022 478 2636 193 
Q 2250 -91 1575 -91 
Q 1294 -91 989 -36 
Q 684 19 347 128 
L 347 722 
Q 666 556 975 473 
Q 1284 391 1588 391 
Q 1994 391 2212 530 
Q 2431 669 2431 922 
Q 2431 1156 2273 1281 
Q 2116 1406 1581 1522 
L 1381 1569 
Q 847 1681 609 1914 
Q 372 2147 372 2553 
Q 372 3047 722 3315 
Q 1072 3584 1716 3584 
Q 2034 3584 2315 3537 
Q 2597 3491 2834 3397 
z
" transform="scale(0.015625)"/>
      </defs>
      <use xlink:href="#DejaVuSans-47"/>
      <use xlink:href="#DejaVuSans-6c" transform="translate(77.490234 0)"/>
      <use xlink:href="#DejaVuSans-75" transform="translate(105.273438 0)"/>
      <use xlink:href="#DejaVuSans-63" transform="translate(168.652344 0)"/>
      <use xlink:href="#DejaVuSans-6f" transform="translate(223.632812 0)"/>
      <use xlink:href="#DejaVuSans-73" transform="translate(284.814453 0)"/>
      <use xlink:href="#DejaVuSans-65" transform="translate(336.914062 0)"/>
     </g>
    </g>
    <g id="line2d_15">
     <path d="M 210.228125 46.557187 
L 219.228125 46.557187 
L 228.228125 46.557187 
" style="fill: none; stroke: #ffffff; stroke-width: 1.5; stroke-linecap: square"/>
     <defs>
      <path id="m0440ada5e8" d="M 0 4 
C 1.060812 4 2.078319 3.578535 2.828427 2.828427 
C 3.578535 2.078319 4 1.060812 4 0 
C 4 -1.060812 3.578535 -2.078319 2.828427 -2.828427 
C 2.078319 -3.578535 1.060812 -4 0 -4 
C -1.060812 -4 -2.078319 -3.578535 -2.828427 -2.828427 
C -3.578535 -2.078319 -4 -1.060812 -4 0 
C -4 1.060812 -3.578535 2.078319 -2.828427 2.828427 
C -2.078319 3.578535 -1.060812 4 0 4 
z
" style="stroke: #ffffff"/>
     </defs>
     <g>
      <use xlink:href="#m0440ada5e8" x="219.228125" y="46.557187" style="fill: #35a1ab; stroke: #ffffff"/>
     </g>
    </g>
    <g id="text_16">
     <!-- Fructose -->
     <g transform="translate(235.428125 49.707187) scale(0.09 -0.09)">
      <defs>
       <path id="DejaVuSans-46" d="M 628 4666 
L 3309 4666 
L 3309 4134 
L 1259 4134 
L 1259 2759 
L 3109 2759 
L 3109 2228 
L 1259 2228 
L 1259 0 
L 628 0 
L 628 4666 
z
" transform="scale(0.015625)"/>
      </defs>
      <use xlink:href="#DejaVuSans-46"/>
      <use xlink:href="#DejaVuSans-72" transform="translate(50.269531 0)"/>
      <use xlink:href="#DejaVuSans-75" transform="translate(91.382812 0)"/>
      <use xlink:href="#DejaVuSans-63" transform="translate(154.761719 0)"/>
      <use xlink:href="#DejaVuSans-74" transform="translate(209.742188 0)"/>
      <use xlink:href="#DejaVuSans-6f" transform="translate(248.951172 0)"/>
      <use xlink:href="#DejaVuSans-73" transform="translate(310.132812 0)"/>
      <use xlink:href="#DejaVuSans-65" transform="translate(362.232422 0)"/>
     </g>
    </g>
    <g id="line2d_16">
     <path d="M 210.228125 59.7675 
L 219.228125 59.7675 
L 228.228125 59.7675 
" style="fill: none; stroke: #ffffff; stroke-width: 1.5; stroke-linecap: square"/>
     <defs>
      <path id="m18d250357d" d="M 0 4 
C 1.060812 4 2.078319 3.578535 2.828427 2.828427 
C 3.578535 2.078319 4 1.060812 4 0 
C 4 -1.060812 3.578535 -2.078319 2.828427 -2.828427 
C 2.078319 -3.578535 1.060812 -4 0 -4 
C -1.060812 -4 -2.078319 -3.578535 -2.828427 -2.828427 
C -3.578535 -2.078319 -4 -1.060812 -4 0 
C -4 1.060812 -3.578535 2.078319 -2.828427 2.828427 
C -2.078319 3.578535 -1.060812 4 0 4 
z
" style="stroke: #ffffff"/>
     </defs>
     <g>
      <use xlink:href="#m18d250357d" x="219.228125" y="59.7675" style="stroke: #ffffff"/>
     </g>
    </g>
    <g id="text_17">
     <!-- Biomass -->
     <g transform="translate(235.428125 62.9175) scale(0.09 -0.09)">
      <defs>
       <path id="DejaVuSans-42" d="M 1259 2228 
L 1259 519 
L 2272 519 
Q 2781 519 3026 730 
Q 3272 941 3272 1375 
Q 3272 1813 3026 2020 
Q 2781 2228 2272 2228 
L 1259 2228 
z
M 1259 4147 
L 1259 2741 
L 2194 2741 
Q 2656 2741 2882 2914 
Q 3109 3088 3109 3444 
Q 3109 3797 2882 3972 
Q 2656 4147 2194 4147 
L 1259 4147 
z
M 628 4666 
L 2241 4666 
Q 2963 4666 3353 4366 
Q 3744 4066 3744 3513 
Q 3744 3084 3544 2831 
Q 3344 2578 2956 2516 
Q 3422 2416 3680 2098 
Q 3938 1781 3938 1306 
Q 3938 681 3513 340 
Q 3088 0 2303 0 
L 628 0 
L 628 4666 
z
" transform="scale(0.015625)"/>
      </defs>
      <use xlink:href="#DejaVuSans-42"/>
      <use xlink:href="#DejaVuSans-69" transform="translate(68.603516 0)"/>
      <use xlink:href="#DejaVuSans-6f" transform="translate(96.386719 0)"/>
      <use xlink:href="#DejaVuSans-6d" transform="translate(157.568359 0)"/>
      <use xlink:href="#DejaVuSans-61" transform="translate(254.980469 0)"/>
      <use xlink:href="#DejaVuSans-73" transform="translate(316.259766 0)"/>
      <use xlink:href="#DejaVuSans-73" transform="translate(368.359375 0)"/>
     </g>
    </g>
   </g>
  </g>
  <g id="axes_2">
   <g id="patch_8">
    <path d="M 299.465625 242.518281 
L 546.890625 242.518281 
L 546.890625 21.558281 
L 299.465625 21.558281 
z
" style="fill: #ffffff"/>
   </g>
   <g id="matplotlib.axis_3">
    <g id="xtick_6">
     <g id="line2d_17">
      <g>
       <use xlink:href="#m5ecfbf2b57" x="310.712216" y="242.518281" style="stroke: #000000; stroke-width: 0.8"/>
      </g>
     </g>
     <g id="text_18">
      <!-- 0 -->
      <g transform="translate(307.530966 257.116719) scale(0.1 -0.1)">
       <use xlink:href="#DejaVuSans-30"/>
      </g>
     </g>
    </g>
    <g id="xtick_7">
     <g id="line2d_18">
      <g>
       <use xlink:href="#m5ecfbf2b57" x="366.94517" y="242.518281" style="stroke: #000000; stroke-width: 0.8"/>
      </g>
     </g>
     <g id="text_19">
      <!-- 2 -->
      <g transform="translate(363.76392 257.116719) scale(0.1 -0.1)">
       <use xlink:href="#DejaVuSans-32"/>
      </g>
     </g>
    </g>
    <g id="xtick_8">
     <g id="line2d_19">
      <g>
       <use xlink:href="#m5ecfbf2b57" x="423.178125" y="242.518281" style="stroke: #000000; stroke-width: 0.8"/>
      </g>
     </g>
     <g id="text_20">
      <!-- 4 -->
      <g transform="translate(419.996875 257.116719) scale(0.1 -0.1)">
       <use xlink:href="#DejaVuSans-34"/>
      </g>
     </g>
    </g>
    <g id="xtick_9">
     <g id="line2d_20">
      <g>
       <use xlink:href="#m5ecfbf2b57" x="479.41108" y="242.518281" style="stroke: #000000; stroke-width: 0.8"/>
      </g>
     </g>
     <g id="text_21">
      <!-- 6 -->
      <g transform="translate(476.22983 257.116719) scale(0.1 -0.1)">
       <defs>
        <path id="DejaVuSans-36" d="M 2113 2584 
Q 1688 2584 1439 2293 
Q 1191 2003 1191 1497 
Q 1191 994 1439 701 
Q 1688 409 2113 409 
Q 2538 409 2786 701 
Q 3034 994 3034 1497 
Q 3034 2003 2786 2293 
Q 2538 2584 2113 2584 
z
M 3366 4563 
L 3366 3988 
Q 3128 4100 2886 4159 
Q 2644 4219 2406 4219 
Q 1781 4219 1451 3797 
Q 1122 3375 1075 2522 
Q 1259 2794 1537 2939 
Q 1816 3084 2150 3084 
Q 2853 3084 3261 2657 
Q 3669 2231 3669 1497 
Q 3669 778 3244 343 
Q 2819 -91 2113 -91 
Q 1303 -91 875 529 
Q 447 1150 447 2328 
Q 447 3434 972 4092 
Q 1497 4750 2381 4750 
Q 2619 4750 2861 4703 
Q 3103 4656 3366 4563 
z
" transform="scale(0.015625)"/>
       </defs>
       <use xlink:href="#DejaVuSans-36"/>
      </g>
     </g>
    </g>
    <g id="xtick_10">
     <g id="line2d_21">
      <g>
       <use xlink:href="#m5ecfbf2b57" x="535.644034" y="242.518281" style="stroke: #000000; stroke-width: 0.8"/>
      </g>
     </g>
     <g id="text_22">
      <!-- 8 -->
      <g transform="translate(532.462784 257.116719) scale(0.1 -0.1)">
       <defs>
        <path id="DejaVuSans-38" d="M 2034 2216 
Q 1584 2216 1326 1975 
Q 1069 1734 1069 1313 
Q 1069 891 1326 650 
Q 1584 409 2034 409 
Q 2484 409 2743 651 
Q 3003 894 3003 1313 
Q 3003 1734 2745 1975 
Q 2488 2216 2034 2216 
z
M 1403 2484 
Q 997 2584 770 2862 
Q 544 3141 544 3541 
Q 544 4100 942 4425 
Q 1341 4750 2034 4750 
Q 2731 4750 3128 4425 
Q 3525 4100 3525 3541 
Q 3525 3141 3298 2862 
Q 3072 2584 2669 2484 
Q 3125 2378 3379 2068 
Q 3634 1759 3634 1313 
Q 3634 634 3220 271 
Q 2806 -91 2034 -91 
Q 1263 -91 848 271 
Q 434 634 434 1313 
Q 434 1759 690 2068 
Q 947 2378 1403 2484 
z
M 1172 3481 
Q 1172 3119 1398 2916 
Q 1625 2713 2034 2713 
Q 2441 2713 2670 2916 
Q 2900 3119 2900 3481 
Q 2900 3844 2670 4047 
Q 2441 4250 2034 4250 
Q 1625 4250 1398 4047 
Q 1172 3844 1172 3481 
z
" transform="scale(0.015625)"/>
       </defs>
       <use xlink:href="#DejaVuSans-38"/>
      </g>
     </g>
    </g>
    <g id="text_23">
     <!-- Time [h] -->
     <g transform="translate(402.285156 270.794844) scale(0.1 -0.1)">
      <use xlink:href="#DejaVuSans-54"/>
      <use xlink:href="#DejaVuSans-69" transform="translate(57.958984 0)"/>
      <use xlink:href="#DejaVuSans-6d" transform="translate(85.742188 0)"/>
      <use xlink:href="#DejaVuSans-65" transform="translate(183.154297 0)"/>
      <use xlink:href="#DejaVuSans-20" transform="translate(244.677734 0)"/>
      <use xlink:href="#DejaVuSans-5b" transform="translate(276.464844 0)"/>
      <use xlink:href="#DejaVuSans-68" transform="translate(315.478516 0)"/>
      <use xlink:href="#DejaVuSans-5d" transform="translate(378.857422 0)"/>
     </g>
    </g>
   </g>
   <g id="matplotlib.axis_4">
    <g id="ytick_7">
     <g id="line2d_22">
      <g>
       <use xlink:href="#m18ad566cb4" x="299.465625" y="242.518281" style="stroke: #000000; stroke-width: 0.8"/>
      </g>
     </g>
    </g>
    <g id="ytick_8">
     <g id="line2d_23">
      <g>
       <use xlink:href="#m18ad566cb4" x="299.465625" y="198.326281" style="stroke: #000000; stroke-width: 0.8"/>
      </g>
     </g>
    </g>
    <g id="ytick_9">
     <g id="line2d_24">
      <g>
       <use xlink:href="#m18ad566cb4" x="299.465625" y="154.134281" style="stroke: #000000; stroke-width: 0.8"/>
      </g>
     </g>
    </g>
    <g id="ytick_10">
     <g id="line2d_25">
      <g>
       <use xlink:href="#m18ad566cb4" x="299.465625" y="109.942281" style="stroke: #000000; stroke-width: 0.8"/>
      </g>
     </g>
    </g>
    <g id="ytick_11">
     <g id="line2d_26">
      <g>
       <use xlink:href="#m18ad566cb4" x="299.465625" y="65.750281" style="stroke: #000000; stroke-width: 0.8"/>
      </g>
     </g>
    </g>
    <g id="ytick_12">
     <g id="line2d_27">
      <g>
       <use xlink:href="#m18ad566cb4" x="299.465625" y="21.558281" style="stroke: #000000; stroke-width: 0.8"/>
      </g>
     </g>
    </g>
   </g>
   <g id="line2d_28">
    <path d="M 310.712216 120.50629 
L 313.721337 124.465802 
L 321.244141 134.629405 
L 342.30799 166.14701 
L 357.353596 189.353766 
L 376.160604 214.422064 
L 383.683408 222.027108 
L 388.19709 225.64904 
L 391.958491 228.531586 
L 400.233575 233.326267 
L 408.508659 236.601397 
L 416.031462 238.634297 
L 424.306545 240.089888 
L 433.333909 241.072927 
L 443.113554 241.700124 
L 453.645478 242.077932 
L 467.186524 242.324292 
L 483.736691 242.446143 
L 535.644034 242.515248 
L 535.644034 242.515248 
" clip-path="url(#peda13e9276)" style="fill: none; stroke: #d92847; stroke-width: 3; stroke-linecap: square"/>
   </g>
   <g id="line2d_29">
    <path d="M 310.712216 148.960274 
L 314.473618 152.766478 
L 321.244141 159.789787 
L 342.30799 183.957283 
L 357.353596 201.752074 
L 376.160604 220.974283 
L 383.683408 226.805782 
L 388.94937 230.04261 
L 391.958491 231.793374 
L 400.233575 235.469904 
L 408.508659 237.981253 
L 416.783742 239.647203 
L 425.058826 240.72557 
L 434.08619 241.453393 
L 443.865834 241.917013 
L 455.902319 242.225505 
L 469.443365 242.39237 
L 510.818783 242.507793 
L 535.644034 242.515955 
L 535.644034 242.515955 
" clip-path="url(#peda13e9276)" style="fill: none; stroke: #35a1ab; stroke-width: 3; stroke-linecap: square"/>
   </g>
   <g id="patch_9">
    <path d="M 299.465625 242.518281 
L 299.465625 21.558281 
" style="fill: none; stroke: #000000; stroke-width: 0.8; stroke-linejoin: miter; stroke-linecap: square"/>
   </g>
   <g id="patch_10">
    <path d="M 546.890625 242.518281 
L 546.890625 21.558281 
" style="fill: none; stroke: #000000; stroke-width: 0.8; stroke-linejoin: miter; stroke-linecap: square"/>
   </g>
   <g id="patch_11">
    <path d="M 299.465625 242.518281 
L 546.890625 242.518281 
" style="fill: none; stroke: #000000; stroke-width: 0.8; stroke-linejoin: miter; stroke-linecap: square"/>
   </g>
   <g id="patch_12">
    <path d="M 299.465625 21.558281 
L 546.890625 21.558281 
" style="fill: none; stroke: #000000; stroke-width: 0.8; stroke-linejoin: miter; stroke-linecap: square"/>
   </g>
   <g id="text_24">
    <!-- OFV Simulation -->
    <g transform="translate(380.878828 15.558281) scale(0.11 -0.11)">
     <defs>
      <path id="DejaVuSans-4f" d="M 2522 4238 
Q 1834 4238 1429 3725 
Q 1025 3213 1025 2328 
Q 1025 1447 1429 934 
Q 1834 422 2522 422 
Q 3209 422 3611 934 
Q 4013 1447 4013 2328 
Q 4013 3213 3611 3725 
Q 3209 4238 2522 4238 
z
M 2522 4750 
Q 3503 4750 4090 4092 
Q 4678 3434 4678 2328 
Q 4678 1225 4090 567 
Q 3503 -91 2522 -91 
Q 1538 -91 948 565 
Q 359 1222 359 2328 
Q 359 3434 948 4092 
Q 1538 4750 2522 4750 
z
" transform="scale(0.015625)"/>
      <path id="DejaVuSans-56" d="M 1831 0 
L 50 4666 
L 709 4666 
L 2188 738 
L 3669 4666 
L 4325 4666 
L 2547 0 
L 1831 0 
z
" transform="scale(0.015625)"/>
     </defs>
     <use xlink:href="#DejaVuSans-4f"/>
     <use xlink:href="#DejaVuSans-46" transform="translate(78.710938 0)"/>
     <use xlink:href="#DejaVuSans-56" transform="translate(136.230469 0)"/>
     <use xlink:href="#DejaVuSans-20" transform="translate(204.638672 0)"/>
     <use xlink:href="#DejaVuSans-53" transform="translate(236.425781 0)"/>
     <use xlink:href="#DejaVuSans-69" transform="translate(299.902344 0)"/>
     <use xlink:href="#DejaVuSans-6d" transform="translate(327.685547 0)"/>
     <use xlink:href="#DejaVuSans-75" transform="translate(425.097656 0)"/>
     <use xlink:href="#DejaVuSans-6c" transform="translate(488.476562 0)"/>
     <use xlink:href="#DejaVuSans-61" transform="translate(516.259766 0)"/>
     <use xlink:href="#DejaVuSans-74" transform="translate(577.539062 0)"/>
     <use xlink:href="#DejaVuSans-69" transform="translate(616.748047 0)"/>
     <use xlink:href="#DejaVuSans-6f" transform="translate(644.53125 0)"/>
     <use xlink:href="#DejaVuSans-6e" transform="translate(705.712891 0)"/>
    </g>
   </g>
  </g>
  <g id="axes_3">
   <g id="patch_13">
    <path d="M 564.690625 242.518281 
L 812.115625 242.518281 
L 812.115625 21.558281 
L 564.690625 21.558281 
z
" style="fill: #ffffff"/>
   </g>
   <g id="matplotlib.axis_5">
    <g id="xtick_11">
     <g id="line2d_30">
      <g>
       <use xlink:href="#m5ecfbf2b57" x="575.937216" y="242.518281" style="stroke: #000000; stroke-width: 0.8"/>
      </g>
     </g>
     <g id="text_25">
      <!-- 0 -->
      <g transform="translate(572.755966 257.116719) scale(0.1 -0.1)">
       <use xlink:href="#DejaVuSans-30"/>
      </g>
     </g>
    </g>
    <g id="xtick_12">
     <g id="line2d_31">
      <g>
       <use xlink:href="#m5ecfbf2b57" x="632.17017" y="242.518281" style="stroke: #000000; stroke-width: 0.8"/>
      </g>
     </g>
     <g id="text_26">
      <!-- 2 -->
      <g transform="translate(628.98892 257.116719) scale(0.1 -0.1)">
       <use xlink:href="#DejaVuSans-32"/>
      </g>
     </g>
    </g>
    <g id="xtick_13">
     <g id="line2d_32">
      <g>
       <use xlink:href="#m5ecfbf2b57" x="688.403125" y="242.518281" style="stroke: #000000; stroke-width: 0.8"/>
      </g>
     </g>
     <g id="text_27">
      <!-- 4 -->
      <g transform="translate(685.221875 257.116719) scale(0.1 -0.1)">
       <use xlink:href="#DejaVuSans-34"/>
      </g>
     </g>
    </g>
    <g id="xtick_14">
     <g id="line2d_33">
      <g>
       <use xlink:href="#m5ecfbf2b57" x="744.63608" y="242.518281" style="stroke: #000000; stroke-width: 0.8"/>
      </g>
     </g>
     <g id="text_28">
      <!-- 6 -->
      <g transform="translate(741.45483 257.116719) scale(0.1 -0.1)">
       <use xlink:href="#DejaVuSans-36"/>
      </g>
     </g>
    </g>
    <g id="xtick_15">
     <g id="line2d_34">
      <g>
       <use xlink:href="#m5ecfbf2b57" x="800.869034" y="242.518281" style="stroke: #000000; stroke-width: 0.8"/>
      </g>
     </g>
     <g id="text_29">
      <!-- 8 -->
      <g transform="translate(797.687784 257.116719) scale(0.1 -0.1)">
       <use xlink:href="#DejaVuSans-38"/>
      </g>
     </g>
    </g>
    <g id="text_30">
     <!-- Time [h] -->
     <g transform="translate(667.510156 270.794844) scale(0.1 -0.1)">
      <use xlink:href="#DejaVuSans-54"/>
      <use xlink:href="#DejaVuSans-69" transform="translate(57.958984 0)"/>
      <use xlink:href="#DejaVuSans-6d" transform="translate(85.742188 0)"/>
      <use xlink:href="#DejaVuSans-65" transform="translate(183.154297 0)"/>
      <use xlink:href="#DejaVuSans-20" transform="translate(244.677734 0)"/>
      <use xlink:href="#DejaVuSans-5b" transform="translate(276.464844 0)"/>
      <use xlink:href="#DejaVuSans-68" transform="translate(315.478516 0)"/>
      <use xlink:href="#DejaVuSans-5d" transform="translate(378.857422 0)"/>
     </g>
    </g>
   </g>
   <g id="matplotlib.axis_6">
    <g id="ytick_13">
     <g id="line2d_35">
      <g>
       <use xlink:href="#m18ad566cb4" x="564.690625" y="242.518281" style="stroke: #000000; stroke-width: 0.8"/>
      </g>
     </g>
    </g>
    <g id="ytick_14">
     <g id="line2d_36">
      <g>
       <use xlink:href="#m18ad566cb4" x="564.690625" y="198.326281" style="stroke: #000000; stroke-width: 0.8"/>
      </g>
     </g>
    </g>
    <g id="ytick_15">
     <g id="line2d_37">
      <g>
       <use xlink:href="#m18ad566cb4" x="564.690625" y="154.134281" style="stroke: #000000; stroke-width: 0.8"/>
      </g>
     </g>
    </g>
    <g id="ytick_16">
     <g id="line2d_38">
      <g>
       <use xlink:href="#m18ad566cb4" x="564.690625" y="109.942281" style="stroke: #000000; stroke-width: 0.8"/>
      </g>
     </g>
    </g>
    <g id="ytick_17">
     <g id="line2d_39">
      <g>
       <use xlink:href="#m18ad566cb4" x="564.690625" y="65.750281" style="stroke: #000000; stroke-width: 0.8"/>
      </g>
     </g>
    </g>
    <g id="ytick_18">
     <g id="line2d_40">
      <g>
       <use xlink:href="#m18ad566cb4" x="564.690625" y="21.558281" style="stroke: #000000; stroke-width: 0.8"/>
      </g>
     </g>
    </g>
   </g>
   <g id="line2d_41">
    <path d="M 575.937216 120.50629 
L 579.698618 125.443918 
L 587.221421 135.565201 
L 627.092278 192.625395 
L 639.881044 208.665124 
L 650.412968 219.397863 
L 660.192613 227.033943 
L 669.972257 232.562345 
L 678.999621 236.092948 
L 688.026985 238.45149 
L 697.054349 239.984958 
L 706.833993 241.013983 
L 717.365918 241.667057 
L 729.402403 242.07735 
L 744.448009 242.330846 
L 761.750457 242.447029 
L 800.869034 242.510779 
L 800.869034 242.510779 
" clip-path="url(#pc49ca98f91)" style="fill: none; stroke: #d92847; stroke-width: 3; stroke-linecap: square"/>
   </g>
   <g id="line2d_42">
    <path d="M 575.937216 148.960274 
L 579.698618 152.033261 
L 586.469141 157.698836 
L 608.28527 178.155061 
L 628.596839 198.424591 
L 640.633324 209.790599 
L 651.165249 218.489689 
L 660.944893 225.143105 
L 669.972257 230.050784 
L 678.999621 233.752907 
L 688.026985 236.45395 
L 697.054349 238.376111 
L 706.833993 239.797758 
L 716.613637 240.747031 
L 727.897842 241.440608 
L 740.686608 241.907376 
L 755.732214 242.208697 
L 773.786942 242.386268 
L 800.869034 242.479868 
L 800.869034 242.479868 
" clip-path="url(#pc49ca98f91)" style="fill: none; stroke: #35a1ab; stroke-width: 3; stroke-linecap: square"/>
   </g>
   <g id="patch_14">
    <path d="M 564.690625 242.518281 
L 564.690625 21.558281 
" style="fill: none; stroke: #000000; stroke-width: 0.8; stroke-linejoin: miter; stroke-linecap: square"/>
   </g>
   <g id="patch_15">
    <path d="M 812.115625 242.518281 
L 812.115625 21.558281 
" style="fill: none; stroke: #000000; stroke-width: 0.8; stroke-linejoin: miter; stroke-linecap: square"/>
   </g>
   <g id="patch_16">
    <path d="M 564.690625 242.518281 
L 812.115625 242.518281 
" style="fill: none; stroke: #000000; stroke-width: 0.8; stroke-linejoin: miter; stroke-linecap: square"/>
   </g>
   <g id="patch_17">
    <path d="M 564.690625 21.558281 
L 812.115625 21.558281 
" style="fill: none; stroke: #000000; stroke-width: 0.8; stroke-linejoin: miter; stroke-linecap: square"/>
   </g>
   <g id="text_31">
    <!-- EFV Simulation -->
    <g transform="translate(646.958047 15.558281) scale(0.11 -0.11)">
     <use xlink:href="#DejaVuSans-45"/>
     <use xlink:href="#DejaVuSans-46" transform="translate(63.183594 0)"/>
     <use xlink:href="#DejaVuSans-56" transform="translate(120.703125 0)"/>
     <use xlink:href="#DejaVuSans-20" transform="translate(189.111328 0)"/>
     <use xlink:href="#DejaVuSans-53" transform="translate(220.898438 0)"/>
     <use xlink:href="#DejaVuSans-69" transform="translate(284.375 0)"/>
     <use xlink:href="#DejaVuSans-6d" transform="translate(312.158203 0)"/>
     <use xlink:href="#DejaVuSans-75" transform="translate(409.570312 0)"/>
     <use xlink:href="#DejaVuSans-6c" transform="translate(472.949219 0)"/>
     <use xlink:href="#DejaVuSans-61" transform="translate(500.732422 0)"/>
     <use xlink:href="#DejaVuSans-74" transform="translate(562.011719 0)"/>
     <use xlink:href="#DejaVuSans-69" transform="translate(601.220703 0)"/>
     <use xlink:href="#DejaVuSans-6f" transform="translate(629.003906 0)"/>
     <use xlink:href="#DejaVuSans-6e" transform="translate(690.185547 0)"/>
    </g>
   </g>
  </g>
  <g id="axes_4">
   <g id="PathCollection_3">
    <defs>
     <path id="mb01491a063" d="M 0 2.738613 
C 0.726289 2.738613 1.422928 2.450055 1.936492 1.936492 
C 2.450055 1.422928 2.738613 0.726289 2.738613 0 
C 2.738613 -0.726289 2.450055 -1.422928 1.936492 -1.936492 
C 1.422928 -2.450055 0.726289 -2.738613 0 -2.738613 
C -0.726289 -2.738613 -1.422928 -2.450055 -1.936492 -1.936492 
C -2.450055 -1.422928 -2.738613 -0.726289 -2.738613 0 
C -2.738613 0.726289 -2.450055 1.422928 -1.936492 1.936492 
C -1.422928 2.450055 -0.726289 2.738613 0 2.738613 
z
" style="stroke: #000000"/>
    </defs>
    <g clip-path="url(#p29ce7cc17e)">
     <use xlink:href="#mb01491a063" x="53.001661" y="230.574115" style="stroke: #000000"/>
     <use xlink:href="#mb01491a063" x="67.790676" y="230.212274" style="stroke: #000000"/>
     <use xlink:href="#mb01491a063" x="81.63927" y="228.824734" style="stroke: #000000"/>
     <use xlink:href="#mb01491a063" x="95.688161" y="225.95542" style="stroke: #000000"/>
     <use xlink:href="#mb01491a063" x="109.345262" y="224.833667" style="stroke: #000000"/>
     <use xlink:href="#mb01491a063" x="123.781239" y="220.86643" style="stroke: #000000"/>
     <use xlink:href="#mb01491a063" x="136.88213" y="218.018451" style="stroke: #000000"/>
     <use xlink:href="#mb01491a063" x="151.527387" y="211.32847" style="stroke: #000000"/>
     <use xlink:href="#mb01491a063" x="165.242189" y="202.236179" style="stroke: #000000"/>
     <use xlink:href="#mb01491a063" x="179.927602" y="189.999303" style="stroke: #000000"/>
     <use xlink:href="#mb01491a063" x="193.482324" y="176.833562" style="stroke: #000000"/>
     <use xlink:href="#mb01491a063" x="206.657985" y="163.657275" style="stroke: #000000"/>
     <use xlink:href="#mb01491a063" x="221.384935" y="145.682702" style="stroke: #000000"/>
     <use xlink:href="#mb01491a063" x="235.509253" y="132.394223" style="stroke: #000000"/>
     <use xlink:href="#mb01491a063" x="249.370529" y="129.254885" style="stroke: #000000"/>
     <use xlink:href="#mb01491a063" x="263.210904" y="129.002821" style="stroke: #000000"/>
     <use xlink:href="#mb01491a063" x="270.419034" y="128.38094" style="stroke: #000000"/>
    </g>
   </g>
   <g id="matplotlib.axis_7">
    <g id="ytick_19">
     <g id="line2d_43">
      <defs>
       <path id="m114b0dacd1" d="M 0 0 
L 3.5 0 
" style="stroke: #000000; stroke-width: 0.8"/>
      </defs>
      <g>
       <use xlink:href="#m114b0dacd1" x="281.665625" y="242.518281" style="stroke: #000000; stroke-width: 0.8"/>
      </g>
     </g>
    </g>
    <g id="ytick_20">
     <g id="line2d_44">
      <g>
       <use xlink:href="#m114b0dacd1" x="281.665625" y="210.952567" style="stroke: #000000; stroke-width: 0.8"/>
      </g>
     </g>
    </g>
    <g id="ytick_21">
     <g id="line2d_45">
      <g>
       <use xlink:href="#m114b0dacd1" x="281.665625" y="179.386853" style="stroke: #000000; stroke-width: 0.8"/>
      </g>
     </g>
    </g>
    <g id="ytick_22">
     <g id="line2d_46">
      <g>
       <use xlink:href="#m114b0dacd1" x="281.665625" y="147.821138" style="stroke: #000000; stroke-width: 0.8"/>
      </g>
     </g>
    </g>
    <g id="ytick_23">
     <g id="line2d_47">
      <g>
       <use xlink:href="#m114b0dacd1" x="281.665625" y="116.255424" style="stroke: #000000; stroke-width: 0.8"/>
      </g>
     </g>
    </g>
    <g id="ytick_24">
     <g id="line2d_48">
      <g>
       <use xlink:href="#m114b0dacd1" x="281.665625" y="84.68971" style="stroke: #000000; stroke-width: 0.8"/>
      </g>
     </g>
    </g>
    <g id="ytick_25">
     <g id="line2d_49">
      <g>
       <use xlink:href="#m114b0dacd1" x="281.665625" y="53.123996" style="stroke: #000000; stroke-width: 0.8"/>
      </g>
     </g>
    </g>
    <g id="ytick_26">
     <g id="line2d_50">
      <g>
       <use xlink:href="#m114b0dacd1" x="281.665625" y="21.558281" style="stroke: #000000; stroke-width: 0.8"/>
      </g>
     </g>
    </g>
   </g>
   <g id="line2d_51">
    <path d="M 53.001661 230.574115 
L 68.998926 230.091215 
L 82.087597 228.733168 
L 95.903417 225.93774 
L 109.719236 224.730893 
L 125.716501 220.445727 
L 137.350876 217.804327 
L 151.893844 211.085525 
L 165.709664 201.846648 
L 180.252632 189.683601 
L 198.431342 171.884309 
L 207.157123 163.048066 
L 221.700091 145.386196 
L 235.515911 132.392715 
L 249.33173 129.263673 
L 259.511808 129.07019 
L 264.601847 128.882817 
L 270.419034 128.38094 
L 270.419034 128.38094 
" clip-path="url(#p29ce7cc17e)" style="fill: none; stroke: #000000; stroke-width: 1.5; stroke-linecap: square"/>
   </g>
   <g id="patch_18">
    <path d="M 34.240625 242.518281 
L 34.240625 21.558281 
" style="fill: none; stroke: #000000; stroke-width: 0.8; stroke-linejoin: miter; stroke-linecap: square"/>
   </g>
   <g id="patch_19">
    <path d="M 281.665625 242.518281 
L 281.665625 21.558281 
" style="fill: none; stroke: #000000; stroke-width: 0.8; stroke-linejoin: miter; stroke-linecap: square"/>
   </g>
   <g id="patch_20">
    <path d="M 34.240625 242.518281 
L 281.665625 242.518281 
" style="fill: none; stroke: #000000; stroke-width: 0.8; stroke-linejoin: miter; stroke-linecap: square"/>
   </g>
   <g id="patch_21">
    <path d="M 34.240625 21.558281 
L 281.665625 21.558281 
" style="fill: none; stroke: #000000; stroke-width: 0.8; stroke-linejoin: miter; stroke-linecap: square"/>
   </g>
  </g>
  <g id="axes_5">
   <g id="matplotlib.axis_8">
    <g id="ytick_27">
     <g id="line2d_52">
      <g>
       <use xlink:href="#m114b0dacd1" x="546.890625" y="242.518281" style="stroke: #000000; stroke-width: 0.8"/>
      </g>
     </g>
    </g>
    <g id="ytick_28">
     <g id="line2d_53">
      <g>
       <use xlink:href="#m114b0dacd1" x="546.890625" y="210.952567" style="stroke: #000000; stroke-width: 0.8"/>
      </g>
     </g>
    </g>
    <g id="ytick_29">
     <g id="line2d_54">
      <g>
       <use xlink:href="#m114b0dacd1" x="546.890625" y="179.386853" style="stroke: #000000; stroke-width: 0.8"/>
      </g>
     </g>
    </g>
    <g id="ytick_30">
     <g id="line2d_55">
      <g>
       <use xlink:href="#m114b0dacd1" x="546.890625" y="147.821138" style="stroke: #000000; stroke-width: 0.8"/>
      </g>
     </g>
    </g>
    <g id="ytick_31">
     <g id="line2d_56">
      <g>
       <use xlink:href="#m114b0dacd1" x="546.890625" y="116.255424" style="stroke: #000000; stroke-width: 0.8"/>
      </g>
     </g>
    </g>
    <g id="ytick_32">
     <g id="line2d_57">
      <g>
       <use xlink:href="#m114b0dacd1" x="546.890625" y="84.68971" style="stroke: #000000; stroke-width: 0.8"/>
      </g>
     </g>
    </g>
    <g id="ytick_33">
     <g id="line2d_58">
      <g>
       <use xlink:href="#m114b0dacd1" x="546.890625" y="53.123996" style="stroke: #000000; stroke-width: 0.8"/>
      </g>
     </g>
    </g>
    <g id="ytick_34">
     <g id="line2d_59">
      <g>
       <use xlink:href="#m114b0dacd1" x="546.890625" y="21.558281" style="stroke: #000000; stroke-width: 0.8"/>
      </g>
     </g>
    </g>
   </g>
   <g id="line2d_60">
    <path d="M 310.712216 204.639424 
L 313.721337 199.791638 
L 321.244141 187.347939 
L 342.30799 148.759694 
L 357.353596 120.346749 
L 376.160604 89.654644 
L 383.683408 80.343489 
L 387.444809 76.642785 
L 391.958491 72.379801 
L 400.233575 66.509484 
L 408.508659 62.499613 
L 416.031462 60.010654 
L 424.306545 58.228517 
L 432.581629 57.094241 
L 442.361273 56.298697 
L 452.893198 55.818362 
L 465.681964 55.518742 
L 481.47985 55.352819 
L 531.130352 55.260318 
L 535.644034 55.259053 
L 535.644034 55.259053 
" clip-path="url(#peda13e9276)" style="fill: none; stroke: #000000; stroke-width: 3; stroke-linecap: square"/>
   </g>
   <g id="patch_22">
    <path d="M 299.465625 242.518281 
L 299.465625 21.558281 
" style="fill: none; stroke: #000000; stroke-width: 0.8; stroke-linejoin: miter; stroke-linecap: square"/>
   </g>
   <g id="patch_23">
    <path d="M 546.890625 242.518281 
L 546.890625 21.558281 
" style="fill: none; stroke: #000000; stroke-width: 0.8; stroke-linejoin: miter; stroke-linecap: square"/>
   </g>
   <g id="patch_24">
    <path d="M 299.465625 242.518281 
L 546.890625 242.518281 
" style="fill: none; stroke: #000000; stroke-width: 0.8; stroke-linejoin: miter; stroke-linecap: square"/>
   </g>
   <g id="patch_25">
    <path d="M 299.465625 21.558281 
L 546.890625 21.558281 
" style="fill: none; stroke: #000000; stroke-width: 0.8; stroke-linejoin: miter; stroke-linecap: square"/>
   </g>
  </g>
  <g id="axes_6">
   <g id="matplotlib.axis_9">
    <g id="ytick_35">
     <g id="line2d_61">
      <g>
       <use xlink:href="#m114b0dacd1" x="812.115625" y="242.518281" style="stroke: #000000; stroke-width: 0.8"/>
      </g>
     </g>
     <g id="text_32">
      <!-- 1.0 -->
      <g transform="translate(819.115625 246.3175) scale(0.1 -0.1)">
       <defs>
        <path id="DejaVuSans-2e" d="M 684 794 
L 1344 794 
L 1344 0 
L 684 0 
L 684 794 
z
" transform="scale(0.015625)"/>
       </defs>
       <use xlink:href="#DejaVuSans-31"/>
       <use xlink:href="#DejaVuSans-2e" transform="translate(63.623047 0)"/>
       <use xlink:href="#DejaVuSans-30" transform="translate(95.410156 0)"/>
      </g>
     </g>
    </g>
    <g id="ytick_36">
     <g id="line2d_62">
      <g>
       <use xlink:href="#m114b0dacd1" x="812.115625" y="210.952567" style="stroke: #000000; stroke-width: 0.8"/>
      </g>
     </g>
     <g id="text_33">
      <!-- 1.5 -->
      <g transform="translate(819.115625 214.751786) scale(0.1 -0.1)">
       <use xlink:href="#DejaVuSans-31"/>
       <use xlink:href="#DejaVuSans-2e" transform="translate(63.623047 0)"/>
       <use xlink:href="#DejaVuSans-35" transform="translate(95.410156 0)"/>
      </g>
     </g>
    </g>
    <g id="ytick_37">
     <g id="line2d_63">
      <g>
       <use xlink:href="#m114b0dacd1" x="812.115625" y="179.386853" style="stroke: #000000; stroke-width: 0.8"/>
      </g>
     </g>
     <g id="text_34">
      <!-- 2.0 -->
      <g transform="translate(819.115625 183.186071) scale(0.1 -0.1)">
       <use xlink:href="#DejaVuSans-32"/>
       <use xlink:href="#DejaVuSans-2e" transform="translate(63.623047 0)"/>
       <use xlink:href="#DejaVuSans-30" transform="translate(95.410156 0)"/>
      </g>
     </g>
    </g>
    <g id="ytick_38">
     <g id="line2d_64">
      <g>
       <use xlink:href="#m114b0dacd1" x="812.115625" y="147.821138" style="stroke: #000000; stroke-width: 0.8"/>
      </g>
     </g>
     <g id="text_35">
      <!-- 2.5 -->
      <g transform="translate(819.115625 151.620357) scale(0.1 -0.1)">
       <use xlink:href="#DejaVuSans-32"/>
       <use xlink:href="#DejaVuSans-2e" transform="translate(63.623047 0)"/>
       <use xlink:href="#DejaVuSans-35" transform="translate(95.410156 0)"/>
      </g>
     </g>
    </g>
    <g id="ytick_39">
     <g id="line2d_65">
      <g>
       <use xlink:href="#m114b0dacd1" x="812.115625" y="116.255424" style="stroke: #000000; stroke-width: 0.8"/>
      </g>
     </g>
     <g id="text_36">
      <!-- 3.0 -->
      <g transform="translate(819.115625 120.054643) scale(0.1 -0.1)">
       <use xlink:href="#DejaVuSans-33"/>
       <use xlink:href="#DejaVuSans-2e" transform="translate(63.623047 0)"/>
       <use xlink:href="#DejaVuSans-30" transform="translate(95.410156 0)"/>
      </g>
     </g>
    </g>
    <g id="ytick_40">
     <g id="line2d_66">
      <g>
       <use xlink:href="#m114b0dacd1" x="812.115625" y="84.68971" style="stroke: #000000; stroke-width: 0.8"/>
      </g>
     </g>
     <g id="text_37">
      <!-- 3.5 -->
      <g transform="translate(819.115625 88.488929) scale(0.1 -0.1)">
       <use xlink:href="#DejaVuSans-33"/>
       <use xlink:href="#DejaVuSans-2e" transform="translate(63.623047 0)"/>
       <use xlink:href="#DejaVuSans-35" transform="translate(95.410156 0)"/>
      </g>
     </g>
    </g>
    <g id="ytick_41">
     <g id="line2d_67">
      <g>
       <use xlink:href="#m114b0dacd1" x="812.115625" y="53.123996" style="stroke: #000000; stroke-width: 0.8"/>
      </g>
     </g>
     <g id="text_38">
      <!-- 4.0 -->
      <g transform="translate(819.115625 56.923214) scale(0.1 -0.1)">
       <use xlink:href="#DejaVuSans-34"/>
       <use xlink:href="#DejaVuSans-2e" transform="translate(63.623047 0)"/>
       <use xlink:href="#DejaVuSans-30" transform="translate(95.410156 0)"/>
      </g>
     </g>
    </g>
    <g id="ytick_42">
     <g id="line2d_68">
      <g>
       <use xlink:href="#m114b0dacd1" x="812.115625" y="21.558281" style="stroke: #000000; stroke-width: 0.8"/>
      </g>
     </g>
     <g id="text_39">
      <!-- 4.5 -->
      <g transform="translate(819.115625 25.3575) scale(0.1 -0.1)">
       <use xlink:href="#DejaVuSans-34"/>
       <use xlink:href="#DejaVuSans-2e" transform="translate(63.623047 0)"/>
       <use xlink:href="#DejaVuSans-35" transform="translate(95.410156 0)"/>
      </g>
     </g>
    </g>
    <g id="text_40">
     <!-- Biomass [mgCDW/L] -->
     <g transform="translate(846.617188 183.351562) rotate(-90) scale(0.1 -0.1)">
      <defs>
       <path id="DejaVuSans-57" d="M 213 4666 
L 850 4666 
L 1831 722 
L 2809 4666 
L 3519 4666 
L 4500 722 
L 5478 4666 
L 6119 4666 
L 4947 0 
L 4153 0 
L 3169 4050 
L 2175 0 
L 1381 0 
L 213 4666 
z
" transform="scale(0.015625)"/>
      </defs>
      <use xlink:href="#DejaVuSans-42"/>
      <use xlink:href="#DejaVuSans-69" transform="translate(68.603516 0)"/>
      <use xlink:href="#DejaVuSans-6f" transform="translate(96.386719 0)"/>
      <use xlink:href="#DejaVuSans-6d" transform="translate(157.568359 0)"/>
      <use xlink:href="#DejaVuSans-61" transform="translate(254.980469 0)"/>
      <use xlink:href="#DejaVuSans-73" transform="translate(316.259766 0)"/>
      <use xlink:href="#DejaVuSans-73" transform="translate(368.359375 0)"/>
      <use xlink:href="#DejaVuSans-20" transform="translate(420.458984 0)"/>
      <use xlink:href="#DejaVuSans-5b" transform="translate(452.246094 0)"/>
      <use xlink:href="#DejaVuSans-6d" transform="translate(491.259766 0)"/>
      <use xlink:href="#DejaVuSans-67" transform="translate(588.671875 0)"/>
      <use xlink:href="#DejaVuSans-43" transform="translate(652.148438 0)"/>
      <use xlink:href="#DejaVuSans-44" transform="translate(721.972656 0)"/>
      <use xlink:href="#DejaVuSans-57" transform="translate(798.974609 0)"/>
      <use xlink:href="#DejaVuSans-2f" transform="translate(897.851562 0)"/>
      <use xlink:href="#DejaVuSans-4c" transform="translate(931.542969 0)"/>
      <use xlink:href="#DejaVuSans-5d" transform="translate(987.255859 0)"/>
     </g>
    </g>
   </g>
   <g id="line2d_69">
    <path d="M 575.937216 204.639424 
L 579.698618 199.330907 
L 586.469141 189.584782 
L 610.542111 151.61526 
L 626.339998 126.129681 
L 639.881044 106.326873 
L 650.412968 93.384048 
L 660.192613 83.839841 
L 669.972257 76.652147 
L 678.999621 71.860202 
L 688.026985 68.508171 
L 697.054349 66.218869 
L 706.081713 64.683987 
L 716.613637 63.555088 
L 727.145562 62.861157 
L 739.934327 62.378119 
L 754.979934 62.080405 
L 773.786942 61.907445 
L 800.869034 61.827357 
L 800.869034 61.827357 
" clip-path="url(#pc49ca98f91)" style="fill: none; stroke: #000000; stroke-width: 3; stroke-linecap: square"/>
   </g>
   <g id="patch_26">
    <path d="M 564.690625 242.518281 
L 564.690625 21.558281 
" style="fill: none; stroke: #000000; stroke-width: 0.8; stroke-linejoin: miter; stroke-linecap: square"/>
   </g>
   <g id="patch_27">
    <path d="M 812.115625 242.518281 
L 812.115625 21.558281 
" style="fill: none; stroke: #000000; stroke-width: 0.8; stroke-linejoin: miter; stroke-linecap: square"/>
   </g>
   <g id="patch_28">
    <path d="M 564.690625 242.518281 
L 812.115625 242.518281 
" style="fill: none; stroke: #000000; stroke-width: 0.8; stroke-linejoin: miter; stroke-linecap: square"/>
   </g>
   <g id="patch_29">
    <path d="M 564.690625 21.558281 
L 812.115625 21.558281 
" style="fill: none; stroke: #000000; stroke-width: 0.8; stroke-linejoin: miter; stroke-linecap: square"/>
   </g>
  </g>
 </g>
 <defs>
  <clipPath id="p29ce7cc17e">
   <rect x="34.240625" y="21.558281" width="247.425" height="220.96"/>
  </clipPath>
  <clipPath id="peda13e9276">
   <rect x="299.465625" y="21.558281" width="247.425" height="220.96"/>
  </clipPath>
  <clipPath id="pc49ca98f91">
   <rect x="564.690625" y="21.558281" width="247.425" height="220.96"/>
  </clipPath>
 </defs>
</svg>
